<svg id="b" xmlns="http://www.w3.org/2000/svg" width="229.722" height="243.77" viewBox="0 0 229.722 243.77" style="color: initial !important;"><defs><style>.d{fill:#211715;}.e{fill:#ffda71;}.f{fill:#c6c6c6;}.g{fill:#f2635f;}</style></defs><g id="c"><path class="f" d="M55.983,191.587c-1.385,5.836-3.14,11.986-6.224,16.331-1.698,2.392-3.804,4.457-6.034,6.349-1.094.929-2.222,1.817-3.357,2.694-.876.677-2.054,1.435-2.374,2.571-.359,1.275.483,2.812,1.236,3.798,1.933,2.531,5.06,3.491,8.236,3.735,4.233.324,8.219-.83,12.083-2.34,4.69-1.833,9.541-3.835,13.847-6.467"/><path class="f" d="M109.423,232.263c-6.986-.769-13.961-2.381-20.5-5.322-11.903-4.626-21.799-13.597-27.33-23.379-11.747-20.76-13.4-43.702-11.393-69.254.624-8.025-4.106-16.903-8.119-20.812-2.88-2.817-5.728-5.645-8.42-8.639-8.607-9.553-12.173-22.766-8.857-35.199.312-1.164.728-2.318,1.528-3.212,2.277-2.599,6.362-1.996,9.792-1.601,5.374.624,11.113.166,16.331-1.289,9.023-2.848,19.315-2.339,27.984,1.466,8.67,3.794,15.874,10.832,19.886,19.398,3.035,6.466,4.356,12.059,6.923,19.159.01.031.021.052.021.083,2.152,8.545,15.219,46.072,18.14,52.57,3.347,7.485,12.069,21.342,18.14,27.226,12.339,11.955,28.619,19.71,46.021,16.705.104-.021.208-.052.301-.094,7.381-3.368,13.556-9.21,17.475-16.29,1.331-2.391,4.803-2.204,5.873.322,2.391,5.655,3.025,12.069,1.705,18.067-.364,1.642.364,3.327,1.84,4.137,3.586,1.965,6.84,4.522,9.616,7.537,2.713,2.942-.977,5.146-3.555,5.666-6.986,1.393-14.928,1.445-21.612-1.258-.333-.135-.686-.187-.998-.021-1.788.873-3.572,1.759-5.302,2.713-15.395,8.492-33.334,9.525-50.543,9.057"/><path class="d" d="M53.668,190.949c-1.167,4.892-2.434,9.945-5.036,14.301-2.753,4.609-7.118,7.456-11.084,10.884-4.697,4.061-.176,10.152,4.239,12.043,4.997,2.14,10.774,1.462,15.804-.196,5.846-1.928,11.746-4.464,17.017-7.651,2.64-1.596.23-5.749-2.423-4.145-4.195,2.537-8.712,4.457-13.274,6.225-4.355,1.688-9.139,3.073-13.803,1.858-1.742-.454-3.359-1.322-4.316-2.9-.243-.401-.591-.898-.379-1.34.141-.294.639-.586.896-.789.624-.494,1.263-.97,1.888-1.463,3.808-3,7.465-6.35,9.877-10.613,2.605-4.605,4.004-9.827,5.223-14.938.716-3.003-3.911-4.284-4.629-1.276h0Z"/><path class="d" d="M52.785,75.143c-.556-1.85.187-6.049,3.971-6.291,4.986.182,4.881,5.283,3.127,7.625-1.436,1.918-5.503,2.607-7.098-1.334Z"/><path class="d" d="M59.41,93.843c3.632.643,7.005,2.186,10.389,3.593.534.222,1.376.035,1.849-.242.498-.291.973-.862,1.103-1.434.14-.614.11-1.304-.242-1.849-.362-.561-.823-.849-1.434-1.103-3.384-1.408-6.757-2.95-10.389-3.593-1.232-.218-2.646.332-2.952,1.676-.266,1.169.354,2.718,1.676,2.952h0Z"/><path class="d" d="M54.164,98.343c3.033,2.483,5.925,5.137,8.374,8.209.358.449,1.15.703,1.697.703.589,0,1.292-.261,1.697-.703.42-.457.732-1.058.703-1.697-.03-.675-.284-1.172-.703-1.697-2.449-3.072-5.341-5.726-8.374-8.209-.507-.415-1.018-.703-1.697-.703-.589,0-1.292.261-1.697.703-.808.88-1.037,2.545,0,3.394h0Z"/><path class="d" d="M109.423,229.863c-11.078-1.249-22.161-4.979-31.26-11.52-4.024-2.893-7.672-6.409-10.722-10.315-3.111-3.984-5.487-8.535-7.532-13.14-4.216-9.498-6.524-19.819-7.461-30.142-.502-5.53-.643-11.088-.543-16.638.051-2.801.164-5.6.325-8.397.157-2.714.557-5.473.382-8.191-.338-5.276-2.248-10.486-5.068-14.936-2.866-4.521-7.092-7.94-10.718-11.823-7.065-7.567-11.333-17.096-10.801-27.585.124-2.452.505-4.909,1.201-7.267.622-2.108,1.94-2.943,4.094-3.011,2.515-.08,5.011.448,7.518.57,2.979.145,5.948-.052,8.897-.477,2.899-.418,5.635-1.32,8.48-1.96,2.692-.606,5.431-.888,8.189-.891,5.306-.006,10.694,1.038,15.525,3.27,9.138,4.222,15.841,11.817,19.58,21.085,2.869,7.112,4.928,14.53,7.218,21.838,4.167,13.301,8.768,26.498,13.63,39.56,2.036,5.468,4.327,10.658,7.282,15.711,4.511,7.711,9.604,15.483,16.291,21.488,7.703,6.919,16.904,12.443,27.054,14.818,5.131,1.201,10.477,1.611,15.721,1.053,1.235-.131,2.619-.191,3.806-.579,1.287-.42,2.541-1.186,3.708-1.861,2.265-1.311,4.396-2.872,6.368-4.59,1.923-1.676,3.664-3.541,5.231-5.552.768-.986,1.507-1.993,2.189-3.04.53-.814,1.047-2.264,1.787-2.784.165-.116.616-.071.677-.042.644.304.92,1.407,1.214,2.276.92,2.718,1.444,5.539,1.509,8.408.03,1.315-.021,2.636-.171,3.943-.155,1.352-.64,2.716-.585,4.081.049,1.23.457,2.417,1.181,3.409.889,1.219,2.143,1.83,3.4,2.595,2.303,1.402,4.416,3.056,6.339,4.946.444.437.948.873,1.326,1.369.098.129.403.668.283.162.129.548-.159.211-.047.135.242-.164-.181.21-.228.248-.279.221-.708.51-1.122.694-1.94.86-4.541.985-6.668,1.145-2.768.207-5.596.202-8.348-.195-1.31-.189-2.612-.471-3.885-.831-1.307-.369-2.75-1.215-4.13-1.166-1.388.049-2.792,1.037-4.003,1.649-1.345.68-2.658,1.415-3.993,2.114-9.828,5.144-20.937,7.257-31.925,7.924-5.409.328-10.832.326-16.247.183-3.09-.082-3.088,4.718,0,4.8,11.584.306,23.334-.049,34.641-2.813,5.662-1.384,11.193-3.411,16.342-6.153,1.201-.64,2.391-1.295,3.605-1.909.649-.328,1.357-.802,2.056-1.021-.737.231-.307.118.154.292.398.15.799.29,1.204.421,2.795.904,5.738,1.369,8.665,1.554,2.816.177,5.641.044,8.438-.31,2.484-.315,5.158-.589,7.316-1.978,2.06-1.327,3.539-3.602,2.68-6.103-.874-2.545-3.697-4.643-5.732-6.263-1.153-.918-2.34-1.792-3.582-2.586-.792-.507-2.346-1.005-2.78-1.885-.399-.81.093-1.955.217-2.777.238-1.588.396-3.184.405-4.79.017-2.982-.383-6.008-1.174-8.884-.685-2.493-1.485-5.509-3.934-6.823-2.12-1.137-4.866-.792-6.599.89-.873.847-1.377,1.977-2.011,2.997-.684,1.1-1.419,2.175-2.222,3.192-3.16,4.001-7.121,7.321-11.639,9.686-2.242,1.174-4.87,1.206-7.37,1.265-2.57.06-5.159-.087-7.698-.502-5.132-.84-10.098-2.538-14.713-4.927-8.574-4.438-15.911-10.79-21.571-18.589-2.821-3.887-5.421-7.941-7.813-12.106-1.05-1.829-2.061-3.682-2.987-5.577-.313-.64-.609-1.288-.903-1.937-.209-.463-.027-.06.007.024-.088-.214-.177-.427-.264-.64-2.272-5.58-4.253-11.287-6.26-16.966-2.549-7.211-5.039-14.444-7.43-21.709-1.983-6.025-3.797-12.098-5.764-18.125-1.755-5.375-3.452-10.838-6.115-15.851-2.395-4.509-5.686-8.612-9.553-11.944-8.552-7.369-19.798-11.022-31.062-10.06-5.958.509-11.521,2.809-17.499,3.153-2.927.169-5.797-.045-8.705-.359-2.378-.257-4.903-.391-7.171.508-5.368,2.129-6.033,9.164-6.315,14.185-.295,5.256.521,10.636,2.319,15.581,1.883,5.179,4.737,9.889,8.408,13.995,2.144,2.398,4.41,4.686,6.697,6.946,1.67,1.65,3.261,3.226,4.544,5.203,2.747,4.234,4.721,9.31,4.649,14.415-.041,2.863-.39,5.738-.531,8.599-.144,2.926-.231,5.855-.246,8.785-.057,11.124.937,22.345,3.824,33.115,2.772,10.344,7.199,20.72,14.109,28.992,7.098,8.496,16.437,14.22,26.724,18.063,5.694,2.127,11.662,3.312,17.689,3.991,1.29.145,2.4-1.207,2.4-2.4,0-1.418-1.106-2.254-2.4-2.4h0Z"/><path class="f" d="M124.33,193.738c1.601,13.836,8.108,26.519,18.67,35.469,1.195,1.019,2.453,1.996,3.763,2.911,1.518,1.071,2.88,2.1,4.231,3.389,1.289,1.227,1.528,3.618.239,4.855-.904.863-2.277.946-3.514.977-11.445.239-23.379-.821-33.671-6.237-1.59-.832-3.139-1.778-4.626-2.838-6.747-4.782-12.183-11.757-13.691-19.928"/><path class="d" d="M121.93,193.738c1.874,15.722,9.683,30.112,22.457,39.613.87.647,1.773,1.249,2.636,1.908.784.599,1.957,1.328,2.491,2.174.137.217.243.734.158.96-.16.424-.495.436-1.009.501-2.011.255-4.162.094-6.186.055-2.123-.042-4.245-.143-6.36-.322-8.313-.704-16.686-2.769-23.785-7.29-7.028-4.476-12.687-11.327-14.286-19.638-.245-1.274-1.773-2-2.952-1.676-1.332.366-1.922,1.675-1.676,2.952,1.578,8.203,6.777,15.226,13.302,20.253,7.439,5.731,16.468,8.593,25.685,9.799,4.498.589,9.039.779,13.573.739,2.183-.019,4.587.087,6.425-1.282,1.767-1.317,2.37-3.561,1.931-5.668-.474-2.272-2.313-3.704-4.047-5.055-1.901-1.482-3.905-2.808-5.74-4.378-3.01-2.575-5.767-5.482-8.091-8.693-5.299-7.323-8.656-15.974-9.726-24.95-.153-1.287-.993-2.4-2.4-2.4-1.178,0-2.554,1.104-2.4,2.4h0Z"/><circle class="e" cx="31.897" cy="31.946" r="29.564"/><path class="g" d="M31.897,4.221c-1.565,0-3.13.613-4.293,1.838-2.615,2.758-4.607,6.228-5.948,9.92-1.852,5.096-2.69,10.609-2.69,16.086,0,5.544.837,10.989,2.69,16.086,1.433,3.943,3.608,7.635,6.491,10.474,2.058,2.026,5.438,2.027,7.497.001,2.885-2.839,5.06-6.531,6.494-10.475,1.852-5.096,2.69-10.542,2.69-16.086,0-5.476-.837-10.989-2.69-16.086-1.342-3.693-3.334-7.164-5.95-9.922-1.162-1.225-2.726-1.837-4.291-1.837Z"/><path class="d" d="M31.897,1.821c-4.963.162-8.015,4.368-10.232,8.361-2.388,4.301-3.804,9.135-4.504,13.987-1.398,9.697-.457,20.231,4.102,29.03,1.045,2.017,2.333,3.904,3.805,5.634,1.395,1.64,3,3.085,5.175,3.53,4.864.995,8.124-2.643,10.593-6.304,5.393-7.997,6.962-18.529,6.24-27.984-.427-5.588-1.663-11.143-4.084-16.217-2.162-4.531-5.556-9.856-11.095-10.037-3.09-.101-3.086,4.699,0,4.8,1.812.059,2.887,1.338,3.935,2.677,1.109,1.416,2.036,2.995,2.832,4.605,1.777,3.599,2.808,7.637,3.35,11.602,1.086,7.951.365,16.812-3.073,24.147-.82,1.75-1.796,3.453-2.966,4.994-.83,1.093-1.848,2.541-3.207,2.969-1.235.388-2.343-.095-3.211-.973-1.304-1.321-2.398-2.811-3.342-4.406-4.113-6.945-5.244-15.512-4.747-23.456.286-4.567,1.213-9.212,2.998-13.441.823-1.95,1.881-3.826,3.122-5.541,1.089-1.504,2.308-3.111,4.308-3.177,3.081-.1,3.095-4.901,0-4.8Z"/><path class="d" d="M59.061,31.946c-.065,11.207-7.132,21.669-17.764,25.502-10.831,3.904-22.985.592-30.371-8.221-7.318-8.732-8.141-21.617-2.287-31.32C14.446,8.282,26.033,3.059,37.093,5.272c11.165,2.234,19.818,11.261,21.661,22.483.227,1.383.299,2.791.307,4.191.018,3.088,4.818,3.094,4.8,0-.078-13.348-8.481-25.345-20.975-30.015S15.741,1.251,7.323,11.523C-1.187,21.908-2.478,36.843,4.494,48.408s20.682,17.481,33.875,14.841c12.739-2.55,23.112-13.307,25.067-26.173.259-1.703.415-3.407.425-5.13.018-3.089-4.782-3.093-4.8,0Z"/></g></svg>