<svg id="b" xmlns="http://www.w3.org/2000/svg" width="359.678" height="321.248" viewBox="0 0 359.678 321.248" style="color: initial !important;"><defs><style>.d{fill:#ffffff;}.e{fill:none;}.f{fill:#f8b8b4;}.g{fill:#211715;}.h{fill:#ffda71;}.i{fill:#f2635f;}</style></defs><g id="c"><path class="g" d="M335.262,260.031c4.347.397,9.653.04,12.841-3.378,1.61-1.727,2.436-3.916,2.692-6.236.26-2.36-.102-5.07-1.623-6.96-1.451-1.802-3.735-2.802-6.047-2.287-2.33.52-3.883,2.519-4.259,4.813-.405,2.477.264,5.131,2.048,6.949s4.274,2.473,6.724,2.732c2.626.278,5.511-.181,7.711-1.714,2.55-1.776,3.931-4.419,4.316-7.458.163-1.288-1.22-2.4-2.4-2.4-1.432,0-2.237,1.108-2.4,2.4-.352,2.779-2.91,4.373-5.518,4.444-2.34.064-5.574-.494-5.803-3.232-.039-.46-.004-.99.126-1.309.052-.127.318-.491.277-.446.047-.051.101-.04.326-.129-.19.075.157-.003.176,0,.328.046.351.065.564.209.145.098.603.587.693.799.924,2.17.333,5.363-1.42,6.844-2.331,1.969-6.081,1.825-9.023,1.557-1.293-.118-2.4,1.188-2.4,2.4,0,1.396,1.104,2.282,2.4,2.4h0Z"/><path class="f" d="M233.97,230.13c-.033.001-.066.003-.099.004-.109.004-.219.009-.328.015-.959.045-1.92.118-2.899.22-1.062.11-1.725,1.25-1.324,2.276,1.499,3.842,4.176,8.271,7.92,9.619l-1.448-.015c-.243-.003-.386-.002-.386-.002-1.285.003-2.361.944-3.217,1.902-2.048,2.294-3.591,4.996-5.579,7.342s-4.609,4.399-7.669,4.702c-.949.094-2.005.05-2.726.675-.697.604-.826,1.622-.876,2.544-.168,3.05-.011,6.107.146,9.158.059,1.138.124,2.306.582,3.349.745,1.698,2.412,2.809,4.041,3.665,1.123.59,2.281,1.109,3.453,1.592,4.164,1.717,8.382,3.305,12.645,4.759,1.617.552,3.285,1.09,4.981,1.147,3.684.123,6.646,3.085,7.186,6.731.991,6.697.915,14.352-.545,20.738-.095.418-.125.996.071,1.371.147.282.479.496.748.639,1.903,1.013,3.426.895,5.607.895,1.102,0,1.715-.246,2.567-.59.561-.226.976-.555,1.294-1.003,4.76-6.716,6.148-12.404,7.203-19.973,7.821,3.29,12.66,3.009,20.22,2.771.851-.027,1.701-.073,2.55-.14.21-.016.42-.034.631-.053,1.991-.179,3.972-.469,5.929-.871,4.715-.969,7.027-1.658,9.674-3.67,1.411,1.796,3.095,3.343,5.076,4.518,1.632,3.67,2.016,8.154,1.186,13.48-.144.921-.366,1.895-.002,2.754.494,1.165,1.863,1.711,3.128,1.805,2.599.193,5.752-.897,8.148-1.719,6.809-15.405,15.151-32.158,13.125-49.511-.041-.35-.086-.7-.136-1.048-.882-6.2-3.215-12.248-7.106-17.154-3.925-4.949-9.334-8.614-15.208-10.936-7.967-3.149-16.563-3.777-25.049-3.547-8.678.234-17.343,1.54-25.675,3.989-3.799,1.116-7.528,2.472-11.147,4.087-.837-2.471-2.555-3.787-3.744-4.554-1.49-.961-3.524-1.584-5.272-1.736-2.742-.237-5.208-.32-7.672-.224Z"/><path class="g" d="M235.406,239.846c-5.152.382-7.542,6.484-10.493,9.947-1.29,1.514-2.839,3.013-4.757,3.681-2.233.777-4.722.163-6.25,2.427-1.372,2.033-1.067,5.03-1.032,7.365.04,2.643-.023,5.474.508,8.072,1.046,5.123,6.831,7.065,11.085,8.781,2.84,1.146,5.704,2.231,8.59,3.255s5.862,2.22,8.988,2.093c3.078-.126,3.094-4.926,0-4.8-2.215.09-4.282-.724-6.344-1.441-2.208-.767-4.403-1.57-6.584-2.407-2.156-.828-4.329-1.648-6.422-2.626-1.474-.689-3.454-1.498-4.299-2.988-.418-.737-.453-1.595-.5-2.421-.068-1.195-.125-2.391-.169-3.588-.078-2.134-.029-4.242.081-6.367.02-.377-.041-.103-.026-.11.271-.123.69-.084.979-.111,1.037-.097,2.051-.266,3.028-.634,1.961-.738,3.689-1.923,5.195-3.372,1.668-1.605,3.005-3.531,4.339-5.411.687-.967,1.367-1.94,2.133-2.847.444-.526,1.182-1.641,1.951-1.698,1.293-.096,2.4-1.034,2.4-2.4,0-1.225-1.1-2.496-2.4-2.4h0Z"/><path class="g" d="M245.664,288.131c.865,4.603,1.129,9.319.886,13.995-.115,2.211-.352,4.41-.782,6.583-.23,1.162-.593,2.35-.292,3.537.327,1.29,1.353,2.125,2.517,2.655,2.086.951,4.437,1.086,6.703.94,2.376-.153,4.367-1.175,5.732-3.114,2.399-3.409,4.231-7.228,5.408-11.227,1.353-4.594,1.877-9.399,2.465-14.136.16-1.288-1.217-2.4-2.4-2.4-1.43,0-2.24,1.108-2.4,2.4-.853,6.874-1.79,13.784-5.284,19.89-.637,1.114-1.443,3.15-2.725,3.565-1.401.454-3.322.415-4.749.021-.125-.035-.354-.134-.512-.163-.382-.07-.419-.51-.227.194.228.837.245-.166.311-.481.213-1.026.385-2.06.528-3.098.288-2.079.483-4.164.554-6.263.161-4.745-.228-9.508-1.105-14.173-.24-1.275-1.777-1.999-2.952-1.676-1.337.367-1.917,1.674-1.676,2.952h0Z"/><path class="g" d="M265.129,294.39c6.874,2.773,13.922,3.049,21.242,2.631,3.905-.223,7.773-.777,11.576-1.695,2.692-.65,5.266-1.61,7.505-3.268,1.04-.77,1.566-2.079.861-3.284-.6-1.026-2.236-1.637-3.284-.861-2.008,1.486-3.942,2.202-6.359,2.784-3.555.857-7.13,1.362-10.781,1.549-3.375.173-6.811.286-10.181-.031-3.213-.302-6.322-1.252-9.304-2.454-1.203-.485-2.637.528-2.952,1.676-.377,1.37.469,2.465,1.676,2.952h0Z"/><path class="g" d="M307.323,295.655c.995,2.305,1.302,4.874,1.281,7.363-.011,1.347-.109,2.701-.303,4.034-.239,1.641-.585,3.279.205,4.837,1.366,2.694,4.61,3.239,7.333,2.908,1.381-.168,2.721-.466,4.053-.865,1.569-.47,3.427-.783,4.21-2.355,2.699-5.42,5.026-11.143,7.251-16.771s4.159-11.422,5.268-17.391c2.179-11.725,1.175-24.641-6.038-34.556-7.094-9.75-18.461-14.678-30.155-16.155-14.255-1.801-29.381.136-42.954,4.708-2.912.981-1.663,5.619,1.276,4.629,9.272-3.123,18.952-4.806,28.729-5.072,9.284-.253,18.922.526,27.334,4.792,7.578,3.843,13.395,10.109,16.104,18.224,2.87,8.596,2.303,17.831.118,26.512-2.545,10.112-7.053,19.562-11.255,29.057l1.434-1.103c-2.038.699-4.193,1.533-6.366,1.642-.474.024-1.661.137-2.019-.308-.349-.434.224-2.325.283-2.791.602-4.705.244-9.381-1.647-13.76-.514-1.19-2.262-1.459-3.284-.861-1.23.719-1.377,2.089-.861,3.284h0Z"/><path class="g" d="M298.047,278.622c1.294,6.822,4.187,13.879,10.136,17.894,1.075.725,2.659.206,3.284-.861.691-1.182.216-2.556-.861-3.284-.165-.111-.328-.226-.491-.341-.325-.231.228.189-.084-.06-.281-.224-.552-.46-.816-.704-.532-.493-1.03-1.024-1.494-1.582.005.006-.376-.472-.27-.332.1.132-.155-.216-.18-.251-.217-.303-.427-.611-.628-.925-.432-.674-.826-1.372-1.187-2.086-1.294-2.557-2.197-5.662-2.782-8.745-.242-1.274-1.776-2-2.952-1.676-1.335.367-1.919,1.674-1.676,2.952h0Z"/><path class="g" d="M238.558,252.256c-1.926,0-3.258,1.72-3.258,3.732,0,2.33,1.26,3.802,3.258,3.802,2.044,0,3.258-1.473,3.258-3.802,0-2.026-1.338-3.732-3.258-3.732Z"/><path class="g" d="M253.486,238.595c-.423-3.258-1.798-5.93-4.435-7.925-2.791-2.112-6.072-2.665-9.483-2.869-1.882-.112-3.769-.144-5.654-.069-1.856.074-4.27-.088-5.734,1.235-2.885,2.606-.343,6.766,1.305,9.362,1.913,3.012,4.664,5.865,8.3,6.577,1.271.249,2.591-.36,2.952-1.676.324-1.178-.398-2.702-1.676-2.952-2.582-.506-4.393-2.61-5.767-4.916-.27-.453-1.636-3.299-1.693-3.282.109-.034-.538.941-.569.649,0-.005,1.109-.095,1.159-.099.955-.071,1.912-.114,2.87-.131,1.915-.034,3.83.04,5.74.186,1.495.114,2.989.408,4.32,1.132.467.254.923.549,1.346.873-.429-.329.268.249.337.313.171.161.336.328.494.502.335.37.52.636.818,1.232.253.507.488,1.214.571,1.857.167,1.285.984,2.4,2.4,2.4,1.167,0,2.568-1.106,2.4-2.4h0Z"/><path class="d" d="M134.325,283.896c-1.938,11.928-5.373,21.87-9.602,32.659-.456,1.163-1.529,1.992-2.77,2.136-1.654.193-3.188.208-4.729.043-1.144-.123-2.068-.61-2.481-1.683-.304-.791-.244-1.707-.217-2.555.144-4.391,2.417-15.464-2.708-26.204-3.225,4.988-11.68,6.969-19.963,7.772-5.81.563-16.772.025-24.741-1.155-1.789,6.51-3.315,11.695-6.995,19.432-.536,1.128-1.665,1.879-2.913,1.936-1.663.076-3.195-.016-4.72-.29-1.132-.203-2.02-.753-2.356-1.853-.248-.811-.24-1.74-.037-2.563,1.438-5.834,1.443-15.089.104-20.113-3.72-1.788-6.532-5.122-8.836-8.693-3.676-5.699-5.584-12.149-4.769-19.104-5.699,3.521-12.428,5.343-19.124,5.196-3.124-.069-6.301-.579-9.062-2.043-3.576-1.897-5.796-5.172-6.027-9.237-.111-1.952.702-3.558,1.978-5.041,1.208-1.404,2.567-2.523,4.089-3.578,5.272-3.656,6.214-10.862,11.807-14.576,3.239-2.151,7.871-3.325,11.487-1.37,1.494-1.732,2.249-3.985,3.57-5.862.679-.964,1.506-1.824,2.443-2.54,1.552-1.186,3.699-1.968,5.447-1.094.98.491,1.673,1.439,2.063,2.464.39,1.025.507,2.131.585,3.224.108,1.511.147,3.028.116,4.543l-.066,3.269c3.494-.641,6.987-1.282,6.987-1.282,5.62-1.031,43.068-2.18,57.451-.409,13.388,1.648,21.485,6.129,25.273,16.377,1.888,5.108,1.242,11.579,1.118,17.103-.049,2.191-1.347,9.448-2.461,15.987"/><path class="g" d="M136.582,285.429c.888-5.209,2-10.447,2.486-15.715.234-2.533.236-5.13.263-7.672.031-2.893-.099-5.823-.73-8.656-1.989-8.929-8.873-15.299-17.313-18.164-7.588-2.576-15.849-2.878-23.793-3.091-8.547-.23-17.106-.148-25.652.091-4.033.112-8.067.26-12.095.497-2.495.147-5.034.259-7.499.701-1.277.229-1.997,1.785-1.676,2.952.37,1.345,1.672,1.906,2.952,1.676.14-.025.281-.044.421-.069.57-.099-.651.067-.013.003.438-.044.876-.097,1.315-.138,1.182-.11,2.366-.193,3.55-.268,3.226-.204,6.457-.34,9.688-.451,8.204-.281,16.419-.396,24.627-.282,7.255.1,14.672.164,21.804,1.642,4.045.839,7.996,2.13,11.406,4.509,2.852,1.989,5.048,4.877,6.503,8.17,2.387,5.403,1.675,11.499,1.514,17.235-.061,2.157-.405,3.959-.756,6.131-.519,3.212-1.083,6.416-1.629,9.623-.218,1.276.339,2.585,1.676,2.952,1.153.317,2.733-.391,2.952-1.676h0Z"/><path class="g" d="M105.95,283.478c3.583,4.373,5.721,9.734,6.471,15.317.562,4.179.327,8.414-.053,12.596-.172,1.891-.545,4.036-.062,5.892.932,3.582,4.543,4.053,7.712,3.954,1.628-.051,3.29-.153,4.693-1.062,1.579-1.023,2.171-2.574,2.824-4.256,1.183-3.047,2.329-6.109,3.393-9.199,2.493-7.237,4.468-14.629,5.712-22.186.21-1.278-.333-2.583-1.676-2.952-1.147-.315-2.741.39-2.952,1.676-1.028,6.251-2.544,12.399-4.466,18.434-.937,2.942-1.963,5.855-3.039,8.749-.523,1.405-1.057,2.805-1.6,4.202-.467,1.202-.604,1.638-1.932,1.742-.785.062-1.575.078-2.362.049-.335-.012-1.112.05-1.425-.109-.604-.307-.276-1.627-.24-2.284.078-1.425.246-2.846.361-4.269.351-4.326.325-8.637-.362-12.931-.993-6.203-3.629-11.906-7.603-16.757-.822-1.003-2.541-.853-3.394,0-.992.992-.824,2.388,0,3.394h0Z"/><path class="g" d="M48.138,293.167c.797,3.957.794,8.125.49,12.136-.145,1.913-.463,3.754-.847,5.63-.514,2.513-.096,5.287,2.274,6.704,1.911,1.142,4.77,1.159,6.928,1.049,2.442-.124,4.357-1.361,5.419-3.573,1.964-4.092,3.645-8.338,5.021-12.663,1.517-4.772,2.727-9.638,4.105-14.451.852-2.975-3.778-4.245-4.629-1.276-2.119,7.401-3.894,14.909-6.877,22.028-.373.891-.767,1.774-1.168,2.653-.315.69-.593,1.871-1.25,2.315-.509.344-1.359.191-1.947.179-.872-.018-2.034.032-2.863-.295-.437-.173-.432-.132-.45-.745-.025-.866.331-1.789.48-2.641.328-1.882.541-3.788.658-5.694.258-4.202.117-8.495-.715-12.63-.256-1.271-1.765-2.002-2.952-1.676-1.324.364-1.933,1.677-1.676,2.952h0Z"/><path class="g" d="M48.366,233.746c.025-1.426-.003-2.852-.098-4.276-.092-1.383-.207-2.818-.69-4.129-1.135-3.086-3.83-4.983-7.152-4.485-2.622.393-4.928,2.181-6.532,4.216-.818,1.037-1.468,2.141-2.086,3.306-.295.556-.585,1.114-.904,1.656-.159.27-.323.536-.498.796-.087.13-.177.258-.269.384.139-.174.119-.152-.06.068-.799.966-1.017,2.461,0,3.394.884.811,2.539,1.033,3.394,0,1.458-1.762,2.317-3.808,3.523-5.727.501-.797.874-1.266,1.732-2.04.175-.158.352-.315.54-.458-.339.258.189-.117.26-.162.26-.167.53-.31.804-.453.425-.222-.222.032.277-.106.22-.061.433-.124.655-.175.286-.052.293-.053.022-.004.11-.008.219-.011.329-.007.109,0,.218.005.327.016-.279-.037-.277-.027.004.032.631.203-.341-.219.238.1.43.237-.098-.188.206.15.105.101.205.207.299.318-.149-.198-.144-.183.014.046.105.195.22.381.318.58-.215-.436.076.26.091.31.085.282.15.57.204.859.024.124.045.249.064.374-.03-.219-.028-.18.007.117.043.519.085,1.038.114,1.558.069,1.246.087,2.494.065,3.742-.022,1.256,1.12,2.457,2.4,2.4,1.319-.059,2.376-1.054,2.4-2.4h0Z"/><path class="g" d="M32.614,230.767c-5.623-2.525-12.377-.431-16.467,3.991-3.321,3.592-4.754,8.855-8.627,11.925-2.465,1.954-5.128,3.72-6.582,6.633-1.366,2.735-1.131,5.901,0,8.678,2.429,5.965,8.437,8.602,14.521,9.151,7.346.664,14.898-1.2,21.299-4.791,2.694-1.511.277-5.659-2.423-4.145-4.751,2.665-10.095,4.161-15.549,4.25-4.473.073-10.041-.68-12.667-4.807-1.011-1.589-1.819-3.927-1.095-5.776.857-2.188,3.103-3.714,4.917-5.05,3.709-2.733,5.506-6.832,7.978-10.569,2.443-3.693,7.641-7.426,12.27-5.348,1.182.531,2.581.341,3.284-.861.6-1.026.327-2.75-.861-3.284h0Z"/><path class="g" d="M66.468,297.221c7.924,1.158,16.141,1.861,24.149,1.341,4.199-.273,8.491-.897,12.527-2.107,3.647-1.093,7.461-2.78,9.907-5.814.813-1.008.985-2.409,0-3.394-.841-.841-2.576-1.014-3.394,0-2.13,2.641-5.364,3.918-8.551,4.798-3.597.994-7.355,1.554-11.081,1.751-7.386.391-14.971-.135-22.282-1.204-1.281-.187-2.579.318-2.952,1.676-.31,1.129.386,2.764,1.676,2.952h0Z"/><path class="g" d="M34.624,272.775c.858,4.138,2.604,8.075,4.926,11.596,2.241,3.398,4.93,6.561,8.469,8.655,2.665,1.577,5.082-2.571,2.423-4.145-2.908-1.721-5.093-4.384-6.919-7.196-2.038-3.139-3.509-6.516-4.27-10.186-.263-1.27-1.76-2.004-2.952-1.676-1.318.362-1.94,1.679-1.676,2.952h0Z"/><path class="g" d="M91.346,235.323c6.268,5.653,10.032,17.019,7.833,23.611-1.858,5.515-5.602,6.572-9.016,5.868-2.354-.477-18.743-3.918-21.202-8.709-1.558-3.034-2.63-6.673-2.276-10.622.277-3.098,1.998-7.943,3.766-9.361"/><path class="g" d="M89.649,237.021c4.137,3.799,6.777,9.394,7.581,14.922.36,2.479.328,4.889-.658,7.148-.434.995-1.155,2.096-1.941,2.674-.514.378-.747.482-1.243.63-.671.2-.642.189-1.285.199-.81.013-1.028-.046-1.851-.219-.64-.134-1.279-.275-1.917-.421-2.033-.466-4.054-.986-6.055-1.574-2.166-.636-4.653-1.451-6.498-2.278-.962-.431-1.91-.9-2.807-1.455-.922-.57-.889-.561-1.692-1.361-.361-.36.052.241-.133-.196-.132-.312-.321-.612-.468-.919-.379-.796-.681-1.625-.936-2.469-.57-1.888-.82-3.805-.697-5.777.163-2.6,1.215-6.49,3.098-8.118,2.341-2.024-1.067-5.406-3.394-3.394-2.445,2.114-3.657,6.076-4.207,9.145-.756,4.217-.037,8.405,1.661,12.304,1.039,2.387,2.606,3.943,4.857,5.233,2.385,1.367,5.02,2.341,7.625,3.196,2.422.794,4.885,1.463,7.364,2.056,1.687.403,3.41.853,5.141,1.012,7.254.665,11.092-6.662,11.015-12.993-.092-7.52-3.62-15.646-9.166-20.74-2.272-2.086-5.675,1.299-3.394,3.394h0Z"/><path class="g" d="M134.614,253.426c1.469.99,2.564,2.483,3.541,3.936,1.092,1.626,2.043,3.345,2.844,5.132,1.553,3.465,2.436,7.273,2.664,11.056.078,1.294,1.047,2.4,2.4,2.4,1.239,0,2.478-1.1,2.4-2.4-.282-4.687-1.4-9.196-3.32-13.479-1.804-4.024-4.389-8.284-8.107-10.79-1.075-.725-2.659-.207-3.284.861-.691,1.181-.217,2.557.861,3.284h0Z"/><path class="g" d="M148.768,275.702c-.219-.446-.51-.843-.941-1.077-.905-.492-2.104-.012-2.704.826-.6.838-.726,1.923-.718,2.953.006.796.079,1.592.219,2.376.106.594.615,1.031,1.218,1.029,1.373-.005,2.745-.01,4.118-.015.12,0,.254-.007.337-.093.098-.102.079-.265.053-.404-.303-1.608-.719-3.194-1.244-4.743-.097-.285-.204-.577-.339-.851Z"/><path class="g" d="M150.84,274.491c-.567-1.115-1.589-2.063-2.832-2.345-1.157-.263-2.449-.051-3.444.608-2.007,1.33-2.616,3.637-2.554,5.93.011.421.042.842.091,1.261.096.818.159,1.586.536,2.328.641,1.263,1.968,1.927,3.347,1.935.994.006,1.988-.007,2.982-.011.391-.001.787.015,1.176-.018.721-.06,1.317-.291,1.852-.782s.788-1.284.773-1.994c-.014-.639-.21-1.323-.351-1.947-.12-.532-.252-1.061-.396-1.587-.316-1.15-.669-2.299-1.18-3.379-.245-.516-.903-.957-1.434-1.103-.574-.158-1.339-.087-1.849.242-.512.33-.964.822-1.103,1.434-.15.66-.047,1.238.242,1.849.038.079.075.158.109.239l-.242-.573c.36.87.619,1.791.865,2.699s.482,1.834.625,2.764l-.086-.638.003.109.086-.638-.02.102.242-.573-.053.087.861-.861-.071.051.573-.242-.084.028.638-.086c-.726.093-1.509.019-2.241.021-.739.003-1.522.079-2.256-.008l.638.086c-.098-.02-.184-.044-.277-.079l.573.242c-.089-.041-.166-.085-.247-.139l.486.375c-.102-.08-.187-.164-.268-.265l.375.486c-.056-.082-.101-.159-.144-.249l.242.573c-.104-.267-.133-.556-.173-.838l.086.638c-.132-.996-.193-2.018-.061-3.017l-.086.638c.06-.393.154-.772.305-1.141l-.242.573c.111-.248.24-.478.404-.696l-.375.486c.129-.158.27-.297.428-.426l-.486.375c.191-.144.389-.259.609-.354l-.573.242c.187-.072.374-.122.572-.15l-.638.086c.163-.016.32-.015.482.003l-.638-.086c.129.022.25.053.373.098l-.573-.242c.166.071.312.16.455.27l-.486-.375c.113.098.212.201.308.315l-.375-.486c.138.182.253.372.356.575.57,1.121,2.238,1.535,3.284.861,1.145-.738,1.471-2.084.861-3.284Z"/><path class="g" d="M24.394,243.416c-2.013,0-3.403,1.798-3.403,3.901,0,2.434,1.318,3.973,3.405,3.972,2.136,0,3.403-1.54,3.403-3.974,0-2.117-1.4-3.899-3.406-3.899Z"/><path class="g" d="M51.638,264.763c-.839.216-1.584.743-2.161,1.683-.656,1.068-.774,2.407-.516,3.634.258,1.226.866,2.354,1.579,3.385.76,1.1,1.659,2.121,2.756,2.886,2.202,1.536,6.289,1.947,8.173-.387.659-.816.871-1.931.742-2.972-.243-1.967-1.573-3.625-3.017-4.983-1.855-1.746-4.827-3.95-7.556-3.246Z"/><path class="g" d="M51,262.449c-2.032.579-3.545,2.169-4.213,4.153s-.314,4.085.495,5.951c1.348,3.111,3.946,5.971,7.237,7.003,2.853.895,6.63.557,8.647-1.895,1.386-1.685,1.758-3.825,1.245-5.928-.433-1.776-1.531-3.347-2.763-4.664-2.662-2.847-6.565-5.568-10.648-4.62-1.224.284-2.064,1.754-1.676,2.952.414,1.279,1.641,1.981,2.952,1.676.445-.103.044-.033-.05-.022.164-.02.329-.026.494-.026.132,0,.264.016.396.016.359,0-.532-.154.054.016.262.076.527.131.785.22.13.045.261.093.388.146-.49-.207.141.086.189.111.535.276,1.044.6,1.533.95.054.039.41.301.177.125-.275-.207.25.204.241.196.228.188.452.382.671.58.434.391.854.798,1.246,1.231.096.106.187.218.284.323.456.494-.14-.225.091.103.184.261.367.521.529.798.087.15.155.319.249.464.193.298-.102-.333.01.002.101.301.191.595.265.903.034.141,0,.411.004-.012-.001.14.016.281.014.421-.002.138-.007.283-.024.421.069-.55-.062.105-.085.183-.128.447-.048.083.002.003-.074.118-.14.239-.217.355.304-.464-.168.102-.265.208-.21.228.483-.271.032-.04-.095.048-.184.112-.278.163-.049.027-.256.153-.29.143l.273-.119c-.102.038-.206.072-.31.104-.212.064-.427.106-.644.152-.475.101.142-.022.14-.018-.011.02-.288.021-.337.024-.255.012-.511.009-.766-.006-.113-.007-.228-.025-.341-.028-.206-.005.509.108-.038-.014-.223-.05-1.271-.169-1.371-.39.003.006.538.258.124.052-.095-.047-.191-.091-.286-.141-.227-.119-.444-.254-.657-.396-.384-.257-.127-.093-.047-.028-.144-.117-.283-.24-.419-.365-.219-.201-.427-.412-.628-.631-.126-.137-.244-.281-.368-.419-.047-.052-.286-.353-.041-.039-.228-.292-.437-.6-.639-.911s-.391-.628-.563-.955c-.069-.131-.133-.263-.197-.396-.218-.446.054.277-.092-.243-.1-.357-.215-.7-.279-1.067.019.111.02.44.01-.024-.005-.223-.002-.443.001-.666.002-.137.11-.401-.002-.02.05-.169.111-.36.138-.532.05-.318-.254.363.057-.134.03-.049.338-.551.164-.297-.188.276.202-.216.201-.214.258-.33-.183.075.014-.036.079-.044.295-.243.382-.224l-.254.104c.108-.04.218-.075.33-.103,1.207-.344,2.078-1.711,1.676-2.952-.398-1.229-1.659-2.045-2.952-1.676Z"/><path class="g" d="M136.318,268.756c-.059.425-.158.841-.359,1.217-.554,1.033-1.793,1.548-2.965,1.562-2.063.024-4.691-1.005-6.263-2.341-2.396-2.036-3.821-4.995-4.778-7.991-1.54-4.822-.802-8.35-1.964-13.273-.662-2.805-2.112-7.029-4.444-8.605-1.396-.943-4.406-3.318-6.166-3.643,10.121,1.874,21.233,7.167,25.152,17.26,1.838,4.734,2.262,10.123,1.855,15.157-.018.218-.037.439-.068.657Z"/><path class="g" d="M134.004,268.118c-.095.537-.05.778-.595.954-.609.197-1.366.007-1.968-.151-1.487-.39-2.8-1.119-3.867-2.229-2.319-2.415-3.516-5.985-4.049-9.226-.582-3.535-.447-7.119-1.331-10.62-.756-2.996-1.927-6.298-4.146-8.535-1.051-1.059-2.439-1.89-3.67-2.729-1.326-.904-2.776-1.854-4.361-2.213l-1.276,4.629c6.804,1.284,13.752,3.861,18.795,8.77,5.829,5.674,7.304,14.147,6.383,21.989-.151,1.289,1.211,2.4,2.4,2.4,1.423,0,2.248-1.107,2.4-2.4.826-7.035-.233-15.066-4.211-21.06-3.479-5.242-8.759-8.908-14.49-11.328-3.221-1.361-6.564-2.351-10-2.999-1.272-.24-2.589.354-2.952,1.676-.332,1.207.407,2.665,1.676,2.952,1.198.271,2.386,1.155,3.492,1.92.964.667,2.061,1.277,2.776,2.167,2.045,2.546,2.877,6.478,3.193,9.636.404,4.033.535,7.967,2.028,11.796,1.405,3.603,3.576,7.17,7.153,8.956,1.91.953,4.129,1.647,6.282,1.401,2.51-.288,4.517-1.943,4.967-4.479.226-1.275-.344-2.586-1.676-2.952-1.16-.319-2.725.393-2.952,1.676Z"/><path class="d" d="M323.908,36.835c3.489-2.272,8.618-3.351,13.414-2.822,1.865.206,3.773.688,4.929,1.692.832.723,1.189,1.642,1.369,2.548.871,4.369-2.248,8.988-7.716,11.428,3.007-.39,5.6,1.647,6.234,3.658.792,2.511-.32,5.157-2.256,7.37s-4.646,4.067-7.327,5.896c1.761-.296,2.907-.193,4.53.649s2.248,1.793,2.659,3.142c1.79,5.882-3.358,12.17-12.337,13.061-3.605,6.543-8.289,10.748-15.03,14.345-12.644,6.748-28.827,6.292-41.267-.653-18.124-10.117-20.862-25.888-21.805-43.875,0,0-.595-7.837-.456-14.948.109-5.583,1.363-11.424,1.363-11.424,1.621-5.64,6.444-10.052,11.934-12.077,10.913-4.025,24.488,2.622,27.507,13.887,1.222,4.56.972,9.033.762,13.843,3.893-1.187,7.031-1.494,12.039-1.158,4.234.285,7.917,1.598,10.995,3.803-.165-1.281-.293-2.313-.293-2.313-.338-2.725,1.709-5.457,4.124-6.568,1.954-.899,4.484-.674,6.001.851"/><path class="g" d="M289.418,101.707c-.143,4.637-.247,9.275-.341,13.913-.026,1.256,1.122,2.457,2.4,2.4,1.322-.059,2.373-1.054,2.4-2.4.095-4.638.199-9.276.341-13.913.039-1.256-1.132-2.457-2.4-2.4-1.333.06-2.359,1.054-2.4,2.4h0Z"/><path class="g" d="M286.883,121.269c1.37-1.04,2.861-1.906,4.442-2.582l-.573.242c.259-.109.52-.214.783-.313.599-.227,1.1-.532,1.434-1.103.301-.514.429-1.273.242-1.849-.188-.581-.548-1.141-1.103-1.434-.54-.286-1.254-.468-1.849-.242-2.072.785-4.031,1.795-5.798,3.137-.28.151-.504.357-.673.618-.212.232-.355.504-.43.816-.158.574-.087,1.339.242,1.849.33.512.822.964,1.434,1.103.585.133,1.348.139,1.849-.242h0Z"/><path class="g" d="M289.614,117.515c1.32,1.259,2.639,2.518,3.959,3.776.452.431,1.067.703,1.697.703.589,0,1.292-.261,1.697-.703.42-.457.732-1.058.703-1.697-.028-.628-.237-1.252-.703-1.697-1.32-1.259-2.639-2.518-3.959-3.776-.452-.431-1.067-.703-1.697-.703-.589,0-1.292.261-1.697.703-.42.457-.732,1.058-.703,1.697.028.628.237,1.252.703,1.697h0Z"/><path class="g" d="M279.32,101.621c-.138,4.521-.239,9.044-.331,13.567-.025,1.256,1.122,2.457,2.4,2.4,1.322-.059,2.373-1.054,2.4-2.4.092-4.523.192-9.045.331-13.567.038-1.256-1.131-2.457-2.4-2.4-1.333.06-2.359,1.054-2.4,2.4h0Z"/><path class="g" d="M276.797,120.836c1.37-1.04,2.861-1.906,4.442-2.582l-.573.242c.259-.109.52-.214.783-.313.599-.227,1.1-.532,1.434-1.103.301-.514.429-1.273.242-1.849-.188-.581-.548-1.141-1.103-1.434-.54-.286-1.254-.468-1.849-.242-2.072.785-4.031,1.795-5.798,3.137-.28.151-.504.357-.673.618-.212.232-.355.504-.43.816-.158.574-.087,1.339.242,1.849.33.512.822.964,1.434,1.103.585.133,1.348.139,1.849-.242h0Z"/><path class="g" d="M279.527,117.083c1.32,1.259,2.639,2.518,3.959,3.776.452.431,1.067.703,1.697.703.589,0,1.292-.261,1.697-.703.42-.457.732-1.058.703-1.697-.028-.628-.237-1.252-.703-1.697-1.32-1.259-2.639-2.518-3.959-3.776-.452-.431-1.067-.703-1.697-.703-.589,0-1.292.261-1.697.703-.42.457-.732,1.058-.703,1.697.028.628.237,1.252.703,1.697h0Z"/><path class="i" d="M294.125,21.307c.363-1.794.203-3.632-.65-5.552-1.711-3.85-5.035-6.062-9.19-5.646.183-3.275-2.273-6.404-5.414-7.357-3.141-.965-6.709.098-9.117,2.334-2.077,1.919-3.336,4.607-3.788,7.417,1.367-.18,2.733-.226,4.054-.135,9.815.679,17.634,7.523,20.077,16.191,2.039-2.4,3.53-4.784,4.03-7.252Z"/><path class="g" d="M314.91,43.312c-7.057-5.118-16.993-5.506-25.133-3.069l3.038,2.314c.244-5.548.537-11.391-1.58-16.651-1.66-4.125-4.504-7.526-8.109-10.104-7.211-5.156-17.02-6.053-24.869-1.842-4.865,2.61-8.761,6.985-10.36,12.305-.891,2.965,3.74,4.232,4.629,1.276,2.21-7.354,10.02-11.849,17.451-11.47,6.864.35,13.536,4.531,16.479,10.793,2.267,4.823,1.787,10.526,1.559,15.691-.068,1.543,1.591,2.748,3.038,2.314,7.028-2.104,15.342-1.832,21.434,2.585,1.05.761,2.675.18,3.284-.861.709-1.212.191-2.52-.861-3.284h0Z"/><path class="g" d="M246.905,53.276c.381,7.171,1,14.458,3.075,21.365,2.036,6.776,5.579,13.028,10.74,17.913,12.59,11.916,32.094,15.817,48.252,9.433,8.735-3.451,16.156-9.342,20.686-17.641,1.481-2.712-2.662-5.138-4.145-2.423-7.459,13.664-23.826,20.034-38.878,17.908-7.647-1.08-15.061-4.27-20.965-9.277-4.846-4.11-8.41-9.379-10.48-15.383-2.428-7.038-3.093-14.508-3.486-21.895-.163-3.073-4.964-3.092-4.8,0h0Z"/><path class="h" d="M249.305,28.819c-7.164,1.333-13.403,2.684-20.54,4.815,7.175,4.454,12.716,7.516,20.131,11.066"/><path class="g" d="M248.667,26.504c-6.922,1.291-13.787,2.808-20.54,4.815-2.002.595-2.336,3.294-.573,4.387,6.522,4.043,13.211,7.748,20.131,11.066,1.168.56,2.592.322,3.284-.861.613-1.049.313-2.721-.861-3.284-6.92-3.318-13.609-7.022-20.131-11.066l-.573,4.387c6.753-2.007,13.618-3.524,20.54-4.815,1.275-.238,1.999-1.778,1.676-2.952-.368-1.338-1.674-1.915-2.952-1.676h0Z"/><path class="e" d="M262.146,22.361l.207-.027"/><path class="e" d="M273.525,61.981c2.153,6.253,6.815,11.421,12.279,14.352,5.464,2.93,11.659,3.716,17.469,2.795,2.753-.436,6.989-2.462,5.914-6.445-.277-1.027-.865-1.937-1.51-2.759-2.783-3.547-6.657-6.306-9.946-9.252"/><path class="g" d="M268.279,13.142c.674-3.854,2.972-7.622,7.134-8.277,3.259-.513,6.567,1.798,6.472,5.244-.034,1.221,1.129,2.504,2.4,2.4,2.869-.235,5.212.942,6.628,3.477,1.862,3.333.672,6.502-1.368,9.422-.743,1.063-.194,2.667.861,3.284,1.196.7,2.539.205,3.284-.861,3.038-4.349,4.059-9.466,1.368-14.267-2.184-3.897-6.296-6.222-10.773-5.855l2.4,2.4c.163-5.946-5.376-10.607-11.164-10.066-6.315.59-10.813,5.777-11.87,11.823-.223,1.275.342,2.586,1.676,2.952,1.158.318,2.728-.393,2.952-1.676h0Z"/><path class="g" d="M263.842,25.784c-2.07,0-3.501,1.848-3.501,4.011,0,2.504,1.354,4.086,3.501,4.086,2.197,0,3.501-1.583,3.501-4.086,0-2.177-1.438-4.011-3.501-4.011Z"/><path class="g" d="M275.781,60.634c-.29,6.65,3.581,13.083,9.368,16.286,5.969,3.304,13.945,3.166,20.218.826,1.214-.453,2.041-1.623,1.676-2.952-.321-1.166-1.732-2.132-2.952-1.676-4.958,1.849-11.385,2.353-16.217-.179-4.546-2.382-7.517-7.143-7.292-12.304.135-3.089-4.666-3.082-4.8,0h0Z"/><path class="g" d="M325.12,38.907c2.311-1.462,5.001-2.295,7.722-2.535,1.48-.131,3.004-.149,4.48.041,1.099.142,2.753.358,3.522,1.269,1.13,1.338.437,3.721-.337,5.088-1.289,2.276-3.484,3.767-5.814,4.839-2.125.978-1.115,4.692,1.211,4.472,3.028-.285,4.942,2.052,3.634,4.875-1.562,3.372-5.245,5.565-8.194,7.577-2.335,1.594-.817,4.794,1.849,4.387,1.713-.262,3.697.438,4.236,2.115.45,1.399.327,2.832-.213,4.056-1.649,3.736-5.875,5.409-9.715,5.967-1.284.186-1.989,1.814-1.676,2.952.379,1.378,1.664,1.863,2.952,1.676,5.691-.826,11.633-4.193,13.313-10.042.725-2.523.522-5.592-.887-7.855-1.973-3.168-5.844-4.024-9.285-3.498l1.849,4.387c4.232-2.888,9.791-6.388,10.828-11.849.478-2.517-.041-5-1.797-6.912-1.723-1.876-4.367-2.874-6.894-2.636l1.211,4.472c3.21-1.477,6.274-3.9,7.84-7.14,1.4-2.895,1.857-6.764-.093-9.544-2.325-3.314-7.254-3.721-10.956-3.568-3.908.162-7.883,1.157-11.21,3.261-2.604,1.647-.198,5.802,2.423,4.145h0Z"/><path class="g" d="M315.555,42.889c-.032-.296-.045-.592-.028-.89.005-.095.013-.539.004-.122s.028-.083.054-.19c.063-.26.202-.522.248-.781l-.125.297c.041-.092.084-.182.13-.272.057-.113.117-.223.18-.333.043-.074.463-.694.458-.699-.207.262-.253.324-.14.185.048-.059.097-.118.148-.175.1-.115.204-.227.311-.336.178-.182.37-.345.558-.517.368-.336-.389.265-.009.006.124-.084.246-.17.373-.249.23-.144.47-.26.709-.388.257-.138-.506.18-.1.043.14-.047.278-.096.42-.137s.286-.075.43-.104c.092-.019.528-.117.118-.027-.414.09.094.003.196-.001.123-.005.246-.006.368-.003.142.003.299.033.44.027-.575.026-.31-.049-.06.003.239.049.466.127.699.196.466.138-.438-.23-.041-.016.128.069.255.134.378.211l.121.078c.206.146.161.107-.137-.117.019.08.267.239.324.294.901.875,2.509.965,3.394,0,.869-.947.962-2.46,0-3.394-2.547-2.474-6.57-2.668-9.557-.884-2.783,1.662-5.027,4.949-4.665,8.299.071.655.221,1.215.703,1.697.416.416,1.099.73,1.697.703,1.185-.053,2.545-1.063,2.4-2.4h0Z"/><path class="d" d="M127.165,60.715l-.51.88v46.4H25.875v-47.03l-.23-.41c16.87-9.74,33.74-19.49,50.62-29.23,16.97,9.8,33.94,19.6,50.9,29.39Z"/><path class="g" d="M23.476,60.966v47.029c0,1.297,1.1,2.4,2.4,2.4,26.192,0,52.385,0,78.577,0,7.4,0,14.801,0,22.201,0,1.297,0,2.4-1.1,2.4-2.4,0-11.147,0-22.294,0-33.44v-12.958c0-3.089-4.8-3.094-4.8,0,0,11.147,0,22.294,0,33.44v12.958l2.4-2.4c-26.192,0-52.385,0-78.577,0-7.4,0-14.801,0-22.201,0l2.4,2.4v-47.029c0-3.089-4.8-3.094-4.8,0h0Z"/><path class="g" d="M49.849,107.994v-35.324l-2.4,2.4c19.211,0,38.422,0,57.632,0l-2.4-2.4c0,11.775,0,23.549,0,35.324,0,3.089,4.8,3.094,4.8,0,0-11.775,0-23.549,0-35.324,0-1.297-1.1-2.4-2.4-2.4-19.211,0-38.422,0-57.632,0-1.297,0-2.4,1.1-2.4,2.4v35.324c0,3.089,4.8,3.094,4.8,0h0Z"/><path class="g" d="M68.14,54.737c5.417,0,10.834,0,16.251,0l-2.4-2.4c0,3.096,0,6.193,0,9.289l2.4-2.4c-5.417,0-10.834,0-16.251,0l2.4,2.4v-9.289c0-1.297-1.103-2.4-2.4-2.4s-2.4,1.098-2.4,2.4v9.289c0,1.297,1.1,2.4,2.4,2.4,5.417,0,10.834,0,16.251,0,1.297,0,2.4-1.1,2.4-2.4,0-3.096,0-6.193,0-9.289,0-1.297-1.1-2.4-2.4-2.4-5.417,0-10.834,0-16.251,0-1.297,0-2.4,1.103-2.4,2.4s1.098,2.4,2.4,2.4Z"/><path class="i" d="M11.765,51.234c21.5-12.413,43-24.826,64.5-37.239,21.5,12.413,43,24.826,64.5,37.239-2.977,5.156-5.861,10.152-7.506,13.001-18.998-10.968-37.996-21.937-56.994-32.905-18.998,10.968-37.996,21.937-56.994,32.905-.896-1.552-6.326-10.956-7.506-13.001Z"/><path class="g" d="M12.976,53.306c16.738-9.664,33.477-19.328,50.215-28.991,4.762-2.749,9.523-5.498,14.285-8.248h-2.423c16.738,9.664,33.477,19.328,50.215,28.991,4.762,2.749,9.523,5.498,14.285,8.248l-.861-3.284c-2.502,4.334-5.004,8.667-7.506,13.001l3.284-.861c-15.04-8.683-30.08-17.367-45.12-26.05l-11.226-6.481c-1.269-.732-2.203-.836-3.502-.125-.947.518-1.872,1.081-2.807,1.62l-5.829,3.365c-7.484,4.321-14.968,8.642-22.452,12.963-8.492,4.903-16.983,9.805-25.475,14.708l3.284.861c-2.502-4.334-5.004-8.667-7.506-13.001-1.544-2.674-5.694-.26-4.145,2.423,2.502,4.334,5.004,8.667,7.506,13.001.65,1.127,2.163,1.508,3.284.861,14.752-8.517,29.504-17.034,44.257-25.552l12.737-7.354h-2.423c14.752,8.517,29.504,17.034,44.257,25.552,4.246,2.451,8.492,4.903,12.737,7.354,1.118.646,2.632.268,3.284-.861,2.502-4.334,5.004-8.667,7.506-13.001.646-1.118.268-2.632-.861-3.284-17.027-9.83-34.054-19.661-51.081-29.491-4.185-2.416-8.369-4.832-12.554-7.248-.649-.375-1.294-.828-2.077-.828-.697,0-1.279.367-1.861.703l-3.247,1.874-6.277,3.624c-8.513,4.915-17.027,9.83-25.54,14.746-9.596,5.54-19.191,11.08-28.787,16.62-2.674,1.544-.26,5.694,2.423,4.145Z"/></g></svg>