<svg xmlns="http://www.w3.org/2000/svg" width="256" height="256" viewBox="0 0 256 256" style="color: initial !important;">
  <g stroke="#211715" stroke-width="6" stroke-linejoin="round" stroke-linecap="round">
    <path d="M110,158 C90,150 72,110 68,66" fill="none" stroke="#6FBF73" stroke-width="34"/>
    <circle cx="66" cy="60" r="26" fill="#6FBF73"/>
    <path d="M46,64 C40,66 38,72 42,78 C48,80 56,76 56,70 Z" fill="#6FBF73"/>
    <ellipse cx="150" cy="165" rx="58" ry="40" fill="#6FBF73"/>
    <path d="M200,168 C222,178 240,192 246,206 C232,206 214,198 198,186 Z" fill="#6FBF73"/>
    <rect x="112" y="195" width="24" height="46" rx="11" fill="#4E9E56"/>
    <rect x="168" y="195" width="24" height="46" rx="11" fill="#4E9E56"/>
    <path d="M100,128 L112,104 L122,130 Z" fill="#4E9E56"/>
    <path d="M128,122 L140,96 L150,124 Z" fill="#4E9E56"/>
    <path d="M156,126 L168,102 L178,128 Z" fill="#4E9E56"/>
  </g>
  <circle cx="58" cy="54" r="6" fill="#FFFFFF" stroke="#211715" stroke-width="3"/>
  <circle cx="60" cy="54" r="2.6" fill="#211715"/>
</svg>
