<svg xmlns="http://www.w3.org/2000/svg" viewBox="15.5 180.5 112 112">
    <defs>
        <style>
            .c{fill:#c6c6c6;}
            .d{fill:#ffffff;}
            .b{fill:#211715;}
        </style>
    </defs>
    <path class="c" d="M120.072,242.957V222.571h-11.84a43,43,0,0,0-4.527-11.525c2.872-2.873,6.162-6.162,8.2-8.2L97.488,188.433l-8.091,8.09a40.891,40.891,0,0,0-11.632-4.448V180.263H57.379v11.964a44.53,44.53,0,0,0-11.543,4.385c-2.828-2.828-6.2-6.195-8.179-8.179L23.241,202.848c1.992,1.991,5.208,5.207,8.017,8.017a41.122,41.122,0,0,0-4.447,11.706H15.072v20.386H26.926a44.434,44.434,0,0,0,4.381,11.656l-8.066,8.066,14.416,14.415,7.917-7.918a40.3,40.3,0,0,0,11.805,4.383v11.7H77.765v-12.2a45.757,45.757,0,0,0,10.948-4.742l8.775,8.775L111.9,262.679l-8.466-8.466a39.671,39.671,0,0,0,4.714-11.256Z"/>
    <path class="d" d="M66.757,216.865a15.8,15.8,0,0,1,12.009,4.077c5.76,5.519,6.426,15.958,1.357,22.118-5.453,6.628-16.687,7.584-23.133,1.922s-7.251-16.125-1.555-22.469A17.274,17.274,0,0,1,66.757,216.865Z"/>
    <path class="b" d="M66.757,219.265a14.26,14.26,0,0,1,9.253,2.469,12.666,12.666,0,0,1,4.48,6.664c1.526,5.174.416,11.272-3.888,14.8a14.942,14.942,0,0,1-14.856,1.983c-5.026-2.163-7.874-7.508-7.725-12.853a13.855,13.855,0,0,1,12.736-13.066,2.458,2.458,0,0,0,2.4-2.4,2.419,2.419,0,0,0-2.4-2.4c-8.015.564-15.479,6.408-17.124,14.414a18.728,18.728,0,0,0,7.693,19.351c5.919,3.881,14.2,3.725,20.21.14,6.583-3.925,9.263-11.574,8.1-18.935a18.025,18.025,0,0,0-5.47-10.466,18.566,18.566,0,0,0-13.409-4.5C63.68,214.605,63.663,219.405,66.757,219.265Z"/>
    <path class="b" d="M122.472,241.171v-12.82c0-1.6.276-3.533-.156-5.1-.923-3.364-4.29-3.075-7.009-3.075h-7.075l2.315,1.762a46.836,46.836,0,0,0-4.77-12.1l-.375,2.908q2.338-2.339,4.678-4.678c1.47-1.471,3.49-2.933,3.487-5.221s-2.034-3.76-3.5-5.228l-4.36-4.36-3.778-3.778c-1.268-1.268-2.475-2.713-4.44-2.713-2.265,0-3.721,2-5.179,3.453L87.7,194.826l2.908-.375a44.5,44.5,0,0,0-12.2-4.69l1.762,2.314v-9.166c0-2.459-1.109-4.773-3.865-5.017-.84-.074-1.7-.029-2.539-.029H62.325c-1.025,0-2.059-.041-3.083,0a4.313,4.313,0,0,0-4.263,4.453c-.08,3.3,0,6.61,0,9.911l1.762-2.314a48.414,48.414,0,0,0-12.117,4.627l2.909.375-4.656-4.656c-1.467-1.467-2.933-3.49-5.218-3.492-1.976,0-3.168,1.437-4.442,2.711l-3.638,3.639-4.208,4.207c-1.447,1.447-3.6,2.976-3.76,5.181-.171,2.39,1.667,3.774,3.2,5.3q2.378,2.376,4.753,4.753l-.375-2.909a44.755,44.755,0,0,0-4.689,12.28l2.314-1.762H17.667c-2.446,0-4.726,1.144-4.966,3.864-.08.9-.029,1.817-.029,2.718v11.258c0,1.025-.041,2.059,0,3.083a4.313,4.313,0,0,0,4.459,4.263c3.262.071,6.532,0,9.795,0L24.612,243.6a48.28,48.28,0,0,0,4.623,12.229l.375-2.908q-2.4,2.4-4.8,4.8c-1.517,1.517-3.371,2.929-3.206,5.3.125,1.792,1.5,2.918,2.68,4.1l3.779,3.778,4.36,4.36c1.388,1.389,2.775,3.317,4.889,3.468,2.364.169,3.754-1.647,5.265-3.158l4.692-4.693-2.908.375a43.867,43.867,0,0,0,12.378,4.625l-1.762-2.314v9.184c0,2.587,1.366,4.79,4.185,4.92.8.037,1.6,0,2.4,0H73.017c.97,0,1.949.039,2.919,0a4.326,4.326,0,0,0,4.229-4.542c.067-3.351,0-6.709,0-10.06L78.4,275.375a49.9,49.9,0,0,0,11.521-4.983l-2.908-.376q2.352,2.353,4.7,4.7c1.346,1.346,2.853,3.475,4.792,3.92,2.634.6,4.258-1.437,5.916-3.094l4.509-4.51,3.92-3.919c1.33-1.331,2.754-2.548,2.695-4.609-.065-2.276-2.244-3.818-3.719-5.293l-4.7-4.7.375,2.909a43.274,43.274,0,0,0,4.956-11.83l-2.314,1.762h6.9c1.024,0,2.054.034,3.077,0a4.321,4.321,0,0,0,4.345-4.186,2.419,2.419,0,0,0-2.4-2.4,2.45,2.45,0,0,0-2.4,2.4c.049-.545.831-.522.421-.614a4.9,4.9,0,0,0-.991,0h-8.951a2.443,2.443,0,0,0-2.315,1.762A38.744,38.744,0,0,1,101.365,253a2.438,2.438,0,0,0,.375,2.908l3.8,3.8,1.781,1.781c.21.21,1.384,1.658,1.63,1.63-.769.086.641-1.261-.241-.639a4.539,4.539,0,0,0-.537.537l-1.376,1.376-3.251,3.25-3.634,3.634-1.738,1.738a6.41,6.41,0,0,0-.844.844q-.623.516.163.1.69.387.31.055a10.022,10.022,0,0,0-1.8-1.8l-1.8-1.8-3.8-3.8a2.45,2.45,0,0,0-2.909-.375,44.647,44.647,0,0,1-10.374,4.5,2.451,2.451,0,0,0-1.762,2.314v8.352a17.071,17.071,0,0,0,0,1.708c0,.041-.037.292,0,.326-.136-.124.47-.767.6-.584-.155-.214-2.122,0-2.385,0H63.159c-1.173,0-2.361-.052-3.533,0-.617.028-.268-.125-.151.084.37.666.3.542.3-.072v-9.316a2.432,2.432,0,0,0-1.762-2.315,39.513,39.513,0,0,1-11.231-4.14,2.456,2.456,0,0,0-2.909.375l-3.78,3.78-1.789,1.79-.694.693-.4.4a.478.478,0,0,1,.657-.1q.483.245-.056-.187l-.42-.419-.853-.854-1.6-1.6L31.459,267.5l-2.992-2.992-1.2-1.2c-.138-.137-.9-1.086-1.073-1.073.749-.06-.6,1.3.269.617a10.221,10.221,0,0,0,.845-.846l1.836-1.836L33,256.31a2.457,2.457,0,0,0,.376-2.908,43.476,43.476,0,0,1-4.14-11.083,2.43,2.43,0,0,0-2.314-1.762H18.572a10.044,10.044,0,0,0-1.441,0c-.8.12.813.2.341.571.24-.188,0-2.229,0-2.537V228.243c0-1.161.071-2.35,0-3.51-.036-.587.123-.178-.084-.067-.805.435-.4.305.207.305h9.216a2.435,2.435,0,0,0,2.315-1.762,40.232,40.232,0,0,1,4.205-11.133,2.454,2.454,0,0,0-.376-2.908l-3.822-3.822-1.825-1.826a10.539,10.539,0,0,0-.846-.845c-.874-.686.451.723-.261.608.231.037,1.482-1.482,1.692-1.693l1.605-1.6,3.475-3.474,2.97-2.97,1.281-1.281c.18-.181.378-.358.548-.549.369-.415.451-.188-.113-.144q-.694-.381-.309-.047l.4.4.844.844,1.811,1.811,3.735,3.734a2.457,2.457,0,0,0,2.908.375,43.554,43.554,0,0,1,10.97-4.142,2.434,2.434,0,0,0,1.762-2.315v-8.3a11.369,11.369,0,0,0,0-1.609c-.117-.777-.121.8-.583.347.084.082.606,0,.732,0H72.2c1.126,0,2.278.069,3.4,0,.536-.032.349.006-.154-.3-.415-.255.022-.432-.084-.186a1.921,1.921,0,0,0,0,.6v9.306a2.435,2.435,0,0,0,1.762,2.315A39.971,39.971,0,0,1,88.185,198.6a2.454,2.454,0,0,0,2.909-.376q1.85-1.85,3.7-3.7l1.783-1.783.831-.83.393-.394q.382-.332-.314.052c-.564-.039-.486-.271-.115.146.169.191.368.368.548.549l1.281,1.281,3.11,3.109,3.482,3.482,1.745,1.746.851.85.279.279q.514.624.1-.163l.184-.438-.533.532-.844.845-1.654,1.653-3.913,3.913a2.453,2.453,0,0,0-.375,2.908,42.068,42.068,0,0,1,4.286,10.952,2.434,2.434,0,0,0,2.314,1.762h8.879a4.9,4.9,0,0,0,.984,0c.662-.149-.961-.212-.423-.612-.107.079,0,1.076,0,1.2v15.614C117.672,244.26,122.472,244.265,122.472,241.171Z"/>
</svg>
