<svg id="setting" viewBox="0 0 100 100" xmlns="http://www.w3.org/2000/svg">
  <path d="M50 35a15 15 0 1 0 0 30 15 15 0 0 0 0-30z" fill="none" stroke="#FF9F43" stroke-width="8" stroke-linecap="round" stroke-linejoin="round"/>
  <path d="M50 5v10m0 70v10m22.5-72.5l-7.1 7.1m-31 61l-7.1 7.1m40.5-40.5l10 0m-70 0l10 0m62.5 22.5l7.1-7.1m-61-31l7.1-7.1" fill="none" stroke="#FF9F43" stroke-width="8" stroke-linecap="round" stroke-linejoin="round"/>
</svg>

<svg id="audio-output" viewBox="0 0 100 100" xmlns="http://www.w3.org/2000/svg">
  <path d="M45 20L25 40H10v20h15l20 20V20z" fill="#48CFCB" stroke="#48CFCB" stroke-width="6" stroke-linecap="round" stroke-linejoin="round"/>
  <path d="M60 30a35 35 0 0 1 0 40m15-55a50 50 0 0 1 0 70" fill="none" stroke="#48CFCB" stroke-width="6" stroke-linecap="round" stroke-linejoin="round"/>
</svg>

<svg id="microphone" viewBox="0 0 100 100" xmlns="http://www.w3.org/2000/svg">
  <path d="M50 10a15 15 0 0 0-15 15v30a15 15 0 0 0 30 0V25a15 15 0 0 0-15-15z" fill="none" stroke="#9D72FF" stroke-width="6" stroke-linecap="round" stroke-linejoin="round"/>
  <path d="M50 55a20 20 0 0 1 20 20h-40a20 20 0 0 1 20-20z" fill="#9D72FF" stroke="#9D72FF" stroke-width="6" stroke-linecap="round" stroke-linejoin="round"/>
  <path d="M50 75v15" fill="none" stroke="#9D72FF" stroke-width="6" stroke-linecap="round" stroke-linejoin="round"/>
  <circle cx="50" cy="90" r="5" fill="#9D72FF"/>
</svg>

<svg id="audio-small" viewBox="0 0 100 100" xmlns="http://www.w3.org/2000/svg">
  <path d="M45 20L25 40H10v20h15l20 20V20z" fill="#7FDEDC" stroke="#7FDEDC" stroke-width="6" stroke-linecap="round" stroke-linejoin="round"/>
  <path d="M60 30a35 35 0 0 1 0 40" fill="none" stroke="#7FDEDC" stroke-width="6" stroke-linecap="round" stroke-linejoin="round"/>
</svg>

<svg id="audio-large" viewBox="0 0 100 100" xmlns="http://www.w3.org/2000/svg">
  <path d="M45 20L25 40H10v20h15l20 20V20z" fill="#16B8B3" stroke="#16B8B3" stroke-width="6" stroke-linecap="round" stroke-linejoin="round"/>
  <path d="M60 30a35 35 0 0 1 0 40m15-55a50 50 0 0 1 0 70m15-80a65 65 0 0 1 0 90" fill="none" stroke="#16B8B3" stroke-width="6" stroke-linecap="round" stroke-linejoin="round"/>
</svg>

<svg id="email" viewBox="0 0 100 100" xmlns="http://www.w3.org/2000/svg">
  <rect x="10" y="20" width="80" height="60" rx="10" ry="10" fill="none" stroke="#54A0FF" stroke-width="6" stroke-linecap="round" stroke-linejoin="round"/>
  <path d="M10 30l40 30l40-30" fill="none" stroke="#54A0FF" stroke-width="6" stroke-linecap="round" stroke-linejoin="round"/>
</svg>

<svg id="contact" viewBox="0 0 100 100" xmlns="http://www.w3.org/2000/svg">
  <circle cx="50" cy="50" r="40" fill="none" stroke="#54A0FF" stroke-width="6" stroke-linecap="round" stroke-linejoin="round"/>
  <path d="M40 35c0-5 5-10 10-10s10 5 10 10c0 5-5 7-10 10v5" fill="none" stroke="#54A0FF" stroke-width="6" stroke-linecap="round" stroke-linejoin="round"/>
  <circle cx="50" cy="70" r="4" fill="#54A0FF"/>
</svg>

<svg id="announcement" viewBox="0 0 100 100" xmlns="http://www.w3.org/2000/svg">
  <path d="M10 40h15v20H10z" fill="#FF6B6B" stroke="#FF6B6B" stroke-width="6" stroke-linecap="round" stroke-linejoin="round"/>
  <path d="M35 15L75 40v20L35 85V15z" fill="#FF6B6B" stroke="#FF6B6B" stroke-width="6" stroke-linecap="round" stroke-linejoin="round"/>
  <path d="M85 30l10 10m-10 20l10 10m5-15l10 0" fill="none" stroke="#FF6B6B" stroke-width="6" stroke-linecap="round" stroke-linejoin="round"/>
</svg>
