<svg id="b" xmlns="http://www.w3.org/2000/svg" width="204.801" height="270.335" viewBox="0 0 204.801 270.335" style="color: initial !important;"><defs><style>.e{fill:#a0a0a0;}.f{fill:#211715;}.g{fill:#645d5c;}</style></defs><g id="c"><g id="d"><path class="g" d="M24.101,109.484C3.267,149.642-4.821,201.221,9.937,243.362c-.622,1.822-.104,3.842.706,5.595.926,1.997,2.249,3.825,3.861,5.34,4.667,4.366,11.354,5.821,17.729,6.134,5.723.272,13.003-.308,15.178-6.635.696-2.025.748-4.2.442-6.303-.142-.978-.305-2.07-.727-2.968-.132-.28-1.18-1.463-1.133-1.641.406-1.552.779-3.114,1.091-4.686.922-4.557,1.12-9.156.916-13.763,3.986,5.191,8.976,9.612,14.646,12.91.369.215.748.412,1.123.617l-.003.002c-3.51,1.91-6.3,4.98-6.66,9.21-.21,2.44.62,5.02,2.44,6.66,1.39,1.26,3.24,1.89,5.05,2.38,8.77,2.39,18.38,2.68,27.38,1.64l.684-.164c1.809,5.072,6.192,9.194,11.649,10.072,6.582,1.059,13.265-2.049,18.232-5.973,2.835-2.24,5.187-4.946,7.27-7.876.042,0,.064.002.064.002,3.762.18,7.545.15,11.307-.09-.013,2.23.737,4.423,2.359,5.95,1.756,1.652,4.199,2.323,6.557,2.828,8.508,1.825,17.314,2.249,25.958,1.249,3.616-.418,7.547-1.282,9.769-4.165,2.332-3.025.976-8.763-3.072-8.62,29.227-24.385,23.42-70.035-1.452-94.621-9.153-9.047-20.631-16.703-27.051-28.258-5.559-10.005-9.223-26.599-21.981-29.207"/><path class="e" d="M57.131,145.035c-1.548-.372-3.131-.595-4.724-.635-5.886-.146-11.695,2.469-15.105,7.35-8.521,12.195-3.415,32.019,11.236,36.596,1.5.469,3.05.772,4.613.925-1.887,8.555.069,17.918,5.347,24.933,4.349,5.781,10.616,9.606,17.525,11.543,7.302,2.047,14.646,1.611,22.174,1.399-.303-10.563.83-21.32,3.006-31.764-.087-18.158-.867-33.73-1.101-51.884-11.315-1.791-21.641.131-30.809,7.824.173-.145-6.98-4.473-7.678-4.776-1.446-.628-2.948-1.144-4.484-1.513Z"/><path class="f" d="M129.874,256.313c3.766.176,7.537.146,11.3-.09,1.251-.078,2.461-1.048,2.4-2.4-.055-1.233-1.058-2.484-2.4-2.4-3.763.236-7.534.266-11.3.09-1.256-.059-2.456,1.146-2.4,2.4.06,1.351,1.055,2.337,2.4,2.4h0Z"/><path class="f" d="M100.102,141.087c-5.721-.815-11.494-.866-17.137.524-5.718,1.407-10.859,4.272-15.368,8.015l4.011,2.335c.355-2.566-2.446-3.701-4.29-4.839-1.683-1.039-3.366-2.178-5.195-2.946-7.637-3.204-16.443-2.977-23.105,2.292-9.9,7.829-10.373,23.689-4.132,33.861,4.054,6.607,10.601,10.515,18.264,11.341l-2.314-3.038c-1.905,8.929-.199,18.628,5.111,26.129,5.234,7.392,13.425,12.216,22.252,13.972,5.842,1.162,11.793,1.062,17.716.882,3.082-.094,3.095-4.894,0-4.8-8.939.272-17.985.241-26.073-4.097-6.965-3.736-12.065-9.988-14.065-17.663-1.118-4.289-1.238-8.81-.313-13.146.352-1.648-.714-2.865-2.314-3.038-10.594-1.142-17.307-10.649-17.571-20.733-.125-4.76,1.087-9.692,4.068-13.555,3.999-5.182,10.903-6.714,17.047-5.185,2.422.603,4.363,1.548,6.465,2.812,1.03.619,2.055,1.247,3.069,1.89.385.244.77.489,1.148.745.131.089.26.199.399.276.135.075.086.173-.09-.072-.181-.146-.232-.184-.154-.116.157.142.054.004-.308-.412l-.242-1.849-.002.013c-.329,2.382,2.064,3.952,4.011,2.335,7.885-6.547,17.793-8.735,27.835-7.304,1.282.183,2.578-.315,2.952-1.676.309-1.125-.385-2.768-1.676-2.952h0Z"/><path class="f" d="M66.335,163.882c-1.134,6.048-.07,12.353,3.18,17.607.681,1.101,2.145,1.527,3.284.861,1.1-.643,1.546-2.177.861-3.284-.371-.6-.72-1.214-1.033-1.847-.118-.237-.229-.477-.339-.717-.118-.271-.142-.323-.071-.156-.067-.163-.131-.327-.194-.492-.454-1.196-.804-2.431-1.045-3.687-.148-.771-.162-.849-.228-1.589-.055-.615-.085-1.232-.088-1.85-.008-1.377.09-2.433.304-3.57.231-1.23-.34-2.648-1.676-2.952-1.18-.269-2.705.357-2.952,1.676h0Z"/><path class="f" d="M64.736,188.853c1.692.367,3.404.362,5.091-.041,1.674-.4,3.156-1.228,4.48-2.306.448-.365.703-1.145.703-1.697,0-.589-.261-1.292-.703-1.697-.457-.42-1.058-.732-1.697-.703-.672.03-1.177.28-1.697.703-.059.049-.119.097-.179.144l.486-.375c-.58.445-1.207.809-1.879,1.098l.573-.242c-.711.295-1.449.497-2.21.606l.638-.086c-.763.099-1.527.102-2.29.004l.638.086c-.228-.033-.453-.073-.678-.122-1.224-.266-2.654.365-2.952,1.676-.276,1.21.364,2.667,1.676,2.952h0Z"/><path class="f" d="M75.218,187.201c3.692,1.238,7.755,1.319,11.508.301,1.211-.329,2.074-1.722,1.676-2.952-.402-1.241-1.654-2.028-2.952-1.676-.418.113-.839.215-1.264.299-.182.036-.365.069-.548.098-.122.02-.244.039-.367.056.332-.044.36-.05.086-.017-.804.066-1.601.119-2.408.095-.402-.012-.803-.038-1.203-.077-.092-.009-.185-.018-.277-.029-.274-.034-.246-.029.086.014-.026.028-.508-.082-.549-.09-.853-.153-1.691-.374-2.512-.649-1.191-.4-2.675.46-2.952,1.676-.302,1.327.401,2.524,1.676,2.952h0Z"/><path class="f" d="M131.636,101.277c4.989,1.078,8.475,4.59,11.145,8.872,2.926,4.693,4.916,9.882,7.224,14.888,2.725,5.911,6.387,11.127,10.889,15.829,4.918,5.136,10.474,9.596,15.698,14.406,8.569,7.89,15.206,17.394,19.17,28.39,3.772,10.466,5.302,21.961,3.561,32.989-1.772,11.225-6.797,21.703-14.935,29.699-1.069,1.05-2.183,2.052-3.331,3.015-1.642,1.378-.261,4.099,1.697,4.097.451,0,.74.07,1.042.367.346.34.537.766.704,1.507.067.298.069,1.289-.033,1.664-.19.699-.42,1.166-1.055,1.79-1.485,1.458-3.634,2.02-5.62,2.395-2.624.495-5.337.645-8.001.741-5.825.21-11.675-.204-17.401-1.302-2.267-.435-4.981-.804-6.851-2.283-1.443-1.141-2.002-2.941-1.957-4.726.129-5.089,5.107-7.969,9.48-9.119,1.345-.353,1.892-1.684,1.676-2.952-2.707-15.918-5.529-33.778,3.777-48.177,2.124-3.288,4.873-6.157,8.16-8.292,2.581-1.677.178-5.834-2.423-4.145-6.74,4.379-11.348,11.098-14.047,18.588-3.042,8.439-3.344,17.594-2.518,26.447.528,5.654,1.471,11.261,2.422,16.856l1.676-2.952c-5.662,1.488-11.5,5.254-12.725,11.386-.566,2.833-.273,5.959,1.327,8.429,1.797,2.774,4.772,4.183,7.888,4.962,7.117,1.779,14.681,2.372,21.998,2.063,5.723-.241,13.313-.446,17.247-5.328,3.527-4.378,1.708-12.725-4.767-12.717l1.697,4.097c9.334-7.835,15.85-18.59,18.639-30.443,2.74-11.642,2.087-23.976-1.236-35.427s-9.336-22.243-17.611-30.882c-9.71-10.137-22.229-17.791-28.765-30.634-2.545-5-4.46-10.297-7.147-15.228-2.636-4.838-6.191-9.677-11.309-12.08-1.322-.62-2.683-1.109-4.11-1.417-3.012-.651-4.299,3.975-1.276,4.629h0Z"/><path class="f" d="M62.553,235.891c-2.941,1.64-5.499,4.023-6.84,7.156-1.43,3.341-1.451,7.385.529,10.528,2.152,3.417,5.98,4.585,9.702,5.456,4.015.939,8.139,1.475,12.255,1.69,4.597.24,9.204.05,13.776-.466,1.288-.145,2.4-.999,2.4-2.4,0-1.184-1.104-2.546-2.4-2.4-8.756.989-17.746.82-26.303-1.437-1.648-.435-3.478-.889-4.709-2.147-1.198-1.224-1.632-3.025-1.458-4.696.34-3.264,2.741-5.615,5.471-7.138,2.698-1.505.281-5.652-2.423-4.145h0Z"/><path class="f" d="M141.415,191.503c1.447,9.027.695,18.28-.987,27.219-1.613,8.568-3.559,17.536-7.472,25.385-3.546,7.114-8.428,14.074-15.373,18.186-6.107,3.616-14.194,5.074-19.618-.499-2.426-2.492-3.852-5.909-3.803-9.395.024-1.696.377-3.707,1.826-4.785.957-.712,1.828-.756,2.7.066,1.794,1.691,4.503-.008,4.011-2.335-2.7-12.788-2.712-26.08-.968-39.001.435-3.226.993-6.436,1.642-9.625.323-1.586.22-3.188.204-4.801-.017-1.778-.04-3.556-.069-5.334-.106-6.557-.288-13.113-.472-19.668-.209-7.453-.413-14.906-.52-22.361-.044-3.086-4.844-3.095-4.8,0,.19,13.217.703,26.426.951,39.642.064,3.396.131,6.793.13,10.19,0,1.598-.487,3.225-.767,4.798-.292,1.642-.558,3.289-.796,4.94-.966,6.719-1.523,13.493-1.489,20.285.038,7.456.784,14.915,2.325,22.212l4.011-2.335c-3.091-2.913-7.707-2.408-10.365.845-2.877,3.521-2.868,8.815-1.462,12.957,1.327,3.908,3.884,7.3,7.335,9.578,3.798,2.508,8.375,3.088,12.803,2.402,9.537-1.478,17.19-8.515,22.384-16.239,2.755-4.096,5.058-8.413,6.802-13.035,1.823-4.831,3.1-9.86,4.244-14.888,2.667-11.721,4.137-23.726,2.221-35.678-.205-1.281-1.801-1.993-2.952-1.676-1.363.375-1.882,1.668-1.676,2.952h0Z"/><path class="f" d="M42.596,200.818c1.235,8.788,3.024,17.544,3.076,26.451.026,4.448-.486,8.786-1.524,13.109-.242,1.006-.749,2.186-.453,3.225.225.788.827,1.309,1.264,1.971-.169-.256.077.134.109.228.13.385.213.799.289,1.197.175.912.267,1.836.274,2.765.021,3.114-1.222,5.737-4.012,7.081-2.355,1.135-5.237,1.273-7.876,1.235-6.855-.1-14.791-1.544-19.228-7.309-1.066-1.385-2.045-3.081-2.372-4.817-.184-.979.194-1.649.194-2.593,0-.96-.565-2.023-.86-2.923-1.175-3.58-2.184-7.213-3.039-10.883-1.714-7.361-2.783-14.853-3.285-22.393-1.032-15.51.234-31.141,3.358-46.356s8.035-30.093,14.692-44.127c.818-1.726,1.665-3.437,2.534-5.138,1.403-2.745-2.737-5.177-4.145-2.423-8.284,16.215-14.353,33.587-17.919,51.445C.123,178.344-1.065,196.705,1.046,214.741c1.166,9.959,3.276,19.784,6.577,29.259v-1.276c-1.47,4.973,2.006,10.506,5.628,13.671,3.687,3.222,8.354,5.013,13.142,5.811,7.27,1.212,18.192,1.86,22.418-5.686,1.448-2.586,1.828-5.662,1.502-8.574-.152-1.354-.337-2.729-.847-3.999-.21-.522-.429-.88-.767-1.319.071.092-.542-.658-.293-.38-.217-.241-.242-.691-.099,0v1.276c1.88-7.256,2.495-14.511,1.914-21.983-.574-7.383-1.967-14.671-2.996-21.997-.181-1.285-1.818-1.988-2.952-1.676-1.382.38-1.857,1.664-1.676,2.952h0Z"/><path class="f" d="M46.298,226.129c9.223,11.886,24.099,18.496,39.106,17.434,1.293-.092,2.4-1.038,2.4-2.4,0-1.228-1.1-2.492-2.4-2.4-13.91.985-27.179-5.031-35.712-16.028-.795-1.025-2.558-.836-3.394,0-1.012,1.012-.797,2.366,0,3.394h0Z"/><path class="g" d="M27.919,117.622c-10.176-10.347-12.608-27.489-10.293-41.298,1.506-8.987,5.129-17.424,7.177-26.276,2.004-8.662,2.982-17.671,5.35-26.262,1.565-5.68,4.418-11.481,9.264-15.057,5.199-3.836,12.05-4.674,18.268-5.579,24.12-3.508,46.217,5.247,59.444,26.143,8.498,13.426,15.649,29.859,19.342,45.302,2.558,10.697.173,22.323-4.442,32.13"/><path class="f" d="M29.616,115.925c-5.744-5.91-8.736-13.92-9.88-21.974-1.226-8.627-.179-17.198,2.194-25.532,1.434-5.036,3.173-9.982,4.517-15.044,1.384-5.212,2.257-10.544,3.208-15.847,1.588-8.846,2.913-19.458,9.947-25.861,3.3-3.004,7.689-4.294,11.976-5.131,4.22-.824,8.535-1.429,12.83-1.65,7.879-.404,15.77.581,23.215,3.234,7.323,2.609,13.987,6.902,19.476,12.397,6.325,6.332,10.823,14.218,14.86,22.138,4.561,8.948,8.308,18.326,11.009,28.003,1.296,4.642,2.24,9.201,2.135,14.045-.105,4.818-1.039,9.569-2.523,14.146-.738,2.276-1.615,4.497-2.626,6.665-.548,1.174-.33,2.587.861,3.284,1.039.608,2.733.319,3.284-.861,4.439-9.517,6.847-20.08,5.331-30.574-.731-5.06-2.339-10.066-3.961-14.901-1.705-5.081-3.687-10.068-5.881-14.957-4.084-9.102-8.842-18.287-15.178-26.044-5.317-6.509-12.065-11.911-19.657-15.535C87.039,2.243,78.624.316,70.088.033c-4.505-.149-8.976.217-13.432.859-4.652.671-9.339,1.335-13.706,3.159-4.613,1.927-8.297,5.139-10.96,9.365s-4.094,9.064-5.197,13.903c-1.261,5.533-2.11,11.147-3.18,16.717-1.047,5.448-2.501,10.745-4.158,16.036-1.61,5.139-3.253,10.292-4.145,15.615-.737,4.398-1.037,8.865-.825,13.32.419,8.791,2.627,17.829,7.595,25.199,1.227,1.82,2.611,3.539,4.141,5.113,2.157,2.219,5.549-1.177,3.394-3.394h0Z"/><path class="e" d="M26.228,98.775c-.213-.751-.389-1.53-.524-2.337-1.983-11.888,6.652-21.982,15.185-29.075v-10.495c-1.463-6.38,1.969-13.548,7.858-16.408,10.108-4.909,22.408,2.792,33.245-.184,2.384-.655,4.624-1.816,7.058-2.252,6.067-1.086,12.18,2.661,15.712,7.711,4.222,6.036,5.516,13.657,7.26,20.694,12.693,4.584,15.489,21.299,9.251,32.433-12.815,22.873-49.712,25.06-71.974,18.41-9.891-2.954-20.117-8.094-23.072-18.496Z"/><path class="f" d="M43.204,56.23c-1.052-4.886,1.288-10.373,5.531-13.021,4.921-3.071,11.106-2.025,16.5-1.123,6.09,1.019,12.41,2.17,18.438.185,2.928-.964,5.715-2.385,8.885-1.961,2.758.369,5.364,1.795,7.414,3.634,5.555,4.981,7.263,12.679,8.903,19.641.708,3.005,5.337,1.733,4.629-1.276-1.682-7.141-3.569-14.651-8.616-20.241-4.824-5.342-12.019-8.035-18.995-5.68-1.759.594-3.464,1.343-5.279,1.76-1.468.337-2.96.441-4.463.433-3.314-.018-6.575-.612-9.832-1.156-6.544-1.093-13.687-2.084-19.706,1.458-6.335,3.728-9.569,11.497-8.036,18.623.65,3.018,5.278,1.741,4.629-1.276h0Z"/><path class="f" d="M114.053,70.05c9.499,5.937,9.908,19.825,4.542,28.636s-14.888,14.095-24.702,16.814c-10.512,2.913-21.78,3.336-32.572,1.884-4.871-.655-10.031-1.85-14.794-3.538-5.355-1.898-10.659-4.62-14.405-8.998-3.917-4.578-5.182-10.951-3.665-16.737,1.678-6.398,6.103-11.719,10.839-16.156,1.195-1.12,2.433-2.192,3.697-3.234,1.001-.825.855-2.539,0-3.394-.99-.99-2.391-.827-3.394,0-5.528,4.559-10.826,9.955-13.908,16.513-3.2,6.807-3.607,14.478-.328,21.344,5.418,11.345,19.416,16.092,30.921,18.221,11.677,2.161,23.908,2.156,35.517-.435,11.343-2.532,22.374-7.96,29.368-17.514,7.286-9.952,8.196-25.417-.961-34.61-1.117-1.122-2.391-2.103-3.732-2.941-2.627-1.642-5.039,2.509-2.423,4.145h0Z"/><path class="f" d="M48.72,68.223c8.474.009,16.947.018,25.421.027,4.196.004,8.391.009,12.587.013,4.061.004,8.137-.023,12.104-1.006,2.997-.743,1.727-5.373-1.276-4.629-3.707.919-7.528.838-11.322.834l-12.587-.013c-8.309-.009-16.618-.018-24.927-.026-3.089-.003-3.094,4.797,0,4.8h0Z"/><path class="f" d="M68.018,85.991c-.15-.126-.517-.671-.263-.215-.069-.106-.131-.216-.186-.329.1.255.122.299.065.133.002-.102-.105-.85-.083-.207-.005-.148.073-.937-.042-.328.037-.194.092-.374.141-.564-.135.519.09-.139.185-.292-.271.439.026-.011.129-.112.095-.092.193-.179.296-.262-.222.174-.221.185.003.031.068-.032.707-.336.433-.238-.281.101.417-.105.482-.126.277-.052.264-.056-.041-.014.133-.014.267-.022.401-.025.141-.003.726.067.155-.03.259.044.515.108.761.203-.521-.202.059.066.17.146-.442-.32.349.551.054.079.08.123.152.251.215.384-.1-.233-.105-.215-.015.053.661,2.281,3.967,2.284,4.629,0,.09-.268.085-.286-.015-.053.063-.133.135-.26.215-.384-.3.48.357-.325.124-.13-.226.189.752-.348.1-.096.246-.095.501-.156.761-.203-.568.103.04.028.155.03.134.003.267.011.401.025-.305-.043-.319-.038-.041.014.191.063.39.109.582.171-.526-.169.224.141.333.193.224.154.225.144.003-.031.077.062.152.127.223.195.102.105.48.63.201.179.094.152.321.811.185.292.049.189.105.372.141.564-.115-.609-.037.179-.042.328.02-.576-.025-.037-.053.117-.089.256-.077.242.036-.042-.056.113-.118.223-.186.329.254-.456-.113.089-.263.215-.964.811-.899,2.569,0,3.394,1.026.942,2.365.865,3.394,0,1.457-1.226,2.063-3.259,1.814-5.105-.261-1.943-1.363-3.552-3.03-4.58-3.518-2.169-8.462-.853-9.665,3.302h4.629c-1.206-4.165-6.141-5.457-9.665-3.302-1.535.939-2.701,2.464-2.987,4.261-.311,1.958.202,4.104,1.772,5.424.96.807,2.466,1.011,3.394,0,.817-.89,1.026-2.531,0-3.394h0Z"/><path class="f" d="M84.07,67.753c-.67,2.169-.249,7.154,3.843,7.568,5.411-.047,5.713-6.076,3.899-8.906-1.486-2.317-5.868-3.27-7.743,1.338Z"/><path class="f" d="M55.862,67.753c-.67,2.169-.249,7.154,3.843,7.568,5.411-.047,5.713-6.076,3.899-8.906-1.486-2.317-5.868-3.27-7.743,1.338Z"/><path class="f" d="M57.723,103.574c11.52,1.769,23.197,1.367,34.551-1.305,3.006-.707,1.733-5.337-1.276-4.629-10.46,2.462-21.371,2.937-31.999,1.305-1.28-.196-2.581.324-2.952,1.676-.312,1.136.387,2.754,1.676,2.952h0Z"/></g></g></svg>