<svg viewBox="0 0 128 113" width="128" height="113" xmlns="http://www.w3.org/2000/svg">
 <g id="Layer_1">
  <title>Layer 1</title>
  <g stroke="null">

   <g stroke="null" data-layer="hair">
    <g stroke="null" id="svg_18">
     <path stroke="null" fill="#fff" d="m82.92984,41.09857c0.62915,-0.59996 1.47457,-0.82294 2.19726,-0.79477c1.57275,0.06149 2.2386,0.91492 2.52462,1.4154c0.85394,1.49421 0.80692,4.24155 0.22324,5.9391c-0.41341,1.20224 -1.0901,3.04112 -2.7091,4.3555c-0.66713,0.54156 -1.64717,0.89632 -2.5825,0.73457c0,0 -0.08966,-0.0155 -0.24727,-0.04289c-0.30075,0.98003 -0.67101,1.93991 -0.89709,2.40577c-0.65267,1.75052 -4.20202,7.81932 -8.69911,10.31113c0.01576,0.93766 -0.0124,1.27768 0.07364,2.45796c0.03876,0.53071 0.07984,1.10405 0.27647,1.62185c0.2638,0.68083 0.61856,1.27045 1.18906,1.73062c1.20818,0.97331 2.44995,1.4384 3.9793,2.01355c0,0 1.21542,0.44958 1.77584,0.67024c0,0 -1.63709,11.7733 -17.31191,11.7733s-15.14127,-11.83143 -15.14127,-11.83143c0.59866,-0.23564 1.59523,-0.6121 1.59523,-0.6121c1.52935,-0.57541 2.77112,-1.04023 3.9793,-2.01355c0.5705,-0.46017 0.92526,-1.05005 1.18906,-1.73062c0.19663,-0.51779 0.23771,-1.09113 0.27647,-1.62185c0.07984,-1.09449 0.06124,-1.46656 0.07054,-2.26159c-2.1014,-1.0113 -3.9855,-2.62203 -5.7771,-4.78337c-2.31404,-2.79153 -3.62609,-5.79389 -4.34749,-8.27976c-0.99863,0.25244 -2.07556,-0.12221 -2.78868,-0.71054c-1.60867,-1.32678 -2.27115,-3.17083 -2.675,-4.37642c-0.5705,-1.7022 -0.59608,-4.44955 0.26949,-5.93703c0.2899,-0.49841 0.96246,-1.34641 2.53547,-1.39576c0.72294,-0.02274 1.56655,0.20696 2.19105,0.81183c0,0 -1.70298,-14.1677 19.31177,-14.1677s19.51873,14.31885 19.51873,14.31885l0,-0.00026z" class="skin-base"/>
     <path stroke="null" fill="#645d5c" d="m82.91072,41.08953c0.62734,-0.6028 1.47276,-0.8294 2.19596,-0.80382c0.32452,0.01137 0.61055,0.05659 0.86273,0.12583c0.72785,-2.87266 1.03791,-5.0216 0.92655,-7.65655c-0.38834,-9.19209 -5.02082,-14.90124 -9.49646,-18.13227c-3.80592,-2.74218 -8.25056,-4.50536 -13.97624,-4.50536c-1.56965,0 -3.07135,0.13565 -4.50277,0.39403c-3.56692,0.64414 -6.6977,2.05179 -9.35539,4.02813c-4.32423,3.21579 -9.22077,8.94405 -9.61273,18.21546c-0.09793,2.31663 0.21497,4.98646 0.95213,7.68264c0.27181,-0.08423 0.58549,-0.13901 0.94696,-0.15167c0.72346,-0.02558 1.56862,0.20102 2.19596,0.80382c0,0 0.20541,0.1974 0.41108,0.39506c1.34745,-1.50144 2.69464,-3.00288 2.69464,-3.00288c2.33058,-2.59697 6.44449,-6.51167 9.3311,-8.02577c0.33848,-0.17751 0.77333,0.06253 0.91053,0.62838c0.13255,0.54673 0.13177,0.96169 0.08888,1.35442c-0.06537,0.59634 0.5134,1.03016 1.00509,0.75705c2.06083,-1.14462 5.73291,-3.44884 8.3366,-4.54618l3.86096,0.47438c1.2428,0.54027 2.18847,1.05961 3.55607,2.23653c2.34376,2.01665 4.59062,4.78337 5.5859,7.28732l3.0822,2.44194l0.00026,-0.00052z" class="hair-base"/>
     <path stroke="null" fill="#211715" d="m76.90703,13.03318c-6.91603,-4.45058 -15.90762,-5.22442 -23.47012,-1.92467c-6.20601,2.70807 -11.15138,8.18803 -13.27396,14.60565c-1.57482,4.76115 -1.5619,9.80988 -0.34855,14.64647c0.32349,1.28957 2.3174,0.7431 1.99314,-0.54957c-1.8146,-7.23306 -0.49066,-15.03353 4.43456,-20.77419c4.50639,-5.25233 10.94726,-8.05109 17.86588,-7.8772c4.23251,0.10645 8.20302,1.37173 11.75573,3.65787c1.12188,0.72191 2.15953,-1.06659 1.04333,-1.78488l0,0l0,0.00052z" class="cls-2"/>
     <path stroke="null" fill="#211715" d="m87.04711,40.3609c2.16883,-8.96937 0.02067,-18.50459 -6.90802,-24.84573c-0.97977,-0.89658 -2.44556,0.5612 -1.46165,1.46165c6.38791,5.84608 8.37949,14.55036 6.37654,22.83451c-0.31264,1.29241 1.68024,1.84405 1.99314,0.54957l0,0z" class="cls-2"/>
     <path stroke="null" fill="#211715" d="m70.16489,30.01592c3.70619,1.64432 7.09974,5.15647 8.66707,8.90633c0.50539,1.20921 2.50654,0.6785 1.99314,-0.54957c-1.77171,-4.23871 -5.38953,-8.2658 -9.61713,-10.14164c-1.20508,-0.53484 -2.25797,1.2459 -1.04333,1.78488l0,0l0.00026,0z" class="cls-2"/>
     <path stroke="null" fill="#211715" d="m47.88434,39.2124c1.58516,-1.75284 3.27728,-3.415 5.07069,-4.95442c0.89735,-0.77023 1.82157,-1.51203 2.8091,-2.1647c0.19585,-0.12945 0.55681,-0.25967 0.7046,-0.44415l0.27207,-0.15684l-0.34209,-0.13358c-0.08862,0.17596 0.04987,1.4508 0.12092,1.68825c0.71158,2.37812 3.20571,0.63897 4.45368,-0.08966c2.07969,-1.21412 4.1599,-2.45873 6.37395,-3.41551c1.21774,-0.52632 0.1664,-2.30758 -1.04333,-1.78488c-2.21405,0.95678 -4.29452,2.20139 -6.37395,3.41551c-0.37853,0.22091 -1.195,0.51159 -1.45958,0.84697l-0.25812,0.1465c0.23073,0.35088 0.33615,0.3917 0.31677,0.12221c0.09147,-0.08862 -0.01731,-0.7524 -0.02455,-0.81699c-0.09844,-0.88288 -0.47671,-1.82286 -1.42574,-2.04972c-0.91104,-0.21781 -1.79212,0.50306 -2.50188,0.98262c-0.96582,0.65241 -1.88488,1.37974 -2.77577,2.13059c-1.90968,1.6097 -3.70335,3.36435 -5.37842,5.21641c-0.89037,0.98442 0.56714,2.45073 1.46165,1.46165l0,0l0,-0.00026z" class="cls-2"/>
     <path stroke="null" fill="#211715" d="m81.71133,51.00689c-0.62295,2.83907 -1.89392,5.38462 -3.5571,7.74879c-1.96291,2.79024 -4.62163,5.76805 -8.06737,6.59435c-1.29293,0.31005 -0.74542,2.30371 0.54957,1.99314c3.79791,-0.91079 6.7132,-4.00746 8.94353,-7.0447c1.92441,-2.62074 3.42404,-5.54972 4.1245,-8.74225c0.28448,-1.29655 -1.70789,-1.85025 -1.99314,-0.54957l0,0l0,0.00026z" class="cls-2"/>
     <path stroke="null" fill="#211715" d="m43.18986,51.33761c1.65363,7.28965 7.01008,15.12422 14.85964,16.3864c1.30146,0.20929 1.86136,-1.7823 0.54957,-1.99314c-7.17958,-1.15444 -11.90714,-8.29061 -13.41607,-14.94284c-0.29404,-1.2968 -2.28743,-0.74801 -1.99314,0.54957l0,0z" class="cls-2"/>
     <path stroke="null" fill="#211715" d="m44.83005,40.21672c-1.47664,-1.24745 -3.66485,-1.54381 -5.2978,-0.36612c-1.47586,1.06452 -1.85361,3.04784 -1.86963,4.76089c-0.03411,3.631 2.26934,9.41171 6.69253,9.02156c1.31463,-0.11601 1.32703,-2.18408 0,-2.06703c-2.78197,0.24546 -4.29891,-3.51344 -4.57124,-5.81198c-0.13617,-1.14901 -0.14986,-2.67965 0.48136,-3.70102c0.65137,-1.05393 2.18847,-1.14772 3.10339,-0.37491c1.01026,0.85343 2.47966,-0.60176 1.46165,-1.46165l0,0l-0.00026,0.00026z" class="cls-2"/>
     <path stroke="null" fill="#211715" d="m83.66054,41.82952c0.89012,-0.74 2.39517,-0.663 3.05482,0.33951c0.6754,1.02654 0.63665,2.61273 0.49247,3.77802c-0.28448,2.29957 -1.85025,6.03444 -4.62447,5.76805c-1.32342,-0.12712 -1.31463,1.94068 0,2.06703c4.42035,0.42452 6.76049,-5.35051 6.75454,-8.97738c-0.00284,-1.66887 -0.34545,-3.60284 -1.73502,-4.69035c-1.62753,-1.27407 -3.88008,-1.0131 -5.404,0.25373c-1.02396,0.85136 0.44545,2.30655 1.46165,1.46165l0,0l0,-0.00026z" class="cls-2"/>
     <path stroke="null" fill="#211715" d="m47.85566,74.85527c2.01846,-0.78806 4.23509,-1.40067 5.92592,-2.81091c1.84457,-1.53813 1.92906,-3.86406 1.94068,-6.0962c0.00698,-1.33039 -2.06006,-1.33194 -2.06703,0c-0.01034,1.97944 0.00233,3.81703 -1.85413,4.98181c-1.37949,0.86557 -2.98479,1.34202 -4.49528,1.9319c-1.22549,0.47852 -0.69246,2.47811 0.54957,1.99314l0,0l0.00026,0.00026z" class="cls-2"/>
     <path stroke="null" fill="#211715" d="m71.71206,65.94843c0.01189,2.28485 0.11136,4.64721 2.04533,6.17707c1.74638,1.38129 3.95501,1.99288 6.00215,2.78817c1.24074,0.48188 1.77816,-1.51591 0.54957,-1.99314c-1.50738,-0.58549 -3.11398,-1.05005 -4.50716,-1.88436c-1.97686,-1.18363 -2.01174,-2.97213 -2.02259,-5.08748c-0.00698,-1.32962 -2.07401,-1.33246 -2.06703,0l0,0l-0.00026,-0.00026z" class="cls-2"/>
    </g>
   </g>
   <g stroke="null" data-layer="face">
    <g stroke="null" id="svg_17">
     <path stroke="null" fill="#211715" d="m59.87313,57.42632c2.14093,1.12472 5.45955,1.4216 7.49919,-0.09715c1.0547,-0.78547 0.02532,-2.58069 -1.04333,-1.78488c-1.45364,1.08261 -3.87259,0.90614 -5.41252,0.09715c-1.17666,-0.61804 -2.22258,1.16529 -1.04333,1.78488l0,0z" class="line-main"/>
     <path stroke="null" fill="#211715" d="m63.16023,48.42413c0.10904,0.41987 0.2098,0.84206 0.29894,1.26657c0.02868,0.13694 0.04005,0.43718 0.09818,0.51831c-0.12816,-0.17906 0.3315,-0.50797 0.34209,-0.48059l0.07648,0.01292c-0.05736,-0.01214 -0.11472,-0.02248 -0.1726,-0.03101c-0.55035,-0.08914 -1.11232,0.14263 -1.27122,0.72191c-0.13539,0.49299 0.16769,1.18157 0.72191,1.27122c0.44519,0.07209 0.85472,0.13332 1.29396,-0.01679c0.64207,-0.21962 1.06659,-0.73431 1.07382,-1.42548c0.00801,-0.78315 -0.27233,-1.63373 -0.46818,-2.38665c-0.33434,-1.28647 -2.32851,-0.74103 -1.99314,0.54957l0,0l-0.00026,0z" class="line-main"/>
     <path stroke="null" fill="#211715" d="m53.02505,42.95942c-0.32142,1.04488 -0.11188,3.44833 1.86731,3.6527c2.61609,-0.01576 2.75535,-2.92149 1.87454,-4.2878c-0.72114,-1.11852 -2.84114,-1.58386 -3.7421,0.63484l0.00026,0.00026z" class="line-main"/>
     <path stroke="null" fill="#211715" d="m73.97469,42.95967c0.32168,1.04488 0.11214,3.44833 -1.86731,3.6527c-2.61609,-0.01576 -2.75535,-2.92149 -1.8748,-4.2878c0.72088,-1.11852 2.84114,-1.58386 3.7421,0.6351z" class="line-main"/>
    </g>
   </g>
   <g stroke="null" data-layer="clothes">
    <g stroke="null" id="svg_16">
     <path stroke="null" fill="#fff" d="m105.48659,102.35791c-0.69788,-6.81526 -3.06799,-13.42072 -7.76687,-18.67667c-4.71645,-5.27558 -11.14001,-8.42807 -18.01134,-10.24163c-4.37746,3.50207 -9.65769,5.73963 -16.01149,5.73963c-6.5282,0 -12.01592,-2.15359 -16.42154,-5.73524c-6.86513,1.81408 -13.28223,4.96579 -17.99481,10.23724c-4.69888,5.25595 -7.06899,11.86141 -7.76687,18.67667l83.97319,0l-0.00026,0z" class="cloth-base"/>
     <path stroke="null" fill="#211715" d="m106.52011,102.35791c-0.86221,-8.02112 -3.94622,-15.76371 -9.95405,-21.32221c-2.87938,-2.66415 -6.25406,-4.73454 -9.85044,-6.28068c-1.79961,-0.77359 -3.64366,-1.43194 -5.52492,-1.97763c-0.79994,-0.23202 -1.48155,-0.56611 -2.21327,-0.06821c-0.84257,0.57334 -1.62701,1.21671 -2.49413,1.75879c-6.95324,4.34671 -16.01795,4.90274 -23.45307,1.38982c-1.76059,-0.83198 -3.29046,-1.90761 -4.87329,-3.02329c-1.34176,-0.94593 -3.71704,0.33563 -5.13373,0.84051c-3.69456,1.3167 -7.22867,3.09486 -10.34937,5.48332c-7.3576,5.63111 -11.21908,14.13075 -12.19394,23.19985c-0.14211,1.32083 1.92622,1.31102 2.06703,0c0.72682,-6.76152 3.19176,-13.38429 7.88495,-18.40486c4.57512,-4.89422 10.72712,-7.79659 17.11813,-9.51222l-1.00561,-0.26587c4.849,3.88473 10.70594,5.99103 16.93054,6.03651c6.27034,0.04573 12.07457,-2.18046 16.96413,-6.0409l-1.00561,0.26587c6.39695,1.71512 12.55515,4.61801 17.13441,9.51636c4.6932,5.02056 7.15839,11.64333 7.88521,18.40537c0.14082,1.30869 2.2094,1.32316 2.06703,0l0,0l0,-0.00052z" class="cls-2"/>
    </g>
   </g>
  </g>
 </g>

</svg>