<svg xmlns="http://www.w3.org/2000/svg" width="118.689" height="195.031" viewBox="0 0 118.689 195.031" style="color: initial !important;"><defs><style>.a{fill:#a0a0a0;}.b{fill:#ffffff;}.c{fill:#211715;}.d{fill:#a98a75;}</style></defs><path class="a" d="M104.481,14.761A15.074,15.074,0,0,0,100.2,5.424C97.31,2.8,93.011,1.919,88.45,2.64c-4.719.746-9.065,3.431-10.128,4.9l-.931,1.288a28.4,28.4,0,0,0-8.429-2.37,61.226,61.226,0,0,0-9.068-.6,83.315,83.315,0,0,0-11.057.6,22.728,22.728,0,0,0-7.749,2.031l-.041.02-.7-.969c-1.063-1.473-5.409-4.158-10.129-4.9-4.56-.721-8.859.164-11.747,2.784a15.027,15.027,0,0,0-4.286,9.445c-.038,3.886.525,8.689,2.173,11.722-3.921,8.5-7.531,17.457-8.652,26.478-.306,2.462-.549,4.953-.612,7.422l.054.04.793.6c9.038,5.035,21.573,5.076,31.867,1.432,5.155-1.825,8.289-5.7,13.066-8.079a16.1,16.1,0,0,1,14.368.013c5.035,2.514,7.584,6.349,13.024,8.232,9.784,3.388,22.609,3.379,31.261-1.274a71.691,71.691,0,0,0-.626-8.386c-1.119-9-4.716-17.937-8.623-26.419,1.674-3.029,2.244-7.87,2.2-11.781C104.483,14.833,104.482,14.8,104.481,14.761Z"/><path class="b" d="M106.646,77.924c3.824-4.861,4.913-10.582,4.881-16.47-8.646,4.654-21.475,4.664-31.261,1.275-5.44-1.883-7.989-5.718-13.024-8.232a16.1,16.1,0,0,0-14.368-.013c-4.777,2.375-7.911,6.254-13.066,8.079-10.294,3.644-22.829,3.6-31.867-1.432l-.793-.6L7.1,60.5c-.164,6.222.827,12.3,4.86,17.429a15.173,15.173,0,0,0,1.966,2.018c.019,0,.037,0,.056,0a15.98,15.98,0,0,0,6.057,3.38c-.364,5.135,2.563,10.109,6.815,13.548a23.616,23.616,0,0,0,3.452,2.369,16.645,16.645,0,0,0,13.234,1.556c1.615-.472,3.823-1.846,5.5-1.906,3.327-.119,4.71.43,6.293,1.874A9.778,9.778,0,0,1,56.7,113.45a13.594,13.594,0,0,1-4.192,3.741c-2.118.993-7.757,1.241-12.756.37a5.672,5.672,0,0,0-.608-.076,18.812,18.812,0,0,0-9.568,1.9,23.652,23.652,0,0,0-6.762,5.048c-5.707,6.045-9.041,12.4-10.124,22.028-.873,7.761.07,17.239,3.747,24.939,2.87,2.759,5.867,4.125,9.975,5.389,7.382,2.27,21.928,3.859,32.92,3.859,11.74,0,25.539-1.589,32.921-3.859,4.107-1.264,7.1-2.63,9.975-5.389,3.677-7.7,4.62-17.178,3.747-24.939-1.083-9.63-4.418-15.983-10.124-22.028a23.652,23.652,0,0,0-6.762-5.048,18.812,18.812,0,0,0-9.568-1.9,5.641,5.641,0,0,0-.608.076c-5,.871-10.638.623-12.756-.37a13.594,13.594,0,0,1-4.192-3.741,9.778,9.778,0,0,1,1.372-12.692c1.583-1.444,2.966-1.993,6.293-1.874,1.672.06,3.881,1.434,5.5,1.906a16.645,16.645,0,0,0,13.234-1.556,23.608,23.608,0,0,0,3.451-2.369c4.253-3.439,7.179-8.413,6.816-13.548a15.993,15.993,0,0,0,6.054-3.378A15.129,15.129,0,0,0,106.646,77.924Z"/><path class="c" d="M61.9,65.246c-1.837.568-6.058.211-6.408-3.254.04-4.581,5.145-4.838,7.541-3.3C64.994,59.948,65.8,63.659,61.9,65.246Z"/><path class="c" d="M36.571,47c-.748,2.42-.278,7.981,4.288,8.442,6.036-.052,6.374-6.778,4.35-9.935C43.551,42.922,38.662,41.859,36.571,47Z"/><path class="c" d="M82.1,47c.748,2.42.278,7.982-4.288,8.443-6.036-.053-6.374-6.78-4.35-9.936C75.117,42.922,80.006,41.858,82.1,47Z"/><path class="c" d="M49.9,70.8a8.32,8.32,0,0,0,6.167,3.267,6.307,6.307,0,0,0,6.174-3.387H58.1a6.249,6.249,0,0,0,6.046,3.384,8.251,8.251,0,0,0,6.113-3.322,2.413,2.413,0,0,0-.861-3.283,2.46,2.46,0,0,0-3.284.861c.155-.2.068-.084-.055.024s-.214.207-.329.3c.256-.216-.025,0-.154.084s-.263.147-.395.221c-.328.183.3-.1-.048.031-.141.053-.284.1-.428.142s-.289.079-.435.11c-.116.025-.589.05-.124.028-.286.013-.565,0-.85,0,.479.006-.182-.044-.384-.129.249.1.007,0-.075-.078l-.184-.164c-.277-.256.124.217-.1-.09a3.79,3.79,0,0,1-.309-.544,2.416,2.416,0,0,0-4.145,0c-.075.15-.152.3-.239.44-.347.567.094-.06-.169.194-.034.033-.358.311-.228.208.176-.139-.375.178-.031.034-.131.055-.275.072-.407.12-.405.147.23.031-.032.015-.3-.018-.617.012-.923,0-.241-.01-.22-.048,0,0-.141-.032-.284-.057-.424-.092q-.265-.067-.524-.156c-.045-.016-.447-.187-.221-.081.264.125-.249-.143-.3-.171-.124-.073-.245-.151-.364-.232.455.311-.543-.616-.2-.16a2.48,2.48,0,0,0-3.284-.861A2.416,2.416,0,0,0,49.9,70.8Z"/><path class="c" d="M57.769,65.918v2.621a2.469,2.469,0,0,0,2.4,2.4l.638-.086a2.4,2.4,0,0,0,1.059-.617,2.491,2.491,0,0,0,.7-1.7V65.918a2.467,2.467,0,0,0-2.4-2.4l-.638.086a2.407,2.407,0,0,0-1.059.617,2.5,2.5,0,0,0-.7,1.7Z"/><path class="c" d="M51.934,7.924V21.513a2.4,2.4,0,1,0,4.8,0V7.924a2.4,2.4,0,1,0-4.8,0Z"/><path class="c" d="M61.934,7.924V21.513a2.4,2.4,0,1,0,4.8,0V7.924a2.4,2.4,0,1,0-4.8,0Z"/><path class="a" d="M78.624,188.089a31.108,31.108,0,0,1-6.246-8.011c7.774-.656,15.144-1.832,19.877-3.287a37.268,37.268,0,0,0,4.191-1.525c3.7,3.109,6.739,4.655,7.377,9.043a5.96,5.96,0,0,1-.8,4.189c-.63.843-2.75,2.751-7.008,3.611a27.867,27.867,0,0,1-9.724.17,18.674,18.674,0,0,1-4.283-1.686A26.391,26.391,0,0,1,78.624,188.089Z"/><path class="a" d="M35.018,191.228a12.6,12.6,0,0,1-4.48,1.132,25.709,25.709,0,0,1-13.163-2.115c-1.923-.866-3.877-2.137-4.532-4.141A6.051,6.051,0,0,1,13.8,181c1.763-2.66,4.857-4.252,6.786-6.545a31.052,31.052,0,0,0,5.829,2.332,78.859,78.859,0,0,0,11.576,2.334c.322,5.458.8,8.913-1.663,11.192A5.953,5.953,0,0,1,35.018,191.228Z"/><path class="c" d="M97.665,179.305a10.508,10.508,0,0,1,3.383,3.786,5.849,5.849,0,0,1,.449,2.294,5.426,5.426,0,0,1-.17,1.2.7.7,0,0,1-.183.413q.206-.2.024,0a6.035,6.035,0,0,1-2.591,1.813,17.219,17.219,0,0,1-6.139,1.368c-3.21.2-5.94.017-8.7-1.375a21.749,21.749,0,0,1-7.852-7.613c-1.7-2.562-5.859-.161-4.144,2.423,3.825,5.762,9.172,10.588,16.281,11.274a25.292,25.292,0,0,0,12.342-1.65c2.754-1.191,5.294-3.141,5.778-6.285.706-4.588-1.667-8.258-5.087-11.041a2.47,2.47,0,0,0-3.394,0,2.417,2.417,0,0,0,0,3.394Z"/><path class="c" d="M15.885,175.526c-2.883,2.359-5.838,5.338-5.663,9.375s3.51,6.415,6.927,7.839a27.894,27.894,0,0,0,11.6,2.143c3.6-.119,7.691-.721,10.048-3.736,2.223-2.842,1.932-6.64,1.722-10.034-.19-3.068-4.991-3.09-4.8,0a29.772,29.772,0,0,1,.085,4.86,5.733,5.733,0,0,1-.4,1.659,5.216,5.216,0,0,1-.561.786,6.623,6.623,0,0,1-3.911,1.5,23.279,23.279,0,0,1-11.249-1.307,9.456,9.456,0,0,1-4.017-2.341c-2.285-2.712,1.758-5.827,3.618-7.349a2.416,2.416,0,0,0,0-3.394,2.454,2.454,0,0,0-3.394,0Z"/><path class="d" d="M59.334,80.846a7.281,7.281,0,0,0-4.617,1.672,14.232,14.232,0,0,0-2.631,3.2A49.624,49.624,0,0,0,44.5,107.457a20.354,20.354,0,0,0,.249,7.078,14.585,14.585,0,0,0,3.726,7.2c3.02,2.962,6.788,3.518,10.855,3.5,4.067.016,7.835-.54,10.856-3.5a14.585,14.585,0,0,0,3.726-7.2,20.378,20.378,0,0,0,.249-7.078,49.612,49.612,0,0,0-7.583-21.738,14.179,14.179,0,0,0-2.631-3.2A7.277,7.277,0,0,0,59.334,80.846Z"/><path class="c" d="M59.334,78.446a10.078,10.078,0,0,0-6.314,2.375A20.262,20.262,0,0,0,49.087,86,51.3,51.3,0,0,0,43.848,98.22c-2.3,8.089-3.7,18.693,2.934,25.214,2.969,2.918,6.93,4.01,10.994,4.179,3.886.161,8.044-.122,11.47-2.144a15.706,15.706,0,0,0,6.89-9.915c1.165-4.544.477-9.406-.475-13.929a51.767,51.767,0,0,0-5.21-14.105A28.43,28.43,0,0,0,66.4,81.537a10.025,10.025,0,0,0-7.065-3.091c-3.089-.107-3.085,4.693,0,4.8,3.572.125,5.345,3.752,6.866,6.505a46.221,46.221,0,0,1,4.051,9.956c1.736,6.221,3.472,15.011-1.619,20.191-2.119,2.156-5,2.82-7.933,2.922-2.975.1-6.214.063-8.853-1.5-6.324-3.734-5.473-12.547-4.163-18.637a47.263,47.263,0,0,1,4.065-11.582c1.571-3.073,3.6-7.72,7.586-7.859C62.415,83.139,62.429,78.339,59.334,78.446Z"/><path class="c" d="M56.351,90.43v20.637c0,3.089,4.8,3.094,4.8,0V90.43c0-3.089-4.8-3.094-4.8,0Z"/><path class="a" d="M89.091,119.387a18.812,18.812,0,0,0-9.568-1.9,5.641,5.641,0,0,0-.608.076c-5,.871-10.638.623-12.756-.37a13.594,13.594,0,0,1-4.192-3.741,9.778,9.778,0,0,1,1.372-12.692c1.583-1.444,2.966-1.993,6.293-1.874,1.673.06,3.881,1.434,5.5,1.906a16.645,16.645,0,0,0,13.234-1.556,23.608,23.608,0,0,0,3.451-2.369c4.253-3.439,7.179-8.413,6.816-13.548a15.984,15.984,0,0,0,6.056-3.38c10.193,17.332,12.844,37.21,11.054,56.862-1.006,11.058-3.617,21.856-10.445,31.069a28.068,28.068,0,0,1-3.009,3.486l-.059.057c3.68-7.7,4.624-17.184,3.751-24.948-1.083-9.63-4.417-15.983-10.124-22.028A23.652,23.652,0,0,0,89.091,119.387Z"/><path class="c" d="M77.926,115.306a33.289,33.289,0,0,1-8.138.266,6.186,6.186,0,0,1-4.6-2.077,6.987,6.987,0,0,1-1.551-1.923,8.186,8.186,0,0,1-.947-2.9,7.07,7.07,0,0,1,1.521-5.376,4.881,4.881,0,0,1,4.358-2.026c2.407-.032,4.4,1.48,6.7,2.045a19.832,19.832,0,0,0,15.925-3.01c5.3-3.581,9.421-8.968,9.856-15.511a2.4,2.4,0,0,0-4.8,0c-.373,5.607-4.936,10.244-9.7,12.69a14.532,14.532,0,0,1-7.535,1.595c-2.732-.164-4.86-1.475-7.409-2.253-5.463-1.667-10.885,1.471-12.94,6.585A12.551,12.551,0,0,0,61.8,116.889,11.706,11.706,0,0,0,69.09,120.3a37.13,37.13,0,0,0,10.112-.363,2.417,2.417,0,0,0,1.677-2.952,2.46,2.46,0,0,0-2.953-1.676Z"/><path class="a" d="M29.578,119.387a18.812,18.812,0,0,1,9.568-1.9,5.672,5.672,0,0,1,.608.076c5,.871,10.638.623,12.756-.37A13.594,13.594,0,0,0,56.7,113.45a9.778,9.778,0,0,0-1.372-12.692c-1.583-1.444-2.966-1.993-6.293-1.874-1.673.06-3.881,1.434-5.5,1.906a16.645,16.645,0,0,1-13.234-1.556,23.616,23.616,0,0,1-3.452-2.369c-4.252-3.439-7.179-8.413-6.815-13.548a15.98,15.98,0,0,1-6.057-3.38C3.791,97.269,1.14,117.147,2.929,136.8c1.007,11.058,3.618,21.856,10.446,31.069a28.068,28.068,0,0,0,3.009,3.486l.059.057c-3.68-7.7-4.624-17.184-3.751-24.948,1.083-9.63,4.417-15.983,10.124-22.028A23.652,23.652,0,0,1,29.578,119.387Z"/><path class="c" d="M10.629,80.993C1,98.812-1.526,119.617.816,139.557c1.13,9.618,3.621,19.188,8.984,27.368a28.574,28.574,0,0,0,8.94,9.244,35.559,35.559,0,0,0,10.234,3.78,136.984,136.984,0,0,0,26.142,3.03,150.663,150.663,0,0,0,28.57-1.865c7.5-1.2,15.508-3.015,20.946-8.72,6.592-6.913,10.317-16.449,12.128-25.692a110.184,110.184,0,0,0,1.548-29.858,92.867,92.867,0,0,0-6.959-29q-1.493-3.5-3.309-6.854c-1.469-2.719-5.614-.3-4.144,2.422,9.076,16.8,11.287,36.293,9.276,55.083-.955,8.92-3.244,17.825-8.1,25.458-2.049,3.224-4.482,6.3-7.841,8.227a33.547,33.547,0,0,1-9.475,3.3,131,131,0,0,1-26.1,2.751,147.121,147.121,0,0,1-25.486-1.782C29.556,175.4,22.25,174.055,17.431,169c-6.129-6.428-9.345-15.419-10.974-23.99a106.041,106.041,0,0,1-1.313-27.945,86.47,86.47,0,0,1,6.495-27.2c.942-2.2,2-4.343,3.134-6.446,1.469-2.718-2.674-5.144-4.144-2.422Z"/><path class="c" d="M17.617,84.794c.753,11.332,12.759,20.471,23.836,18.888a16.173,16.173,0,0,0,3.357-.793c1.245-.462,2.418-1.124,3.7-1.484a7.182,7.182,0,0,1,2.849-.061,3.88,3.88,0,0,1,1.845.739,7.031,7.031,0,0,1,2.805,5.256,8.612,8.612,0,0,1-1.439,4.989,11.086,11.086,0,0,1-2.492,2.342,4.834,4.834,0,0,1-2.484.821,29.963,29.963,0,0,1-8.853-.185,2.475,2.475,0,0,0-2.952,1.676,2.418,2.418,0,0,0,1.676,2.952c5.095.8,11.742,1.522,16.067-1.887a12.971,12.971,0,0,0,4.984-13,11.634,11.634,0,0,0-4.132-6.523,10.379,10.379,0,0,0-7.348-2.035C46.3,96.661,44,98.331,41.343,98.86a14.216,14.216,0,0,1-7.549-.638c-5.5-1.947-10.975-7.375-11.377-13.428a2.457,2.457,0,0,0-2.4-2.4,2.42,2.42,0,0,0-2.4,2.4Z"/><path class="c" d="M104.383,27.8a25.623,25.623,0,0,0,2.452-10.593,17.855,17.855,0,0,0-2.2-9.889C100.825.458,92.647-1.218,85.5.847c-3.357.969-7.067,2.652-9.249,5.485a2.415,2.415,0,0,0,.861,3.284,2.462,2.462,0,0,0,3.284-.861c-.394.512.232-.174.324-.256a5.016,5.016,0,0,1,.482-.381,16.313,16.313,0,0,1,2.028-1.226A19.035,19.035,0,0,1,88.66,5.027c3.181-.576,6.967-.251,9.566,1.853a11.534,11.534,0,0,1,3.857,7.989c.095,3.439-.227,7.414-1.844,10.51-1.429,2.735,2.712,5.165,4.144,2.423Z"/><path class="c" d="M18.43,25.379c-1.617-3.1-1.939-7.072-1.845-10.51A11.541,11.541,0,0,1,20.443,6.88c2.6-2.1,6.385-2.43,9.565-1.853a18.979,18.979,0,0,1,5.269,1.779,18.32,18.32,0,0,1,2.069,1.225,4.713,4.713,0,0,1,.605.468c.092.082.718.768.324.256a2.48,2.48,0,0,0,3.283.861,2.416,2.416,0,0,0,.861-3.284C40.5,3.844,37.468,2.36,34.575,1.305a20.565,20.565,0,0,0-11.5-.84c-6.946,1.59-11.4,8.414-11.291,15.361.062,4.057.6,8.337,2.5,11.976,1.43,2.739,5.574.315,4.144-2.423Z"/><path class="c" d="M42.3,10.566a23.845,23.845,0,0,1,7.492-1.815,85.7,85.7,0,0,1,9.5-.493c5.742.006,11.781.289,17.075,2.734a2.47,2.47,0,0,0,3.284-.861,2.419,2.419,0,0,0-.861-3.283c-6.113-2.823-12.837-3.383-19.5-3.39-6.479-.007-13.45.2-19.417,2.963a2.419,2.419,0,0,0-.861,3.284,2.455,2.455,0,0,0,3.283.861Z"/><path class="c" d="M100.176,27.8c3.576,7.772,6.865,15.825,8.189,24.327,1.093,7.023,1.668,15.178-1.85,21.637A14.619,14.619,0,0,1,98.361,80.9c-2.928.945-1.676,5.581,1.276,4.628,8.113-2.617,12.8-10.306,13.918-18.427,1.2-8.709-.345-18.027-3.023-26.326a139.6,139.6,0,0,0-6.211-15.393,2.421,2.421,0,0,0-3.284-.861,2.456,2.456,0,0,0-.861,3.284Z"/><path class="c" d="M14.286,25.379c-4,8.7-7.672,17.676-8.922,27.239-1.071,8.2-1.373,17.132,3.092,24.456A19.416,19.416,0,0,0,18.97,85.525c2.946.951,4.208-3.682,1.276-4.628-6.733-2.173-10.059-9.223-10.629-15.83-.686-7.957.806-16.154,3.3-23.685A132.174,132.174,0,0,1,18.43,27.8a2.47,2.47,0,0,0-.861-3.284,2.419,2.419,0,0,0-3.283.861Z"/></svg>