<svg id="b" xmlns="http://www.w3.org/2000/svg" width="344.652" height="356.359" viewBox="0 0 344.652 356.359" style="color: initial !important;"><defs><style>.d{fill:#ffffff;}.e{fill:#74c66d;}.f{fill:#f8b8b4;}.g{fill:#211715;}.h{fill:#645d5c;}</style></defs><g id="c"><path class="g" d="M328.646,270.199c4.922-3.353,9.888-6.642,14.81-9.995,1.036-.706,1.597-2.142.861-3.284-.665-1.031-2.174-1.617-3.284-.861-4.922,3.353-9.888,6.642-14.81,9.995-1.036.706-1.597,2.142-.861,3.284.665,1.031,2.174,1.617,3.284.861h0Z"/><path class="e" d="M303.143,261.944c-13.611-.258-23.218,10.073-23.451,22.37-.261,13.759,9.17,23.416,22.58,23.67,13.926.264,23.201-9.128,23.46-22.798.235-12.381-9.026-22.985-22.589-23.242Z"/><path class="g" d="M303.143,259.544c-11.064-.133-21.027,6.54-24.564,17.119-3.27,9.78-.426,21.768,7.798,28.248,8.157,6.427,20.406,7.308,29.495,2.294,9.26-5.107,13.404-16.1,11.969-26.278-.793-5.625-3.55-10.99-7.766-14.819-4.659-4.231-10.675-6.404-16.932-6.565-3.09-.08-3.088,4.72,0,4.8,8.942.231,16.887,5.825,19.38,14.548,2.265,7.927-.111,17.505-6.597,22.563-6.615,5.159-16.915,5.511-24.14,1.366-7.348-4.216-10.871-13.157-9.44-21.459.819-4.749,3.145-9.038,6.789-12.207,3.87-3.366,8.939-4.872,14.008-4.811,3.09.037,3.092-4.763,0-4.8Z"/><path class="d" d="M277.785,279.452c-13.607-.431-23.345,9.777-23.734,22.07-.436,13.755,8.872,23.531,22.277,23.956,13.922.441,23.316-8.831,23.749-22.497.392-12.377-8.732-23.098-22.291-23.528Z"/><path class="g" d="M277.785,277.052c-11.072-.274-21.088,6.307-24.758,16.835-3.39,9.726-.681,21.777,7.467,28.338,8.097,6.519,20.31,7.533,29.469,2.633s13.597-15.76,12.313-25.822c-.736-5.771-3.354-11.236-7.635-15.224-4.606-4.291-10.606-6.518-16.856-6.759-3.089-.119-3.084,4.681,0,4.8,8.947.346,16.791,6.077,19.17,14.823,2.155,7.923-.344,17.54-6.918,22.463-6.73,5.04-16.947,5.286-24.155,1.027-7.3-4.313-10.667-13.316-9.132-21.591.879-4.74,3.273-8.989,6.957-12.112,3.912-3.316,9.015-4.736,14.077-4.611,3.09.076,3.088-4.724,0-4.8Z"/><path class="f" d="M248.994,298.101c-13.607-.431-23.345,9.777-23.734,22.07-.436,13.755,8.872,23.531,22.277,23.956,13.922.441,23.316-8.831,23.749-22.497.392-12.377-8.732-23.098-22.291-23.528Z"/><path class="g" d="M248.994,295.701c-11.072-.274-21.088,6.307-24.758,16.835-3.39,9.726-.681,21.777,7.467,28.338,8.097,6.519,20.31,7.533,29.469,2.633s13.597-15.76,12.313-25.822c-.736-5.771-3.354-11.236-7.635-15.224-4.606-4.291-10.606-6.518-16.856-6.759-3.089-.119-3.084,4.681,0,4.8,8.947.346,16.791,6.077,19.17,14.823,2.155,7.923-.344,17.54-6.918,22.463-6.73,5.04-16.947,5.286-24.155,1.027-7.3-4.313-10.667-13.316-9.132-21.591.879-4.74,3.273-8.989,6.957-12.112,3.912-3.316,9.015-4.736,14.077-4.611,3.09.076,3.088-4.724,0-4.8Z"/><path class="d" d="M13.56,313.373c-6.954,3.514-11.156,8.23-11.156,14.436,0,17.801,37.673,26.12,70.5,26.12s70.5-8.151,70.5-26.12c0-7.38-5.942-12.652-15.386-16.303"/><path class="f" d="M118.763,300.439c.262.101.494.242.705.413l-.916,1.078c-8.692,2.165-39.057,10.092-47.205,12.277-8.037-2.095-38.372-10.001-47.215-12.277l-1.642-.081c.282-.645.796-1.158,1.44-1.41,7.916-1.883,35.673-9.125,45.704-11.864,1.128-.302,2.306-.302,3.424,0,10.041,2.749,37.778,9.981,45.704,11.864Z"/><path class="f" d="M119.468,300.852c.645.544,1.017,1.39.997,2.296-.04,2.034-.071,4.18-.111,6.365-15.821,4.455-31.547,8.711-47.389,13.363-1.029.302-2.121.304-3.15.001-15.577-4.588-31.546-9.012-47.476-13.465-.04-2.155-.081-4.26-.121-6.264-.01-.463.091-.906.272-1.299l1.642.081c8.843,2.276,39.178,10.182,47.215,12.277,8.148-2.186,38.513-10.112,47.205-12.277l.916-1.078Z"/><path class="d" d="M120.354,309.513c-.05,2.77-.101,5.6-.151,8.369-15.24,4.239-34.118,9.428-46.344,12.695-1.602.428-3.279.425-4.879-.008-12.304-3.33-31.346-8.574-46.5-12.787-.05-2.77-.091-5.61-.141-8.369,15.931,4.453,31.899,8.877,47.476,13.465,1.029.303,2.121.301,3.15-.001,15.842-4.652,31.568-8.909,47.389-13.363Z"/><path class="e" d="M120.203,317.882c-.04,2.135-.07,4.23-.111,6.224-.03,1.219-.745,2.306-1.833,2.639-4.864,1.46-33.88,10.192-44.838,13.486-1.36.403-2.8.403-4.16,0-10.958-3.293-36.358-10.938-44.747-13.455-1.118-.342-1.893-1.42-1.914-2.669-.04-2.024-.081-4.149-.121-6.325,15.15,4.211,34.186,9.454,46.49,12.784,1.606.435,3.29.438,4.898.008,12.227-3.266,31.099-8.455,46.335-12.692Z"/><path class="g" d="M12.349,311.301c-6.624,3.392-12.802,9.194-12.323,17.248.31,5.202,3.341,9.57,7.324,12.744,5.081,4.05,11.208,6.608,17.356,8.566,7.555,2.406,15.385,3.855,23.236,4.88,16.634,2.171,33.645,2.155,50.279-.014,7.86-1.025,15.702-2.476,23.259-4.906,6.126-1.97,12.219-4.553,17.242-8.65,3.951-3.223,6.9-7.718,7.075-12.929.247-7.39-5.057-12.948-11.143-16.307-1.926-1.063-3.95-1.939-5.998-2.739-1.208-.472-2.634.519-2.952,1.676-.374,1.36.464,2.478,1.676,2.952,5.623,2.199,12.205,5.803,13.465,12.101.192.96.208,2.247.072,3.374.066-.551-.059.285-.082.395-.049.238-.106.475-.168.709-.135.503-.301.999-.497,1.482.174-.429-.08.159-.145.291-.109.223-.224.443-.344.659-.282.506-.598.989-.929,1.464-.063.091-.13.179-.196.268-.228.306.207-.255-.036.044-.167.206-.337.409-.512.608-.413.469-.848.917-1.301,1.347-3.677,3.489-8.953,5.973-13.975,7.769-6.753,2.416-13.812,3.957-20.888,5.066-15.427,2.417-31.278,2.735-46.818,1.321-7.499-.682-14.971-1.808-22.288-3.601-6.089-1.492-12.186-3.398-17.689-6.446-2.3-1.274-4.207-2.544-5.969-4.213-.423-.401-.831-.818-1.22-1.253-.176-.197-.346-.399-.516-.602-.046-.055-.284-.357-.038-.039-.089-.116-.177-.234-.261-.354-.289-.412-.568-.831-.82-1.267-.141-.244-.275-.492-.401-.743-.066-.132-.374-.825-.189-.376-.183-.445-.339-.903-.468-1.367-.065-.232-.122-.465-.173-.7-.027-.127-.17-1.036-.103-.484-.144-1.179-.136-2.401.114-3.553.656-3.032,2.601-5.449,5-7.34,1.465-1.155,3.111-2.09,4.767-2.938,2.75-1.408.324-5.551-2.423-4.145h0Z"/><path class="g" d="M66.435,319.383c-11.145-3.249-22.324-6.383-33.506-9.505-2.98-.832-4.252,3.798-1.276,4.629,11.182,3.121,22.36,6.256,33.506,9.505,2.971.866,4.24-3.764,1.276-4.629h0Z"/><path class="g" d="M109.786,309.972c-11.15,3.106-22.307,6.187-33.423,9.412-2.961.859-1.701,5.492,1.276,4.629,11.116-3.225,22.273-6.306,33.423-9.412,2.972-.828,1.709-5.46-1.276-4.629h0Z"/><path class="g" d="M60.584,325.797c-5.927-1.619-11.852-3.247-17.776-4.881-1.249-.344-2.609.427-2.952,1.676s.422,2.606,1.676,2.952c5.923,1.634,11.848,3.262,17.776,4.881,1.25.341,2.608-.425,2.952-1.676s-.421-2.61-1.676-2.952h0Z"/><path class="g" d="M99.673,321.07c-8.43,2.318-16.863,4.626-25.308,6.886-2.981.798-1.716,5.429,1.276,4.629,8.445-2.26,16.878-4.568,25.308-6.886,2.975-.818,1.712-5.45-1.276-4.629h0Z"/><path class="g" d="M23.496,304.239c13.141,3.393,26.273,6.823,39.406,10.247,2.445.638,4.884,1.313,7.339,1.915,1.335.327,2.447-.066,3.727-.407,1.246-.332,2.493-.661,3.739-.99,7.014-1.851,14.034-3.684,21.055-5.509,6.805-1.769,13.609-3.55,20.431-5.255,2.995-.748,1.726-5.379-1.276-4.629-13.017,3.253-25.991,6.686-38.967,10.101-2.748.723-5.496,1.446-8.24,2.184h1.276c-12.869-3.364-25.743-6.713-38.618-10.056-2.865-.744-5.73-1.488-8.596-2.228-2.993-.773-4.27,3.856-1.276,4.629h0Z"/><path class="g" d="M118.902,329.055c1.479-.567,2.58-1.479,3.18-2.982.569-1.423.428-3.047.455-4.553.06-3.246.116-6.492.174-9.739.028-1.581.056-3.161.085-4.742.027-1.501.187-3.079.016-4.571-.306-2.674-2.216-4.049-4.638-4.64-7.549-1.841-15.068-3.812-22.587-5.771-4.28-1.115-8.558-2.237-12.834-3.369-1.798-.476-3.596-.954-5.392-1.436-1.689-.453-3.411-1.063-5.154-1.249-2.049-.218-4.02.481-5.972,1.006-1.729.465-3.46.926-5.19,1.385-4.271,1.133-8.546,2.255-12.822,3.37-7.72,2.014-15.441,4.034-23.19,5.936-2.128.523-3.975,1.209-4.842,3.455-.508,1.316-.358,2.743-.332,4.126.03,1.635.06,3.269.089,4.904.057,3.188.112,6.375.17,9.563.051,2.794-.474,6.247,1.872,8.29,1.305,1.136,3.26,1.459,4.885,1.948,1.721.518,3.443,1.035,5.164,1.553,4.306,1.295,8.613,2.591,12.919,3.886,4.561,1.372,9.122,2.744,13.682,4.115,2.012.605,4.024,1.21,6.036,1.815,1.935.582,3.942,1.386,5.965,1.545,2.168.171,4.209-.596,6.25-1.21,1.731-.521,3.463-1.041,5.194-1.562,4.127-1.241,8.255-2.483,12.382-3.724,7.283-2.191,14.566-4.382,21.849-6.573.862-.259,1.724-.519,2.585-.778,2.95-.888,1.693-5.522-1.276-4.629-13.342,4.015-26.685,8.028-40.029,12.041-1.45.436-2.898.878-4.349,1.308-2.03.601-3.625.056-5.567-.528-3.776-1.136-7.551-2.271-11.327-3.407-8.298-2.496-16.595-4.992-24.893-7.488-1.514-.455-3.027-.911-4.541-1.366-.482-.145-1.17-.227-1.605-.483-.576-.339-.332-1.251-.344-1.896-.111-5.92-.209-11.84-.319-17.76-.009-.499-.184-1.291-.051-1.769.076-.274.283-.479.106-.361.371-.247,1.169-.283,1.603-.389,1.405-.345,2.808-.697,4.211-1.051,3.745-.945,7.486-1.906,11.226-2.872,7.94-2.052,15.875-4.124,23.798-6.241,1.429-.382,2.855-.775,4.285-1.154,1.697-.45,3.078.014,4.71.454,3.467.935,6.939,1.854,10.412,2.769,8.136,2.143,16.279,4.264,24.432,6.339,2.787.709,5.608,1.328,8.38,2.093.309.085.089-.093.183.043.227.326.112.899.105,1.281-.029,1.538-.057,3.076-.085,4.614-.053,2.964-.105,5.928-.158,8.892-.026,1.487-.053,2.974-.081,4.461-.007.357.186,2.358-.104,2.469-1.21.464-2.044,1.615-1.676,2.952.318,1.157,1.735,2.143,2.952,1.676Z"/><path class="h" d="M283.745,65.405c-7.788.232-15.511,0-23.248,2.089-9.268,2.502-16.983,6.185-23.253,13.555-4.625,5.436-7.091,13.706-7.994,20.633-1.019,7.811-.534,15.849,1.821,23.386,6.933,22.186,30.808,32.218,52.674,32.218,23.618,0,45.742-10.032,52.675-32.218,2.355-7.537,2.84-15.576,1.821-23.386-.903-6.927-3.292-14.642-7.917-20.078-6.27-7.37-12.835-10.712-22.096-13.237-7.61-2.075-16.694-2.728-24.482-2.961h0Z"/><path class="g" d="M283.745,63.005c-6.876.197-13.786.112-20.571,1.413-5.625,1.079-11.283,3.033-16.316,5.777-4.882,2.661-9.314,6.349-12.629,10.827-3.38,4.565-5.374,10.186-6.551,15.699-2.536,11.879-1.683,25.067,3.952,35.972,4.486,8.682,12.087,15.442,20.745,19.814,8.772,4.43,18.552,6.7,28.347,7.115,10.033.424,20.432-.978,29.784-4.719,8.975-3.59,16.956-9.286,22.493-17.293,6.786-9.813,9.026-22.357,7.854-34.087-.602-6.025-2.005-11.979-4.73-17.415-2.493-4.972-6.357-9.165-10.765-12.511-9.173-6.964-21.241-9.177-32.45-10.1-3.049-.251-6.105-.398-9.163-.492-3.09-.095-3.087,4.705,0,4.8,10.997.338,22.585,1.21,32.679,5.988,4.393,2.08,8.179,4.989,11.417,8.607,3.559,3.977,5.683,8.895,6.973,14.03,2.71,10.79,2.112,23.155-2.764,33.261-3.834,7.945-10.196,14.148-17.937,18.291-8.076,4.322-17.285,6.365-26.388,6.807s-18.238-.723-26.835-3.811c-8.24-2.96-16.012-7.888-21.415-14.869-6.53-8.437-8.801-19.314-8.248-29.813.291-5.515,1.377-11.041,3.442-16.174,1.924-4.783,5.004-8.733,8.957-12.013,8.423-6.99,19.929-9.621,30.611-10.062,3.168-.131,6.34-.151,9.509-.242,3.082-.088,3.095-4.889,0-4.8h0Z"/><path class="d" d="M283.745,77.68c-17.64,0-35.281,2.738-35.281,11.733,0,9.534,18.874,13.071,35.281,13.071s35.281-3.537,35.281-13.071c0-8.995-17.64-11.733-35.281-11.733Z"/><path class="g" d="M283.745,75.28c-7.142.009-14.361.371-21.381,1.76-4.819.954-10.644,2.481-13.972,6.392-3.128,3.675-2.927,8.625.106,12.282,3.225,3.888,8.742,5.69,13.468,6.852,6.269,1.541,12.801,2.146,19.244,2.289,6.636.147,13.312-.248,19.859-1.369,5.27-.903,11.041-2.277,15.418-5.51,3.563-2.632,6.077-6.943,4.453-11.439-1.731-4.794-6.938-7.099-11.479-8.445-6.495-1.926-13.436-2.481-20.177-2.718-1.845-.065-3.692-.092-5.538-.095-3.089-.004-3.094,4.796,0,4.8,6.399.008,12.869.263,19.177,1.412,2.621.478,5.235,1.101,7.725,2.06,1.751.675,3.527,1.66,4.674,2.85.951.986,1.28,1.86,1.301,3.235.001.072-.08.788.003.236-.032.213-.079.424-.133.633-.04.152-.399,1.059-.198.633-.187.396-.412.771-.661,1.13-.408.586.3-.32-.182.226-.154.175-.312.346-.476.512-1.234,1.244-3.04,2.28-4.909,3.077-2.203.94-4.655,1.608-7.029,2.137-5.62,1.253-11.399,1.734-17.147,1.842-5.819.109-11.698-.156-17.449-1.083-4.804-.774-9.906-1.853-14.043-4.483-1.443-.917-2.402-1.817-3.153-3.263-.187-.36.167.519-.054-.117-.07-.203-.137-.405-.192-.613s-.101-.42-.133-.633c.072.485.007,0,.008-.125.001-.186-.005-.374-.005-.56,0-.076.094-.784.003-.238.07-.42.184-.841.346-1.236-.202.491.091-.146.125-.2.154-.248.296-.499.472-.734-.238.318-.004.015.045-.039.205-.232.419-.455.645-.667.637-.599,1.46-1.134,2.481-1.672,2.269-1.194,4.845-1.903,7.387-2.467,6.986-1.551,14.24-1.845,21.373-1.854,3.088-.004,3.094-4.804,0-4.8Z"/><path class="d" d="M72.904,13.574c-14.074,0-28.759,3.772-38.123,14.254-7.405,8.288-11.377,19.765-11.377,31.614,0,11.786,5.086,22.886,12.491,31.175,9.364,10.482,23.247,14.693,37.009,14.693s27.645-4.211,37.009-14.693c7.405-8.288,12.491-19.388,12.491-31.175,0-11.849-3.972-23.325-11.377-31.614-9.364-10.482-24.05-14.254-38.123-14.254Z"/><path class="h" d="M60.174,111.599v-5.7s0-.749-.001-1.873c4.163.876,8.453,1.283,12.732,1.283s8.568-.407,12.73-1.283c0,.814,0,1.303,0,1.303v6.887c0,1.968-1.588,3.563-3.556,3.563-5.671,0-9.483,0-18.344,0-1.968,0-3.561-1.595-3.561-3.563v-.617Z"/><path class="h" d="M60.174,7.971v6.718c4.19-.773,8.488-1.116,12.73-1.116s8.54.343,12.731,1.109c0-1.119,0-1.811,0-1.811v-6.887c0-1.968-1.588-3.563-3.556-3.563-5.671,0-9.483,0-18.344,0-1.968,0-3.561,1.595-3.561,3.563v1.988Z"/><path class="h" d="M77.369,115.779c-2.628,0-5.307,0-8.93,0v39.183h8.93v-39.183Z"/><path class="g" d="M72.904,11.174c-10.035.025-20.305,1.812-29.199,6.642-9.199,4.996-15.772,13.355-19.424,23.079-3.778,10.061-4.424,21.543-1.253,31.846,3.077,10,9.314,19.293,17.778,25.5,8.228,6.034,18.47,8.832,28.558,9.373s20.449-1.113,29.519-5.65c9.295-4.649,16.554-12.677,21.037-21.992,4.772-9.916,5.946-20.813,3.755-31.575-2.057-10.103-7.254-19.97-15.402-26.458-7.994-6.366-17.929-9.404-27.987-10.406-2.454-.244-4.918-.353-7.384-.359-3.089-.008-3.093,4.792,0,4.8,9.118.022,18.501,1.536,26.609,5.897,8.211,4.417,14.226,11.778,17.456,20.491,3.44,9.28,4.098,19.602,1.182,29.103-2.714,8.846-8.322,17.423-15.887,22.86-7.508,5.396-16.657,7.998-25.821,8.489-9.211.494-18.783-.836-27.097-4.995-8.519-4.261-14.959-11.404-19.137-19.904-4.381-8.913-5.42-18.962-3.365-28.649,1.954-9.21,6.593-18.049,14.083-23.934,7.059-5.547,16.152-8.21,24.982-9.038,2.326-.218,4.66-.316,6.996-.322,3.088-.008,3.094-4.808,0-4.8Z"/><path class="g" d="M57.774,105.899c0,2.065-.069,4.142,0,6.206.07,2.102,1.007,4.093,2.86,5.205,2.108,1.264,4.792.87,7.143.87,3.766,0,7.533,0,11.299,0,2.068,0,4.253.243,6.103-.87,1.823-1.097,2.779-3.061,2.856-5.138.084-2.274,0-4.566,0-6.842,0-3.089-4.8-3.094-4.8,0v5.62c0,.538.127,1.322-.133,1.806-.57,1.058-2.45.625-3.443.625-3.066,0-6.131,0-9.197,0-2.151,0-4.336.114-6.483,0-.882-.047-1.353-.412-1.404-1.316-.115-2.041,0-4.119,0-6.164,0-3.089-4.8-3.094-4.8,0h0Z"/><path class="g" d="M62.574,12.301v-5.674c0-.657-.053-1.303.623-1.671.658-.357,1.7-.135,2.426-.135,1.115,0,2.231,0,3.346,0,3.176,0,6.352,0,9.528,0,.733,0,1.466,0,2.198,0,.589,0,1.392-.152,1.919.135.654.356.619.973.619,1.61v6.305c0,3.089,4.8,3.094,4.8,0v-6.377c0-1.703-.422-3.345-1.632-4.61-1.621-1.696-3.649-1.863-5.857-1.863-3.606,0-7.211,0-10.817,0-1.219,0-2.438,0-3.657,0-1.311,0-2.698-.123-3.975.228-2.189.602-3.861,2.535-4.221,4.754-.382,2.36-.102,4.914-.102,7.299,0,3.089,4.8,3.094,4.8,0h0Z"/><path class="g" d="M66.039,116.539v38.66c0,3.089,4.8,3.094,4.8,0v-38.66c0-3.089-4.8-3.094-4.8,0h0Z"/><path class="g" d="M74.969,116.729v38.47c0,3.089,4.8,3.094,4.8,0v-38.47c0-3.089-4.8-3.094-4.8,0h0Z"/><path class="g" d="M61.979,100.316c-1.909-2.058-3.052-4.824-4.232-7.339-1.095-2.333-2.098-4.704-2.973-7.128-1.79-4.957-3.07-10.12-3.662-15.361-1.312-11.624-.275-23.666,3.071-34.875.904-3.028,1.966-6.019,3.238-8.913,1.221-2.777,2.472-5.883,4.558-8.132,2.099-2.262-1.288-5.665-3.394-3.394-2.132,2.298-3.5,5.134-4.795,7.958-1.253,2.734-2.376,5.532-3.338,8.381-2.002,5.926-3.282,12.057-4.007,18.265-1.399,11.988-.693,24.4,3.188,35.884,1.036,3.064,2.273,6.062,3.625,8.999,1.46,3.172,2.927,6.463,5.327,9.05,2.105,2.27,5.494-1.131,3.394-3.394h0Z"/><path class="g" d="M87.223,103.71c2.133-2.3,3.477-5.132,4.808-7.939,1.228-2.59,2.364-5.229,3.364-7.915,1.993-5.354,3.301-10.889,4.005-16.556,1.539-12.395.36-25.426-3.269-37.37-.999-3.29-2.216-6.506-3.599-9.654-1.409-3.206-2.903-6.51-5.309-9.103-2.105-2.27-5.494,1.131-3.394,3.394,1.91,2.059,3.072,4.834,4.217,7.367,1.127,2.493,2.099,5.055,2.947,7.656,1.807,5.537,3.048,11.274,3.667,17.065,1.198,11.202.577,22.626-2.991,33.362-.931,2.801-2.03,5.539-3.264,8.219-1.265,2.748-2.497,5.837-4.576,8.079-2.099,2.262,1.288,5.665,3.394,3.394h0Z"/><path class="h" d="M45.246,177.286h55.316c.71,0,1.286-.576,1.286-1.286v-15.14c0-3.257-2.641-5.898-5.898-5.898h-46.091c-3.257,0-5.898,2.641-5.898,5.898v15.14c0,.71.576,1.286,1.286,1.286Z"/><path class="g" d="M45.246,179.686h54.083c.378,0,.76.015,1.138,0,2.107-.085,3.679-1.558,3.781-3.691.114-2.385,0-4.803,0-7.19,0-2.618.054-5.242,0-7.859-.095-4.655-3.677-8.278-8.342-8.383-1.208-.027-2.42,0-3.628,0-12.51,0-25.019,0-37.529,0-1.531,0-3.063-.01-4.595,0-4.032.027-7.758,2.686-8.443,6.804-.415,2.494-.15,5.184-.15,7.698,0,2.866-.063,5.74,0,8.605.051,2.302,1.403,3.753,3.686,4.016,1.29.149,2.4-1.209,2.4-2.4,0-1.421-1.107-2.251-2.4-2.4,1.644.189,1.017,1.799,1.114.699.042-.478,0-.978,0-1.457v-12.759c0-2.203,1.281-4,3.641-4.006,1.273-.003,2.547,0,3.82,0h41.228c1.843,0,3.597.468,4.243,2.461.232.716.155,1.529.155,2.276v12.936c0,.258-.066.628,0,.88.158.6,1.61-.865,1.061-1.029-.254-.076-.65,0-.911,0h-54.351c-3.089,0-3.094,4.8,0,4.8Z"/></g></svg>