<svg xmlns="http://www.w3.org/2000/svg" width="204.769" height="204.802" viewBox="0 0 204.769 204.802" style="color: initial !important;"><defs><style>.a{fill:#3d8dcc;}.b{fill:#211715;}</style></defs><path class="a" d="M200.869,84.005A96.98,96.98,0,0,0,120.511,3.9a122.384,122.384,0,0,0-18.1-1.595c-20.994.061-42.595,6.116-59.5,18.833A105.925,105.925,0,0,0,30.263,31.961,107.615,107.615,0,0,0,19.8,44.815,96.99,96.99,0,0,0,6.831,71.663a101.328,101.328,0,0,0-4.458,30.444A112.421,112.421,0,0,0,6.82,133.393a96.166,96.166,0,0,0,12.342,26.56,98.465,98.465,0,0,0,21.932,23c15.91,12.222,35.891,18.2,55.751,19.28,20.232,1.1,41.313-3.2,58.909-13.428a90.115,90.115,0,0,0,37.055-41.2,113.587,113.587,0,0,0,5.668-15.4,122.681,122.681,0,0,0,3.088-16.793A111.043,111.043,0,0,0,200.869,84.005Zm-24.723,30.544a99.691,99.691,0,0,1-5.379,20.289,86.581,86.581,0,0,1-9.145,15.82,82.039,82.039,0,0,1-11.4,11.381,85.193,85.193,0,0,1-15.355,8.875,97.319,97.319,0,0,1-19.663,5.226,112.185,112.185,0,0,1-25,.034A96.567,96.567,0,0,1,70.8,170.991a87.091,87.091,0,0,1-15.89-9.209A84.433,84.433,0,0,1,43.14,150a87.8,87.8,0,0,1-9.27-16.029,98.412,98.412,0,0,1-5.31-19.99A104.689,104.689,0,0,1,28.382,91.7,93.515,93.515,0,0,1,33.689,72a91.017,91.017,0,0,1,9.425-16.179,89.392,89.392,0,0,1,12.8-12.808,89.707,89.707,0,0,1,15.753-9.2A94.452,94.452,0,0,1,91.857,28.4a101.362,101.362,0,0,1,21.171.013,94.609,94.609,0,0,1,19.978,5.36,89.669,89.669,0,0,1,15.954,9.31,89.22,89.22,0,0,1,12.6,12.6,90.807,90.807,0,0,1,9.421,16.091,93.488,93.488,0,0,1,5.374,19.881A107.219,107.219,0,0,1,176.146,114.549Z"/><path class="b" d="M203.183,83.367a99.411,99.411,0,0,0-78.2-81.112C104.1-1.861,82.167-.482,62.355,7.547A100.533,100.533,0,0,0,14.326,48.834C2.809,68.047-1.6,90.766.512,112.958c2.1,21.969,10.448,43.017,25.411,59.4a97.786,97.786,0,0,0,23.887,19.22,100.794,100.794,0,0,0,28.937,10.708c20.376,4.248,42.069,3.206,61.722-3.808A95.126,95.126,0,0,0,187,162.98,102.3,102.3,0,0,0,200.136,135.1a105.815,105.815,0,0,0,3.431-16.694,115.311,115.311,0,0,0,1.188-17.738,129.23,129.23,0,0,0-1.572-17.3,2.416,2.416,0,0,0-2.952-1.676,2.46,2.46,0,0,0-1.677,2.952,114.912,114.912,0,0,1,.187,33.895,99.955,99.955,0,0,1-3.513,16.179,111.781,111.781,0,0,1-5.809,14.547A88.122,88.122,0,0,1,151.9,188.212c-17.7,9.512-38.293,13.017-58.221,11.406-19.552-1.58-38.686-8.231-53.922-20.776A91.558,91.558,0,0,1,7.842,127.978a104.911,104.911,0,0,1,4.142-63.657A95.82,95.82,0,0,1,51.971,17.968C68.867,7.984,89.265,3.577,108.8,4.945a105.026,105.026,0,0,1,29.728,6.17,94.748,94.748,0,0,1,56.812,59.917,91.725,91.725,0,0,1,3.218,13.611,2.417,2.417,0,0,0,2.953,1.676A2.459,2.459,0,0,0,203.183,83.367Z"/><path class="b" d="M173.832,113.911c-1.175,7.349-2.876,15.046-6.1,21.8a67.68,67.68,0,0,1-11.975,17.945,55.893,55.893,0,0,1-8.231,7.372,84.964,84.964,0,0,1-9.352,5.639,75.393,75.393,0,0,1-21.267,6.763c-7.731,1.411-15.962,1.3-23.768.636a68.465,68.465,0,0,1-11-1.994A74.726,74.726,0,0,1,71.6,168.734a64.873,64.873,0,0,1-18.4-11.6,84.645,84.645,0,0,1-7.494-7.787,58.026,58.026,0,0,1-5.887-8.912,60.162,60.162,0,0,1-4.608-9.754,97.346,97.346,0,0,1-3.1-10.856,85.766,85.766,0,0,1-1.7-23.281,75.779,75.779,0,0,1,4.775-21.726,62.223,62.223,0,0,1,4.988-10.133,60.53,60.53,0,0,1,6.094-8.9A71.214,71.214,0,0,1,62.42,41.5a85.629,85.629,0,0,1,9.623-5.234A65.58,65.58,0,0,1,82.921,32.68a65.9,65.9,0,0,1,10.9-2.069,101.493,101.493,0,0,1,11.828-.309,78.226,78.226,0,0,1,22.51,4.254,67.027,67.027,0,0,1,33.682,25.7,90.765,90.765,0,0,1,5.7,9.847,61.73,61.73,0,0,1,3.859,10.3,87.033,87.033,0,0,1,2.5,10.966,71.472,71.472,0,0,1,.573,11.5,115.332,115.332,0,0,1-.722,11.69,2.415,2.415,0,0,0,2.4,2.4,2.455,2.455,0,0,0,2.4-2.4c.9-8.091,1.293-16.633-.062-24.7a79.5,79.5,0,0,0-7.108-22.788,75.931,75.931,0,0,0-13.163-18.746,66.256,66.256,0,0,0-8.591-7.71,89.562,89.562,0,0,0-9.743-6.1,78.579,78.579,0,0,0-22.266-7.714A86.482,86.482,0,0,0,92.838,25.9,72.853,72.853,0,0,0,80.971,28.23a68.8,68.8,0,0,0-11.35,3.894A75.92,75.92,0,0,0,50.27,44.732a89.4,89.4,0,0,0-7.985,8.345,67.194,67.194,0,0,0-6.6,9.777,77.914,77.914,0,0,0-8.395,21.82c-3.593,15.823-1.922,32.749,3.529,47.949a66.73,66.73,0,0,0,5.08,10.626,63.683,63.683,0,0,0,6.413,9.491,71.723,71.723,0,0,0,17.356,15.107,76.493,76.493,0,0,0,10.21,5.337,78.08,78.08,0,0,0,11.213,3.569,90.04,90.04,0,0,0,24.567,2.458,89.119,89.119,0,0,0,24.031-3.965,74.13,74.13,0,0,0,20.825-10.47,62.469,62.469,0,0,0,15.906-16.868,86.959,86.959,0,0,0,5.658-10.192A69.476,69.476,0,0,0,176,126.6a105.417,105.417,0,0,0,2.46-11.415,2.476,2.476,0,0,0-1.677-2.953A2.419,2.419,0,0,0,173.832,113.911Z"/></svg>