<svg xmlns="http://www.w3.org/2000/svg" width="304.577" height="328.566" viewBox="0 0 304.577 328.566" style="color: initial !important;"><defs><style>.a{fill:#3d8dcc;}.b{fill:#211715;}.c{fill:#f2635f;}</style></defs><path class="a" d="M259.786,295.047a9.106,9.106,0,0,1-6.225-1.948,8.065,8.065,0,0,1-1.988-2.633c-1.632-3.507-1.793-9.6-.452-17.161,1.726-9.723,6.789-13.97,12.651-18.888,1.371-1.15,2.79-2.339,4.19-3.627a12.218,12.218,0,0,0,4.22-9.829,11.6,11.6,0,0,0-4.672-8.725,13.865,13.865,0,0,0-8.651-2.933,13.447,13.447,0,0,0-8.562,2.935c-3.892,2.938-6.235,7.034-8.009,10.649a7.275,7.275,0,0,1-3.657,3.5,10.365,10.365,0,0,1-3.961.761,10.046,10.046,0,0,1-4.28-.914c-3.384-1.6-4.894-4.594-4.618-9.139a25.5,25.5,0,0,1,5.3-13.752c6.136-8,17.465-13.173,28.863-13.173a32.716,32.716,0,0,1,23.766,9.709,31.03,31.03,0,0,1,8.659,21.975,26.4,26.4,0,0,1-8.188,18.956c-3.244,3.049-5.81,5.15-8.074,7-1.338,1.095-2.492,2.039-3.592,3.021a14.071,14.071,0,0,0-4.585,9.528l-.061,1.472a54.914,54.914,0,0,1-.538,6.692,8.919,8.919,0,0,1-2.283,4.432A7.358,7.358,0,0,1,259.786,295.047Z"/><path class="a" d="M259.089,326.166a9.667,9.667,0,0,1-8.009-4.036,9.8,9.8,0,0,1,.893-11.668,9.147,9.147,0,0,1,6.7-2.71l.2,0c1.3,0,5.707.274,8.128,3.8a9.739,9.739,0,0,1-1.7,12.437A9.521,9.521,0,0,1,259.089,326.166Z"/><path class="b" d="M259.786,292.647c-2.156-.029-4.215-.486-5.537-2.327a10.283,10.283,0,0,1-1.485-4.79,39.673,39.673,0,0,1,1.512-15.126,23.277,23.277,0,0,1,6.134-9.812c3.28-3.243,7.323-5.783,10.374-9.24a14.529,14.529,0,0,0,3.09-14.215,15.378,15.378,0,0,0-11.091-9.776,16.891,16.891,0,0,0-14.854,3.71,26.1,26.1,0,0,0-5.164,6.009c-1.128,1.747-1.872,3.756-3.048,5.457-2.156,3.119-8.286,2.912-10.488-.216a8.121,8.121,0,0,1-1.057-5.229,21.114,21.114,0,0,1,1.842-7.315c4.016-8.93,13-14.4,22.3-16.406a32.67,32.67,0,0,1,24.286,3.831,28.654,28.654,0,0,1,13.354,24.85,24.766,24.766,0,0,1-4.16,13.193c-2.663,3.961-6.713,7.021-10.367,10.025a47.982,47.982,0,0,0-5.706,4.957,17.1,17.1,0,0,0-3.605,6.492,23.021,23.021,0,0,0-.676,5.583c-.094,2.293.054,5-.894,7.147a5.125,5.125,0,0,1-4.765,3.2c-3.084.077-3.1,4.878,0,4.8a9.811,9.811,0,0,0,7.479-3.395c1.877-2.3,2.464-4.846,2.739-7.735.2-2.107.16-4.228.344-6.334a11.492,11.492,0,0,1,2.646-6.215,43.256,43.256,0,0,1,5.832-5.1c2.039-1.677,4.046-3.391,5.99-5.178a29.859,29.859,0,0,0,8.636-13.253c3.23-10.465.352-22.336-6.7-30.588A35.152,35.152,0,0,0,261,207.782c-10.34-.3-21.147,3.44-28.687,10.612a28.984,28.984,0,0,0-8.319,14.363c-1.076,4.729-1.18,10.572,2.847,14,4.248,3.619,11.481,3.881,15.615-.08,1.6-1.538,2.372-3.63,3.452-5.522a24.261,24.261,0,0,1,4.776-6.14,11.953,11.953,0,0,1,13.814-1.912,9.656,9.656,0,0,1,4.763,11.665c-.838,2.5-2.818,4.211-4.75,5.886-1.87,1.619-3.8,3.166-5.647,4.814a30.731,30.731,0,0,0-7.827,10.023,41.686,41.686,0,0,0-3.214,16.58c-.049,4.679.6,10.026,4.533,13.12a12,12,0,0,0,7.431,2.254C262.876,297.49,262.877,292.69,259.786,292.647Z"/><path class="b" d="M259.089,323.766a7.552,7.552,0,0,1-4.742-1.592c.093.073.2.17-.141-.132-.168-.149-.329-.3-.486-.465a4.115,4.115,0,0,1-.568-.658,7.368,7.368,0,0,1-1.1-2.857,7.867,7.867,0,0,1,.6-4.335,5.8,5.8,0,0,1,2.97-2.968,8.408,8.408,0,0,1,3.895-.59c.24.014.478.049.718.064-.729-.046.2.04.393.08a10.266,10.266,0,0,1,1.963.588c-.472-.2.205.115.242.134.136.071.272.146.4.224.2.12.4.249.6.385-.084-.059-.283-.254.092.072a5.4,5.4,0,0,1,1.517,1.895,6.3,6.3,0,0,1,.573,1.744c0,.017.1.805.061.341.015.165.029.33.037.495a10.326,10.326,0,0,1-.039,1.492c.035-.363,0,.045-.016.1-.062.328-.13.653-.219.974q-.067.241-.145.478c-.007.021-.266.707-.118.357a6.65,6.65,0,0,1-1.422,2.185,7.066,7.066,0,0,1-5.067,1.986c-3.086.043-3.095,4.843,0,4.8a11.691,11.691,0,0,0,11.38-8.53,11.454,11.454,0,0,0-4.408-12.671A13.607,13.607,0,0,0,255,305.908a11.331,11.331,0,0,0-7.815,11.5,11.455,11.455,0,0,0,3.732,8.117,12.666,12.666,0,0,0,8.176,3.043C262.179,328.607,262.18,323.807,259.089,323.766Z"/><path class="c" d="M40.376,325.745a9.669,9.669,0,0,1-8.009-4.035,9.805,9.805,0,0,1,.893-11.668,9.14,9.14,0,0,1,6.7-2.71l.2,0c1.3,0,5.708.274,8.128,3.8a9.739,9.739,0,0,1-1.7,12.437A9.521,9.521,0,0,1,40.376,325.745Z"/><path class="b" d="M40.376,323.345a7.557,7.557,0,0,1-4.742-1.591c.093.072.2.169-.141-.133-.168-.149-.329-.3-.486-.465a4.058,4.058,0,0,1-.567-.658,7.349,7.349,0,0,1-1.1-2.856,7.879,7.879,0,0,1,.6-4.336,5.8,5.8,0,0,1,2.971-2.968,8.4,8.4,0,0,1,3.894-.59c.24.014.478.049.718.064-.729-.046.2.041.393.08a10.266,10.266,0,0,1,1.963.588c-.472-.2.206.115.242.134.137.072.272.146.405.224q.306.181.6.385c-.084-.059-.284-.254.091.072a5.4,5.4,0,0,1,1.517,1.9,6.3,6.3,0,0,1,.573,1.743c0,.017.1.8.062.341.015.165.028.33.036.5a10.178,10.178,0,0,1-.039,1.492c.035-.363-.005.045-.016.1-.062.327-.13.652-.219.974-.044.16-.093.319-.145.477-.007.021-.266.707-.118.357a6.65,6.65,0,0,1-1.422,2.185,7.066,7.066,0,0,1-5.067,1.986c-3.086.043-3.095,4.844,0,4.8a11.692,11.692,0,0,0,11.38-8.529,11.454,11.454,0,0,0-4.408-12.672,13.607,13.607,0,0,0-11.065-1.457,11.329,11.329,0,0,0-7.814,11.5A11.452,11.452,0,0,0,32.2,325.1a12.655,12.655,0,0,0,8.175,3.042C43.466,328.187,43.467,323.387,40.376,323.345Z"/><path class="c" d="M40.34,296.357a8.874,8.874,0,0,0,6.186-2.106,10.187,10.187,0,0,0,2.836-6.32s.115-.9.135-1.065c.779-25.015,1.541-38.4,1.931-63.331.1-3.307-.286-6.181-1.79-8.511-2.781-4.306-7.7-4.408-9.3-4.437-1.6.029-6.517.131-9.3,4.437-1.5,2.33-1.886,5.2-1.79,8.511.389,24.93,1.16,38.316,1.939,63.331.021.162.135,1.065.135,1.065a10.179,10.179,0,0,0,2.828,6.32,8.872,8.872,0,0,0,6.185,2.106"/><path class="b" d="M40.34,298.757a10.909,10.909,0,0,0,9.491-4.775c1.821-2.855,2.038-6.283,2.143-9.564q.355-11.079.779-22.155c.243-6.635.478-13.269.665-19.9q.156-5.517.269-11.034c.081-3.941.463-8.026-.068-11.942a12.635,12.635,0,0,0-5.04-8.841,13.858,13.858,0,0,0-7.218-2.316c-4.964-.319-10.14,1.567-12.681,6.073-1.9,3.367-1.862,7.2-1.8,10.952q.1,5.874.241,11.747.249,10.135.629,20.269c.253,7.037.523,14.073.764,21.111.222,6.5-.762,15.889,6.388,19.23a12.806,12.806,0,0,0,5.437,1.15c3.089.009,3.093-4.791,0-4.8-3.018-.01-5.328-1.374-6.216-4.331-.771-2.568-.627-5.833-.732-8.977q-.327-9.775-.7-19.548c-.222-6.046-.436-12.092-.61-18.14-.2-6.9-.546-13.849-.439-20.755.043-2.79.615-5.809,2.979-7.6a7.287,7.287,0,0,1,2.417-1.174,8.177,8.177,0,0,1,2.377-.416,10.608,10.608,0,0,1,4.228.416,7.052,7.052,0,0,1,4.735,4.433c1.077,3.164.636,6.723.576,10.006q-.1,5.3-.231,10.594-.235,9.209-.575,18.416c-.255,7.164-.529,14.328-.774,21.493q-.1,3.019-.2,6.041c-.028.895-.02,1.8-.108,2.69-.019.194-.047.389-.073.583-.03.232-.029.229,0-.007q-.06.393-.139.783a7.167,7.167,0,0,1-2.026,4.087,6.693,6.693,0,0,1-4.489,1.4c-3.088.009-3.094,4.809,0,4.8Z"/><path class="c" d="M277.328,114.319,254.473,87.081a1.365,1.365,0,0,1,1.049-2.242H267.56a1.366,1.366,0,0,0,1.367-1.366V15.413a1.365,1.365,0,0,1,1.366-1.366h16.48a1.366,1.366,0,0,1,1.366,1.366v68.06a1.366,1.366,0,0,0,1.367,1.366h11.72a1.367,1.367,0,0,1,1.046,2.245l-22.851,27.234A1.366,1.366,0,0,1,277.328,114.319Z"/><path class="c" d="M277.328,114.319,254.473,87.081a1.365,1.365,0,0,1,1.049-2.242H267.56a1.366,1.366,0,0,0,1.367-1.366V15.413a1.365,1.365,0,0,1,1.366-1.366h16.48a1.366,1.366,0,0,1,1.366,1.366v68.06a1.366,1.366,0,0,0,1.367,1.366h11.72a1.367,1.367,0,0,1,1.046,2.245l-22.851,27.234A1.366,1.366,0,0,1,277.328,114.319Z"/><path class="a" d="M220.974,9.294,198.118,36.532a1.366,1.366,0,0,0,1.05,2.242h12.038a1.365,1.365,0,0,1,1.366,1.366V108.2a1.367,1.367,0,0,0,1.367,1.366h16.479a1.367,1.367,0,0,0,1.367-1.366V40.14a1.366,1.366,0,0,1,1.366-1.366h11.72a1.367,1.367,0,0,0,1.047-2.245L223.066,9.3A1.365,1.365,0,0,0,220.974,9.294Z"/><path class="b" d="M219.56,7.88,206.126,23.889,199.324,32c-.85,1.014-1.718,2.015-2.552,3.042a3.439,3.439,0,0,0,.81,5.34c1.486.8,3.935.4,5.54.4h7.215a2.421,2.421,0,0,0,.736,0c.488-.242-1.187.312-.5-.623-.051.07.01.332,0,.416a22.4,22.4,0,0,0,0,2.539v63.836c0,.417-.021.841,0,1.257a3.457,3.457,0,0,0,3.4,3.367c.515.029,1.04,0,1.556,0h13.805a13.9,13.9,0,0,0,1.4-.036,3.4,3.4,0,0,0,3.053-3.35c.024-.5,0-1.008,0-1.51V42.732a10.061,10.061,0,0,0,0-2.288c-.08-.3.228-.533-.317.013s-.31.235,0,.317a4.931,4.931,0,0,0,1.113,0h7.394c2.095,0,4.65.4,5.853-1.783,1.347-2.447-.966-4.433-2.4-6.146l-5.078-6.052q-5.158-6.145-10.315-12.293l-4.92-5.863c-1.506-1.8-3.659-2.562-5.555-.757-1.869,1.778.963,4.6,2.828,2.828a1.814,1.814,0,0,1-.736,0c-.013.021.681.812.635.757L223.4,12.79l2.7,3.215,4.92,5.863,9.839,11.725,2.38,2.837c.174.207.743,1.11,1.031,1.151-.1-.015.25-1.349.579-.807a7.631,7.631,0,0,0-1.851,0H235.83c-2.118,0-4.66-.352-5.734,1.995a5.118,5.118,0,0,0-.311,2.253v65.566c0,.311-.177,1.3,0,1.568-.262-.4,1.127-.406.289-.59a10.674,10.674,0,0,0-2.092,0h-13.32a1.985,1.985,0,0,0-.6,0c-.024.011-.1-.016-.117,0-.191.147.481.818.628.629.049-.062-.01-.3,0-.379a18.4,18.4,0,0,0,0-2.313V46.7c0-2.082.055-4.173,0-6.255a3.507,3.507,0,0,0-3.393-3.67c-1.738-.1-3.512,0-5.252,0a55.939,55.939,0,0,0-6.357,0c-.048.005-.376-.036-.4,0,.158-.284,1.018,1.044.5,1.01.1.007.575-.685.651-.776l2.669-3.181,13.778-16.42,5.621-6.7C224.032,8.749,221.217,5.905,219.56,7.88Z"/><path class="b" d="M278.742,112.905,265.88,97.576l-6.727-8.016-2.629-3.134a4.481,4.481,0,0,0-.5-.6c.394-.1-.232,1.664-.494,1.01a3.053,3.053,0,0,0,.5,0c3.824,0,7.7.194,11.518,0,3.582-.181,3.383-3.409,3.383-5.958V18.005a12.9,12.9,0,0,0,0-2.249c-.013-.066.044-.286,0-.34.164.2-.814.392-.512.631.1.075.534,0,.656,0h13.447a8.44,8.44,0,0,0,1.984,0c.648-.179-.461-.5-.363-.575-.152.119,0,1.451,0,1.637V79.755c0,1.61-.373,4,.493,5.455,1.21,2.03,3.764,1.629,5.766,1.629h7.134c.2,0,1.538.162,1.676,0-.184.216-.849-.848-.628-.8-.183-.04-.842.965-.991,1.143l-2.54,3.026-10,11.915-4.761,5.673-2.38,2.837-1.27,1.513c-.11.132-.433.4-.476.567l-.159.19a.741.741,0,0,1,.736,0c-1.864-1.775-4.7,1.049-2.828,2.828a3.513,3.513,0,0,0,2.748,1.043c1.366-.1,2.145-1.011,2.966-1.99l5.078-6.052q5.158-6.145,10.315-12.293L302.1,90.39c1.461-1.742,3.436-3.617,1.948-6-1.246-2-3.928-1.551-5.935-1.551h-7.259a7.068,7.068,0,0,0-1.029,0c-.063.01-.2-.03-.258,0-.013.007-.043-.008-.055,0-.194.147.511.776.627.633.044-.054-.009-.275,0-.342a17.123,17.123,0,0,0,0-2.354V20.432c0-1.66.095-3.35,0-5.008a3.454,3.454,0,0,0-3.366-3.377c-.405-.021-.817,0-1.222,0H271.729c-.471,0-.953-.028-1.423,0a3.464,3.464,0,0,0-3.379,3.369c-.094,1.592,0,3.217,0,4.81v60.39a15.827,15.827,0,0,0,0,2.473c.012.074-.049.319,0,.379-.212-.262.919-.386.471-.629a2.616,2.616,0,0,0-.847,0H259.36c-1.652,0-4.193-.414-5.662.538-1.945,1.261-1.838,3.645-.5,5.28.874,1.071,1.778,2.119,2.667,3.178l14.217,16.943,5.836,6.955C277.57,117.707,280.387,114.865,278.742,112.905Z"/><path class="a" d="M71.022,118.4a9.668,9.668,0,0,1-8.009-4.035,9.8,9.8,0,0,1,.893-11.668,9.143,9.143,0,0,1,6.7-2.71l.2,0c1.3,0,5.707.275,8.128,3.8a9.738,9.738,0,0,1-1.7,12.436A9.511,9.511,0,0,1,71.022,118.4Z"/><path class="a" d="M71.657,87.313a7.72,7.72,0,0,1-1.719.027,8.973,8.973,0,0,1-6.415-3.915c-1.175-1.729-1.419-4.17-1.514-6.208a40.551,40.551,0,0,1,1.045-11.675c2.28-9.609,6.789-13.97,12.65-18.888,1.372-1.15,2.79-2.34,4.191-3.628a12.216,12.216,0,0,0,4.22-9.828,11.605,11.605,0,0,0-4.672-8.726,13.874,13.874,0,0,0-8.651-2.932,13.446,13.446,0,0,0-8.562,2.934c-3.892,2.939-6.236,7.035-8.009,10.65a7.275,7.275,0,0,1-3.657,3.5,10.369,10.369,0,0,1-3.961.761,10.069,10.069,0,0,1-4.281-.914c-3.383-1.605-4.893-4.594-4.617-9.139a25.5,25.5,0,0,1,5.3-13.752C49.145,7.574,60.474,2.4,71.872,2.4a32.717,32.717,0,0,1,23.765,9.71,31.023,31.023,0,0,1,8.66,21.975,26.411,26.411,0,0,1-8.188,18.956c-3.244,3.049-5.81,5.149-8.075,7a20.416,20.416,0,0,0-3.372,3.162c-2.188,2.827-3.938,7.768-4.6,10.973-.888,4.273-.73,9.722-5.338,12.1A9.931,9.931,0,0,1,71.657,87.313Z"/><path class="b" d="M71.657,84.913A6.451,6.451,0,0,1,65.9,82.6c-1.382-1.661-1.444-4-1.514-6.059a37.483,37.483,0,0,1,2.6-15.511,27.618,27.618,0,0,1,6.746-9.446c3.474-3.3,7.9-5.96,10.536-10.027A14.405,14.405,0,0,0,84.9,27.233c-2.382-4.626-7.378-7.461-12.44-8-5.51-.585-10.5,1.73-14.284,5.64a30.54,30.54,0,0,0-4.478,6.1c-.905,1.583-1.542,3.542-2.824,4.663-2.962,2.589-8.817,1.479-10.278-2.108a11.326,11.326,0,0,1-.285-6.025,23.358,23.358,0,0,1,2.613-7.421C47.582,11.7,56.824,6.817,66.04,5.264A32.12,32.12,0,0,1,90.2,10.56,28.628,28.628,0,0,1,101.79,36.087a24.238,24.238,0,0,1-4.8,12.444c-2.892,3.8-6.981,6.812-10.653,9.818a19.821,19.821,0,0,0-5.075,5.7,35.168,35.168,0,0,0-2.8,6.742,42.03,42.03,0,0,0-1.243,5.875,15.534,15.534,0,0,1-1.539,5.526A6.349,6.349,0,0,1,71.019,85a2.418,2.418,0,0,0-1.676,2.952A2.457,2.457,0,0,0,72.3,89.627a10.859,10.859,0,0,0,6.637-3.754,14.207,14.207,0,0,0,2.646-6.334c.388-2.04.6-4.106,1.126-6.119a30.571,30.571,0,0,1,2.525-6.627,18.116,18.116,0,0,1,5.011-5.466c1.921-1.574,3.821-3.172,5.665-4.836a31.5,31.5,0,0,0,9.116-12.927c3.673-10.321,1.136-22.266-5.583-30.755A34.913,34.913,0,0,0,73.9.059a40.908,40.908,0,0,0-28.691,9.7,29.479,29.479,0,0,0-8.85,13.609c-1.414,4.707-1.93,10.533,1.382,14.578,3.507,4.281,10.864,5.122,15.372,2.006a12.309,12.309,0,0,0,3.833-4.905,29.223,29.223,0,0,1,4.2-6.324,14.021,14.021,0,0,1,6.207-4.28,12.3,12.3,0,0,1,7.457.178A9.88,9.88,0,0,1,81.65,35.2c-.765,5.159-5.792,8.108-9.409,11.266a35.99,35.99,0,0,0-8.376,9.992A39.117,39.117,0,0,0,59.633,72.34c-.339,5.415-.21,11.514,4.457,15.108a10.724,10.724,0,0,0,7.567,2.265,2.468,2.468,0,0,0,2.4-2.4A2.416,2.416,0,0,0,71.657,84.913Z"/><path class="b" d="M71.022,116a7.551,7.551,0,0,1-4.742-1.591c.092.073.2.17-.142-.133q-.251-.224-.485-.464a4.115,4.115,0,0,1-.568-.658,7.374,7.374,0,0,1-1.1-2.857,7.871,7.871,0,0,1,.6-4.336A5.8,5.8,0,0,1,67.556,103a8.38,8.38,0,0,1,3.894-.59c.241.014.479.048.719.063-.729-.046.2.041.393.08a10.235,10.235,0,0,1,1.962.588c-.472-.2.206.116.243.135.136.071.272.146.4.224.2.12.4.248.6.385-.084-.059-.283-.255.092.072a5.407,5.407,0,0,1,1.517,1.895,6.3,6.3,0,0,1,.573,1.744c0,.017.1.805.061.34.015.165.028.33.036.5a10.185,10.185,0,0,1-.039,1.492c.036-.363,0,.045-.015.1-.062.328-.13.653-.219.974-.045.16-.093.32-.145.478-.007.021-.266.706-.118.356a6.65,6.65,0,0,1-1.422,2.185A7.064,7.064,0,0,1,71.022,116c-3.086.044-3.095,4.844,0,4.8a11.692,11.692,0,0,0,11.38-8.529A11.456,11.456,0,0,0,77.994,99.6a13.612,13.612,0,0,0-11.065-1.457,11.329,11.329,0,0,0-7.815,11.5,11.453,11.453,0,0,0,3.732,8.117,12.66,12.66,0,0,0,8.176,3.042C74.112,120.844,74.113,116.044,71.022,116Z"/><path class="c" d="M13.516,118.4a9.668,9.668,0,0,1-8.009-4.035A9.8,9.8,0,0,1,6.4,102.7a9.143,9.143,0,0,1,6.7-2.71l.205,0c1.3,0,5.707.275,8.128,3.8a9.739,9.739,0,0,1-1.7,12.436A9.515,9.515,0,0,1,13.516,118.4Z"/><path class="b" d="M13.516,116a7.551,7.551,0,0,1-4.742-1.591c.092.073.2.17-.142-.133q-.251-.224-.485-.464a4.115,4.115,0,0,1-.568-.658,7.374,7.374,0,0,1-1.1-2.857,7.871,7.871,0,0,1,.605-4.336A5.8,5.8,0,0,1,10.05,103a8.38,8.38,0,0,1,3.894-.59c.241.014.479.048.719.063-.729-.046.2.041.393.08a10.235,10.235,0,0,1,1.962.588c-.472-.2.206.116.243.135.136.071.272.146.4.224.2.12.4.248.6.385-.084-.059-.283-.255.092.072a5.407,5.407,0,0,1,1.517,1.895,6.3,6.3,0,0,1,.573,1.744c0,.017.1.805.061.34.015.165.029.33.036.5a10.185,10.185,0,0,1-.039,1.492c.036-.363,0,.045-.015.1-.062.328-.13.653-.219.974-.045.16-.093.32-.145.478-.007.021-.266.706-.118.356a6.65,6.65,0,0,1-1.422,2.185A7.064,7.064,0,0,1,13.516,116c-3.086.044-3.1,4.844,0,4.8a11.692,11.692,0,0,0,11.38-8.529A11.456,11.456,0,0,0,20.488,99.6,13.612,13.612,0,0,0,9.423,98.144a11.33,11.33,0,0,0-7.815,11.5A11.453,11.453,0,0,0,5.34,117.76a12.66,12.66,0,0,0,8.176,3.042C16.606,120.844,16.607,116.044,13.516,116Z"/><path class="c" d="M13.48,89.014a8.871,8.871,0,0,0,6.185-2.1A10.185,10.185,0,0,0,22.5,80.588s.114-.9.135-1.065c.779-25.014,1.541-38.4,1.93-63.331.1-3.307-.286-6.181-1.79-8.51-2.78-4.306-7.7-4.408-9.3-4.437-1.6.029-6.517.131-9.3,4.437-1.5,2.329-1.887,5.2-1.79,8.51.389,24.93,1.16,38.317,1.939,63.331.021.163.135,1.065.135,1.065A10.176,10.176,0,0,0,7.3,86.909a8.871,8.871,0,0,0,6.185,2.1"/><path class="b" d="M13.48,91.414a10.91,10.91,0,0,0,9.49-4.774c1.821-2.856,2.039-6.284,2.144-9.564Q25.469,66,25.893,54.92c.243-6.634.478-13.268.665-19.9q.156-5.517.269-11.035c.081-3.941.462-8.025-.069-11.941A12.63,12.63,0,0,0,21.719,3.2,13.85,13.85,0,0,0,14.5.883C9.536.563,4.36,2.449,1.82,6.955-.079,10.323-.042,14.16.02,17.907q.1,5.874.242,11.747Q.511,39.791.891,49.923c.253,7.037.523,14.074.763,21.111.223,6.5-.761,15.889,6.389,19.23a12.806,12.806,0,0,0,5.437,1.15c3.089.01,3.093-4.79,0-4.8-3.018-.009-5.328-1.373-6.216-4.33-.771-2.568-.628-5.834-.733-8.978q-.327-9.774-.7-19.547Q5.5,44.69,5.221,35.618c-.2-6.9-.546-13.849-.439-20.754.043-2.79.615-5.809,2.979-7.6a7.275,7.275,0,0,1,2.416-1.175,8.178,8.178,0,0,1,2.378-.415,10.6,10.6,0,0,1,4.227.415,7.052,7.052,0,0,1,4.735,4.433c1.077,3.165.637,6.723.577,10.007q-.1,5.3-.232,10.593-.234,9.21-.574,18.417c-.256,7.164-.53,14.327-.774,21.492q-.1,3.021-.2,6.042c-.029.894-.02,1.8-.108,2.689-.019.195-.047.389-.074.583-.029.232-.029.23,0-.007-.04.263-.086.523-.14.783a7.17,7.17,0,0,1-2.026,4.088,6.693,6.693,0,0,1-4.488,1.4c-3.088.01-3.094,4.81,0,4.8Z"/></svg>