<svg xmlns="http://www.w3.org/2000/svg" width="350.831" height="323.637" viewBox="0 0 350.831 323.637" style="color: initial !important;"><defs><style>.a{fill:#ffffff;}.b{fill:#3d8dcc;}.c{fill:#211715;}.d{fill:#645d5c;}</style></defs><path class="a" d="M107.961,302.672c18.418,0,30.444-12.688,30.444-30.825,0-13.911-8.974-25.959-22.618-29.322-.343-17.617-13.88-32.326-33.2-32.326-14.058,0-25.006,7.795-30.094,18.753a25.313,25.313,0,0,0-4.286-.383,22.888,22.888,0,0,0-18.373,8.7,23.364,23.364,0,0,0-4.9,14.433,28.4,28.4,0,0,0,.214,3.316A23.275,23.275,0,0,0,2.4,278.609c0,14.25,9.922,24.063,23.766,24.063h81.79Z"/><path class="b" d="M53.271,273.864c.03,4.833-.057,35.038-.022,39.788a5.164,5.164,0,0,0,2.172,3.559,21.346,21.346,0,0,0,8.6,3.264,76.639,76.639,0,0,0,9.544.771,75.8,75.8,0,0,0,9.541-.771,21.346,21.346,0,0,0,8.6-3.264,5.185,5.185,0,0,0,2.17-3.527c-.037-4.7.028-34.982,0-39.82"/><path class="b" d="M53.27,273.454a2.808,2.808,0,0,1,.258-1.594,7.465,7.465,0,0,1,4.171-3.514c5.583-2.283,12.772-2.392,15.868-2.392s10.284.109,15.867,2.392a7.465,7.465,0,0,1,4.171,3.514,5.053,5.053,0,0,1,0,3.188,7.467,7.467,0,0,1-4.171,3.515c-5.583,2.283-12.772,2.391-15.867,2.391s-10.285-.108-15.868-2.391a7.467,7.467,0,0,1-4.171-3.515A2.806,2.806,0,0,1,53.27,273.454Z"/><path class="c" d="M55.67,273.454c-.157-2.45,4.393-3.472,6.086-3.9a41.72,41.72,0,0,1,8.334-1.127,54.7,54.7,0,0,1,14.5.94c2.039.461,5.815,1.141,6.763,3.36,1.048,2.452-3,3.756-4.622,4.25a47.726,47.726,0,0,1-14.845,1.562,47.231,47.231,0,0,1-8.956-.911c-1.833-.391-7.44-1.421-7.263-4.174a2.4,2.4,0,1,0-4.8,0c-.269,4.191,3.894,6.652,7.3,7.842a40.879,40.879,0,0,0,10.918,1.932c6.129.38,12.612.2,18.535-1.508,3.419-.988,7.57-2.8,8.5-6.646,1.044-4.31-2.264-7.481-5.91-8.982-5.831-2.4-12.513-2.671-18.749-2.513A48.166,48.166,0,0,0,59.7,265.133c-3.84,1.079-9.14,3.511-8.831,8.321a2.456,2.456,0,0,0,2.4,2.4A2.42,2.42,0,0,0,55.67,273.454Z"/><path class="c" d="M50.849,287.087c.493,4.107,4.017,6.111,7.589,7.378a38.1,38.1,0,0,0,9.7,1.76,62.775,62.775,0,0,0,9.53.1,45.125,45.125,0,0,0,9.726-1.44c3.975-1.175,8.342-3.22,8.892-7.8a2.413,2.413,0,0,0-2.4-2.4,2.458,2.458,0,0,0-2.4,2.4c-.142,1.182-2.4,2.09-3.264,2.449A24.121,24.121,0,0,1,83.1,290.97a63.1,63.1,0,0,1-19.063,0,24.393,24.393,0,0,1-5.053-1.407c-.884-.361-3.19-1.28-3.333-2.476a2.475,2.475,0,0,0-2.4-2.4,2.415,2.415,0,0,0-2.4,2.4Z"/><path class="c" d="M50.849,300.37c.461,4.043,3.9,6.047,7.405,7.327a37.123,37.123,0,0,0,9.691,1.816,63.594,63.594,0,0,0,9.914.105,43.972,43.972,0,0,0,9.719-1.487c3.909-1.19,8.191-3.245,8.706-7.762a2.414,2.414,0,0,0-2.4-2.4,2.457,2.457,0,0,0-2.4,2.4c-.133,1.163-2.342,2.077-3.194,2.437a24.039,24.039,0,0,1-4.863,1.406,55.966,55.966,0,0,1-9.859.787,55.841,55.841,0,0,1-9.862-.787,24.169,24.169,0,0,1-4.863-1.406c-.861-.364-3.062-1.278-3.194-2.436a2.473,2.473,0,0,0-2.4-2.4,2.415,2.415,0,0,0-2.4,2.4Z"/><path class="c" d="M50.871,273.864c.044,7.409-.005,14.819-.016,22.228q-.011,6.282-.014,12.564,0,2.055,0,4.111a7.775,7.775,0,0,0,3.365,6.516c4.831,3.576,11.572,4.041,17.356,4.31a58.542,58.542,0,0,0,8.947-.386,31.963,31.963,0,0,0,8.338-1.813c3-1.174,6.293-2.981,7.219-6.331a15.639,15.639,0,0,0,.2-4.115q-.009-5.709,0-11.416c.007-8.556.058-17.113.006-25.668-.018-3.088-4.818-3.094-4.8,0,.042,6.942,0,13.885,0,20.827q0,6.252-.007,12.5,0,2.272,0,4.543c0,1.222.169,2.177-.738,3.14-1.744,1.85-4.951,2.635-7.347,3.118a51.772,51.772,0,0,1-7.8.8A58.162,58.162,0,0,1,67,318.445a26.9,26.9,0,0,1-7.441-1.68c-1.594-.646-3.9-1.673-3.912-3.664q-.008-1.726-.005-3.453,0-5.781.011-11.562c.012-8.073.067-16.148.019-24.222-.018-3.088-4.818-3.094-4.8,0Z"/><path class="c" d="M107.961,305.072c12.035-.054,23.609-5.716,29.132-16.76,5.622-11.246,5-25.834-2.607-36.026a32.335,32.335,0,0,0-18.061-12.075l1.762,2.314a35.527,35.527,0,0,0-16.808-29.658,37.3,37.3,0,0,0-36.946-.366,34.635,34.635,0,0,0-14.013,15.24l2.711-1.1c-7.978-1.31-16.115.548-22.229,5.984a26.019,26.019,0,0,0-8.154,22.393l2.4-2.4a26.5,26.5,0,0,0-16.892,6.807A25.886,25.886,0,0,0,.27,274.982a28.344,28.344,0,0,0,3.223,17.543,24.643,24.643,0,0,0,12.775,10.817c5.7,2.178,11.882,1.73,17.866,1.73,3.088,0,3.093-4.8,0-4.8-4.564,0-9.423.421-13.892-.708a19.965,19.965,0,0,1-11.21-7.3c-5.892-7.965-5.709-20.109.85-27.637a21.318,21.318,0,0,1,15.266-7.216,2.42,2.42,0,0,0,2.4-2.4c-.78-7.007,1.2-13.909,6.486-18.762a21.361,21.361,0,0,1,17.821-4.987,2.468,2.468,0,0,0,2.71-1.1,30.461,30.461,0,0,1,26.458-17.531c10.75-.449,21.306,4.244,27.283,13.365a31.466,31.466,0,0,1,5.081,16.528,2.452,2.452,0,0,0,1.762,2.315,27.548,27.548,0,0,1,20.662,23.485c1.162,10.221-2.461,21.288-11.089,27.138a29.774,29.774,0,0,1-16.761,4.809c-3.088.013-3.094,4.813,0,4.8Z"/><path class="a" d="M326.426,301.693c13.551-3.3,21.979-14.663,21.979-29.846,0-13.911-8.974-25.959-22.618-29.322-.343-17.617-13.88-32.326-33.2-32.326-14.058,0-25.006,7.795-30.094,18.753a25.313,25.313,0,0,0-4.286-.383,22.888,22.888,0,0,0-18.373,8.7,23.364,23.364,0,0,0-4.9,14.433,28.4,28.4,0,0,0,.214,3.316,23.275,23.275,0,0,0-22.743,23.594c0,14.25,9.922,24.063,23.766,24.063h7.963Z"/><path class="c" d="M327.064,304.008a30.726,30.726,0,0,0,22.293-21.476c3.22-11.164,1.073-23.571-6.606-32.421a32.028,32.028,0,0,0-16.326-9.9l1.762,2.314a35.527,35.527,0,0,0-16.808-29.658,37.3,37.3,0,0,0-36.946-.366,34.635,34.635,0,0,0-14.013,15.24l2.711-1.1c-7.978-1.31-16.115.548-22.229,5.984a26.019,26.019,0,0,0-8.154,22.393l2.4-2.4a26.5,26.5,0,0,0-16.892,6.807,25.886,25.886,0,0,0-7.986,15.56,28.344,28.344,0,0,0,3.223,17.543,24.643,24.643,0,0,0,12.775,10.817c5.7,2.178,11.882,1.73,17.866,1.73,3.088,0,3.093-4.8,0-4.8-4.564,0-9.423.421-13.892-.708a19.965,19.965,0,0,1-11.21-7.3c-5.892-7.965-5.709-20.109.85-27.637a21.318,21.318,0,0,1,15.266-7.216,2.42,2.42,0,0,0,2.4-2.4c-.78-7.007,1.2-13.909,6.486-18.762a21.361,21.361,0,0,1,17.821-4.987,2.468,2.468,0,0,0,2.71-1.1,30.461,30.461,0,0,1,26.458-17.531c10.75-.449,21.306,4.244,27.283,13.365a31.466,31.466,0,0,1,5.081,16.528,2.452,2.452,0,0,0,1.762,2.315,27.432,27.432,0,0,1,19.934,19.709c2.366,9.086.42,19.954-5.955,27.03a26.226,26.226,0,0,1-13.34,7.8c-3,.746-1.727,5.376,1.276,4.629Z"/><path class="d" d="M312.677,297.842V287.358h-6.089a22.135,22.135,0,0,0-2.328-5.927l4.216-4.216-7.413-7.414-4.161,4.161a21.038,21.038,0,0,0-5.982-2.287V265.6H280.435v6.153a22.882,22.882,0,0,0-5.936,2.255l-4.207-4.207-7.413,7.414L267,281.338a21.149,21.149,0,0,0-2.287,6.02h-6.038v10.484h6.1a22.838,22.838,0,0,0,2.253,6l-4.148,4.148,7.413,7.414,4.072-4.072a20.729,20.729,0,0,0,6.071,2.253v6.02H290.92v-6.275a23.61,23.61,0,0,0,5.63-2.439l4.513,4.513,7.413-7.414-4.354-4.354a20.367,20.367,0,0,0,2.424-5.789Z"/><path class="a" d="M285.258,284.423a8.128,8.128,0,0,1,6.176,2.1,8.8,8.8,0,0,1,.7,11.374,8.68,8.68,0,0,1-11.9.989,8.321,8.321,0,0,1-.8-11.556A8.883,8.883,0,0,1,285.258,284.423Z"/><path class="c" d="M285.258,286.823c.469-.02.93,0,1.4.021.708.04-.411-.124.276.041.15.036.3.062.449.1.224.055.439.134.66.194.655.177-.332-.2.275.1a7.33,7.33,0,0,1,1.186.708c-.364-.279.224.22.234.23q.208.2.4.415c.085.1.168.194.247.294-.358-.452.023.062.072.139a9.632,9.632,0,0,1,.554,1.018c-.039-.08-.167-.457-.019-.035.087.245.173.49.243.741.088.316.149.635.213.956.124.632-.009-.5.011.142.007.2.027.392.031.589.007.328-.014.653-.031.98-.036.646.117-.493-.014.138-.053.255-.1.509-.166.761a9.293,9.293,0,0,1-.3.918c.208-.546-.029.038-.075.128q-.132.257-.283.5c-.067.109-.142.213-.21.321-.323.518.326-.314-.094.119-.283.291-.595.558-.875.849-.242.251.456-.282-.038.02-.161.1-.313.207-.475.3a9.157,9.157,0,0,1-.836.43c.543-.25-.03,0-.129.035q-.268.093-.543.168a9.4,9.4,0,0,1-1.113.233c.628-.093-.006-.013-.118-.006q-.285.018-.57.018c-.317,0-.63-.027-.946-.047.621.04.015,0-.11-.023q-.277-.054-.552-.124c-.121-.031-.242-.065-.361-.1s-.876-.339-.306-.085a8.037,8.037,0,0,1-.831-.427c-.162-.1-.314-.2-.472-.306-.5-.329.322.337-.105-.091-.235-.236-.484-.453-.7-.7-.064-.072-.428-.589-.115-.13-.147-.216-.294-.429-.425-.655-.067-.115-.49-1-.272-.473a8.286,8.286,0,0,1-.363-1.1c-.043-.167-.192-1.128-.125-.5a9.33,9.33,0,0,1-.054-1.251c0-.161.021-.32.027-.481.03-.277.024-.255-.016.065.02-.126.043-.253.068-.378.078-.381.2-.74.311-1.111.179-.594-.235.411.055-.139.12-.229.233-.46.368-.682.068-.112.142-.218.211-.328q.237-.329-.024.012.125-.154.258-.3a7.976,7.976,0,0,1,.99-.937c-.365.289.246-.161.263-.172q.391-.257.8-.473c-.044.023.642-.308.346-.176q-.216.086.144-.054c.145-.054.291-.1.438-.148q.328-.1.664-.174c.148-.032.3-.06.445-.083q-.4.057.03.015a2.4,2.4,0,1,0,0-4.8c-4.617.335-8.981,3.625-9.932,8.277a10.848,10.848,0,0,0,4.444,11.228,11.261,11.261,0,0,0,11.578.131c3.867-2.277,5.411-6.7,4.757-11a10.343,10.343,0,0,0-3.061-5.921,10.69,10.69,0,0,0-7.786-2.72,2.4,2.4,0,0,0,0,4.8Z"/><path class="c" d="M315.077,296.924c0-2.813.119-5.652,0-8.463-.1-2.47-1.878-3.5-4.126-3.5h-4.363l2.315,1.762a26.1,26.1,0,0,0-2.571-6.5l-.375,2.908,2.6-2.6c.955-.955,1.927-1.85,1.926-3.311,0-1.374-.888-2.269-1.8-3.178l-2.578-2.577c-1.314-1.314-2.9-3.592-4.911-3.67-1.441-.055-2.342.822-3.288,1.768l-2.71,2.709,2.909-.375a24.706,24.706,0,0,0-6.555-2.53l1.762,2.315c0-1.618.051-3.243,0-4.859a3.481,3.481,0,0,0-2.39-3.483,7.5,7.5,0,0,0-2.012-.133H282.9c-.51,0-1.03-.032-1.539,0a3.427,3.427,0,0,0-3.323,3.355c-.1,1.721,0,3.473,0,5.2l1.762-2.314a27.016,27.016,0,0,0-6.51,2.5l2.909.376-2.593-2.593c-.954-.954-1.85-1.928-3.31-1.928-2.088,0-3.7,2.315-5.051,3.668l-2.435,2.435c-.914.913-1.884,1.8-1.938,3.18-.057,1.44.813,2.339,1.758,3.285l2.678,2.677-.376-2.909a24.856,24.856,0,0,0-2.529,6.594l2.315-1.762c-1.606,0-3.22-.051-4.824,0a3.479,3.479,0,0,0-3.481,2.39,7.528,7.528,0,0,0-.133,2.011v6.022c0,.51-.031,1.03,0,1.538a3.426,3.426,0,0,0,3.355,3.323c1.7.1,3.436,0,5.142,0l-2.314-1.762a26.737,26.737,0,0,0,2.5,6.568l.375-2.908-2.559,2.558c-.906.907-1.852,1.776-1.905,3.148-.083,2.134,2.167,3.688,3.532,5.053l2.429,2.429c.886.885,1.7,1.847,3,2.038a3.868,3.868,0,0,0,3.365-1.478l2.864-2.864-2.908.375a24.327,24.327,0,0,0,6.644,2.5l-1.762-2.315c0,1.62-.06,3.251,0,4.869a3.43,3.43,0,0,0,2.535,3.442,8.027,8.027,0,0,0,1.953.109h6.031c.479,0,.969.03,1.447,0a3.426,3.426,0,0,0,3.319-3.409c.086-1.747,0-3.517,0-5.266l-1.762,2.314a27.843,27.843,0,0,0,6.2-2.681l-2.908-.375,2.529,2.53a6.9,6.9,0,0,0,2.9,2.211c2.644.671,4.77-2.525,6.394-4.149,1.382-1.382,3.809-3.052,3.808-5.19,0-1.444-.962-2.344-1.909-3.291l-2.76-2.76.376,2.909a24.153,24.153,0,0,0,2.666-6.363l-2.315,1.762c2.61,0,7.862.941,8.446-2.68a2.474,2.474,0,0,0-1.677-2.952,2.418,2.418,0,0,0-2.952,1.676c.337-2.09,2.016-.707,1.172-.844a3.873,3.873,0,0,0-.59,0h-4.4a2.444,2.444,0,0,0-2.314,1.762,19.48,19.48,0,0,1-2.182,5.216,2.443,2.443,0,0,0,.375,2.908q.863.864,1.726,1.726c.37.37,1.237,1.6,1.725,1.725q.7-2.406-.079-1.509l-.189.189-.643.643-1.679,1.679-1.72,1.72-.859.859-.419.419q2.226.588,1.447-.1a12.639,12.639,0,0,0-1.68-1.68l-1.808-1.808a2.45,2.45,0,0,0-2.909-.375,22.4,22.4,0,0,1-5.056,2.2,2.453,2.453,0,0,0-1.762,2.315,33.033,33.033,0,0,0,0,5.14c.157.959,2.187-1.108,1.336-1.265a4.947,4.947,0,0,0-.852,0h-6.3a6.6,6.6,0,0,0-1.033,0c-1.129.189,1.436,1,1.163,1.421.111-.171,0-.764,0-.98V313.58a2.432,2.432,0,0,0-1.762-2.314,19.823,19.823,0,0,1-5.5-2.012,2.46,2.46,0,0,0-2.909.375l-1.944,1.944-.771.772c-1.166,1.166,1.213.21,1.115.434.1-.236-2.969-2.969-3.275-3.275l-1.4-1.4-.643-.643c-.431-.431-.384-.707-.318.479.072,1.267.084.807.593.3l.88-.88,1.822-1.822a2.46,2.46,0,0,0,.375-2.908,21.866,21.866,0,0,1-2.011-5.422,2.433,2.433,0,0,0-2.314-1.762,30.945,30.945,0,0,0-4.956,0c-.967.165,1.107,2.184,1.259,1.336a5.038,5.038,0,0,0,0-.851v-6.391a7.575,7.575,0,0,0,0-.988c-.143-1.053-1.714,1.136-1.383,1.21a13.614,13.614,0,0,0,2.708,0h2.313A2.434,2.434,0,0,0,267.029,288a20.2,20.2,0,0,1,2.045-5.447,2.457,2.457,0,0,0-.375-2.908l-1.8-1.8-.874-.874c-.472-.472-.551-.994-.534.241.017,1.274.176.619.713.082l.72-.72,1.715-1.715,1.421-1.421a6.316,6.316,0,0,0,1.126-1.126q-2.37-.488-1.542.239l.421.421.9.9,1.841,1.84a2.459,2.459,0,0,0,2.908.375,22,22,0,0,1,5.363-2.013,2.434,2.434,0,0,0,1.762-2.314v-2.129a17.879,17.879,0,0,0,0-2.881c-.167-.969-2.182,1.105-1.336,1.257a5.05,5.05,0,0,0,.852,0h6.39a7.59,7.59,0,0,0,.989,0c1.052-.143-1.135-1.721-1.21-1.383a13.59,13.59,0,0,0,0,2.728v2.33a2.435,2.435,0,0,0,1.762,2.314,20.02,20.02,0,0,1,5.408,2.046,2.457,2.457,0,0,0,2.909-.376l1.824-1.824.885-.885c.51-.51.975-.525-.294-.6-1.214-.07-.865-.071-.376.418l.542.542,1.539,1.539,1.57,1.57c.334.334,1.139,1.482,1.568,1.568q.568-2.216-.123-1.428l-.421.422-.9.9-1.853,1.853a2.453,2.453,0,0,0-.375,2.908A21.226,21.226,0,0,1,304.274,288a2.437,2.437,0,0,0,2.314,1.762h3.758c.24,0,1.218.157,1.4,0-.466.406-1.153-2.224-1.467-1.257a2.671,2.671,0,0,0,0,.692v7.731C310.277,300.013,315.077,300.018,315.077,296.924Z"/><path class="a" d="M239.834,29.479a23.369,23.369,0,0,0-4.9,14.434,28.419,28.419,0,0,0,.214,3.316,23.275,23.275,0,0,0-22.743,23.594c0,14.249,9.922,24.062,23.766,24.062h81.79c18.418,0,30.444-12.688,30.444-30.824,0-13.912-8.974-25.959-22.618-29.322-.343-17.617-13.88-32.326-33.2-32.326-14.058,0-25.006,7.8-30.094,18.753a25.21,25.21,0,0,0-4.286-.383A22.887,22.887,0,0,0,239.834,29.479Z"/><path class="c" d="M307.909,97.285c6.433,0,13.047.462,19.34-1.109a30.312,30.312,0,0,0,16.19-10.063c8.838-10.907,9.866-27.617,2.458-39.545a32.191,32.191,0,0,0-19.472-14.143l1.762,2.314A35.527,35.527,0,0,0,311.379,5.081a37.3,37.3,0,0,0-36.946-.367,34.646,34.646,0,0,0-14.013,15.24l2.711-1.1c-7.978-1.311-16.115.548-22.229,5.984a26.019,26.019,0,0,0-8.154,22.393l2.4-2.4A26.084,26.084,0,0,0,215.5,54.67a27.363,27.363,0,0,0-5.063,21.259A25.2,25.2,0,0,0,221.356,93.1a27.621,27.621,0,0,0,15.234,4.184q8.805.008,17.609,0c3.089,0,3.094-4.8,0-4.8H237.5a26.359,26.359,0,0,1-10.383-1.728c-11.537-4.84-15.606-19.979-9.506-30.662a21.084,21.084,0,0,1,17.542-10.466,2.421,2.421,0,0,0,2.4-2.4c-.78-7.008,1.2-13.91,6.486-18.762a21.358,21.358,0,0,1,17.821-4.987,2.47,2.47,0,0,0,2.71-1.1A30.462,30.462,0,0,1,291.023,4.845c10.75-.448,21.306,4.245,27.283,13.366a31.466,31.466,0,0,1,5.081,16.528,2.45,2.45,0,0,0,1.762,2.314,27.214,27.214,0,0,1,15.488,10.273,29.027,29.027,0,0,1,5.345,18.119,29.864,29.864,0,0,1-5.333,16.475,25.185,25.185,0,0,1-13,9.158c-6.363,1.969-13.163,1.407-19.742,1.407-3.088,0-3.093,4.8,0,4.8Z"/><path class="c" d="M291.558,73.378v35.654c0,3.6,5.6,3.609,5.6,0v-1.179c0-3.6-5.6-3.609-5.6,0v1.179c0,3.6,5.6,3.609,5.6,0V73.378c0-3.6-5.6-3.609-5.6,0Z"/><path class="c" d="M287.947,84.464l8.114-9.67H292.1l8.114,9.67a2.812,2.812,0,0,0,3.96,0,2.875,2.875,0,0,0,0-3.96l-8.114-9.67a2.81,2.81,0,0,0-3.96,0l-8.113,9.67a2.8,2.8,0,1,0,3.959,3.96Z"/><path class="c" d="M276.151,108.468V72.814c0-3.6-5.6-3.609-5.6,0v1.179c0,3.6,5.6,3.609,5.6,0V72.814c0-3.6-5.6-3.609-5.6,0v35.654c0,3.6,5.6,3.609,5.6,0Z"/><path class="c" d="M263.534,101.342l8.114,9.67a2.809,2.809,0,0,0,3.96,0l8.113-9.67a2.8,2.8,0,0,0-3.96-3.96l-8.113,9.67h3.96l-8.114-9.669a2.811,2.811,0,0,0-3.96,0,2.874,2.874,0,0,0,0,3.959Z"/><path class="a" d="M29.834,29.479a23.369,23.369,0,0,0-4.9,14.434,28.419,28.419,0,0,0,.214,3.316A23.275,23.275,0,0,0,2.4,70.823c0,14.249,9.922,24.062,23.766,24.062h81.79c18.418,0,30.444-12.688,30.444-30.824,0-13.912-8.974-25.959-22.618-29.322-.343-17.617-13.88-32.326-33.2-32.326-14.058,0-25.006,7.8-30.094,18.753a25.21,25.21,0,0,0-4.286-.383A22.887,22.887,0,0,0,29.834,29.479Z"/><path class="c" d="M27.761,28.268a26.236,26.236,0,0,0-5.013,18.961l2.4-2.4A25.957,25.957,0,0,0,2.863,58.792a28.112,28.112,0,0,0,.859,26.343c4.559,7.7,12.946,11.927,21.76,12.142,3.278.08,6.566.008,9.844.008H102.2c4.629,0,9.239.127,13.8-.822a30.546,30.546,0,0,0,20.1-14.1,36.112,36.112,0,0,0,3.788-26.211,32.133,32.133,0,0,0-16.62-21.189,33.791,33.791,0,0,0-6.832-2.538l1.762,2.314A35.527,35.527,0,0,0,101.379,5.081a37.3,37.3,0,0,0-36.946-.367A34.646,34.646,0,0,0,50.42,19.954l2.711-1.1c-9.325-1.532-19,1.387-24.994,8.93a2.475,2.475,0,0,0,0,3.394,2.416,2.416,0,0,0,3.394,0,21.3,21.3,0,0,1,20.324-7.7,2.47,2.47,0,0,0,2.71-1.1A30.462,30.462,0,0,1,81.023,4.845c10.75-.448,21.306,4.245,27.283,13.366a31.466,31.466,0,0,1,5.081,16.528,2.45,2.45,0,0,0,1.762,2.314A27.459,27.459,0,0,1,133.64,52.541a31.228,31.228,0,0,1,.061,23.921,25.27,25.27,0,0,1-15.01,14.275A35.476,35.476,0,0,1,106.8,92.485H27.349c-5.315,0-10.556-1.059-14.78-4.387C6.537,83.346,3.921,75.187,5.012,67.666A20.963,20.963,0,0,1,18.933,50.76a23.034,23.034,0,0,1,6.215-1.131,2.421,2.421,0,0,0,2.4-2.4,22.323,22.323,0,0,1,4.358-16.538,2.414,2.414,0,0,0-.861-3.284A2.461,2.461,0,0,0,27.761,28.268Z"/></svg>