<svg xmlns="http://www.w3.org/2000/svg" width="155.524" height="285.912" viewBox="0 0 155.524 285.912" style="color: initial !important;"><defs><style>.a{fill:#ffffff;}.b{fill:#ffda71;}.c{fill:#211715;}</style></defs><path class="a" d="M113.323,219.024c1.5,0,3.407-.491,3.691-2.095,2.494-14.085,10.943-25.59,18.994-37.048a146.949,146.949,0,0,0,11.559-18.444,74.526,74.526,0,0,0,6.968-21.655,77.738,77.738,0,0,0-6.04-44.823A73.66,73.66,0,0,0,121.447,64.5a81.693,81.693,0,0,0-38.64-12.758,80.733,80.733,0,0,0-40.13,7.97A76.738,76.738,0,0,0,12.083,86.023,74.741,74.741,0,0,0,.012,128.509,77.336,77.336,0,0,0,3.72,151a87.244,87.244,0,0,0,9.893,20.125c7.541,11.732,17.181,22.621,22.172,35.776a55.608,55.608,0,0,1,2.769,10.03c.282,1.6,2.179,2.095,3.69,2.095Z"/><path class="b" d="M95.054,204.388,94.948,186.2c5-5,7.337-9.74,8.836-17.31s-.334-15.527-6.335-20.379c-6.694-5.411-19.838-7.39-26.575-1.289a12.071,12.071,0,0,0-3.417,12.324,10.091,10.091,0,0,0,4.63,5.97,12.118,12.118,0,0,0,12.611-.392,12.724,12.724,0,0,0,4.189-5.157,9.326,9.326,0,0,0,.379-6.846c-3.978-11.274-18.1-11.371-27.079-6.65A20.185,20.185,0,0,0,52.429,157.4a23.551,23.551,0,0,0,.416,15.62,32.359,32.359,0,0,0,7.186,11.787v8.213A11.369,11.369,0,0,0,71.4,204.388Z"/><path class="c" d="M62.152,182.685c-4.656-5.336-8.207-12-7.835-19.46a15.983,15.983,0,0,1,3.689-9.633,18.542,18.542,0,0,1,3.871-3.452,22.4,22.4,0,0,1,2.073-1.2c.293-.15.591-.29.889-.43.066-.031.606-.27.3-.137-.262.113.258-.1.306-.122a27.543,27.543,0,0,1,4.062-1.229q.505-.111,1.016-.2c.142-.025,1.035-.161.521-.093.684-.091,1.374-.145,2.062-.175s1.37-.03,2.054,0c.339.015.678.039,1.016.07.144.013.288.029.433.044.909.094-.314-.059.2.031.657.115,1.307.248,1.949.426q.477.132.945.289c.153.053,1.085.421.588.205a14.067,14.067,0,0,1,1.726.9c.237.145.467.3.7.456.475.318.167.11.063.029.148.114.29.235.431.357a14.252,14.252,0,0,1,1.4,1.406c.05.057.352.438.072.072.089.116.176.236.256.358.222.332.44.664.638,1.01a7.1,7.1,0,0,1,1.162,4.371,8.358,8.358,0,0,1-1.855,4.306,8.853,8.853,0,0,1-9.289,2.887,7.487,7.487,0,0,1-5.566-6.558,9.191,9.191,0,0,1,3.451-8.27c-.309.244.435-.295.53-.356q.462-.3.945-.557c.2-.11.794-.4.783-.393.038-.016.731-.271.987-.354a15.6,15.6,0,0,1,4.057-.772,22.657,22.657,0,0,1,9.3,1.359,17.649,17.649,0,0,1,7.191,4.59c4.7,5.166,4.595,12.438,2.889,18.888a26.709,26.709,0,0,1-4.149,9.1c-.929,1.3-2.338,2.58-3.086,4.163a10.133,10.133,0,0,0-.965,4.3c-.036,3.838,0,7.678,0,11.516v1.118c0,3.86,6,3.867,6,0V189.554a5.454,5.454,0,0,1,.179-1.923,6.234,6.234,0,0,1,1.26-1.834c.736-.888,1.444-1.806,2.1-2.758a33.574,33.574,0,0,0,4.745-11.276c2.023-8.522,1.09-17.985-5.513-24.358-5.4-5.215-13.893-7.643-21.279-6.779A18.787,18.787,0,0,0,68.752,145.1a14.943,14.943,0,0,0-4.707,12.31,13.533,13.533,0,0,0,7.282,11.1,15.37,15.37,0,0,0,14.331-.463A14.431,14.431,0,0,0,92.742,155.7a15.3,15.3,0,0,0-5.084-10.4C82.4,140.55,74.9,139.786,68.2,141.171c-7.93,1.638-15.113,6.754-18.245,14.356-3.539,8.594-1.122,18.98,4.011,26.433a55.626,55.626,0,0,0,3.947,4.968,3.029,3.029,0,0,0,4.243,0,3.06,3.06,0,0,0,0-4.243Z"/><path class="c" d="M44.339,215.334c-2.461-13.9-10.489-25.556-18.459-36.863A183.6,183.6,0,0,1,14.327,160.6a69.2,69.2,0,0,1-7.12-20.179,70.793,70.793,0,0,1,4.7-41.684A67.831,67.831,0,0,1,36.839,69.877,75.639,75.639,0,0,1,72.946,57.724a74.515,74.515,0,0,1,37.416,7.406,70.649,70.649,0,0,1,28.549,24.848,69.4,69.4,0,0,1,10.6,40.181,71.332,71.332,0,0,1-4.043,21,87.154,87.154,0,0,1-9.9,18.787c-7.659,11.579-16.7,22.4-21.638,35.537a55.542,55.542,0,0,0-2.7,9.85,3.086,3.086,0,0,0,2.095,3.69,3.026,3.026,0,0,0,3.691-2.095c2.494-14.085,10.943-25.59,18.994-37.048a146.949,146.949,0,0,0,11.559-18.444,74.526,74.526,0,0,0,6.968-21.655,77.738,77.738,0,0,0-6.04-44.823A73.66,73.66,0,0,0,121.447,64.5a81.693,81.693,0,0,0-38.64-12.758,80.733,80.733,0,0,0-40.13,7.97A76.738,76.738,0,0,0,12.083,86.023,74.741,74.741,0,0,0,.012,128.509,77.336,77.336,0,0,0,3.72,151a87.244,87.244,0,0,0,9.893,20.125c7.541,11.732,17.181,22.621,22.172,35.776a55.608,55.608,0,0,1,2.769,10.03,3.026,3.026,0,0,0,3.69,2.095,3.066,3.066,0,0,0,2.095-3.69Z"/><path class="a" d="M48.607,269a37.008,37.008,0,0,1-5.757-20.185V236.877a3.422,3.422,0,0,1,3.416-3.424h63.026a3.426,3.426,0,0,1,3.426,3.426v11.935c-.146,20.642-13.9,34.084-34.934,34.084C65.111,282.9,54.678,278.278,48.607,269Z"/><path class="c" d="M51.2,267.485a33.228,33.228,0,0,1-5.14-14.718c-.335-3.368-.208-6.787-.208-10.167v-4.267c0-.685.013-1.316.029-1.618,0,.006-.255.7.081-.139-.072.181.1-.065.143-.087.023-.013.391-.024.164-.036h.046a2.882,2.882,0,0,1,.322,0c1.149.073,2.328,0,3.479,0h57.313c.468,0,.939.017,1.406,0a3.25,3.25,0,0,0,.468-.008.457.457,0,0,1,.352.187s.053.457.065.247c-.014.248,0,.5,0,.75v3.982c0,2.4.015,4.8,0,7.2a35.18,35.18,0,0,1-2.106,12.314,18.557,18.557,0,0,1-.977,2.346q-.638,1.332-1.4,2.6c-.5.833-1.042,1.64-1.617,2.423-.35.477-.137.186-.057.084-.178.228-.361.452-.546.673q-.462.555-.95,1.085c-5.346,5.809-12.966,8.848-20.789,9.432a41.552,41.552,0,0,1-14.658-1.339,28.208,28.208,0,0,1-11.248-6.082,25.243,25.243,0,0,1-4.173-4.864,3.07,3.07,0,0,0-4.1-1.076,3.03,3.03,0,0,0-1.076,4.1c6.083,9.179,15.932,13.992,26.7,15.125,9.522,1,19.836-.679,27.852-6.153A34.562,34.562,0,0,0,114.817,257.6c1.311-6.543.9-13.332.9-19.967a7.265,7.265,0,0,0-1.577-4.945,6.577,6.577,0,0,0-4.932-2.231c-1.009-.031-2.024,0-3.033,0H47.247c-2.481,0-4.788.659-6.291,2.84a7.573,7.573,0,0,0-1.106,4.563v10.263a43.14,43.14,0,0,0,2.394,14.716,38.135,38.135,0,0,0,3.773,7.678,3.065,3.065,0,0,0,4.1,1.077A3.032,3.032,0,0,0,51.2,267.485Z"/><path class="c" d="M44.562,257.271h67.585c3.861,0,3.867-6,0-6H44.562c-3.861,0-3.868,6,0,6Z"/><path class="c" d="M23.755,17.113Q28,28.359,32.363,39.559a3.089,3.089,0,0,0,3.69,2.1,3.022,3.022,0,0,0,2.1-3.69q-4.367-11.2-8.609-22.447a3.084,3.084,0,0,0-3.69-2.095,3.024,3.024,0,0,0-2.1,3.691Z"/><path class="c" d="M126.028,15.517q-4.242,11.247-8.608,22.447a3.021,3.021,0,0,0,2.095,3.69,3.069,3.069,0,0,0,3.69-2.1q4.367-11.2,8.609-22.446a3.025,3.025,0,0,0-2.1-3.691,3.066,3.066,0,0,0-3.69,2.095Z"/><path class="c" d="M80.784,27.016V2.9c0-3.861-6-3.867-6,0V27.016c0,3.861,6,3.867,6,0Z"/></svg>