<svg id="b" xmlns="http://www.w3.org/2000/svg" width="334.844" height="351.54" viewBox="0 0 334.844 351.54" style="color: initial !important;"><defs><style>.f{fill:#ffffff;}.g{fill:#211715;}.h{fill:#ffda71;}.i{fill:#3d8dcc;}.j{fill:#f2635f;}</style></defs><g id="c"><path class="f" d="M332.434,272.029c0-32.371-24.651-59.629-60.002-59.629s-59.998,27.477-59.998,59.629c0,33.171,21.305,56.801,52.025,60.286,2.482,5.267,5.189,11.016,7.975,16.837,2.782-5.811,5.484-11.551,7.962-16.81,31.758-3.404,52.038-27.258,52.038-60.313Z"/><path class="g" d="M334.434,272.029c-.049-18.396-8.051-36.45-22.483-48.053-15.325-12.321-36.14-16.333-55.163-11.743-17.979,4.338-33.283,16.945-40.825,33.854-7.721,17.311-7.311,38.088.758,55.219,7.728,16.406,22.949,27.996,40.587,31.846,2.361.516,4.75.884,7.151,1.163l-1.727-.991c2.647,5.618,5.295,11.235,7.975,16.837.625,1.307,2.828,1.307,3.454,0,2.676-5.593,5.32-11.201,7.962-16.81l-1.727.991c11.916-1.307,23.32-5.489,32.662-13.11,8.882-7.246,15.146-17.29,18.428-28.224,2.037-6.786,2.933-13.903,2.948-20.979.006-2.574-3.994-2.578-4,0-.029,13.129-3.395,26.252-11.209,36.951-7.36,10.077-18.342,16.873-30.378,19.858-1.841.457-3.702.83-5.576,1.126-.956.151-1.914.261-2.875.379-1.613.198-1.981,1.53-2.594,2.83-2.354,4.996-4.712,9.989-7.096,14.971h3.454c-1.547-3.232-3.083-6.469-4.614-9.709-.669-1.416-1.337-2.832-2.004-4.248-.72-1.527-1.164-3.627-3.084-3.871-4.578-.581-9.079-1.567-13.436-3.103-8.236-2.902-15.724-7.766-21.656-14.18-12.455-13.468-17.222-33.415-14.059-51.305,3.154-17.841,14.484-33.439,30.808-41.444,17.259-8.463,39.014-7.853,55.736,1.625,15.687,8.891,26.196,25.244,28.194,43.13.259,2.322.382,4.655.388,6.991.007,2.573,4.007,2.578,4,0Z"/><path class="h" d="M267.609,242.969c-2.503,3.78-5.481,8.304-7.64,11.647-.898,1.39-2.34,2.321-3.976,2.569-2.759.417-6.34.972-9.665,1.487-4.307.667-6.35,5.685-3.73,9.169,2.397,3.188,5.067,6.696,7.207,9.375,1.11,1.389,1.517,3.2,1.107,4.93-.585,2.467-1.369,5.992-2.12,9.431-1.011,4.632,3.686,8.438,8.009,6.491,4.788-2.157,10.033-4.523,13.238-5.964,1.509-.679,3.235-.678,4.742.004,3.115,1.408,8.383,3.777,13.222,5.95,4.314,1.938,8.999-1.852,8.006-6.476-.742-3.458-1.507-6.977-2.09-9.46-.402-1.714,0-3.514,1.096-4.892,2.068-2.599,4.812-6.196,7.248-9.424,2.635-3.491.578-8.527-3.747-9.181-3.299-.499-6.735-1.011-9.655-1.442-1.643-.243-3.094-1.176-3.996-2.572-2.159-3.342-5.135-7.864-7.637-11.642-2.282-3.446-7.338-3.446-9.62,0Z"/><path class="g" d="M265.882,241.96c-2.177,3.288-4.348,6.58-6.498,9.886-.858,1.319-1.57,2.766-3.183,3.249-1.839.551-3.919.647-5.814.939-3.529.545-7.178.661-9.463,3.791-1.792,2.455-1.972,5.873-.412,8.493.984,1.653,2.341,3.164,3.508,4.692,1.243,1.627,2.493,3.249,3.763,4.856,1.149,1.453,1.459,2.64,1.036,4.448-.461,1.971-.902,3.947-1.339,5.923-.407,1.844-.996,3.716-.742,5.619.217,1.629.948,3.136,2.083,4.328,2.374,2.492,5.916,2.949,8.99,1.612,3.603-1.568,7.168-3.231,10.75-4.844,1.411-.636,2.915-1.594,4.524-1.298,1.492.275,2.99,1.222,4.364,1.84,1.854.835,3.708,1.669,5.562,2.502,1.755.789,3.567,1.853,5.436,2.333,3.206.824,6.58-.553,8.418-3.271,2.227-3.294.841-7.123.067-10.657-.383-1.749-1.105-3.68-1.163-5.472-.056-1.735,1.206-2.964,2.199-4.239,1.213-1.557,2.415-3.122,3.612-4.692,1.102-1.447,2.449-2.875,3.185-4.551,1.257-2.866.641-6.251-1.518-8.517-2.593-2.723-6.861-2.635-10.326-3.151-1.66-.247-3.893-.199-5.322-1.177-1.352-.926-2.163-2.789-3.041-4.133-1.073-1.643-2.151-3.283-3.231-4.922-1.041-1.58-1.992-3.373-3.288-4.761-2.159-2.311-5.676-3.001-8.573-1.803-1.508.623-2.65,1.652-3.582,2.978-1.483,2.111,1.984,4.112,3.454,2.019,1.221-1.738,3.738-2.114,5.416-.804,1.186.927,1.941,2.601,2.756,3.838,1.007,1.527,2.012,3.055,3.014,4.586,1.862,2.846,3.419,6.181,6.886,7.295,1.69.543,3.622.617,5.374.879,1.876.28,3.834.432,5.679.875,2.039.489,3.331,2.474,2.875,4.539-.311,1.411-1.551,2.606-2.398,3.722-1.092,1.438-2.187,2.874-3.294,4.302-1.039,1.339-2.353,2.668-3.085,4.206-.793,1.669-.94,3.438-.569,5.237.347,1.684.765,3.356,1.132,5.035.363,1.658,1.075,3.547,1.02,5.25-.071,2.179-2.132,3.94-4.308,3.605-1.64-.253-3.305-1.328-4.805-2.003-1.67-.751-3.34-1.502-5.009-2.253-3.025-1.362-6.106-3.306-9.545-2.445-1.473.369-2.899,1.188-4.28,1.81-1.601.721-3.202,1.443-4.803,2.164-1.728.779-3.444,1.599-5.189,2.339-1.094.463-2.216.611-3.328.101-.958-.44-1.701-1.273-2.039-2.266-.491-1.443.137-3.042.45-4.459.412-1.868.829-3.735,1.26-5.599.398-1.718.721-3.355.264-5.104s-1.614-3.045-2.702-4.43c-1.121-1.428-2.226-2.869-3.325-4.314-1.506-1.98-4.166-4.335-3.091-7.083,1.065-2.724,4.413-2.593,6.845-2.969,3.371-.521,7.408-.472,10.008-2.985,1.168-1.129,1.967-2.682,2.848-4.033.985-1.51,1.974-3.018,2.966-4.524s1.984-3.009,2.978-4.511c1.425-2.153-2.038-4.158-3.454-2.019Z"/><path class="f" d="M122.54,272.029c0-32.371-24.651-59.629-60.002-59.629S2.54,239.877,2.54,272.029c0,33.171,21.305,56.801,52.025,60.286,2.482,5.267,5.189,11.016,7.975,16.837,2.782-5.811,5.484-11.551,7.962-16.81,31.758-3.404,52.038-27.258,52.038-60.313Z"/><path class="g" d="M124.54,272.029c-.049-18.396-8.051-36.45-22.483-48.053-15.325-12.321-36.14-16.333-55.163-11.743-17.979,4.338-33.283,16.945-40.825,33.854-7.721,17.311-7.311,38.088.758,55.219,7.728,16.406,22.949,27.996,40.587,31.846,2.361.516,4.75.884,7.151,1.163l-1.727-.991c2.647,5.618,5.295,11.235,7.975,16.837.625,1.307,2.828,1.307,3.454,0,2.676-5.593,5.32-11.201,7.962-16.81l-1.727.991c11.916-1.307,23.32-5.489,32.662-13.11,8.882-7.246,15.146-17.29,18.428-28.224,2.037-6.786,2.933-13.903,2.948-20.979.006-2.574-3.994-2.578-4,0-.029,13.129-3.395,26.252-11.209,36.951-7.36,10.077-18.342,16.873-30.378,19.858-1.841.457-3.702.83-5.576,1.126-.956.151-1.914.261-2.875.379-1.613.198-1.981,1.53-2.594,2.83-2.354,4.996-4.712,9.989-7.096,14.971h3.454c-1.547-3.232-3.083-6.469-4.614-9.709-.669-1.416-1.337-2.832-2.004-4.248-.72-1.527-1.164-3.627-3.084-3.871-4.578-.581-9.079-1.567-13.436-3.103-8.236-2.902-15.724-7.766-21.656-14.18-12.455-13.468-17.222-33.415-14.059-51.305s14.484-33.439,30.808-41.444c17.259-8.463,39.014-7.853,55.736,1.625,15.687,8.891,26.196,25.244,28.194,43.13.259,2.322.382,4.655.388,6.991.007,2.573,4.007,2.578,4,0Z"/><path class="j" d="M62.54,258.249c-2.505-3.684-6.61-6.313-11.555-7.663-2.954-.807-7.759-.644-10.196.403-4.316,1.855-7.714,5.313-8.994,10.244-1.138,4.384-1.029,10.204.593,15.004s3.815,8.29,7.033,11.9c5.435,6.097,12.139,9.792,19.405,12.171,2.396.785,4.99.785,7.386.001,7.276-2.379,14.012-6.073,19.447-12.172,3.218-3.61,5.412-7.1,7.033-11.9,1.621-4.799,1.731-10.62.593-15.004-1.28-4.931-4.679-8.389-8.994-10.244-2.436-1.047-7.242-1.21-10.196-.403-4.945,1.351-9.05,3.979-11.555,7.663Z"/><path class="g" d="M64.267,257.24c-3.731-5.353-10.179-8.841-16.697-9.14-3.008-.138-6.037.247-8.745,1.607-2.738,1.376-5.101,3.472-6.782,6.034-3.712,5.658-3.707,13.738-1.891,20.042,1.927,6.69,6.08,12.618,11.293,17.174,2.569,2.245,5.404,4.184,8.427,5.766,3.001,1.57,6.373,3.166,9.706,3.856,3.8.786,7.251-.235,10.754-1.645,3.209-1.292,6.309-2.839,9.171-4.789,11.333-7.725,19.724-22.014,15.556-35.989-1.708-5.727-6.749-10.819-12.783-11.768-6.602-1.038-13.335.905-18.373,5.327-1.182,1.038-2.192,2.238-3.09,3.527-1.475,2.117,1.991,4.118,3.454,2.019,3.058-4.387,8.693-7.117,13.991-7.181,2.469-.03,4.748.33,6.899,1.581,2.188,1.273,3.966,3.078,5.145,5.323,2.649,5.044,2.141,11.919.321,17.132-1.983,5.68-5.719,10.557-10.291,14.419-4.347,3.672-9.955,6.727-15.505,8.091-3.101.762-6.013-.336-8.867-1.475-2.814-1.123-5.524-2.55-8.043-4.234-9.781-6.543-17.053-18.355-14.367-30.426,1.221-5.486,5.666-9.943,11.397-10.355,5.956-.429,12.383,2.13,15.865,7.126,1.462,2.097,4.931.1,3.454-2.019Z"/><path class="f" d="M332.434,62.029c0-32.371-24.651-59.629-60.002-59.629s-59.998,27.477-59.998,59.629c0,33.171,21.305,56.801,52.025,60.286,2.482,5.267,5.189,11.016,7.975,16.837,2.782-5.811,5.484-11.551,7.962-16.81,31.758-3.404,52.038-27.258,52.038-60.313Z"/><path class="g" d="M334.434,62.029c-.049-18.396-8.051-36.45-22.483-48.053-15.325-12.321-36.14-16.333-55.163-11.743-17.979,4.338-33.283,16.945-40.825,33.854-7.721,17.311-7.311,38.088.758,55.219,7.728,16.406,22.949,27.996,40.587,31.846,2.361.516,4.75.884,7.151,1.163l-1.727-.991c2.647,5.618,5.295,11.235,7.975,16.837.625,1.307,2.828,1.307,3.454,0,2.676-5.593,5.32-11.201,7.962-16.81l-1.727.991c11.916-1.307,23.32-5.489,32.662-13.11,8.882-7.246,15.146-17.29,18.428-28.224,2.037-6.786,2.933-13.903,2.948-20.979.006-2.574-3.994-2.578-4,0-.029,13.129-3.395,26.252-11.209,36.951-7.36,10.077-18.342,16.873-30.378,19.858-1.841.457-3.702.83-5.576,1.126-.956.151-1.914.261-2.875.379-1.613.198-1.981,1.53-2.594,2.83-2.354,4.996-4.712,9.989-7.096,14.971h3.454c-1.547-3.232-3.083-6.469-4.614-9.709-.669-1.416-1.337-2.832-2.004-4.248-.72-1.527-1.164-3.627-3.084-3.871-4.578-.581-9.079-1.567-13.436-3.103-8.236-2.902-15.724-7.766-21.656-14.18-12.455-13.468-17.222-33.415-14.059-51.305,3.154-17.841,14.484-33.439,30.808-41.444,17.259-8.463,39.014-7.853,55.736,1.625,15.687,8.891,26.196,25.244,28.194,43.13.259,2.322.382,4.655.388,6.991.007,2.573,4.007,2.578,4,0Z"/><g id="d"><path class="j" d="M282.449,64.35c-.517-.517-1.034-1.034-1.551-1.551,3.56-3.56,7.119-7.119,10.679-10.679,4.007-4.007,3.624-3.624,7.632-7.632,2.217-2.217,2.382-6.278,0-8.464-2.389-2.193-6.099-2.366-8.464,0-7.05,7.05-9.71,9.71-16.76,16.76l-1.551,1.551c-3.64-3.64-7.281-7.281-10.921-10.921-3.927-3.927-3.463-3.463-7.39-7.39-2.217-2.217-6.278-2.382-8.464,0-2.193,2.389-2.366,6.099,0,8.464,6.939,6.939,9.487,9.487,16.426,16.426.628.628,1.257,1.257,1.885,1.885-3.64,3.64-7.281,7.281-10.921,10.921-3.927,3.927-3.463,3.463-7.39,7.39-2.217,2.217-2.382,6.278,0,8.464,2.389,2.193,6.099,2.366,8.464,0,6.939-6.939,9.487-9.487,16.426-16.426.628-.628,1.257-1.257,1.885-1.885,3.56,3.56,7.119,7.119,10.679,10.679,4.007,4.007,3.624,3.624,7.632,7.632,2.217,2.217,6.278,2.382,8.464,0,2.193-2.389,2.366-6.099,0-8.464-7.05-7.05-9.71-9.71-16.76-16.76Z"/><path class="g" d="M283.863,62.936c-.517-.517-1.034-1.034-1.551-1.551v2.828c4.281-4.281,8.562-8.562,12.844-12.844,1.101-1.101,2.202-2.202,3.302-3.302,1.743-1.743,3.611-3.351,4.22-5.846,1.215-4.975-2.32-9.54-7.373-9.89-2.699-.187-4.833,1.136-6.666,2.97l-5.475,5.475c-4.048,4.048-8.097,8.097-12.145,12.145h2.828c-4.359-4.359-8.719-8.719-13.078-13.078-1.096-1.096-2.193-2.193-3.289-3.289-1.679-1.679-3.225-3.413-5.625-3.999-5.007-1.222-9.689,2.411-9.902,7.542-.109,2.64,1.186,4.702,2.981,6.497,1.815,1.815,3.63,3.63,5.446,5.446,4.058,4.058,8.116,8.116,12.174,12.174v-2.828c-4.359,4.359-8.719,8.719-13.078,13.078-1.096,1.096-2.193,2.193-3.289,3.289-1.679,1.679-3.413,3.225-3.999,5.625-1.222,5.007,2.411,9.689,7.542,9.902,2.64.109,4.702-1.186,6.497-2.981l5.446-5.446c4.058-4.058,8.116-8.116,12.174-12.174h-2.828c4.209,4.209,8.418,8.418,12.627,12.627l3.314,3.314c1.65,1.65,3.16,3.456,5.43,4.24,4.531,1.565,9.468-1.251,10.356-5.983.446-2.374-.104-4.754-1.639-6.633-1.665-2.037-3.757-3.82-5.619-5.682-3.875-3.875-7.75-7.75-11.625-11.625-1.823-1.823-4.652,1.005-2.828,2.828,3.036,3.036,6.073,6.073,9.109,9.109,1.484,1.484,2.967,2.967,4.451,4.451.836.836,1.673,1.673,2.509,2.509.669.669,1.324,1.276,1.624,2.196,1.106,3.385-2.367,6.364-5.538,4.853-1.538-.733-2.764-2.455-3.959-3.649l-2.871-2.871c-4.171-4.171-8.341-8.341-12.512-12.512-.764-.764-2.063-.765-2.828,0-3.245,3.245-6.491,6.491-9.736,9.736l-4.26,4.26-2.325,2.325c-.856.856-1.681,1.923-2.716,2.563-3.115,1.927-6.925-1.199-5.851-4.606.528-1.676,2.192-2.853,3.395-4.057.962-.962,1.924-1.924,2.886-2.886,4.324-4.324,8.647-8.647,12.971-12.971.764-.764.765-2.063,0-2.828-3.245-3.245-6.491-6.491-9.736-9.736-1.42-1.42-2.84-2.84-4.26-4.26-.775-.775-1.55-1.55-2.325-2.325-.856-.856-1.923-1.681-2.563-2.716-1.927-3.115,1.199-6.925,4.606-5.851,1.676.528,2.853,2.192,4.057,3.395.962.962,1.924,1.924,2.886,2.886,4.324,4.324,8.647,8.647,12.971,12.971.764.764,2.063.765,2.828,0,3.229-3.229,6.459-6.459,9.688-9.688l4.293-4.293,2.495-2.495c.807-.807,1.584-1.804,2.561-2.407,1.431-.885,3.319-.653,4.639.338s1.694,2.741,1.213,4.268c-.551,1.749-2.343,3.004-3.599,4.26-.973.973-1.945,1.945-2.918,2.918-4.245,4.245-8.49,8.49-12.735,12.735-.764.764-.765,2.063,0,2.828l1.551,1.551c1.823,1.823,4.652-1.005,2.828-2.828Z"/></g><path class="f" d="M122.434,62.029c0-32.371-24.651-59.629-60.002-59.629S2.434,29.877,2.434,62.029c0,33.171,21.305,56.801,52.025,60.286,2.482,5.267,5.189,11.016,7.975,16.837,2.782-5.811,5.484-11.551,7.962-16.81,31.758-3.404,52.038-27.258,52.038-60.313Z"/><path class="g" d="M124.434,62.029c-.049-18.396-8.051-36.45-22.483-48.053C86.625,1.656,65.81-2.356,46.787,2.233,28.808,6.571,13.504,19.178,5.962,36.087c-7.721,17.311-7.311,38.088.758,55.219,7.728,16.406,22.949,27.996,40.587,31.846,2.361.516,4.75.884,7.151,1.163l-1.727-.991c2.647,5.618,5.295,11.235,7.975,16.837.625,1.307,2.828,1.307,3.454,0,2.676-5.593,5.32-11.201,7.962-16.81l-1.727.991c11.916-1.307,23.32-5.489,32.662-13.11,8.882-7.246,15.146-17.29,18.428-28.224,2.037-6.786,2.933-13.903,2.948-20.979.006-2.574-3.994-2.578-4,0-.029,13.129-3.395,26.252-11.209,36.951-7.36,10.076-18.342,16.873-30.378,19.858-1.841.457-3.702.83-5.576,1.126-.956.151-1.914.261-2.875.379-1.613.198-1.981,1.53-2.594,2.83-2.354,4.996-4.712,9.989-7.096,14.971h3.454c-1.547-3.232-3.083-6.469-4.614-9.709-.669-1.416-1.337-2.832-2.004-4.248-.72-1.527-1.164-3.627-3.084-3.871-4.578-.581-9.079-1.567-13.436-3.103-8.236-2.902-15.724-7.766-21.656-14.18C6.912,89.564,2.145,69.617,5.308,51.727c3.154-17.841,14.484-33.439,30.808-41.444,17.259-8.463,39.014-7.853,55.736,1.625,15.687,8.891,26.196,25.244,28.194,43.13.259,2.322.382,4.655.388,6.991.007,2.573,4.007,2.578,4,0Z"/><g id="e"><path class="i" d="M97.4,56.286c-1.08-6.965-4.555-13.625-9.485-18.64-5.058-5.144-11.903-8.711-19.042-9.797-2.135-.325-4.266-.56-6.427-.566-7.453.022-15.121,2.171-21.123,6.686-1.581,1.189-3.112,2.419-4.489,3.842-1.362,1.408-2.588,2.964-3.715,4.563-2.031,2.881-3.553,6.173-4.603,9.531-1.083,3.463-1.6,7.182-1.582,10.807.018,3.723.515,7.534,1.579,11.107.985,3.308,2.435,6.571,4.382,9.429,2.178,3.197,4.732,5.819,7.786,8.165,5.648,4.339,12.741,6.461,19.792,6.844,7.182.391,14.666-1.136,20.913-4.767,5.728-3.33,10.504-8.54,13.155-14.627.779-1.788,1.498-3.585,2.012-5.468.535-1.959.838-3.95,1.096-5.961.48-3.742.33-7.426-.247-11.148ZM85.55,66.614c-.342,2.171-.895,4.302-1.684,6.354-.78,1.749-1.735,3.408-2.864,4.954-1.071,1.303-2.264,2.495-3.568,3.564-1.502,1.093-3.112,2.02-4.808,2.779-1.989.765-4.053,1.302-6.158,1.636-2.6.293-5.229.302-7.829.011-2.077-.333-4.114-.868-6.078-1.623-1.757-.785-3.423-1.748-4.976-2.884-1.348-1.106-2.58-2.34-3.686-3.689-1.144-1.567-2.113-3.248-2.903-5.02-.777-2.022-1.324-4.12-1.663-6.26-.259-2.317-.293-4.657-.056-6.977.328-2.113.884-4.178,1.662-6.17.809-1.787,1.794-3.482,2.951-5.066,1.198-1.47,2.538-2.812,4.007-4.011,1.543-1.127,3.194-2.09,4.933-2.882,2.04-.8,4.158-1.364,6.324-1.696,2.201-.23,4.429-.229,6.63.004,2.143.332,4.237.89,6.256,1.678,1.762.799,3.434,1.773,4.996,2.915,1.445,1.181,2.765,2.501,3.947,3.945,1.155,1.575,2.141,3.261,2.95,5.039.789,2.008,1.352,4.093,1.683,6.226.243,2.384.203,4.79-.066,7.171Z"/><path class="g" d="M99.328,55.754c-2.37-14.657-14.296-26.953-28.916-29.664-7.611-1.411-15.552-.924-22.749,2.052-7.25,2.998-13.437,8.338-17.475,15.073-8.267,13.788-6.713,32.893,4.01,44.933,10.341,11.611,27.77,15.049,42.213,9.83,6.94-2.508,12.935-7.048,17.105-13.15,4.442-6.499,6.524-14.669,6.413-22.492-.031-2.208-.273-4.399-.6-6.582-.16-1.069-1.508-1.658-2.46-1.397-1.144.314-1.558,1.388-1.397,2.46,2.094,13.959-3.363,28.778-16.234,35.576-11.969,6.321-28.398,5.165-38.789-3.729-11.055-9.463-14.438-25.763-8.963-39.141,5.42-13.242,19.151-21.148,33.266-20.153,7.485.527,14.653,3.226,20.271,8.277,5.556,4.996,9.257,11.799,10.449,19.171.173,1.067,1.5,1.661,2.46,1.397,1.135-.312,1.57-1.39,1.397-2.46Z"/><path class="g" d="M83.607,66.087c-.718,4.356-2.192,8.593-5.29,11.843-3.007,3.155-6.809,4.945-11.048,5.804-8.711,1.766-18.5-1.402-23.128-9.262-4.47-7.592-4.134-18.189,1.429-25.165,5.803-7.278,15.748-9.437,24.396-6.602,4.575,1.5,8.462,4.802,10.88,8.933,2.699,4.612,3.247,9.744,2.69,14.982-.114,1.076,1.001,2,2,2,1.177,0,1.885-.921,2-2,.569-5.346.008-10.785-2.478-15.622-2.336-4.544-5.903-8.217-10.421-10.614-9.274-4.921-21.733-3.619-29.486,3.568-7.879,7.304-9.963,18.913-6.26,28.848,1.776,4.766,5.176,8.92,9.512,11.571,4.556,2.785,9.811,3.902,15.117,3.744,5.798-.172,11.723-1.985,16.114-5.895,4.44-3.954,6.874-9.265,7.831-15.069.176-1.065-.278-2.153-1.397-2.46-.956-.263-2.283.325-2.46,1.397Z"/></g></g></svg>