<svg id="b" xmlns="http://www.w3.org/2000/svg" width="252.773" height="171.275" viewBox="0 0 252.773 171.275" style="color: initial !important;"><defs><style>.d{fill:#74c66d;}.e{fill:#211715;}.f{fill:#d5eed3;}</style></defs><g id="c"><path class="f" d="M225.942,145.774c.108-.095.216-.191.322-.289-5.768.07-11.587-.545-17.108-1.984-12.23-3.199-24.156-7.548-35.579-12.976-16.728-7.94-31.993-18.029-45.582-30.526-3.859,2.283-8.833,2.776-12.911.851-2.078-.981-3.874-2.472-5.524-4.071-.804-.779-1.755-1.755-2.807-2.893,18.048,29.003,30.037,39.243,41.706,44.927,19.807,9.657,44.544,18.597,66.838,12.434,3.87-1.07,7.589-2.79,10.644-5.472Z"/><path class="f" d="M103.431,150.205c.763.182,1.485.347,2.127.481,1.736.363,3.472-.678,3.905-2.391,3.495-13.815,6.914-27.549,9.186-36.749-2.007-2.708-4.094-5.673-6.271-8.928-3.722,16.9-4.468,20.765-8.737,38.241-.484,1.947-5.166,3.017-8.799,4.722-1.16.545-.969,2.25.272,2.533,2.015.478,5.457,1.408,8.317,2.092Z"/><path class="e" d="M110.065,101.977c-1.474,6.693-2.914,13.394-4.43,20.078-.692,3.049-1.402,6.094-2.127,9.136-.46,1.933-.926,3.864-1.394,5.795-.256,1.056-.639,2.159-.787,3.234.008-.06.206-.326.043-.119-.197.249.254-.162-.053.022-.232.139-.046.039-.01.021-.208.105-.407.261-.611.377-1.467.834-3.114,1.335-4.673,1.963-1.897.764-3.961,1.473-4.293,3.774-.612,4.237,4.678,4.65,7.599,5.397,3.423.875,7.732,2.715,10.77.023,1.675-1.484,1.951-3.82,2.47-5.875.581-2.304,1.161-4.608,1.74-6.912,2.236-8.899,4.455-17.801,6.655-26.709.74-2.999-3.887-4.278-4.629-1.276-1.74,7.048-3.494,14.092-5.257,21.134-1.042,4.163-2.088,8.326-3.138,12.487-.257,1.019-.407,2.152-.791,3.129-.158.403-.373.677-.865.72-.397.035-.952-.192-1.348-.283-.829-.19-1.654-.392-2.479-.598-1.613-.403-3.221-.824-4.832-1.233-.467-.119-1.267-.495-1.744-.433-.378.049.453.349.529.738.059.302.015.461-.086.755-.094.276-.479.265-.093.249.176-.007.451-.204.617-.275,2.746-1.168,6.672-1.907,8.48-4.514.991-1.428,1.171-3.511,1.573-5.172.415-1.714.828-3.428,1.236-5.143.678-2.846,1.344-5.694,1.993-8.547,1.566-6.879,3.046-13.778,4.564-20.667.663-3.01-3.963-4.296-4.629-1.276h0Z"/><path class="d" d="M86.864,40.802c6.742,2.3,21.385,9.534,33.998,22.943,4.353,4.627,8.214,10.279,11.298,13.079,25.354,7.944,49.108,19.234,73.011,30.664,5.045,2.412,10.08,4.823,15.126,7.235,6.488,3.108,12.986,6.216,19.152,9.939,4.823,2.926,13.602,7.225,10.151,14.318-2.472,5.096-10.676,5.429-15.59,6.004-8.204.959-16.841.605-24.853-1.483-12.23-3.199-24.156-7.548-35.579-12.976-16.752-7.952-32.038-18.059-45.643-30.584-1.266.705-2.649,1.212-4.076,1.499-5.753,1.158-11.538-1.822-16.075-5.133-3.131-2.286-6.221-5.004-8.953-7.754-3.328-3.349-6.732-6.728-9.866-10.259-3.176-3.578-5.78-7.564-8.66-11.386-2.267-3.009-4.518-6.138-6.14-9.553"/><path class="e" d="M86.225,43.117c2.455.844,4.066,1.567,6.446,2.738,3.096,1.523,6.099,3.237,9.003,5.099,7.3,4.681,14.029,10.355,19.684,16.941,2.98,3.471,5.616,7.333,8.949,10.485,2.244,2.122,5.644-1.266,3.394-3.394-2.962-2.801-5.35-6.191-7.956-9.312-3.082-3.69-6.465-7.104-10.105-10.244-6.023-5.197-12.661-9.741-19.765-13.33-2.71-1.369-5.501-2.623-8.374-3.611-2.927-1.007-4.185,3.628-1.276,4.629h0Z"/><path class="d" d="M68.332,55.002c-6.003,6.836-8.19,9.747-14.309,17.365-.528.657-1.547.624-2.022-.072-6.812-9.981-13.455-20.076-20.288-29.911-.907-1.305-2.779-2.134-4.375-2.487-4.99-1.103-8.261,3.242-10.932,6.754-3.192,4.196-5.266,8.999-7.211,13.888-2.882,7.242-5.048,14.782-6.812,22.374.922-2.423,17.01-21.775,20.46-26.18,1.627-2.077,4.879-1.583,5.837.876,3.133,8.041,11.371,22.159,16.659,30.906,2.375,3.928,7.875,4.434,10.928,1.005,7.267-8.163,18.628-21.347,21.144-24.996l5.303-5.947"/><path class="e" d="M66.635,53.305c-2.824,3.219-5.586,6.489-8.272,9.824-1.343,1.667-2.675,3.342-4.012,5.014-.373.467-.747.934-1.121,1.4-.132.165-.503.521-.596.743l-.308.383,1.023-.187c.704-.047.396.392.173-.208-.128-.345-.48-.705-.689-1.013-.413-.608-.826-1.216-1.238-1.824-3.201-4.726-6.376-9.469-9.569-14.2-1.546-2.29-3.096-4.578-4.655-6.859-.732-1.071-1.466-2.141-2.203-3.208-.757-1.097-1.46-2.36-2.461-3.256-3.507-3.138-8.87-3.371-12.647-.646-2.578,1.861-4.886,4.587-6.479,7.34-2.963,5.12-4.999,10.896-7.091,16.408-2.387,6.287-4.879,12.7-6.421,19.259-.296,1.261.393,2.6,1.676,2.952,1.37.377,2.465-.469,2.952-1.676-.398.987.023.055.19-.213.267-.428.559-.841.851-1.252.777-1.094,1.591-2.162,2.408-3.227.122-.159.229-.297.517-.668.263-.338.526-.675.79-1.011.616-.785,1.234-1.567,1.855-2.348,1.195-1.503,2.398-3.001,3.603-4.496,2.281-2.827,4.576-5.643,6.863-8.465.797-.983,1.594-1.965,2.381-2.957.316-.398.682-.894,1.012-1.037.019-.008.509-.049.341-.071.479.063.616.158.853.471.332.44.675,1.62.983,2.334.432,1.002.888,1.993,1.357,2.978,1.05,2.203,2.166,4.373,3.313,6.527,2.471,4.643,5.083,9.211,7.751,13.743,2.317,3.936,4.423,9.105,9.397,10.119,2.323.474,4.805.138,6.834-1.134s3.505-3.359,5.06-5.128c3.692-4.198,7.353-8.425,10.959-12.698,2.551-3.023,5.205-6.034,7.466-9.285.74-1.065.195-2.666-.861-3.284-1.194-.699-2.542-.206-3.284.861-.305.438-.625.865-.948,1.289.332-.435-.3.383-.397.506-.3.38-.603.758-.907,1.135-1.287,1.594-2.598,3.169-3.917,4.737-3.204,3.808-6.456,7.576-9.731,11.322-1.546,1.768-3.088,3.541-4.659,5.287-1.278,1.42-2.889,2.133-4.632,1.697-1.918-.479-2.749-2-3.727-3.629-1.291-2.15-2.568-4.308-3.829-6.476-2.643-4.543-5.228-9.123-7.64-13.793-1.062-2.055-2.092-4.128-3.038-6.239-.862-1.923-1.439-4.138-3.517-5.348-2.247-1.309-5.255-.881-7.046.999-.743.78-1.373,1.708-2.05,2.546-2.164,2.678-4.341,5.345-6.507,8.022-2.71,3.349-5.414,6.704-8.05,10.112-1.634,2.111-3.661,4.29-4.673,6.797l4.629,1.276c1.32-5.611,3.393-11.094,5.385-16.492,2.142-5.803,4.17-11.342,6.96-16.765,1.179-2.292,2.758-4.377,4.626-6.157,1.156-1.102,2.568-2.048,4.223-2.013.793.017,1.617.24,2.342.562,1.085.482,1.576,1.151,2.237,2.107,6.3,9.105,12.4,18.346,18.63,27.499.841,1.235,1.569,2.46,3.112,2.84,1.518.374,2.862-.314,3.814-1.451,1.664-1.987,3.239-4.055,4.861-6.077,2.968-3.702,6.011-7.337,9.14-10.904,2.03-2.314-1.352-5.722-3.394-3.394h0Z"/><path class="e" d="M107.393,99.387c8.963,13.913,19.078,28.368,33.099,37.647,6.573,4.35,14.071,7.44,21.363,10.339,10.131,4.027,20.722,7.085,31.617,8.03,6.092.528,12.244.294,18.256-.859,5.957-1.143,11.672-3.268,16.24-7.369,2.304-2.068-1.1-5.453-3.394-3.394-3.723,3.342-8.455,4.961-13.276,5.965-5,1.041-10.133,1.301-15.227,1.037-10.322-.534-20.442-3.314-30.079-6.933-4.78-1.795-9.461-3.836-14.072-6.027-2.635-1.252-5.233-2.554-7.71-4.101-5.1-3.185-9.407-7.001-13.677-11.541-7.221-7.679-13.298-16.374-18.995-25.217-1.667-2.588-5.824-.184-4.145,2.423h0Z"/><path class="e" d="M131.105,78.997c18.224,5.704,35.803,13.195,53.109,21.222,8.768,4.067,17.478,8.256,26.197,12.428,8.791,4.206,17.742,8.204,26.174,13.11,2.61,1.518,5.378,3.006,7.769,4.827,1.117.851,2.231,1.888,2.896,2.964.602.973.859,1.859.701,2.837-.465,2.888-2.945,4.156-5.563,4.895-2.898.819-5.849,1.029-8.835,1.357-4.613.507-9.274.603-13.901.222-4.679-.385-9.19-1.442-13.698-2.716-9.034-2.554-17.905-5.725-26.485-9.538-16.153-7.177-31.399-16.466-44.859-27.947-1.669-1.424-3.309-2.88-4.925-4.363-2.273-2.085-5.676,1.3-3.394,3.394,13.642,12.517,29.166,22.857,45.875,30.814,8.989,4.281,18.285,7.931,27.798,10.873,4.66,1.442,9.379,2.851,14.205,3.616,4.888.776,9.837,1.053,14.781.812,3.801-.185,7.666-.588,11.425-1.193,3.347-.539,6.845-1.524,9.388-3.886,2.565-2.382,3.74-6.372,2.53-9.704-1.171-3.225-3.878-5.5-6.638-7.37-7.229-4.898-15.214-8.716-23.067-12.481-9.257-4.437-18.511-8.882-27.791-13.27-18.104-8.561-36.415-16.802-55.397-23.243-2.331-.791-4.671-1.552-7.02-2.288-2.955-.925-4.219,3.707-1.276,4.629h0Z"/><path class="d" d="M166.824,163.887c1.245-.291,1.432-1.995.275-2.538-3.636-1.707-6.21-3.43-6.415-5.426-2.082-20.278-3.537-35.529-6.635-56.679-.078-.532-.28-1.429-1.149-1.822-1.293-.584-2.54-.329-3.532.561-3.473,3.117-11.331,12.827-15.526,17.702-.98,1.139-1.037,2.802-.139,4.008.014.019.028.037.041.056,1.264,1.699,3.691,1.648,5.1.066,3.713-4.17,7.764-9.099,9.582-10.897.852,13.176,3.506,32.471,5.186,54.109.152,1.958,1.996,3.331,3.918,2.929,3.062-.64,6.737-1.47,9.295-2.068Z"/><path class="d" d="M205.598,166.802c1.245-.291,1.432-1.995.275-2.538-3.636-1.707-7.61-2.577-8.071-4.53-1.388-5.883-5.571-26.096-7.336-34.366-.112-.525-.28-1.429-1.149-1.822-1.293-.584-2.54-.329-3.532.561-3.353,3.009-6.466,5.763-9.481,9.139-1.016,1.138-1.119,3.402-.208,4.627.014.019.028.037.041.056,1.244,1.671,3.413,1.413,5.042.115.954-.761,1.738-1.278,2.496-2.106.822-.898,2.261.279,2.497,1.474,1.137,5.751,4.426,22.463,6.252,29.056.472,1.702,2.174,2.76,3.902,2.398,3.058-.64,6.719-1.467,9.271-2.063Z"/><path class="e" d="M167.462,166.201c2.36-.801,3.594-3.403,2.224-5.637-.688-1.122-1.929-1.527-3.034-2.109-.946-.499-1.926-1.024-2.736-1.731-.533-.466-.824-.855-.882-1.201-.207-1.234-.25-2.528-.378-3.775-.265-2.594-.529-5.187-.796-7.781-1.011-9.833-2.067-19.662-3.319-29.468-.333-2.607-.678-5.211-1.034-7.815-.375-2.742-.587-5.591-1.18-8.294-.541-2.46-2.857-3.875-5.306-3.641-2.068.198-3.494,1.599-4.865,3.015-2.628,2.715-5.062,5.622-7.5,8.507-1.316,1.557-2.624,3.12-3.936,4.68-1.161,1.381-2.752,2.817-3.512,4.459-1.17,2.528-.276,5.579,2.044,7.114,2.266,1.5,5.288.965,7.167-.889,3.479-3.432,6.246-7.559,9.703-11.021l-4.097-1.697c.559,8.546,1.556,17.061,2.463,25.574.55,5.16,1.09,10.321,1.584,15.487.267,2.792.521,5.584.759,8.379.21,2.47-.082,5.582,1.43,7.683,1.775,2.468,4.411,2.552,7.132,1.97,2.696-.576,5.385-1.183,8.07-1.809,3.007-.702,1.734-5.331-1.276-4.629-2.123.495-4.249.977-6.378,1.443-.856.187-2.099.709-2.952.61-.387-.045-.652-.192-.81-.572-.386-.928-.228-2.452-.313-3.475-.108-1.296-.219-2.592-.334-3.887-.224-2.529-.461-5.056-.708-7.583-.88-9.013-1.908-18.01-2.813-27.021-.407-4.052-.787-8.107-1.053-12.171-.132-2.018-2.558-3.238-4.097-1.697-2.486,2.489-4.689,5.279-6.988,7.936-.67.774-1.342,1.546-2.019,2.313-.392.444-.851,1.165-1.486,1.154.096.002-.272-.07-.288-.073-.197-.037.375.277-.284-.234.073.057.202.374.011.008-.271-.518-.237-.771.123-1.243,1.95-2.56,4.177-4.96,6.255-7.418,2.148-2.541,4.301-5.084,6.567-7.521.698-.75,1.585-2.04,2.517-2.505.122-.061.231-.11.359-.154.391-.135.307.308.178-.025.266.689.292,1.991.416,2.855.645,4.493,1.253,8.991,1.82,13.495,1.046,8.297,1.955,16.609,2.819,24.927.517,4.982.971,9.974,1.533,14.951.232,2.052,1.171,3.576,2.785,4.861.879.7,1.814,1.306,2.799,1.845.459.251,1.319.883,1.828.926.456.038.048.083-.055-.229-.194-.584-.187-1.261.57-1.518-2.909.987-1.661,5.625,1.276,4.629Z"/><path class="e" d="M206.236,169.116c1.813-.615,3.033-2.21,2.749-4.176-.321-2.221-2.257-2.942-4.1-3.7-1.555-.639-3.224-1.143-4.637-2.078.14.093-.336-.276-.095-.026-.261-.271-.01.097-.088-.261-.086-.395-.182-.789-.272-1.184-1.145-5.059-2.202-10.139-3.273-15.214-1.142-5.412-2.271-10.827-3.419-16.237-.28-1.322-.457-2.717-1.372-3.78-1.297-1.508-3.598-1.968-5.455-1.354-1.926.636-3.443,2.422-4.91,3.755-1.497,1.36-2.975,2.74-4.397,4.179-1.52,1.539-3.34,3.112-3.753,5.336-.363,1.953.042,4.062,1.454,5.525,1.488,1.54,3.778,1.958,5.768,1.249,1.018-.362,1.792-.912,2.64-1.568.644-.499,1.805-1.658,2.264-1.858l-1.211.328c.725-.09-.648-.059-.444-.279.013-.014.213.238.213.243-.008.104-.003.239.029.381.12.536.213,1.08.32,1.618.245,1.239.491,2.477.739,3.715.625,3.124,1.26,6.246,1.914,9.365.662,3.16,1.339,6.317,2.073,9.461.66,2.829,1.025,6.296,3.722,7.953,2.152,1.322,4.47.637,6.756.139,2.266-.493,4.527-1.005,6.785-1.532,3.007-.702,1.734-5.331-1.276-4.629-2.539.592-5.081,1.166-7.63,1.715-.662.142-1.755.657-2.352.075-.357-.348-.424-1.126-.544-1.589-.919-3.544-1.687-7.129-2.449-10.709-.847-3.977-1.658-7.962-2.455-11.95-.616-3.081-.829-8.806-5.151-8.81-1.488-.001-2.249.977-3.272,1.849-.652.555-1.536,1.478-2.428,1.606-.379.055-.258.068-.594-.11.048.025.039.3-.101-.173-.286-.966.013-1.455.642-2.139,1.886-2.051,3.906-3.972,5.966-5.847.504-.458,1.009-.914,1.516-1.369.431-.388.936-1.016,1.443-1.273.025-.012.939-.358.741-.053.063-.098-.787-.09-.325-.408.008-.005.173.659.184.704,1.711,7.284,3.082,14.662,4.635,21.982.784,3.694,1.564,7.39,2.398,11.073.465,2.052,1.254,3.487,3.167,4.567,1.157.653,2.429,1.115,3.661,1.603.613.243,1.23.478,1.836.739l.407.18c.429.269.519.276.27.021-.18-.176-.274-.398-.282-.666.009-.479.248-.818.716-1.017-2.909.987-1.661,5.625,1.276,4.629Z"/><path class="e" d="M72.093,58.568c2.46,5.085,6.115,9.479,9.409,14.032,3.433,4.745,7.194,9.088,11.291,13.271,4.041,4.125,8.093,8.197,12.698,11.701,4.345,3.307,9.354,6.163,14.922,6.497,5.701.342,11.392-2.606,14.329-7.502,1.593-2.656-2.556-5.072-4.145-2.423-2.108,3.514-6.144,5.372-10.184,5.125-4.731-.289-9.106-3.195-12.732-6.022-4.151-3.236-7.819-7.019-11.494-10.77-3.639-3.715-7.075-7.528-10.134-11.739-3.432-4.724-7.26-9.31-9.815-14.592-.564-1.167-2.228-1.479-3.284-.861-1.192.697-1.427,2.113-.861,3.284h0Z"/><path class="d" d="M67.793,26.874c-3.668-.288-7.359-.349-11.033-.336-4.443.015-9.552,2.446-10.313,7.191-.346,2.156.11,4.36.736,6.452,2.515,8.4,8.59,16.374,17.951,17.098,4.648.454,9.239-1.083,12.915-3.912,3.418-2.63,5.999-6.236,7.872-10.121.946-1.962,1.735-4.069,1.699-6.247-.097-5.839-6.028-7.831-10.781-8.85-2.984-.64-6.007-1.035-9.045-1.274Z"/><path class="e" d="M67.793,24.474c-2.554-.194-5.114-.291-7.675-.323-2.201-.028-4.404-.104-6.573.343-3.613.746-7.19,2.967-8.723,6.427-1.872,4.226-.465,9.116,1.223,13.175,1.491,3.586,3.541,6.963,6.33,9.695,6.239,6.111,15.429,7.598,23.314,3.844,4.082-1.944,7.378-5.256,9.89-8.962,2.435-3.592,4.884-8.214,4.36-12.685-1.152-9.819-14.584-10.899-22.147-11.514-1.294-.105-2.4,1.178-2.4,2.4,0,1.386,1.103,2.294,2.4,2.4,3.763.306,7.571.799,11.196,1.895,2.246.679,4.764,1.732,5.789,3.845,1.397,2.881-.593,6.603-2.058,9.171-1.729,3.03-3.991,5.88-6.906,7.848-5.63,3.799-13.067,3.956-18.514-.279-2.391-1.858-4.24-4.327-5.661-6.98-1.567-2.925-3.028-6.529-2.901-9.888.121-3.201,2.896-5.027,5.762-5.694,1.825-.424,3.759-.266,5.619-.242,2.561.032,5.121.129,7.675.323,1.294.098,2.4-1.173,2.4-2.4,0-1.38-1.102-2.301-2.4-2.4Z"/><path class="e" d="M73.323,28.833c.518-4.685,1.407-9.631,4.074-13.617,2.38-3.555,5.968-5.449,10.04-6.457,2.997-.742,1.727-5.373-1.276-4.629-5.205,1.289-9.614,3.954-12.72,8.388-3.307,4.721-4.299,10.714-4.918,16.315-.143,1.29,1.205,2.4,2.4,2.4,1.416,0,2.257-1.106,2.4-2.4h0Z"/><path class="e" d="M66.767,28.833c-.616-6.322-1.558-12.936-4.723-18.555C59.16,5.156,54.63,1.764,49.036.11c-2.968-.878-4.236,3.753-1.276,4.629,4.563,1.349,8.043,4.077,10.32,8.287,2.586,4.782,3.368,10.469,3.888,15.807.126,1.29,1.013,2.4,2.4,2.4,1.2,0,2.526-1.102,2.4-2.4h0Z"/><path class="f" d="M87.996,41.378c.989-1.804,1.397-4.034,1.161-6.009-.352-2.938-2.219-5.701-4.91-6.93-1.789-.817-3.789-.944-5.771-.935-.643.003-1.16.56-1.085,1.199.519,4.378,2.208,8.615,4.856,12.141,1.2,1.599,3.213,3.915,4.977,1.701.287-.361.545-.752.772-1.166Z"/><path class="e" d="M90.068,42.589c1.821-3.432,2.051-7.44.454-10.992-1.491-3.315-4.62-5.628-8.186-6.212-1.966-.322-4.73-.808-6.304.721-1.628,1.582-.926,4.045-.471,5.988.816,3.482,2.343,6.872,4.462,9.756,1.148,1.562,2.5,3.307,4.464,3.847,2.527.695,4.426-1.067,5.581-3.108.618-1.093.296-2.672-.861-3.284-1.137-.601-2.623-.306-3.284.861-.154.272-.313.541-.495.796-.025.035-.265.334-.074.085-.038.049-.314.386-.036.066-.087.1-.305.066-.065.041.165-.018.369-.054.54-.072.309-.031.015.024-.118-.042-.287-.142.462.311-.025-.039-.076-.055-.356-.258-.009.02-.082-.066-.161-.137-.239-.208-.213-.194-.413-.401-.606-.615-.167-.186-.321-.382-.483-.572.288.338.062.083.005.006-.126-.171-.252-.341-.375-.514-.786-1.106-1.481-2.276-2.077-3.494-.131-.267-.255-.536-.378-.806-.202-.447-.101-.229-.059-.128-.065-.156-.127-.314-.189-.472-.245-.632-.466-1.275-.66-1.925s-.362-1.308-.503-1.971c-.062-.29-.118-.582-.169-.874-.029-.167-.056-.334-.083-.502-.021-.148-.025-.168-.012-.059.018.151.01.09-.023-.185l-.032.134c-.051.276-.183.518-.398.725-.203.188-.672.437-.885.342.211.094.724.003.946.009.315.008.63.02.944.042.179.012.357.028.536.045.841.08-.183-.042.29.038.651.11,1.31.263,1.924.51-.233-.094.099.049.12.059.131.068.263.134.391.207s.254.149.378.228c.045.029.519.362.296.195-.219-.165.139.12.185.16.083.073.165.147.245.223.215.204.408.424.609.641.051.055.278.356.038.034.088.118.173.241.254.363.164.247.316.501.454.763.07.131.134.264.199.397.304.623-.074-.23.059.144.112.315.216.63.297.954.036.144.063.289.097.433.108.452.008-.163.031.139.029.365.055.725.052,1.091-.003.331-.022.661-.057.99.038-.361-.009.051-.02.107-.04.206-.08.411-.129.616-.088.368-.2.727-.323,1.085-.154.45-.083.229-.038.123-.097.228-.215.448-.331.667-.588,1.108-.317,2.661.861,3.284,1.111.587,2.655.323,3.284-.861Z"/><path class="f" d="M45.367,37.649c-.661-1.949-.676-4.215-.1-6.119.856-2.832,3.175-5.229,6.039-5.972,1.903-.494,3.895-.272,5.846.081.633.114,1.045.753.86,1.369-1.271,4.222-3.67,8.101-6.89,11.113-1.46,1.366-3.844,3.298-5.196.811-.22-.405-.406-.836-.558-1.283Z"/><path class="e" d="M47.681,37.011c-.119-.366-.223-.734-.301-1.111-.031-.152-.059-.304-.084-.457.017.106.036.429,0-.056-.027-.349-.045-.697-.042-1.048.002-.194.008-.387.02-.58.004-.056.061-.663.026-.368-.041.344.071-.384.066-.356.029-.147.062-.294.099-.439.075-.3.165-.596.271-.886.047-.129.236-.521.013-.052.056-.116.109-.233.167-.348.145-.288.306-.567.481-.838.07-.108.146-.212.217-.32.334-.513-.217.224.036-.051.196-.214.377-.437.583-.643.182-.182.377-.348.567-.521.449-.41-.268.161.045-.038.162-.103.315-.219.479-.32.246-.153.502-.278.755-.417.101-.055.417-.16-.047.01.12-.044.239-.092.36-.133.299-.102.603-.184.911-.25.098-.021.615-.106.204-.052.241-.032.486-.046.728-.056.695-.03,1.39.009,2.081.084.096.01.618.085.221.026.163.025.327.051.49.078-.023-.004.478.06.488.085-.179-.071-.337-.175-.474-.311l-.182-.226-.201-.744c.063-.336.066-.402.009-.198-.062.13-.088.283-.133.42-.102.314-.211.627-.325.937-.051.138-.103.275-.157.412.011-.029-.26.64-.128.326.109-.261-.072.162-.098.219-.09.201-.182.401-.278.6-.587,1.226-1.272,2.406-2.047,3.522-.168.242-.342.478-.515.715-.414.567.174-.197-.096.125-.118.141-.23.286-.348.428-.423.508-.866,1-1.328,1.473-.465.476-.947.938-1.455,1.369-.106.09-.213.198-.331.271.322-.202.161-.122-.069.032-.068.046-.653.471-.721.42-.041-.031.502-.154.136-.062-.072.025-.144.046-.218.063-.187.044-.094.037.278-.022.016.008-.269-.005-.283.006.404.07.479.074.225.013l.308.132c-.433-.225.27.295.047.05-.156-.171.18.379-.025-.022-.083-.161-.169-.338-.264-.492-.07-.152-.069-.139.005.041-.058-.146-.113-.293-.163-.441-.418-1.18-1.657-2.095-2.952-1.676-1.165.377-2.125,1.685-1.676,2.952.735,2.074,1.975,4.135,4.426,4.237,1.756.073,3.248-.933,4.541-1.999,2.611-2.152,4.782-5.025,6.328-8.022.805-1.561,1.64-3.298,2.014-5.026.266-1.226-.13-2.483-1.052-3.336-.98-.907-2.366-.979-3.626-1.134-3.749-.46-7.5.485-10.113,3.334-2.928,3.192-3.855,7.83-2.517,11.945.387,1.192,1.68,2.088,2.952,1.676,1.191-.386,2.092-1.674,1.676-2.952Z"/><path class="d" d="M29.89,113.412c-1-4.304-1.824-8.648-2.402-13.02-.689-5.216-1.224-10.421-.488-15.641.617-4.369,1.35-9.758,6.243-11.232,1.566-.472,3.604-.663,5.032.034,10.765,5.246,21.491,10.813,32.309,16.197.754.375,1.66-.093,1.8-.924,1.725-10.259,2.166-13.686,4.393-23.938,1.017,1.445,1.434-6.723,2.678-5.469,1.256,1.266,7.766-.128,9.51,3.532,1.405,2.948,0,7.613-.598,11.7-1.178,6.968-3.771,19.539-5.65,28.051-.99,4.483-6.037,6.727-10.027,4.458-8.886-5.052-22.968-13.349-29.628-18.837-2.036-1.678-5.116-.521-5.521,2.086-.86,5.528-5.45,30.272-5.072,32.837-.941-3.25-1.811-6.529-2.578-9.831Z"/><path class="e" d="M86.565,70.562c-.023.239-.052.476-.08.714-.066.577.083-.571-.006.049-.018.127-.036.253-.055.38-.122.829-.258,1.656-.399,2.482-.335,1.965-.7,3.924-1.074,5.882-.934,4.883-1.931,9.754-2.958,14.619-.498,2.357-.99,4.717-1.523,7.067-.404,1.784-1.387,3.163-3.129,3.702-1.89.585-3.401-.346-5.11-1.325-2.121-1.215-4.236-2.442-6.341-3.685-4.527-2.673-9.022-5.408-13.412-8.302-1.94-1.279-3.861-2.589-5.728-3.972-1.699-1.258-3.327-2.994-5.703-3.032-2.543-.04-4.908,1.58-5.675,4.03-.34,1.085-.424,2.299-.615,3.419-.577,3.379-1.173,6.754-1.754,10.132-.724,4.213-1.443,8.428-2.077,12.656-.26,1.734-.511,3.47-.708,5.212-.096.857-.262,1.79-.152,2.654l4.714-.638c-1.758-6.133-2.682-12.571-3.638-18.867-.545-3.591-1.008-6.973-1.384-10.609-.258-2.494-.556-5.051-.43-7.562.008-.166.021-.331.034-.496.003-.04.043-.411.009-.101-.051.457.079-.54.072-.489.137-.936.284-1.871.484-2.796.363-1.681.862-3.49,2.06-4.708,1.162-1.182,3.382-1.876,5.014-1.363,1.302.409,2.595,1.248,3.822,1.854,1.401.692,2.801,1.388,4.199,2.087,5.465,2.731,10.91,5.503,16.364,8.257,1.329.671,2.659,1.341,3.99,2.01,1.482.744,2.998,1.71,4.571,2.241,1.274.429,2.712.139,3.703-.785,1.056-.985,1.141-2.36,1.364-3.696,1.39-8.343,2.955-16.626,4.64-24.914.258-1.269-.367-2.592-1.676-2.952-1.185-.326-2.693.4-2.952,1.676-1.433,7.048-2.848,14.084-4.021,21.181-.206,1.244-.411,2.488-.618,3.732-.064.386-.129.772-.193,1.158-.19,1.132-.368.424.62.062.458-.168.806.196.096-.293-.381-.263-.918-.458-1.333-.666-2.812-1.407-5.618-2.824-8.423-4.243-5.447-2.756-10.89-5.521-16.358-8.235-2.606-1.293-5.408-3.213-8.375-3.383-2.534-.145-5.186.678-7.153,2.276-3.251,2.642-4.014,7.068-4.558,10.979-.331,2.381-.149,4.767.059,7.154.316,3.623.789,7.233,1.299,10.833,1.035,7.311,2.049,14.818,4.088,21.932.327,1.139,1.46,1.896,2.633,1.719,1.056-.159,2.234-1.159,2.081-2.357-.094-.734.031-1.516.107-2.246.062-.594.137-1.187.213-1.78.013-.103.062-.465-.005.03.029-.213.058-.425.088-.638.053-.375.107-.751.161-1.126.541-3.695,1.159-7.379,1.785-11.061.619-3.64,1.257-7.278,1.886-10.916.214-1.238.429-2.476.631-3.715.088-.542.118-1.181.412-1.553.203-.256.704-.384,1.097-.239.512.189,1.295.958,1.896,1.421.898.691,1.81,1.362,2.734,2.018,1.983,1.408,4.01,2.754,6.054,4.072,4.423,2.85,8.932,5.564,13.474,8.219,3.991,2.333,8.322,5.802,13.215,4.358,2.293-.677,4.34-2.25,5.493-4.358,1.118-2.043,1.393-4.532,1.877-6.783,1.174-5.468,2.306-10.945,3.369-16.435.765-3.951,1.617-7.937,2.01-11.948.126-1.292-1.194-2.4-2.4-2.4-1.403,0-2.273,1.104-2.4,2.4h0Z"/></g></svg>