<svg xmlns="http://www.w3.org/2000/svg" width="388.995" height="306.588" viewBox="0 0 388.995 306.588" style="color: initial !important;"><defs><style>.a{fill:#ffffff;}.b{fill:#211715;}.c{fill:#febe69;}.d{fill:#3d8dcc;}.e{fill:#74c66d;}.f{fill:#c6c6c6;}</style></defs><path class="a" d="M373.328,237.816c-9.263-9.293-22.01-13.464-35.395-15.674-10.7-1.766-32-.405-42.381,2.705-11.693,3.5-19.854,10.03-32.136,20.2a9.327,9.327,0,0,1-4.183,1.976c-8.166,1.57-11.549,1.923-18.425,3.508a20.561,20.561,0,0,0-9.644,4.907c-4.892,4.494-6.638,11.565-6.38,18.5a21.52,21.52,0,0,0,.555,4.8c1.3,5,3.355,7.2,6.956,9.025a24.433,24.433,0,0,0,7.063,1.292H371.565a14.91,14.91,0,0,0,10.014-3.862c4.581-4.146,4.943-11.043,4.655-16.969a47.649,47.649,0,0,0-4.773-19.017A43.507,43.507,0,0,0,373.328,237.816Z"/><path class="a" d="M246.253,249.907c-.419-.132-.875-.2-1.224-.293-1.292.261-2.667.556-4.221.914a20.561,20.561,0,0,0-9.644,4.907A19.262,19.262,0,0,0,225.8,264.6c3.942-.086,9.39.095,14.412-1.242a5.7,5.7,0,0,0,3.381-2.6,37.58,37.58,0,0,0,4.069-8.745,1.449,1.449,0,0,0-.695-1.743A2.133,2.133,0,0,0,246.253,249.907Z"/><path class="b" d="M374.743,236.4A54.455,54.455,0,0,0,353.2,223.725a83.639,83.639,0,0,0-22.461-4.264,137.134,137.134,0,0,0-22.428.966,69.733,69.733,0,0,0-20.354,5.133c-7.522,3.353-14.1,8.42-20.47,13.568-1.875,1.516-3.677,3.179-5.622,4.6-1.9,1.388-4.292,1.584-6.541,1.994-3.642.663-7.3,1.248-10.928,1.982-4.128.836-8.264,1.738-11.826,4.107a20.831,20.831,0,0,0-7.8,9.617,30.063,30.063,0,0,0-2,12.1c.1,4.113.822,8.435,3.365,11.8,5.206,6.893,14.737,5.718,22.413,5.718H362.333c3.932,0,8.113.367,12-.242a16.352,16.352,0,0,0,10.655-6.5c2.293-3.207,3.06-7.286,3.262-11.147a50.388,50.388,0,0,0-5.687-26.167,46.088,46.088,0,0,0-7.824-10.592c-1.812-1.835-4.64.994-2.829,2.829A43.207,43.207,0,0,1,383.632,262.5a46.651,46.651,0,0,1,.53,11.958c-.325,3.522-1.431,7.056-4.151,9.456a13.615,13.615,0,0,1-9.317,3.14H244.8c-2.226,0-4.509.133-6.728-.07-3.088-.284-6.058-1.07-8.227-3.409-2.454-2.647-2.985-6.592-3.069-10.04a25.611,25.611,0,0,1,2.042-11.436,16.868,16.868,0,0,1,8.022-8.119c3.366-1.64,7.306-2.186,10.958-2.869,3.745-.7,7.506-1.312,11.25-2.023a12.922,12.922,0,0,0,5.977-2.787c1.827-1.489,3.634-3,5.468-4.484,3.213-2.595,6.477-5.134,9.91-7.433a56.37,56.37,0,0,1,18.965-8.454,116.4,116.4,0,0,1,20.563-2.438,88.556,88.556,0,0,1,19.925,1.009c7.939,1.47,15.853,3.715,22.891,7.76a44.123,44.123,0,0,1,9.171,6.971C373.742,241.047,376.572,238.22,374.743,236.4Z"/><path class="b" d="M244.763,251.61a4.714,4.714,0,0,0,.954.206q.23.263.159.132a1.437,1.437,0,0,1-.147-.475c-.011,0-.205.641-.223.7a29.252,29.252,0,0,1-1.294,3.256c-.509,1.077-1.073,2.127-1.668,3.159a6.382,6.382,0,0,1-1.916,2.426,8.874,8.874,0,0,1-3.2.914,34.6,34.6,0,0,1-3.617.442c-2.414.181-4.834.183-7.253.217-2.572.035-2.579,4.035,0,4a89.792,89.792,0,0,0,9.132-.395c3.09-.36,6.622-.733,8.769-3.257a28.913,28.913,0,0,0,4.43-8.357c.561-1.478,1.31-3.154.433-4.667a4.97,4.97,0,0,0-3.492-2.156c-2.512-.525-3.586,3.33-1.064,3.858Z"/><path class="c" d="M312.341,272.13h-7.625a2.346,2.346,0,0,1-2.346-2.346v-23.85a2.347,2.347,0,0,1,2.346-2.346h7.625a14.272,14.272,0,0,1,14.271,14.271h0A14.271,14.271,0,0,1,312.341,272.13Z"/><path class="b" d="M312.341,270.13h-6.7c-.552,0-1.144.159-1.271-.376a6.413,6.413,0,0,1,0-1.343V246.657c0-.262-.053-.841.078-.964.413-.386,1.9-.105,2.394-.105a46.883,46.883,0,0,1,7.383.133,12.449,12.449,0,0,1,8.927,6.327,12.272,12.272,0,0,1-10.811,18.082c-2.573.031-2.58,4.032,0,4a16.275,16.275,0,0,0,8.4-30.208c-3.271-1.984-6.806-2.334-10.526-2.334-2.832,0-7.271-.825-9.095,1.929-1.074,1.62-.75,3.92-.75,5.778v18.056c0,.769-.025,1.544,0,2.313a4.458,4.458,0,0,0,4.346,4.466c2.53.119,5.091,0,7.625,0C314.914,274.13,314.919,270.13,312.341,270.13Z"/><path class="b" d="M328.089,259.859h10.468c3.99,0,8.545.584,12.123-1.535a11.157,11.157,0,0,0,5.421-9.5c0-2.574-4-2.578-4,0a7.1,7.1,0,0,1-4.011,6.36,9.279,9.279,0,0,1-4.216.677H328.089c-2.574,0-2.578,4,0,4Z"/><path class="b" d="M302.373,262.378H292.121a2,2,0,0,0,0,4h10.252a2,2,0,0,0,0-4Z"/><path class="b" d="M302.373,249.343H292.121a2,2,0,0,0,0,4h10.252a2,2,0,0,0,0-4Z"/><path class="b" d="M358.734,270.205a16.833,16.833,0,0,0-17.166,17.061c0,10.292,7.167,17.38,17.167,17.38,10.385,0,17.166-7.154,17.166-17.38A16.818,16.818,0,0,0,358.734,270.205Z"/><path class="a" d="M358.735,281.712a5.585,5.585,0,0,0-5.7,5.661,5.493,5.493,0,0,0,5.7,5.767,5.435,5.435,0,0,0,5.7-5.767A5.58,5.58,0,0,0,358.735,281.712Z"/><path class="b" d="M259.6,270.205a16.833,16.833,0,0,0-17.166,17.061c0,10.292,7.167,17.38,17.167,17.38,10.385,0,17.166-7.154,17.166-17.38A16.818,16.818,0,0,0,259.6,270.205Z"/><path class="a" d="M259.6,281.712a5.585,5.585,0,0,0-5.7,5.661,5.493,5.493,0,0,0,5.7,5.767,5.435,5.435,0,0,0,5.7-5.767A5.58,5.58,0,0,0,259.6,281.712Z"/><path class="a" d="M271.94,46.349V46.1a6.619,6.619,0,0,0-6.619-6.618h-27.5a6.653,6.653,0,0,0-5.781,3.335L220.09,63.5a16.125,16.125,0,0,0-2.152,8.039V93.327a6.676,6.676,0,0,0,6.683,6.67h41.446a5.877,5.877,0,0,0,5.877-5.876V92.942"/><rect class="a" x="272.145" y="17.478" width="114.847" height="82.52" rx="4.33"/><path class="b" d="M273.94,46.349a8.76,8.76,0,0,0-8.631-8.865c-1.585-.036-3.175,0-4.761,0h-18.89a35.859,35.859,0,0,0-5.121.112c-3.329.486-5.366,2.723-6.947,5.459l-9.073,15.7c-.934,1.617-1.973,3.219-2.771,4.911a21.939,21.939,0,0,0-1.808,9.646V91.4c0,2.82.22,5.456,2.216,7.7,2.435,2.742,5.663,2.893,9.049,2.893h38.06c2.962,0,5.707-1,7.4-3.583a9.486,9.486,0,0,0,1.278-5.472c0-2.574-4-2.578-4,0,0,1.568-.065,3.041-1.369,4.141A4.1,4.1,0,0,1,265.86,98c-1.4.013-2.8,0-4.2,0H228.637c-1.207,0-2.414,0-3.62,0a4.816,4.816,0,0,1-5.079-4.965c-.033-5.331,0-10.664,0-15.995,0-1.814-.012-3.629,0-5.443a16.061,16.061,0,0,1,2.448-8.074L230.83,48.9c.951-1.644,1.885-3.3,2.851-4.934,1.121-1.9,2.871-2.486,4.942-2.486H262.8c1.6,0,3.362-.211,4.8.6a4.718,4.718,0,0,1,2.335,4.26c0,2.574,4,2.578,4,0Z"/><path class="b" d="M270.145,22.108v70.22c0,1.176-.074,2.38.031,3.554.346,3.853,3.558,6.115,7.22,6.115h96.675c2.9,0,5.909.229,8.8-.031a6.721,6.721,0,0,0,6.115-6.6c.009-.293,0-.588,0-.881V22.818a12.726,12.726,0,0,0-.05-1.394,6.716,6.716,0,0,0-6.583-5.946c-.8-.024-1.6,0-2.4,0H289.266c-4,0-8-.013-11.992,0a6.815,6.815,0,0,0-7.129,6.63c-.095,2.575,3.905,2.571,4,0,.082-2.249,1.956-2.63,3.722-2.63h96.061c2.792,0,5.642-.168,8.43,0,2.434.147,2.633,2.152,2.633,4.021V94.63c0,1.745-.708,3.317-2.742,3.367-1.026.026-2.056,0-3.083,0H277.375c-1.708,0-3.182-.807-3.23-2.742-.034-1.34,0-2.685,0-4.025V22.108C274.145,19.534,270.145,19.53,270.145,22.108Z"/><path class="b" d="M347.626,81.909a16.648,16.648,0,0,0-16.977,16.873c0,10.179,7.088,17.189,16.978,17.189,10.271,0,16.978-7.075,16.978-17.189A16.634,16.634,0,0,0,347.626,81.909Z"/><path class="a" d="M347.627,93.289a5.524,5.524,0,0,0-5.634,5.6,5.433,5.433,0,0,0,5.634,5.7,5.376,5.376,0,0,0,5.633-5.7A5.518,5.518,0,0,0,347.627,93.289Z"/><path class="b" d="M247.4,81.909a16.648,16.648,0,0,0-16.977,16.873c0,10.179,7.088,17.189,16.978,17.189,10.271,0,16.978-7.075,16.978-17.189A16.633,16.633,0,0,0,247.4,81.909Z"/><path class="a" d="M247.4,93.289a5.524,5.524,0,0,0-5.633,5.6,5.432,5.432,0,0,0,5.633,5.7,5.376,5.376,0,0,0,5.634-5.7A5.519,5.519,0,0,0,247.4,93.289Z"/><path class="d" d="M229.9,63.48l7.661-13.269a4.787,4.787,0,0,1,4.147-2.394h17.733A4.787,4.787,0,0,1,264.23,52.6q0,3.693,0,7.387a4.766,4.766,0,0,1-3.665,4.648c-6.855,1.626-17.49,4.074-25.454,5.9A4.785,4.785,0,0,1,229.9,63.48Z"/><path class="b" d="M231.629,64.489,238,53.458c.9-1.557,1.631-3.546,3.712-3.641,1.405-.065,2.828,0,4.234,0,4.458,0,8.929-.1,13.386,0a2.841,2.841,0,0,1,2.544,1.428,5.63,5.63,0,0,1,.356,2.836q0,2.094,0,4.186c0,1.861.07,3.735-2.028,4.4-1.916.6-3.961.941-5.917,1.4q-7.662,1.788-15.332,3.545l-3.641.835a3.586,3.586,0,0,1-2.427-.019,2.819,2.819,0,0,1-1.257-3.933c1.212-2.27-2.239-4.293-3.454-2.019a6.864,6.864,0,0,0,5.3,10.166c2.309.215,4.9-.8,7.136-1.31q3.986-.915,7.969-1.837,3.855-.891,7.706-1.79c2.115-.494,4.65-.743,6.555-1.833a6.944,6.944,0,0,0,3.389-5.875c.068-1.635,0-3.289,0-4.925a15.7,15.7,0,0,0-.258-4.319c-.977-3.4-4.051-4.93-7.36-4.93H242.719c-2.892,0-5.362.9-6.948,3.5-2.64,4.315-5.066,8.774-7.6,13.155C226.886,64.7,230.341,66.72,231.629,64.489Z"/><path class="a" d="M61.584,217.388a8.355,8.355,0,0,0-8.52,8.468,8.216,8.216,0,0,0,8.52,8.626c5.155,0,8.521-3.551,8.521-8.626A8.348,8.348,0,0,0,61.584,217.388Z"/><path class="a" d="M58.227,177.679A271.983,271.983,0,0,0,50.108,203.7a9.9,9.9,0,0,0,.041,3.894c.5,2.681,5.505,7.853,7.566,10.066l.373.421a9.123,9.123,0,0,1,6.978-.007c0-.186,0-.3,0-.3v-41.3a3.1,3.1,0,0,0-6.012-1.074Q58.639,176.534,58.227,177.679Z"/><path class="a" d="M105.513,247.572A273.338,273.338,0,0,0,86.832,227.29a9.872,9.872,0,0,0-3.392-1.911c-2.572-.908-9.553.84-12.5,1.518,0,0-.384.119-.915.288a8.1,8.1,0,0,1-3.277,5.768l.416.251,35.767,20.651a3.1,3.1,0,0,0,3.937-4.67Q106.2,248.383,105.513,247.572Z"/><path class="a" d="M21.511,253.06c8.684-1.563,17.875-3.5,26.423-5.951a9.856,9.856,0,0,0,3.351-1.982c2.072-1.774,4.049-8.693,4.935-11.585,0,0,.073-.263.178-.656a8.238,8.238,0,0,1-3.286-6.02l-.465.252-35.768,20.65a3.1,3.1,0,0,0,2.076,5.744Q20.224,253.292,21.511,253.06Z"/><path class="b" d="M79.147,282.2V302.65c0,2.574,4,2.579,4,0V282.2c0-2.574-4-2.578-4,0Z"/><path class="d" d="M85.567,273.521l.025-.044H19.953L1.991,304.588h65.64Z"/><path class="b" d="M87.294,274.53l.025-.043a2.019,2.019,0,0,0-1.727-3.01H19.953a2.013,2.013,0,0,0-1.727.991L.264,303.578a2.02,2.02,0,0,0,1.727,3.01h65.64a2.013,2.013,0,0,0,1.727-.991L87.294,274.53c1.29-2.233-2.166-4.25-3.454-2.018L65.9,303.578l1.727-.99H1.991L3.718,305.6l17.962-31.11-1.727.99H85.592l-1.727-3.009-.025.044C82.551,274.745,86.006,276.761,87.294,274.53Z"/><path class="b" d="M29.941,281.015l-7.106,12.307a2,2,0,0,0,3.454,2.019l7.1-12.307a2,2,0,1,0-3.453-2.019Z"/><path class="b" d="M44.823,281.015l-7.1,12.307a2,2,0,1,0,3.453,2.019l7.106-12.307a2,2,0,1,0-3.454-2.019Z"/><path class="b" d="M59.706,281.015,52.6,293.322a2,2,0,0,0,3.454,2.019l7.106-12.307a2,2,0,1,0-3.454-2.019Z"/><path class="b" d="M21.825,290.178H64.737c2.574,0,2.578-4,0-4H21.825c-2.574,0-2.578,4,0,4Z"/><path class="b" d="M157.094,282.2V302.65c0,2.574,4,2.579,4,0V282.2c0-2.574-4-2.578-4,0Z"/><path class="d" d="M163.514,273.521l.025-.044H97.9L79.938,304.588h65.64Z"/><path class="b" d="M165.241,274.53l.025-.043a2.019,2.019,0,0,0-1.727-3.01H97.9a2.013,2.013,0,0,0-1.727.991l-17.962,31.11a2.02,2.02,0,0,0,1.727,3.01h65.64a2.013,2.013,0,0,0,1.727-.991l17.936-31.067c1.29-2.233-2.166-4.25-3.454-2.018l-17.936,31.066,1.727-.99H79.938l1.727,3.009,17.962-31.11-1.727.99h65.639l-1.727-3.009-.025.044C160.5,274.745,163.953,276.761,165.241,274.53Z"/><path class="b" d="M107.888,281.015l-7.106,12.307a2,2,0,0,0,3.454,2.019l7.1-12.307a2,2,0,1,0-3.453-2.019Z"/><path class="b" d="M122.77,281.015l-7.106,12.307a2,2,0,0,0,3.454,2.019l7.106-12.307a2,2,0,1,0-3.454-2.019Z"/><path class="b" d="M137.653,281.015l-7.106,12.307A2,2,0,0,0,134,295.341l7.106-12.307a2,2,0,1,0-3.454-2.019Z"/><path class="b" d="M99.772,290.178h42.912c2.574,0,2.578-4,0-4H99.772c-2.574,0-2.578,4,0,4Z"/><path class="e" d="M145.662,208.814a12.28,12.28,0,0,0-17.825,0,43.154,43.154,0,0,0-8.589,13.5,34.1,34.1,0,0,0-1.947,6.515,54.5,54.5,0,0,0-.666,6.444c-.241,3.8-.461,7.742.911,11.3a13.729,13.729,0,0,0,6.5,7.175c2.938,1.5,9.414,2.3,12.7,2.3,2.482,0,9.767-.8,12.7-2.3a13.731,13.731,0,0,0,6.5-7.175c1.372-3.554,1.151-7.5.91-11.3a54.494,54.494,0,0,0-.665-6.444,34.171,34.171,0,0,0-1.948-6.515A43.142,43.142,0,0,0,145.662,208.814Z"/><path class="b" d="M147.537,207.9c-3.922-4.184-10.017-6.256-15.538-4.156-4.95,1.882-8.4,6.485-11.069,10.862a46,46,0,0,0-6.034,16.591c-.912,5.624-1.216,11.811,1.229,17.111,3.894,8.439,14.236,10.192,22.573,9.648,4.406-.287,9.064-.937,12.834-3.4a16.481,16.481,0,0,0,7.069-10.826,40.244,40.244,0,0,0-1.4-18.716,44.8,44.8,0,0,0-9.664-17.112c-1.729-1.914-4.551.922-2.828,2.829a40.755,40.755,0,0,1,10.377,27.92c-.072,3.791-.771,7.741-3.435,10.623-2.616,2.828-6.274,3.9-9.985,4.4-6.593.886-15.328.88-20.2-4.435-3.006-3.282-3.384-8.161-3.19-12.4a43.636,43.636,0,0,1,3.352-14.889,41.393,41.393,0,0,1,4.4-7.827,22.565,22.565,0,0,1,4.779-5.231c4.525-3.317,10.205-2.1,13.894,1.838C146.473,212.607,149.3,209.774,147.537,207.9Z"/><path class="b" d="M134.668,230.476v31.6c0,2.574,4,2.578,4,0v-31.6c0-2.574-4-2.578-4,0Z"/><path class="b" d="M142.866,234.257l-7.612,6.388a2.007,2.007,0,0,0,0,2.828,2.053,2.053,0,0,0,2.828,0l7.613-6.387a2.01,2.01,0,0,0,0-2.829,2.054,2.054,0,0,0-2.829,0Z"/><path class="b" d="M127.641,243.473l7.613,6.388a2.142,2.142,0,0,0,1.414.586,2,2,0,0,0,1.414-3.414l-7.613-6.388a2.137,2.137,0,0,0-1.414-.586,2,2,0,0,0-1.414,3.414Z"/><path class="b" d="M67.065,217.782V187.823c0-3.76.127-7.544,0-11.3a5.177,5.177,0,0,0-7.782-4.417c-2.217,1.363-2.756,4.389-3.566,6.667q-1.662,4.668-3.195,9.382c-1.075,3.321-2.092,6.662-3.026,10.026-.911,3.281-2.024,6.52-1.275,9.95.479,2.2,2.12,4.135,3.5,5.831,1.445,1.779,3.019,3.444,4.581,5.119,1.759,1.886,4.583-.947,2.828-2.829-1.256-1.346-2.519-2.685-3.717-4.084a17.179,17.179,0,0,1-3.2-4.575c-.737-1.906.1-4.476.647-6.528q1.135-4.242,2.442-8.436t2.73-8.366q.682-2,1.389-3.989a25.011,25.011,0,0,1,1.563-4.334c.7-1.179,2.073-.563,2.084.871.075,9.913,0,19.83,0,29.743v11.23c0,2.573,4,2.578,4,0Z"/><path class="b" d="M61.584,215.388a10.513,10.513,0,0,0-10.046,7.3,10.847,10.847,0,0,0,3.4,11.576,11.277,11.277,0,0,0,12.188.817c3.85-2.2,5.46-6.755,4.823-11a10.448,10.448,0,0,0-10.362-8.693c-2.575-.033-2.576,3.967,0,4a6.38,6.38,0,0,1,6.251,4.564,6.92,6.92,0,0,1-2.059,7.247c.281-.229-.238.163-.24.165-.113.074-.228.146-.344.215-.176.1-.357.2-.541.29-.583.292.168-.052-.191.088a7.663,7.663,0,0,1-2.163.5,7.363,7.363,0,0,1-4.027-.755,5.677,5.677,0,0,1-2.568-2.723,8.691,8.691,0,0,1-.581-2.016c.014.094.027.281-.015-.156-.022-.236-.034-.474-.039-.711-.005-.2,0-.389,0-.583,0-.08.056-.713.024-.474a7.08,7.08,0,0,1,.682-2.211,5.682,5.682,0,0,1,1.38-1.808,7.924,7.924,0,0,1,1.711-1.109,6.824,6.824,0,0,1,2.716-.525C64.156,219.355,64.163,215.355,61.584,215.388Z"/><path class="b" d="M66.153,234.931l25.453,14.695c3.4,1.962,6.753,4.031,10.206,5.892a5.107,5.107,0,0,0,7.786-4.66,5.944,5.944,0,0,0-1.609-3.437c-.977-1.189-1.983-2.356-2.983-3.526q-3.074-3.593-6.243-7.1-3.513-3.879-7.182-7.617c-2.3-2.329-4.522-4.867-7.792-5.783-2.125-.595-4.531-.171-6.659.169-2.262.361-4.491.892-6.722,1.408-2.508.579-1.446,4.437,1.063,3.857,3.419-.79,7.147-1.973,10.692-1.68a6.761,6.761,0,0,1,2.066.75,14.942,14.942,0,0,1,3.194,2.772q3.027,3.011,5.931,6.141c3.961,4.255,7.766,8.647,11.513,13.09.382.454.9.942.71,1.568a1.173,1.173,0,0,1-1.216.821,2.715,2.715,0,0,1-.875-.423l-25.88-14.941-9.434-5.447c-2.233-1.289-4.25,2.166-2.019,3.454Z"/><path class="b" d="M51.637,225.391,25.692,240.37c-3.255,1.88-6.6,3.66-9.787,5.651-3.32,2.073-3.49,7.183.226,9.015,2.367,1.167,5.386.054,7.819-.4q4.8-.888,9.577-1.905c3.36-.721,6.708-1.5,10.035-2.362,3.258-.843,6.571-1.5,9.137-3.833,1.662-1.513,2.528-3.9,3.308-5.941.817-2.141,1.473-4.337,2.142-6.526.754-2.468-3.106-3.523-3.857-1.064-.538,1.761-1.066,3.524-1.678,5.261a17.307,17.307,0,0,1-2.355,5.056c-1.293,1.616-3.91,2.165-5.965,2.717q-4.174,1.12-8.391,2.074t-8.477,1.8c-2.831.56-5.7,1.231-8.561,1.591-1.641.2-2.13-1.331-.692-2.176,8.546-5.024,17.173-9.915,25.758-14.872l9.725-5.614c2.229-1.287.217-4.745-2.019-3.454Z"/><path class="b" d="M63.593,262.076q-.009-13.22-.018-26.438c0-2.574-4-2.578-4,0q0,13.219.018,26.438c0,2.574,4,2.578,4,0Z"/><path class="a" d="M145.792,83.238V25.668a1,1,0,0,0-1.356-.94L81.479,47.654V17.9a1.024,1.024,0,0,0-1.373-.962Q48.987,28.262,17.847,39.6a1.029,1.029,0,0,0-.676.967v69.652a1,1,0,0,0,1,1.007h126.6a1.012,1.012,0,0,0,1.018-1.015Z"/><path class="f" d="M45.9,4.485V29.377q-8.9,3.255-17.829,6.5V4.475a2.456,2.456,0,0,1,2.456-2.456H43.429A2.466,2.466,0,0,1,45.9,4.485Z"/><path class="f" d="M80.173,108.73V71.6a1.013,1.013,0,0,1,1.013-1.013h45.987v40.643h-47Z"/><path class="b" d="M147.792,83.238V28.6c0-1.714.387-3.893-1.017-5.171-1.729-1.575-4.087-.189-5.9.472l-6.3,2.293-25.183,9.17L80.947,45.726l2.532,1.928V19.538c0-1.241.154-2.593-.742-3.6-1.751-1.967-4.195-.557-6.2.175l-7.255,2.641L54.765,24.039l-28.557,10.4-7.255,2.641c-1.863.678-3.633,1.225-3.782,3.5-.028.416,0,.843,0,1.26v50.4c0,5.887-.169,11.8,0,17.686.063,2.225,1.56,3.3,3.7,3.3H140.006c2.322,0,6.554.8,7.562-1.922a9.375,9.375,0,0,0,.224-3.2V83.238c0-2.574-4-2.578-4,0V108.95a5.113,5.113,0,0,0,0,.842c-.221-.19,1.241-.327.586-.566a5.1,5.1,0,0,0-1.429,0H20.116a6.347,6.347,0,0,0-1.445,0c-.957.255.859.739.5.989.006,0-.006-.033,0-.038.048-.049,0-.4,0-.467V42.581a10.9,10.9,0,0,0,0-1.816c-.008-.044.018-.115,0-.155,0-.01,0-.026,0-.035v-.007q-.773,1.052-.09.705l.468-.17,7.02-2.555,13.809-5.027L68,23.465l7.021-2.556L78.3,19.716l1.638-.6c.131-.048.623-.147.7-.255q-1.159-1.719-1.158-.96v.011a8.446,8.446,0,0,0,0,2.5V47.654a2.015,2.015,0,0,0,2.531,1.929l49.433-18,6.762-2.462,3.5-1.274a24.273,24.273,0,0,1,3.593-1.251h-1.063c-.383-.053-.2-.81-.441-.347a1.963,1.963,0,0,0,0,.583V83.238C143.792,85.812,147.792,85.816,147.792,83.238Z"/><path class="d" d="M38.717,63.5H60.073A1.023,1.023,0,0,1,61.1,64.526V80.572a1.02,1.02,0,0,1-1.02,1.022l-21.365,0a1.019,1.019,0,0,1-1.017-1.024V64.526A1.023,1.023,0,0,1,38.717,63.5Z"/><path class="b" d="M38.717,65.5h20.55a2.2,2.2,0,0,0,.687,0c.37-.189-.871-.867-.858-.886-.081.122,0,.579,0,.718V79.273a7.431,7.431,0,0,0,0,1.023c.011.072-.022.167,0,.236-.18-.555,1.331-.938.205-.938H39.933a3.952,3.952,0,0,0-.916,0c-.586.158.577,1.239.677.936a2.487,2.487,0,0,0,0-.662V65.036c0-1.107.085.324-.445.395a2.012,2.012,0,0,0,1.4-2.46,2.055,2.055,0,0,0-2.46-1.4c-3.218.433-2.492,4.773-2.492,7.043v9.747c0,.729-.039,1.469,0,2.2a3.11,3.11,0,0,0,1.736,2.725,6.594,6.594,0,0,0,2.926.31H58.337c1.336,0,2.857.169,3.875-.886.922-.954.884-2.1.884-3.3V65.963a6.082,6.082,0,0,0-.309-2.718c-1.138-2.307-4.232-1.742-6.363-1.742H38.717C36.143,61.5,36.139,65.5,38.717,65.5Z"/><path class="b" d="M82.172,108.735V72.162q.115-.972-.979.421a2.488,2.488,0,0,0,.756,0h45.225l-2-2V110.7c0,2.574,4,2.578,4,0V70.583a2.028,2.028,0,0,0-2-2h-45c-.32,0-.647-.021-.967,0a3.134,3.134,0,0,0-2.565,1.4c-.659,1.059-.47,2.444-.47,3.639v35.109c0,2.574,4,2.578,4,0Z"/><path class="b" d="M30.062,35.882V5.553a4.3,4.3,0,0,1,0-1.076c.2-.662.986-.46,1.557-.46H40.93a9.7,9.7,0,0,1,2.5,0c.555.174.465.578.465,1.07V29.392c0,2.574,4,2.578,4,0V5.364a6.173,6.173,0,0,0-.466-2.855A4.71,4.71,0,0,0,42.956.017c-3.1-.032-6.205,0-9.306,0-1.022,0-2.052-.038-3.073,0a4.558,4.558,0,0,0-4.515,4.462c-.206,4.841,0,9.735,0,14.579V35.882c0,2.574,4,2.578,4,0Z"/><path class="b" d="M81.118,86.13H125.47c2.574,0,2.578-4,0-4H81.118c-2.574,0-2.578,4,0,4Z"/><path class="b" d="M81.459,99.678h42.988c2.574,0,2.578-4,0-4H81.459c-2.574,0-2.578,4,0,4Z"/></svg>