<svg id="b" xmlns="http://www.w3.org/2000/svg" width="174.795" height="236.269" viewBox="0 0 174.795 236.269" style="color: initial !important;"><defs><style>.d{fill:#3d8dcc;}.e{fill:#ffffff;}.f{fill:#211715;}</style></defs><g id="c"><path class="d" d="M117.89,48.271c1.055,0,2.105.018,3.151.051.602-.01,1.195-.022,1.807-.029V11.086c0-3.532-1.766-7.419-4.724-8.29-2.775-.814-5.687-.31-7.419.952-1.731,1.261-4.002,3.669-4.942,5.596-6.088,12.502-8.607,25.788-9.483,39.648,6.727-.492,13.742-.719,21.61-.719Z"/><path class="f" d="M98.623,49.922c.407-6.934,1.215-13.835,2.752-20.615.768-3.385,1.708-6.732,2.844-10.013,1.085-3.134,2.25-6.464,3.936-9.336,1.224-2.085,3.307-4.452,5.748-5.01,2.596-.593,4.784.224,5.851,2.675,1.163,2.67.694,5.952.694,8.785v32.001c0,3.089,4.8,3.094,4.8,0V15.979c0-3.631.261-7.231-1.276-10.62-1.477-3.258-4.223-4.997-7.728-5.314-3.707-.335-6.769,1.256-9.312,3.822-2.658,2.682-4.093,5.914-5.519,9.355-1.476,3.561-2.706,7.221-3.709,10.942-2.264,8.402-3.372,17.085-3.881,25.758-.181,3.086,4.62,3.075,4.8,0h0Z"/><path class="e" d="M16.361,155.216c12.188,14.207,32.144,21.87,50.513,25.47,17.381,3.416,31.628,4.765,51.016,4.765s37.689-5.344,46.351-25.214c6.349-14.563,8.154-26.118,8.154-43.377H2.395c.023,13.702,4.621,27.462,13.966,38.355Z"/><path class="d" d="M170.699,94.162c-1.245-6.866-3.283-13.396-6.458-20.677-.382-.876-.789-1.714-1.208-2.534-.092-.181-.184-.362-.278-.54-.417-.791-.848-1.56-1.299-2.299-.068-.112-.141-.219-.21-.331-.415-.666-.843-1.31-1.285-1.935-.093-.133-.185-.268-.28-.399-.489-.674-.993-1.324-1.512-1.95-.11-.133-.222-.261-.333-.391-.492-.578-.994-1.138-1.511-1.675-.06-.062-.117-.128-.177-.19-.561-.575-1.139-1.121-1.727-1.65-.134-.12-.269-.239-.404-.357-.595-.52-1.2-1.024-1.822-1.5-.049-.037-.099-.072-.148-.109-.591-.448-1.196-.873-1.809-1.284-.139-.093-.278-.188-.418-.279-.644-.419-1.298-.819-1.964-1.198-.122-.069-.246-.135-.369-.203-.609-.338-1.226-.661-1.852-.968-.116-.057-.231-.117-.348-.173-.695-.333-1.4-.645-2.115-.941-.158-.065-.317-.128-.475-.192-.703-.282-1.412-.553-2.132-.802-.036-.012-.071-.026-.107-.039-.749-.257-1.509-.492-2.275-.715-.171-.05-.343-.1-.515-.148-.759-.213-1.525-.413-2.299-.595-.1-.023-.2-.044-.3-.066-.713-.163-1.433-.312-2.158-.451-.161-.031-.32-.063-.481-.092-.785-.143-1.577-.273-2.374-.388-.057-.008-.113-.02-.17-.028,0,.002,0,.003.001.005-3.897-.556-7.922-.795-12-.795-19.388,0-33.635,1.35-51.016,4.765-18.369,3.6-38.324,11.264-50.513,25.47-9.345,10.893-13.943,24.652-13.966,38.355h54.965c2.206,0,4.008,1.759,4.062,3.964l.004.18c1.019,9.3,11.866,10.228,11.866,10.228,6.039.142,15.151,2.068,18.688-4.797.611-1.186.901-2.502,1.006-3.831.13-1.649.325-3.632.443-5.744h27.339c10.2,0,18.281,8.585,17.705,18.769-.944,16.683-3.447,33.289-8.586,49.035,11.034-1.574,21.033-5.716,28.225-14.357,2.368-2.846,4.432-6.179,6.129-10.07,6.349-14.563,8.154-26.118,8.154-43.377,0-8.63-.451-15.833-1.696-22.7Z"/><path class="d" d="M117.89,185.452c-7.819,0-14.796-.224-21.485-.71l-.182,1.628c.814,14.195,3.314,27.794,9.54,40.579.94,1.926,3.211,4.334,4.942,5.596,1.731,1.261,4.644,1.766,7.419.952,2.958-.871,4.724-4.758,4.724-8.29v-37.323l.034-2.454c-.627-.007-1.235-.02-1.852-.029-1.043.033-2.089.052-3.141.052Z"/><path class="f" d="M93.823,186.37c.453,7.719,1.38,15.44,3.174,22.969.874,3.668,1.956,7.286,3.271,10.82,1.303,3.501,2.634,7.344,4.953,10.311,2.021,2.585,4.621,5.053,7.972,5.611,3.579.596,7.271-.16,9.56-3.14,2.154-2.804,2.495-6.14,2.495-9.556v-35.501c0-3.089-4.8-3.094-4.8,0v34.61c0,1.51.139,3.079-.195,4.561-.531,2.353-1.701,4.191-4.216,4.413-3.026.266-4.945-1.436-6.799-3.619-2.007-2.363-3.1-5.68-4.184-8.546-1.204-3.183-2.217-6.436-3.057-9.733-1.936-7.599-2.914-15.379-3.373-23.198-.18-3.07-4.981-3.091-4.8,0h0Z"/><path class="f" d="M174.795,116.862c-.008-8.748-.48-17.533-2.331-26.106-.864-4.001-2.027-7.932-3.438-11.773-1.472-4.008-3.082-8.042-5.273-11.718-3.748-6.291-9.117-11.509-15.577-14.972-6.392-3.427-13.481-5.145-20.651-5.927-8.608-.939-17.421-.55-26.049-.104-9.02.467-18.003,1.463-26.912,2.945-16.84,2.802-33.874,7.296-48.088,17.145-7.164,4.964-13.282,11.205-17.776,18.699-4.646,7.746-7.414,16.481-8.364,25.446-1.883,17.781,4.201,36.295,16.786,49.089,11.884,12.081,28.521,18.77,44.778,22.494,17.791,4.075,36.07,5.692,54.293,5.769,14.545.061,29.912-2.353,40.818-12.835,5.925-5.695,9.388-13.024,12.152-20.647,2.831-7.806,4.464-15.921,5.15-24.189.368-4.428.478-8.873.482-13.315.003-3.089-4.797-3.094-4.8,0-.008,8.322-.4,16.673-2.159,24.83-1.638,7.597-4.173,15.468-8.135,22.189-3.41,5.785-8.288,10.431-14.23,13.557-5.834,3.069-12.432,4.6-18.961,5.225-8.353.8-16.884.429-25.248-.012-8.45-.445-16.864-1.346-25.213-2.728-16.164-2.676-32.398-6.82-46.183-16.038-6.762-4.522-12.559-10.316-16.803-17.275-4.35-7.133-7.096-15.274-7.948-23.589-1.72-16.779,3.869-34.093,15.942-46.033,11.429-11.302,27.26-17.381,42.687-20.846,16.981-3.814,34.349-5.36,51.729-5.465,13.412-.081,27.861,1.631,38.025,11.312,5.482,5.222,8.653,11.982,11.172,19.017,2.653,7.411,4.253,15.096,4.877,22.938.342,4.296.446,8.607.45,12.916.003,3.088,4.803,3.094,4.8,0Z"/><path class="f" d="M67.139,113.581c2.494-3.872,5.146-8.061,9.03-10.693,3.588-2.431,9.422-3.807,12.522.163,2.613,3.347,2.551,8.417,2.404,12.443-.079,2.156-.259,4.31-.454,6.458-.203,2.232-.941,4.537-2.93,5.784-4.116,2.581-9.859,1.226-14.417,1.099-3.09-.086-3.088,4.714,0,4.8,5.381.15,11.139,1.212,16.151-1.362,5.787-2.972,6.048-9.538,6.378-15.255.303-5.241.292-11.304-2.643-15.887-3.733-5.829-11.105-6.471-16.994-3.765-5.926,2.724-9.776,8.492-13.19,13.792-1.678,2.604,2.475,5.014,4.145,2.423h0Z"/><path class="f" d="M131.013,61.912c3.39,14.247,4.928,28.843,5.378,43.464.446,14.499.187,29.095-1.419,43.519-.909,8.17-2.318,16.282-4.288,24.264-.74,2.999,3.888,4.278,4.629,1.276,3.566-14.451,5.26-29.322,5.813-44.18s.329-29.751-1.252-44.497c-.906-8.45-2.264-16.852-4.232-25.122-.715-3.004-5.344-1.732-4.629,1.276h0Z"/><path class="f" d="M24.064,101.635c-.771-2.801-.034-9.158,5.216-9.523,6.916.276,7.063,7.997,4.63,11.543-1.992,2.903-7.633,3.947-9.846-2.02Z"/><path class="e" d="M3.947,116.756c2.83-.172,5.634,1.892,6.311,4.645.677,2.753-.85,5.883-3.437,7.043"/><path class="f" d="M3.947,119.156c.334-.015.664.038.994.03-.573.014-.203-.021.014.03.161.038.321.083.478.134l.157.053c.245.094.208.074-.111-.058.132.005.338.161.447.22.122.066.242.136.359.21.064.04.558.329.236.144-.309-.177.137.12.207.182.123.112.242.228.357.348.055.058.269.223.276.31-.202-.27-.226-.301-.072-.091l.094.137c.174.261.285.633.48.868-.121-.295-.15-.358-.087-.189.029.078.056.156.08.236.049.157.091.316.125.477l.031.157c.043.264.037.21-.019-.164-.008.002.026.456.026.477.002.133-.002.265-.009.398-.004.08-.009.159-.017.238-.024.212-.023.211.003-.003.03-.214.026-.215-.009-.004-.015.078-.032.156-.052.234-.031.13-.065.258-.104.386-.012.04-.105.443-.157.454.142-.326.16-.37.052-.132l-.07.144c-.145.288-.315.556-.493.824-.3.452.349-.38-.017.018-.108.118-.213.237-.326.35s-.235.215-.352.323c-.341.315.411-.242-.022.01-.279.162-.542.329-.836.466-1.141.532-1.518,2.264-.861,3.284.758,1.175,2.063,1.43,3.284.861,3.527-1.645,5.378-5.865,4.576-9.597-.829-3.856-4.764-6.74-8.662-6.564-1.252.057-2.46,1.063-2.4,2.4.056,1.252,1.057,2.461,2.4,2.4h0Z"/><path class="f" d="M158.277,85.482c2.751-.467,5.502-.935,8.253-1.402.559-.095,1.159-.633,1.434-1.103.301-.514.429-1.273.242-1.849-.433-1.339-1.622-1.902-2.952-1.676l-.08.014c-.559.095-1.159.633-1.434,1.103-.301.514-.429,1.273-.242,1.849.433,1.339,1.622,1.902,2.952,1.676l.08-.014-1.276-4.629c-2.751.467-5.502.935-8.253,1.402-.559.095-1.159.633-1.434,1.103-.301.514-.429,1.273-.242,1.849.433,1.339,1.622,1.902,2.952,1.676h0Z"/><path class="f" d="M157.001,152.87l8.253,1.402,1.276-4.629-.08-.014c-.653-.111-1.258-.104-1.849.242-.498.291-.973.862-1.103,1.434-.265,1.162.353,2.727,1.676,2.952l.08.014c.653.111,1.258.104,1.849-.242.498-.291.973-.862,1.103-1.434.265-1.162-.353-2.727-1.676-2.952l-8.253-1.402c-.653-.111-1.258-.104-1.849.242-.498.291-.973.862-1.103,1.434-.265,1.162.353,2.727,1.676,2.952h0Z"/><path class="f" d="M163.511,119.262h8.292c1.255,0,2.458-1.104,2.4-2.4s-1.055-2.4-2.4-2.4h-.08c-1.255,0-2.458,1.104-2.4,2.4s1.055,2.4,2.4,2.4h.08v-4.8h-8.292c-1.255,0-2.458,1.104-2.4,2.4s1.055,2.4,2.4,2.4h0Z"/></g></svg>