<svg width="128" height="113" xmlns="http://www.w3.org/2000/svg">
 <g id="Layer_1">
  <title>Layer 1</title>
  <g stroke="null">

   <g stroke="null" id="svg_30">
    <path stroke="null" fill="#f2635f" d="m169.23075,34.89928c-1.03219,0 -2.04941,0.0374 -3.05168,0.11219l-0.00748,-0.09723c1.04715,-2.30372 2.09429,-4.61492 3.14144,-6.91864c3.08908,-6.79897 6.17068,-13.59793 9.25976,-20.40438l18.87853,0c-4.55508,10.03764 -9.10268,20.06031 -13.65777,30.09047c-4.38305,-1.78763 -9.27472,-2.78241 -14.5628,-2.78241z" class="h"/>
    <path stroke="null" fill="#ffffff" d="m169.31302,27.9956c-1.04715,2.30372 -2.09429,4.61492 -3.14144,6.91864l0.00748,0.09723c-4.12874,0.30666 -7.98822,1.23414 -11.51112,2.68518c-4.5476,-10.03764 -9.10268,-20.07527 -13.65777,-30.10543l18.87853,0c3.07412,6.76905 6.14076,13.53809 9.21488,20.30714l0.20943,0.09723z" class="d"/>
    <path stroke="null" fill="#201614" d="m156.68146,37.81483c-4.70318,-10.37871 -9.40935,-20.75592 -14.1215,-31.13014l-1.54978,2.70089l18.87853,0l-1.54978,-0.88933c3.07337,6.7683 6.14151,13.53884 9.21488,20.30714c0.40091,0.88259 1.68067,1.09726 2.4563,0.64399c0.90728,-0.53105 1.0464,-1.56997 0.64399,-2.4563c-3.07337,-6.7683 -6.14151,-13.53884 -9.21488,-20.30714c-0.25431,-0.55798 -0.96861,-0.88858 -1.55052,-0.88858l-18.87853,0c-1.466,0 -2.09579,1.49966 -1.54978,2.70089c4.71215,10.37422 9.41832,20.75143 14.1215,31.13014c0.40016,0.88334 1.68067,1.09726 2.4563,0.64399c0.90802,-0.53105 1.04565,-1.56997 0.64399,-2.4563l0,0l-0.00075,0.00075z" class="g"/>
    <path stroke="null" fill="#201614" d="m167.72136,35.81927c4.13473,-9.10717 8.26646,-18.21584 12.40119,-27.32301l-1.54978,0.88933l18.87853,0l-1.54978,-2.70089c-4.74731,10.45874 -9.49088,20.91897 -14.24118,31.37696c-0.40091,0.88185 -0.25281,1.93124 0.64399,2.4563c0.7704,0.45027 2.05315,0.24309 2.4563,-0.64399c4.7503,-10.45799 9.49387,-20.91822 14.24118,-31.37696c0.54526,-1.20197 -0.08377,-2.70089 -1.54978,-2.70089l-18.87853,0c-0.58191,0 -1.29622,0.3306 -1.54978,0.88933c-4.13473,9.10717 -8.26646,18.21584 -12.40119,27.32301c-0.40016,0.88185 -0.25281,1.93124 0.64399,2.4563c0.7704,0.45027 2.05315,0.24309 2.4563,-0.64399l0,0l-0.0015,-0.0015z" class="g"/>
    <path stroke="null" fill="#cfcfcf" d="m169.22925,34.89704c-21.69087,0 -36.68375,16.74759 -36.68375,36.34417c0,21.92648 15.31525,37.02631 36.68524,37.02631c22.1935,0 36.68524,-15.24045 36.68524,-37.02631c0,-19.73046 -15.07216,-36.34417 -36.68674,-36.34417z" class="i"/>
    <path stroke="null" fill="#201614" d="m169.22925,33.10193c-8.34425,0.02767 -16.68327,2.47949 -23.37976,7.53795c-6.34047,4.78919 -11.02345,11.45128 -13.37354,19.04832c-4.66503,15.08114 0.01646,32.92823 12.69215,42.65846c6.16619,4.7331 13.77071,7.19239 21.48742,7.64192c7.97401,0.46448 16.22627,-1.08978 23.18081,-5.11456c6.36814,-3.6852 11.43782,-9.41384 14.37057,-16.1567c3.20651,-7.37415 4.21551,-15.6997 3.01503,-23.64379c-1.1743,-7.77505 -4.84006,-15.14995 -10.35702,-20.75666c-5.62018,-5.71143 -13.09829,-9.46619 -21.00798,-10.68537c-2.19601,-0.33883 -4.40549,-0.52133 -6.62768,-0.52881c-2.31045,-0.00748 -2.31344,3.58273 0,3.59021c7.67258,0.02543 15.15668,2.27829 21.34531,6.86553c5.66431,4.19905 9.86112,10.31737 11.94194,17.03406c4.16315,13.43861 0.42858,29.61103 -10.65171,38.57459c-5.3741,4.34715 -12.33088,6.67929 -19.23531,7.18342c-7.32703,0.53554 -14.82907,-0.67316 -21.30193,-4.24842c-6.01136,-3.3202 -10.72277,-8.46019 -13.6271,-14.68621c-3.06888,-6.57757 -4.09284,-14.43639 -2.96342,-21.59737c1.11895,-7.09591 4.3292,-13.77071 9.36821,-18.91294c5.15869,-5.2649 11.91726,-8.59332 19.17398,-9.76762c1.96564,-0.31788 3.96045,-0.43831 5.95003,-0.44504c2.3097,-0.00748 2.31419,-3.59769 0,-3.59021l0,-0.00075z" class="g"/>
    <path stroke="null" fill="#201614" d="m169.2315,42.68181c-6.21556,0.02767 -12.44383,1.83026 -17.44619,5.58428c-4.79144,3.59545 -8.33677,8.57911 -10.12964,14.30251c-3.52589,11.25457 -0.08302,24.68944 9.36971,32.00001c9.3353,7.22007 23.51514,7.9037 33.68816,2.00454c10.34654,-6.00014 14.77672,-18.41929 13.04294,-29.91844c-1.81381,-12.02796 -11.49092,-21.72153 -23.51066,-23.5675c-1.66272,-0.25505 -3.33142,-0.39866 -5.01358,-0.40614c-2.31045,-0.01047 -2.31344,3.57974 0,3.59021c5.5753,0.02468 11.0212,1.64851 15.51495,4.99488c4.09209,3.04719 7.12807,7.47138 8.63147,12.33313c3.02625,9.78857 0.30218,21.50463 -7.7399,28.02086c-7.87678,6.3816 -20.4702,6.9897 -29.31184,2.15338c-9.23956,-5.05397 -13.70414,-15.97719 -12.13791,-26.26016c0.78536,-5.15719 3.10479,-10.02417 6.75035,-13.76996c3.75402,-3.85649 8.66662,-6.28063 13.96219,-7.14901c1.4301,-0.23486 2.88339,-0.31564 4.33069,-0.32162c2.3097,-0.01047 2.31419,-3.60068 0,-3.59021l-0.00075,-0.00075z" class="g"/>
    <path stroke="null" fill="#201614" d="m167.05044,63.77431c-0.75694,1.50191 -1.51387,3.00381 -2.27081,4.50572c-0.71281,1.41439 -1.31566,3.07936 -2.2379,4.3636l0.64399,-0.64399l0.9357,0.0733c-0.18026,-0.16006 -0.36052,-0.32088 -0.54003,-0.48243c-0.26927,-0.24234 -0.53704,-0.48543 -0.80481,-0.73001c-0.44504,-0.40764 -0.88708,-0.81827 -1.32613,-1.23189c-1.04266,-0.98282 -2.02847,-2.25735 -3.21698,-3.05841c-1.00451,-0.6769 -2.37478,-0.57144 -3.22371,0.32835c-1.09801,1.16458 -0.52956,2.7495 -0.27899,4.13174c0.50413,2.77793 1.00825,5.5566 1.51238,8.33453c0.24084,1.32913 0.48169,2.65751 0.72253,3.98663c0.28497,1.57221 0.85492,2.85123 2.62235,2.98511c1.34334,0.10172 2.73081,0 4.07938,0c1.48321,0 2.96641,0 4.44962,0c2.843,0 5.686,0 8.529,0c1.29696,0 2.91331,0.28946 3.94624,-0.68962c0.99479,-0.94243 0.99778,-2.83028 1.22965,-4.10705c0.50413,-2.77867 1.0075,-5.5566 1.51163,-8.33528c0.14211,-0.78536 0.28497,-1.56997 0.42709,-2.35533c0.13463,-0.74347 0.39418,-1.56773 0.368,-2.32466c-0.0546,-1.56399 -1.59316,-2.70837 -3.11227,-2.33364c-0.6971,0.17203 -1.17729,0.68588 -1.66646,1.17205c-0.59912,0.59538 -1.20497,1.18477 -1.81605,1.76743c-0.52432,0.49964 -1.05238,0.99479 -1.58568,1.48545c-0.26627,0.24533 -0.53404,0.48917 -0.80256,0.73225c-0.17876,0.16156 -0.35827,0.32312 -0.53853,0.48393c-0.53404,0.37847 -0.3119,0.43457 0.66569,0.16754l0.64399,0.64399c-0.57593,-0.80256 -0.9544,-1.81755 -1.39869,-2.69939c-0.57219,-1.13466 -1.14363,-2.26931 -1.71582,-3.40397c-0.52656,-1.0449 -0.9731,-2.44882 -1.79361,-3.30075c-1.2117,-1.25732 -3.05467,-0.76666 -3.9612,0.53404c-0.55424,0.79583 -0.14585,1.99406 0.64399,2.4563c0.89381,0.52282 1.90057,0.15408 2.4563,-0.64399l-0.01047,0.0718l-0.79209,0.46149c-0.07854,-0.04413 -0.15632,-0.04413 -0.23486,0l-0.79209,-0.46149c0.19372,0.15483 0.59538,1.12942 0.81079,1.558c0.29918,0.59388 0.59837,1.18776 0.8983,1.78164c0.57817,1.14737 1.15635,2.29474 1.73452,3.44212c0.55424,1.0995 1.02022,2.54307 2.29848,2.96866c1.75472,0.58416 2.99783,-0.94467 4.15941,-2.00753c1.21469,-1.11147 2.63955,-2.21172 3.668,-3.49747c0.72403,-0.55573 0.27076,-0.98058 -1.35979,-1.27453c-0.04413,0.24159 -0.08751,0.48318 -0.13164,0.72477c-0.07704,0.4226 -0.15333,0.8452 -0.23037,1.26854c-0.16455,0.90578 -0.3291,1.81156 -0.49291,2.71809c-0.30666,1.69114 -0.61333,3.38228 -0.91999,5.07342c-0.15333,0.84594 -0.30666,1.69114 -0.46,2.53708c-0.16306,0.90054 -0.22813,1.91179 -0.54601,2.76895l0.46149,-0.79209c0.41213,-0.18325 0.38595,-0.24309 -0.08078,-0.17801c-0.18549,0 -0.37099,0 -0.55648,0c-0.43232,0 -0.86539,0 -1.29771,0c-0.74198,0 -1.48321,0 -2.22518,0c-1.60662,0 -3.21399,0 -4.82061,0s-3.21399,0 -4.82061,0c-0.74198,0 -1.48321,0 -2.22518,0c-0.37099,0 -0.74198,0 -1.11222,0c-0.24758,0 -0.4944,0 -0.74198,0c-0.46598,-0.06432 -0.49291,-0.00524 -0.08078,0.17801l0.46149,0.79209c-0.52058,-1.40317 -0.60734,-3.10703 -0.87511,-4.58126c-0.28497,-1.57072 -0.56995,-3.14069 -0.85417,-4.71141s-0.56995,-3.14069 -0.85492,-4.71066c-0.04637,-0.25655 -0.03665,-0.86614 -0.19746,-1.08679c-1.6313,0.29395 -2.08457,0.71879 -1.35979,1.27453c0.12865,0.1279 0.2573,0.25505 0.38595,0.38146c0.55873,0.5505 1.12269,1.09576 1.69264,1.63504c1.11895,1.05986 2.26632,2.38151 3.56777,3.21399c1.43459,0.91775 2.96641,0.19447 3.71587,-1.17953c1.49368,-2.73604 2.81383,-5.58353 4.217,-8.36744c1.03742,-2.05839 -2.05914,-3.87818 -3.1003,-1.81231l0.00449,-0.00075z" class="g"/>
    <path stroke="null" fill="#201614" d="m169.26291,57.12644c-1.29696,-0.04114 -2.22518,0.93196 -2.26183,2.10327c-0.04189,1.31118 0.8452,2.24239 2.12271,2.28278c1.32688,0.04189 2.22219,-0.84146 2.26333,-2.1444c0.0374,-1.17953 -0.83248,-2.20125 -2.12421,-2.24239l0,0.00075z" class="g"/>
    <path stroke="null" fill="#201614" d="m155.7869,60.78247c-1.29696,-0.04114 -2.22518,0.93196 -2.26183,2.10327c-0.04189,1.31118 0.8452,2.24239 2.12271,2.28278c1.32688,0.04189 2.22219,-0.84146 2.26333,-2.1444c0.0374,-1.17953 -0.83248,-2.20125 -2.12421,-2.24239l0,0.00075z" class="g"/>
    <path stroke="null" fill="#201614" d="m182.81222,60.78247c-1.29696,-0.04114 -2.22518,0.93196 -2.26183,2.10327c-0.04189,1.31118 0.8452,2.24239 2.12271,2.28278c1.32688,0.04189 2.22219,-0.84146 2.26333,-2.1444c0.0374,-1.17953 -0.83248,-2.20125 -2.12421,-2.24239l0,0.00075z" class="g"/>
    <path stroke="null" fill="#f2635f" d="m63.79817,34.89928c-1.03219,0 -2.04193,0.0374 -3.0442,0.11219l-0.00748,-0.09723c1.04715,-2.30372 2.09429,-4.61492 3.14144,-6.91864c3.08908,-6.79897 6.17068,-13.59793 9.25976,-20.40438l18.87853,0c-4.55508,10.03764 -9.10268,20.06779 -13.65029,30.09795c-4.38305,-1.79511 -9.2822,-2.78989 -14.57776,-2.78989z" class="h"/>
    <path stroke="null" fill="#ffffff" d="m63.88793,27.9956c-1.04715,2.30372 -2.09429,4.61492 -3.14144,6.91864l0.00748,0.09723c-4.12874,0.30666 -7.98822,1.23414 -11.51112,2.6777c-4.55508,-10.03764 -9.10268,-20.06779 -13.65777,-30.09795l18.87853,0c3.07412,6.76905 6.14076,13.53809 9.21488,20.30714l0.20943,0.09723z" class="d"/>
    <path stroke="null" fill="#201614" d="m51.25636,37.81558c-4.70318,-10.37871 -9.40935,-20.75592 -14.1215,-31.13014l-1.54978,2.70089l18.87853,0l-1.54978,-0.88933c3.07337,6.7683 6.14151,13.53884 9.21488,20.30714c0.40091,0.88259 1.68067,1.09726 2.4563,0.64399c0.90728,-0.53105 1.0464,-1.56997 0.64399,-2.4563c-3.07337,-6.7683 -6.14151,-13.53884 -9.21488,-20.30714c-0.25431,-0.55798 -0.96861,-0.88933 -1.55052,-0.88933l-18.87853,0c-1.46675,0 -2.09579,1.50041 -1.55052,2.70163c4.71215,10.37422 9.41832,20.75143 14.1215,31.13014c0.40016,0.88334 1.68067,1.09726 2.4563,0.64399c0.90802,-0.53105 1.04565,-1.56997 0.64399,-2.4563l0,0l0,0.00075z" class="g"/>
    <path stroke="null" fill="#201614" d="m62.29627,35.82002c4.13473,-9.10717 8.26646,-18.21584 12.40119,-27.32301l-1.54978,0.88933l18.87853,0l-1.54978,-2.70089c-4.74656,10.45799 -9.49013,20.91748 -14.2337,31.37696c-0.40016,0.88259 -0.25281,1.93124 0.64399,2.4563c0.76965,0.45027 2.0539,0.24309 2.4563,-0.64399c4.74357,-10.45949 9.48714,-20.91897 14.2337,-31.37696c0.54452,-1.20197 -0.08377,-2.70238 -1.55052,-2.70238l-18.87853,0c-0.58191,0 -1.29622,0.3306 -1.54978,0.88933c-4.13473,9.10717 -8.26646,18.21584 -12.40119,27.32301c-0.40016,0.88185 -0.25281,1.93124 0.64399,2.4563c0.7704,0.45027 2.05315,0.24309 2.4563,-0.64399l0,0l-0.00075,0z" class="g"/>
    <path stroke="null" fill="#ffda71" d="m63.79593,34.89629c-21.69087,0 -36.68375,16.74759 -36.68375,36.34417c0,21.92648 15.31525,37.02631 36.68524,37.02631c22.1935,0 36.68524,-15.24045 36.68524,-37.02631c0,-19.73046 -15.07216,-36.34417 -36.68674,-36.34417z" class="f"/>
    <path stroke="null" fill="#201614" d="m63.79593,33.10118c-8.34425,0.02767 -16.68327,2.47949 -23.37976,7.53795c-6.34047,4.78919 -11.02345,11.45128 -13.37354,19.04832c-4.66503,15.08114 0.01646,32.92823 12.69215,42.65846c6.16619,4.7331 13.77071,7.19239 21.48742,7.64192c7.97401,0.46448 16.22627,-1.08978 23.18081,-5.11456c6.36814,-3.6852 11.43782,-9.41384 14.37057,-16.1567c3.20651,-7.37415 4.21551,-15.6997 3.01503,-23.64379c-1.1743,-7.77505 -4.84006,-15.14995 -10.35702,-20.75666c-5.62018,-5.71143 -13.09829,-9.46619 -21.00798,-10.68537c-2.19601,-0.33883 -4.40549,-0.52133 -6.62768,-0.52881c-2.31045,-0.00748 -2.31344,3.58273 0,3.59021c7.67258,0.02543 15.15668,2.27829 21.34531,6.86553c5.66431,4.19905 9.86112,10.31737 11.94194,17.03406c4.16315,13.43861 0.42858,29.61103 -10.65171,38.57459c-5.3741,4.34715 -12.33088,6.67929 -19.23531,7.18342c-7.32703,0.53554 -14.82907,-0.67316 -21.30193,-4.24842c-6.01136,-3.3202 -10.72277,-8.46019 -13.6271,-14.68621c-3.06888,-6.57757 -4.09284,-14.43639 -2.96342,-21.59737c1.11895,-7.09591 4.3292,-13.77071 9.36821,-18.91294c5.15869,-5.2649 11.91726,-8.59332 19.17398,-9.76762c1.96564,-0.31788 3.96045,-0.43831 5.95003,-0.44504c2.3097,-0.00748 2.31419,-3.59769 0,-3.59021l0,-0.00075z" class="g"/>
    <path stroke="null" fill="#201614" d="m63.79817,42.68107c-6.21556,0.02767 -12.44383,1.83026 -17.44619,5.58428c-4.79144,3.59545 -8.33677,8.57911 -10.12964,14.30251c-3.52589,11.25457 -0.08302,24.68944 9.36971,32.00001c9.3353,7.22007 23.51514,7.9037 33.68816,2.00454c10.34654,-6.00014 14.77672,-18.41929 13.04294,-29.91844c-1.81381,-12.02796 -11.49092,-21.72153 -23.51066,-23.5675c-1.66272,-0.25505 -3.33142,-0.39866 -5.01358,-0.40614c-2.31045,-0.01047 -2.31344,3.57974 0,3.59021c5.5753,0.02468 11.0212,1.64851 15.51495,4.99488c4.09209,3.04719 7.12807,7.47138 8.63147,12.33313c3.02625,9.78857 0.30218,21.50463 -7.7399,28.02086c-7.87678,6.3816 -20.4702,6.9897 -29.31184,2.15338c-9.23956,-5.05397 -13.70414,-15.97719 -12.13791,-26.26016c0.78536,-5.15719 3.10479,-10.02417 6.75035,-13.76996c3.75402,-3.85649 8.66662,-6.28063 13.96219,-7.14901c1.4301,-0.23486 2.88339,-0.31564 4.33069,-0.32162c2.3097,-0.01047 2.31419,-3.60068 0,-3.59021l-0.00075,-0.00075z" class="g"/>
    <path stroke="null" fill="#201614" d="m61.62609,63.77506c-0.75694,1.50191 -1.51387,3.00381 -2.27081,4.50572c-0.71281,1.41439 -1.31566,3.07936 -2.2379,4.3636l0.64399,-0.64399l0.9357,0.0733c-0.18026,-0.16006 -0.36052,-0.32088 -0.54003,-0.48243c-0.26927,-0.24234 -0.53704,-0.48543 -0.80481,-0.73001c-0.44504,-0.40764 -0.88708,-0.81827 -1.32613,-1.23189c-1.04266,-0.98282 -2.02847,-2.25735 -3.21698,-3.05841c-1.00451,-0.6769 -2.37478,-0.57144 -3.22371,0.32835c-1.09801,1.16458 -0.52956,2.7495 -0.27899,4.13174c0.50413,2.77793 1.00825,5.5566 1.51238,8.33453c0.24084,1.32913 0.48169,2.65751 0.72253,3.98663c0.28497,1.57221 0.85492,2.85123 2.62235,2.98511c1.34334,0.10172 2.73081,0 4.07938,0c1.48321,0 2.96641,0 4.44962,0c2.843,0 5.686,0 8.529,0c1.29696,0 2.91331,0.28946 3.94624,-0.68962c0.99479,-0.94243 0.99778,-2.83028 1.22965,-4.10705c0.50413,-2.77867 1.0075,-5.5566 1.51163,-8.33528c0.14211,-0.78536 0.28497,-1.56997 0.42709,-2.35533c0.13463,-0.74347 0.39418,-1.56773 0.368,-2.32466c-0.0546,-1.56399 -1.59316,-2.70837 -3.11227,-2.33364c-0.6971,0.17203 -1.17729,0.68588 -1.66646,1.17205c-0.59912,0.59538 -1.20497,1.18477 -1.81605,1.76743c-0.52432,0.49964 -1.05238,0.99479 -1.58568,1.48545c-0.26627,0.24533 -0.53404,0.48917 -0.80256,0.73225c-0.17876,0.16156 -0.35827,0.32312 -0.53853,0.48393c-0.53404,0.37847 -0.3119,0.43457 0.66569,0.16754l0.64399,0.64399c-0.57593,-0.80256 -0.9544,-1.81755 -1.39869,-2.69939c-0.57219,-1.13466 -1.14363,-2.26931 -1.71582,-3.40397c-0.52656,-1.0449 -0.9731,-2.44882 -1.79361,-3.30075c-1.2117,-1.25732 -3.05467,-0.76666 -3.9612,0.53404c-0.55424,0.79583 -0.14585,1.99406 0.64399,2.4563c0.89381,0.52282 1.90057,0.15408 2.4563,-0.64399l-0.01047,0.0718l-0.79209,0.46149c-0.07854,-0.04413 -0.15632,-0.04413 -0.23486,0l-0.79209,-0.46149c0.19372,0.15483 0.59538,1.12942 0.81079,1.558c0.29918,0.59388 0.59837,1.18776 0.8983,1.78164c0.57817,1.14737 1.15635,2.29474 1.73452,3.44212c0.55424,1.0995 1.02022,2.54307 2.29848,2.96866c1.75472,0.58416 2.99783,-0.94467 4.15941,-2.00753c1.21469,-1.11147 2.63955,-2.21172 3.668,-3.49747c0.72403,-0.55573 0.27076,-0.98058 -1.35979,-1.27453c-0.04413,0.24159 -0.08751,0.48318 -0.13164,0.72477c-0.07704,0.4226 -0.15333,0.8452 -0.23037,1.26854c-0.16455,0.90578 -0.3291,1.81156 -0.49291,2.71809c-0.30666,1.69114 -0.61333,3.38228 -0.91999,5.07342c-0.15333,0.84594 -0.30666,1.69114 -0.46,2.53708c-0.16306,0.90054 -0.22813,1.91179 -0.54601,2.76895l0.46149,-0.79209c0.41213,-0.18325 0.38595,-0.24309 -0.08078,-0.17801c-0.18549,0 -0.37099,0 -0.55648,0c-0.43232,0 -0.86539,0 -1.29771,0c-0.74198,0 -1.48321,0 -2.22518,0c-1.60662,0 -3.21399,0 -4.82061,0s-3.21399,0 -4.82061,0c-0.74198,0 -1.48321,0 -2.22518,0c-0.37099,0 -0.74198,0 -1.11222,0c-0.24758,0 -0.4944,0 -0.74198,0c-0.46598,-0.06432 -0.49291,-0.00524 -0.08078,0.17801l0.46149,0.79209c-0.52058,-1.40317 -0.60734,-3.10703 -0.87511,-4.58126c-0.28497,-1.57072 -0.56995,-3.14069 -0.85417,-4.71141s-0.56995,-3.14069 -0.85492,-4.71066c-0.04637,-0.25655 -0.03665,-0.86614 -0.19746,-1.08679c-1.6313,0.29395 -2.08457,0.71879 -1.35979,1.27453c0.12865,0.1279 0.2573,0.25505 0.38595,0.38146c0.55873,0.5505 1.12269,1.09576 1.69264,1.63504c1.11895,1.05986 2.26632,2.38151 3.56777,3.21399c1.43459,0.91775 2.96641,0.19447 3.71587,-1.17953c1.49368,-2.73604 2.81383,-5.58353 4.217,-8.36744c1.03742,-2.05839 -2.05914,-3.87818 -3.1003,-1.81231l0.00449,-0.00075z" class="g"/>
    <path stroke="null" fill="#201614" d="m63.83781,57.12718c-1.29696,-0.04114 -2.22518,0.93196 -2.26183,2.10327c-0.04189,1.31118 0.8452,2.24239 2.12271,2.28278c1.32688,0.04189 2.22219,-0.84146 2.26333,-2.1444c0.0374,-1.17953 -0.83248,-2.20125 -2.12421,-2.24239l0,0.00075z" class="g"/>
    <path stroke="null" fill="#201614" d="m50.36255,60.78247c-1.29696,-0.04114 -2.22518,0.93196 -2.26183,2.10327c-0.04189,1.31118 0.8452,2.24239 2.12271,2.28278c1.32688,0.04189 2.22219,-0.84146 2.26333,-2.1444c0.0374,-1.17953 -0.83248,-2.20125 -2.12421,-2.24239l0,0.00075z" class="g"/>
    <path stroke="null" fill="#201614" d="m77.38787,60.78247c-1.29696,-0.04114 -2.22518,0.93196 -2.26183,2.10327c-0.04189,1.31118 0.8452,2.24239 2.12271,2.28278c1.32688,0.04189 2.22219,-0.84146 2.26333,-2.1444c0.0374,-1.17953 -0.83248,-2.20125 -2.12421,-2.24239l0,0.00075z" class="g"/>
    <path stroke="null" fill="#f2635f" d="m274.65585,34.89928c-1.03219,0 -2.04941,0.0374 -3.05168,0.11219l-0.00748,-0.09723c1.04715,-2.30372 2.09429,-4.61492 3.14144,-6.91864c3.08908,-6.79897 6.17068,-13.59793 9.25976,-20.40438l18.87853,0c-4.55508,10.03764 -9.10268,20.06779 -13.65777,30.09795c-4.37557,-1.79511 -9.27472,-2.78989 -14.5628,-2.78989z" class="h"/>
    <path stroke="null" fill="#ffffff" d="m274.73812,27.9956c-1.04715,2.30372 -2.09429,4.61492 -3.14144,6.91864l0.00748,0.09723c-4.12874,0.30666 -7.98822,1.23414 -11.51112,2.68518c-4.55508,-10.03764 -9.11016,-20.07527 -13.65777,-30.10543l18.87853,0c3.07412,6.76905 6.14076,13.53809 9.21488,20.30714l0.20943,0.09723z" class="d"/>
    <path stroke="null" fill="#201614" d="m262.10656,37.81483c-4.70916,-10.37571 -9.41533,-20.75292 -14.1215,-31.13014l-1.54978,2.70089l18.87853,0l-1.54978,-0.88933c3.07337,6.7683 6.14151,13.53884 9.21488,20.30714c0.40091,0.88259 1.68067,1.09726 2.4563,0.64399c0.90728,-0.53105 1.0464,-1.56997 0.64399,-2.4563c-3.07337,-6.7683 -6.14151,-13.53884 -9.21488,-20.30714c-0.25431,-0.55798 -0.96861,-0.88858 -1.55052,-0.88858l-18.87853,0c-1.46675,0 -2.09504,1.49966 -1.54978,2.70089c4.70617,10.37721 9.41234,20.75442 14.1215,31.13014c0.40091,0.88259 1.68067,1.09726 2.4563,0.64399c0.90728,-0.53105 1.0464,-1.56997 0.64399,-2.4563l0,0l-0.00075,0.00075z" class="g"/>
    <path stroke="null" fill="#201614" d="m273.14646,35.81927c4.13473,-9.10717 8.26646,-18.21584 12.40119,-27.32301l-1.54978,0.88933l18.87853,0l-1.54978,-2.70089c-4.74731,10.45874 -9.49088,20.91897 -14.24118,31.37696c-0.40091,0.88185 -0.25281,1.93124 0.64399,2.4563c0.7704,0.45027 2.05315,0.24309 2.4563,-0.64399c4.7503,-10.45799 9.49387,-20.91822 14.24118,-31.37696c0.54526,-1.20197 -0.08377,-2.70089 -1.54978,-2.70089l-18.87853,0c-0.58191,0 -1.29622,0.3306 -1.54978,0.88933c-4.13473,9.10717 -8.26646,18.21584 -12.40119,27.32301c-0.40016,0.88185 -0.25281,1.93124 0.64399,2.4563c0.7704,0.45027 2.05315,0.24309 2.4563,-0.64399l0,0l-0.0015,-0.0015z" class="g"/>
    <path stroke="null" fill="#a98a75" d="m274.6536,34.89704c-21.69087,0 -36.68375,16.74759 -36.68375,36.34417c0,21.92648 15.31525,37.02631 36.68524,37.02631c22.1935,0 36.68524,-15.24045 36.68524,-37.02631c0,-19.73046 -15.07216,-36.34417 -36.68674,-36.34417z" class="e"/>
    <path stroke="null" fill="#201614" d="m274.6536,33.10193c-8.34425,0.02767 -16.68327,2.47949 -23.37976,7.53795c-6.34047,4.78919 -11.02345,11.45128 -13.37354,19.04832c-4.66503,15.08114 0.01646,32.92823 12.69215,42.65846c6.16619,4.7331 13.77071,7.19239 21.48742,7.64192c7.97401,0.46448 16.22627,-1.08978 23.18081,-5.11456c6.36814,-3.6852 11.43782,-9.41384 14.37057,-16.1567c3.20651,-7.37415 4.21551,-15.6997 3.01503,-23.64379c-1.1743,-7.77505 -4.84006,-15.14995 -10.35702,-20.75666c-5.62018,-5.71143 -13.09829,-9.46619 -21.00798,-10.68537c-2.19601,-0.33883 -4.40549,-0.52133 -6.62768,-0.52881c-2.31045,-0.00748 -2.31344,3.58273 0,3.59021c7.67258,0.02543 15.15668,2.27829 21.34531,6.86553c5.66431,4.19905 9.86112,10.31737 11.94194,17.03406c4.16315,13.43861 0.42858,29.61103 -10.65171,38.57459c-5.3741,4.34715 -12.33088,6.67929 -19.23531,7.18342c-7.32703,0.53554 -14.82907,-0.67316 -21.30193,-4.24842c-6.01136,-3.3202 -10.72277,-8.46019 -13.6271,-14.68621c-3.06888,-6.57757 -4.09284,-14.43639 -2.96342,-21.59737c1.11895,-7.09591 4.3292,-13.77071 9.36821,-18.91294c5.15869,-5.2649 11.91726,-8.59332 19.17398,-9.76762c1.96564,-0.31788 3.96045,-0.43831 5.95003,-0.44504c2.3097,-0.00748 2.31419,-3.59769 0,-3.59021l0,-0.00075z" class="g"/>
    <path stroke="null" fill="#201614" d="m274.65435,42.68181c-6.21556,0.02767 -12.44383,1.83026 -17.44619,5.58428c-4.79144,3.59545 -8.33677,8.57911 -10.12964,14.30251c-3.52589,11.25457 -0.08302,24.68944 9.36971,32.00001c9.3353,7.22007 23.51514,7.9037 33.68816,2.00454c10.34654,-6.00014 14.77672,-18.41929 13.04294,-29.91844c-1.81381,-12.02796 -11.49092,-21.72153 -23.51066,-23.5675c-1.66272,-0.25505 -3.33142,-0.39866 -5.01358,-0.40614c-2.31045,-0.01047 -2.31344,3.57974 0,3.59021c5.5753,0.02468 11.0212,1.64851 15.51495,4.99488c4.09209,3.04719 7.12807,7.47138 8.63147,12.33313c3.02625,9.78857 0.30218,21.50463 -7.7399,28.02086c-7.87678,6.3816 -20.4702,6.9897 -29.31184,2.15338c-9.23956,-5.05397 -13.70414,-15.97719 -12.13791,-26.26016c0.78536,-5.15719 3.10479,-10.02417 6.75035,-13.76996c3.75402,-3.85649 8.66662,-6.28063 13.96219,-7.14901c1.4301,-0.23486 2.88339,-0.31564 4.33069,-0.32162c2.3097,-0.01047 2.31419,-3.60068 0,-3.59021l-0.00075,-0.00075z" class="g"/>
    <path stroke="null" fill="#201614" d="m272.47479,63.77431c-0.75694,1.50191 -1.51387,3.00381 -2.27081,4.50572c-0.71281,1.41439 -1.31566,3.07936 -2.2379,4.3636l0.64399,-0.64399l0.9357,0.0733c-0.18026,-0.16006 -0.36052,-0.32088 -0.54003,-0.48243c-0.26927,-0.24234 -0.53704,-0.48543 -0.80481,-0.73001c-0.44504,-0.40764 -0.88708,-0.81827 -1.32613,-1.23189c-1.04266,-0.98282 -2.02847,-2.25735 -3.21698,-3.05841c-1.00451,-0.6769 -2.37478,-0.57144 -3.22371,0.32835c-1.09801,1.16458 -0.52956,2.7495 -0.27899,4.13174c0.50413,2.77793 1.00825,5.5566 1.51238,8.33453c0.24084,1.32913 0.48169,2.65751 0.72253,3.98663c0.28497,1.57221 0.85492,2.85123 2.62235,2.98511c1.34334,0.10172 2.73081,0 4.07938,0c1.48321,0 2.96641,0 4.44962,0c2.843,0 5.686,0 8.529,0c1.29696,0 2.91331,0.28946 3.94624,-0.68962c0.99479,-0.94243 0.99778,-2.83028 1.22965,-4.10705c0.50413,-2.77867 1.0075,-5.5566 1.51163,-8.33528c0.14211,-0.78536 0.28497,-1.56997 0.42709,-2.35533c0.13463,-0.74347 0.39418,-1.56773 0.368,-2.32466c-0.0546,-1.56399 -1.59316,-2.70837 -3.11227,-2.33364c-0.6971,0.17203 -1.17729,0.68588 -1.66646,1.17205c-0.59912,0.59538 -1.20497,1.18477 -1.81605,1.76743c-0.52432,0.49964 -1.05238,0.99479 -1.58568,1.48545c-0.26627,0.24533 -0.53404,0.48917 -0.80256,0.73225c-0.17876,0.16156 -0.35827,0.32312 -0.53853,0.48393c-0.53404,0.37847 -0.3119,0.43457 0.66569,0.16754l0.64399,0.64399c-0.57593,-0.80256 -0.9544,-1.81755 -1.39869,-2.69939c-0.57219,-1.13466 -1.14363,-2.26931 -1.71582,-3.40397c-0.52656,-1.0449 -0.9731,-2.44882 -1.79361,-3.30075c-1.2117,-1.25732 -3.05467,-0.76666 -3.9612,0.53404c-0.55424,0.79583 -0.14585,1.99406 0.64399,2.4563c0.89381,0.52282 1.90057,0.15408 2.4563,-0.64399l-0.01047,0.0718l-0.79209,0.46149c-0.07854,-0.04413 -0.15632,-0.04413 -0.23486,0l-0.79209,-0.46149c0.19372,0.15483 0.59538,1.12942 0.81079,1.558c0.29918,0.59388 0.59837,1.18776 0.8983,1.78164c0.57817,1.14737 1.15635,2.29474 1.73452,3.44212c0.55424,1.0995 1.02022,2.54307 2.29848,2.96866c1.75472,0.58416 2.99783,-0.94467 4.15941,-2.00753c1.21469,-1.11147 2.63955,-2.21172 3.668,-3.49747c0.72403,-0.55573 0.27076,-0.98058 -1.35979,-1.27453c-0.04413,0.24159 -0.08751,0.48318 -0.13164,0.72477c-0.07704,0.4226 -0.15333,0.8452 -0.23037,1.26854c-0.16455,0.90578 -0.3291,1.81156 -0.49291,2.71809c-0.30666,1.69114 -0.61333,3.38228 -0.91999,5.07342c-0.15333,0.84594 -0.30666,1.69114 -0.46,2.53708c-0.16306,0.90054 -0.22813,1.91179 -0.54601,2.76895l0.46149,-0.79209c0.41213,-0.18325 0.38595,-0.24309 -0.08078,-0.17801c-0.18549,0 -0.37099,0 -0.55648,0c-0.43232,0 -0.86539,0 -1.29771,0c-0.74198,0 -1.48321,0 -2.22518,0c-1.60662,0 -3.21399,0 -4.82061,0s-3.21399,0 -4.82061,0c-0.74198,0 -1.48321,0 -2.22518,0c-0.37099,0 -0.74198,0 -1.11222,0c-0.24758,0 -0.4944,0 -0.74198,0c-0.46598,-0.06432 -0.49291,-0.00524 -0.08078,0.17801l0.46149,0.79209c-0.52058,-1.40317 -0.60734,-3.10703 -0.87511,-4.58126c-0.28497,-1.57072 -0.56995,-3.14069 -0.85417,-4.71141s-0.56995,-3.14069 -0.85492,-4.71066c-0.04637,-0.25655 -0.03665,-0.86614 -0.19746,-1.08679c-1.6313,0.29395 -2.08457,0.71879 -1.35979,1.27453c0.12865,0.1279 0.2573,0.25505 0.38595,0.38146c0.55873,0.5505 1.12269,1.09576 1.69264,1.63504c1.11895,1.05986 2.26632,2.38151 3.56777,3.21399c1.43459,0.91775 2.96641,0.19447 3.71587,-1.17953c1.49368,-2.73604 2.81383,-5.58353 4.217,-8.36744c1.03742,-2.05839 -2.05914,-3.87818 -3.1003,-1.81231l0.00449,-0.00075z" class="g"/>
    <path stroke="null" fill="#201614" d="m274.68726,57.12644c-1.29696,-0.04114 -2.22518,0.93196 -2.26183,2.10327c-0.04189,1.31118 0.8452,2.24239 2.12271,2.28278c1.32688,0.04189 2.22219,-0.84146 2.26333,-2.1444c0.0374,-1.17953 -0.83248,-2.20125 -2.12421,-2.24239l0,0.00075z" class="g"/>
    <path stroke="null" fill="#201614" d="m261.21125,60.78247c-1.29696,-0.04114 -2.22518,0.93196 -2.26183,2.10327c-0.04189,1.31118 0.8452,2.24239 2.12271,2.28278c1.32688,0.04189 2.22219,-0.84146 2.26333,-2.1444c0.0374,-1.17953 -0.83248,-2.20125 -2.12421,-2.24239l0,0.00075z" class="g"/>
    <path stroke="null" fill="#201614" d="m288.23657,60.78247c-1.29696,-0.04114 -2.22518,0.93196 -2.26183,2.10327c-0.04189,1.31118 0.8452,2.24239 2.12271,2.28278c1.32688,0.04189 2.22219,-0.84146 2.26333,-2.1444c0.0374,-1.17953 -0.83248,-2.20125 -2.12421,-2.24239l0,0.00075z" class="g"/>
   </g>
  </g>
 </g>

</svg>