<svg xmlns="http://www.w3.org/2000/svg" xmlns="http://www.w3.org/2000/svg" viewBox="202.6546811164605 -8.241411530890772 159.45509438260322 159.45509438260322"><defs><style>.d{fill:#ffffff;}.e{fill:#211715;}.f{fill:#ffda71;}.g{fill:#645d5c;}</style></defs><path class="d" d="M283.683,42.334c-8.358,8.696-35.698,37.436-47.82,50.202-2.566,2.702-2.513,6.951.123,9.585,2.903,2.901,6.154,6.151,9.056,9.053,2.634,2.634,6.882,2.685,9.583.12,12.762-12.119,41.503-39.46,50.2-47.819" /><path class="e" d="M281.985,40.637c-7.015,7.3-13.989,14.638-20.971,21.97-8.252,8.666-16.5,17.337-24.742,26.013-2.14,2.252-4.211,4.321-4.615,7.566-.229,1.838.129,3.647.94,5.305.851,1.741,2.412,3.048,3.76,4.395,1.531,1.53,3.062,3.061,4.593,4.591,1.427,1.426,2.805,3.107,4.628,4.039,3.448,1.762,7.538,1.232,10.467-1.277,3.927-3.364,7.553-7.162,11.3-10.725,4.58-4.355,9.159-8.711,13.737-13.069,7.911-7.531,15.825-15.059,23.711-22.615.576-.552,1.152-1.104,1.727-1.657,2.232-2.145-1.165-5.536-3.394-3.394-6.933,6.663-13.903,13.288-20.867,19.92-8.44,8.038-16.885,16.071-25.334,24.1-.83.789-1.661,1.578-2.491,2.367-.82.779-1.607,1.713-2.645,2.202-3.282,1.544-5.531-1.369-7.608-3.446-1.477-1.476-2.953-2.952-4.43-4.428-1.091-1.091-2.535-2.15-3.094-3.634-.979-2.603.67-4.38,2.334-6.133,7.761-8.171,15.528-16.337,23.299-24.499,7.158-7.519,14.314-15.04,21.497-22.536.53-.553,1.061-1.107,1.592-1.659,2.141-2.228-1.249-5.627-3.394-3.394h0Z" /><path class="e" d="M234.513,110.661c-2.876,2.908-5.359,6.396-6.309,10.435-.784,3.333-.498,6.759.438,10.029.848,2.965,5.481,1.704,4.629-1.276-.189-.662-.358-1.329-.49-2.005-.036-.186-.068-.374-.101-.561-.008-.044-.075-.501-.04-.244.04.298-.031-.302-.036-.358-.014-.151-.027-.302-.037-.453-.047-.684-.051-1.372-.008-2.056.059-.939.046-.824.274-1.799.376-1.602.796-2.576,1.611-3.959.953-1.618,2.146-3.026,3.464-4.358,2.174-2.199-1.218-5.595-3.394-3.394h0Z" /><path class="g" d="M313.295,12.908c-1.236-.246-2.504-.389-3.801-.417-12.725-.271-25.253,10.756-26.487,23.424-.198,2.038-.115,4.079.22,6.081,0,.001,0,.002.002.003,4.269,4.259,17.202,17.174,21.961,21.929,1.994.332,4.027.418,6.051.221,12.668-1.234,23.696-13.762,23.424-26.487-.142-6.685-3.314-12.582-7.952-17.22-3.708-3.708-8.283-6.512-13.419-7.535Z" /><path class="e" d="M313.933,10.594c-11.918-2.242-24.063,4.369-29.954,14.757-1.375,2.425-2.44,5.093-2.977,7.833-.297,1.516-.477,3.068-.498,4.613-.011.781.019,1.564.087,2.342.084.956.07,2.225.566,3.072.408.697,1.176,1.284,1.742,1.849.7.699,1.4,1.397,2.1,2.096,1.657,1.654,3.313,3.308,4.97,4.962,3.471,3.466,6.943,6.933,10.414,10.4.65.649,1.3,1.298,1.949,1.947.976.974,1.682,1.71,3.144,1.913,3.298.458,6.646.309,9.873-.539,10.857-2.854,19.83-12.904,21.424-24.018,2.032-14.165-9.031-28.347-22.839-31.228-3.014-.629-4.303,3.997-1.276,4.629,9.483,1.978,18.11,10.532,19.452,20.263,1.21,8.775-3.875,17.712-11.053,22.514-4.506,3.014-9.82,4.462-15.228,3.614l1.059.617c-6.29-6.284-12.582-12.567-18.874-18.848-.625-.624-1.249-1.247-1.874-1.871-.238-.237-.476-.475-.713-.712-.092-.092-.26-.332-.381-.38.339.564.475.674.408.33-.024-.204-.044-.407-.062-.612-.263-2.99.09-5.909,1.069-8.743,1.618-4.682,4.947-8.89,8.951-11.776,4.972-3.585,11.123-5.549,17.246-4.398,1.273.239,2.589-.354,2.952-1.676.322-1.17-.396-2.711-1.676-2.952Z" /><path class="e" d="M287.214,24.29c5.15,5.15,10.3,10.3,15.45,15.45l19.404,19.404c1.038,1.038,2.07,1.986,3.66,2.093,1.932.13,3.203-.992,4.465-2.254,1.187-1.187,2.391-2.339,2.44-4.156.077-2.876-3.153-5.19-5.003-7.041-7.36-7.36-14.72-14.72-22.079-22.079l-8.487-8.487c-.461-.461-.908-.945-1.387-1.387-1.863-1.717-4.502-1.698-6.37-.003-.716.65-1.418,1.363-2.074,2.074-1.762,1.91-1.665,4.45-.019,6.385.84.988,2.53.865,3.394,0,.979-.979.842-2.404,0-3.394.258.303-.203.558.264.157.455-.391.862-.862,1.286-1.286.066-.066.465-.377.471-.471.011-.181.091.065-.139.016-.434-.093-.176-.143-.169-.046.026.363,1.295,1.295,1.539,1.539l7.899,7.899,21.091,21.091,3.383,3.383c.331.331,1.154,1.518,1.627,1.627.02.005.053.075.073.073-.373.037.398-.693-.264-.157-.462.374-.866.866-1.286,1.286-.096.096-.447.335-.471.471-.025.141-.285.028.139-.016.259-.026.22.155-.011-.134-.218-.273-.511-.511-.758-.758-6.057-6.057-12.113-12.113-18.17-18.17-5.401-5.401-10.703-10.929-16.216-16.216-.098-.094-.192-.192-.288-.288-2.187-2.187-5.582,1.206-3.394,3.394Z" /></svg>