<svg id="b" xmlns="http://www.w3.org/2000/svg" width="322.693" height="273.04" viewBox="0 0 322.693 273.04" style="color: initial !important;"><defs><style>.d{fill:#ffda71;}.d,.e,.f,.g{stroke-width:0px;}.e{fill:#6e6867;}.f{fill:#ffffff;}.g{fill:#211715;}</style></defs><g id="c"><path class="f" d="M302.109,176.564c-10.257-9.828-23.882-13.923-37.816-13.923-13.823,0-27.56,4.095-37.816,13.923-19.524,18.71-21.779,54.099-4.601,74.984,10.185,12.383,26.208,19.091,42.41,19.093,16.006,0,32.237-6.709,42.424-19.093,17.178-20.885,14.924-56.274-4.601-74.984ZM275.189,225.607c-2.617,3.181-6.786,4.905-10.898,4.905-4.162,0-8.278-1.724-10.894-4.905-4.413-5.365-3.834-14.456,1.182-19.262,2.635-2.525,6.164-3.577,9.714-3.577,3.58,0,7.08,1.052,9.714,3.577,5.015,4.806,5.595,13.897,1.182,19.262Z"/><path class="g" d="M264.285,268.24c-11.545-.04-22.985-3.527-32.319-10.386-8.308-6.105-14.151-14.907-17.026-24.761-5.454-18.696-1.087-41.121,13.234-54.833,8.609-8.244,20.287-12.404,32.059-13.101,11.691-.692,23.72,1.534,33.662,7.947,17.145,11.059,24.453,33.289,21.336,52.903-1.56,9.817-5.634,19.233-12.549,26.467-7.947,8.315-18.777,13.392-30.073,15.152-2.751.429-5.541.602-8.324.611-3.088.011-3.094,4.811,0,4.8,12.363-.042,24.887-3.79,34.882-11.155,9.252-6.817,15.811-16.343,19.06-27.354,5.996-20.324,1.132-44.76-14.421-59.665-9.365-8.975-21.855-13.552-34.661-14.457-12.681-.896-25.989,1.584-36.792,8.506-19.126,12.253-27.054,36.393-23.653,58.203,1.665,10.678,6.318,20.899,13.806,28.753,8.536,8.953,20.314,14.637,32.498,16.445,3.078.457,6.17.714,9.282.725,3.089.011,3.093-4.789,0-4.8Z"/><path class="g" d="M264.291,225.512c-.39-.005-.779-.037-1.168-.045-1.244-.027.732.177-.021.011-.696-.154-1.386-.283-2.068-.501-.119-.038-.7-.19-.728-.254l.482.212c-.234-.103-.466-.213-.694-.329-.66-.337-1.403-.709-1.953-1.208.819.743.268.207.122.057-.268-.275-.56-.523-.823-.804-.051-.055-.887-1.014-.319-.334.531.636-.127-.206-.187-.298-.303-.465-.545-.952-.807-1.439-.539-1.002.325,1.062-.008-.028-.097-.319-.215-.629-.306-.951-.035-.123-.404-1.625-.364-1.633l.084.664c-.027-.223-.049-.447-.066-.671-.021-.281-.034-.561-.041-.843-.013-.564.004-1.127.051-1.689.088-1.061-.076.139-.038.155-.054-.022.204-1.05.229-1.158.143-.603.343-1.18.531-1.769.229-.714-.159.18-.125.266-.048-.12.378-.778.441-.896.263-.489.569-.944.873-1.408.58-.885-.591.493-.069.102.29-.217.529-.586.794-.84.01-.01,1.004-.877.407-.391-.585.476.434-.281.46-.297.258-.163,2.009-1.15.892-.557.556-.295,1.247-.442,1.856-.592.316-.078.824-.27,1.15-.235-1.178-.127-.131.023.231-.001.723-.049,1.449-.052,2.173-.011.315.018.679.003.984.082-1.273-.333-.021.024.219.077.637.139,1.253.334,1.871.541.932.312-.011-.045-.118-.055.407.037,1.027.534,1.368.751.222.141.437.29.651.443-.973-.695.061.099.213.245.199.191.378.402.575.593l.111.122c.344.411.292.33-.156-.244.342.168.709,1.036.907,1.384.165.29.307.59.462.884.526.997-.335-1.038.015.037.174.534.357,1.06.493,1.605.081.328.137.66.212.989.25,1.107-.061-.894-.013-.158.037.564.088,1.121.087,1.687,0,.282-.007.563-.023.844-.012.224-.029.449-.051.672-.05.445-.049.446.005.003l.042-.332c-.036.221-.078.44-.124.659-.081.382-.177.76-.288,1.133-.079.266-.178.526-.259.791-.287.937.53-.922-.081.176-.315.567-.729,1.124-1.013,1.699-.289.586.877-.912.031-.062-.317.319-.61.655-.943.96-.209.192-.829.835-.024.073-.313.297-.751.523-1.12.743-.276.164-.556.32-.842.465-.229.116-.462.226-.697.329.543-.227.642-.276.298-.146-.75.2-1.467.469-2.234.62-.411.081-.985.426-.009.023-.404.167-1.108.075-1.541.08-2.614.034-5.122,2.275-5,5,.12,2.68,2.198,5.037,5,5,8.225-.108,15.694-5.081,18.077-13.093,1.997-6.713.244-14.914-4.974-19.746-6.11-5.659-16.395-6.586-23.46-2.114-6.681,4.228-9.313,12.162-8.179,19.736,1.36,9.087,9.624,15.102,18.536,15.218,2.616.034,5.12-2.324,5-5-.123-2.738-2.196-4.963-5-5Z"/><path class="g" d="M19.36,172.642c0,23.214,0,46.429,0,69.643,0,6.633,0,13.265,0,19.898,0,3.089,4.8,3.094,4.8,0,0-23.214,0-46.429,0-69.643,0-6.633,0-13.265,0-19.898,0-3.089-4.8-3.094-4.8,0h0Z"/><path class="g" d="M51.85,171.484c0,23.879,0,47.759,0,71.638v20.219c0,3.089,4.8,3.094,4.8,0,0-23.879,0-47.759,0-71.638v-20.219c0-3.089-4.8-3.094-4.8,0h0Z"/><path class="g" d="M84.341,169.94c0,23.879,0,47.759,0,71.638,0,6.74,0,13.479,0,20.219,0,3.089,4.8,3.094,4.8,0,0-23.879,0-47.759,0-71.638v-20.219c0-3.089-4.8-3.094-4.8,0h0Z"/><path class="e" d="M100.471,220.494h0c0,3.028-2.477,5.505-5.505,5.505h-16.28c-3.028,0-5.505-2.477-5.505-5.505h0c0-3.035,2.457-5.495,5.492-5.495,4.744,0,11.555,0,16.31,0,3.035,0,5.489,2.46,5.489,5.495Z"/><path class="g" d="M98.071,220.494c0,1.761-1.419,3.02-3.11,3.105-.692.035-1.395,0-2.088,0h-9.892c-1.893,0-5.005.566-6.486-.914-1.283-1.283-1.201-3.451.227-4.602.691-.557,1.444-.678,2.302-.684,1.414-.009,2.828,0,4.243,0,3.298,0,6.595,0,9.893,0,1.233,0,2.558-.203,3.614.568.836.611,1.267,1.504,1.299,2.527.096,3.081,4.896,3.095,4.8,0-.107-3.457-2.24-6.491-5.578-7.549-1.622-.514-3.426-.345-5.102-.345-1.789,0-3.579,0-5.368,0s-3.576,0-5.365,0c-1.629,0-3.352-.151-4.937.299-3.345.951-5.742,4.114-5.741,7.595,0,3.349,2.181,6.293,5.283,7.448,1.389.517,2.849.458,4.301.458h11.772c1.377,0,2.791.089,4.156-.129,3.735-.595,6.579-4.006,6.579-7.777,0-3.089-4.8-3.094-4.8,0Z"/><path class="e" d="M67.896,199.156h0c0,3.028-2.477,5.505-5.505,5.505h-16.28c-3.028,0-5.505-2.477-5.505-5.505h0c0-3.035,2.457-5.495,5.492-5.495,4.744,0,11.555,0,16.31,0,3.035,0,5.489,2.46,5.489,5.495Z"/><path class="g" d="M65.496,199.156c0,1.761-1.419,3.02-3.11,3.105-.692.035-1.395,0-2.088,0h-9.892c-1.893,0-5.005.566-6.486-.914-1.283-1.283-1.201-3.451.227-4.602.691-.557,1.444-.678,2.302-.684,1.414-.009,2.828,0,4.243,0,3.298,0,6.595,0,9.893,0,1.233,0,2.558-.203,3.614.568.836.611,1.267,1.504,1.299,2.527.096,3.081,4.896,3.095,4.8,0-.107-3.457-2.24-6.491-5.578-7.549-1.622-.514-3.426-.345-5.102-.345-1.789,0-3.579,0-5.368,0s-3.576,0-5.365,0c-1.629,0-3.352-.151-4.937.299-3.345.951-5.742,4.114-5.741,7.595,0,3.349,2.181,6.293,5.283,7.448,1.389.517,2.849.458,4.301.458h11.772c1.377,0,2.791.089,4.156-.129,3.735-.595,6.579-4.006,6.579-7.777,0-3.089-4.8-3.094-4.8,0Z"/><path class="e" d="M35.405,247.786h0c0,3.028-2.477,5.505-5.505,5.505H13.62c-3.028,0-5.505-2.477-5.505-5.505h0c0-3.035,2.457-5.495,5.492-5.495,4.744,0,11.555,0,16.31,0,3.035,0,5.489,2.46,5.489,5.495Z"/><path class="g" d="M33.005,247.786c0,1.761-1.419,3.02-3.11,3.105-.692.035-1.395,0-2.088,0h-9.892c-1.893,0-5.005.566-6.486-.914-1.283-1.283-1.201-3.451.227-4.602.691-.557,1.444-.678,2.302-.684,1.414-.009,2.828,0,4.243,0,3.298,0,6.595,0,9.893,0,1.233,0,2.558-.203,3.614.568.836.611,1.267,1.504,1.299,2.527.096,3.081,4.896,3.095,4.8,0-.107-3.457-2.24-6.491-5.578-7.549-1.622-.514-3.426-.345-5.102-.345-1.789,0-3.579,0-5.368,0s-3.576,0-5.365,0c-1.629,0-3.352-.151-4.937.299-3.345.951-5.742,4.114-5.741,7.595,0,3.349,2.181,6.293,5.283,7.448,1.389.517,2.849.458,4.301.458h11.772c1.377,0,2.791.089,4.156-.129,3.735-.595,6.579-4.006,6.579-7.777,0-3.089-4.8-3.094-4.8,0Z"/><path class="g" d="M205.893,37.373c0,6.178,0,12.357,0,18.535,0,3.089,4.8,3.094,4.8,0,0-6.178,0-12.357,0-18.535,0-3.089-4.8-3.094-4.8,0h0Z"/><path class="g" d="M219.893,21.486c0,15.887,0,31.775,0,47.662,0,3.089,4.8,3.094,4.8,0,0-15.887,0-31.775,0-47.662,0-3.089-4.8-3.094-4.8,0h0Z"/><path class="g" d="M317.893,37.373c0,6.178,0,12.357,0,18.535,0,3.089,4.8,3.094,4.8,0,0-6.178,0-12.357,0-18.535,0-3.089-4.8-3.094-4.8,0h0Z"/><path class="g" d="M303.893,21.486c0,15.887,0,31.775,0,47.662,0,3.089,4.8,3.094,4.8,0,0-15.887,0-31.775,0-47.662,0-3.089-4.8-3.094-4.8,0h0Z"/><path class="g" d="M261.893,37.373c0,6.178,0,12.357,0,18.535,0,3.089,4.8,3.094,4.8,0,0-6.178,0-12.357,0-18.535,0-3.089-4.8-3.094-4.8,0h0Z"/><path class="g" d="M247.893,21.486c0,15.887,0,31.775,0,47.662,0,3.089,4.8,3.094,4.8,0,0-15.887,0-31.775,0-47.662,0-3.089-4.8-3.094-4.8,0h0Z"/><path class="g" d="M233.893,7.452v78.113c0,3.089,4.8,3.094,4.8,0V7.452c0-3.089-4.8-3.094-4.8,0h0Z"/><path class="g" d="M275.893,21.486c0,15.887,0,31.775,0,47.662,0,3.089,4.8,3.094,4.8,0,0-15.887,0-31.775,0-47.662,0-3.089-4.8-3.094-4.8,0h0Z"/><path class="g" d="M289.893,7.452v78.113c0,3.089,4.8,3.094,4.8,0V7.452c0-3.089-4.8-3.094-4.8,0h0Z"/><path class="d" d="M66.773,2.239c-.156.04-.311.1-.462.182l-28.361,15.319s-7.291,3.938-14.583,7.877h-1.585s-17.023,0-17.023,0c-1.411,0-2.555,1.144-2.555,2.555v36.674c0,1.411,1.144,2.554,2.555,2.554,6.2-.003,12.4-.002,18.6-.002,6.531,3.527,13.061,7.055,13.061,7.055l29.89,16.145c1.333.72,2.95-.245,2.95-1.76v-.93s0-83.726,0-83.726c0-1.343-1.272-2.253-2.489-1.941Z"/><path class="g" d="M66.188.118c-1.724.557-3.355,1.682-4.936,2.536l-9.574,5.171c-4.934,2.665-9.868,5.33-14.803,7.996-4.873,2.632-9.746,5.264-14.619,7.896l1.11-.3c-5.107,0-10.213,0-15.32,0-2.391,0-5.112-.381-6.867,1.638C-.132,26.565.004,28.364.004,30.195v32.504c0,2.336-.077,4.703,2.219,6.16,1.438.912,3.112.74,4.739.739,1.795,0,3.59,0,5.384-.001,3.671,0,7.342,0,11.013,0l-1.11-.3c9.993,5.398,19.986,10.795,29.979,16.193l12.511,6.758c.767.414,1.547.78,2.449.791,2.529.03,4.223-2.046,4.273-4.443.013-.615,0-1.233,0-1.849V9.596c0-1.799.078-3.618,0-5.416-.124-2.865-2.551-4.537-5.274-4.063-1.171.204-1.83,1.64-1.537,2.706.34,1.237,1.532,1.741,2.706,1.537-.435.076-.209-.373-.296-.039-.05.191,0,.465,0,.662v82.037c0,.482-.03.983,0,1.463.053.855.261-.225.36.213-.007-.03-.132-.06-.152-.082-.237-.263-.825-.445-1.133-.612-8.442-4.56-16.884-9.12-25.326-13.68-2.853-1.541-5.707-3.082-8.56-4.624-2.303-1.244-4.607-2.488-6.911-3.733-.641-.346-1.236-.717-1.981-.77-.725-.052-1.477,0-2.203,0-1.387,0-2.774,0-4.161,0-2.774,0-5.547,0-8.321,0-.734,0-1.468,0-2.203,0-.396,0-1.394.16-1.76-.005-.224-.101-.232-.145-.308-.368-.254-.738,0-2.023,0-2.79v-6.223c0-5.491,0-10.982,0-16.473,0-3.59-.15-7.215,0-10.802.036-.864.565-.72,1.333-.72h6.914c2.485,0,4.97,0,7.455,0h1.634c.632,0,1.298.068,1.92-.039,1.32-.227,2.685-1.27,3.86-1.904,4.294-2.319,8.588-4.639,12.882-6.958,8.32-4.494,16.639-8.988,24.959-13.482l1.513-.817c.099-.053.618-.299.483-.255,2.683-.867,1.536-5.117-1.17-4.243Z"/><path class="g" d="M22.494,35.458c0,7.367,0,14.734,0,22.101,0,2.831,4.4,2.836,4.4,0,0-7.367,0-14.734,0-22.101,0-2.831-4.4-2.836-4.4,0h0Z"/><path class="g" d="M82.381,24.709c9.036.065,17.454,5.764,20.503,14.358,3.082,8.686.4,18.378-6.652,24.289-3.863,3.238-8.841,4.918-13.852,4.953-2.83.02-2.837,4.42,0,4.4,10.979-.079,20.819-6.983,24.633-17.275,3.775-10.187.496-22.227-7.921-29.09-4.746-3.87-10.581-5.99-16.711-6.034-2.832-.02-2.835,4.38,0,4.4h0Z"/><path class="g" d="M82.381,36.709c5.344.073,9.807,4.393,9.8,9.8s-4.446,9.727-9.8,9.8c-2.829.039-2.837,4.439,0,4.4,5.955-.082,11.212-3.744,13.326-9.313,2.057-5.417.362-11.951-4.092-15.665-2.625-2.189-5.814-3.375-9.234-3.422-2.832-.039-2.834,4.361,0,4.4h0Z"/></g></svg>