<svg id="b" xmlns="http://www.w3.org/2000/svg" width="340.882" height="301.412" viewBox="0 0 340.882 301.412" style="color: initial !important;"><defs><style>.d{fill:#ffffff;}.e{fill:#211715;}.f{fill:#ffda71;}.g{fill:#645d5c;}</style></defs><g id="c"><path class="d" d="M281.081,211.616h-52.854c-1.105,0-2,.895-2,2,0,28.224,0,46.448,0,74.672,0,1.105.895,2,2,2h108.341c1.105,0,2-.891,2-1.996,0-25.763,0-63.932.004-74.683,0-1.105-.895-1.993-2-1.993h-55.491Z"/><path class="e" d="M262.81,211.621v36.584c0,1.105-.895,2-2,2h-13c-1.105,0-2-.895-2-2v-36.584"/><path class="e" d="M290.894,211.621v36.584c0,1.105-.895,2-2,2h-13c-1.105,0-2-.895-2-2v-36.584"/><path class="e" d="M318.978,211.621v36.584c0,1.105-.895,2-2,2h-13c-1.105,0-2-.895-2-2v-36.584"/><path class="e" d="M252.111,253.181c0,11.577,0,23.155,0,34.732,0,2.831,4.4,2.836,4.4,0,0-.716,0-1.431,0-2.147,0-2.831-4.4-2.836-4.4,0,0,.716,0,1.431,0,2.147h4.4c0-11.577,0-23.155,0-34.732,0-2.831-4.4-2.836-4.4,0h0Z"/><path class="e" d="M280.197,253.181c0,11.577,0,23.155,0,34.732,0,2.831,4.4,2.836,4.4,0,0-.716,0-1.431,0-2.147,0-2.831-4.4-2.836-4.4,0,0,.716,0,1.431,0,2.147h4.4c0-11.577,0-23.155,0-34.732,0-2.831-4.4-2.836-4.4,0h0Z"/><path class="e" d="M281.081,209.416c-9.97,0-19.939,0-29.909,0-6.054,0-12.108,0-18.163,0-1.465,0-2.931-.02-4.395,0-.892.012-1.762.125-2.548.605-1.297.791-1.952,2.114-2.039,3.595-.105,1.773,0,3.582,0,5.359,0,12.301,0,24.602,0,36.902,0,6.098,0,12.195,0,18.293,0,3.399,0,6.798,0,10.198,0,2.972-.549,6.989,3.137,7.978.738.198,1.541.143,2.298.143h3.711c4.453,0,8.906,0,13.36,0,13.327,0,26.654,0,39.98,0,12.615,0,25.23,0,37.846,0h10.39c.592,0,1.19.026,1.782,0,2.083-.092,3.856-1.46,4.172-3.579.364-2.44.065-5.126.065-7.593,0-20.104,0-40.208.003-60.313,0-1.589,0-3.177,0-4.766,0-1.566.243-3.4-.604-4.787-1.187-1.945-3.112-2.034-5.078-2.034h-14.712c-12.29,0-24.581,0-36.871,0h-2.426c-2.831,0-2.836,4.4,0,4.4,9.373,0,18.747,0,28.12,0h19.118c2.049,0,4.098,0,6.147,0,.545,0,1.092-.013,1.636,0,.111.003.267.029.374,0,.212-.057.01.065-.028-.015-.184-.389-.078.196-.078.393,0,.267,0,.533,0,.8,0,.672,0,1.343,0,2.015,0,1.579,0,3.158,0,4.737,0,4.059-.001,8.118-.001,12.177,0,10.279,0,20.559-.001,30.838,0,5.277,0,10.554,0,15.832,0,1.19,0,2.38,0,3.57,0,1.221-.161,2.582,0,3.791.082.612.025.046.181.133-.035-.02-.135,0-.174,0-2.228-.048-4.462,0-6.691,0-11.027,0-22.055,0-33.082,0-13.54,0-27.079,0-40.619,0-8.692,0-17.384,0-26.076,0-.386,0-1.296-.179-1.653,0-.123.061.37.023.173.2.234-.21,0-2.042,0-2.465,0-.965,0-1.929,0-2.894,0-3.217,0-6.433,0-9.65,0-11.718,0-23.436,0-35.153,0-6.225,0-12.45,0-18.675,0-1.614,0-3.228,0-4.842,0,.016.056-.94,0-.992.27.249-.27.19-.009.123-.62.159-.187.062-.152.077.222.1.726,0,.963,0h13.483c11.987,0,23.973,0,35.96,0h2.409c2.831,0,2.836-4.4,0-4.4Z"/><path class="e" d="M308.282,253.181c0,11.577,0,23.155,0,34.732,0,2.831,4.4,2.836,4.4,0,0-.716,0-1.431,0-2.147,0-2.831-4.4-2.836-4.4,0,0,.716,0,1.431,0,2.147h4.4c0-11.577,0-23.155,0-34.732,0-2.831-4.4-2.836-4.4,0h0Z"/><path class="e" d="M260.61,211.621v16.548c0,6.51-.249,13.074,0,19.58.004.097-.053.362,0,.451-.149-.251.475-.124-.131-.194-1.483-.172-3.087,0-4.58,0h-6.012c-.569,0-1.182-.066-1.747,0-.612.071.019-.059-.131.194.169-.285,0-1.193,0-1.512v-15.404c0-6.426.145-12.87,0-19.295-.003-.123,0-.245,0-.368,0-2.831-4.4-2.836-4.4,0v30.199c0,2.102-.094,4.229,0,6.329.112,2.507,1.933,4.196,4.414,4.256,1.563.038,3.133,0,4.696,0h6.104c1.708,0,3.481.154,4.839-1.13,1.84-1.74,1.347-4.812,1.347-7.117v-11.51c0-6.871.146-13.76,0-20.63-.003-.132,0-.265,0-.397,0-2.831-4.4-2.836-4.4,0h0Z"/><path class="e" d="M288.694,211.621v16.548c0,6.51-.249,13.074,0,19.58.004.097-.053.362,0,.451-.149-.251.475-.124-.131-.194-1.483-.172-3.087,0-4.58,0h-6.012c-.569,0-1.182-.066-1.747,0-.612.071.019-.059-.131.194.169-.285,0-1.193,0-1.512v-15.404c0-6.426.145-12.87,0-19.295-.003-.123,0-.245,0-.368,0-2.831-4.4-2.836-4.4,0v30.199c0,2.102-.094,4.229,0,6.329.112,2.507,1.933,4.196,4.414,4.256,1.563.038,3.133,0,4.696,0h6.104c1.708,0,3.481.154,4.839-1.13,1.84-1.74,1.347-4.812,1.347-7.117v-11.51c0-6.871.146-13.76,0-20.63-.003-.132,0-.265,0-.397,0-2.831-4.4-2.836-4.4,0h0Z"/><path class="e" d="M316.778,211.621v16.548c0,6.51-.249,13.074,0,19.58.004.097-.053.362,0,.451-.149-.251.475-.124-.131-.194-1.483-.172-3.087,0-4.58,0h-6.012c-.569,0-1.182-.066-1.747,0-.612.071.019-.059-.131.194.169-.285,0-1.193,0-1.512v-15.404c0-6.426.145-12.87,0-19.295-.003-.123,0-.245,0-.368,0-2.831-4.4-2.836-4.4,0v30.199c0,2.102-.094,4.229,0,6.329.112,2.507,1.933,4.196,4.414,4.256,1.563.038,3.133,0,4.696,0h6.104c1.708,0,3.481.154,4.839-1.13,1.84-1.74,1.347-4.812,1.347-7.117v-11.51c0-6.871.146-13.76,0-20.63-.003-.132,0-.265,0-.397,0-2.831-4.4-2.836-4.4,0h0Z"/><path class="e" d="M24.657,250.791c.033-9.418,2.557-18.526,8.1-26.208,5.344-7.406,13.199-13.394,21.818-16.415,10.158-3.56,21.692-3.867,32.06-1.008,9.165,2.527,17.248,7.976,23.364,15.226,6.732,7.98,9.747,18.067,9.782,28.405.01,3.088,4.81,3.094,4.8,0-.035-10.201-2.702-20.324-8.731-28.653-6.01-8.303-14.512-14.892-24.156-18.401-10.943-3.981-23.556-4.306-34.779-1.311-10.05,2.681-19.136,8.596-25.825,16.552-7.551,8.981-11.192,20.135-11.233,31.813-.011,3.089,4.789,3.093,4.8,0h0Z"/><path class="g" d="M119.217,252.525c3.067.01,6.348,1.026,8.345,2.272,5.406,3.373,8.836,9.456,8.837,16.235,0,6.843-3.428,12.862-8.833,16.233-2.083,1.299-5.571,2.351-8.749,2.269"/><path class="e" d="M119.217,254.925c6.588.119,12.015,4.644,13.969,10.851,1.909,6.067.371,12.909-4.221,17.367-2.746,2.667-6.321,4.031-10.149,3.991-3.09-.032-3.092,4.768,0,4.8,8.712.091,16.032-5.725,18.827-13.822,2.679-7.76.598-16.842-5.287-22.581-3.551-3.463-8.184-5.318-13.14-5.407-3.09-.056-3.09,4.744,0,4.8h0Z"/><path class="d" d="M110.662,299.011h0c-4.544,0-8.262-3.718-8.262-8.262v-39.436c0-4.544,3.718-8.262,8.262-8.262h0c4.554,0,8.245,3.687,8.245,8.241,0,7.119,0,32.347,0,39.482,0,4.554-3.692,8.237-8.245,8.237Z"/><path class="e" d="M110.662,296.611c-3.641,0-5.862-3.054-5.862-6.441v-7.297c0-7.962,0-15.924,0-23.886v-7.158c0-3.518,2.487-6.551,6.21-6.369,2.33.113,4.472,1.74,5.191,3.961.536,1.656.305,3.594.305,5.32,0,4.791,0,9.582,0,14.374,0,5.115,0,10.23,0,15.344,0,1.824,0,3.648,0,5.472,0,2.183-.509,4.158-2.346,5.534-1.02.764-2.239,1.121-3.499,1.147-3.084.064-3.095,4.864,0,4.8,3.566-.074,6.813-1.77,8.84-4.717,1.616-2.35,1.805-4.991,1.805-7.739,0-4.968,0-9.935,0-14.903,0-5.569,0-11.138,0-16.706,0-1.921.01-3.842,0-5.763-.017-3.319-1.346-6.471-3.974-8.561-5.729-4.557-14.282-2.024-16.745,4.831-.832,2.315-.587,4.993-.587,7.42v25.142c0,3.083,0,6.166,0,9.249,0,.931.012,1.827.15,2.757.495,3.317,2.701,6.355,5.717,7.841,1.49.734,3.128,1.15,4.794,1.15,3.089,0,3.094-4.8,0-4.8Z"/><path class="g" d="M25.217,252.916c-3.002.01-6.214,1.004-8.168,2.224-5.292,3.302-8.649,9.256-8.65,15.892,0,6.699,3.355,12.59,8.646,15.89,2.039,1.272,5.453,2.302,8.564,2.221"/><path class="e" d="M25.217,250.516c-4.428.083-8.549,1.583-11.931,4.431-2.973,2.504-5.142,5.948-6.309,9.641-2.401,7.594-.279,16.37,5.544,21.852,3.554,3.346,8.198,5.151,13.089,5.103,3.087-.03,3.095-4.83,0-4.8-6.364.062-11.829-4.125-13.87-10.101-2.022-5.921-.697-12.702,3.739-17.189,2.622-2.653,6.003-4.067,9.739-4.137,3.085-.058,3.095-4.858,0-4.8h0Z"/><path class="d" d="M33.591,298.419h0c4.448,0,8.087-3.639,8.087-8.087v-38.602c0-4.448-3.639-8.087-8.087-8.087h0c-4.457,0-8.071,3.609-8.071,8.067,0,6.968,0,31.663,0,38.647,0,4.457,3.613,8.062,8.071,8.062Z"/><path class="e" d="M33.591,300.819c5.867,0,10.448-4.917,10.487-10.676.016-2.334,0-4.669,0-7.003,0-8.397,0-16.793,0-25.19,0-2.061.037-4.125,0-6.186-.118-6.566-6.023-11.475-12.501-10.318-3.261.582-6.142,2.908-7.493,5.913-1.038,2.31-.963,4.7-.963,7.166,0,5.076,0,10.153,0,15.229,0,5.333,0,10.666,0,15.999,0,1.861-.14,3.793.066,5.644.38,3.413,2.373,6.575,5.456,8.181,1.549.807,3.205,1.206,4.949,1.243,3.09.066,3.089-4.734,0-4.8-2.328-.049-4.455-1.416-5.302-3.624-.621-1.62-.369-3.575-.369-5.282,0-4.672,0-9.344,0-14.016,0-5.018,0-10.037,0-15.055,0-1.802,0-3.604,0-5.406,0-2.102.413-4.031,2.169-5.403,3.739-2.92,9.106-.072,9.189,4.531.031,1.695,0,3.394,0,5.089,0,7.7,0,15.399,0,23.099v9.317c0,.828.037,1.651-.175,2.46-.652,2.49-2.926,4.29-5.512,4.29-3.089,0-3.094,4.8,0,4.8Z"/><path class="d" d="M283.683,42.334c-8.358,8.696-35.698,37.436-47.82,50.202-2.566,2.702-2.513,6.951.123,9.585,2.903,2.901,6.154,6.151,9.056,9.053,2.634,2.634,6.882,2.685,9.583.12,12.762-12.119,41.503-39.46,50.2-47.819"/><path class="e" d="M281.985,40.637c-7.015,7.3-13.989,14.638-20.971,21.97-8.252,8.666-16.5,17.337-24.742,26.013-2.14,2.252-4.211,4.321-4.615,7.566-.229,1.838.129,3.647.94,5.305.851,1.741,2.412,3.048,3.76,4.395,1.531,1.53,3.062,3.061,4.593,4.591,1.427,1.426,2.805,3.107,4.628,4.039,3.448,1.762,7.538,1.232,10.467-1.277,3.927-3.364,7.553-7.162,11.3-10.725,4.58-4.355,9.159-8.711,13.737-13.069,7.911-7.531,15.825-15.059,23.711-22.615.576-.552,1.152-1.104,1.727-1.657,2.232-2.145-1.165-5.536-3.394-3.394-6.933,6.663-13.903,13.288-20.867,19.92-8.44,8.038-16.885,16.071-25.334,24.1-.83.789-1.661,1.578-2.491,2.367-.82.779-1.607,1.713-2.645,2.202-3.282,1.544-5.531-1.369-7.608-3.446-1.477-1.476-2.953-2.952-4.43-4.428-1.091-1.091-2.535-2.15-3.094-3.634-.979-2.603.67-4.38,2.334-6.133,7.761-8.171,15.528-16.337,23.299-24.499,7.158-7.519,14.314-15.04,21.497-22.536.53-.553,1.061-1.107,1.592-1.659,2.141-2.228-1.249-5.627-3.394-3.394h0Z"/><path class="e" d="M234.513,110.661c-2.876,2.908-5.359,6.396-6.309,10.435-.784,3.333-.498,6.759.438,10.029.848,2.965,5.481,1.704,4.629-1.276-.189-.662-.358-1.329-.49-2.005-.036-.186-.068-.374-.101-.561-.008-.044-.075-.501-.04-.244.04.298-.031-.302-.036-.358-.014-.151-.027-.302-.037-.453-.047-.684-.051-1.372-.008-2.056.059-.939.046-.824.274-1.799.376-1.602.796-2.576,1.611-3.959.953-1.618,2.146-3.026,3.464-4.358,2.174-2.199-1.218-5.595-3.394-3.394h0Z"/><path class="g" d="M313.295,12.908c-1.236-.246-2.504-.389-3.801-.417-12.725-.271-25.253,10.756-26.487,23.424-.198,2.038-.115,4.079.22,6.081,0,.001,0,.002.002.003,4.269,4.259,17.202,17.174,21.961,21.929,1.994.332,4.027.418,6.051.221,12.668-1.234,23.696-13.762,23.424-26.487-.142-6.685-3.314-12.582-7.952-17.22-3.708-3.708-8.283-6.512-13.419-7.535Z"/><path class="e" d="M313.933,10.594c-11.918-2.242-24.063,4.369-29.954,14.757-1.375,2.425-2.44,5.093-2.977,7.833-.297,1.516-.477,3.068-.498,4.613-.011.781.019,1.564.087,2.342.084.956.07,2.225.566,3.072.408.697,1.176,1.284,1.742,1.849.7.699,1.4,1.397,2.1,2.096,1.657,1.654,3.313,3.308,4.97,4.962,3.471,3.466,6.943,6.933,10.414,10.4.65.649,1.3,1.298,1.949,1.947.976.974,1.682,1.71,3.144,1.913,3.298.458,6.646.309,9.873-.539,10.857-2.854,19.83-12.904,21.424-24.018,2.032-14.165-9.031-28.347-22.839-31.228-3.014-.629-4.303,3.997-1.276,4.629,9.483,1.978,18.11,10.532,19.452,20.263,1.21,8.775-3.875,17.712-11.053,22.514-4.506,3.014-9.82,4.462-15.228,3.614l1.059.617c-6.29-6.284-12.582-12.567-18.874-18.848-.625-.624-1.249-1.247-1.874-1.871-.238-.237-.476-.475-.713-.712-.092-.092-.26-.332-.381-.38.339.564.475.674.408.33-.024-.204-.044-.407-.062-.612-.263-2.99.09-5.909,1.069-8.743,1.618-4.682,4.947-8.89,8.951-11.776,4.972-3.585,11.123-5.549,17.246-4.398,1.273.239,2.589-.354,2.952-1.676.322-1.17-.396-2.711-1.676-2.952Z"/><rect class="e" x="305.689" y="10.574" width="7.164" height="54.625" rx="2.102" ry="2.102" transform="translate(63.794 229.784) rotate(-45)"/><path class="e" d="M287.214,24.29c5.15,5.15,10.3,10.3,15.45,15.45l19.404,19.404c1.038,1.038,2.07,1.986,3.66,2.093,1.932.13,3.203-.992,4.465-2.254,1.187-1.187,2.391-2.339,2.44-4.156.077-2.876-3.153-5.19-5.003-7.041-7.36-7.36-14.72-14.72-22.079-22.079l-8.487-8.487c-.461-.461-.908-.945-1.387-1.387-1.863-1.717-4.502-1.698-6.37-.003-.716.65-1.418,1.363-2.074,2.074-1.762,1.91-1.665,4.45-.019,6.385.84.988,2.53.865,3.394,0,.979-.979.842-2.404,0-3.394.258.303-.203.558.264.157.455-.391.862-.862,1.286-1.286.066-.066.465-.377.471-.471.011-.181.091.065-.139.016-.434-.093-.176-.143-.169-.046.026.363,1.295,1.295,1.539,1.539l7.899,7.899,21.091,21.091,3.383,3.383c.331.331,1.154,1.518,1.627,1.627.02.005.053.075.073.073-.373.037.398-.693-.264-.157-.462.374-.866.866-1.286,1.286-.096.096-.447.335-.471.471-.025.141-.285.028.139-.016.259-.026.22.155-.011-.134-.218-.273-.511-.511-.758-.758-6.057-6.057-12.113-12.113-18.17-18.17-5.401-5.401-10.703-10.929-16.216-16.216-.098-.094-.192-.192-.288-.288-2.187-2.187-5.582,1.206-3.394,3.394Z"/><path class="f" d="M82.771,51.488c-6.906-6.906-16.792-8.754-25.656-4.603-4.674,2.189-8.676,5.606-12.193,9.337-3.218,3.414-5.924,7.729-10.427,9.587-4.898,2.021-10.266,2.343-15.05,4.728-4.964,2.474-9.448,6.105-12.601,10.695-4.382,6.379-5.225,14.303-3.823,21.889,1.685,9.12,6.76,16.098,14.204,23.544,7.447,7.444,14.425,12.52,23.544,14.205,7.585,1.401,15.51.559,21.889-3.823,4.59-3.153,8.22-7.637,10.695-12.601,2.385-4.785,2.707-10.152,4.728-15.05,1.858-4.503,6.173-7.209,9.587-10.427,3.732-3.517,7.149-7.519,9.337-12.193,4.151-8.865,2.303-18.751-4.603-25.656"/><path class="d" d="M34.19,101.624c-.085-.085-.17-.17-.254-.254,9.374-9.374,18.748-18.748,28.122-28.122,2.982-2.982,5.965-5.965,8.947-8.947,13.26-13.26,26.519-26.519,39.775-39.783,2.259,2.258,6.345,6.344,8.591,8.589-13.261,13.258-26.521,26.518-39.781,39.778-2.982,2.982-5.965,5.965-8.947,8.947-9.374,9.374-18.748,18.748-28.118,28.125-2.573-2.573-5.728-5.728-8.334-8.334Z"/><path class="e" d="M84.468,49.791c-6.777-6.669-16.711-9.312-25.787-6.123-4.8,1.687-9.028,4.683-12.724,8.132-3.365,3.14-5.956,7.113-9.501,10.043-3.725,3.078-9.077,3.429-13.55,4.79-4.793,1.459-9.181,4.098-12.909,7.429s-6.692,7.505-8.357,12.252C-.004,90.999-.327,96.142.295,101.045c.591,4.656,1.943,9.094,4.166,13.237,2.247,4.19,5.268,7.951,8.497,11.421,6.449,6.929,13.899,13.536,23.079,16.457,9.251,2.944,20.272,2.401,28.332-3.394,4.041-2.905,7.386-6.669,9.896-10.964,2.653-4.539,3.559-9.466,4.993-14.446.632-2.193,1.402-4.31,2.909-6.066,1.437-1.674,3.134-3.091,4.809-4.517,3.792-3.229,7.29-6.852,10.013-11.043,5.25-8.082,6.223-18.205,1.382-26.729-1.158-2.039-2.628-3.91-4.271-5.579-2.17-2.205-5.564,1.19-3.394,3.394,5.802,5.895,7.752,14.527,4.467,22.224-1.796,4.208-4.751,7.842-7.971,11.041-3.038,3.018-6.661,5.453-9.277,8.879-2.883,3.777-3.623,8.582-4.818,13.063-1.167,4.377-3.192,8.397-6.136,11.861-2.828,3.327-6.332,6.176-10.476,7.67-4.236,1.527-8.782,1.832-13.233,1.292-8.552-1.037-15.668-5.687-21.836-11.454-6.236-5.83-12.422-12.517-15.067-20.815s-2.178-18.002,3.271-25.125c2.643-3.456,6.134-6.218,9.945-8.28,4.217-2.282,8.984-2.833,13.494-4.294,2.116-.685,4.089-1.56,5.862-2.912s3.273-2.961,4.721-4.648c2.895-3.375,5.886-6.691,9.516-9.303,3.469-2.497,7.441-4.474,11.756-4.845,3.954-.34,7.906.467,11.378,2.401,1.768.985,3.333,2.197,4.773,3.615,2.204,2.169,5.6-1.223,3.394-3.394h0Z"/><path class="e" d="M50.44,93.447c-2.739-2.74-4.314-6.583-3.943-10.4.627-6.436,6.992-12.039,13.457-11.901,3.396.072,6.411,1.703,8.749,4.04,2.356,2.356,3.968,5.352,4.04,8.749.138,6.465-5.465,12.83-11.901,13.457-3.817.372-7.695-1.238-10.402-3.945Z"/><path class="e" d="M52.137,91.75c-3.167-3.259-4.353-8.07-2.066-12.163,2.025-3.624,6.057-6.281,10.289-6.024,4.451.27,8.625,4.231,9.713,8.447,1.046,4.055-1.07,8.353-4.272,10.838-4.27,3.314-9.87,2.587-13.663-1.098-2.217-2.154-5.615,1.237-3.394,3.394,4.776,4.64,11.856,6.136,17.826,2.904,5.209-2.82,9.08-8.891,8.528-14.92-.592-6.461-5.798-12.46-12.129-13.986-6.159-1.484-12.433,1.554-16.071,6.525-4.463,6.098-3.298,14.183,1.846,19.477,2.156,2.219,5.549-1.176,3.394-3.394Z"/><path class="e" d="M119.748,29.332c-21.024,21.024-42.047,42.047-63.071,63.071-5.958,5.958-11.917,11.917-17.875,17.875-2.187,2.187,1.206,5.582,3.394,3.394,21.003-21.003,42.005-42.005,63.008-63.008,5.979-5.979,11.959-11.959,17.938-17.938,2.187-2.187-1.206-5.582-3.394-3.394h0Z"/><path class="e" d="M115.456,25.04c-21.024,21.024-42.047,42.047-63.071,63.071-5.958,5.958-11.917,11.917-17.875,17.875-2.187,2.187,1.206,5.582,3.394,3.394,21.003-21.003,42.005-42.005,63.008-63.008,5.979-5.979,11.959-11.959,17.938-17.938,2.187-2.187-1.206-5.582-3.394-3.394h0Z"/><path class="e" d="M111.164,20.748c-21.024,21.024-42.047,42.047-63.071,63.071l-17.875,17.875c-2.187,2.187,1.206,5.582,3.394,3.394,21.003-21.003,42.005-42.005,63.008-63.008,5.979-5.979,11.959-11.959,17.938-17.938,2.187-2.187-1.206-5.582-3.394-3.394h0Z"/><path class="d" d="M128.816,1.482s13.203,13.203,13.583,13.583c-4.73,4.46-14.385,13.154-21.463,19.607-.498-.498-10.953-10.953-11.721-11.718.869-.953,16.22-17.87,19.6-21.472Z"/><path class="e" d="M128.601,4.662c1.858,1.858,3.716,3.716,5.574,5.574.925.925,1.85,1.85,2.774,2.774.444.444.888.888,1.332,1.332.196.196.391.391.587.587.282.282.251.506.246.123-.005-.412.254-.312-.171-.042-.16.102-.342.317-.473.438-.505.467-1.011.934-1.517,1.4-1.13,1.039-2.263,2.075-3.397,3.11-2.521,2.3-5.049,4.594-7.576,6.887-1.163,1.055-2.326,2.111-3.488,3.167-.239.217-1.64,1.207-1.625,1.503.002.046.41-.08.401.097.007-.138-.674-.674-.781-.781-1.931-1.931-3.863-3.863-5.794-5.794-.472-.472-.945-.945-1.417-1.417-.208-.208-.417-.417-.625-.625l-.193-.193c-.213-.245-.241-.249-.085-.01.201.051-.334.604.231-.006.366-.394.724-.796,1.085-1.194,1.644-1.809,3.288-3.618,4.933-5.426,2.016-2.216,4.033-4.43,6.053-6.642.898-.983,1.796-1.965,2.695-2.946.412-.449.824-.899,1.237-1.347.048-.052.484-.454.471-.512.018.078-.348.054-.481-.059.988.837,2.424.97,3.394,0,.859-.859.993-2.552,0-3.394-1.608-1.363-3.733-1.753-5.573-.545-1.127.74-2.023,2.004-2.927,2.991-2.135,2.331-4.265,4.667-6.394,7.005-2.034,2.233-4.065,4.467-6.097,6.702-.797.877-1.637,1.73-2.378,2.654-1.4,1.743-1.33,4.122.14,5.805,2.143,2.453,4.644,4.665,6.948,6.968,1.114,1.114,2.266,2.641,3.788,3.178,2.23.786,3.874-.333,5.461-1.777,5.719-5.201,11.47-10.369,17.139-15.625,1.686-1.563,2.451-3.913,1.109-5.988-.907-1.403-2.419-2.569-3.595-3.744-2.541-2.541-5.082-5.082-7.622-7.622-2.187-2.187-5.582,1.206-3.394,3.394Z"/><path class="d" d="M45.499,116.652l-2.48,2.48c-1.027,1.027-2.693,1.027-3.72,0l-14.541-14.541c-1.027-1.027-1.027-2.693,0-3.72l2.48-2.48c1.027-1.027,2.688-1.032,3.715-.005,3.504,3.504,11.023,11.023,14.549,14.549,1.027,1.027,1.024,2.69-.003,3.717Z"/><path class="e" d="M43.801,114.955l-1.593,1.593c-.263.263-.514.553-.796.796-.016.014-.108.118-.07.082.071-.068-.228.131-.219.127.294-.117.03.052-.1-.054.262.212-.095-.14-.254-.29-.339-.321-.661-.661-.991-.991l-7.938-7.938c-1.795-1.795-3.626-3.559-5.387-5.387.075.078-.175-.387-.066-.081.007.021.069-.352-.052-.048.081-.203.234-.313.453-.532.648-.648,1.282-1.314,1.946-1.946.19-.181.245-.256.363-.292-.315.098.308.095-.008-.003.118.037.198.134.374.302.89.849,1.742,1.742,2.612,2.612,2.366,2.366,4.732,4.732,7.098,7.098,1.109,1.109,2.217,2.217,3.326,3.326.434.434.877.861,1.303,1.303-.098-.102.249.364.063.027.169.307-.051.343.003.163.072-.239-.191.27-.068.133-.866.964-.951,2.443,0,3.394.88.88,2.525.968,3.394,0,1.552-1.728,1.956-4.137.734-6.183-.741-1.241-2.08-2.276-3.095-3.291-2.455-2.455-4.909-4.909-7.364-7.364-1.119-1.119-2.237-2.237-3.356-3.356-1.171-1.171-2.275-2.475-3.98-2.821-3.065-.622-5.017,1.719-6.916,3.682-2.128,2.198-2.078,5.307.049,7.479,1.021,1.042,2.064,2.064,3.095,3.095l9.465,9.465c1.184,1.184,2.343,2.625,4.026,3.076,3.265.875,5.314-1.754,7.342-3.782,2.187-2.187-1.206-5.582-3.394-3.394Z"/></g></svg>