<svg xmlns="http://www.w3.org/2000/svg" width="192.808" height="242.458" viewBox="0 0 192.808 242.458" style="color: initial !important;"><defs><style>.a{fill:#c6c6c6;}.b{fill:#211715;}</style></defs><path class="a" d="M49.974,175.407a25.347,25.347,0,0,1-17.216-6.244A31.165,31.165,0,0,1,22.864,153.1a52.077,52.077,0,0,1-.994-16.335c.394-4.544,2.635-13.456,4.016-17.8,1.081-3.4,1.914-7.174-.342-10.385a8.179,8.179,0,0,0-7.319-3.494,13.442,13.442,0,0,0-8.115,3.84,20.313,20.313,0,0,0-4.374,7.7C.569,132.883.893,157.091,10.362,171.286c8.669,13,22.355,20.691,36.084,28.146l4.86,2.593"/><path class="b" d="M49.974,173.007a24.356,24.356,0,0,1-10.538-2.269,26.466,26.466,0,0,1-8.487-6.818c-5.276-6.28-6.956-14.3-6.9-22.323.043-6.791,1.639-13.382,3.561-20.025,1.042-3.6,2.368-7.247,1.433-11.036a10.523,10.523,0,0,0-8.3-7.675,14.437,14.437,0,0,0-11.158,3.313c-3.217,2.56-5.179,6.584-6.356,10.438A78.574,78.574,0,0,0,.023,137.7,74.738,74.738,0,0,0,2.6,159.681a48.3,48.3,0,0,0,10.391,18.93c9.526,10.845,22.645,17.772,35.2,24.473l1.9,1.013c2.725,1.454,5.152-2.688,2.423-4.144-10.938-5.838-22.289-11.577-31.5-20.016-5.138-4.71-9.648-10.27-12.209-16.811A62.2,62.2,0,0,1,4.872,143.02a78.469,78.469,0,0,1,1.766-20.527c1.395-6.17,3.957-14.253,11.421-14.995a5.818,5.818,0,0,1,6.5,5.223c.227,3.135-1.237,6.279-2.05,9.256C20.668,128.7,19.184,135.5,19.246,142.5c.071,8.092,1.832,16.154,6.7,22.764,4.433,6.019,10.728,10.664,18.187,12a35.555,35.555,0,0,0,5.842.545c3.09.037,3.092-4.763,0-4.8Z"/><path class="a" d="M188.9,171.028c-2.924-14.52-8.244-26.432-15.139-40.871-4.476-9.373-6.844-15.668-11.146-25.715-2.269-5.3-3.731-11.64-8.689-16.049a23.963,23.963,0,0,0,2.975-1.845,54.731,54.731,0,0,0,9.025-8.575A25.572,25.572,0,0,0,171.7,66.4c.011-.022.011-.044.022-.066A53.113,53.113,0,0,0,166.23,30.16q.969-10.78,1.633-21.583a7.979,7.979,0,0,0-.417-3.846,3.745,3.745,0,0,0-3.429-2.191,36.721,36.721,0,0,0-4.93.076A76.99,76.99,0,0,0,137,7.9a30.425,30.425,0,0,0-9.258-2.64A65.8,65.8,0,0,0,118,4.61a89.538,89.538,0,0,0-11.876.647A24.065,24.065,0,0,0,96.867,7.9,77.078,77.078,0,0,0,74.779,2.616a36.787,36.787,0,0,0-4.93-.076,3.761,3.761,0,0,0-3.44,2.191A7.976,7.976,0,0,0,66,8.577q.642,10.7,1.611,21.375l.018.208a53.113,53.113,0,0,0-5.489,36.177c.011.022.011.044.022.066a25.572,25.572,0,0,0,5.774,11.57,54.771,54.771,0,0,0,9.025,8.575,24.1,24.1,0,0,0,3.414,2.07c-4.769,4.4-6.22,10.612-8.452,15.824-4.3,10.047-6.67,16.342-11.146,25.715-1.531,3.206-2.984,6.288-4.351,9.3-4.788,10.556-8.513,20.274-10.788,31.57-2.051,10.187-2.285,24.021,1.075,33.854,3.738,10.942,12.945,20.646,25.015,20.565h8.433a9.615,9.615,0,0,0-1.4,4.544c.1,4.254,2.333,7.5,5.743,8.658,3.6,1.223,11.446,1.638,15.173,1.207a15.607,15.607,0,0,0,7.424-3.891c1.871-2.121,2.541-4.624,3.055-7.58a12.169,12.169,0,0,0,.095-2.938H125a12.119,12.119,0,0,0,.095,2.938c.514,2.956,1.183,5.459,3.054,7.58a15.607,15.607,0,0,0,7.424,3.891c3.727.431,11.57.016,15.174-1.207,3.409-1.158,5.638-4.4,5.743-8.658a9.638,9.638,0,0,0-1.4-4.544h7.719c12.07.081,21.277-9.623,25.016-20.565C191.182,195.049,190.948,181.215,188.9,171.028Z"/><path class="b" d="M148.715,93.015A33.692,33.692,0,0,0,161.4,86.009,43.692,43.692,0,0,0,171.137,74.7a35.734,35.734,0,0,0,3.872-14.356,54.936,54.936,0,0,0-.825-15.066A56.9,56.9,0,0,0,168.3,28.949l.328,1.211q.6-6.738,1.094-13.486.248-3.433.463-6.87c.137-2.189.316-4.437-.752-6.444-2.02-3.8-6.686-3.41-10.348-3.144a74.632,74.632,0,0,0-11.249,1.761,71.818,71.818,0,0,0-12.05,3.848h2.422C131.568,2.755,124.237,2.2,117,2.208c-7.194.012-14.819.324-21.349,3.617h2.423A75.2,75.2,0,0,0,76.09.329C72.528-.02,67.621-.748,65.081,2.4a8.411,8.411,0,0,0-1.49,5.958c.122,2.313.286,4.624.447,6.933.346,4.961.767,9.915,1.194,14.869l.328-1.211a56.407,56.407,0,0,0-6.83,29.67A39.133,39.133,0,0,0,61.961,73.2c2.076,4.427,5.527,8.169,9.053,11.5a34.689,34.689,0,0,0,14.133,8.316c2.966.889,4.233-3.742,1.276-4.629A28.9,28.9,0,0,1,74.88,81.745c-3.444-3.167-6.764-6.7-8.774-10.967-1.939-4.118-2.5-8.954-2.63-13.455a50.6,50.6,0,0,1,1.59-14.157A52.59,52.59,0,0,1,67.4,36.141c.425-1.021.894-2.026,1.387-3.016.568-1.139,1.26-2.114,1.2-3.421-.248-5.549-.937-11.1-1.3-16.65q-.139-2.113-.268-4.229c-.057-.979-.3-2.313.231-3.2a1.59,1.59,0,0,1,1.426-.7,25.39,25.39,0,0,1,3.841.034,68.485,68.485,0,0,1,13.492,2.3C89.6,7.839,91.772,8.5,93.9,9.285A9.849,9.849,0,0,0,96.867,10.3c1.107,0,2.228-.868,3.251-1.26,4.209-1.612,9.015-1.811,13.472-1.969a74.423,74.423,0,0,1,13.742.538,34.4,34.4,0,0,1,6.358,1.5c.812.288,1.577.7,2.384.983,1.32.469,2.494-.284,3.718-.741A76.809,76.809,0,0,1,153.034,5.8a57.354,57.354,0,0,1,6.478-.814c1.195-.078,2.4-.125,3.592-.09a2.866,2.866,0,0,1,1.92.433c.667.663.5,1.979.462,2.809-.064,1.455-.177,2.91-.273,4.363q-.278,4.172-.6,8.341t-.694,8.336a6.273,6.273,0,0,0,1.057,3.749c.563,1.118,1.095,2.255,1.568,3.415a50.678,50.678,0,0,1,3.074,28.292,24.777,24.777,0,0,1-5.8,12.108c-3.015,3.4-6.273,6.822-10.249,9.108a28.624,28.624,0,0,1-6.126,2.534c-2.951.885-1.694,5.519,1.277,4.629Z"/><path class="b" d="M119.685,69.473c-1.973.61-6.507.227-6.883-3.5.043-4.921,5.527-5.2,8.1-3.547C123.009,63.782,123.876,67.768,119.685,69.473Z"/><path class="b" d="M92.479,49.874c-.8,2.6-.3,8.573,4.606,9.069,6.484-.057,6.847-7.282,4.672-10.672C99.977,45.494,94.726,44.352,92.479,49.874Z"/><path class="b" d="M141.381,49.874c.8,2.6.3,8.574-4.6,9.069-6.484-.057-6.847-7.282-4.673-10.673C133.883,45.494,139.135,44.352,141.381,49.874Z"/><path class="b" d="M106.951,75.344a8.744,8.744,0,0,0,6.471,3.422,6.6,6.6,0,0,0,6.478-3.55h-4.145a6.536,6.536,0,0,0,6.34,3.546,8.672,8.672,0,0,0,6.413-3.479A2.414,2.414,0,0,0,127.647,72a2.461,2.461,0,0,0-3.284.861c.156-.2,0-.013-.087.062-.12.106-.229.224-.353.326.244-.2-.1.059-.2.118-.138.085-.281.16-.424.238-.347.189.273-.09-.094.051-.151.059-.305.108-.46.153s-.31.085-.467.118c-.094.02-.6.062-.181.036a6.624,6.624,0,0,1-.913,0c.449.034-.3-.074-.46-.145.23.1-.076-.064-.123-.1.188.151-.2-.166-.233-.2a3.372,3.372,0,0,1-.466-.718,2.416,2.416,0,0,0-4.145,0,3.35,3.35,0,0,1-.467.718c-.045.045-.335.292-.263.237.16-.12-.382.195-.093.069-.14.061-.3.078-.437.128-.418.149.194.009-.081.023-.334.016-.658.015-.992,0-.195-.01-.289-.056-.045,0-.152-.032-.3-.061-.455-.1-.19-.048-.377-.1-.563-.167-.042-.015-.448-.184-.259-.1.23.107-.294-.166-.34-.193-.133-.078-.264-.16-.39-.249.388.274-.573-.628-.274-.235a2.479,2.479,0,0,0-3.284-.861,2.415,2.415,0,0,0-.861,3.283Z"/><path class="b" d="M115.427,70.195V73.01a2.469,2.469,0,0,0,2.4,2.4,2.426,2.426,0,0,0,1.7-.7,2.5,2.5,0,0,0,.7-1.7V70.195a2.467,2.467,0,0,0-2.4-2.4,2.427,2.427,0,0,0-1.7.7,2.5,2.5,0,0,0-.7,1.7Z"/><path class="b" d="M154.1,18.363a21.814,21.814,0,0,0-2.034-2.942c-.336-.427-.686-.845-1.058-1.243-.311-.333-.707-.618-.99-.969l.617,1.059a1.636,1.636,0,0,1-.278,1.444q-.209.252-.036.065l-.357.283a2.076,2.076,0,0,0,.362-.2c.128-.065.26-.121.389-.183.25-.121-.59.236-.234.1l.26-.1a21.073,21.073,0,0,1,2.419-.737q.664-.163,1.336-.293.358-.069.717-.129c.12-.02.239-.037.359-.056.333-.053-.118.015-.209.025a18.933,18.933,0,0,1,2.682-.149,2.42,2.42,0,0,0,2.4-2.4,2.449,2.449,0,0,0-2.4-2.4,20.747,20.747,0,0,0-4.108.352,25.461,25.461,0,0,0-3.614.861,8.854,8.854,0,0,0-3.363,1.606,3.1,3.1,0,0,0-.833,3.475,7.163,7.163,0,0,0,1.583,1.845q.375.41.724.842l.144.178c.2.244-.027-.026-.094-.124.1.146.215.284.319.427a16.925,16.925,0,0,1,1.152,1.786,2.424,2.424,0,0,0,3.284.861,2.45,2.45,0,0,0,.861-3.283Z"/><path class="b" d="M76.919,14.337a17.016,17.016,0,0,1,2.611.14c.3.035-.644-.1-.138-.016l.287.044c.239.039.479.081.717.127q.708.135,1.407.307a21.629,21.629,0,0,1,2.366.716c.088.033.175.069.263.1.4.151-.2-.047-.23-.1.035.068.354.162.435.2.111.056.217.129.33.18.215.1-.508-.47-.249-.185a1.694,1.694,0,0,1-.389-1.587l.617-1.059c-.284.352-.679.636-.99.969-.372.4-.722.816-1.059,1.243a21.807,21.807,0,0,0-2.033,2.942,2.4,2.4,0,0,0,4.144,2.422,16.036,16.036,0,0,1,.935-1.481q.151-.216.307-.427c.053-.072.361-.477.135-.183s.144-.176.193-.235c.111-.136.223-.27.338-.4a14.71,14.71,0,0,1,1.22-1.252,2.887,2.887,0,0,0,.431-3.762,6.55,6.55,0,0,0-3.512-2.156,24.366,24.366,0,0,0-3.526-.91,21.261,21.261,0,0,0-4.61-.44,2.4,2.4,0,1,0,0,4.8Z"/><path class="b" d="M47.968,71.8c4.711-.842,9.418-1.686,14.193-2.072,4.169-.337,8.367-.391,12.547-.362,3.089.021,3.092-4.779,0-4.8-4.252-.029-8.525.024-12.765.38-5.127.432-10.191,1.321-15.251,2.225a2.422,2.422,0,0,0-1.677,2.953A2.454,2.454,0,0,0,47.968,71.8Z"/><path class="b" d="M59.733,88.813a57.8,57.8,0,0,1,17.422-10.84,2.465,2.465,0,0,0,1.676-2.952,2.42,2.42,0,0,0-2.952-1.677,64.173,64.173,0,0,0-19.54,12.075,2.422,2.422,0,0,0,0,3.394,2.447,2.447,0,0,0,3.394,0Z"/><path class="b" d="M186.723,67.175c-5.061-.9-10.124-1.794-15.251-2.225-4.24-.356-8.513-.409-12.765-.38-3.087.021-3.094,4.821,0,4.8,4.18-.029,8.378.025,12.546.362,4.776.386,9.482,1.23,14.194,2.072a2.468,2.468,0,0,0,2.952-1.676,2.421,2.421,0,0,0-1.676-2.953Z"/><path class="b" d="M177.076,85.419a61.509,61.509,0,0,0-19.54-12.075,2.421,2.421,0,0,0-2.952,1.677,2.451,2.451,0,0,0,1.676,2.952,49.771,49.771,0,0,1,9.1,4.654,58.046,58.046,0,0,1,8.32,6.186,2.454,2.454,0,0,0,3.395,0,2.425,2.425,0,0,0,0-3.394Z"/><path class="b" d="M104.463,5.6V13a2.8,2.8,0,1,0,5.6,0V5.6a2.8,2.8,0,1,0-5.6,0Z"/><path class="b" d="M114.131,5.226V15.685a2.8,2.8,0,1,0,5.6,0V5.226a2.8,2.8,0,1,0-5.6,0Z"/><path class="b" d="M123.8,5.6V13a2.8,2.8,0,1,0,5.6,0V5.6a2.8,2.8,0,1,0-5.6,0Z"/><path class="b" d="M159.11,169.171c-2.166,13.376-6.588,26.277-8.463,39.7-.251,1.791-.472,3.587-.647,5.387a22.213,22.213,0,0,0-.257,5.687c.451,2.636,2.363,4.872,3.532,7.215a6.806,6.806,0,0,1-.4,6.973c-1.34,2.024-3.555,2.538-5.811,2.915a48.459,48.459,0,0,1-8.381.571c-.607,0-1.214-.021-1.821-.056-.267-.015-.535-.033-.8-.057-.788-.072.451.125-.338-.046a12.724,12.724,0,0,1-3.662-1.526,8.811,8.811,0,0,1-4.243-6.152c-.794-3.343-.058-6.354.287-9.7.891-8.625.817-17.387,1.148-26.047.517-13.505,1.2-26.97,1.179-40.49,0-3.088-4.8-3.094-4.8,0,.02,12.546-.54,25.044-1.061,37.575-.392,9.438-.4,18.932-1.209,28.347-.277,3.222-1.11,6.3-.58,9.553.538,3.3,1.641,6.909,4.237,9.195a16.7,16.7,0,0,0,7.917,3.952,37.575,37.575,0,0,0,8.631.076,28.571,28.571,0,0,0,8.425-1.516,10.933,10.933,0,0,0,6.273-6.867,11.715,11.715,0,0,0-1-9.437c-.68-1.308-1.493-2.542-2.188-3.842a6.33,6.33,0,0,1-.586-1.345,2.08,2.08,0,0,1-.081-.347c0,.044.033.361.038.094.011-.508.056-1.018.091-1.526.976-14.078,5.436-27.4,8.156-41.161q.576-2.916,1.049-5.852a2.474,2.474,0,0,0-1.677-2.952,2.418,2.418,0,0,0-2.952,1.676Z"/><path class="b" d="M71.513,170.447c2.244,13.859,6.974,27.229,8.653,41.182q.35,2.907.551,5.831c.033.473.076.948.09,1.421,0,.032,0,.382.021.11.023-.3-.04.176-.063.248a6.4,6.4,0,0,1-.585,1.345c-1.464,2.736-3.4,5.314-3.761,8.487a12.031,12.031,0,0,0,2.966,9c1.954,2.206,4.7,3.134,7.526,3.6a55.957,55.957,0,0,0,9.33.745,17.655,17.655,0,0,0,8.122-1.676A13.1,13.1,0,0,0,111,234.233a20.408,20.408,0,0,0,1.367-11.242c-1.309-9.267-1.2-18.752-1.536-28.1-.428-11.8-1.126-23.575-1.2-35.384q-.02-2.982-.012-5.964c0-3.089-4.8-3.093-4.8,0-.019,12,.48,23.948.992,35.929.406,9.485.538,18.991,1.165,28.466.353,5.313,2.28,11.315-1.312,16.019a11.072,11.072,0,0,1-6.136,3.5c-.789.171.451-.026-.337.046-.267.024-.535.042-.8.057-.606.035-1.214.051-1.821.056-1.508.014-3.018-.04-4.523-.146-2.346-.166-5.044-.305-7.229-1.263a6.621,6.621,0,0,1-3.639-5.835c-.147-2.564,1.794-4.912,3-7.092a10.841,10.841,0,0,0,1.335-3.338,22.168,22.168,0,0,0-.257-5.687c-1.486-15.336-6.654-29.922-9.109-45.087a2.419,2.419,0,0,0-2.953-1.676,2.458,2.458,0,0,0-1.676,2.952Z"/><path class="b" d="M152.176,90.046c3.57,3.226,5.254,7.624,6.923,12.017,1.878,4.944,4.048,9.79,6.093,14.667,4.268,10.18,9.32,20,13.581,30.18,4.094,9.779,7.581,20.139,8.735,30.726,1.034,9.483.99,20.126-2.924,29.011-3.875,8.8-11.677,16.384-21.777,16.4-3.088,0-3.094,4.805,0,4.8,9.975-.015,18.446-6.115,23.586-14.365,5.524-8.866,6.739-19.718,6.347-29.962-.428-11.2-3.255-22.134-7.217-32.575-4.2-11.075-9.742-21.55-14.4-32.425-2.376-5.542-4.818-11.091-7-16.711-2.128-5.481-4.061-11.1-8.549-15.157-2.287-2.066-5.692,1.318-3.394,3.394Z"/><path class="b" d="M78.968,86.652c-4,3.612-6.03,8.517-7.9,13.447-1.913,5.053-4.112,10-6.2,14.988-4.485,10.711-9.84,21.029-14.243,31.775-4.265,10.408-7.594,21.324-8.575,32.572-.9,10.335-.28,21.479,4.36,30.928,4.785,9.746,14.1,17.468,25.317,17.485,3.089,0,3.094-4.8,0-4.8-8.93-.014-16.168-6-20.346-13.525-4.676-8.426-5.274-18.63-4.683-28.058.661-10.553,3.66-20.863,7.493-30.672,4.066-10.409,9.3-20.3,13.679-30.576,2.331-5.468,4.712-10.935,6.91-16.458,1.958-4.92,3.526-10.05,7.579-13.712,2.3-2.075-1.106-5.461-3.395-3.394Z"/><path class="b" d="M94.953,232.075a6.813,6.813,0,0,0-.565,1.639,9.627,9.627,0,0,0-.173,1.916,9.289,9.289,0,0,0,.66,3.319,2.677,2.677,0,0,0,1.1,1.434,2.4,2.4,0,0,0,3.283-.861,2.306,2.306,0,0,0,.242-1.849,7.5,7.5,0,0,1-.512-1.907l.085.638a7.278,7.278,0,0,1-.008-1.83l-.086.638a4.893,4.893,0,0,1,.3-1.167l-.242.573q.026-.06.054-.12a1.786,1.786,0,0,0,.284-.892,1.817,1.817,0,0,0-.043-.958,2.4,2.4,0,0,0-2.952-1.676,2.339,2.339,0,0,0-1.434,1.1Z"/><path class="b" d="M85.42,231.99a7.494,7.494,0,0,0-.409,3.219c.042.677.139,1.353.248,2.021a4.616,4.616,0,0,0,.558,1.874,2.553,2.553,0,0,0,1.434,1.1,2.452,2.452,0,0,0,1.849-.242,2.417,2.417,0,0,0,1.1-1.434,2.388,2.388,0,0,0-.242-1.849.513.513,0,0,1-.078-.139l.242.574a9.029,9.029,0,0,1-.307-1.625l.086.638a9.33,9.33,0,0,1-.054-2.413l-.086.638a4.612,4.612,0,0,1,.285-1.089,2.4,2.4,0,0,0-.242-1.849,2.4,2.4,0,0,0-3.284-.861l-.485.375a2.4,2.4,0,0,0-.618,1.059Z"/><path class="b" d="M136.952,234.5c.018.04.036.08.053.12l-.242-.573a4.8,4.8,0,0,1,.3,1.167l-.086-.638a7.278,7.278,0,0,1-.008,1.83l.086-.638a7.548,7.548,0,0,1-.513,1.907,2.4,2.4,0,0,0,.242,1.849,2.4,2.4,0,0,0,3.284.861l.485-.375a2.4,2.4,0,0,0,.618-1.059,9.288,9.288,0,0,0,.659-3.319,9.713,9.713,0,0,0-.167-1.879,6.731,6.731,0,0,0-.57-1.676,2.41,2.41,0,0,0-1.435-1.1,2.452,2.452,0,0,0-1.849.242,2.423,2.423,0,0,0-1.1,1.434l-.086.639a2.4,2.4,0,0,0,.328,1.211Z"/><path class="b" d="M146,233.266a4.6,4.6,0,0,1,.285,1.089l-.086-.638a9.33,9.33,0,0,1-.054,2.413l.086-.638a9.013,9.013,0,0,1-.307,1.625l.242-.574a.465.465,0,0,1-.078.139,2.4,2.4,0,0,0,2.71,3.525,2.665,2.665,0,0,0,1.435-1.1,4.614,4.614,0,0,0,.557-1.874,20.161,20.161,0,0,0,.248-2.021,7.479,7.479,0,0,0-.409-3.219,2.69,2.69,0,0,0-1.1-1.434,2.4,2.4,0,0,0-3.284.861,2.321,2.321,0,0,0-.242,1.849Z"/></svg>