<svg id="b" xmlns="http://www.w3.org/2000/svg" width="373.488" height="281.361" viewBox="0 0 373.488 281.361" style="color: initial !important;"><defs><style>.d{fill:#211715;}.d,.e,.f,.g{stroke-width:0px;}.e{fill:#645d5c;}.f{fill:#ffffff;}.g{fill:#3d8dcc;}</style></defs><g id="c"><path class="f" d="M11.005,263.646v-16.734c0-.313.024-.629.071-.938,1.83-11.969,3.795-23.126,5.881-33.244.585-2.836,3.086-4.861,5.981-4.861h125.959c3.373,0,6.107,2.731,6.107,6.104,0,14.439,0,38.477,0,49.684,0,3.373-2.741,6.101-6.114,6.101-59.759-.003-115.808-.004-131.783-.005-3.373,0-6.104-2.734-6.104-6.107Z"/><path class="g" d="M42.979,239.45v-15.187c0-1.124.911-2.036,2.036-2.036h89.819c1.124,0,2.036.921,2.036,2.045,0,7.012,0,10.905,0,15.176,0,1.124-.911,2.038-2.036,2.038H45.015c-1.124,0-2.036-.911-2.036-2.036Z"/><path class="d" d="M44.979,239.45c0-3.651,0-7.302,0-10.953v-2.87c0-.411-.089-.938,0-1.343,0-.002-.032-.04.11-.057.144-.017.3,0,.444,0h15.289c9.243,0,18.485,0,27.728,0h28.273c5.641,0,11.283,0,16.924,0,.297,0,.776-.094,1.064,0,.059.019-.108-.118.048.015,0,0-.102-.278.01.03.064.176,0,.532,0,.721,0,.68,0,1.361,0,2.041,0,1.895,0,3.791,0,5.686,0,1.552,0,3.104,0,4.656,0,.596.173,1.505,0,2.071.027-.088-.137.062-.051.038-.29.08-.715,0-1.012,0-5.593,0-11.186,0-16.78,0h-28.228c-9.26,0-18.521,0-27.781,0h-15.441c-.15,0-.302.008-.451,0-.188-.01-.147-.036-.147-.036-.206-2.548-4.207-2.57-4,0,.192,2.38,1.847,3.977,4.241,4.036.561.014,1.124,0,1.686,0h7.644c8.81,0,17.62,0,26.431,0h30.271c6.959,0,13.917,0,20.876,0,1.599,0,3.521.244,4.919-.667,1.793-1.169,1.824-3.083,1.824-4.999,0-1.589,0-3.178,0-4.766,0-2.006,0-4.013,0-6.019,0-2.156.317-4.522-1.622-5.982-1.431-1.078-3.382-.825-5.075-.825h-8.369c-9.051,0-18.102,0-27.154,0-10.011,0-20.023,0-30.034,0h-19.672c-.565,0-1.132-.013-1.697,0-2.172.048-4.034,1.444-4.242,3.706-.128,1.394-.027,2.833-.027,4.231v7.385c0,1.3,0,2.601,0,3.901,0,2.574,4,2.578,4,0Z"/><path class="d" d="M13.005,263.646v-13.882c0-.851-.008-1.703,0-2.554.017-1.859.468-3.745.759-5.577.912-5.736,1.885-11.463,2.939-17.176.495-2.685,1.009-5.367,1.543-8.045.395-1.979.469-4.439,2.238-5.744.899-.663,1.912-.8,2.977-.8h5.853c8.723,0,17.445,0,26.168,0h35.926c11.443,0,22.886,0,34.329,0,7.016,0,14.032,0,21.048,0,2.205,0,4.555-.151,5.763,2.221.834,1.637.454,3.87.454,5.652,0,2.076,0,4.151,0,6.227,0,4.715,0,9.431,0,14.146,0,8.277,0,16.553,0,24.83,0,1.76-.443,3.356-2.087,4.279-.894.502-1.771.534-2.775.534-1.578,0-3.155,0-4.733,0-6.068,0-12.135,0-18.203,0-21.778-.001-43.555-.002-65.333-.002-13.625,0-27.249,0-40.874,0-1.099,0-2.31.14-3.352-.261-1.615-.622-2.595-2.145-2.643-3.846-.072-2.569-4.072-2.579-4,0,.135,4.829,3.946,8.107,8.653,8.107,2.215,0,4.43,0,6.645,0,6.859,0,13.718,0,20.577,0,20.579,0,41.158.001,61.737.002,12.43,0,24.86.001,37.29.002,2.722,0,5.742.408,8.296-.72,2.078-.918,3.672-2.706,4.397-4.856.607-1.8.405-3.822.405-5.695,0-1.907,0-3.814,0-5.721,0-9.413,0-18.825,0-28.238,0-2.316,0-4.632,0-6.947,0-2.074.167-4.232-.038-6.296-.42-4.217-3.876-7.316-8.086-7.416-4.751-.113-9.519,0-14.272,0-10.788,0-21.576,0-32.364,0-12.562,0-25.124,0-37.686,0h-30.71c-2.873,0-5.746,0-8.619,0-2.791,0-5.393.046-7.688,2.058-1.994,1.748-2.483,4.097-2.982,6.576-.551,2.738-1.08,5.48-1.59,8.225-1.102,5.933-2.115,11.882-3.062,17.842-.34,2.137-.873,4.346-.902,6.512-.011.799,0,1.599,0,2.398v14.166c0,2.574,4,2.578,4,0Z"/><path class="d" d="M12.511,248.455h6.35c1.59,0,3.094-.513,3.956-1.954.635-1.06.682-2.389.877-3.582.209-1.28.417-2.561.623-3.842.674-4.18,1.335-8.363,2.064-12.534.379-2.171.776-4.338,1.187-6.503.453-2.382,1.091-5.022-1.405-6.535-1.26-.764-2.767-.599-4.177-.599h-3.547c-2.574,0-2.578,4,0,4,1.797,0,3.612-.08,5.406,0,.249.011.221-.038.241.032.083.286-.156.89-.213,1.188-.12.628-.24,1.256-.358,1.884-.353,1.88-.695,3.762-1.023,5.647-.614,3.526-1.181,7.06-1.749,10.593-.337,2.099-.676,4.197-1.02,6.295-.081.493-.079,1.201-.275,1.668-.114.272.073.171-.081.241-.147.067-.493,0-.652,0h-6.206c-2.574,0-2.578,4,0,4h0Z"/><path class="d" d="M63.172,222.227v17.135c0,2.574,4,2.578,4,0v-17.135c0-2.574-4-2.578-4,0h0Z"/><path class="d" d="M87.925,222.227v17.135c0,2.574,4,2.578,4,0v-17.135c0-2.574-4-2.578-4,0h0Z"/><path class="d" d="M112.356,222.227v17.135c0,2.574,4,2.578,4,0v-17.135c0-2.574-4-2.578-4,0h0Z"/><path class="d" d="M59.404,261.978c17.305,0,34.609,0,51.914,0,2.574,0,2.578-4,0-4-17.305,0-34.609,0-51.914,0-2.574,0-2.578,4,0,4h0Z"/><path class="d" d="M124.699,261.583c-5.114,0-8.651,3.964-8.651,8.6v.085c.039,5.142,3.64,8.677,8.654,8.677,3.182,0,5.693-1.333,7.167-3.537.96-1.42,1.484-3.203,1.484-5.225,0-1.852-.561-3.589-1.554-5.008-1.51-2.161-4.023-3.591-7.1-3.591Z"/><path class="d" d="M124.699,259.183c-4.627.06-8.644,2.738-10.333,7.062-1.507,3.859-.628,8.519,2.093,11.61,2.876,3.268,7.927,4.272,11.983,2.925,4.75-1.577,7.61-6.217,7.292-11.179-.38-5.934-5.125-10.335-11.035-10.419-1.297-.018-2.4,1.116-2.4,2.4,0,1.316,1.099,2.382,2.4,2.4,1.54.022,2.774.342,4.06,1.372-.339-.271.252.248.25.246.116.11.229.224.338.34-.044-.047.468.542.278.304-.197-.246.309.452.254.366.517.795.734,1.327.937,2.218.323,1.421.077,3.369-.558,4.586-.176.337-.374.662-.595.971.264-.37-.192.218-.208.237-.104.114-.212.225-.323.332-.139.135-.283.264-.432.386-.322.265.446-.259-.168.112-.134.081-.264.17-.4.249-.102.059-.682.355-.569.306.283-.125-.458.163-.397.143-.158.052-.318.1-.478.144-.247.067-.496.118-.747.169-.034.007-.458.061-.144.025-.44.05-.89.063-1.332.052-.156-.004-.313-.011-.469-.021-.154-.01-.307-.024-.46-.042.225.031.251.032.077.004-.327-.061-.65-.131-.97-.224-.208-.06-.41-.134-.616-.204-.091-.031-.409-.192-.016-.004-.316-.152-.624-.312-.92-.499-.117-.074-.229-.154-.345-.23-.221-.161-.223-.162-.006,0-.08-.065-.158-.133-.234-.202-.22-.217-.435-.439-.653-.658-.454-.456.221.374-.138-.164-.077-.116-.158-.229-.232-.346-.19-.299-.351-.609-.507-.926.188.383.023.068-.009-.022-.085-.242-.17-.483-.24-.73-.092-.327-.162-.657-.223-.991.093.509-.023-.244-.027-.29-.012-.16-.02-.32-.025-.48-.01-.341.013-.677.022-1.018.018-.71-.059.263.011-.151.043-.258.097-.514.163-.768.093-.357.205-.712.347-1.053-.198.474.104-.181.127-.225.102-.194.212-.384.328-.569.078-.124.162-.242.242-.364.163-.224.171-.236.023-.035.069-.084.141-.167.214-.248.282-.289.558-.574.866-.837-.324.277.037-.029.13-.091.218-.143.434-.284.662-.411.131-.073.267-.137.399-.208.463-.249-.198.034.267-.113.453-.144.895-.266,1.36-.368.469-.103.196-.032.083-.019.333-.037.667-.048,1.001-.052,1.297-.017,2.4-1.091,2.4-2.4,0-1.288-1.098-2.417-2.4-2.4Z"/><path class="f" d="M124.7,266.499c-2.218,0-3.752,1.719-3.752,3.729v.037c.017,2.23,1.579,3.763,3.753,3.763,1.38,0,2.469-.578,3.108-1.534.416-.616.644-1.389.644-2.266,0-.803-.243-1.556-.674-2.172-.655-.937-1.745-1.557-3.079-1.557Z"/><path class="d" d="M42.132,261.583c-5.114,0-8.651,3.964-8.651,8.6v.085c.039,5.142,3.64,8.677,8.654,8.677,3.182,0,5.693-1.333,7.167-3.537.96-1.42,1.484-3.203,1.484-5.225,0-1.852-.561-3.589-1.554-5.008-1.51-2.161-4.023-3.591-7.1-3.591Z"/><path class="d" d="M42.132,259.183c-4.627.06-8.644,2.738-10.333,7.062-1.507,3.859-.628,8.519,2.093,11.61,2.876,3.268,7.927,4.272,11.983,2.925,4.75-1.577,7.61-6.217,7.292-11.179-.38-5.934-5.125-10.335-11.035-10.419-1.297-.018-2.4,1.116-2.4,2.4,0,1.316,1.099,2.382,2.4,2.4,1.54.022,2.774.342,4.06,1.372-.339-.271.252.248.25.246.116.11.229.224.338.34-.044-.047.468.542.278.304-.197-.246.309.452.254.366.517.795.734,1.327.937,2.218.323,1.421.077,3.369-.558,4.586-.176.337-.374.662-.595.971.264-.37-.192.218-.208.237-.104.114-.212.225-.323.332-.139.135-.283.264-.432.386-.322.265.446-.259-.168.112-.134.081-.264.17-.4.249-.102.059-.682.355-.569.306.283-.125-.458.163-.397.143-.158.052-.318.1-.478.144-.247.067-.496.118-.747.169-.034.007-.458.061-.144.025-.44.05-.89.063-1.332.052-.156-.004-.313-.011-.469-.021-.154-.01-.307-.024-.46-.042.225.031.251.032.077.004-.327-.061-.65-.131-.97-.224-.208-.06-.41-.134-.616-.204-.091-.031-.409-.192-.016-.004-.316-.152-.624-.312-.92-.499-.117-.074-.229-.154-.345-.23-.221-.161-.223-.162-.006,0-.08-.065-.158-.133-.234-.202-.22-.217-.435-.439-.653-.658-.454-.456.221.374-.138-.164-.077-.116-.158-.229-.232-.346-.19-.299-.351-.609-.507-.926.188.383.023.068-.009-.022-.085-.242-.17-.483-.24-.73-.092-.327-.162-.657-.223-.991.093.509-.023-.244-.027-.29-.012-.16-.02-.32-.025-.48-.01-.341.013-.677.022-1.018.018-.71-.059.263.011-.151.043-.258.097-.514.163-.768.093-.357.205-.712.347-1.053-.198.474.104-.181.127-.225.102-.194.212-.384.328-.569.078-.124.162-.242.242-.364.163-.224.171-.236.023-.035.069-.084.141-.167.214-.248.282-.289.558-.574.866-.837-.324.277.037-.029.13-.091.218-.143.434-.284.662-.411.131-.073.267-.137.399-.208.463-.249-.198.034.267-.113.453-.144.895-.266,1.36-.368.469-.103.196-.032.083-.019.333-.037.667-.048,1.001-.052,1.297-.017,2.4-1.091,2.4-2.4,0-1.288-1.098-2.417-2.4-2.4Z"/><path class="f" d="M42.133,266.499c-2.218,0-3.752,1.719-3.752,3.729v.037c.017,2.23,1.579,3.763,3.753,3.763,1.38,0,2.469-.578,3.108-1.534.416-.616.644-1.389.644-2.266,0-.803-.243-1.556-.674-2.172-.655-.937-1.745-1.557-3.079-1.557Z"/><path class="f" d="M370.505,213.333v47.574h-153.769c-1.156-4.494-1.603-7.892-.883-12.669,1.785-11.696,3.692-22.641,5.721-32.622.771-3.824,4.128-6.573,8.034-6.573h136.595c2.374,0,4.301,1.917,4.301,4.291Z"/><path class="d" d="M234.903,266.765c-3.242,0-5.484,2.513-5.484,5.452v.054c.024,3.26,2.308,5.501,5.486,5.501,2.017,0,3.609-.845,4.543-2.242.608-.9.941-2.03.941-3.312,0-1.174-.356-2.275-.985-3.175-.957-1.37-2.55-2.277-4.501-2.277Z"/><path class="d" d="M255.123,266.765c-3.242,0-5.484,2.513-5.484,5.452v.054c.024,3.26,2.308,5.501,5.486,5.501,2.017,0,3.609-.845,4.543-2.242.608-.9.941-2.03.941-3.312,0-1.174-.356-2.275-.985-3.175-.957-1.37-2.55-2.277-4.501-2.277Z"/><path class="d" d="M336.387,266.765c-3.242,0-5.484,2.513-5.484,5.452v.054c.024,3.26,2.308,5.501,5.486,5.501,2.017,0,3.609-.845,4.543-2.242.608-.9.941-2.03.941-3.312,0-1.174-.356-2.275-.985-3.175-.957-1.37-2.55-2.277-4.501-2.277Z"/><path class="d" d="M356.607,266.765c-3.242,0-5.484,2.513-5.484,5.452v.054c.024,3.26,2.308,5.501,5.486,5.501,2.017,0,3.609-.845,4.543-2.242.608-.9.941-2.03.941-3.312,0-1.174-.356-2.275-.985-3.175-.957-1.37-2.55-2.277-4.501-2.277Z"/><path class="d" d="M234.903,264.765c-3.16.041-5.866,1.883-7.012,4.828-1.016,2.611-.383,5.743,1.45,7.826,1.929,2.192,5.34,2.881,8.062,1.977,3.206-1.065,5.19-4.183,4.974-7.548-.123-1.923-.909-3.827-2.363-5.129-1.422-1.274-3.206-1.927-5.111-1.954-1.047-.015-2.048.93-2,2,.049,1.096.879,1.984,2,2,.175.002.348.014.523.022.116.005.35.089-.028-.006.267.067.532.111.794.199.101.034.201.071.301.109-.459-.179.014.022.092.065.226.123.444.262.65.416-.401-.301.182.197.276.297.011.011.346.382.139.144-.21-.241.12.178.123.184.158.242.302.499.415.765-.036-.086-.111-.338-.012.014.048.171.103.339.143.513.015.068.08.635.043.18.01.122.019.243.023.365.011.311-.004.625-.037.935.042-.401-.006-.011-.027.092-.03.143-.064.285-.104.426-.032.11-.072.217-.105.327-.082.215-.079.212.011-.009-.034.076-.071.15-.11.223-.112.215-.245.413-.377.616.278-.425-.151.156-.262.264-.088.086-.184.162-.274.245-.216.198.396-.249-.01-.004-.085.051-.167.107-.253.158-.047.027-.568.298-.304.17.284-.138-.174.059-.195.066-.1.033-.201.064-.303.091-.157.042-.315.071-.474.107-.107.024-.363.015.036-.001-.283.011-.56.04-.845.033-.099-.002-.198-.007-.297-.013-.097-.007-.194-.015-.291-.027.269.039.328.045.176.02-.193-.069-.415-.084-.615-.142-.132-.038-.26-.086-.39-.129-.292-.096.085.056.104.046-.063.034-.523-.278-.583-.316-.074-.047-.145-.099-.219-.146-.324-.207.292.297-.055-.054-.137-.139-.275-.279-.414-.417-.317-.315.231.37-.013-.007-.048-.074-.1-.145-.147-.22-.042-.067-.354-.514-.321-.587-.017.038.139.386.043.1-.052-.154-.108-.306-.152-.463-.037-.132-.195-.496-.141-.628l.029.241c-.012-.099-.022-.198-.029-.298-.008-.101-.013-.203-.016-.304-.006-.216.01-.43.014-.646.009-.463-.094.305-.01.032.048-.156.062-.328.103-.487.051-.197.092-.507.22-.667-.287.362-.046.121.032-.028.065-.123.134-.243.208-.361.049-.078.104-.153.154-.231.207-.324-.279.27.075-.082.104-.103.387-.514.549-.53l-.185.14c.056-.042.113-.083.171-.122.14-.088.275-.18.42-.261.083-.046.17-.086.253-.132.378-.21-.331.093.055-.023.288-.087.568-.167.862-.233.38-.085-.032-.012-.074.005.168-.068.455-.031.635-.033,1.046-.014,2.049-.91,2-2-.048-1.072-.879-2.014-2-2Z"/><path class="d" d="M255.123,264.765c-3.16.041-5.866,1.883-7.012,4.828-1.016,2.611-.383,5.743,1.45,7.826,1.929,2.192,5.34,2.881,8.062,1.977,3.206-1.065,5.19-4.183,4.974-7.548-.123-1.923-.909-3.827-2.363-5.129-1.422-1.274-3.206-1.927-5.111-1.954-1.047-.015-2.048.93-2,2,.049,1.096.879,1.984,2,2,.175.002.348.014.523.022.116.005.35.089-.028-.006.267.067.532.111.794.199.101.034.201.071.301.109-.459-.179.014.022.092.065.226.123.444.262.65.416-.401-.301.182.197.276.297.011.011.346.382.139.144-.21-.241.12.178.123.184.158.242.302.499.415.765-.036-.086-.111-.338-.012.014.048.171.103.339.143.513.015.068.08.635.043.18.01.122.019.243.023.365.011.311-.004.625-.037.935.042-.401-.006-.011-.027.092-.03.143-.064.285-.104.426-.032.11-.072.217-.105.327-.082.215-.079.212.011-.009-.034.076-.071.15-.11.223-.112.215-.245.413-.377.616.278-.425-.151.156-.262.264-.088.086-.184.162-.274.245-.216.198.396-.249-.01-.004-.085.051-.167.107-.253.158-.047.027-.568.298-.304.17.284-.138-.174.059-.195.066-.1.033-.201.064-.303.091-.157.042-.315.071-.474.107-.107.024-.363.015.036-.001-.283.011-.56.04-.845.033-.099-.002-.198-.007-.297-.013-.097-.007-.194-.015-.291-.027.269.039.328.045.176.02-.193-.069-.415-.084-.615-.142-.132-.038-.26-.086-.39-.129-.292-.096.085.056.104.046-.063.034-.523-.278-.583-.316-.074-.047-.145-.099-.219-.146-.324-.207.292.297-.055-.054-.137-.139-.275-.279-.414-.417-.317-.315.231.37-.013-.007-.048-.074-.1-.145-.147-.22-.042-.067-.354-.514-.321-.587-.017.038.139.386.043.1-.052-.154-.108-.306-.152-.463-.037-.132-.195-.496-.141-.628l.029.241c-.012-.099-.022-.198-.029-.298-.008-.101-.013-.203-.016-.304-.006-.216.01-.43.014-.646.009-.463-.094.305-.01.032.048-.156.062-.328.103-.487.051-.197.092-.507.22-.667-.287.362-.046.121.032-.028.065-.123.134-.243.208-.361.049-.078.104-.153.154-.231.207-.324-.279.27.075-.082.104-.103.387-.514.549-.53l-.185.14c.056-.042.113-.083.171-.122.14-.088.275-.18.42-.261.083-.046.17-.086.253-.132.378-.21-.331.093.055-.023.288-.087.568-.167.862-.233.38-.085-.032-.012-.074.005.168-.068.455-.031.635-.033,1.046-.014,2.049-.91,2-2-.048-1.072-.879-2.014-2-2Z"/><path class="d" d="M336.387,264.765c-3.16.041-5.866,1.883-7.012,4.828-1.016,2.611-.383,5.743,1.45,7.826,1.929,2.192,5.34,2.881,8.062,1.977,3.206-1.065,5.19-4.183,4.974-7.548-.123-1.923-.909-3.827-2.363-5.129-1.422-1.274-3.206-1.927-5.111-1.954-1.047-.015-2.048.93-2,2,.049,1.096.879,1.984,2,2,.175.002.348.014.523.022.116.005.35.089-.028-.006.267.067.532.111.794.199.101.034.201.071.301.109-.459-.179.014.022.092.065.226.123.444.262.65.416-.401-.301.182.197.276.297.011.011.346.382.139.144-.21-.241.12.178.123.184.158.242.302.499.415.765-.036-.086-.111-.338-.012.014.048.171.103.339.143.513.015.068.08.635.043.18.01.122.019.243.023.365.011.311-.004.625-.037.935.042-.401-.006-.011-.027.092-.03.143-.064.285-.104.426-.032.11-.072.217-.105.327-.082.215-.079.212.011-.009-.034.076-.071.15-.11.223-.112.215-.245.413-.377.616.278-.425-.151.156-.262.264-.088.086-.184.162-.274.245-.216.198.396-.249-.01-.004-.085.051-.167.107-.253.158-.047.027-.568.298-.304.17.284-.138-.174.059-.195.066-.1.033-.201.064-.303.091-.157.042-.315.071-.474.107-.107.024-.363.015.036-.001-.283.011-.56.04-.845.033-.099-.002-.198-.007-.297-.013-.097-.007-.194-.015-.291-.027.269.039.328.045.176.02-.193-.069-.415-.084-.615-.142-.132-.038-.26-.086-.39-.129-.292-.096.085.056.104.046-.063.034-.523-.278-.583-.316-.074-.047-.145-.099-.219-.146-.324-.207.292.297-.055-.054-.137-.139-.275-.279-.414-.417-.317-.315.231.37-.013-.007-.048-.074-.1-.145-.147-.22-.042-.067-.354-.514-.321-.587-.017.038.139.386.043.1-.052-.154-.108-.306-.152-.463-.037-.132-.195-.496-.141-.628l.029.241c-.012-.099-.022-.198-.029-.298-.008-.101-.013-.203-.016-.304-.006-.216.01-.43.014-.646.009-.463-.094.305-.01.032.048-.156.062-.328.103-.487.051-.197.092-.507.22-.667-.287.362-.046.121.032-.028.065-.123.134-.243.208-.361.049-.078.104-.153.154-.231.207-.324-.279.27.075-.082.104-.103.387-.514.549-.53l-.185.14c.056-.042.113-.083.171-.122.14-.088.275-.18.42-.261.083-.046.17-.086.253-.132.378-.21-.331.093.055-.023.288-.087.568-.167.862-.233.38-.085-.032-.012-.074.005.168-.068.455-.031.635-.033,1.046-.014,2.049-.91,2-2-.048-1.072-.879-2.014-2-2Z"/><path class="d" d="M356.607,264.765c-3.16.041-5.866,1.883-7.012,4.828-1.016,2.611-.383,5.743,1.45,7.826,1.929,2.192,5.34,2.881,8.062,1.977,3.206-1.065,5.19-4.183,4.974-7.548-.123-1.923-.909-3.827-2.363-5.129-1.422-1.274-3.206-1.927-5.111-1.954-1.047-.015-2.048.93-2,2,.049,1.096.879,1.984,2,2,.175.002.348.014.523.022.116.005.35.089-.028-.006.267.067.532.111.794.199.101.034.201.071.301.109-.459-.179.014.022.092.065.226.123.444.262.65.416-.401-.301.182.197.276.297.011.011.346.382.139.144-.21-.241.12.178.123.184.158.242.302.499.415.765-.036-.086-.111-.338-.012.014.048.171.103.339.143.513.015.068.08.635.043.18.01.122.019.243.023.365.011.311-.004.625-.037.935.042-.401-.006-.011-.027.092-.03.143-.064.285-.104.426-.032.11-.072.217-.105.327-.082.215-.079.212.011-.009-.034.076-.071.15-.11.223-.112.215-.245.413-.377.616.278-.425-.151.156-.262.264-.088.086-.184.162-.274.245-.216.198.396-.249-.01-.004-.085.051-.167.107-.253.158-.047.027-.568.298-.304.17.284-.138-.174.059-.195.066-.1.033-.201.064-.303.091-.157.042-.315.071-.474.107-.107.024-.363.015.036-.001-.283.011-.56.04-.845.033-.099-.002-.198-.007-.297-.013-.097-.007-.194-.015-.291-.027.269.039.328.045.176.02-.193-.069-.415-.084-.615-.142-.132-.038-.26-.086-.39-.129-.292-.096.085.056.104.046-.063.034-.523-.278-.583-.316-.074-.047-.145-.099-.219-.146-.324-.207.292.297-.055-.054-.137-.139-.275-.279-.414-.417-.317-.315.231.37-.013-.007-.048-.074-.1-.145-.147-.22-.042-.067-.354-.514-.321-.587-.017.038.139.386.043.1-.052-.154-.108-.306-.152-.463-.037-.132-.195-.496-.141-.628l.029.241c-.012-.099-.022-.198-.029-.298-.008-.101-.013-.203-.016-.304-.006-.216.01-.43.014-.646.009-.463-.094.305-.01.032.048-.156.062-.328.103-.487.051-.197.092-.507.22-.667-.287.362-.046.121.032-.028.065-.123.134-.243.208-.361.049-.078.104-.153.154-.231.207-.324-.279.27.075-.082.104-.103.387-.514.549-.53l-.185.14c.056-.042.113-.083.171-.122.14-.088.275-.18.42-.261.083-.046.17-.086.253-.132.378-.21-.331.093.055-.023.288-.087.568-.167.862-.233.38-.085-.032-.012-.074.005.168-.068.455-.031.635-.033,1.046-.014,2.049-.91,2-2-.048-1.072-.879-2.014-2-2Z"/><path class="e" d="M370.505,260.907v6.725c0,2.374-1.927,4.301-4.301,4.301-73.248-.01-119.625-.01-140.176-.01-3.368,0-6.38-2.09-7.537-5.244-.548-1.471-.872-2.556-1.167-3.611-.213-.751-.406-1.471-.588-2.161h153.769Z"/><path class="g" d="M310.519,225.581h36.936c2.752,0,4.982,2.231,4.982,4.982,0,4.316,0,8.631,0,12.947,0,2.43-1.967,4.4-4.398,4.4-8.792,0-28.514,0-38.106,0-2.43,0-4.396-1.97-4.396-4.4v-12.947c0-2.752,2.231-4.982,4.982-4.982Z"/><path class="f" d="M283.634,260.911v-35.939c0-2.658-2.161-4.818-4.818-4.818h-27.246c-2.658,0-4.818,2.161-4.818,4.818v35.939h36.883Z"/><path class="d" d="M285.634,260.911v-34.656c0-1.382-.015-2.692-.584-4.002-1.152-2.654-3.734-4.077-6.556-4.099-8.361-.064-16.726,0-25.087,0-1.345,0-2.721-.084-4.015.361-2.867.986-4.607,3.66-4.641,6.64-.035,3.081,0,6.165,0,9.247v26.51c0,2.574,4,2.578,4,0v-33.869c0-.686-.036-1.383,0-2.068.101-1.907,1.546-2.815,3.305-2.821,8.216-.028,16.432,0,24.648,0,.879,0,1.886-.122,2.752.075,1.654.378,2.178,1.839,2.178,3.34v10.077c0,8.254-.103,16.515,0,24.768.002.165,0,.331,0,.496,0,2.574,4,2.578,4,0h0Z"/><path class="d" d="M263.193,220.518v40.392c0,2.574,4,2.578,4,0v-40.392c0-2.574-4-2.578-4,0h0Z"/><path class="d" d="M310.519,227.581h35.919c.594,0,1.233-.052,1.809.107,1.01.279,1.804,1.073,2.083,2.083.202.733.107,1.535.106,2.287,0,1.162,0,2.324,0,3.486,0,1.826,0,3.652,0,5.477,0,1.42.378,3.239-.817,4.299-.787.698-1.768.591-2.745.591-1.167,0-2.335,0-3.502,0-11.063,0-22.132.111-33.195,0-2.027-.02-2.64-1.477-2.64-3.225v-5.897c0-1.88,0-3.76,0-5.641,0-1.861.914-3.496,2.982-3.566,2.567-.087,2.579-4.087,0-4-3.458.117-6.429,2.547-6.901,6.04-.176,1.304-.081,2.661-.081,3.972,0,3.399-.211,6.868.013,10.261.24,3.635,3.23,6.032,6.751,6.056,2.659.018,5.319,0,7.978,0,6.454,0,12.909,0,19.363,0,2.784,0,5.569,0,8.353,0,1.293,0,2.652.106,3.904-.275,1.615-.492,3.056-1.668,3.818-3.18.898-1.782.72-3.748.72-5.683,0-2.241,0-4.482,0-6.722,0-1.896.25-3.987-.405-5.805-.555-1.542-1.634-2.878-3.053-3.709-2.201-1.289-5.007-.953-7.462-.953h-11.671c-6.972,0-13.963-.151-20.934,0-.131.003-.263,0-.394,0-2.574,0-2.578,4,0,4Z"/><path class="d" d="M366.207,207.041c-5.562,0-11.124,0-16.686,0-12.897,0-25.793,0-38.69,0h-43.643c-10.478,0-20.956,0-31.434,0-2.003,0-4.008-.026-6.01,0-3.641.048-7.021,1.84-8.909,4.998-1.566,2.621-1.796,6.032-2.359,8.976-.62,3.241-1.212,6.486-1.78,9.736-.595,3.402-1.165,6.808-1.713,10.218-.568,3.535-1.332,7.125-1.461,10.71-.107,2.976.351,5.938,1.05,8.823.675,2.786,1.331,5.976,2.796,8.471,1.424,2.425,3.933,4.249,6.71,4.757,1.465.268,2.963.197,4.445.197,2.578,0,5.155,0,7.733,0,15.541,0,31.083,0,46.624.001,24.339,0,48.678.002,73.017.003,1.784,0,3.567,0,5.351,0,1.802,0,3.66.131,5.452-.032,2.76-.251,5.184-2.295,5.68-5.069.211-1.178.123-2.422.123-3.612v-16.841c0-11.553.077-23.109,0-34.662-.024-3.658-2.563-6.532-6.296-6.675-2.574-.099-2.57,3.901,0,4,2.124.082,2.296,1.895,2.296,3.508v5.563c0,6.458,0,12.916,0,19.374,0,6.648,0,13.296,0,19.944v6.365c0,1.159.217,2.571-.678,3.462-.862.859-1.997.675-3.119.675-1.805,0-3.61,0-5.415,0-3.51,0-7.019,0-10.529,0-6.545,0-13.091,0-19.636,0-11.529,0-23.057-.001-34.586-.001-16.865,0-33.73-.001-50.595-.001-5.368,0-10.737,0-16.105,0-1.55,0-3.085.092-4.514-.634-2.433-1.236-3.176-3.666-3.894-6.117-.832-2.842-1.647-5.767-1.86-8.733-.227-3.148.291-6.206.777-9.305,1.048-6.687,2.175-13.362,3.412-20.017.575-3.096,1.041-6.265,1.819-9.317.57-2.236,2.253-3.99,4.499-4.573,1.661-.431,3.662-.191,5.356-.191,9.268,0,18.536,0,27.803,0h41.665c13.288,0,26.576,0,39.865,0,7.468,0,14.935,0,22.403,0h1.038c2.574,0,2.578-4,0-4Z"/><path class="d" d="M217.353,262.911h152.14c2.574,0,2.578-4,0-4h-152.14c-2.574,0-2.578,4,0,4h0Z"/><path class="d" d="M215.606,253.761h7.131c1.788,0,3.513-.597,4.388-2.291.607-1.175.653-2.639.863-3.926.242-1.484.483-2.968.722-4.453.749-4.647,1.485-9.297,2.296-13.934.437-2.5.896-4.997,1.371-7.491.249-1.306.72-2.71.43-4.041-.275-1.262-1.093-2.352-2.25-2.94-1.313-.667-2.953-.469-4.381-.469h-3.891c-2.574,0-2.578,4,0,4,1.981,0,4.138-.262,6.098,0,.259.035.368-.027.531.224.082.127-.138.833-.146.87-.14.709-.272,1.419-.407,2.129-.408,2.156-.802,4.315-1.181,6.477-.71,4.048-1.362,8.106-2.014,12.164-.392,2.439-.785,4.878-1.185,7.315-.097.59-.111,2.139-.532,2.342-.185.089-.521.023-.713.023h-7.131c-2.574,0-2.578,4,0,4h0Z"/><path class="f" d="M12.242,40.109c-9.096,5.935-10.54,10.759-10.191,15.993.327,4.892,4.516,8.634,12.091,8.634h143.798c3.349,0,6.064-2.633,6.064-5.885,0-11.874,0-36.967,0-50.893,0-3.252-2.71-5.881-6.059-5.881-15.902,0-57.61,0-57.61,0,0,0-.717,0-1.685,0-17.012,0-32.061,5.645-39.751,9.868-15.264,8.384-46.657,28.164-46.657,28.164"/><path class="d" d="M164.004,40.109v10.111H53.835c-1.54,0-2.427-1.7-1.516-2.906l3.43-4.537c1.268-1.677,3.283-2.668,5.426-2.668h102.829Z"/><rect class="f" x="83.755" y="22.154" width="17.108" height="32.068" rx="4.043" ry="4.043"/><path class="g" d="M117.405,20.631h6.201c1.358,0,2.459,1.069,2.459,2.387,0,2.068,0,4.137,0,6.205,0,1.164-.979,2.107-2.178,2.107-4.327,0-2.042,0-6.765,0-1.198,0-2.176-.943-2.176-2.107v-6.206c0-1.319,1.101-2.387,2.459-2.387Z"/><path class="g" d="M140.183,20.631h6.201c1.358,0,2.459,1.069,2.459,2.387,0,2.068,0,4.137,0,6.205,0,1.164-.979,2.107-2.178,2.107-4.327,0-2.042,0-6.765,0-1.198,0-2.176-.943-2.176-2.107v-6.206c0-1.319,1.101-2.387,2.459-2.387Z"/><path class="d" d="M98.651.076c-9.35.029-18.708,1.625-27.585,4.548-6.217,2.047-11.974,4.859-17.638,8.102-11.41,6.533-22.604,13.45-33.77,20.39-2.813,1.748-5.623,3.5-8.425,5.265-2.173,1.369-.168,4.831,2.019,3.454,7.358-4.635,14.755-9.21,22.179-13.738,5.78-3.526,11.578-7.024,17.431-10.425,5.193-3.018,10.371-5.948,16.016-8.051,9.513-3.543,19.614-5.513,29.773-5.545,2.573-.008,2.578-4.008,0-4h0Z"/><path class="d" d="M37.948,26.192h9.641c3.638,0,7.484.386,10.849-1.268,3.235-1.59,6.394-3.36,9.585-5.038,1.428-.75,2.967-1.42,3.438-3.151.735-2.7-1.32-4.963-3.966-5.047-3.58-.113-7.18,0-10.762,0-2.574,0-2.578,4,0,4h9.323c.495,0,1.008-.038,1.501,0,.041.003.083,0,.124-.002-.022,0-.07-.058-.075-.057.059-.014-.033.049-.004.042-.599.149-1.597.759-2.276,1.115-2.943,1.547-5.852,3.217-8.851,4.652-2.47,1.182-5.741.752-8.412.752h-10.117c-2.574,0-2.578,4,0,4h0Z"/><path class="d" d="M14.143,66.735c2.957,0,5.913,0,8.87,0h22.632c10.101,0,20.203,0,30.304,0h32.261c9.382,0,18.764,0,28.146,0,6.007,0,12.015,0,18.022,0,1.138,0,2.278.018,3.416,0,2.141-.035,4.144-.736,5.734-2.2,2.719-2.503,2.477-5.941,2.477-9.309,0-15.137,0-30.273,0-45.41,0-1.879.002-3.648-.848-5.375-.807-1.638-2.256-2.936-3.917-3.66-2.575-1.123-5.747-.704-8.504-.704-6.143,0-12.286,0-18.429,0-10.692,0-21.384,0-32.077,0-.631,0-1.263,0-1.894,0-2.574,0-2.578,4,0,4,7.862,0,15.724,0,23.586,0,6.47,0,12.94,0,19.409,0,2.89,0,5.781,0,8.671,0,1.237,0,2.473,0,3.71,0,1.195,0,2.543-.171,3.68.248,3.292,1.215,2.613,4.973,2.613,7.775,0,3.668,0,7.336,0,11.005,0,7.88,0,15.759,0,23.639,0,3.283,0,6.566,0,9.849,0,1.343.2,2.811-.449,4.038-.714,1.351-2.129,2.063-3.615,2.106-.75.022-1.505,0-2.255,0h-15.931c-8.822,0-17.644,0-26.465,0h-31.37c-10.215,0-20.429,0-30.644,0h-24.288c-4.101,0-8.201,0-12.302,0h-.543c-2.574,0-2.578,4,0,4h0Z"/><path class="d" d="M11.233,38.382c-4.689,3.09-9.635,7.128-10.865,12.914-1.004,4.725-.04,9.691,4.003,12.683,2.793,2.067,6.366,2.726,9.773,2.756,2.575.023,2.577-3.977,0-4-2.809-.025-5.953-.51-8.083-2.517-1.663-1.566-2.093-3.548-2.053-5.746.038-2.059.607-4.052,1.82-5.914,1.828-2.808,4.667-4.906,7.424-6.723,2.14-1.41.139-4.876-2.019-3.454h0Z"/><path class="d" d="M117.405,22.631h5.393c.263,0,.528.008.792,0,.087-.003.313-.005.058-.013-.277-.008.023.014.104.034.091.022.326.168.106.027-.223-.144-.016.003.022.029.324.219-.031-.059-.055-.06-.013,0,.209.172.205.199-.145-.204-.176-.245-.093-.124.041.059.079.119.113.182.175.256-.022-.079-.03-.083.028.011.066.294.073.282-.02.03.01-.416-.031-.162-.021.129.002.275.002.408,0,.628,0,1.256,0,1.884,0,1.219,0,2.438,0,3.657,0,.11-.004.222,0,.332.016.441.006-.105.023-.089.001.001-.057.252-.083.278.222-.229.109-.228.009-.094.361-.486.053-.09.047-.069l-.103.099.179-.134c.002-.006-.219.157-.249.148.205.058.259-.135-.005-.024-.24.101.346.022.08-.01-.12-.014-.248.003-.37.003-.228,0-.456,0-.684,0-.352,0-.704,0-1.056,0-.717,0-1.434,0-2.152,0-.788,0-1.576.005-2.364,0-.046,0-.355.022-.371-.005-.019-.031.392.11.158.013-.065-.027-.362-.142-.109-.019.255.124-.032-.023-.083-.066-.197-.168.299.138.068.046-.099-.04-.186-.305-.075-.068.134.287-.169-.168.04.073.212.245-.115-.091-.042-.169-.02.021.012.407.023.079,0-.027,0-.054,0-.08-.001-.123,0-.246,0-.369v-1.401c0-1.229,0-2.457,0-3.686,0-.023.002-.811.005-.811-.244-.013.062.417-.001.095.058-.174.056-.185-.006-.034-.069.148-.063.14.018-.023.04-.061.096-.207.152-.242l-.133.183c.048-.053.099-.104.152-.151.222-.165-.284.219-.063.051.04-.027.082-.052.124-.074.131-.069.082-.053-.147.047.048-.043.237-.073.283-.088.393-.122-.383.012.074-.001,1.045-.032,2.049-.897,2-2-.047-1.057-.88-2.034-2-2-2.472.075-4.432,1.966-4.459,4.464-.011,1.045,0,2.092,0,3.137,0,.983-.026,1.969,0,2.951.03,1.122.43,2.141,1.225,2.944,1.032,1.042,2.367,1.204,3.757,1.204,1.085,0,2.17,0,3.255,0,1.973,0,4.198.305,5.707-1.254,1.03-1.064,1.175-2.331,1.175-3.74s0-2.807,0-4.211-.065-2.644-.957-3.797c-.843-1.091-2.138-1.663-3.502-1.698-2.064-.053-4.136,0-6.201,0-1.046,0-2.048.92-2,2s.879,2,2,2Z"/><path class="d" d="M140.183,22.631h5.393c.263,0,.528.008.792,0,.087-.003.313-.005.058-.013-.277-.008.023.014.104.034.091.022.326.168.106.027-.223-.144-.016.003.022.029.324.219-.031-.059-.055-.06-.013,0,.209.172.205.199-.145-.204-.176-.245-.093-.124.041.059.079.119.113.182.175.256-.022-.079-.03-.083.028.011.066.294.073.282-.02.03.01-.416-.031-.162-.021.129.002.275.002.408,0,.628,0,1.256,0,1.884,0,1.219,0,2.438,0,3.657,0,.11-.004.222,0,.332.016.441.006-.105.023-.089.001.001-.057.252-.083.278.222-.229.109-.228.009-.094.361-.486.053-.09.047-.069l-.103.099.179-.134c.002-.006-.219.157-.249.148.205.058.259-.135-.005-.024-.24.101.346.022.08-.01-.12-.014-.248.003-.37.003-.228,0-.456,0-.684,0-.352,0-.704,0-1.056,0-.717,0-1.434,0-2.152,0-.788,0-1.576.005-2.364,0-.046,0-.355.022-.371-.005-.019-.031.392.11.158.013-.065-.027-.362-.142-.109-.019.255.124-.032-.023-.083-.066-.197-.168.299.138.068.046-.099-.04-.186-.305-.075-.068.134.287-.169-.168.04.073.212.245-.115-.091-.042-.169-.02.021.012.407.023.079,0-.027,0-.054,0-.08-.001-.123,0-.246,0-.369v-1.401c0-1.229,0-2.457,0-3.686,0-.023.002-.811.005-.811-.244-.013.062.417-.001.095.058-.174.056-.185-.006-.034-.069.148-.063.14.018-.023.04-.061.096-.207.152-.242l-.133.183c.048-.053.099-.104.152-.151.222-.165-.284.219-.063.051.04-.027.082-.052.124-.074.131-.069.082-.053-.147.047.048-.043.237-.073.283-.088.393-.122-.383.012.074-.001,1.045-.032,2.049-.897,2-2-.047-1.057-.88-2.034-2-2-2.472.075-4.432,1.966-4.459,4.464-.011,1.045,0,2.092,0,3.137,0,.983-.026,1.969,0,2.951.03,1.122.43,2.141,1.225,2.944,1.032,1.042,2.367,1.204,3.757,1.204,1.085,0,2.17,0,3.255,0,1.973,0,4.198.305,5.707-1.254,1.03-1.064,1.175-2.331,1.175-3.74s0-2.807,0-4.211-.065-2.644-.957-3.797c-.843-1.091-2.138-1.663-3.502-1.698-2.064-.053-4.136,0-6.201,0-1.046,0-2.048.92-2,2s.879,2,2,2Z"/><path class="d" d="M98.863,26.197v15.923c0,2.529.014,5.059,0,7.588-.005.974-.223,1.926-1.233,2.358-.925.396-2.326.156-3.296.156h-5.081c-1.099,0-2.358.192-3.104-.826-.47-.64-.395-1.396-.395-2.141v-22.029c0-.945-.096-1.895.716-2.588.894-.763,2.507-.485,3.593-.485h5.655c1.46,0,3.064.164,3.144,2.043.109,2.564,4.11,2.578,4,0-.144-3.373-2.654-5.917-6.043-6.043-1.215-.045-2.44,0-3.655,0-3.792,0-8.801-.793-10.787,3.384-1.025,2.156-.624,5.063-.624,7.384v11.669c0,2.486-.067,4.982,0,7.467.063,2.324,1.227,4.514,3.384,5.54,1.57.747,3.241.624,4.926.624h5.483c1.898,0,3.637-.158,5.18-1.445,2.512-2.095,2.137-5.258,2.137-8.159v-20.421c0-2.574-4-2.578-4,0Z"/><path class="f" d="M314.862,22.242c.321-.474.672-.984,1.073-1.562.177-.253.33-.547.33-.851,0-.253-.942-1.215-1.378-1.55-.389-.294-2.803-.486-5.206.324-5.886,1.995-11.761,4.212-17.753,6.459,6.296,1.119,12.596,2.34,18.794,3.634,1.93-3.059,2.753-4.409,4.139-6.455Z"/><path class="f" d="M214.693,46.093c.157-.973.405-1.931.72-2.863,2.02-5.961,5.303-10.015,9.923-13.937.059-.05.118-.1.178-.15,8.532-7.203,19.36-10.433,30.137-9.302,27.031,2.837,58.436,8.939,84.131,15.655,6.364-2.48,16.174-6.897,22.205-8.542,2.001-.546,3.855,1.307,3.511,3.506-.645,4.131-1.702,10.142-2.855,13.583,3.104,1.661,5.87,4.33,8.076,7.743,1.967,3.042.024,7.216-3.411,7.218-44.047.023-130.634.214-138.787-.008-6.055-.165-13.419-1.096-13.988-9.757-.069-1.055-.006-2.109.161-3.146Z"/><path class="g" d="M239.117,28.12c-.86-.553-1.903-.884-3.088-.884h-7.119s-.348,0-.956,0c-.832.601-1.645,1.237-2.439,1.907-.059.05-.118.1-.178.15-3.346,2.841-5.991,5.751-7.963,9.405,0,.004,18.576.004,18.576.004,1.351,0,2.658-.471,3.686-1.351.044-.035.078-.07.122-.105,3.108-2.669,2.328-7.219-.641-9.128Z"/><path class="d" d="M361.633,45.77c2.768,1.519,5.084,3.713,6.877,6.305.573.829,1.114,1.635.991,2.691-.101.868-.635,1.809-1.492,2.127-.741.275-1.723.11-2.503.111-1.154,0-2.308.001-3.463.002-2.156.002-4.311.003-6.467.005-9.91.009-19.819.022-29.729.034-20.385.025-40.771.053-61.156.056-11.888.002-23.791.145-35.677-.095-3.24-.065-7.031-.161-9.755-2.154-4.482-3.279-2.655-10.119-.621-14.249,2.597-5.273,7.043-9.555,11.925-12.741,5.296-3.456,11.428-5.627,17.742-6.121,6.562-.514,13.276.715,19.765,1.586,6.87.921,13.72,1.993,20.55,3.175,13.774,2.384,27.474,5.219,41.06,8.512,3.14.761,6.273,1.549,9.399,2.364,2.493.65,3.556-3.207,1.063-3.857-14.081-3.669-28.305-6.801-42.61-9.465-7.277-1.355-14.578-2.587-21.901-3.668-7.028-1.038-14.12-2.132-21.208-2.658-13.231-.983-26.798,4.708-35.314,14.919-4.193,5.027-7.506,11.872-6.339,18.55.894,5.113,4.905,8.258,9.821,9.218,4.648.907,9.6.633,14.318.651,7.294.029,14.588.031,21.882.033,21.007.004,42.014-.025,63.021-.05,10.474-.013,20.948-.026,31.422-.036,4.521-.004,9.042-.008,13.563-.011,2.821-.002,5.171-1.395,6.229-4.068,1.243-3.143-.214-5.86-2.128-8.32-1.985-2.552-4.404-4.74-7.247-6.3-2.258-1.239-4.279,2.214-2.019,3.454h0Z"/><path class="f" d="M281.093,56.304c13.518,6.478,30.333,14.089,47.215,21.629,7.577,3.384,13.262-3.943,7.885-10.264-7.998-9.403-15.763-16.831-21.169-21.524-2.131-1.851-4.691-3.123-7.514-3.123h-23.285c-7.403,0-9.809,10.083-3.133,13.282Z"/><path class="d" d="M341.06,37.137c6.389-2.545,12.667-5.439,19.212-7.575.731-.239,2.393-1.164,3.024-.38.411.51.202,1.208.109,1.786-.131.814-.267,1.627-.408,2.439-.59,3.392-1.208,6.827-2.282,10.104-.804,2.452,3.057,3.502,3.857,1.063,1.215-3.705,1.871-7.607,2.51-11.444.342-2.05.832-4.074-.332-5.968-1.083-1.761-3.13-2.583-5.128-2.172-3.582.736-7.119,2.373-10.496,3.732-3.719,1.496-7.404,3.074-11.128,4.558-1.003.399-1.706,1.336-1.397,2.46.262.954,1.451,1.799,2.46,1.397h0Z"/><path class="d" d="M228.91,29.236c2.345,0,4.694-.043,7.039,0,1.393.026,2.521.62,3.188,1.68.755,1.2.864,2.681.085,3.93-1.351,2.165-3.774,1.856-5.968,1.856h-15.88c-2.574,0-2.578,4,0,4h16.5c.69,0,1.383.018,2.073,0,2.801-.071,5.488-1.563,6.854-4.053,2.299-4.193.099-9.595-4.429-11.063-1.583-.513-3.378-.351-5.02-.351h-4.441c-2.574,0-2.578,4,0,4h0Z"/><path class="d" d="M292.453,26.994c4.366-1.638,8.73-3.283,13.123-4.848,2.053-.731,4.237-1.754,6.41-2.048.579-.078,1.575.05,1.951-.039.356.106.256.028-.302-.233.134.116.263.237.389.361.159.156.478.721.313.173v-1.063c-.094.608-.698,1.195-1.046,1.707-.413.607-.821,1.219-1.222,1.834-.837,1.284-1.648,2.585-2.465,3.882-1.376,2.185,2.084,4.194,3.454,2.019.845-1.342,1.684-2.689,2.552-4.016.785-1.201,1.93-2.426,2.418-3.777.552-1.528-.183-2.648-1.276-3.683-.988-.936-2.024-1.209-3.367-1.235-3.726-.072-7.423,1.731-10.862,2.976-3.722,1.348-7.427,2.743-11.134,4.134-1.011.379-1.702,1.351-1.397,2.46.267.97,1.444,1.778,2.46,1.397h0Z"/><path class="d" d="M280.083,58.031c11.83,5.666,23.772,11.098,35.733,16.482,3.223,1.451,6.448,2.896,9.674,4.339,2.689,1.202,5.24,2.302,8.247,1.775,4.637-.813,7.41-5.403,6.303-9.905-.695-2.826-2.804-4.931-4.664-7.048-2.214-2.519-4.488-4.986-6.819-7.397-3.675-3.803-7.485-7.48-11.459-10.97-2.068-1.817-4.34-3.429-7.087-4.006-2.354-.495-4.873-.278-7.266-.278h-15.389c-2.402,0-4.786-.159-7.028.855-1.929.873-3.464,2.523-4.312,4.449-1.933,4.391-.277,9.525,4.067,11.704,2.295,1.151,4.323-2.298,2.019-3.454-2.719-1.364-3.588-4.214-2.437-6.664.554-1.179,1.46-2.109,2.679-2.566,1.548-.581,3.388-.325,5.012-.325h13.834c2.022,0,4.045-.011,6.067,0,2.409.013,4.532.986,6.352,2.537,3.389,2.888,6.614,5.99,9.757,9.141,2,2.005,3.96,4.051,5.878,6.134,1.989,2.16,4.224,4.327,5.905,6.739,1.836,2.635,1.425,6.49-2.19,7.145-2.254.408-4.377-.838-6.355-1.723-2.925-1.308-5.848-2.62-8.77-3.935-11.961-5.384-23.902-10.816-35.733-16.482-2.311-1.107-4.342,2.341-2.019,3.454Z"/><path class="d" d="M255.136,38.063h3.77c.667,0,1.367-.29,1.838-.762.451-.451.791-1.191.762-1.838-.03-.672-.251-1.37-.762-1.838s-1.134-.762-1.838-.762h-3.77c-.667,0-1.367.29-1.838.762-.451.451-.791,1.191-.762,1.838.03.672.251,1.37.762,1.838s1.134.762,1.838.762h0Z"/><path class="d" d="M268.304,38.063h3.77c.667,0,1.367-.29,1.838-.762.451-.451.791-1.191.762-1.838-.03-.672-.251-1.37-.762-1.838s-1.134-.762-1.838-.762h-3.77c-.667,0-1.367.29-1.838.762-.451.451-.791,1.191-.762,1.838.03.672.251,1.37.762,1.838s1.134.762,1.838.762h0Z"/><path class="d" d="M281.473,38.063h3.77c.667,0,1.367-.29,1.838-.762.451-.451.791-1.191.762-1.838-.03-.672-.251-1.37-.762-1.838s-1.134-.762-1.838-.762h-3.77c-.667,0-1.367.29-1.838.762-.451.451-.791,1.191-.762,1.838.03.672.251,1.37.762,1.838s1.134.762,1.838.762h0Z"/></g></svg>