<svg xmlns="http://www.w3.org/2000/svg" width="296.449" height="331.457" viewBox="0 0 296.449 331.457" style="color: initial !important;"><defs><style>.a{fill:#7a7473;}.b{fill:#f2635f;}.c{fill:#211715;}.d{fill:#f3736f;}.e{fill:#ffffff;}</style></defs><path class="a" d="M254.177,254.457q2.632-7.209,5.253-14.407a2.407,2.407,0,0,1,3.095-1.438l25.827,9.394a2.418,2.418,0,0,1,1.45,3.1l-14.167,38.927-6.262,16.408"/><path class="a" d="M219.842,255.227c5.477,14.269,20.134,53.238,27.811,73.237a1.587,1.587,0,0,0,2.054.911q13.605-5.226,27.213-10.443a1.589,1.589,0,0,0,.916-2.053c-5.618-14.635-21.016-55.534-27.814-73.245a1.584,1.584,0,0,0-2.052-.907l-27.212,10.446A1.589,1.589,0,0,0,219.842,255.227Z"/><path class="b" d="M225.966,213.061c-4.236-2.221-9.866-4.536-14.312-4.947a3.4,3.4,0,0,0-3.475,4.611c4.348,11.349,10.239,26.233,15.329,39.392l22.035-8.459-.519-1.334c-2.043-5.255-4.835-12.966-7.036-18.158-1.645-3.879-4.9-6.655-7.667-8.541A45.344,45.344,0,0,0,225.966,213.061Z"/><path class="c" d="M225.348,251.357q-3.926-10.143-7.9-20.264-1.927-4.93-3.848-9.863c-1.158-2.975-2.584-5.975-3.493-9.036-.242-.817-.142-1.695.788-2.025,1.015-.359,2.612.226,3.591.469a44.163,44.163,0,0,1,8.318,3.074c4.7,2.239,9.793,5.065,12.544,9.672,1.751,2.93,2.783,6.418,3.993,9.593,1.255,3.292,2.48,6.595,3.755,9.879a2.059,2.059,0,0,0,2.46,1.4,2.015,2.015,0,0,0,1.4-2.46c-2.473-6.373-4.551-13.013-7.489-19.191-2.684-5.644-8.405-9.271-13.823-11.947a53.089,53.089,0,0,0-9.212-3.642c-2.938-.818-6.649-1.771-9.011.79-2.6,2.817-.939,6.06.23,9.088q2.022,5.238,4.068,10.467c3.26,8.353,6.538,16.7,9.775,25.062a2.058,2.058,0,0,0,2.46,1.4,2.015,2.015,0,0,0,1.4-2.46Z"/><path class="c" d="M219.935,223.553c3.267,2.118,6.709,3.942,10.723,3.71a2,2,0,0,0,0-4,12.468,12.468,0,0,1-1.367.01c-.189-.01-.376-.033-.565-.045q-.228-.025.137.021c-.1-.015-.208-.032-.311-.05a12.548,12.548,0,0,1-2.289-.656c-.107-.041-.213-.083-.319-.127.206.087.2.085-.009-.009-.16-.075-.32-.148-.479-.227-.424-.208-.838-.435-1.246-.671-.768-.445-1.512-.928-2.256-1.41a2.017,2.017,0,0,0-2.737.718,2.045,2.045,0,0,0,.718,2.736Z"/><path class="c" d="M256.106,254.989q1.4-3.834,2.8-7.668.636-1.743,1.27-3.485l.678-1.859c.1-.267.266-1.173.527-1.372.521-.395,2.069.463,2.6.655l13.387,4.869c3.429,1.247,6.959,2.349,10.326,3.756.248.1-.025-.139.077.037.37.635-.152,1.381-.4,2.061l-2.781,7.642q-2.521,6.93-5.044,13.858l-5.832,16.023c-.882,2.423,2.982,3.468,3.857,1.064q2.709-7.44,5.416-14.88,2.648-7.272,5.294-14.546,1.473-4.048,2.947-8.1c.829-2.279,1.142-4.674-1.078-6.309a14.618,14.618,0,0,0-3.65-1.53l-6.7-2.437-14.555-5.293c-1.889-.688-3.725-1.557-5.708-.441a5.1,5.1,0,0,0-2.2,2.948c-.585,1.541-1.131,3.1-1.695,4.647q-1.693,4.647-3.388,9.294c-.885,2.422,2.98,3.466,3.857,1.064Z"/><path class="c" d="M217.914,255.759c5.785,15.074,11.457,30.192,17.177,45.29q4.576,12.081,9.18,24.152c.65,1.7,1.148,4.186,2.54,5.409a3.652,3.652,0,0,0,3.427.694c1.637-.452,3.258-1.251,4.843-1.86q9.108-3.5,18.219-6.992c2.365-.907,6.327-1.544,6.6-4.646.131-1.486-.743-3.041-1.266-4.41q-1.761-4.61-3.51-9.224-4.512-11.888-9.01-23.782-4.681-12.366-9.373-24.729-1.9-5-3.809-9.994c-.663-1.732-1.117-3.936-2.977-4.74a3.837,3.837,0,0,0-2.946.036c-8.947,3.279-17.871,6.719-26.719,10.256a3.69,3.69,0,0,0-2.377,4.54c.676,2.481,4.536,1.428,3.857-1.063.024.087-.649.418-.355.357a4.277,4.277,0,0,0,.594-.228l2.109-.81,7.2-2.763,15.124-5.806a18.3,18.3,0,0,0,1.75-.672c.061-.031.261-.056.3-.114.063-.1,0-.137-.221-.144-.168,0-.089-.188.02.162.066.213.161.421.241.629q1.708,4.457,3.4,8.917,4.309,11.328,8.6,22.666,4.387,11.589,8.776,23.176,1.848,4.875,3.7,9.746.807,2.121,1.616,4.241.318.836.638,1.671a7.3,7.3,0,0,0,.647,1.687c.159.207.211-.244.075-.231a3.125,3.125,0,0,0-.748.265l-2.076.8-4.382,1.681-8.533,3.275-8.532,3.275-2.076.8c-.948.363-.045.091-.147.422.058-.187-.4-1.041-.472-1.231l-.488-1.275q-4.272-11.164-8.5-22.348-8.469-22.346-16.939-44.692-.657-1.727-1.319-3.45a2.059,2.059,0,0,0-2.461-1.4A2.014,2.014,0,0,0,217.914,255.759Z"/><path class="d" d="M16.316,237.661c-3.162,29.129-5.584,58.4-6.817,87.676h75c-1.243-29.277-3.665-58.547-6.827-87.676l-.033-.22c-.856-8.076-1.99-17.91-2.561-24.027a1.241,1.241,0,0,0-1.216-1.17h-8.79a1.209,1.209,0,0,0-1.222,1.179c0,7.057.006,13.816.006,21.374a1.213,1.213,0,0,1-1.222,1.18H31.354a1.214,1.214,0,0,1-1.223-1.18c0-7.558.007-14.317.007-21.374a1.209,1.209,0,0,0-1.222-1.179h-8.79a1.241,1.241,0,0,0-1.216,1.17c-.571,6.117-1.705,15.951-2.561,24.027Z"/><path class="c" d="M75.672,237.661c2.457,22.66,4.468,45.37,5.827,68.123q.575,9.642.989,19.292c.111,2.565,4.111,2.578,4,0-.977-22.772-2.655-45.511-4.844-68.2q-.927-9.615-1.972-19.217a2.059,2.059,0,0,0-2-2,2.013,2.013,0,0,0-2,2Z"/><path class="c" d="M18.349,237.441c.751-7.074,1.571-14.141,2.287-21.219a8.026,8.026,0,0,0,.215-2.184c-.087-.344.355-.479-.348-.054-5.09,3.073-.441.2-.368.26.036.027.132-.019.172,0a6.6,6.6,0,0,0,2.062,0h5.8a2.289,2.289,0,0,0,.635,0c.026-.009.086.016.108,0h0q-.882-.838-.778-.132a3,3,0,0,0,0,.917q0,2.961,0,5.924,0,5.944,0,11.89c0,1.92-.092,4.133,2.084,4.9a4.876,4.876,0,0,0,1.631.231c1.544.017,3.088,0,4.632,0h23.8a10.7,10.7,0,0,0,3.489-.231c2.172-.769,2.085-2.985,2.084-4.9q0-3.076,0-6.153,0-5.831,0-11.661a3.22,3.22,0,0,0,0-.687v-.459l-.778.361c.016.013.066-.014.081,0,.073.07.566,0,.666,0h5.8a6.57,6.57,0,0,0,2.062,0c.04-.019.121.024.158,0-.28.184-.446-.8-.717-.364-.221.353.189,1.937.23,2.342q.24,2.374.5,4.746c.394,3.678.8,7.354,1.2,11.031q.3,2.721.587,5.442a2.059,2.059,0,0,0,2,2,2.013,2.013,0,0,0,2-2c-.782-7.363-1.643-14.718-2.374-22.086-.163-1.652-.09-3.6-1.683-4.589a4.272,4.272,0,0,0-2.394-.522H67.205c-2.049,0-4.5-.153-5.238,2.331a10.724,10.724,0,0,0-.117,2.911q0,1.6,0,3.191l0,6.164q0,3.159,0,6.319c0,.362-.261,2.946,0,3.146-.154-.118,1.153-.155.595-.329a6.018,6.018,0,0,0-1.558,0H33.1a6.018,6.018,0,0,0-1.558,0c-.113.035-.761-.092.206.164.685.182.268.167.388-.325a3.425,3.425,0,0,0,0-.73V231.16q0-6.242.005-12.483,0-1.48,0-2.962a12.02,12.02,0,0,0-.117-3.14,3.352,3.352,0,0,0-3.217-2.331c-1.747-.086-3.521,0-5.27,0-1.565,0-3.737-.344-5.128.522-1.6.993-1.52,2.936-1.684,4.589q-.248,2.508-.519,5.013c-.4,3.807-.828,7.611-1.244,11.417q-.309,2.827-.61,5.656a2.014,2.014,0,0,0,2,2,2.046,2.046,0,0,0,2-2Z"/><path class="c" d="M81.512,279.263H70.87a6.324,6.324,0,0,0-3.6.794c-3.282,2.11-2.326,6.827-1.6,10.048a17.012,17.012,0,0,0,4.27,8.255c3.341,3.388,8.1,4.554,12.726,4.581,2.575.015,2.578-3.985,0-4a18.312,18.312,0,0,1-5.625-.808,9.529,9.529,0,0,1-1.976-.862,10.3,10.3,0,0,1-1.59-1.079,12.137,12.137,0,0,1-1.466-1.507c-.037-.045-.229-.3-.032-.037-.111-.149-.218-.3-.322-.454q-.31-.458-.581-.939-.225-.4-.423-.808-.119-.245-.229-.494c.154.346-.008-.017-.042-.106a20.226,20.226,0,0,1-.642-1.951c-.152-.563-.279-1.132-.386-1.705-.063-.335-.116-.672-.166-1.009-.014-.09-.049-.4,0,.034-.027-.218-.053-.436-.075-.654-.09-.875-.46-2.5.173-3.051.427-.368,1.2-.248,1.814-.248H81.512c2.573,0,2.578-4,0-4Z"/><path class="c" d="M12.36,283.263h5.766c1.9,0,3.874-.162,5.766,0,1.269.108,1.019,1.41.934,2.5q-.03.4-.072.8c-.014.138-.113.935-.047.454-.093.68-.213,1.356-.364,2.026q-.195.863-.462,1.707c-.1.313-.209.623-.327.93-.053.141-.108.281-.166.419.166-.4-.137.283-.169.349a14.109,14.109,0,0,1-.9,1.593c-.063.1-.551.771-.339.5a11.464,11.464,0,0,1-.81.924,10.366,10.366,0,0,1-3.68,2.438,17.854,17.854,0,0,1-6.285,1.04c-2.573.015-2.579,4.015,0,4,4.284-.025,8.524-1.008,11.87-3.793a15.922,15.922,0,0,0,4.869-8.018,27.308,27.308,0,0,0,.812-4.568c.181-1.751.348-3.57-.717-5.1-1.845-2.648-4.992-2.2-7.794-2.2H12.36c-2.574,0-2.578,4,0,4Z"/><path class="c" d="M14.316,237.661c-2.457,22.66-4.469,45.37-5.827,68.123q-.575,9.642-.99,19.292c-.11,2.574,3.89,2.569,4,0,.978-22.772,2.656-45.511,4.844-68.2q.928-9.615,1.973-19.217a2.014,2.014,0,0,0-2-2,2.046,2.046,0,0,0-2,2Z"/><path class="c" d="M9.5,327.337H84.488c2.574,0,2.578-4,0-4H9.5c-2.573,0-2.578,4,0,4Z"/><path class="e" d="M294.449,46.933v-.848h-91v85.043h91Z"/><path class="b" d="M236.293,46.027A93.134,93.134,0,0,1,221.28,38.59a2.6,2.6,0,0,1-1.036-.936c-.412-.8.081-1.759.576-2.515a70.133,70.133,0,0,1,9.02-11.112A4.154,4.154,0,0,1,232,22.645c1.452-.221,2.662,1.038,3.587,2.179l10.566,13.035a1.961,1.961,0,0,0,1.525.727h2.545a1.963,1.963,0,0,0,1.525-.727q5.279-6.519,10.562-13.035c.925-1.141,2.135-2.4,3.587-2.179a4.158,4.158,0,0,1,2.161,1.382,70.127,70.127,0,0,1,9.019,11.112c.5.756.989,1.711.576,2.515a2.6,2.6,0,0,1-1.036.936,93.124,93.124,0,0,1-15.012,7.437"/><path class="c" d="M211.314,71.259h75.27c2.574,0,2.578-4,0-4h-75.27c-2.573,0-2.578,4,0,4Z"/><path class="b" d="M255.826,131.128V46.085H242.072v85.043Z"/><path class="c" d="M296.449,46.933v-.848a2.029,2.029,0,0,0-2-2h-91a2.029,2.029,0,0,0-2,2v85.043a2.03,2.03,0,0,0,2,2h91a2.029,2.029,0,0,0,2-2V46.933c0-2.574-4-2.578-4,0v84.195l2-2h-91l2,2V46.085l-2,2h91l-2-2v.848C292.449,49.506,296.449,49.511,296.449,46.933Z"/><path class="c" d="M236.824,44.1a91.508,91.508,0,0,1-13.738-6.753,4.4,4.4,0,0,0-.8-.483c-.65-.164.2-.313-.218.234.23-.3.377-.793.6-1.136.691-1.063,1.426-2.1,2.18-3.121a65.843,65.843,0,0,1,4.694-5.623,18,18,0,0,1,2.256-2.3c.8-.588,1.315.115,1.887.745.364.4.7.834,1.038,1.254l4.182,5.16,4.6,5.672c1.23,1.519,2.2,2.776,4.407,2.834a9.92,9.92,0,0,0,3.766-.3,6.138,6.138,0,0,0,2.415-2.167q1.4-1.726,2.795-3.451l4.971-6.134c.777-.958,1.523-1.956,2.35-2.872.511-.566,1.044-1.3,1.791-.817a15.84,15.84,0,0,1,2.655,2.7q1.363,1.485,2.64,3.047,1.326,1.625,2.539,3.335a12.431,12.431,0,0,1,1.992,3.169c-.129-.426.457-.437-.219-.234a5.2,5.2,0,0,0-1,.6q-.9.537-1.813,1.053-1.825,1.033-3.7,1.983-3.925,1.994-8.029,3.6a2.06,2.06,0,0,0-1.4,2.46,2.016,2.016,0,0,0,2.461,1.4,85.568,85.568,0,0,0,15.49-7.639,4,4,0,0,0,2.15-3.015,6.31,6.31,0,0,0-1.468-3.919,74.682,74.682,0,0,0-4.9-6.48q-1.3-1.54-2.688-3a13.743,13.743,0,0,0-2.957-2.666c-2.478-1.4-4.96-.062-6.631,1.891-1.95,2.279-3.786,4.665-5.675,6.995l-2.8,3.451-1.4,1.725c-.273.338-.7,1.144-1.042,1.292a4.839,4.839,0,0,1-1.51,0c-.449,0-.84.075-1.148-.143a6.526,6.526,0,0,1-.979-1.208l-5.162-6.368q-2.117-2.611-4.235-5.225A8.136,8.136,0,0,0,233.9,20.93c-2.857-1.077-4.922,1.065-6.725,2.968a74.2,74.2,0,0,0-5.912,7.1c-1.558,2.119-4.4,5.232-2.552,7.95.842,1.238,2.5,1.949,3.761,2.674q2.12,1.221,4.3,2.33c2.925,1.486,5.93,2.807,8.985,4a2.015,2.015,0,0,0,2.46-1.4,2.046,2.046,0,0,0-1.4-2.46Z"/><path class="c" d="M240.072,46.085v85.043c0,2.574,4,2.578,4,0V46.085c0-2.574-4-2.578-4,0Z"/><path class="c" d="M253.826,46.085v85.043c0,2.574,4,2.578,4,0V46.085c0-2.574-4-2.578-4,0Z"/><path class="e" d="M82.044,131.986c-4.993,0-10.021,0-12.046.005a1.256,1.256,0,0,1-.8-2.076c3.682-3.874,6.914-5.848,12.842-8.4,5.93,2.55,9.162,4.524,12.845,8.4a1.256,1.256,0,0,1-.8,2.076C92.065,131.987,87.037,131.986,82.044,131.986Z"/><path class="e" d="M71.266,89.505a17.036,17.036,0,0,1-2.45-2.2,20.165,20.165,0,0,1-5.035-12.6c-.241-4.861.78-9.535,2.068-14.238a52.714,52.714,0,0,1,1.8-5.237A1.8,1.8,0,0,1,69.325,54.1H94.308a1.8,1.8,0,0,1,1.676,1.134c.643,1.628,1.235,3.239,1.8,5.048a41.6,41.6,0,0,1,2.174,14.43,20.165,20.165,0,0,1-5.035,12.6,16.476,16.476,0,0,1-13.056,5.419A16.109,16.109,0,0,1,71.266,89.505Z"/><path class="b" d="M15.1,14.71H30.962V31.685H14.6V14.71"/><path class="b" d="M30.3,3.306A3.279,3.279,0,0,0,27.682,2h-9.8A3.277,3.277,0,0,0,14.6,5.281V14.71H30.962V5.279A3.265,3.265,0,0,0,30.3,3.306Z"/><path class="a" d="M17.03,134.611H9.863a7.075,7.075,0,0,1-5.8-2.534A10.742,10.742,0,0,1,2,125.27c0-2.767.022-74.626.015-66.09-.151-3.887.8-7.567,3.535-10.318A32.958,32.958,0,0,1,14.6,42.63V31.685H30.961c0,3.559,0,7.151,0,10.944a32.975,32.975,0,0,1,9.054,6.233c2.754,2.766,3.7,6.473,3.532,10.385,0-6.558.019,63.288.019,66.023a10.743,10.743,0,0,1-2.063,6.807,7.074,7.074,0,0,1-5.8,2.534Z"/><path class="b" d="M97.354,83.941a20.661,20.661,0,0,0,2.38-6.98H64.009a19.752,19.752,0,0,0,4.807,10.344,17.036,17.036,0,0,0,2.45,2.2,16.109,16.109,0,0,0,10.6,3.219,16.476,16.476,0,0,0,13.056-5.419A18.149,18.149,0,0,0,97.354,83.941Z"/><path class="e" d="M34.776,67.195v-.376H10.79V109.7H34.776Z"/><path class="c" d="M36.776,67.195v-.376a2.029,2.029,0,0,0-2-2H10.79a2.03,2.03,0,0,0-2,2V109.7a2.03,2.03,0,0,0,2,2H34.776a2.029,2.029,0,0,0,2-2V67.195c0-2.574-4-2.578-4,0V109.7l2-2H10.79l2,2V66.819l-2,2H34.776l-2-2v.376C32.776,69.769,36.776,69.773,36.776,67.195Z"/><path class="c" d="M79.872,93.733V119.82c0,2.573,4,2.578,4,0V93.733c0-2.573-4-2.578-4,0Z"/><path class="c" d="M72.276,87.778c-8.831-6.675-6.994-19.084-4.052-28.271.211-.661.439-1.316.677-1.968.155-.424.277-1.291.612-1.577-.175.149-.243.129-.006.133.555.008,1.112,0,1.668,0h22.14a3.975,3.975,0,0,1,.993,0c-.165-.05-.1-.048-.19-.135.187.174.242.58.333.818q.353.924.683,1.857c.464,1.315.89,2.645,1.266,3.988,1.412,5.036,2.3,10.609,1.009,15.766a16.178,16.178,0,0,1-9.66,11.457,18.751,18.751,0,0,1-7.769.889,14.8,14.8,0,0,1-7.7-2.957,2.016,2.016,0,0,0-2.737.718,2.043,2.043,0,0,0,.718,2.736A18.41,18.41,0,0,0,78.2,94.537a23.819,23.819,0,0,0,8.531-.216,19.294,19.294,0,0,0,12.51-9.659c2.852-5.275,3.163-11.245,2.311-17.077a52.505,52.505,0,0,0-2.339-9.377c-.887-2.594-1.6-5.958-4.9-6.113-4.6-.217-9.26,0-13.863,0h-8.68c-2.208,0-4.652-.252-5.845,2.127a43.573,43.573,0,0,0-3.129,10.265,39.243,39.243,0,0,0-1.01,10.22,21.8,21.8,0,0,0,8.476,16.525,2.012,2.012,0,0,0,2.736-.717A2.05,2.05,0,0,0,72.276,87.778Z"/><path class="c" d="M76.66,121.83a33.829,33.829,0,0,0-4.954,3.13c-1.525,1.172-3.65,2.662-4.506,4.421a3.279,3.279,0,0,0,2.132,4.52,21.918,21.918,0,0,0,4.967.086q6.91,0,13.821,0,2.71,0,5.421,0c1.886,0,3.614-1.091,3.648-3.165.036-2.217-2.4-3.923-3.956-5.195a34.22,34.22,0,0,0-5.805-3.8c-2.278-1.194-4.3,2.257-2.019,3.454a30.272,30.272,0,0,1,4.848,3.054c.712.566,1.39,1.178,2.045,1.809.21.2.739.869.932.8l.16-.676q.87-.332.268-.277a6.162,6.162,0,0,0-2.02,0H72.62a7.291,7.291,0,0,0-2.193,0c-.308-.037-.3.01.022.138q.516.173.405.815c.2.062.715-.588.932-.8.655-.631,1.334-1.243,2.046-1.809a30.219,30.219,0,0,1,4.847-3.054c2.281-1.2.261-4.649-2.019-3.454Z"/><path class="c" d="M91.957,74.961H71.788c-2.573,0-2.578,4,0,4H91.957c2.573,0,2.578-4,0-4Z"/><path class="c" d="M28.962,14.71V42.629a1.978,1.978,0,0,0,.99,1.727,30.343,30.343,0,0,1,8.789,6.065c2.283,2.387,2.911,5.624,2.807,8.826h4c0-.145,0-.29,0-.434a2,2,0,0,0-4,0c-.072,9.582,0,19.167.008,28.75q0,18.114.01,36.228c0,2.456.049,5.2-1.705,7.128-1.7,1.876-4,1.692-6.316,1.692H26.154c-5.338,0-10.677.025-16.016,0-2.693-.013-4.8-1.2-5.637-3.885a13.043,13.043,0,0,1-.5-3.938q-.022-16.356.009-32.713,0-16.509.008-33.019c0-.193.007-.387,0-.58a2,2,0,0,0-4,0c0,.234,0,.469,0,.7h4c-.093-3.181.544-6.39,2.811-8.76a30.331,30.331,0,0,1,8.788-6.063,1.978,1.978,0,0,0,.99-1.727V14.71c0-2.574-4-2.578-4,0V42.63L13.6,40.9C9.942,42.677,6.107,45.03,3.469,48.18a16.035,16.035,0,0,0-3.454,11c.075,2.567,4,2.583,4,0,0-.235,0-.47,0-.7h-4c.118,2.989,0,6.006,0,9q0,10.137,0,20.274,0,18.115-.01,36.231c0,3.248.3,6.591,2.416,9.227a9.509,9.509,0,0,0,7.722,3.406c2.635.012,5.27,0,7.9,0H34.07c2.784,0,5.369-.167,7.638-1.972,2.535-2.018,3.577-5.1,3.816-8.243.278-3.658.041-7.412.04-11.075l-.006-20.949q-.006-17.472-.01-34.944c0-.2,0-.41,0-.615h-4c0,.144,0,.289,0,.434,0,2.58,3.917,2.57,4,0A16.059,16.059,0,0,0,42.1,48.184c-2.638-3.152-6.477-5.507-10.13-7.282l.991,1.727V14.71c0-2.574-4-2.578-4,0Z"/><path class="c" d="M16.6,14.71V6.12c0-.26,0-.521,0-.781a2.581,2.581,0,0,1,.008-.282c-.036.327.1-.32.1-.321-.133.339.348-.483.121-.205,0,0,.479-.427.224-.241,0,0,.576-.293.278-.177A.927.927,0,0,1,17.885,4c.211-.007.423,0,.634,0h2.97c2.035,0,4.071.015,6.106,0a2.93,2.93,0,0,1,.312.007c-.327-.035.32.1.321.1-.339-.132.485.347.206.12,0,0,.428.479.241.223.009.012.273.522.177.278,0,0,.145.65.1.32A9.1,9.1,0,0,1,28.962,6.2V14.71c0,2.574,4,2.578,4,0v-8.2a7.7,7.7,0,0,0-.62-3.7A5.176,5.176,0,0,0,29.968.534a7.489,7.489,0,0,0-3.3-.53H19.118a8.861,8.861,0,0,0-2.845.252A5.387,5.387,0,0,0,12.6,5.3c-.02.761,0,1.525,0,2.286V14.71c0,2.574,4,2.578,4,0Z"/><path class="c" d="M16.2,33.685H29.369a2,2,0,0,0,0-4H16.2a2,2,0,1,0,0,4Z"/><path class="c" d="M15.1,16.71H30.466c2.574,0,2.578-4,0-4H15.1c-2.574,0-2.578,4,0,4Z"/></svg>