<svg id="b" xmlns="http://www.w3.org/2000/svg" width="351.974" height="323.158" viewBox="0 0 351.974 323.158" style="color: initial !important;"><defs><style>.d{fill:#bd957a;}.e{fill:#ffffff;}.f{fill:#211715;}.g{fill:#ffda71;}.h{fill:#febe69;}</style></defs><g id="c"><path class="d" d="M2,22.157v60c40,0,80,0,120,0V22.157H2Z"/><path class="f" d="M0,22.157v60c0,1.081.916,2,2,2,31.167,0,62.333,0,93.5,0,8.833,0,17.667,0,26.5,0,1.081,0,2-.916,2-2V22.157c0-1.081-.916-2-2-2H2c-2.574,0-2.578,4,0,4h120l-2-2v60l2-2c-31.167,0-62.333,0-93.5,0-8.833,0-17.667,0-26.5,0l2,2V22.157c0-2.574-4-2.578-4,0Z"/><path class="e" d="M77.729,46.634c-.414-1.084-.827-2.186-1.387-3.206-.562-1.024-1.359-1.944-2.093-2.835-.235-.285-.478-.555-.757-.798-.883-.768-1.825-1.549-2.837-2.148-1.014-.6-2.169-1.026-3.262-1.433-.435-.162-.878-.287-1.335-.369-1.248-.225-2.551-.441-3.828-.482-1.335-.043-2.706.233-4.01.426-.537.08-1.064.188-1.576.369-1.157.408-2.36.864-3.426,1.488-2.269,1.33-3.678,2.922-5.186,5.005-.233.323-.441.658-.613,1.018-.508,1.064-1.019,2.176-1.361,3.313-.242.803-.315,1.64-.427,2.468-.025.182-.031.361-.056.541-.134.631-.205,1.283-.2,1.952.01,1.451.245,2.933.518,4.345.279,1.446.947,2.835,1.55,4.154.625,1.367,1.639,2.596,2.627,3.698.236.263.497.494.772.716.895.721,1.809,1.549,2.852,2.077,2.52,1.275,4.288,1.667,7.056,1.961,1.777.189,3.653-.114,5.38-.453,1.587-.312,3.184-.998,4.557-1.821.98-.587,1.898-1.347,2.758-2.082.288-.246.55-.511.795-.8,1.894-2.241,3.538-4.814,3.993-7.776.237-1.54.503-3.025.35-4.572-.154-1.549-.281-3.269-.851-4.759Z"/><path class="f" d="M79.658,46.102c-.729-1.909-1.472-3.724-2.727-5.354-1.175-1.526-2.433-2.798-3.979-3.953-3.195-2.387-7.639-3.637-11.617-3.418-3.839.211-7.672,1.3-10.757,3.651-2.94,2.241-5.016,5.32-6.239,8.787s-1.123,7.458-.375,11.007,2.82,7.269,5.631,9.588c1.598,1.318,3.146,2.366,5.074,3.149,1.625.66,3.303.992,5.036,1.214,3.927.504,8.151-.248,11.61-2.203,7.661-4.328,11.265-14.155,8.343-22.469-.848-2.412-4.714-1.374-3.857,1.063,2.032,5.782.342,12.615-4.428,16.514-4.648,3.8-11.842,4.384-17.056,1.318-2.64-1.553-4.509-3.988-5.695-6.768-1.213-2.843-1.342-5.761-.991-8.778.661-5.688,5.236-10.712,10.92-11.7,3.666-.638,7.374-.388,10.708,1.406,3.238,1.743,5.258,4.648,6.542,8.008.385,1.008,1.347,1.703,2.46,1.397.965-.265,1.784-1.446,1.397-2.46Z"/><path class="f" d="M18.069,50.978c-.088-.231-.177-.467-.296-.685-.12-.219-.29-.415-.447-.605-.05-.061-.102-.118-.162-.17-.189-.164-.39-.331-.606-.459-.216-.128-.463-.219-.697-.306-.093-.035-.187-.061-.285-.079-.266-.048-.545-.094-.817-.103-.285-.009-.578.05-.856.091-.115.017-.227.04-.337.079-.247.087-.504.184-.731.318-.484.284-.785.624-1.107,1.069-.05.069-.094.141-.131.217-.108.227-.218.465-.291.707-.052.171-.067.35-.091.527-.005.039-.007.077-.012.116-.029.135-.044.274-.043.417.002.31.052.626.111.928.06.309.202.605.331.887.133.292.35.554.561.79.05.056.106.106.165.153.191.154.386.331.609.443.538.272.915.356,1.506.419.379.04.78-.024,1.149-.097.339-.067.68-.213.973-.389.209-.125.405-.288.589-.445.061-.053.118-.109.17-.171.404-.478.755-1.028.853-1.66.051-.329.107-.646.075-.976-.033-.331-.06-.698-.182-1.016Z"/><path class="f" d="M27.491,50.978c-.088-.231-.177-.467-.296-.685-.12-.219-.29-.415-.447-.605-.05-.061-.102-.118-.162-.17-.189-.164-.39-.331-.606-.459-.216-.128-.463-.219-.697-.306-.093-.035-.187-.061-.285-.079-.266-.048-.545-.094-.817-.103-.285-.009-.578.05-.856.091-.115.017-.227.04-.337.079-.247.087-.504.184-.731.318-.484.284-.785.624-1.107,1.069-.05.069-.094.141-.131.217-.108.227-.218.465-.291.707-.052.171-.067.35-.091.527-.005.039-.007.077-.012.116-.029.135-.044.274-.043.417.002.31.052.626.111.928.06.309.202.605.331.887.133.292.35.554.561.79.05.056.106.106.165.153.191.154.386.331.609.443.538.272.915.356,1.506.419.379.04.78-.024,1.149-.097.339-.067.68-.213.973-.389.209-.125.405-.288.589-.445.061-.053.118-.109.17-.171.404-.478.755-1.028.853-1.66.051-.329.107-.646.075-.976-.033-.331-.06-.698-.182-1.016Z"/><path class="f" d="M36.913,50.978c-.088-.231-.177-.467-.296-.685-.12-.219-.29-.415-.447-.605-.05-.061-.102-.118-.162-.17-.189-.164-.39-.331-.606-.459-.216-.128-.463-.219-.697-.306-.093-.035-.187-.061-.285-.079-.266-.048-.545-.094-.817-.103-.285-.009-.578.05-.856.091-.115.017-.227.04-.337.079-.247.087-.504.184-.731.318-.484.284-.785.624-1.107,1.069-.05.069-.094.141-.131.217-.108.227-.218.465-.291.707-.052.171-.067.35-.091.527-.005.039-.007.077-.012.116-.029.135-.044.274-.043.417.002.31.052.626.111.928.06.309.202.605.331.887.133.292.35.554.561.79.05.056.106.106.165.153.191.154.386.331.609.443.538.272.915.356,1.506.419.379.04.78-.024,1.149-.097.339-.067.68-.213.973-.389.209-.125.405-.288.589-.445.061-.053.118-.109.17-.171.404-.478.755-1.028.853-1.66.051-.329.107-.646.075-.976-.033-.331-.06-.698-.182-1.016Z"/><path class="f" d="M106.871,57.236c.581.395,1.153.859,1.683,1.37,1.02.987,1.908,2.067,2.642,3.217,1.693,2.659,2.55,5.655,2.622,8.663.051,2.23-1.591,4.03-3.55,4.03h-21.362c-1.959,0-3.601-1.8-3.55-4.03.071-3.008.928-6.004,2.622-8.663.724-1.15,1.622-2.23,2.642-3.217.541-.523,1.112-.987,1.704-1.394"/><path class="f" d="M105.862,58.963c2.42,1.707,4.279,4.377,5.194,7.178.473,1.448,1.872,5.772-.527,6.342-.507.121-1.125.033-1.642.033h-13.769c-2.019,0-4.138.186-6.151,0-2.445-.226-1.546-3.813-1.153-5.333.835-3.236,2.778-6.292,5.52-8.243.879-.625,1.297-1.745.718-2.736-.508-.869-1.852-1.347-2.736-.718-3.028,2.155-5.313,5.112-6.681,8.565-1.167,2.943-2.17,7.238-.189,10.043,2.057,2.911,5.43,2.422,8.525,2.422h11.871c2.427,0,5.911.552,8.104-.741,3.626-2.138,3.133-6.818,2.099-10.282-1.199-4.017-3.739-7.569-7.162-9.984-2.108-1.487-4.108,1.98-2.019,3.454h0Z"/><path class="f" d="M13.613,35.383h8.645c1.046,0,2.048-.92,2-2s-.879-2-2-2h-8.645c-1.046,0-2.048.92-2,2s.879,2,2,2h0Z"/><path class="e" d="M108.483,43.039c-.941-1.707-2.406-3.313-4.089-4.142-1.474-.725-2.388-.995-4.017-1.169-1.065-.114-2.146.038-3.194.233-1.897.352-3.962,1.615-5.21,3.211-1.058,1.354-1.613,2.369-2.181,4.027-.363,1.06-.488,2.239-.502,3.363.001,2.054.5,4.278,1.593,5.983.525.818,1.085,1.636,1.806,2.263,1.246,1.082,2.109,1.653,3.639,2.247,1.823.707,4.159.628,6.023.155,1.756-.446,3.661-1.634,4.834-3.132.599-.765,1.193-1.549,1.577-2.466.679-1.621.946-2.693,1.092-4.497.165-2.044-.406-4.324-1.37-6.075Z"/><path class="f" d="M110.21,42.03c-2.792-4.888-8.081-7.121-13.559-5.997-5.004,1.027-8.608,5.841-9.23,10.748-.662,5.219,1.601,10.513,6.214,13.208,4.485,2.62,10.56,1.929,14.278-1.736,4.273-4.211,5.061-11.001,2.296-16.223-1.205-2.276-4.659-.257-3.454,2.019,1.71,3.23,1.424,7.338-.745,10.292-2.065,2.812-5.999,4.089-9.292,2.733-3.321-1.368-5.331-4.63-5.424-8.167-.091-3.459,1.759-7.247,5.081-8.63,1.86-.774,4.075-.764,5.962-.105,1.977.691,3.394,2.083,4.419,3.878,1.276,2.235,4.734.222,3.454-2.019Z"/><path class="e" d="M341.084,229.994h-102.289c-4.891,0-8.856,3.966-8.856,8.857,0,23.893,0,47.902,0,59.987,0,4.891,3.965,8.85,8.856,8.85,34.096,0,68.192,0,102.289,0,4.891,0,8.856-3.965,8.856-8.856v-59.983c0-4.891-3.965-8.856-8.856-8.856Z"/><path class="h" d="M349.94,241.754v12h-120v-12h120Z"/><path class="f" d="M341.084,227.994h-83.107c-6.266,0-12.532-.02-18.797,0-1.954.006-3.844.39-5.579,1.323-1.853.996-3.45,2.614-4.413,4.485-1.162,2.256-1.248,4.54-1.248,7.027,0,11.602,0,23.205,0,34.807,0,4.759,0,9.518,0,14.276,0,1.944,0,3.887,0,5.831,0,1.881-.128,3.811.305,5.657.999,4.255,4.683,7.547,8.986,8.157,2.866.406,5.908.131,8.799.131,3.077,0,6.154,0,9.231,0,24.616,0,49.232,0,73.847,0,3.077,0,6.154,0,9.231,0,2.567,0,4.97.047,7.351-1.034,3.827-1.739,6.178-5.681,6.249-9.827.039-2.294,0-4.592,0-6.886v-48.367c0-3.001.307-6.213-.906-9.029-1.718-3.985-5.645-6.468-9.949-6.551-2.575-.05-2.575,3.95,0,4,3.788.073,6.795,3.058,6.856,6.856.009.56,0,1.12,0,1.68v56.486c0,.604.01,1.208,0,1.812-.058,3.449-2.65,6.518-6.164,6.835-2.848.257-5.816.027-8.676.027-2.994,0-5.988,0-8.981,0-5.988,0-11.975,0-17.963,0-11.892,0-23.784,0-35.676,0-5.904,0-11.809,0-17.713,0-2.994,0-5.988,0-8.981,0-2.39,0-5.16.421-7.445-.444-1.656-.627-3.023-1.922-3.774-3.522-.744-1.588-.627-3.286-.627-4.991,0-3.951,0-7.901,0-11.852,0-10.43,0-20.86,0-31.29,0-2.937,0-5.874,0-8.811,0-1.482,0-2.963,0-4.445,0-1.125-.056-2.213.245-3.306.826-3.003,3.565-4.987,6.64-5.035,5.037-.078,10.081,0,15.118,0h87.141c2.574,0,2.578-4,0-4Z"/><path class="h" d="M243.274,266.157c0,8.702,0,17.444,0,17.559,5.853,0,11.706,0,17.559,0,0-1.943,0-9.796,0-17.559h-17.559Z"/><path class="f" d="M241.274,266.157c0,5.853,0,11.706,0,17.559,0,1.081.916,2,2,2,5.853,0,11.706,0,17.559,0,1.081,0,2-.916,2-2,0-5.853,0-11.706,0-17.559,0-1.081-.916-2-2-2h-17.559c-2.574,0-2.578,4,0,4h17.559l-2-2c0,5.853,0,11.706,0,17.559l2-2c-5.853,0-11.706,0-17.559,0l2,2c0-5.853,0-11.706,0-17.559,0-2.574-4-2.578-4,0Z"/><path class="f" d="M232.333,255.751h117.606c2.574,0,2.578-4,0-4h-117.606c-2.574,0-2.578,4,0,4h0Z"/><path class="f" d="M232.333,243.75h117.606c2.574,0,2.578-4,0-4h-117.606c-2.574,0-2.578,4,0,4h0Z"/><path class="f" d="M293.667,292.824c14.111,0,28.222,0,42.333,0,2.574,0,2.578-4,0-4-14.111,0-28.222,0-42.333,0-2.574,0-2.578,4,0,4h0Z"/><path class="g" d="M289.938,2c-29.564,0-49.998,22.897-49.998,49.691,0,29.978,20.874,50.623,50,50.623,30.248,0,50-20.837,50-50.623,0-26.976-20.542-49.691-50.002-49.691Z"/><path class="f" d="M289.938,0c-11.31.037-22.568,3.38-31.635,10.24-8.555,6.472-14.862,15.516-18.025,25.77-6.294,20.402-.041,44.646,17.118,57.838,8.351,6.42,18.643,9.771,29.103,10.369,10.803.618,21.973-1.495,31.378-6.98,8.536-4.978,15.314-12.669,19.275-21.714,4.401-10.049,5.78-21.479,4.113-32.31-1.606-10.437-6.49-20.33-13.863-27.898-7.656-7.858-17.884-12.994-28.717-14.634C295.785.242,292.87.009,289.938,0c-2.574-.008-2.578,3.992,0,4,10.534.034,20.83,3.137,29.318,9.449,7.825,5.819,13.609,14.262,16.479,23.554,5.706,18.468.637,40.827-14.667,53.219-7.493,6.067-17.044,9.246-26.585,9.931-10.074.724-20.38-.98-29.264-5.929-8.165-4.549-14.599-11.582-18.566-20.033-4.274-9.106-5.711-19.942-4.183-29.871,1.504-9.773,5.895-18.996,12.797-26.108,7.132-7.35,16.529-12.012,26.619-13.616,2.661-.423,5.36-.588,8.052-.596,2.573-.008,2.578-4.008,0-4Z"/><path class="f" d="M289.938,12.833c-8.466.037-16.904,2.509-23.711,7.623-6.442,4.84-11.207,11.576-13.646,19.259-4.869,15.341-.234,33.756,12.674,43.745,12.648,9.789,31.86,10.72,45.648,2.732,14.108-8.174,20.143-25.192,17.718-40.86-2.536-16.386-15.689-29.523-32.091-31.983-2.186-.328-4.38-.508-6.591-.517-2.574-.011-2.578,3.989,0,4,7.743.033,15.292,2.301,21.533,6.943,5.726,4.26,9.961,10.457,12.059,17.257,4.188,13.578.465,29.969-10.779,39.081-11.065,8.966-28.559,9.764-40.859,2.955-12.862-7.121-18.955-22.369-16.778-36.639,1.094-7.173,4.323-13.952,9.386-19.17,5.244-5.405,12.132-8.807,19.548-9.995,1.946-.312,3.922-.423,5.89-.431,2.573-.011,2.579-4.011,0-4Z"/><path class="f" d="M305.992,41.162c-1.279-5.203-5.262-9.202-10.807-9.259-2.63-.027-5.261,0-7.891,0-.751,0-1.512-.037-2.262,0-2.936.145-5.112,2.292-5.225,5.247-.047,1.224,0,2.459,0,3.684v30.377c0,4.118,6.4,4.125,6.4,0v-14.037h4.945c2.947,0,5.878.237,8.624-1.03,5.432-2.505,7.573-9.466,6.217-14.982ZM299.371,47.659c-.203.495-.466.995-.762,1.444-.029.044-.044.069-.059.093-.018.02-.032.035-.061.067-.17.194-.506.525-.618.612-1.693,1.31-4.233.899-6.507.899h-5.159v-11.67c0-.243.008-.49.012-.736.389-.027.752-.065.87-.065h4.115c1.936,0,4.488-.356,6.044.507.993.55,1.354,1.029,1.848,2.023.506,1.016.856,2.172.923,3.287.073,1.211-.187,2.415-.647,3.539Z"/><rect class="e" x="26.409" y="203.157" width="71.182" height="118" rx="9.046" ry="9.046"/><path class="f" d="M35.456,323.157h52.429c3.776,0,7.221-1.41,9.532-4.488,1.605-2.137,2.175-4.663,2.175-7.283v-94.999c0-1.239.003-2.478,0-3.717-.007-3.149-1.047-6.167-3.351-8.391-2.406-2.322-5.454-3.122-8.696-3.122h-49.217c-1.589,0-3.196-.076-4.77.174-5.296.84-9.064,5.635-9.148,10.893-.142,8.92,0,17.853,0,26.774,0,15.885,0,31.769,0,47.654v18.334c0,2.485-.093,4.989.007,7.472.238,5.958,5.122,10.588,11.04,10.699,2.575.048,2.575-3.952,0-4-3.977-.075-6.998-3.223-7.046-7.165-.011-.893,0-1.786,0-2.679v-14.144c0-15.209,0-30.418,0-45.627s0-23.316,0-34.974c0-.774-.011-1.55,0-2.324.058-3.94,3.15-7.029,7.085-7.087,4.256-.063,8.517,0,12.774,0h39.488c2.845,0,5.448.988,6.927,3.584.824,1.447.908,2.962.908,4.556v94.074c0,3.271.527,7.04-1.951,9.607-1.785,1.85-4.014,2.179-6.416,2.179h-51.768c-2.574,0-2.578,4,0,4Z"/><rect class="f" x="49.766" y="211.838" width="24.469" height="7.884" rx="3.942" ry="3.942"/><path class="f" d="M73.718,269.772h-8.771v-3.405h9.205c3.793,0,3.8-5.896,0-5.896h-7.128c2.819-3.359,5.637-6.718,8.455-10.077.99-1.18,1.243-3.028,0-4.169-1.092-1.003-3.11-1.261-4.169,0-3.104,3.699-6.208,7.398-9.311,11.097-3.104-3.699-6.207-7.398-9.311-11.097-.995-1.186-3.156-1.103-4.169,0-1.158,1.261-1.062,2.904,0,4.169,2.819,3.359,5.637,6.718,8.455,10.077h-7.128c-3.793,0-3.8,5.896,0,5.896h9.205v3.405h-8.771c-3.794,0-3.8,5.896,0,5.896h8.771v8.337c0,1.593,1.355,2.948,2.948,2.948s2.948-1.349,2.948-2.948v-8.337h8.771c3.793,0,3.8-5.896,0-5.896Z"/></g></svg>