<svg id="b" xmlns="http://www.w3.org/2000/svg" width="384.861" height="139.408" viewBox="0 0 384.861 139.408" style="color: initial !important;"><defs><style>.d{fill:#ffffff;}.e{fill:#a98a75;}.f{fill:#ffda71;}.g{fill:#201614;}.h{fill:#f2635f;}.i{fill:#cfcfcf;}</style></defs><g id="c"><path class="h" d="M192.465,38.911c-1.38,0-2.74.05-4.08.15l-.01-.13c1.4-3.08,2.8-6.17,4.2-9.25,4.13-9.09,8.25-18.18,12.38-27.28h25.24c-6.09,13.42-12.17,26.82-18.26,40.23-5.86-2.39-12.4-3.72-19.47-3.72Z"/><path class="d" d="M192.575,29.681c-1.4,3.08-2.8,6.17-4.2,9.25l.01.13c-5.52.41-10.68,1.65-15.39,3.59-6.08-13.42-12.17-26.84-18.26-40.25h25.24c4.11,9.05,8.21,18.1,12.32,27.15l.28.13Z"/><path class="g" d="M175.687,42.809c-6.288-13.876-12.58-27.75-18.88-41.62l-2.072,3.611h25.24l-2.072-1.189c4.109,9.049,8.211,18.101,12.32,27.15.536,1.18,2.247,1.467,3.284.861,1.213-.71,1.399-2.099.861-3.284-4.109-9.049-8.211-18.101-12.32-27.15C181.708.442,180.753,0,179.975,0h-25.24c-1.96,0-2.802,2.005-2.072,3.611,6.3,13.87,12.592,27.744,18.88,41.62.535,1.181,2.247,1.467,3.284.861,1.214-.71,1.398-2.099.861-3.284h0Z"/><path class="g" d="M190.447,40.141c5.528-12.176,11.052-24.354,16.58-36.53l-2.072,1.189h25.24l-2.072-3.611c-6.347,13.983-12.689,27.968-19.04,41.95-.536,1.179-.338,2.582.861,3.284,1.03.602,2.745.325,3.284-.861,6.351-13.982,12.693-27.967,19.04-41.95.729-1.607-.112-3.611-2.072-3.611h-25.24c-.778,0-1.733.442-2.072,1.189-5.528,12.176-11.052,24.354-16.58,36.53-.535,1.179-.338,2.582.861,3.284,1.03.602,2.745.325,3.284-.861h0Z"/><path class="i" d="M192.463,38.908c-29,0-49.045,22.391-49.045,48.591,0,29.315,20.476,49.503,49.047,49.503,29.672,0,49.047-20.376,49.047-49.503,0-26.379-20.151-48.591-49.049-48.591Z"/><path class="g" d="M192.463,36.508c-11.156.037-22.305,3.315-31.258,10.078-8.477,6.403-14.738,15.31-17.88,25.467-6.237,20.163.022,44.024,16.969,57.033,8.244,6.328,18.411,9.616,28.728,10.217,10.661.621,21.694-1.457,30.992-6.838,8.514-4.927,15.292-12.586,19.213-21.601,4.287-9.859,5.636-20.99,4.031-31.611-1.57-10.395-6.471-20.255-13.847-27.751-7.514-7.636-17.512-12.656-28.087-14.286-2.936-.453-5.89-.697-8.861-.707-3.089-.01-3.093,4.79,0,4.8,10.258.034,20.264,3.046,28.538,9.179,7.573,5.614,13.184,13.794,15.966,22.774,5.566,17.967.573,39.589-14.241,51.573-7.185,5.812-16.486,8.93-25.717,9.604-9.796.716-19.826-.9-28.48-5.68-8.037-4.439-14.336-11.311-18.219-19.635-4.103-8.794-5.472-19.301-3.962-28.875,1.496-9.487,5.788-18.411,12.525-25.286,6.897-7.039,15.933-11.489,25.635-13.059,2.628-.425,5.295-.586,7.955-.595,3.088-.01,3.094-4.81,0-4.8Z"/><path class="g" d="M192.466,49.316c-8.31.037-16.637,2.447-23.325,7.466-6.406,4.807-11.146,11.47-13.543,19.122-4.714,15.047-.111,33.009,12.527,42.783,12.481,9.653,31.439,10.567,45.04,2.68,13.833-8.022,19.756-24.626,17.438-40-2.425-16.081-15.363-29.041-31.433-31.509-2.223-.341-4.454-.533-6.703-.543-3.089-.014-3.093,4.786,0,4.8,7.454.033,14.735,2.204,20.743,6.678,5.471,4.074,9.53,9.989,11.54,16.489,4.046,13.087.404,28.751-10.348,37.463-10.531,8.532-27.368,9.345-39.189,2.879-12.353-6.757-18.322-21.361-16.228-35.109,1.05-6.895,4.151-13.402,9.025-18.41,5.019-5.156,11.587-8.397,18.667-9.558,1.912-.314,3.855-.422,5.79-.43,3.088-.014,3.094-4.814,0-4.8Z"/><path class="g" d="M189.55,77.516c-1.012,2.008-2.024,4.016-3.036,6.024-.953,1.891-1.759,4.117-2.992,5.834l.861-.861,1.251.098c-.241-.214-.482-.429-.722-.645-.36-.324-.718-.649-1.076-.976-.595-.545-1.186-1.094-1.773-1.647-1.394-1.314-2.712-3.018-4.301-4.089-1.343-.905-3.175-.764-4.31.439-1.468,1.557-.708,3.676-.373,5.524.674,3.714,1.348,7.429,2.022,11.143.322,1.777.644,3.553.966,5.33.381,2.102,1.143,3.812,3.506,3.991,1.796.136,3.651,0,5.454,0,1.983,0,3.966,0,5.949,0,3.801,0,7.602,0,11.403,0,1.734,0,3.895.387,5.276-.922,1.33-1.26,1.334-3.784,1.644-5.491.674-3.715,1.347-7.429,2.021-11.144.19-1.05.381-2.099.571-3.149.18-.994.527-2.096.492-3.108-.073-2.091-2.13-3.621-4.161-3.12-.932.23-1.574.917-2.228,1.567-.801.796-1.611,1.584-2.428,2.363-.701.668-1.407,1.33-2.12,1.986-.356.328-.714.654-1.073.979-.239.216-.479.432-.72.647-.714.506-.417.581.89.224l.861.861c-.77-1.073-1.276-2.43-1.87-3.609-.765-1.517-1.529-3.034-2.294-4.551-.704-1.397-1.301-3.274-2.398-4.413-1.62-1.681-4.084-1.025-5.296.714-.741,1.064-.195,2.666.861,3.284,1.195.699,2.541.206,3.284-.861l-.014.096-1.059.617c-.105-.059-.209-.059-.314,0l-1.059-.617c.259.207.796,1.51,1.084,2.083.4.794.8,1.588,1.201,2.382.773,1.534,1.546,3.068,2.319,4.602.741,1.47,1.364,3.4,3.073,3.969,2.346.781,4.008-1.263,5.561-2.684,1.624-1.486,3.529-2.957,4.904-4.676.968-.743.362-1.311-1.818-1.704-.059.323-.117.646-.176.969-.103.565-.205,1.13-.308,1.696-.22,1.211-.44,2.422-.659,3.634-.41,2.261-.82,4.522-1.23,6.783-.205,1.131-.41,2.261-.615,3.392-.218,1.204-.305,2.556-.73,3.702l.617-1.059c.551-.245.516-.325-.108-.238-.248,0-.496,0-.744,0-.578,0-1.157,0-1.735,0-.992,0-1.983,0-2.975,0-2.148,0-4.297,0-6.445,0s-4.297,0-6.445,0c-.992,0-1.983,0-2.975,0-.496,0-.992,0-1.487,0-.331,0-.661,0-.992,0-.623-.086-.659-.007-.108.238l.617,1.059c-.696-1.876-.812-4.154-1.17-6.125-.381-2.1-.762-4.199-1.142-6.299s-.762-4.199-1.143-6.298c-.062-.343-.049-1.158-.264-1.453-2.181.393-2.787.961-1.818,1.704.172.171.344.341.516.51.747.736,1.501,1.465,2.263,2.186,1.496,1.417,3.03,3.184,4.77,4.297,1.918,1.227,3.966.26,4.968-1.577,1.997-3.658,3.762-7.465,5.638-11.187,1.387-2.752-2.753-5.185-4.145-2.423Z"/><path class="g" d="M192.508,68.628c-1.734-.055-2.975,1.246-3.024,2.812-.056,1.753,1.13,2.998,2.838,3.052,1.774.056,2.971-1.125,3.026-2.867.05-1.577-1.113-2.943-2.84-2.998Z"/><path class="g" d="M174.491,73.516c-1.734-.055-2.975,1.246-3.024,2.812-.056,1.753,1.13,2.998,2.838,3.052,1.774.056,2.971-1.125,3.026-2.867.05-1.577-1.113-2.943-2.84-2.998Z"/><path class="g" d="M210.623,73.516c-1.734-.055-2.975,1.246-3.024,2.812-.056,1.753,1.13,2.998,2.838,3.052,1.774.056,2.971-1.125,3.026-2.867.05-1.577-1.113-2.943-2.84-2.998Z"/><path class="h" d="M51.505,38.911c-1.38,0-2.73.05-4.07.15l-.01-.13c1.4-3.08,2.8-6.17,4.2-9.25,4.13-9.09,8.25-18.18,12.38-27.28h25.24c-6.09,13.42-12.17,26.83-18.25,40.24-5.86-2.4-12.41-3.73-19.49-3.73Z"/><path class="d" d="M51.625,29.681c-1.4,3.08-2.8,6.17-4.2,9.25l.01.13c-5.52.41-10.68,1.65-15.39,3.58C25.955,29.221,19.875,15.811,13.785,2.401h25.24c4.11,9.05,8.21,18.1,12.32,27.15l.28.13Z"/><path class="g" d="M34.737,42.81C28.449,28.934,22.157,15.06,15.857,1.19l-2.072,3.611h25.24l-2.072-1.189c4.109,9.049,8.211,18.101,12.32,27.15.536,1.18,2.247,1.467,3.284.861,1.213-.71,1.399-2.099.861-3.284-4.109-9.049-8.211-18.101-12.32-27.15C40.758.443,39.803,0,39.025,0H13.785C11.824,0,10.983,2.006,11.712,3.612c6.3,13.87,12.592,27.744,18.88,41.62.535,1.181,2.247,1.467,3.284.861,1.214-.71,1.398-2.099.861-3.284h0Z"/><path class="g" d="M49.497,40.142c5.528-12.176,11.052-24.354,16.58-36.53l-2.072,1.189h25.24l-2.072-3.611c-6.346,13.982-12.688,27.966-19.03,41.95-.535,1.18-.338,2.582.861,3.284,1.029.602,2.746.325,3.284-.861,6.342-13.984,12.684-27.968,19.03-41.95C92.046,2.006,91.206,0,89.245,0h-25.24c-.778,0-1.733.442-2.072,1.189-5.528,12.176-11.052,24.354-16.58,36.53-.535,1.179-.338,2.582.861,3.284,1.03.602,2.745.325,3.284-.861h0Z"/><path class="f" d="M51.502,38.907c-29,0-49.045,22.391-49.045,48.591,0,29.315,20.476,49.503,49.047,49.503,29.672,0,49.047-20.376,49.047-49.503,0-26.379-20.151-48.591-49.049-48.591Z"/><path class="g" d="M51.502,36.507c-11.156.037-22.305,3.315-31.258,10.078-8.477,6.403-14.738,15.31-17.88,25.467-6.237,20.163.022,44.024,16.969,57.033,8.244,6.328,18.411,9.616,28.728,10.217,10.661.621,21.694-1.457,30.992-6.838,8.514-4.927,15.292-12.586,19.213-21.601,4.287-9.859,5.636-20.99,4.031-31.611-1.57-10.395-6.471-20.255-13.847-27.751-7.514-7.636-17.512-12.656-28.087-14.286-2.936-.453-5.89-.697-8.861-.707-3.089-.01-3.093,4.79,0,4.8,10.258.034,20.264,3.046,28.538,9.179,7.573,5.614,13.184,13.794,15.966,22.774,5.566,17.967.573,39.589-14.241,51.573-7.185,5.812-16.486,8.93-25.717,9.604-9.796.716-19.826-.9-28.48-5.68-8.037-4.439-14.336-11.311-18.219-19.635-4.103-8.794-5.472-19.301-3.962-28.875,1.496-9.487,5.788-18.411,12.525-25.286,6.897-7.039,15.933-11.489,25.635-13.059,2.628-.425,5.295-.586,7.955-.595,3.088-.01,3.094-4.81,0-4.8Z"/><path class="g" d="M51.505,49.315c-8.31.037-16.637,2.447-23.325,7.466-6.406,4.807-11.146,11.47-13.543,19.122-4.714,15.047-.111,33.009,12.527,42.783,12.481,9.653,31.439,10.567,45.04,2.68,13.833-8.022,19.756-24.626,17.438-40-2.425-16.081-15.363-29.041-31.433-31.509-2.223-.341-4.454-.533-6.703-.543-3.089-.014-3.093,4.786,0,4.8,7.454.033,14.735,2.204,20.743,6.678,5.471,4.074,9.53,9.989,11.54,16.489,4.046,13.087.404,28.751-10.348,37.463-10.531,8.532-27.368,9.345-39.189,2.879-12.353-6.757-18.322-21.361-16.228-35.109,1.05-6.895,4.151-13.402,9.025-18.41,5.019-5.156,11.587-8.397,18.667-9.558,1.912-.314,3.855-.422,5.79-.43,3.088-.014,3.094-4.814,0-4.8Z"/><path class="g" d="M48.601,77.517c-1.012,2.008-2.024,4.016-3.036,6.024-.953,1.891-1.759,4.117-2.992,5.834l.861-.861,1.251.098c-.241-.214-.482-.429-.722-.645-.36-.324-.718-.649-1.076-.976-.595-.545-1.186-1.094-1.773-1.647-1.394-1.314-2.712-3.018-4.301-4.089-1.343-.905-3.175-.764-4.31.439-1.468,1.557-.708,3.676-.373,5.524.674,3.714,1.348,7.429,2.022,11.143.322,1.777.644,3.553.966,5.33.381,2.102,1.143,3.812,3.506,3.991,1.796.136,3.651,0,5.454,0,1.983,0,3.966,0,5.949,0,3.801,0,7.602,0,11.403,0,1.734,0,3.895.387,5.276-.922,1.33-1.26,1.334-3.784,1.644-5.491.674-3.715,1.347-7.429,2.021-11.144.19-1.05.381-2.099.571-3.149.18-.994.527-2.096.492-3.108-.073-2.091-2.13-3.621-4.161-3.12-.932.23-1.574.917-2.228,1.567-.801.796-1.611,1.584-2.428,2.363-.701.668-1.407,1.33-2.12,1.986-.356.328-.714.654-1.073.979-.239.216-.479.432-.72.647-.714.506-.417.581.89.224l.861.861c-.77-1.073-1.276-2.43-1.87-3.609-.765-1.517-1.529-3.034-2.294-4.551-.704-1.397-1.301-3.274-2.398-4.413-1.62-1.681-4.084-1.025-5.296.714-.741,1.064-.195,2.666.861,3.284,1.195.699,2.541.206,3.284-.861l-.014.096-1.059.617c-.105-.059-.209-.059-.314,0l-1.059-.617c.259.207.796,1.51,1.084,2.083.4.794.8,1.588,1.201,2.382.773,1.534,1.546,3.068,2.319,4.602.741,1.47,1.364,3.4,3.073,3.969,2.346.781,4.008-1.263,5.561-2.684,1.624-1.486,3.529-2.957,4.904-4.676.968-.743.362-1.311-1.818-1.704-.059.323-.117.646-.176.969-.103.565-.205,1.13-.308,1.696-.22,1.211-.44,2.422-.659,3.634-.41,2.261-.82,4.522-1.23,6.783-.205,1.131-.41,2.261-.615,3.392-.218,1.204-.305,2.556-.73,3.702l.617-1.059c.551-.245.516-.325-.108-.238-.248,0-.496,0-.744,0-.578,0-1.157,0-1.735,0-.992,0-1.983,0-2.975,0-2.148,0-4.297,0-6.445,0s-4.297,0-6.445,0c-.992,0-1.983,0-2.975,0-.496,0-.992,0-1.487,0-.331,0-.661,0-.992,0-.623-.086-.659-.007-.108.238l.617,1.059c-.696-1.876-.812-4.154-1.17-6.125-.381-2.1-.762-4.199-1.142-6.299s-.762-4.199-1.143-6.298c-.062-.343-.049-1.158-.264-1.453-2.181.393-2.787.961-1.818,1.704.172.171.344.341.516.51.747.736,1.501,1.465,2.263,2.186,1.496,1.417,3.03,3.184,4.77,4.297,1.918,1.227,3.966.26,4.968-1.577,1.997-3.658,3.762-7.465,5.638-11.187,1.387-2.752-2.753-5.185-4.145-2.423Z"/><path class="g" d="M51.558,68.629c-1.734-.055-2.975,1.246-3.024,2.812-.056,1.753,1.13,2.998,2.838,3.052,1.774.056,2.971-1.125,3.026-2.867.05-1.577-1.113-2.943-2.84-2.998Z"/><path class="g" d="M33.542,73.516c-1.734-.055-2.975,1.246-3.024,2.812-.056,1.753,1.13,2.998,2.838,3.052,1.774.056,2.971-1.125,3.026-2.867.05-1.577-1.113-2.943-2.84-2.998Z"/><path class="g" d="M69.674,73.516c-1.734-.055-2.975,1.246-3.024,2.812-.056,1.753,1.13,2.998,2.838,3.052,1.774.056,2.971-1.125,3.026-2.867.05-1.577-1.113-2.943-2.84-2.998Z"/><path class="h" d="M333.415,38.911c-1.38,0-2.74.05-4.08.15l-.01-.13c1.4-3.08,2.8-6.17,4.2-9.25,4.13-9.09,8.25-18.18,12.38-27.28h25.24c-6.09,13.42-12.17,26.83-18.26,40.24-5.85-2.4-12.4-3.73-19.47-3.73Z"/><path class="d" d="M333.525,29.681c-1.4,3.08-2.8,6.17-4.2,9.25l.01.13c-5.52.41-10.68,1.65-15.39,3.59-6.09-13.42-12.18-26.84-18.26-40.25h25.24c4.11,9.05,8.21,18.1,12.32,27.15l.28.13Z"/><path class="g" d="M316.637,42.809c-6.296-13.872-12.588-27.746-18.88-41.62l-2.072,3.611h25.24l-2.072-1.189c4.109,9.049,8.211,18.101,12.32,27.15.536,1.18,2.247,1.467,3.284.861,1.213-.71,1.399-2.099.861-3.284-4.109-9.049-8.211-18.101-12.32-27.15C322.658.442,321.703,0,320.925,0h-25.24c-1.961,0-2.801,2.005-2.072,3.611,6.292,13.874,12.584,27.748,18.88,41.62.536,1.18,2.247,1.467,3.284.861,1.213-.71,1.399-2.099.861-3.284h0Z"/><path class="g" d="M331.397,40.141c5.528-12.176,11.052-24.354,16.58-36.53l-2.072,1.189h25.24l-2.072-3.611c-6.347,13.983-12.689,27.968-19.04,41.95-.536,1.179-.338,2.582.861,3.284,1.03.602,2.745.325,3.284-.861,6.351-13.982,12.693-27.967,19.04-41.95.729-1.607-.112-3.611-2.072-3.611h-25.24c-.778,0-1.733.442-2.072,1.189-5.528,12.176-11.052,24.354-16.58,36.53-.535,1.179-.338,2.582.861,3.284,1.03.602,2.745.325,3.284-.861h0Z"/><path class="e" d="M333.412,38.908c-29,0-49.045,22.391-49.045,48.591,0,29.315,20.476,49.503,49.047,49.503,29.672,0,49.047-20.376,49.047-49.503,0-26.379-20.151-48.591-49.049-48.591Z"/><path class="g" d="M333.412,36.508c-11.156.037-22.305,3.315-31.258,10.078-8.477,6.403-14.738,15.31-17.88,25.467-6.237,20.163.022,44.024,16.969,57.033,8.244,6.328,18.411,9.616,28.728,10.217,10.661.621,21.694-1.457,30.992-6.838,8.514-4.927,15.292-12.586,19.213-21.601,4.287-9.859,5.636-20.99,4.031-31.611-1.57-10.395-6.471-20.255-13.847-27.751-7.514-7.636-17.512-12.656-28.087-14.286-2.936-.453-5.89-.697-8.861-.707-3.089-.01-3.093,4.79,0,4.8,10.258.034,20.264,3.046,28.538,9.179,7.573,5.614,13.184,13.794,15.966,22.774,5.566,17.967.573,39.589-14.241,51.573-7.185,5.812-16.486,8.93-25.717,9.604-9.796.716-19.826-.9-28.48-5.68-8.037-4.439-14.336-11.311-18.219-19.635-4.103-8.794-5.472-19.301-3.962-28.875,1.496-9.487,5.788-18.411,12.525-25.286,6.897-7.039,15.933-11.489,25.635-13.059,2.628-.425,5.295-.586,7.955-.595,3.088-.01,3.094-4.81,0-4.8Z"/><path class="g" d="M333.413,49.316c-8.31.037-16.637,2.447-23.325,7.466-6.406,4.807-11.146,11.47-13.543,19.122-4.714,15.047-.111,33.009,12.527,42.783,12.481,9.653,31.439,10.567,45.04,2.68,13.833-8.022,19.756-24.626,17.438-40-2.425-16.081-15.363-29.041-31.433-31.509-2.223-.341-4.454-.533-6.703-.543-3.089-.014-3.093,4.786,0,4.8,7.454.033,14.735,2.204,20.743,6.678,5.471,4.074,9.53,9.989,11.54,16.489,4.046,13.087.404,28.751-10.348,37.463-10.531,8.532-27.368,9.345-39.189,2.879-12.353-6.757-18.322-21.361-16.228-35.109,1.05-6.895,4.151-13.402,9.025-18.41,5.019-5.156,11.587-8.397,18.667-9.558,1.912-.314,3.855-.422,5.79-.43,3.088-.014,3.094-4.814,0-4.8Z"/><path class="g" d="M330.499,77.516c-1.012,2.008-2.024,4.016-3.036,6.024-.953,1.891-1.759,4.117-2.992,5.834l.861-.861,1.251.098c-.241-.214-.482-.429-.722-.645-.36-.324-.718-.649-1.076-.976-.595-.545-1.186-1.094-1.773-1.647-1.394-1.314-2.712-3.018-4.301-4.089-1.343-.905-3.175-.764-4.31.439-1.468,1.557-.708,3.676-.373,5.524.674,3.714,1.348,7.429,2.022,11.143.322,1.777.644,3.553.966,5.33.381,2.102,1.143,3.812,3.506,3.991,1.796.136,3.651,0,5.454,0,1.983,0,3.966,0,5.949,0,3.801,0,7.602,0,11.403,0,1.734,0,3.895.387,5.276-.922,1.33-1.26,1.334-3.784,1.644-5.491.674-3.715,1.347-7.429,2.021-11.144.19-1.05.381-2.099.571-3.149.18-.994.527-2.096.492-3.108-.073-2.091-2.13-3.621-4.161-3.12-.932.23-1.574.917-2.228,1.567-.801.796-1.611,1.584-2.428,2.363-.701.668-1.407,1.33-2.12,1.986-.356.328-.714.654-1.073.979-.239.216-.479.432-.72.647-.714.506-.417.581.89.224l.861.861c-.77-1.073-1.276-2.43-1.87-3.609-.765-1.517-1.529-3.034-2.294-4.551-.704-1.397-1.301-3.274-2.398-4.413-1.62-1.681-4.084-1.025-5.296.714-.741,1.064-.195,2.666.861,3.284,1.195.699,2.541.206,3.284-.861l-.014.096-1.059.617c-.105-.059-.209-.059-.314,0l-1.059-.617c.259.207.796,1.51,1.084,2.083.4.794.8,1.588,1.201,2.382.773,1.534,1.546,3.068,2.319,4.602.741,1.47,1.364,3.4,3.073,3.969,2.346.781,4.008-1.263,5.561-2.684,1.624-1.486,3.529-2.957,4.904-4.676.968-.743.362-1.311-1.818-1.704-.059.323-.117.646-.176.969-.103.565-.205,1.13-.308,1.696-.22,1.211-.44,2.422-.659,3.634-.41,2.261-.82,4.522-1.23,6.783-.205,1.131-.41,2.261-.615,3.392-.218,1.204-.305,2.556-.73,3.702l.617-1.059c.551-.245.516-.325-.108-.238-.248,0-.496,0-.744,0-.578,0-1.157,0-1.735,0-.992,0-1.983,0-2.975,0-2.148,0-4.297,0-6.445,0s-4.297,0-6.445,0c-.992,0-1.983,0-2.975,0-.496,0-.992,0-1.487,0-.331,0-.661,0-.992,0-.623-.086-.659-.007-.108.238l.617,1.059c-.696-1.876-.812-4.154-1.17-6.125-.381-2.1-.762-4.199-1.142-6.299s-.762-4.199-1.143-6.298c-.062-.343-.049-1.158-.264-1.453-2.181.393-2.787.961-1.818,1.704.172.171.344.341.516.51.747.736,1.501,1.465,2.263,2.186,1.496,1.417,3.03,3.184,4.77,4.297,1.918,1.227,3.966.26,4.968-1.577,1.997-3.658,3.762-7.465,5.638-11.187,1.387-2.752-2.753-5.185-4.145-2.423Z"/><path class="g" d="M333.457,68.628c-1.734-.055-2.975,1.246-3.024,2.812-.056,1.753,1.13,2.998,2.838,3.052,1.774.056,2.971-1.125,3.026-2.867.05-1.577-1.113-2.943-2.84-2.998Z"/><path class="g" d="M315.44,73.516c-1.734-.055-2.975,1.246-3.024,2.812-.056,1.753,1.13,2.998,2.838,3.052,1.774.056,2.971-1.125,3.026-2.867.05-1.577-1.113-2.943-2.84-2.998Z"/><path class="g" d="M351.572,73.516c-1.734-.055-2.975,1.246-3.024,2.812-.056,1.753,1.13,2.998,2.838,3.052,1.774.056,2.971-1.125,3.026-2.867.05-1.577-1.113-2.943-2.84-2.998Z"/></g></svg>