<svg id="b" xmlns="http://www.w3.org/2000/svg" width="384.8" height="111.451" viewBox="0 0 384.8 111.451" style="color: initial !important;"><defs><style>.d{fill:#ffffff;}.e{fill:#a98a75;}.f{fill:#ffda71;}.g{fill:#201614;}.h{fill:#cfcfcf;}</style></defs><g id="c"><path class="d" d="M79.953,90.464c.257,0,.395,0,.395,0,.512.005,1.039.007,1.514-.162.649-.231,1.109-.745,1.534-1.24,9.249-10.767,24.35-31.705,13.141-45.22-4.622-5.574-13.665-6.498-19.438-2.744.767,4.605.013,9.428-.789,14.294-1.346,8.166-7.672,22.249-15.588,35.071,7.514,0,17.177,0,19.232,0Z"/><path class="d" d="M22.928,90.464c-.256,0-.394,0-.394,0-.512.005-1.039.007-1.514-.162-.649-.231-1.109-.745-1.534-1.24-9.249-10.767-24.35-31.705-13.141-45.22,4.622-5.574,13.665-6.498,19.438-2.744-.767,4.605-.013,9.428.79,14.294,1.346,8.166,7.672,22.249,15.588,35.071-7.515,0-17.18,0-19.233,0Z"/><path class="d" d="M42.162,90.465c-7.917-12.822-14.243-26.906-15.589-35.072-1.236-7.495-2.358-14.888,2.006-21.543,4.94-7.534,17.472-8.742,22.863-1.031,5.391-7.711,17.922-6.503,22.863,1.031,4.364,6.655,3.241,14.048,2.006,21.543-1.346,8.166-7.673,22.25-15.589,35.072"/><path class="g" d="M26.876,38.95c-4.108-2.533-9.28-3.117-13.92-1.896-4.694,1.235-8.537,4.395-10.755,8.701-4.428,8.594-1.474,18.524,2.699,26.591,2.137,4.131,4.723,8.023,7.518,11.734,1.349,1.792,2.741,3.551,4.179,5.272.641.768,1.263,1.606,2.028,2.253,1.147.972,2.449,1.249,3.92,1.258,4.482.027,8.964,0,13.446,0h43.141c.404,0,.809.003,1.213,0,1.361-.011,2.568-.22,3.669-1.071.915-.707,1.627-1.669,2.364-2.553,2.943-3.531,5.735-7.207,8.22-11.076,4.944-7.697,9.416-17.014,8.037-26.405-.655-4.46-2.979-8.868-6.556-11.662-3.87-3.023-8.891-4.128-13.712-3.434-2.25.324-4.423,1.092-6.361,2.287-2.625,1.618-.217,5.772,2.423,4.145,3.349-2.065,7.475-2.351,11.181-1.128,3.634,1.2,6.365,4.214,7.608,7.786,2.68,7.705-1.028,16.263-4.916,22.968-2.103,3.626-4.504,7.09-7.096,10.384-1.176,1.494-2.365,2.996-3.637,4.409-.576.64-.405.543-1.256.55-.153.001-.307,0-.46,0-4.819,0-9.637,0-14.456,0H25.108c-.705,0-1.409,0-2.114,0-.138,0-.277,0-.415,0-.882-.005-.78.002-1.396-.699-2.585-2.941-4.987-6.068-7.205-9.293-4.615-6.711-9.334-14.8-9.207-23.21.054-3.587,1.274-7.26,3.829-9.949,2.704-2.847,6.772-3.988,10.617-3.609,1.867.184,3.644.81,5.235,1.791,2.637,1.626,5.05-2.524,2.423-4.145h0Z"/><rect class="f" x="21.523" y="97.548" width="59.836" height="11.413" rx="2" ry="2"/><path class="g" d="M23.523,111.361c8.766,0,17.532,0,26.299,0,9.757,0,19.538.204,29.293,0,1.148-.024,2.241-.313,3.123-1.089,1.352-1.189,1.522-2.757,1.522-4.423v-4.595c0-1.428.099-2.826-.714-4.099-1.169-1.831-3.07-2.008-4.983-2.008h-5.129c-12.225,0-24.449,0-36.674,0h-11.955c-.255,0-.513-.012-.768,0-2.491.116-4.287,1.928-4.413,4.411-.122,2.386-.079,4.849,0,7.237.086,2.6,1.827,4.358,4.4,4.565,1.294.104,2.4-1.178,2.4-2.4,0-1.385-1.103-2.295-2.4-2.4.453.037.318.62.4.146.089-.52,0-1.141,0-1.668v-4.379c0-.162.113-.945,0-1.07.036.04-.273.505-.376.357.043.062.657,0,.726,0h10.937c11.746,0,23.492,0,35.238,0h7.813c.243,0,.754.101.981,0,.021-.009.102.017.118,0-.361.393-.3-.944-.4-.04-.142,1.287,0,2.668,0,3.961v1.979c0,.114-.104,1.021,0,1.101-.421-.329.865-.277.117-.389-1.052-.159-2.254,0-3.315,0h-6.177c-5.84,0-11.68,0-17.52,0h-28.541c-3.089,0-3.094,4.8,0,4.8Z"/><path class="g" d="M44.235,89.254c-3.524-5.726-6.75-11.643-9.564-17.75-2.202-4.781-4.244-9.744-5.415-14.891-1.201-5.276-2.169-11.394-.771-16.708,1.225-4.655,4.275-8.211,8.897-9.461,4.206-1.137,9.255-.215,11.988,3.586,1.103,1.534,3.042,1.534,4.145,0,2.374-3.303,6.666-4.474,10.376-3.932,4.573.668,8.163,3.522,9.874,7.841,2.166,5.468,1.174,11.717.141,17.329-.898,4.877-2.758,9.615-4.747,14.136-3.018,6.857-6.585,13.473-10.51,19.851-1.624,2.638,2.527,5.052,4.145,2.423,3.853-6.26,7.359-12.751,10.343-19.472,2.295-5.17,4.532-10.566,5.488-16.173,1.177-6.901,2.164-14.113-.793-20.719-2.304-5.146-6.922-8.867-12.517-9.819-6.14-1.045-12.248.971-15.945,6.114h4.145c-6.647-9.248-21.345-8.061-27.248,1.409-3.882,6.228-3.475,13.519-2.414,20.474.878,5.754,2.659,11.112,4.924,16.467,3.183,7.525,7.034,14.764,11.315,21.719,1.616,2.626,5.77.218,4.145-2.423h0Z"/><path class="g" d="M49.041,2.318v18.688c0,3.089,4.8,3.094,4.8,0V2.318c0-3.089-4.8-3.094-4.8,0h0Z"/><path class="g" d="M40.941,14.062c7,0,14,0,21,0,3.089,0,3.094-4.8,0-4.8-7,0-14,0-21,0-3.089,0-3.094,4.8,0,4.8h0Z"/><path class="d" d="M220.914,90.464c.257,0,.395,0,.395,0,.512.005,1.039.007,1.514-.162.649-.231,1.109-.745,1.534-1.24,9.249-10.767,24.35-31.705,13.141-45.22-4.622-5.574-13.665-6.498-19.438-2.744.767,4.605.013,9.428-.789,14.294-1.346,8.166-7.672,22.249-15.588,35.071,7.514,0,17.177,0,19.232,0Z"/><path class="d" d="M163.889,90.464c-.256,0-.394,0-.394,0-.512.005-1.039.007-1.514-.162-.649-.231-1.109-.745-1.534-1.24-9.249-10.767-24.35-31.705-13.141-45.22,4.622-5.574,13.665-6.498,19.438-2.744-.767,4.605-.013,9.428.79,14.294,1.346,8.166,7.672,22.249,15.588,35.071-7.515,0-17.18,0-19.233,0Z"/><path class="d" d="M183.123,90.465c-7.917-12.822-14.243-26.906-15.589-35.072-1.236-7.495-2.358-14.888,2.006-21.543,4.94-7.534,17.472-8.742,22.863-1.031,5.391-7.711,17.922-6.503,22.863,1.031,4.364,6.655,3.241,14.048,2.006,21.543-1.346,8.166-7.673,22.25-15.589,35.072"/><path class="g" d="M167.837,38.95c-4.108-2.533-9.28-3.117-13.92-1.896-4.694,1.235-8.537,4.395-10.755,8.701-4.428,8.594-1.474,18.524,2.699,26.591,2.137,4.131,4.723,8.023,7.518,11.734,1.349,1.792,2.741,3.551,4.179,5.272.641.768,1.263,1.606,2.028,2.253,1.147.972,2.449,1.249,3.92,1.258,4.482.027,8.964,0,13.446,0h43.141c.404,0,.809.003,1.213,0,1.361-.011,2.568-.22,3.669-1.071.915-.707,1.627-1.669,2.364-2.553,2.943-3.531,5.735-7.207,8.22-11.076,4.944-7.697,9.416-17.014,8.037-26.405-.655-4.46-2.979-8.868-6.556-11.662-3.87-3.023-8.891-4.128-13.712-3.434-2.25.324-4.423,1.092-6.361,2.287-2.625,1.618-.217,5.772,2.423,4.145,3.349-2.065,7.475-2.351,11.181-1.128,3.634,1.2,6.365,4.214,7.608,7.786,2.68,7.705-1.028,16.263-4.916,22.968-2.103,3.626-4.504,7.09-7.096,10.384-1.176,1.494-2.365,2.996-3.637,4.409-.576.64-.405.543-1.256.55-.153.001-.307,0-.46,0-4.819,0-9.637,0-14.456,0h-40.289c-.705,0-1.409,0-2.114,0-.138,0-.277,0-.415,0-.882-.005-.78.002-1.396-.699-2.585-2.941-4.987-6.068-7.205-9.293-4.615-6.711-9.334-14.8-9.207-23.21.054-3.587,1.274-7.26,3.829-9.949,2.704-2.847,6.772-3.988,10.617-3.609,1.867.184,3.644.81,5.235,1.791,2.637,1.626,5.05-2.524,2.423-4.145h0Z"/><rect class="h" x="162.484" y="97.548" width="59.836" height="11.413" rx="2" ry="2"/><path class="g" d="M164.484,111.361c8.766,0,17.532,0,26.299,0,9.757,0,19.538.204,29.293,0,1.148-.024,2.241-.313,3.123-1.089,1.352-1.189,1.522-2.757,1.522-4.423v-4.595c0-1.428.099-2.826-.714-4.099-1.169-1.831-3.07-2.008-4.983-2.008h-5.129c-12.225,0-24.449,0-36.674,0h-11.955c-.255,0-.513-.012-.768,0-2.491.116-4.287,1.928-4.413,4.411-.122,2.386-.079,4.849,0,7.237.086,2.6,1.827,4.358,4.4,4.565,1.294.104,2.4-1.178,2.4-2.4,0-1.385-1.103-2.295-2.4-2.4.453.037.318.62.4.146.089-.52,0-1.141,0-1.668v-4.379c0-.162.113-.945,0-1.07.036.04-.273.505-.376.357.043.062.657,0,.726,0h10.937c11.746,0,23.492,0,35.238,0h7.813c.243,0,.754.101.981,0,.021-.009.102.017.118,0-.361.393-.3-.944-.4-.04-.142,1.287,0,2.668,0,3.961v1.979c0,.114-.104,1.021,0,1.101-.421-.329.865-.277.117-.389-1.052-.159-2.254,0-3.315,0h-6.177c-5.84,0-11.68,0-17.52,0h-28.541c-3.089,0-3.094,4.8,0,4.8Z"/><path class="g" d="M185.196,89.254c-3.524-5.726-6.75-11.643-9.564-17.75-2.202-4.781-4.244-9.744-5.415-14.891-1.201-5.276-2.169-11.394-.771-16.708,1.225-4.655,4.275-8.211,8.897-9.461,4.206-1.137,9.255-.215,11.988,3.586,1.103,1.534,3.042,1.534,4.145,0,2.374-3.303,6.666-4.474,10.376-3.932,4.573.668,8.163,3.522,9.874,7.841,2.166,5.468,1.174,11.717.141,17.329-.898,4.877-2.758,9.615-4.747,14.136-3.018,6.857-6.585,13.473-10.51,19.851-1.624,2.638,2.527,5.052,4.145,2.423,3.853-6.26,7.359-12.751,10.343-19.472,2.295-5.17,4.532-10.566,5.488-16.173,1.177-6.901,2.164-14.113-.793-20.719-2.304-5.146-6.922-8.867-12.517-9.819-6.14-1.045-12.248.971-15.945,6.114h4.145c-6.647-9.248-21.345-8.061-27.248,1.409-3.882,6.228-3.475,13.519-2.414,20.474.878,5.754,2.659,11.112,4.924,16.467,3.183,7.525,7.034,14.764,11.315,21.719,1.616,2.626,5.77.218,4.145-2.423h0Z"/><path class="g" d="M190.002,2.318c0,6.229,0,12.459,0,18.688,0,3.089,4.8,3.094,4.8,0,0-6.229,0-12.459,0-18.688,0-3.089-4.8-3.094-4.8,0h0Z"/><path class="g" d="M181.902,14.062c7,0,14,0,21,0,3.089,0,3.094-4.8,0-4.8-7,0-14,0-21,0-3.089,0-3.094,4.8,0,4.8h0Z"/><path class="d" d="M361.864,90.464c.257,0,.395,0,.395,0,.512.005,1.039.007,1.514-.162.649-.231,1.109-.745,1.534-1.24,9.249-10.767,24.35-31.705,13.141-45.22-4.622-5.574-13.665-6.498-19.438-2.744.767,4.605.013,9.428-.789,14.294-1.346,8.166-7.672,22.249-15.588,35.071,7.514,0,17.177,0,19.232,0Z"/><path class="d" d="M304.839,90.464c-.256,0-.394,0-.394,0-.512.005-1.039.007-1.514-.162-.649-.231-1.109-.745-1.534-1.24-9.249-10.767-24.35-31.705-13.141-45.22,4.622-5.574,13.665-6.498,19.438-2.744-.767,4.605-.013,9.428.79,14.294,1.346,8.166,7.672,22.249,15.588,35.071-7.515,0-17.18,0-19.233,0Z"/><path class="d" d="M324.073,90.465c-7.917-12.822-14.243-26.906-15.589-35.072-1.236-7.495-2.358-14.888,2.006-21.543,4.94-7.534,17.472-8.742,22.863-1.031,5.391-7.711,17.922-6.503,22.863,1.031,4.364,6.655,3.241,14.048,2.006,21.543-1.346,8.166-7.673,22.25-15.589,35.072"/><path class="g" d="M308.786,38.95c-4.108-2.533-9.28-3.117-13.92-1.896-4.694,1.235-8.537,4.395-10.755,8.701-4.428,8.594-1.474,18.524,2.699,26.591,2.137,4.131,4.723,8.023,7.518,11.734,1.349,1.792,2.741,3.551,4.179,5.272.641.768,1.263,1.606,2.028,2.253,1.147.972,2.449,1.249,3.92,1.258,4.482.027,8.964,0,13.446,0h43.141c.404,0,.809.003,1.213,0,1.361-.011,2.568-.22,3.669-1.071.915-.707,1.627-1.669,2.364-2.553,2.943-3.531,5.735-7.207,8.22-11.076,4.944-7.697,9.416-17.014,8.037-26.405-.655-4.46-2.979-8.868-6.556-11.662-3.87-3.023-8.891-4.128-13.712-3.434-2.25.324-4.423,1.092-6.361,2.287-2.625,1.618-.217,5.772,2.423,4.145,3.349-2.065,7.475-2.351,11.181-1.128,3.634,1.2,6.365,4.214,7.608,7.786,2.68,7.705-1.028,16.263-4.916,22.968-2.103,3.626-4.504,7.09-7.096,10.384-1.176,1.494-2.365,2.996-3.637,4.409-.576.64-.405.543-1.256.55-.153.001-.307,0-.46,0-4.819,0-9.637,0-14.456,0h-40.289c-.705,0-1.409,0-2.114,0-.138,0-.277,0-.415,0-.882-.005-.78.002-1.396-.699-2.585-2.941-4.987-6.068-7.205-9.293-4.615-6.711-9.334-14.8-9.207-23.21.054-3.587,1.274-7.26,3.829-9.949,2.704-2.847,6.772-3.988,10.617-3.609,1.867.184,3.644.81,5.235,1.791,2.637,1.626,5.05-2.524,2.423-4.145h0Z"/><rect class="e" x="303.434" y="97.548" width="59.836" height="11.413" rx="2" ry="2"/><path class="g" d="M305.434,111.361c8.766,0,17.532,0,26.299,0,9.757,0,19.538.204,29.293,0,1.148-.024,2.241-.313,3.123-1.089,1.352-1.189,1.522-2.757,1.522-4.423v-4.595c0-1.428.099-2.826-.714-4.099-1.169-1.831-3.07-2.008-4.983-2.008h-5.129c-12.225,0-24.449,0-36.674,0h-11.955c-.255,0-.513-.012-.768,0-2.491.116-4.287,1.928-4.413,4.411-.122,2.386-.079,4.849,0,7.237.086,2.6,1.827,4.358,4.4,4.565,1.294.104,2.4-1.178,2.4-2.4,0-1.385-1.103-2.295-2.4-2.4.453.037.318.62.4.146.089-.52,0-1.141,0-1.668v-4.379c0-.162.113-.945,0-1.07.036.04-.273.505-.376.357.043.062.657,0,.726,0h10.937c11.746,0,23.492,0,35.238,0h7.813c.243,0,.754.101.981,0,.021-.009.102.017.118,0-.361.393-.3-.944-.4-.04-.142,1.287,0,2.668,0,3.961v1.979c0,.114-.104,1.021,0,1.101-.421-.329.865-.277.117-.389-1.052-.159-2.254,0-3.315,0h-6.177c-5.84,0-11.68,0-17.52,0h-28.541c-3.089,0-3.094,4.8,0,4.8Z"/><path class="g" d="M326.145,89.254c-3.524-5.726-6.75-11.643-9.564-17.75-2.202-4.781-4.244-9.744-5.415-14.891-1.201-5.276-2.169-11.394-.771-16.708,1.225-4.655,4.275-8.211,8.897-9.461,4.206-1.137,9.255-.215,11.988,3.586,1.103,1.534,3.042,1.534,4.145,0,2.374-3.303,6.666-4.474,10.376-3.932,4.573.668,8.163,3.522,9.874,7.841,2.166,5.468,1.174,11.717.141,17.329-.898,4.877-2.758,9.615-4.747,14.136-3.018,6.857-6.585,13.473-10.51,19.851-1.624,2.638,2.527,5.052,4.145,2.423,3.853-6.26,7.359-12.751,10.343-19.472,2.295-5.17,4.532-10.566,5.488-16.173,1.177-6.901,2.164-14.113-.793-20.719-2.304-5.146-6.922-8.867-12.517-9.819-6.14-1.045-12.248.971-15.945,6.114h4.145c-6.647-9.248-21.345-8.061-27.248,1.409-3.882,6.228-3.475,13.519-2.414,20.474.878,5.754,2.659,11.112,4.924,16.467,3.183,7.525,7.034,14.764,11.315,21.719,1.616,2.626,5.77.218,4.145-2.423h0Z"/><path class="g" d="M330.952,2.318c0,6.229,0,12.459,0,18.688,0,3.089,4.8,3.094,4.8,0,0-6.229,0-12.459,0-18.688,0-3.089-4.8-3.094-4.8,0h0Z"/><path class="g" d="M322.852,14.062c7,0,14,0,21,0,3.089,0,3.094-4.8,0-4.8-7,0-14,0-21,0-3.089,0-3.094,4.8,0,4.8h0Z"/></g></svg>