<svg id="b" xmlns="http://www.w3.org/2000/svg" width="204.749" height="235.753" viewBox="0 0 204.749 235.753" style="color: initial !important;"><defs><style>.d{fill:#ffffff;}.e{fill:#211715;}.f{fill:#645d5c;}.g{fill:#febe69;}</style></defs><g id="c"><path class="e" d="M115.187,90.898c0-6.857-3.614-13.008-9.54-16.498,2.873,1.302,6.184,1.998,9.798,1.998,3.468,0,6.599-.606,9.338-1.717-5.657,3.547-9.08,9.574-9.08,16.218h-.516Z"/><path class="e" d="M62.987,74.399c2.873,1.302,6.184,1.998,9.798,1.998,3.378,0,6.442-.572,9.113-1.627-5.556,3.558-8.923,9.551-8.923,16.128h-.449c0-6.846-3.625-13.008-9.54-16.498Z"/><path class="e" d="M94.334,56.498c0,7.407,3.49,13.367,9.136,16.768-2.772-1.223-5.937-1.908-9.394-1.908-3.176,0-6.094.584-8.687,1.627,5.365-3.457,8.496-9.315,8.496-16.487h.449Z"/><path class="e" d="M93.885,56.498c0-7.295-4.097-13.793-10.696-17.149l.022-.034c3.12,1.627,6.813,2.525,10.898,2.525,3.838,0,7.284-.741,10.213-2.11-6.195,3.468-9.989,9.776-9.989,16.768h-.449Z"/><path class="d" d="M51.414,71.358c-12.482,0-21.109,9.003-21.109,19.538,0,11.787,8.813,19.905,21.11,19.905,12.771,0,21.11-8.193,21.11-19.905,0-10.607-8.673-19.538-21.111-19.538Z"/><path class="d" d="M94.081,71.358c-12.482,0-21.109,9.003-21.109,19.538,0,11.787,8.813,19.905,21.11,19.905,12.771,0,21.11-8.193,21.11-19.905,0-10.607-8.673-19.538-21.111-19.538Z"/><path class="d" d="M136.812,71.358c-12.482,0-21.109,9.003-21.109,19.538,0,11.787,8.813,19.905,21.11,19.905,12.771,0,21.11-8.193,21.11-19.905,0-10.607-8.673-19.538-21.111-19.538Z"/><path class="e" d="M51.414,68.958c-9.857.072-19.135,5.609-22.407,15.165-3.05,8.906.221,19.123,7.76,24.654s18.936,5.846,27.098,1.492c8.332-4.445,12.238-14.036,10.714-23.165-.83-4.971-3.632-9.63-7.546-12.786-4.444-3.584-9.936-5.317-15.619-5.359-3.089-.022-3.093,4.778,0,4.8,7.682.056,15.301,4.199,17.824,11.759,2.255,6.755.191,14.906-5.501,19.166-6.027,4.51-15.326,4.986-21.958,1.552-6.485-3.358-10.051-10.606-8.901-17.839,1.44-9.059,9.708-14.574,18.536-14.639,3.087-.023,3.094-4.823,0-4.8Z"/><path class="e" d="M94.081,68.958c-9.857.072-19.135,5.609-22.407,15.165-3.05,8.906.221,19.123,7.76,24.654s18.936,5.846,27.098,1.492c8.332-4.445,12.238-14.036,10.714-23.165-.83-4.971-3.632-9.63-7.546-12.786-4.444-3.584-9.936-5.317-15.619-5.359-3.089-.022-3.093,4.778,0,4.8,7.682.056,15.301,4.199,17.824,11.759,2.255,6.755.191,14.906-5.501,19.166-6.027,4.51-15.326,4.986-21.958,1.552-6.485-3.358-10.051-10.606-8.901-17.839,1.44-9.059,9.708-14.574,18.536-14.639,3.087-.023,3.094-4.823,0-4.8Z"/><path class="e" d="M136.812,68.958c-9.857.072-19.135,5.609-22.407,15.165-3.05,8.906.221,19.123,7.76,24.654s18.936,5.846,27.098,1.492c8.332-4.445,12.238-14.036,10.714-23.165-.83-4.971-3.632-9.63-7.546-12.786-4.444-3.584-9.936-5.317-15.619-5.359-3.089-.022-3.093,4.778,0,4.8,7.682.056,15.301,4.199,17.824,11.759,2.255,6.755.191,14.906-5.501,19.166-6.027,4.51-15.326,4.986-21.958,1.552-6.485-3.358-10.051-10.606-8.901-17.839,1.44-9.059,9.708-14.574,18.536-14.639,3.087-.023,3.094-4.823,0-4.8Z"/><path class="d" d="M72.78,36.954c-12.482,0-21.109,9.003-21.109,19.538,0,11.787,8.813,19.905,21.11,19.905,12.771,0,21.11-8.193,21.11-19.905,0-10.607-8.673-19.538-21.111-19.538Z"/><path class="d" d="M115.447,36.954c-12.482,0-21.109,9.003-21.109,19.538,0,11.787,8.813,19.905,21.11,19.905,12.771,0,21.11-8.193,21.11-19.905,0-10.607-8.673-19.538-21.111-19.538Z"/><path class="e" d="M72.78,34.554c-9.857.072-19.135,5.609-22.407,15.165-3.05,8.906.221,19.123,7.76,24.654s18.936,5.846,27.098,1.492c8.332-4.445,12.238-14.036,10.714-23.165-.83-4.971-3.632-9.63-7.546-12.786-4.444-3.584-9.936-5.317-15.619-5.359-3.089-.022-3.093,4.778,0,4.8,7.682.056,15.301,4.199,17.824,11.759,2.255,6.755.191,14.906-5.501,19.166-6.027,4.51-15.326,4.986-21.958,1.552-6.485-3.358-10.051-10.606-8.901-17.839,1.44-9.059,9.708-14.574,18.536-14.639,3.087-.023,3.094-4.823,0-4.8Z"/><path class="e" d="M115.447,34.554c-9.857.072-19.135,5.609-22.407,15.165-3.05,8.906.221,19.123,7.76,24.654s18.936,5.846,27.098,1.492c8.332-4.445,12.238-14.036,10.714-23.165-.83-4.971-3.632-9.63-7.546-12.786-4.444-3.584-9.936-5.317-15.619-5.359-3.089-.022-3.093,4.778,0,4.8,7.682.056,15.301,4.199,17.824,11.759,2.255,6.755.191,14.906-5.501,19.166-6.027,4.51-15.326,4.986-21.958,1.552-6.485-3.358-10.051-10.606-8.901-17.839,1.44-9.059,9.708-14.574,18.536-14.639,3.087-.023,3.094-4.823,0-4.8Z"/><path class="d" d="M94.113,2.4c-12.482,0-21.109,9.003-21.109,19.538,0,11.787,8.813,19.905,21.11,19.905,12.771,0,21.11-8.193,21.11-19.905,0-10.607-8.673-19.538-21.111-19.538Z"/><path class="e" d="M94.113,0c-9.857.072-19.135,5.609-22.407,15.165-3.05,8.906.221,19.123,7.76,24.654,7.555,5.542,18.936,5.846,27.098,1.492,8.332-4.445,12.238-14.036,10.714-23.165-.83-4.971-3.632-9.63-7.546-12.786C105.288,1.775,99.796.041,94.113,0c-3.089-.022-3.093,4.778,0,4.8,7.682.056,15.301,4.199,17.824,11.759,2.255,6.755.191,14.906-5.501,19.166-6.027,4.51-15.326,4.986-21.958,1.552-6.485-3.358-10.051-10.606-8.901-17.839,1.44-9.059,9.708-14.574,18.536-14.639,3.087-.023,3.094-4.823,0-4.8Z"/><path class="e" d="M165.922,89.067c4.661-.673,9.319-1.367,13.974-2.085,1.123-.173,2.247-.348,3.37-.524.231-.036.724-.05.963-.151l.241-.038c.839-.062.509-.558-.988-1.488-.12.166-.15.581-.206.778-.319,1.131-.711,2.242-1.123,3.342-2.097,5.601-4.748,11.02-7.427,16.373-1.103,2.203-2.222,4.401-3.403,6.563-1.482,2.712,2.661,5.137,4.145,2.423,2.833-5.185,5.431-10.519,7.871-15.899,1.384-3.052,2.735-6.137,3.85-9.3.435-1.235,1.043-2.666,1.067-3.992.023-1.273-.612-2.481-1.718-3.136-1.293-.765-2.671-.397-4.064-.178-5.936.933-11.878,1.826-17.825,2.685-1.284.185-1.989,1.815-1.676,2.952.379,1.379,1.664,1.862,2.952,1.676h0Z"/><path class="e" d="M23.582,84.439c-5.304-.765-10.604-1.559-15.9-2.384-2.37-.369-5.628-1.515-7.19,1.046-.95,1.557-.323,3.325.193,4.912,2.089,6.421,5.151,12.584,8.145,18.622,1.27,2.561,2.561,5.115,3.932,7.624,1.482,2.712,5.628.292,4.145-2.423-2.467-4.515-4.737-9.148-6.91-13.81-1.245-2.671-2.451-5.349-3.522-8.087-.456-1.166-.892-2.342-1.268-3.536-.129-.411-.178-1.081-.413-1.435l-.047-.188-1.229,1.451c.014.039,1.018.16.963.152.642.101,1.284.201,1.925.301,5.295.825,10.595,1.618,15.9,2.384,1.281.185,2.579-.316,2.952-1.676.31-1.127-.385-2.766-1.676-2.952h0Z"/><path class="g" d="M171.247,161.772c-.008,28.933-.005,64.608-.005,71.563-17.728,0-125.623-.1-154.33-.1,0-19.296.021-66.962-.008-93.889-7.059.003-14.174.003-14.174.003,0,0,.001-31.687.001-36.109,3.244.004,177.554.041,182.744.041,0,7.917.023,31.285.023,36.068l-14.237-.008c-.006,4.901-.01,11.661-.013,22.432Z"/><path class="f" d="M94.113,167.509c-11.047,0-18.683,8.556-18.683,18.568,0,11.202,7.8,18.916,18.684,18.916,11.303,0,18.684-7.786,18.684-18.916,0-10.08-7.676-18.568-18.684-18.568Z"/><path class="e" d="M94.113,165.109c-9.171.079-17.328,5.722-20.115,14.554-2.632,8.343.039,18.184,7.049,23.537,6.784,5.181,17.078,5.6,24.403,1.285,7.518-4.428,10.727-13.464,9.459-21.854-.708-4.679-3.089-9.165-6.659-12.291-3.936-3.446-8.927-5.187-14.138-5.231-3.089-.026-3.092,4.773,0,4.8,7.052.06,13.427,4.297,15.531,11.158,1.943,6.337.232,13.927-4.934,18.131-4.995,4.065-13.155,4.526-18.844,1.431-5.959-3.242-8.818-10.202-7.897-16.866,1.125-8.142,8.047-13.784,16.144-13.853,3.087-.027,3.095-4.827,0-4.8Z"/><path class="e" d="M41.311,143.081c3.43,0,6.861-.001,10.291-.002,8.097-.001,16.194-.003,24.291-.005,9.926-.002,19.851-.004,29.777-.006,8.78-.002,17.559-.004,26.339-.007,4.794-.001,9.589-.001,14.383-.006.175,0,.349,0,.524,0,3.088-.005,3.094-4.805,0-4.8-4.1.007-8.2.005-12.3.006-8.442.003-16.884.005-25.327.007-9.946.002-19.892.004-29.838.006-8.475.002-16.949.003-25.424.005-4.156,0-8.34-.138-12.495.002-.074.003-.148,0-.222,0-3.089,0-3.094,4.8,0,4.8h0Z"/><path class="e" d="M168.847,161.772c-.004,15.338-.005,30.677-.006,46.015,0,5.855,0,11.71,0,17.565,0,1.855.223,3.87-.005,5.709.031-.25.285-.036-.113-.128-.273-.063-.651,0-.933,0-.62,0-1.239,0-1.859,0-7.585-.003-15.171-.009-22.756-.014-10.69-.008-21.379-.016-32.069-.024-11.726-.009-23.452-.018-35.179-.027-10.841-.008-21.682-.016-32.522-.022-4.475-.003-8.949-.005-13.424-.007-1.877,0-3.755-.002-5.632-.002-.856,0-1.712,0-2.568,0-.713,0-1.658-.166-2.35,0-.403.096-.15-.093-.122.121-.073-.573,0-1.214,0-1.792,0-1.167,0-2.333,0-3.5,0-2.752,0-5.504.001-8.256.001-6.435.003-12.87.004-19.305.002-14.009.003-28.018-.002-42.026-.001-3.191-.003-6.381-.005-9.572-.002-3.091.76-7.292-2.516-9.02-1.854-.978-4.442-.538-6.467-.538-1.699,0-3.632.257-5.313,0,.214.033.026.3.117-.146.095-.466,0-1.064,0-1.542,0-1.151,0-2.302,0-3.453,0-6.046,0-12.092,0-18.138,0-2.515,0-5.031,0-7.546,0-.198-.018-.405,0-.602.009-.103-.084.131-.149.143.135-.027.315-.031.47-.025.376.016.756,0,1.132,0,5.21.002,10.42.003,15.63.004,8.095.002,16.191.004,24.286.006,9.868.002,19.736.004,29.605.007,10.514.002,21.027.005,31.541.007,10.031.002,20.063.004,30.094.006,8.422.002,16.844.004,25.266.005,5.685.001,11.37.002,17.055.003.868,0,1.736,0,2.604,0,.164,0,.329,0,.493,0,.178,0-.086-.014-.122-.154.034.134.04.369.04.539,0,1.298.001,2.596.002,3.893.004,6.463.009,12.926.014,19.389.002,2.56.136,5.16.005,7.717-.003.05.209-.114.094-.116-.195-.004-.391,0-.586,0h-2.54c-1.992-.003-3.984-.004-5.976-.005-3.114-.002-5.229,2.038-5.232,5.189-.006,6.547-.008,13.095-.01,19.642,0,3.089,4.799,3.094,4.8,0,.001-3.98.002-7.96.005-11.94,0-1.508.002-3.017.003-4.525,0-1.175-.198-2.557.015-3.707-.016.088-.266.143-.073.141.229-.003.458,0,.686,0l2.758.002c1.946.001,3.896.033,5.842.003,1.213-.018,2.324-.289,3.282-1.074,1.507-1.236,1.732-2.894,1.731-4.721-.002-2.76-.004-5.52-.006-8.28-.005-6.56-.011-13.12-.014-19.68,0-1.526.198-3.214-.541-4.609-.861-1.625-2.498-2.45-4.288-2.503-.838-.025-1.68,0-2.518,0-2.407,0-4.815,0-7.222-.001-7.297-.001-14.594-.003-21.892-.004-9.58-.002-19.16-.004-28.74-.006-10.658-.002-21.315-.005-31.973-.007-10.53-.002-21.06-.005-31.589-.007-9.161-.002-18.321-.004-27.482-.006-6.672-.002-13.343-.003-20.015-.005-2.016,0-4.031-.001-6.047-.002-1.127,0-2.173.157-3.141.79-1.669,1.092-2.097,2.835-2.097,4.705,0,2.551,0,5.101,0,7.652,0,6.172,0,12.345,0,18.517,0,2.495-.562,5.78,1.263,7.761,1.409,1.53,3.324,1.483,5.234,1.483,2.026,0,4.052,0,6.078-.001.535,0,1.2-.124,1.715,0,.124.03-.133-.072-.155-.152.134.49.043,1.18.043,1.724.001,1.555.002,3.11.003,4.665.002,3.236.004,6.472.005,9.707.003,7.165.003,14.331.003,21.496,0,13.569-.003,27.137-.006,40.706,0,2.672,0,5.344-.001,8.016,0,1.301-.164,2.746.11,4.023.437,2.033,2.184,3.502,4.236,3.679,3.547.306,7.239.027,10.799.028,9.869.004,19.737.011,29.606.018,11.803.008,23.606.017,35.409.026,11.637.009,23.274.018,34.91.027,9.337.007,18.674.014,28.012.02,3.201.002,6.402.004,9.603.005.586,0,1.178.026,1.763,0,2.13-.091,3.998-1.438,4.536-3.546.261-1.023.146-2.179.146-3.228,0-1.038,0-2.076,0-3.114,0-13.583,0-27.165.001-40.748,0-7.775.002-15.55.004-23.325,0-3.089-4.799-3.094-4.8,0Z"/><path class="d" d="M94.114,98.506h-58.357c-1.04,0-1.539,1.277-.774,1.982l58.357,53.785c.437.403,1.111.403,1.548,0l58.357-53.785c.765-.705.266-1.982-.774-1.982h-58.357Z"/><path class="e" d="M94.114,96.106c-9.02,0-18.04,0-27.06,0-10.281,0-20.572-.142-30.852,0-.567.008-1.075.033-1.636.224-2.504.853-3.027,4.054-1.261,5.873.473.487,1.006.927,1.504,1.386l9.117,8.403c9.628,8.874,19.257,17.748,28.885,26.622,6.217,5.73,12.312,11.638,18.672,17.209,1.672,1.464,3.648,1.425,5.294-.031.742-.656,1.458-1.344,2.186-2.015l9.904-9.128c9.707-8.946,19.414-17.893,29.121-26.839,3.964-3.653,7.928-7.307,11.892-10.96,1.675-1.544,3.47-3.021,5.054-4.658,1.982-2.048.97-5.469-1.85-6.006-.39-.074-.724-.074-1.109-.079-1.393-.021-2.788,0-4.181,0-5.577,0-11.155,0-16.732,0-11.599,0-23.199,0-34.798,0h-2.152c-3.089,0-3.094,4.8,0,4.8,8.606,0,17.212,0,25.818,0h31.556c.278,0,.641.061.914,0,.8-.18-.209-2.488-.963-2.014-.686.431-1.299,1.197-1.892,1.744l-9.153,8.436c-9.399,8.663-18.799,17.326-28.198,25.989l-12.263,11.302-4.163,3.837c-.742.684-1.618,1.336-2.279,2.101-.055.064-.19.128-.223.206-.267.624,1.702-.412,1.769.069-.012-.087-.289-.256-.344-.317-.7-.784-1.584-1.46-2.356-2.172l-9.888-9.113c-9.464-8.722-18.928-17.445-28.391-26.167l-11.701-10.784-3.816-3.517c-.484-.446-1.153-1.363-1.767-1.629-.031-.013-.058-.077-.091-.084.509.111-1.522,1.852-.822,2.114.262.098.753,0,1.028,0h4.75c5.662,0,11.323,0,16.985,0,11.164,0,22.328,0,33.492,0h2.001c3.089,0,3.094-4.8,0-4.8Z"/><path class="g" d="M151.123,59.802c1.44-4.053,3.65-7.879,5.652-11.677,1.925-3.652,3.924-7.266,6.058-10.801,4.184-6.929,8.897-13.565,14.616-19.319,3.233-3.253,6.755-6.175,10.606-8.668,2.584-1.673.181-5.83-2.423-4.145-14.573,9.433-24.31,24.206-32.338,39.256-2.437,4.569-5.064,9.188-6.801,14.077-.434,1.221.491,2.627,1.676,2.952,1.328.365,2.517-.45,2.952-1.676h0Z"/><path class="g" d="M169.19,28.361c4.745-2.276,10.144-3.874,15.291-4.511,1.286-.159,2.4-.989,2.4-2.4,0-1.173-1.105-2.56-2.4-2.4-6.18.765-12.095,2.471-17.714,5.166-1.169.561-1.477,2.23-.861,3.284.699,1.195,2.111,1.424,3.284.861h0Z"/><path class="g" d="M162.925,38.98c4.371-2.443,9.208-3.557,14.246-3.331,1.256.056,2.456-1.144,2.4-2.4-.06-1.348-1.055-2.34-2.4-2.4-5.799-.259-11.606,1.158-16.669,3.987-1.131.632-1.506,2.181-.861,3.284.666,1.139,2.148,1.495,3.284.861h0Z"/><path class="g" d="M160.301,71.15c2.947-3.205,6.544-5.908,9.938-8.623,3.233-2.586,6.561-5.058,10.031-7.318,6.966-4.536,14.496-8.109,22.727-9.569,1.277-.227,1.997-1.786,1.676-2.952-.37-1.347-1.671-1.903-2.952-1.676-8.591,1.524-16.603,5.318-23.874,10.053-3.694,2.405-7.221,5.057-10.668,7.801-3.508,2.793-7.232,5.584-10.272,8.89-2.088,2.271,1.298,5.674,3.394,3.394h0Z"/><path class="g" d="M182.728,53.784c2.236-.105,4.476-.043,6.701.208.256.029.513.058.769.094-.385-.053.312.05.384.061.595.093,1.188.199,1.779.318,1.097.221,2.183.489,3.259.795,1.207.343,2.666-.419,2.952-1.676.291-1.277-.384-2.585-1.676-2.952-4.588-1.303-9.404-1.871-14.168-1.646-1.252.059-2.46,1.062-2.4,2.4.056,1.25,1.057,2.463,2.4,2.4h0Z"/><path class="g" d="M174.883,59.598c1.02-.112,2.045-.163,3.071-.139.513.012,1.025.041,1.536.088.146.013.292.028.437.044.252.031.291.035.117.011-.174-.025-.135-.019.116.017.145.022.29.045.434.069,1.011.171,2.011.41,2.99.716.489.153.974.322,1.452.508.093.036.682.285.24.092.269.117.535.24.799.366,1.131.539,2.644.351,3.284-.861.565-1.07.349-2.707-.861-3.284-4.23-2.016-8.94-2.94-13.616-2.427-1.244.137-2.462,1.006-2.4,2.4.053,1.183,1.063,2.547,2.4,2.4h0Z"/></g></svg>