<svg id="b" xmlns="http://www.w3.org/2000/svg" width="144.78" height="226.069" viewBox="0 0 144.78 226.069" style="color: initial !important;"><defs><style>.d{fill:#ffffff;}.e{fill:#74c66d;}.f{fill:#211715;}</style></defs><g id="c"><path class="d" d="M138.705,134.423c-2.242-11.143-6.141-21.94-11.852-31.708,1.653-1.485,2.947-2.863,3.378-3.666,5.954-8.41,5.583-18.784,4.337-28.763-1.665-13.429-7.032-26.87-15.633-37.412-.288-.383-.611-.755-.922-1.126-6.804-7.978-16.065-12.974-26.044-15.609-6.373-1.713-13.058-2.444-19.575-2.396-6.517-.048-13.202.683-19.575,2.396-9.979,2.636-19.239,7.631-26.044,15.609-.311.371-.635.743-.922,1.126-8.601,10.542-13.968,23.983-15.633,37.412-1.246,9.979-1.617,20.353,4.337,28.763.431.803,1.725,2.18,3.378,3.666-10.087,17.251-14.519,37.712-14.16,57.622.288,16.208,4.193,33.399,15.909,45.559,6.289,6.529,13.597,11.165,22.665,13.777,9.608,2.755,20.09,3.989,30.045,3.989s20.437-1.234,30.045-3.989c9.069-2.612,16.376-7.248,22.665-13.777,11.716-12.159,15.621-29.35,15.909-45.559.156-8.637-.59-17.377-2.308-25.914Z"/><path class="f" d="M121.929,34.491l-1.114.815c-.599-.827-1.234-1.641-1.881-2.432-.288-.383-.611-.755-.922-1.126-6.804-7.978-16.065-12.974-26.044-15.609-.299-6.301,5.475-11.92,11.417-13.261,8.158-1.845,17.73,2.013,21.923,9.272,3.642,6.301,3.738,15.202-.383,21.192-.695,1.018-2.132,2.013-2.995,1.15Z"/><path class="f" d="M25.852,32.874c-.647.791-1.282,1.605-1.881,2.432l-1.114-.815c-.863.863-2.3-.132-2.995-1.15-4.121-5.99-4.013-14.891-.383-21.192,4.193-7.26,13.765-11.117,21.923-9.272,5.942,1.342,11.716,6.96,11.417,13.261-9.979,2.636-19.239,7.631-26.044,15.609-.311.371-.635.743-.922,1.126Z"/><path class="f" d="M94.368,16.138c-.113-3.884,2.38-7.253,5.58-9.246,3.179-1.979,7.058-2.486,10.718-1.819,7.886,1.436,14.089,7.342,14.862,15.494.22,2.325.085,4.655-.532,6.911-.292,1.067-.67,2.09-1.187,3.068-.273.516-.56,1.146-.957,1.582-.712.783-.195-.082.289.289-1.029-.789-2.687-.159-3.284.861-.723,1.237-.171,2.492.861,3.284,2.794,2.142,5.778-.981,7.059-3.268,1.38-2.464,2.143-5.171,2.484-7.96.648-5.301-.558-11.138-3.618-15.56-5.83-8.426-18.078-12.392-27.509-7.909-5.399,2.567-9.745,8.118-9.566,14.271.09,3.082,4.89,3.095,4.8,0h0Z"/><path class="f" d="M21.646,32.419c.5-.383.872.482.358-.233-.267-.371-.527-.75-.757-1.152-.487-.849-.882-1.725-1.186-2.655-.646-1.979-.931-4.012-.895-6.091.068-3.879,1.258-7.966,3.793-10.967,4.642-5.496,13.686-8.534,20.435-5.229,3.852,1.887,7.156,5.55,7.024,10.046-.09,3.09,4.71,3.087,4.8,0,.163-5.583-3.363-10.517-7.958-13.39C42.774-.058,37.25-.514,32.157.581c-4.877,1.048-9.64,3.723-12.812,7.61-3.468,4.249-5.163,9.776-4.968,15.244.109,3.079.804,6.086,2.124,8.871,1.205,2.542,4.367,6.711,7.568,4.257,1.027-.787,1.573-2.066.861-3.284-.591-1.011-2.249-1.655-3.284-.861h0Z"/><path class="f" d="M124.78,103.927c10.947,18.824,15.286,41.444,13.504,63.063-.8,9.702-3.149,19.482-8.011,27.983s-12.306,15.416-21.126,19.633c-4.844,2.316-10.123,3.649-15.374,4.674-5.697,1.111-11.481,1.716-17.281,1.913-11.438.388-23.114-.709-34.103-4.01-9.436-2.835-17.792-8.599-23.924-16.306-6.166-7.75-9.512-17.399-11.129-27.072-1.722-10.303-1.541-21.057-.175-31.39,1.416-10.716,4.35-21.351,8.972-31.135,1.184-2.506,2.479-4.957,3.873-7.353,1.556-2.676-2.591-5.095-4.145-2.423C4.398,121.216-.289,145.128,1.77,167.775c.953,10.489,3.526,20.985,8.895,30.132,5.262,8.963,13.322,16.475,22.73,20.927,10.644,5.036,23.004,6.732,34.671,7.15,11.965.429,24.321-.735,35.806-4.233,10.108-3.079,19.24-9.215,25.843-17.481s10.509-18.388,12.297-28.799c1.87-10.89,1.829-22.115.413-33.056-1.494-11.543-4.58-22.811-9.534-33.36-1.209-2.575-2.536-5.091-3.966-7.551-1.552-2.669-5.702-.256-4.145,2.423h0Z"/><path class="f" d="M135.873,125.43c-8.331,5.41-17.122,10.25-26.527,13.521-4.064,1.413-8.25,2.535-12.464,3.405-3.836.792-7.938,1.429-11.854.871-3.342-.476-6.353-2.505-7.864-5.18-1.562-2.765-1.856-6.348-.294-9.181.826-1.497,2.144-3.028,3.791-3.627,1.665-.606,3.77-.581,5.429.002,2.001.703,3.828,1.72,5.915,2.187,2.193.49,4.476.707,6.718.518,10.145-.859,20.179-8.949,22.63-18.938l-1.103,1.434c2.033-1.016,3.875-2.416,5.656-3.815s3.53-2.877,5.029-4.568c2.88-3.25,4.77-7.546,5.75-11.743,1.066-4.568,1.193-9.308.882-13.971-.315-4.704-.93-9.422-1.964-14.023-4.022-17.886-14.361-35.656-31.192-44.063-8.759-4.375-18.533-6.474-28.281-6.857-10.022-.394-20.249.726-29.689,4.236-8.354,3.106-16.143,8.033-21.836,14.972-6.105,7.441-10.69,15.933-13.627,25.1-1.457,4.548-2.461,9.214-3.081,13.948-.596,4.552-1.019,9.164-.757,13.756.266,4.654,1.233,9.224,3.302,13.421,1.995,4.047,4.977,7.083,8.499,9.844,1.738,1.362,3.524,2.682,5.483,3.712l-1.103-1.434c2.146,8.883,10.484,16.433,19.29,18.476,4.407,1.022,9.157.695,13.327-1.077,1.787-.759,3.357-1.529,5.324-1.502,1.845.025,3.36.395,4.736,1.692,2.62,2.47,3.418,6.026,2.4,9.439-.467,1.566-1.182,2.731-2.157,3.751-1.116,1.167-2.364,2.305-3.911,2.845-3.63,1.266-7.775.928-11.504.333-4.065-.648-8.104-1.656-12.044-2.843-10.699-3.225-20.631-8.575-29.969-14.639-2.598-1.687-5.007,2.466-2.423,4.145,8.432,5.476,17.336,10.303,26.819,13.703,4.103,1.471,8.323,2.632,12.583,3.551,4.153.897,8.497,1.609,12.758,1.306,2.154-.153,4.254-.545,6.243-1.4,1.802-.775,3.361-2.087,4.722-3.484,2.641-2.711,4.12-6.397,4.128-10.188.009-4.33-2.066-8.354-5.505-10.956-3.663-2.771-8.646-2.473-12.662-.75-3.799,1.63-7.685,2.389-11.782,1.399-4.398-1.063-8.366-3.747-11.395-7.065-1.422-1.558-2.642-3.353-3.479-5.295-.382-.885-.563-1.813-.871-2.717-.444-1.302-1.704-1.724-2.777-2.403-3.441-2.178-7.022-5.037-9.145-8.322-5.031-7.785-4.541-17.432-3.464-26.253,1.123-9.194,4.004-18.23,8.461-26.35,4.292-7.821,9.959-14.87,17.596-19.622,7.868-4.895,17.088-7.487,26.275-8.293,18.344-1.609,38.943,2.391,51.416,17.007,5.969,6.995,10.333,15.395,13.057,24.154,2.683,8.628,4.195,18.209,3.367,27.249-.406,4.43-1.729,8.752-4.217,12.461-2.174,3.243-5.961,6.207-9.459,8.305-.972.583-1.94.934-2.335,2.117-.343,1.03-.57,2.067-1.041,3.055-.916,1.921-2.126,3.667-3.586,5.213-3.086,3.268-7.073,5.871-11.494,6.846-1.935.427-3.979.492-5.943.216-2.12-.298-3.97-1.082-5.922-1.903-4.076-1.715-9.023-1.584-12.58,1.247-6.61,5.26-6.594,15.294-.745,21.092,1.479,1.466,3.11,2.705,5.05,3.479,1.854.739,3.869,1.044,5.851,1.17,4.327.274,8.728-.469,12.94-1.397,9.274-2.044,18.126-5.405,26.534-9.807,4.289-2.245,8.445-4.732,12.504-7.368,2.581-1.676.178-5.834-2.423-4.145h0Z"/><path class="f" d="M91.638,47.76c-3.524.645-6.631,2.342-8.826,5.214-1.876,2.455-2.968,5.443-3.509,8.486-1.125,6.333.277,13.354,4.773,17.954,4.957,5.072,13.358,7.034,20.249,6.911,2.88-.051,5.829-.757,8.12-2.503,4.031-3.071,5.281-8.622,4.68-13.433-1.5-11.993-12.23-25.054-25.487-22.628Z"/><path class="f" d="M53.051,47.76c3.524.645,6.631,2.342,8.826,5.214,1.876,2.455,2.968,5.443,3.509,8.486,1.125,6.333-.277,13.354-4.773,17.954-4.957,5.072-13.358,7.034-20.249,6.911-2.88-.051-5.829-.757-8.12-2.503-4.031-3.071-5.281-8.622-4.68-13.433,1.5-11.993,12.23-25.054,25.487-22.628Z"/><path class="f" d="M75.064,84.878c-2.201.68-7.257.253-7.677-3.898.048-5.488,6.164-5.796,9.034-3.955,2.35,1.507,3.317,5.952-1.358,7.854Z"/><path class="d" d="M44.722,63.019c-.896,2.899-.333,9.562,5.137,10.114,7.231-.063,7.636-8.121,5.211-11.902-1.985-3.096-7.843-4.371-10.348,1.788Z"/><path class="d" d="M99.261,63.019c.896,2.899.333,9.562-5.136,10.115-7.231-.063-7.636-8.121-5.211-11.903,1.985-3.096,7.842-4.37,10.348,1.789Z"/><path class="f" d="M61.101,91.286c3.337,4.375,11.154,5.45,13.963-.143h-4.145c1.283,2.554,3.995,4.036,6.832,3.818,2.811-.216,5.21-1.506,6.913-3.743.786-1.032.162-2.685-.861-3.284-1.233-.721-2.496-.174-3.284.861.135-.177-.119.104-.141.125-.126.125-.254.253-.393.364.203-.161-.226.141-.281.175-.154.095-.312.183-.473.265-.101.052-.377.166-.685.256-.172.05-.345.094-.52.131-.062.013-.591.078-.275.05-.336.03-.683.033-1.018,0,.336.033-.442-.109-.587-.172-.382-.166-.805-.715-1.083-1.269-.787-1.566-3.358-1.566-4.145,0-.276.549-.704,1.105-1.083,1.269-.156.067-.327.09-.488.143-.406.135.095.017-.164.035-.369.025-.737.029-1.106-.002-.108-.009-.376-.062-.123-.015-.17-.032-.34-.068-.508-.11-.277-.07-.837-.255-.949-.307-.13-.06-.605-.327-.848-.507.245.181-.599-.618-.405-.362-.785-1.029-2.068-1.572-3.284-.861-1.013.593-1.652,2.247-.861,3.284h0Z"/><path class="f" d="M70.592,85.683v3.139c0,.615.268,1.262.703,1.697.217.234.475.399.772.496.286.15.594.219.925.207.621-.028,1.264-.232,1.697-.703s.703-1.047.703-1.697v-3.139c0-.615-.268-1.262-.703-1.697-.217-.234-.475-.399-.772-.496-.286-.15-.594-.219-.925-.207-.621.028-1.264.232-1.697.703s-.703,1.047-.703,1.697h0Z"/><path class="f" d="M120.076,172.577c-3.555.476-7.321,2.136-10.106,5.053-3.726,3.904-5.376,8.841-5.802,14.57-.288,3.874-.045,7.854,1.127,11.494,2.53,7.858,9.484,12.058,16.403,12.458,3.673.212,7.404-.842,10.557-3.061,6.557-4.615,10.911-13.371,10.023-22.414-.476-4.847-2.32-9.07-5.518-12.249-4.534-4.507-10.744-6.645-16.685-5.851Z"/><path class="f" d="M24.71,172.577c3.555.476,7.321,2.136,10.106,5.053,3.726,3.904,5.376,8.841,5.802,14.57.288,3.874.045,7.854-1.127,11.494-2.53,7.858-9.484,12.058-16.403,12.458-3.673.212-7.404-.842-10.557-3.061-6.557-4.615-10.911-13.371-10.023-22.414.476-4.847,2.32-9.07,5.518-12.249,4.534-4.507,10.744-6.645,16.685-5.851Z"/><path class="f" d="M119.438,170.262c-4.706.682-9.161,3.119-12.174,6.813-2.936,3.601-4.57,7.895-5.205,12.474-1.345,9.702.688,20.421,9.573,25.902,3.543,2.185,7.941,3.38,12.108,3.089,4.956-.347,9.432-2.578,12.952-6.045,6.649-6.55,9.569-16.599,7.36-25.678-2.566-10.544-13.159-17.973-23.977-16.641-1.286.158-2.4.99-2.4,2.4,0,1.174,1.105,2.56,2.4,2.4,7.572-.933,15.505,3.133,18.47,10.338,2.907,7.063,1.32,15.517-3.227,21.516-2.211,2.916-5.236,5.364-8.786,6.387-3.396.978-7.109.627-10.344-.775-3-1.3-5.556-3.515-7.208-6.337-2.19-3.744-2.662-8.247-2.493-12.507.171-4.317,1.087-8.639,3.541-12.261,2.481-3.663,6.354-5.817,10.685-6.445,1.284-.186,1.989-1.814,1.676-2.952-.379-1.378-1.664-1.863-2.952-1.676Z"/><path class="f" d="M24.072,174.891c3.921.569,7.402,2.351,9.935,5.433,2.339,2.847,3.554,6.494,4.037,10.107,1.02,7.635-.244,16.507-7.313,20.875-2.827,1.747-6.158,2.632-9.482,2.445-3.876-.218-7.337-2.185-10.018-4.906-5.255-5.336-7.642-13.445-5.87-20.751,2.103-8.672,10.567-14.198,19.348-13.117,1.289.159,2.4-1.217,2.4-2.4,0-1.429-1.108-2.241-2.4-2.4-9.38-1.155-19.053,4.384-22.766,13.072-3.771,8.824-1.849,19.322,3.976,26.784,2.859,3.662,6.728,6.631,11.255,7.87,4.292,1.174,8.921.739,13.008-.962,4.005-1.668,7.438-4.515,9.674-8.255,2.68-4.483,3.447-9.941,3.241-15.088-.207-5.177-1.308-10.512-4.3-14.838-3.152-4.557-7.934-7.698-13.449-8.497-1.281-.186-2.579.317-2.952,1.676-.31,1.128.385,2.765,1.676,2.952Z"/><path class="e" d="M85.125,171.116c1.518-.163,2.325-1.871,1.51-3.163-1.574-2.493-3.224-5.018-5.271-7.011-2.514-2.448-5.69-4.148-9.134-4.695-1.295-.206-2.459.791-2.43,2.102.064,2.897.545,7.372,3.323,9.907,3.462,3.159,8.659,3.221,12.002,2.861Z"/><path class="e" d="M78.684,92.293c-3.294.296-5.286.361-8.781.304-3.011,20.904-5.77,40.059-8.781,60.963,2.977,1.028,5.399,1.744,8.224,2.66,2.974-20.65,9.302-63.673,9.338-63.926Z"/><path class="f" d="M85.763,173.43c2.456-.39,3.999-2.989,3.482-5.345-.225-1.025-.882-1.897-1.443-2.761-.638-.983-1.299-1.951-2.005-2.886-2.787-3.688-6.313-6.639-10.793-8.011-2.208-.676-4.653-1.044-6.404.826-1.494,1.596-1.254,3.791-1.011,5.786.499,4.088,1.957,7.857,5.513,10.214,3.472,2.301,7.98,2.683,12.023,2.262,1.289-.134,2.4-1.007,2.4-2.4,0-1.193-1.103-2.535-2.4-2.4-1.246.13-2.5.186-3.752.124-.346-.017-.691-.043-1.036-.078-.06-.006-.543-.064-.264-.027.34.045-.428-.073-.384-.065-.71-.126-1.414-.299-2.098-.53-.069-.023-.897-.353-.559-.202-.336-.15-.663-.32-.982-.504-.772-.448-.983-.598-1.573-1.211-.11-.114-.214-.234-.318-.353.227.261-.024-.026-.059-.077-.202-.294-.389-.594-.559-.908-.094-.175-.18-.353-.267-.531-.026-.053-.172-.421-.039-.084-.145-.37-.271-.747-.382-1.128-.186-.64-.327-1.293-.436-1.95-.011-.064-.082-.54-.041-.247.049.347-.042-.375-.039-.349-.037-.356-.067-.712-.089-1.069-.017-.267-.029-.534-.038-.801-.004-.126-.008-.252-.011-.378.009.385-.082.102.005-.022.002-.003-.301.547-.138.245.108-.201-.218.025.008-.009.337-.051-.298.061-.294.06h.223c-.185-.024-.186-.021-.005.009,3.128.539,5.789,2.086,7.982,4.321,1.356,1.382,2.447,2.917,3.508,4.537.28.427.555.857.828,1.288.096.151.173.359.298.481.086.155.072.124-.042-.094-.018-.277-.023-.326-.018-.146-.025.362.037-.416.016-.061-.05.168-.027.127.068-.125-.123.195-.133.219-.031.073.132-.342-.205.253.007-.035.074-.086.169-.138.285-.156-.135.043-.273.072-.414.087-1.281.203-1.992,1.802-1.676,2.952.375,1.365,1.667,1.88,2.952,1.676Z"/><path class="f" d="M78.684,89.893c-2.928.258-5.843.348-8.781.304-.941-.014-2.168.748-2.314,1.762-2.927,20.321-5.854,40.642-8.781,60.963-.194,1.349.319,2.487,1.676,2.952,2.726.935,5.482,1.774,8.224,2.66,1.123.363,2.772-.428,2.952-1.676,1.468-10.193,2.958-20.383,4.448-30.573,1.348-9.219,2.7-18.437,4.053-27.654.279-1.9.561-3.799.837-5.699.186-1.281-.317-2.579-1.676-2.952-1.128-.31-2.765.386-2.952,1.676-.775,5.336-1.567,10.67-2.349,16.005-1.55,10.57-3.098,21.14-4.638,31.712-.787,5.403-1.572,10.805-2.351,16.209l2.952-1.676c-2.742-.886-5.498-1.724-8.224-2.66l1.676,2.952c2.927-20.321,5.854-40.642,8.781-60.963l-2.314,1.762c2.938.044,5.853-.046,8.781-.304,1.291-.114,2.4-1.022,2.4-2.4,0-1.21-1.101-2.515-2.4-2.4Z"/><path class="f" d="M71.243,133.036c0,2.504-.779,4.936-2.049,6.888-.779,1.198-3.246,3.642-5.019,4.48-6.385,3.019-16.927.443-23.42-1.282-11.716-3.115-22.941-8.985-33.064-15.574,2.324-8.697,5.714-17.095,10.243-24.834,2.348,2.108,5.391,4.409,7.667,5.583.012.012.024.012.036.024l.012.048c1.042,4.468,3.965,8.589,7.787,11.68,6.385,5.235,13.13,6.709,19.994,4.708,1.929-.563,4.576-2.216,6.577-2.288,1.342-.048,2.42,0,3.342.144,1.785.276,2.947.958,4.205,2.096,2.624,2.396,3.69,5.403,3.69,8.326Z"/><path class="f" d="M126.852,102.715c4.528,7.727,7.907,16.101,10.231,24.786-10.147,6.601-21.396,12.495-33.148,15.621-6.493,1.725-17.035,4.301-23.42,1.282-1.773-.839-4.241-3.282-5.019-4.48-1.27-1.953-2.049-4.385-2.049-6.888,0-2.923,1.066-5.93,3.69-8.326,1.258-1.138,2.42-1.821,4.205-2.096.922-.144,2.001-.192,3.342-.144,2.001.072,4.648,1.725,6.577,2.288,6.864,2.001,13.609.527,19.994-4.708,3.822-3.091,6.745-7.212,7.787-11.68l.144-.072c2.276-1.174,5.319-3.474,7.667-5.583Z"/></g></svg>