<svg xmlns="http://www.w3.org/2000/svg" width="255.142" height="272.256" viewBox="0 0 255.142 272.256" style="color: initial !important;"><defs><style>.a{fill:#645d5c;}.b{fill:#ffda71;}.c{fill:#211715;}.d{fill:#f2635f;}</style></defs><path class="a" d="M172.266,255.284H24.458a5.887,5.887,0,0,1-5.887-5.886v-9.979a5.887,5.887,0,0,1,5.887-5.886H172.266l16.549.473h44.122a3.634,3.634,0,0,1,3.634,3.634v13.537a3.634,3.634,0,0,1-3.634,3.634H188.579Z"/><path class="b" d="M22.136,234.009a5.887,5.887,0,0,0-3.565,5.41V249.4a5.887,5.887,0,0,0,5.887,5.886H39.742c0-6.979,0-15.2,0-21.751H24.458A5.867,5.867,0,0,0,22.136,234.009Z"/><path class="b" d="M137.851,236.338v-1.15s0-.665,0-1.655h12.769v21.751H137.851Z"/><path class="c" d="M172.266,253.284H26.523c-.641,0-1.282.007-1.923,0-2.558-.031-4.02-1.946-4.029-4.371-.01-3.071-.023-6.144,0-9.214a3.988,3.988,0,0,1,4.067-4.166c1.988-.019,3.978,0,5.967,0H172.266c2.574,0,2.578-4,0-4H25.867c-.464,0-.931-.011-1.395,0a8.067,8.067,0,0,0-7.9,8.371c-.011,3.071-.024,6.144,0,9.214a8.037,8.037,0,0,0,7.91,8.166c1.695.04,3.395,0,5.089,0h142.7c2.574,0,2.578-4,0-4Z"/><path class="c" d="M148.617,235.188v20.1c0,2.574,4,2.578,4,0v-20.1c0-2.574-4-2.578-4,0Z"/><path class="c" d="M135.851,235.188v20.1c0,2.574,4,2.578,4,0v-20.1c0-2.574-4-2.578-4,0Z"/><path class="c" d="M37.742,235.188v20.1c0,2.574,4,2.578,4,0v-20.1c0-2.574-4-2.578-4,0Z"/><path class="a" d="M174.06,221h12.725a1.794,1.794,0,0,1,1.794,1.794v45.587a1.794,1.794,0,0,1-1.794,1.794H174.06a1.793,1.793,0,0,1-1.794-1.793v-45.6A1.787,1.787,0,0,1,174.06,221Z"/><path class="c" d="M174.06,223h11.305c.466,0,.948.035,1.413,0-.408.031-.048-.377-.2.009a8.924,8.924,0,0,0,0,2.606v42.073a4.671,4.671,0,0,0,0,.648c-.028-.193.4-.076-.091-.161a14.248,14.248,0,0,0-2.328,0h-3.49c-2.042,0-4.087-.032-6.129,0a3.854,3.854,0,0,1-.456,0c.231.025.159.355.181-.193.033-.833,0-1.674,0-2.507V223.472a4.876,4.876,0,0,1,0-.554c.03-.245-.037.07-.206.085a2.053,2.053,0,0,0,2-2,2.015,2.015,0,0,0-2-2,3.911,3.911,0,0,0-3.794,3.981c-.026.9,0,1.8,0,2.7v27.579c0,4.985-.185,10.01,0,14.992a3.9,3.9,0,0,0,3.8,3.922c.525.028,1.059,0,1.584,0h7.427c1.684,0,4.1.373,5.626-.518,1.585-.928,1.879-2.541,1.879-4.186v-39.9c0-2.609.714-6.629-2.019-8.115-1.528-.831-3.936-.452-5.6-.452h-8.9C171.486,219,171.482,223,174.06,223Z"/><path class="c" d="M188.815,236.006h41.643a13.866,13.866,0,0,1,2.757.023c1.284.278,1.356,1.336,1.356,2.4v4.388c0,2.758.166,5.572,0,8.325-.113,1.893-1.876,1.673-3.239,1.673H188.579c-2.574,0-2.578,4,0,4h42.8c.495,0,.993.016,1.488,0a5.733,5.733,0,0,0,5.2-3.357,8.949,8.949,0,0,0,.5-3.782V239.145a8.949,8.949,0,0,0-.5-3.782c-1.747-3.936-6.024-3.357-9.6-3.357h-39.66c-2.574,0-2.578,4,0,4Z"/><path class="b" d="M212.977,238.88a5.412,5.412,0,0,0-5.528,5.477,5.322,5.322,0,0,0,5.528,5.579,5.266,5.266,0,0,0,5.528-5.579A5.407,5.407,0,0,0,212.977,238.88Z"/><path class="c" d="M212.977,236.88a7.539,7.539,0,0,0-7.2,5.241,7.7,7.7,0,0,0,2.456,8.23,8.038,8.038,0,0,0,8.688.584,7.626,7.626,0,0,0,3.452-7.914,7.471,7.471,0,0,0-7.4-6.141,2,2,0,1,0,0,4c.16,0,.32.015.481.018.513.011-.406-.106.085.009.244.058.488.107.728.186a1.18,1.18,0,0,1,.277.1l-.21-.089c.088.04.174.082.26.126a2.528,2.528,0,0,1,.722.45c-.3-.372-.075-.05.028.045.068.063.135.128.2.194s.269.231.28.311l-.14-.187c.042.056.083.112.122.17.137.218.262.438.39.661.063.109.21.26-.029-.094a5.515,5.515,0,0,1,.339,1.235c.066-.421-.019-.207-.017-.025,0,.123.012.246.012.369a1.958,1.958,0,0,1-.039.75l.034-.242c-.015.095-.031.189-.05.283-.032.161-.071.32-.116.478-.032.11-.073.218-.1.328-.127.446.207-.385,0,.022-.1.2-.2.392-.317.579-.058.091-.131.177-.184.27-.133.234.329-.351.03-.051-.035.035-.509.57-.557.539.022.014.375-.26-.014,0-.073.048-.147.094-.223.139-.114.067-.234.123-.351.188-.379.209.312-.073.044-.015-.246.053-.484.165-.732.223-.093.021-.188.036-.281.058q-.335.054.1-.008c-.1.011-.2.02-.3.026a6.989,6.989,0,0,1-.766.009,1.568,1.568,0,0,1-.445-.036c.035.015.471.092.1.006-.253-.059-.5-.112-.751-.194a1.063,1.063,0,0,1-.324-.118c.268.115.3.126.106.035-.061-.03-.12-.061-.179-.094-.141-.076-.551-.245-.617-.4.056.127.276.242.1.063-.094-.093-.195-.178-.287-.273a2.583,2.583,0,0,0-.222-.244c-.206-.164.258.4.028.037-.147-.229-.278-.459-.412-.7-.229-.4.128.418-.016-.029-.029-.089-.063-.176-.091-.265a2.177,2.177,0,0,1-.2-.841c-.008.031.039.487.015.086-.009-.153-.022-.306-.026-.46,0-.125,0-.251,0-.377q0-.109.012-.219.035-.339-.021.1a2.365,2.365,0,0,1,.194-.832,1.535,1.535,0,0,1,.143-.4l-.09.22c.04-.085.081-.168.125-.251a2.605,2.605,0,0,1,.446-.706c-.377.321-.047.074.043-.024s.194-.2.3-.3.337-.419.027-.046a1.715,1.715,0,0,1,.351-.24c.121-.075.245-.146.372-.212.085-.045.172-.087.259-.127l-.209.089a2.3,2.3,0,0,1,.857-.256c.131-.028.535-.2.079-.025a2.135,2.135,0,0,1,.64-.033,2,2,0,0,0,0-4Z"/><path class="c" d="M96.485,201.919a3.561,3.561,0,0,0,2.323-1.2c1.047-1.237,1.326-3.193,1.481-4.807.1-1.057.149-1.959.195-2.971a2.536,2.536,0,0,0-1.8-2.546l-.032-.01a2.56,2.56,0,0,0-2.75.877,16.664,16.664,0,0,0-2.776,5.02,6.089,6.089,0,0,0-.462,2.409,3.575,3.575,0,0,0,2.387,3.086A3.406,3.406,0,0,0,96.485,201.919Z"/><path class="c" d="M158.658,201.919a3.561,3.561,0,0,1-2.323-1.2c-1.047-1.237-1.326-3.193-1.481-4.807-.1-1.057-.149-1.959-.2-2.971a2.537,2.537,0,0,1,1.8-2.546l.032-.01a2.559,2.559,0,0,1,2.749.877,16.621,16.621,0,0,1,2.776,5.02,6.073,6.073,0,0,1,.463,2.409,3.578,3.578,0,0,1-2.387,3.086A3.407,3.407,0,0,1,158.658,201.919Z"/><path class="a" d="M118.908,47.763a8.861,8.861,0,0,1,3.108-4.554,10.034,10.034,0,0,1,5.555-1.724,9.918,9.918,0,0,1,5.556,1.724,8.861,8.861,0,0,1,3.108,4.554"/><path class="a" d="M201.348,160.152c-20.156-4.592-42.039-7.466-73.776-7.466S73.951,155.56,53.8,160.152l-9.975,3.38L60.859,99.708l125.875-1.444,21.195,63.848Z"/><path class="a" d="M197.043,94.629c-4.542-13.169-12.964-26.654-24.879-34.3a82.872,82.872,0,0,0-44.47-12.985,83.856,83.856,0,0,0-44.47,12.985c-11.915,7.649-20.336,21.134-24.879,34.3L55.025,107.4l72.582,7.83,71.116-7.83Z"/><path class="b" d="M99.62,107.4c-12.407-1.5-16.29-1.953-26.154-3.648l-9.334-1.639-1.925,6.738,6.2,4.671c19.543,12.107,38.45,16.531,59.161,16.531,21.46,0,39.62-4.423,59.164-16.531l4.661-3.9-1.155-7.508-7.087,1.639c-9.863,1.7-13.747,2.153-26.154,3.648Z"/><path class="c" d="M60.151,95.161C63.786,84.7,69.53,74.689,77.672,67.089c8.17-7.625,19.166-12.409,29.881-15.174a80.13,80.13,0,0,1,36.537-.859,81.041,81.041,0,0,1,16.389,5.294,65.733,65.733,0,0,1,13.99,8.148c9.761,7.748,16.472,19.009,20.523,30.663.84,2.416,4.706,1.377,3.857-1.063-3.857-11.1-9.9-21.77-18.55-29.837-8.519-7.946-19.85-13.117-31.021-16.08a84.6,84.6,0,0,0-38.353-1.141c-11.605,2.339-23.4,7.033-32.77,14.384C67.707,69.625,60.606,81.692,56.294,94.1c-.847,2.436,3.015,3.483,3.857,1.063Z"/><path class="c" d="M120.837,48.3a6.714,6.714,0,0,1,2.3-3.43,7.823,7.823,0,0,1,8.769-.071,6.614,6.614,0,0,1,2.4,3.5,2.046,2.046,0,0,0,2.46,1.4,2.019,2.019,0,0,0,1.4-2.46,11.074,11.074,0,0,0-3.922-5.674,11.779,11.779,0,0,0-13.234-.075,11.023,11.023,0,0,0-4.028,5.749,2,2,0,0,0,3.858,1.064Z"/><path class="c" d="M125.772,153.5a53.835,53.835,0,0,0-24.7,25.394,2.059,2.059,0,0,0,.718,2.737,2.016,2.016,0,0,0,2.736-.718,50.375,50.375,0,0,1,23.262-23.959c2.305-1.147.281-4.6-2.019-3.454Z"/><path class="c" d="M101.343,181.913a1.525,1.525,0,0,0-.213-.047,3.587,3.587,0,0,0-.731-.078c-.118.007-.242.029-.356.045s-.239.025-.354.052a3.656,3.656,0,0,0-.659.264,1.283,1.283,0,0,0-.162.09,5.124,5.124,0,0,0-.531.408,1.288,1.288,0,0,0-.122.123,4.678,4.678,0,0,0-.407.532,2.507,2.507,0,0,0-.176.379,2.569,2.569,0,0,0-.156.405c-.007.029-.012.058-.017.087-.032.194-.063.4-.078.591a2.19,2.19,0,0,0,.04.45,2.8,2.8,0,0,0,.077.456,5.256,5.256,0,0,0,.259.631,1.15,1.15,0,0,0,.077.143,4.653,4.653,0,0,0,.4.517.851.851,0,0,0,.1.1,5.012,5.012,0,0,0,.513.393,4.168,4.168,0,0,0,.739.337c.055.022.112.044.168.063l.041.014a4.891,4.891,0,0,0,.551.074c.042,0,.085.01.128.012a1.44,1.44,0,0,0,.2,0,5.321,5.321,0,0,0,.69-.093,1.27,1.27,0,0,0,.149-.043,4.266,4.266,0,0,0,.594-.255.978.978,0,0,0,.107-.069,3.887,3.887,0,0,0,.485-.383.882.882,0,0,0,.076-.086,4.41,4.41,0,0,0,.361-.476,3.032,3.032,0,0,0,.184-.4,3.191,3.191,0,0,0,.168-.432,4.482,4.482,0,0,0,.1-.728,1.168,1.168,0,0,0,0-.229,3.637,3.637,0,0,0-.112-.723c-.036-.113-.091-.227-.136-.333s-.088-.225-.144-.33a3.676,3.676,0,0,0-.438-.591,1.156,1.156,0,0,0-.166-.162,3.819,3.819,0,0,0-.572-.422c-.034-.018-.07-.034-.1-.05-.188-.083-.377-.171-.572-.236a1.523,1.523,0,0,0-.8-.036,1.48,1.48,0,0,0-.744.238,2.238,2.238,0,0,0-.919,1.195l-.072.532a2,2,0,0,0,.274,1.009l.312.405a2,2,0,0,0,.883.514c.031.011.062.022.094.035l-.478-.2a1.308,1.308,0,0,1,.259.149l-.405-.313a1.2,1.2,0,0,1,.211.211l-.313-.4a1.283,1.283,0,0,1,.138.238l-.2-.477a1.211,1.211,0,0,1,.076.285l-.072-.532a1.257,1.257,0,0,1,0,.294l.071-.531a1.412,1.412,0,0,1-.093.324l.2-.478a1.323,1.323,0,0,1-.132.235l.312-.405a.88.88,0,0,1-.155.156l.4-.313a.987.987,0,0,1-.189.109l.477-.2a1.147,1.147,0,0,1-.252.069l.532-.072a1.61,1.61,0,0,1-.433,0l.532.072c-.079-.027-.158-.055-.235-.088l.478.2a1.526,1.526,0,0,1-.307-.174l.4.313a1.139,1.139,0,0,1-.174-.173l.313.405a1.206,1.206,0,0,1-.135-.23l.2.478a1.268,1.268,0,0,1-.093-.33l.071.532a1.048,1.048,0,0,1,0-.244l-.072.531a1.123,1.123,0,0,1,.072-.253l-.2.478a1.143,1.143,0,0,1,.133-.223l-.313.405a1.264,1.264,0,0,1,.2-.2l-.4.312a1.3,1.3,0,0,1,.269-.159l-.477.2a1.132,1.132,0,0,1,.244-.068l-.532.072a1.215,1.215,0,0,1,.289,0l-.531-.071a1.422,1.422,0,0,1,.213.047,1.522,1.522,0,0,0,.8.036,1.492,1.492,0,0,0,.744-.237,2.245,2.245,0,0,0,.919-1.2l.071-.531a1.991,1.991,0,0,0-.273-1.01l-.312-.405A2,2,0,0,0,101.343,181.913Z"/><path class="c" d="M96.485,203.919a5.724,5.724,0,0,0,4-2.122,8.318,8.318,0,0,0,1.5-3.608,32.752,32.752,0,0,0,.434-3.99,5.823,5.823,0,0,0-.717-3.916,4.625,4.625,0,0,0-3.813-2.008,4.926,4.926,0,0,0-3.934,2.26,17.138,17.138,0,0,0-1.748,2.8,15.449,15.449,0,0,0-1.4,3.8,5.755,5.755,0,0,0,1.235,4.928,5.336,5.336,0,0,0,4.446,1.855,2,2,0,0,0,0-4c-.139.011-.274.016-.414.02,0,0-.34-.022-.146,0,.217.026-.2-.053-.241-.066-.086-.026-.171-.053-.255-.085.367.141-.05-.076-.178-.144-.242-.129.194.217.015.009-.071-.083-.162-.152-.236-.232-.045-.049-.236-.326-.105-.118s-.017-.044-.031-.07c-.049-.093-.1-.2-.158-.29.018.031.1.311.043.1-.048-.187-.11-.366-.146-.557.082.433.018.1.026,0,.009-.136,0-.273.018-.409-.031.311.01-.023.025-.076.036-.133.063-.268.1-.4.055-.2.119-.4.186-.592q.132-.382.279-.758c.035-.091.073-.18.108-.27.125-.324-.189.405.056-.128a16.75,16.75,0,0,1,1.22-2.226c.224-.342.465-.669.7-1,.133-.182-.014.023-.037.048.078-.086.153-.173.232-.258.029-.031.242-.178.061-.06-.215.14.185-.089.23-.109-.412.189.317.006.062.014s.092.022.156.019c.225-.011-.07,0-.107-.013.068.027.463.184.266.073-.225-.128.06.061.116.089.2.1-.163-.2-.035-.015.035.05.248.311.1.094s0,.025.021.057c.175.325.014.02,0-.048a1.727,1.727,0,0,0,.067.229c.109.243.02-.324,0-.054-.007.08,0,.166,0,.247,0,.282-.026.565-.041.847-.053,1-.123,1.994-.249,2.984,0-.031.054-.324.01-.089-.028.148-.047.3-.075.445-.044.238-.093.475-.152.709s-.125.463-.2.69c-.039.111-.079.223-.123.332.073-.179.074-.16-.014,0-.111.2-.224.394-.351.585.2-.309.059-.068-.012,0-.036.031-.393.339-.2.2.177-.13-.551.282-.329.188s-.775.168-.262.1a2.054,2.054,0,0,0-2,2C94.528,202.884,95.374,204.066,96.485,203.919Z"/><path class="c" d="M54.327,162.08a300.912,300.912,0,0,1,53.841-7,394.509,394.509,0,0,1,64.85,2.1,278.733,278.733,0,0,1,27.8,4.9c2.506.57,3.576-3.286,1.063-3.857a306.692,306.692,0,0,0-54.688-7.131,393.51,393.51,0,0,0-65.427,2.136,289.2,289.2,0,0,0-28.5,5c-2.509.571-1.447,4.428,1.063,3.857Z"/><path class="c" d="M128.067,148.509a144.984,144.984,0,0,0-17.126-4.851c-6.46-1.292-13.743-1.828-19.82,1.258a10.991,10.991,0,0,0-4.969,14.512c1.382,3.152,4.419,5.078,7.514,6.318a18.578,18.578,0,0,0,8.483.888c7.674-.673,15.068-3.534,22.255-6.125,2.4-.866,1.366-4.733-1.064-3.857-5.959,2.148-11.992,4.411-18.241,5.568a27.809,27.809,0,0,1-6.922.472,11.459,11.459,0,0,1-7.548-3.521,7.9,7.9,0,0,1-1.316-6.456,6.73,6.73,0,0,1,3.663-4.262c4.986-2.624,11.383-2.033,16.691-.98A144.845,144.845,0,0,1,127,152.366c2.449.812,3.5-3.05,1.063-3.857Z"/><path class="c" d="M67.4,115.249a110.776,110.776,0,0,0,47.23,16.178c15.873,1.6,32.423.506,47.68-4.316a114.071,114.071,0,0,0,25.435-11.862c2.186-1.349.18-4.811-2.019-3.454a105.067,105.067,0,0,1-44.035,15.541c-15.553,1.67-31.639.729-46.652-3.8A108.774,108.774,0,0,1,69.418,111.8c-2.2-1.355-4.208,2.1-2.019,3.454Z"/><path class="c" d="M127.352,156.95a50.375,50.375,0,0,1,23.262,23.959,2.015,2.015,0,0,0,2.736.718,2.047,2.047,0,0,0,.717-2.737,53.833,53.833,0,0,0-24.7-25.394c-2.3-1.143-4.326,2.306-2.019,3.454Z"/><path class="c" d="M154.863,185.77a1.4,1.4,0,0,1,.213-.047l-.531.071a1.215,1.215,0,0,1,.289,0l-.532-.072a1.148,1.148,0,0,1,.244.068l-.478-.2a1.285,1.285,0,0,1,.27.159l-.405-.312a1.306,1.306,0,0,1,.2.2l-.313-.405a1.173,1.173,0,0,1,.133.223l-.2-.478a1.076,1.076,0,0,1,.073.253l-.072-.531a1.048,1.048,0,0,1,0,.244l.072-.532a1.351,1.351,0,0,1-.093.33l.2-.478a1.151,1.151,0,0,1-.134.23l.313-.405a1.186,1.186,0,0,1-.174.173l.4-.313a1.5,1.5,0,0,1-.307.174l.478-.2c-.077.033-.155.061-.234.088l.532-.072a1.61,1.61,0,0,1-.433,0l.531.072a1.162,1.162,0,0,1-.252-.069l.478.2a1.026,1.026,0,0,1-.19-.109l.405.313a.88.88,0,0,1-.155-.156l.312.405a1.263,1.263,0,0,1-.132-.235l.2.478a1.414,1.414,0,0,1-.094-.324l.072.531a1.2,1.2,0,0,1,0-.294l-.072.532a1.122,1.122,0,0,1,.076-.285l-.2.477a1.278,1.278,0,0,1,.137-.238l-.312.4a1.2,1.2,0,0,1,.21-.211l-.4.313a1.308,1.308,0,0,1,.259-.149l-.478.2c.031-.013.062-.024.094-.035a1.928,1.928,0,0,0,1.433-1.663,1.523,1.523,0,0,0-.036-.8,2.025,2.025,0,0,0-.919-1.195,2,2,0,0,0-1.541-.2,5.479,5.479,0,0,0-.633.263,1.339,1.339,0,0,0-.185.112,4.194,4.194,0,0,0-.531.421c-.023.024-.045.048-.067.074-.125.151-.253.31-.364.472a1.249,1.249,0,0,0-.11.195,3.854,3.854,0,0,0-.261.65,4.4,4.4,0,0,0-.1.693,1.25,1.25,0,0,0,0,.212,3.228,3.228,0,0,0,.171.905,4.608,4.608,0,0,0,.281.635,2.91,2.91,0,0,0,.209.28,3.087,3.087,0,0,0,.225.282,2.85,2.85,0,0,0,.289.232,2.513,2.513,0,0,0,.3.22,4.181,4.181,0,0,0,.592.256,1.084,1.084,0,0,0,.147.045,5.342,5.342,0,0,0,.688.095,1.6,1.6,0,0,0,.2,0c.036,0,.072,0,.107-.009l.057-.007a3.469,3.469,0,0,0,.559-.08,5.762,5.762,0,0,0,.779-.324,3.349,3.349,0,0,0,.646-.466,1.012,1.012,0,0,0,.1-.1,4.409,4.409,0,0,0,.4-.515,1.212,1.212,0,0,0,.079-.141,5.167,5.167,0,0,0,.26-.629,1.294,1.294,0,0,0,.046-.205,3.435,3.435,0,0,0,.076-.7,4.329,4.329,0,0,0-.092-.679.972.972,0,0,0-.059-.18,3.564,3.564,0,0,0-.284-.63,4.492,4.492,0,0,0-.418-.542,1.483,1.483,0,0,0-.148-.138,4.3,4.3,0,0,0-.547-.409c-.033-.019-.067-.036-.1-.052-.179-.084-.368-.166-.555-.233a3.23,3.23,0,0,0-.742-.121,1.189,1.189,0,0,0-.253,0,3.873,3.873,0,0,0-.763.12,2.1,2.1,0,0,0-1.2.919,2.244,2.244,0,0,0-.2,1.541,2.022,2.022,0,0,0,.919,1.2A2.048,2.048,0,0,0,154.863,185.77Z"/><path class="c" d="M158.658,199.919c.4.052-.125-.076-.252-.1-.275-.058.217.151-.016-.006a2.217,2.217,0,0,0-.234-.13c-.072-.038-.284-.225-.029,0-.067-.059-.132-.119-.2-.182-.042-.043-.286-.326-.129-.127.144.181-.064-.107-.086-.143-.108-.171-.191-.351-.287-.528.185.341-.052-.15-.089-.261a10.051,10.051,0,0,1-.327-1.314c-.016-.088-.121-.8-.064-.356-.023-.174-.042-.347-.061-.521-.057-.544-.1-1.088-.139-1.634-.032-.486-.06-.974-.081-1.461,0-.1-.011-.2-.011-.3,0-.076.052-.407-.005-.139s.013-.012.026-.048c.126-.353-.133.152.006-.035a1.419,1.419,0,0,0,.119-.2c-.14.288-.1.153-.017.038.017-.024.217-.225.034-.053s.079-.03.124-.07c.143-.128-.055.008-.111.028.052-.018.128-.039.188-.062.027-.011.318-.1.073-.036s.177,0,.243,0c-.06,0-.431-.065-.032,0,.026,0,.309.077.079.007s.41.293.081.014c.088.075.166.158.247.241.014.014.2.237.066.074-.146-.179.084.112.115.154.07.094.139.189.207.284a16.223,16.223,0,0,1,1.3,2.146c.108.215.209.433.31.652.152.332-.045-.133.092.217a15.5,15.5,0,0,1,.537,1.531c.028.1.053.2.077.3s.076.46.048.176c.01.1.014.2.016.307,0,.206-.029.436.028.1a3.871,3.871,0,0,1-.173.635c.138-.389-.113.127-.178.255.145-.284.1-.11.01-.013-.076.08-.154.158-.231.237-.246.254-.052.052.022,0-.111.077-.246.134-.35.217-.158.126.055-.008.1-.027a3.278,3.278,0,0,1-.456.137c-.231.053-.026.008.021,0a4.023,4.023,0,0,1-.621-.012,2.01,2.01,0,0,0-2,2,2.05,2.05,0,0,0,2,2,5.539,5.539,0,0,0,5.826-5.436,10.877,10.877,0,0,0-1.17-4.31,16.68,16.68,0,0,0-1.609-2.926,6.145,6.145,0,0,0-3.256-2.8,4.563,4.563,0,0,0-5.781,4.709c.054,1.267.14,2.535.3,3.792a10.317,10.317,0,0,0,1.335,4.374,5.809,5.809,0,0,0,4.351,2.6,2,2,0,0,0,2-2A2.063,2.063,0,0,0,158.658,199.919Z"/><path class="c" d="M128.139,152.366a149.8,149.8,0,0,1,15.1-4.428c5.629-1.229,11.631-2.122,17.234-.2,2.074.71,4.2,1.968,5.082,4.08a8.129,8.129,0,0,1-.3,6.19c-1.2,2.435-4.341,4-6.889,4.517a20.4,20.4,0,0,1-6.557-.012c-6.868-.9-13.539-3.524-20.014-5.858-2.425-.874-3.47,2.989-1.063,3.857,6.452,2.326,13.033,4.843,19.855,5.835a27.436,27.436,0,0,0,8.231.141,14.794,14.794,0,0,0,9.126-5.252,11.1,11.1,0,0,0-2.065-15.143,18.4,18.4,0,0,0-9.024-3.184,32.53,32.53,0,0,0-9.511.16,141.788,141.788,0,0,0-20.275,5.443c-2.432.806-1.39,4.67,1.063,3.857Z"/><path class="c" d="M99.62,102.838c-8.223-.313-16.444-.641-24.662-1.086-2.572-.14-2.564,3.861,0,4,8.218.445,16.439.773,24.662,1.086,2.575.1,2.57-3.9,0-4Z"/><path class="c" d="M156.133,106.816c8.056-.306,16.109-.628,24.159-1.064,2.56-.139,2.576-4.14,0-4-8.05.436-16.1.758-24.159,1.064-2.566.1-2.579,4.1,0,4Z"/><path class="c" d="M182.864,124.959q-.036.332.018-.127c-.015.091-.033.182-.052.272-.03.138-.065.275-.1.411q-.079.279-.18.552c-.034.093-.247.518-.024.076a16.828,16.828,0,0,1-1.107,1.947c-.128.187-.263.369-.4.553-.246.345.187-.218-.11.145-.263.32-.526.638-.8.948-.564.633-1.158,1.239-1.773,1.823s-1.242,1.14-1.889,1.68q-.468.391-.947.77c-.038.031-.488.38-.128.1-.173.133-.348.265-.523.4-1.009.753-2.046,1.471-3.124,2.12a2,2,0,1,0,2.019,3.454,42.885,42.885,0,0,0,7.684-5.948c2.562-2.486,5.039-5.508,5.435-9.175a2,2,0,0,0-2-2,2.056,2.056,0,0,0-2,2Z"/><path class="c" d="M68.537,124.959c.4,3.667,2.873,6.689,5.435,9.175a42.927,42.927,0,0,0,7.685,5.948,2,2,0,0,0,2.019-3.454c-1.079-.649-2.116-1.367-3.124-2.12q-.264-.2-.523-.4c.278.214-.018-.015-.129-.1q-.478-.378-.946-.77c-.647-.54-1.279-1.1-1.89-1.68s-1.209-1.19-1.772-1.823c-.275-.31-.539-.628-.8-.948-.363-.443.219.315-.111-.145-.131-.184-.266-.366-.394-.553a14.007,14.007,0,0,1-1.107-1.947c.14.3.05.128-.024-.076-.059-.16-.112-.32-.16-.483s-.088-.318-.123-.48c-.02-.09-.037-.181-.052-.272q.054.459.017.127a2.047,2.047,0,0,0-2-2,2.021,2.021,0,0,0-2,2Z"/><path class="b" d="M127.571,92.863c-17.137,0-23.642-12.576-25.562-16.7C97.353,66.172,94.664,58.673,90.822,46.3,87.6,35.939,90.536,25.3,102.174,22.173a1.924,1.924,0,0,0,1.285-2.751C99.2,11.515,89.34,8.444,80.234,9.831c-7.3-11.717-36.359-9-47.307-.232a1.869,1.869,0,0,0,.207,3.071C54.235,26.115,64.719,48.1,76.216,69.291c4.915,9.062,8.764,16.816,14.1,24.984,7.993,12.234,18.309,17.052,37.251,17.026,18.945.027,29.262-4.792,37.256-17.026,5.337-8.168,9.186-15.922,14.1-24.984,11.5-21.2,21.981-43.176,43.082-56.621a1.869,1.869,0,0,0,.207-3.071c-10.948-8.767-40-11.485-47.308.232-9.1-1.387-18.964,1.684-23.224,9.591a1.923,1.923,0,0,0,1.285,2.751C164.606,25.3,167.54,35.939,164.32,46.3c-3.842,12.37-6.531,19.869-11.186,29.862C151.214,80.287,144.708,92.863,127.571,92.863Z"/><path class="c" d="M127.571,90.863a25.127,25.127,0,0,1-19.661-8.929c-3.852-4.617-6.287-11.166-8.545-16.879-1.822-4.611-3.433-9.3-4.953-14.021-1.418-4.405-3.016-8.76-2.785-13.456a13.755,13.755,0,0,1,8.977-12.8,17.219,17.219,0,0,0,3.2-1.156,4.043,4.043,0,0,0,1.88-3.287c.059-2.4-2.44-5.033-4.059-6.567a21.336,21.336,0,0,0-6.3-4.1A28.852,28.852,0,0,0,79.7,7.9l2.258.919c-2.732-4.286-7.511-6.6-12.325-7.737A48.675,48.675,0,0,0,52.145.527,48.911,48.911,0,0,0,35.638,5.468c-2.352,1.248-5.91,3.072-5.344,6.24.362,2.025,2.153,2.868,3.7,3.924q2.361,1.609,4.584,3.4C50.5,28.713,58.836,41.727,66.21,55.005c3.912,7.044,7.694,14.164,11.485,21.273,3.858,7.235,7.626,14.728,12.515,21.338A35.812,35.812,0,0,0,103.178,108.8c5.863,2.852,12.345,3.973,18.808,4.348,12.854.745,27.065-.351,37.193-9.166,5.236-4.557,8.822-10.717,12.236-16.669,4.227-7.368,8.13-14.93,12.145-22.414,7.178-13.376,14.411-27.036,24.84-38.219a80.8,80.8,0,0,1,8.47-7.9c1.486-1.194,3.029-2.317,4.611-3.381,1.618-1.09,3.345-2.044,3.439-4.229.125-2.9-3.321-4.609-5.528-5.768a42.584,42.584,0,0,0-7.768-3.089A56.792,56.792,0,0,0,193.871.031c-5.351.174-11.072,1.094-15.7,3.955a15.528,15.528,0,0,0-4.992,4.835L175.44,7.9c-9.1-1.325-19.306,1.131-24.668,9.157a5.983,5.983,0,0,0-1.309,3.279,3.933,3.933,0,0,0,1.677,3.131,15.074,15.074,0,0,0,3.4,1.312,15.8,15.8,0,0,1,2.709,1.386,13.606,13.606,0,0,1,5.955,8.892c.857,4.106-.01,8.159-1.239,12.084-1.555,4.969-3.168,9.923-4.991,14.8q-2.51,6.717-5.566,13.212a34.494,34.494,0,0,1-3.08,5.356,25.427,25.427,0,0,1-7.37,6.875,26.056,26.056,0,0,1-13.386,3.476c-2.573.015-2.578,4.015,0,4,8.12-.047,15.9-2.953,21.483-8.956,4.265-4.587,6.634-10.308,9.035-16.007,1.858-4.411,3.527-8.9,5.058-13.429,1.62-4.8,3.546-9.7,4.188-14.743,1.044-8.21-2.323-16.549-10.125-20.127-.636-.292-1.286-.564-1.944-.8a15.638,15.638,0,0,1-1.766-.555c.118.06-.176-.114-.051.027a.127.127,0,0,1-.039.16c.084-.156.17-.309.26-.462a14.729,14.729,0,0,1,1.055-1.6,16.388,16.388,0,0,1,5.239-4.346,23.606,23.606,0,0,1,14.413-2.264,2.107,2.107,0,0,0,2.258-.919c2.207-3.462,6.587-5.211,10.741-6.078a45.509,45.509,0,0,1,16-.174,43.551,43.551,0,0,1,14.665,4.636c.96.537,1.838,1.34,2.809,1.824.013.006.29-.1-.024.006a12.483,12.483,0,0,0-2.535,1.7,79.714,79.714,0,0,0-8.577,6.953c-10.6,9.888-18.263,22.4-25.19,35.005-3.708,6.751-7.333,13.551-10.958,20.346-3.673,6.885-7.3,13.969-11.9,20.289a31.793,31.793,0,0,1-11.589,9.94c-5.287,2.6-11.281,3.551-17.112,3.875-11.659.647-25.055,0-34.276-8.1-4.885-4.289-8.189-10-11.395-15.577-4.041-7.026-7.765-14.242-11.6-21.383C68.849,51.362,62.033,38.463,52.666,27.349A83.2,83.2,0,0,0,36.519,12.523a10.885,10.885,0,0,0-2.2-1.469c-.432-.151.1-.113-.115.081.182-.163.018-.066.273-.224.923-.572,1.782-1.22,2.737-1.748a35.461,35.461,0,0,1,6.675-2.776A53.131,53.131,0,0,1,60.221,4.009c4.82.053,10,.716,14.218,3.126a11.581,11.581,0,0,1,4.068,3.705,2.1,2.1,0,0,0,2.259.919,24.366,24.366,0,0,1,12.856,1.506,17.417,17.417,0,0,1,5.3,3.452,14.364,14.364,0,0,1,1.9,2.216c.182.267.93,1.171.911,1.5.016-.284-.143-.184-.454-.086a19.35,19.35,0,0,0-10.45,7.184A19.457,19.457,0,0,0,87.6,38.837c.044,4.89,1.729,9.49,3.22,14.084,1.517,4.675,3.133,9.32,4.959,13.884,2.406,6.013,4.792,12.315,8.871,17.43,5.607,7.031,14.009,10.577,22.919,10.628C130.146,94.878,130.149,90.878,127.571,90.863Z"/><path class="d" d="M246.9,134.526c-4.045-11.921-8.319-24.525-12.334-36.355-12.276,3.053-32.3,8.279-45.651,11.942,3.5,11.917,7.344,25.057,10.889,37.137,11.494-3.936,37.054-10.333,47.092-12.723Z"/><path class="b" d="M231.419,88.917a2.788,2.788,0,0,0-3.377-1.794c-11.462,3.12-27.9,7.459-39.78,10.682a2.792,2.792,0,0,0-1.948,3.486c.835,2.833,1.706,5.792,2.6,8.822,13.348-3.663,33.375-8.889,45.651-11.942C233.493,95.024,232.441,91.926,231.419,88.917Z"/><path class="b" d="M252.141,155.869a2.522,2.522,0,0,0,.841-.992,4.341,4.341,0,0,0-.243-3.139l-5.848-17.211c-10.042,2.391-35.623,8.793-47.109,12.728l4.9,16.6c.4,1.341,1.012,2.9,2.378,3.2a3.922,3.922,0,0,0,1.575-.082,400.794,400.794,0,0,0,41.413-10.183A7.061,7.061,0,0,0,252.141,155.869Z"/><path class="c" d="M254.558,156.164c1.037-1.908.5-3.8-.152-5.728l-1.941-5.716q-2-5.886-4-11.773-4.124-12.151-8.245-24.305-2.051-6.043-4.1-12.088L234.168,90.8c-.625-1.84-1.053-3.895-2.8-5.01-1.634-1.041-3.292-.749-5.052-.271s-3.522.953-5.283,1.427q-5.592,1.506-11.188,3-5.847,1.563-11.7,3.127-2.837.76-5.672,1.523c-1.67.45-3.435.789-5.059,1.387a4.824,4.824,0,0,0-3.175,4.032c-.182,1.8.7,3.71,1.2,5.41q1.674,5.685,3.342,11.373,6.745,22.994,13.5,45.987a13.028,13.028,0,0,0,1.934,4.657c1.358,1.688,3.2,1.785,5.189,1.411,4.526-.848,9.035-1.8,13.526-2.822q13.476-3.056,26.72-7.035c1.942-.583,3.648-1.156,4.905-2.831a2.013,2.013,0,0,0-.717-2.736,2.049,2.049,0,0,0-2.737.717c-.345.46-1.324.632-1.818.783-1,.307-2.012.6-3.02.9q-3.024.888-6.061,1.729-6.075,1.683-12.2,3.173t-12.293,2.787q-3.084.648-6.178,1.248c-.487.094-1.716.5-2.081.307-.41-.218-.614-1.038-.745-1.441-2.156-6.649-3.96-13.434-5.927-20.141q-3.189-10.874-6.374-21.747-1.566-5.343-3.135-10.686c-.983-3.347-2.2-6.711-2.975-10.112-.305-1.347,1.056-1.364,2.095-1.645q2.436-.659,4.871-1.313,5.238-1.407,10.478-2.806,10.295-2.751,20.583-5.52c.818-.221,2.452-1.1,3.124-.274a9.2,9.2,0,0,1,.863,2.476q.484,1.428.97,2.858,1.852,5.456,3.7,10.913,7.452,21.96,14.9,43.919.4,1.165.792,2.331c.2.586.757,1.649.424,2.26C249.874,156.407,253.327,158.429,254.558,156.164Z"/><path class="c" d="M246.36,132.6c-12.659,3.015-25.292,6.22-37.792,9.84-3.123.9-6.24,1.837-9.318,2.888-2.422.827-1.382,4.692,1.063,3.857,12.592-4.3,25.634-7.426,38.535-10.635q4.282-1.067,8.575-2.093c2.5-.6,1.443-4.454-1.063-3.857Z"/><path class="c" d="M234.06,96.335c-12.189,2.906-24.31,6.132-36.408,9.4-3.087.833-6.171,1.674-9.247,2.544-2.473.7-1.422,4.559,1.063,3.857,12.426-3.512,24.935-6.752,37.453-9.913,2.731-.69,5.463-1.373,8.2-2.026,2.5-.6,1.443-4.455-1.064-3.858Z"/><path class="c" d="M244.039,149.99a39.126,39.126,0,0,0-1.793-5.385,2.2,2.2,0,0,0-.919-1.2,2.044,2.044,0,0,0-1.541-.2,2.017,2.017,0,0,0-1.195.919,1.929,1.929,0,0,0-.2,1.541,39.139,39.139,0,0,1,1.793,5.386,2,2,0,0,0,3.857-1.064Z"/><path class="c" d="M235.113,151.91a39.41,39.41,0,0,0-1.793-5.386,2.2,2.2,0,0,0-.919-1.195,2,2,0,0,0-2.737.718,1.932,1.932,0,0,0-.2,1.541,39.4,39.4,0,0,1,1.793,5.385,2.02,2.02,0,0,0,2.46,1.4,2.04,2.04,0,0,0,1.4-2.46Z"/><path class="c" d="M225.288,154.553a39.41,39.41,0,0,0-1.793-5.386,2.2,2.2,0,0,0-.92-1.195,2,2,0,0,0-2.736.718,1.932,1.932,0,0,0-.2,1.541,39.265,39.265,0,0,1,1.794,5.385,2,2,0,1,0,3.857-1.063Z"/><path class="c" d="M215.437,157.139a39.4,39.4,0,0,0-1.793-5.385,2.2,2.2,0,0,0-.92-1.2,2.043,2.043,0,0,0-1.541-.2,2.02,2.02,0,0,0-1.195.919,1.933,1.933,0,0,0-.2,1.541,39.278,39.278,0,0,1,1.794,5.386,2.019,2.019,0,0,0,2.46,1.4,2.04,2.04,0,0,0,1.4-2.46Z"/><path class="d" d="M8.251,134.527c10.038,2.39,35.6,8.787,47.093,12.723,3.544-12.08,7.387-25.22,10.889-37.137-13.348-3.663-33.375-8.889-45.651-11.942C16.567,110,12.292,122.609,8.245,134.532Z"/><path class="b" d="M23.724,88.917A2.787,2.787,0,0,1,27.1,87.123c11.461,3.12,27.9,7.459,39.78,10.682a2.792,2.792,0,0,1,1.948,3.486c-.835,2.833-1.706,5.792-2.6,8.822-13.348-3.663-33.375-8.889-45.651-11.942C21.65,95.024,22.7,91.926,23.724,88.917Z"/><path class="b" d="M3,155.869a2.522,2.522,0,0,1-.841-.992,4.341,4.341,0,0,1,.243-3.139l5.847-17.211c10.043,2.391,35.624,8.793,47.11,12.728l-4.9,16.6c-.4,1.341-1.013,2.9-2.378,3.2a3.922,3.922,0,0,1-1.575-.082A400.794,400.794,0,0,1,5.093,156.786,7.049,7.049,0,0,1,3,155.869Z"/><path class="c" d="M4.039,154.145c-.31-.569.178-1.53.358-2.067.284-.842.572-1.683.858-2.524l1.759-5.181q1.831-5.392,3.661-10.785,3.8-11.188,7.591-22.376l3.833-11.3,1.833-5.4.831-2.449a9.462,9.462,0,0,1,.932-2.679c.7-.815,2.281.046,3.124.274q2.4.651,4.8,1.3,5.2,1.4,10.41,2.789,10.361,2.77,20.719,5.554c1.042.282,2.4.3,2.094,1.645-.378,1.67-.977,3.319-1.461,4.963q-1.536,5.22-3.067,10.441-6.255,21.319-12.509,42.639c-.456,1.547-.879,3.108-1.373,4.643-.128.395-.324,1.178-.705,1.412s-1.56-.169-2.121-.278q-6.187-1.2-12.336-2.593-12.294-2.787-24.4-6.344-1.4-.411-2.788-.831c-.552-.167-1.668-.344-2.05-.853a2.064,2.064,0,0,0-2.737-.717,2.014,2.014,0,0,0-.717,2.736C1.841,157.837,3.55,158.412,5.49,159q3.366,1.012,6.75,1.964,6.651,1.872,13.363,3.514,6.594,1.612,13.239,3c2.294.479,4.591.945,6.894,1.377,1.993.374,3.831.277,5.189-1.411a13.543,13.543,0,0,0,1.987-4.836q.764-2.586,1.525-5.173,1.653-5.62,3.3-11.243Q61.2,134.395,64.654,122.6q1.712-5.84,3.427-11.679.836-2.844,1.672-5.688c.485-1.645,1.325-3.478,1.148-5.217-.425-4.178-5.185-4.6-8.424-5.47q-5.694-1.533-11.393-3.053Q39.954,88.515,28.83,85.52c-1.806-.49-3.542-.781-5.183.361S21.585,89,20.975,90.8q-2.013,5.926-4.024,11.854Q8.845,126.547.737,150.436c-.657,1.934-1.191,3.817-.152,5.728C1.815,158.426,5.27,156.41,4.039,154.145Z"/><path class="c" d="M7.72,136.456c12.658,3.015,25.292,6.22,37.792,9.84,3.123.9,6.24,1.838,9.317,2.888,2.442.833,3.49-3.029,1.064-3.857-12.591-4.3-25.634-7.426-38.535-10.636q-4.283-1.065-8.575-2.092c-2.5-.6-3.57,3.26-1.063,3.857Z"/><path class="c" d="M20.019,100.193c12.189,2.905,24.311,6.131,36.409,9.395,3.086.833,6.17,1.674,9.247,2.544,2.481.7,3.54-3.157,1.063-3.857-12.425-3.512-24.935-6.752-37.453-9.913-2.731-.69-5.463-1.373-8.2-2.027-2.5-.6-3.57,3.26-1.063,3.858Z"/><path class="c" d="M14.96,151.054a39.278,39.278,0,0,1,1.794-5.386,2,2,0,0,0-.2-1.541,2,2,0,0,0-2.736-.718l-.405.313a2,2,0,0,0-.514.883A39.265,39.265,0,0,0,11.1,149.99a2.09,2.09,0,0,0,.2,1.541,2,2,0,0,0,3.655-.477Z"/><path class="c" d="M23.887,152.973a39.261,39.261,0,0,1,1.793-5.385,2,2,0,0,0-.2-1.541,2,2,0,0,0-2.737-.718l-.405.313a2.005,2.005,0,0,0-.514.882,39.139,39.139,0,0,0-1.793,5.386,2.09,2.09,0,0,0,.2,1.541,2,2,0,0,0,3.656-.478Z"/><path class="c" d="M33.712,155.616a39.4,39.4,0,0,1,1.793-5.385,2,2,0,0,0-.2-1.541,2,2,0,0,0-2.737-.718l-.4.313a1.992,1.992,0,0,0-.515.882,39.274,39.274,0,0,0-1.793,5.386,2.09,2.09,0,0,0,.2,1.541,2,2,0,0,0,3.656-.478Z"/><path class="c" d="M43.563,158.2a39.41,39.41,0,0,1,1.793-5.386,2,2,0,0,0-.2-1.541,2,2,0,0,0-2.737-.718l-.4.313a2,2,0,0,0-.515.883,39.261,39.261,0,0,0-1.793,5.385,2.09,2.09,0,0,0,.2,1.541,2,2,0,0,0,3.656-.477Z"/></svg>