<svg xmlns="http://www.w3.org/2000/svg" width="325.724" height="315.692" viewBox="0 0 325.724 315.692" style="color: initial !important;"><defs><style>.a{fill:#ffda71;}.b{fill:#211715;}.c{fill:#ffffff;}.d{fill:#b3b3b3;}.e{fill:#f2635f;}</style></defs><path class="a" d="M255.483,211.369A33.387,33.387,0,0,0,242.5,224.9a34.67,34.67,0,0,0,.373,31.6c4.821,8.952,12.286,15.569,14,25.449l1.4,8.107h31.207l1.4-8.107c1.71-9.88,9.175-16.5,14-25.449a34.667,34.667,0,0,0,.373-31.6c-5.813-11.431-18.53-18.57-31.375-18.57A36.633,36.633,0,0,0,255.483,211.369Z"/><path class="b" d="M259.179,281.31c-1.184-6.521-4.874-12-8.62-17.321-3.806-5.4-7.359-10.778-8.684-17.36a31.211,31.211,0,0,1,13.318-32.258,34.086,34.086,0,0,1,33.521-2.186,32.079,32.079,0,0,1,13,11.37,32.3,32.3,0,0,1,2.252,29.342,52.756,52.756,0,0,1-5.426,9.161c-4.155,5.98-8.643,11.911-9.976,19.252a2.467,2.467,0,0,0,1.676,2.953,2.421,2.421,0,0,0,2.952-1.677c1.21-6.664,5.242-12.035,9.041-17.459,4.127-5.893,7.575-12.017,8.609-19.243a37.465,37.465,0,0,0-3.073-21.269,35.448,35.448,0,0,0-12.951-14.489,38.969,38.969,0,0,0-37.713-2.326,36.945,36.945,0,0,0-14.716,12.565,35.849,35.849,0,0,0-5.917,19.971,38.3,38.3,0,0,0,6.16,20.506c3.5,5.567,8.165,10.67,10.555,16.872a26.9,26.9,0,0,1,1.364,4.872,2.421,2.421,0,0,0,2.952,1.677,2.453,2.453,0,0,0,1.676-2.953Z"/><path class="c" d="M260.216,306.692a17.325,17.325,0,0,1-2.694-9.447v-5.587a1.6,1.6,0,0,1,1.6-1.6h29.5a1.6,1.6,0,0,1,1.6,1.6v5.586c-.069,9.661-6.508,15.952-16.35,15.952C267.94,313.2,263.058,311.034,260.216,306.692Z"/><path class="b" d="M262.289,305.48c-2.152-3.379-2.367-6.982-2.367-10.855v-1.8a3.4,3.4,0,0,0,0-.924v-.24a.8.8,0,0,1-.8.8c.01.02.2,0,.221,0a9.079,9.079,0,0,0,1.76,0h26.369c.118,0,1.062.1,1.136,0-.6.823-.623-1.471-.785-.526a11.041,11.041,0,0,0,0,1.791c0,1.163.011,2.327,0,3.49a14.115,14.115,0,0,1-3.113,9.207c-5.374,6.07-17.639,6.176-22.42-.937-1.715-2.55-5.875-.15-4.145,2.423,5.585,8.308,18.379,10.11,26.635,4.728a17.122,17.122,0,0,0,7.337-10.778,44.126,44.126,0,0,0,.506-9.734c-.028-2.408-1.47-4.347-4.007-4.464-.4-.018-.8,0-1.2,0h-25.9c-.739,0-1.483-.021-2.222,0-2.623.077-4.136,1.948-4.174,4.483-.083,5.5-.046,10.948,3.022,15.765C259.8,310.5,263.955,308.1,262.289,305.48Z"/><path class="b" d="M260.519,302.2h26.706c3.088,0,3.094-4.8,0-4.8H260.519c-3.089,0-3.094,4.8,0,4.8Z"/><path class="b" d="M275.324,251.15c-1.912-1.329-5.537-3.923-7.657-5.522,4.589-4.857,10.11-10.533,15.066-15.619-3.066,4.864-5.922,9.039-9.088,13.654,2.9,1.353,7.09,3.126,9.82,4.34-5.931,5.393-12.217,11.01-18.207,16.36C268.056,260.585,274.858,251.748,275.324,251.15Z"/><path class="b" d="M276.535,249.077c-2.582-1.8-5.142-3.631-7.657-5.521l.486,3.769c4.97-5.256,10.018-10.438,15.066-15.619l-3.769-2.909c-2.921,4.624-6,9.145-9.088,13.655a2.409,2.409,0,0,0,.861,3.284c3.246,1.506,6.548,2.888,9.819,4.339l-.486-3.77q-9.055,8.233-18.206,16.36l3.769,2.909c1.912-2.578,3.863-5.126,5.813-7.675q1.352-1.767,2.706-3.53l1-1.294c.073-.1.449-.582.154-.2-.271.351-.044.057.022-.028a2.479,2.479,0,0,0,0-3.394,2.415,2.415,0,0,0-3.394,0c-3.526,4.529-7.022,9.088-10.442,13.7a2.378,2.378,0,0,0,.618,3.1,2.428,2.428,0,0,0,3.152-.187q9.129-8.152,18.207-16.36a2.415,2.415,0,0,0-.486-3.77c-3.271-1.45-6.573-2.833-9.82-4.339l.861,3.284c3.093-4.51,6.168-9.031,9.088-13.655,1.46-2.311-1.872-4.855-3.769-2.908-5.048,5.181-10.1,10.363-15.066,15.619a2.445,2.445,0,0,0,.485,3.77c2.515,1.89,5.076,3.723,7.658,5.521a2.421,2.421,0,0,0,3.283-.861A2.449,2.449,0,0,0,276.535,249.077Z"/><path class="c" d="M34.575,312h71.81V216.218a8.683,8.683,0,0,0-8.685-8.683H43.26a8.684,8.684,0,0,0-8.685,8.685Z"/><path class="b" d="M44.177,298.582H96.784c3.088,0,3.093-4.8,0-4.8H44.177c-3.089,0-3.094,4.8,0,4.8Z"/><path class="b" d="M34.575,314.4h71.81a2.435,2.435,0,0,0,2.4-2.4V221.21c0-3.852.418-7.9-1.927-11.226a11.32,11.32,0,0,0-9.159-4.849c-.444-.007-.888,0-1.331,0H59.526c-5.419,0-10.847-.092-16.266,0a11.252,11.252,0,0,0-11.085,11.219c-.016,1.313,0,2.627,0,3.941V312c0,3.089,4.8,3.094,4.8,0V218.428a14.189,14.189,0,0,1,.288-4.092,6.329,6.329,0,0,1,6-4.4c.416-.007.832,0,1.249,0H80.387c5.745,0,11.5-.082,17.24,0a6.374,6.374,0,0,1,5.271,2.741,7.079,7.079,0,0,1,1.087,4.189V312l2.4-2.4H34.575C31.487,309.6,31.481,314.4,34.575,314.4Z"/><path class="d" d="M91.537,247.631V225.356a1.093,1.093,0,0,0-1.086-1.094H50.509a1.085,1.085,0,0,0-1.086,1.084c0,5.586,0,13.537,0,22.288a1.085,1.085,0,0,0,1.079,1.091H90.457A1.089,1.089,0,0,0,91.537,247.631Z"/><path class="b" d="M93.937,247.631V236.493c0-3.727.267-7.568-.019-11.281-.283-3.673-3.791-3.35-6.425-3.35H54.349c-1.8,0-4.6-.443-6.062.832s-1.264,3.051-1.264,4.812q0,2.343,0,4.687v11.538c0,1.855-.43,4.27.642,5.885,1.024,1.541,2.747,1.509,4.4,1.509h26.3c3.976,0,8,.188,11.977,0a3.635,3.635,0,0,0,3.6-3.494,2.411,2.411,0,0,0-2.4-2.4,2.461,2.461,0,0,0-2.4,2.4c.349-2.632,1.881-1.142.95-1.306a2.549,2.549,0,0,0-.419,0H52.5a6.138,6.138,0,0,0-1.723,0l1.045,1.309v-13.39q0-2.192,0-4.384v-2.18a6.389,6.389,0,0,0,0-2.015c1.035,2.212-2.083.859-1.112,1a5.89,5.89,0,0,0,.786,0h37.45a6.453,6.453,0,0,0,1.5,0c-2.689.734-.967-2.489-1.306-.819a10.3,10.3,0,0,0,0,1.891v19.9C89.137,250.719,93.937,250.724,93.937,247.631Z"/><path class="b" d="M20.723,266.1v11.124c0,4.415,1.187,8.506,4.843,11.258a14.053,14.053,0,0,0,11.374,2.138,11.905,11.905,0,0,0,8.642-7.506c.936-2.5.815-5.184.815-7.81v-8.239c0-3.089-4.8-3.094-4.8,0v6.187a42.779,42.779,0,0,1-.1,6.6,7.931,7.931,0,0,1-1.568,3.7,6.907,6.907,0,0,1-3.11,2.12,9.4,9.4,0,0,1-8.191-.874,6.936,6.936,0,0,1-2.425-2.92,11.763,11.763,0,0,1-.68-4.652V266.1c0-3.089-4.8-3.094-4.8,0Z"/><path class="e" d="M10.692,248.9c1.569.975,3.982,2.4,5.356,3.263a1.5,1.5,0,0,1,.7,1.275c0,5.562-.043,5.266-.049,11.342a1.506,1.506,0,0,0,1.489,1.508c2.7.021,5.4.09,8.5.111a1.512,1.512,0,0,0,1.512-1.513c0-9.412-.044-11.422-.047-19.564a1.5,1.5,0,0,0-1.05-1.436c-3.169-.985-8.7-2.626-12.312-3.707a1.491,1.491,0,0,0-1.76.753c-.9,1.764-2.047,4.1-2.929,6.083A1.5,1.5,0,0,0,10.692,248.9Z"/><path class="b" d="M9.48,250.968c1.3.8,2.615,1.588,3.923,2.382a4.751,4.751,0,0,0,.909.555l.272.168a.575.575,0,0,0-.232-.64,22.867,22.867,0,0,1-.005,2.3c-.007,2.067-.029,4.133-.037,6.2-.006,1.49-.278,3.27.437,4.641.983,1.885,2.812,2.1,4.726,2.127,1.616.02,3.232.051,4.849.073,1.815.025,3.72.256,5.134-1.12,1.392-1.353,1.147-3.321,1.145-5.083q0-2.245-.01-4.49-.011-3.527-.025-7.053-.006-1.848-.008-3.7c0-1.934.133-3.988-1.689-5.2a13.473,13.473,0,0,0-3.617-1.319q-2.227-.676-4.456-1.341c-1.682-.5-3.357-1.046-5.05-1.508a4.075,4.075,0,0,0-4.956,2.1c-.882,1.614-1.653,3.312-2.416,4.986-.86,1.888-1.278,4.085.621,5.553a2.479,2.479,0,0,0,3.394,0,2.416,2.416,0,0,0,0-3.394c-.729-.563.1.571-.028.532l-.016.115q.175-.387.352-.772.413-.893.841-1.779t.854-1.741c.15-.3.3-.6.454-.9q.129-.256.26-.512-1.512.232-.793.4a15.506,15.506,0,0,0,3.308.989q1.9.568,3.808,1.139,1.611.484,3.222.974c.273.083,1.339.576,1.54.472V246.1a.958.958,0,0,0-.435-.779,6.625,6.625,0,0,0,0,1.236q0,3.115.015,6.229.011,2.895.021,5.791,0,1.784.007,3.566,0,1.008,0,2.016v.238q-.093,1.053.26-.138l.629-.261-.965-.008c-1.364-.014-2.728-.037-4.093-.058q-1.08-.018-2.16-.032a8.13,8.13,0,0,0-.854-.01q-.8-.084-.105.125a.685.685,0,0,1,.589.764c-.232-.061.021-5.287.026-5.975q.01-1.379.017-2.756c.006-1.428.254-3.115-.443-4.416-.677-1.265-2.023-1.9-3.2-2.621-1.2-.726-2.4-1.446-3.6-2.184C9.268,245.194,6.855,249.344,9.48,250.968Z"/><path class="b" d="M12.379,241.2,3.023,237.8a2.413,2.413,0,0,0-2.952,1.676,2.464,2.464,0,0,0,1.676,2.953L11.1,245.83a2.412,2.412,0,0,0,2.952-1.676,2.463,2.463,0,0,0-1.676-2.953Z"/><path class="a" d="M261.063,98.645l-.019-.045a18.889,18.889,0,0,1-.924-2.513,19.18,19.18,0,0,1-.5-2.749,15.976,15.976,0,0,1-.124-1.632h32.7a17.952,17.952,0,0,1-.721,4.573,14.918,14.918,0,0,1-2.017,4.338,15.677,15.677,0,0,1-12.711,6.919,17.485,17.485,0,0,1-9.646-2.186A14.873,14.873,0,0,1,261.063,98.645Z"/><path class="b" d="M273.455,2.318V28.374c0,3.089,4.8,3.094,4.8,0V2.318c0-3.088-4.8-3.093-4.8,0Z"/><path class="b" d="M273.4,120.3v8.967a2.4,2.4,0,0,0,4.8,0V120.3a2.4,2.4,0,0,0-4.8,0Z"/><path class="b" d="M258.748,118.541l-3.466,7.007a2.56,2.56,0,0,0-.242,1.849,2.4,2.4,0,0,0,4.387.574l3.466-7.007a2.56,2.56,0,0,0,.242-1.849,2.4,2.4,0,0,0-4.387-.574Z"/><path class="b" d="M288.71,120.964l3.564,7.206a2.416,2.416,0,0,0,3.284.861,2.46,2.46,0,0,0,.861-3.284l-3.565-7.206a2.415,2.415,0,0,0-3.283-.861,2.46,2.46,0,0,0-.861,3.284Z"/><path class="c" d="M275.872,39.586c-26.083-.365-44.5,22.345-47.495,50.928a1.087,1.087,0,0,0,1.081,1.192h92.827a1.087,1.087,0,0,0,1.081-1.192C320.373,61.931,301.954,39.221,275.872,39.586Z"/><path class="b" d="M275.872,37.186a44.681,44.681,0,0,0-30.548,11.73c-8.66,7.849-14.342,18.683-17.265,29.9a78.149,78.149,0,0,0-1.82,9.5c-.237,1.8-.563,3.56.943,4.918a3.7,3.7,0,0,0,2.375.87c1.77.085,3.564,0,5.334,0h85.6c.567,0,1.142.029,1.708,0a3.735,3.735,0,0,0,2.588-1.06c1.359-1.424.908-3.3.674-5.047-1.609-12-5.965-23.648-13.529-33.179-6.835-8.612-16.552-15-27.458-16.918a46.719,46.719,0,0,0-8.6-.716c-3.087.031-3.1,4.831,0,4.8a39.714,39.714,0,0,1,27.5,10.641c7.98,7.381,13.1,17.363,15.773,27.813a70.522,70.522,0,0,1,1.653,8.607,6.787,6.787,0,0,0,.128,1.1l.04.368q2.212-1.209,1.312-1.208c-.024-.007-.054.006-.079,0a2.958,2.958,0,0,0-.6,0H230.075a2.716,2.716,0,0,0-.518,0c-.028.006-.064-.008-.092,0h0q1.359,2.222,1.357.84a9.106,9.106,0,0,0,.174-1.464c2.747-20.715,15.412-42.16,37.4-46.124a39.824,39.824,0,0,1,7.484-.572C278.961,42.017,278.964,37.217,275.872,37.186Z"/><path class="b" d="M289.8,91.7a13.5,13.5,0,0,1-14.347,13.461,13.874,13.874,0,0,1-9.68-3.855A14.113,14.113,0,0,1,261.9,91.7c-.111-3.08-4.912-3.095-4.8,0,.277,7.71,4.556,14.494,11.94,17.145,7.055,2.531,15.655.816,20.747-4.792A19.238,19.238,0,0,0,294.6,91.7c.129-3.089-4.671-3.083-4.8,0Z"/><path class="c" d="M54.348,31.105c-.51.93-1.01,1.85-1.52,2.77a4.846,4.846,0,0,1-2.8,2.3l-15.32,4.87a4.951,4.951,0,0,0-.94.41l-.04-.36c-.32-2.47-1.2-8.18-1.4-9.97a2.174,2.174,0,0,1,1.62-2.36L49.5,24.6a2.2,2.2,0,0,1,2.6,1.23C52.838,27.585,53.6,29.355,54.348,31.105Z"/><path class="b" d="M9.694,74.691A5.778,5.778,0,0,1,6.4,71.733a6.232,6.232,0,0,1,.1-5.157c2.086-4.485,8.217-8.582,10.369-9.786-.442,5.88,1.723,10.908.916,14.154a5.139,5.139,0,0,1-4.038,4.049A7.455,7.455,0,0,1,9.694,74.691Z"/><path class="e" d="M112.8,121.282H36.183a4.867,4.867,0,0,1-4.868-4.868V45.684a4.867,4.867,0,0,1,3.394-4.639l15.324-4.868a4.87,4.87,0,0,0,2.8-2.3c2.372-4.327,4.694-8.689,7.056-12.967a4.863,4.863,0,0,1,4.262-2.5h42.021a4.853,4.853,0,0,1,4.036,2.147c3.043,4.529,6.7,9.907,9.836,14.51a4.858,4.858,0,0,1,.842,2.737v78.612a4.867,4.867,0,0,1-4.868,4.868Z"/><path class="b" d="M112.8,118.882H45.636c-3.127,0-6.335.213-9.453,0-3.173-.217-2.468-4.08-2.468-6.3V49.16c0-2.062-.579-4.989,1.83-5.864,4.694-1.7,9.557-3.036,14.317-4.548a9.91,9.91,0,0,0,3-1.379c2.346-1.738,3.513-4.98,4.867-7.482q1.055-1.947,2.11-3.895a31.749,31.749,0,0,1,2.3-4.171,2.612,2.612,0,0,1,2.182-1.013c9.89-.115,19.787,0,29.678,0,3.949,0,7.9-.034,11.848,0a2.8,2.8,0,0,1,1.9.563,13.261,13.261,0,0,1,2.03,2.842q1.237,1.833,2.478,3.663,2.373,3.5,4.755,7c.651.956,1.449,1.832,1.469,3.032.125,7.253,0,14.519,0,21.773V110.82c0,1.851.117,3.745,0,5.594-.191,3.031-3.525,2.468-5.683,2.468-3.088,0-3.093,4.8,0,4.8,1.071,0,2.146.032,3.215,0a7.4,7.4,0,0,0,6.382-3.79,9.083,9.083,0,0,0,.886-4.42V39.809c0-.657.021-1.318,0-1.975-.071-2.284-1.122-3.91-2.367-5.739q-2.511-3.69-5.015-7.384-1.23-1.815-2.456-3.632a15.148,15.148,0,0,0-2.535-3.3,7.659,7.659,0,0,0-4.864-1.77c-1.228-.03-2.46,0-3.688,0h-34.4c-1.233,0-2.47-.029-3.7,0a7.574,7.574,0,0,0-4.708,1.656,10.455,10.455,0,0,0-2.443,3.321Q55.927,23.139,54.76,25.3t-2.347,4.334c-.633,1.167-1.2,2.8-2.18,3.722a4.88,4.88,0,0,1-1.952.861L40.2,36.783c-2.035.646-4.094,1.242-6.112,1.941a7.493,7.493,0,0,0-5.175,7.218c-.026,2.864,0,5.728,0,8.592V90.917c0,8.422-.086,16.85,0,25.272a7.375,7.375,0,0,0,5.774,7.329,23.507,23.507,0,0,0,4.479.164H112.8C115.891,123.682,115.9,118.882,112.8,118.882Z"/><path class="b" d="M52.329,60.242l44.148,44.845,3.394-3.394-1.1-1.116c-2.17-2.2-5.564,1.19-3.394,3.394l1.1,1.116c2.17,2.2,5.564-1.19,3.394-3.394L55.723,56.848c-2.17-2.2-5.564,1.19-3.394,3.394Z"/><path class="b" d="M96.826,57.2,51.98,101.344l3.394,3.394,1.117-1.1c2.2-2.17-1.19-5.564-3.394-3.394l-1.117,1.1c-2.2,2.171,1.19,5.564,3.394,3.394L100.22,60.59c2.2-2.17-1.19-5.564-3.394-3.394Z"/><path class="b" d="M67.531,31.605H95.184c3.089,0,3.094-4.8,0-4.8H67.531c-3.089,0-3.094,4.8,0,4.8Z"/><path class="b" d="M36.125,41.091c-.2-1.567-.43-3.131-.656-4.695q-.18-1.24-.359-2.479-.078-.543-.155-1.085c-.029-.208-.059-.416-.087-.625-.009-.06-.094-.686-.049-.352.035.265-.056-.427-.065-.513-.021-.2.049-.527-.053-.4s-.145.124,0,.1a16.475,16.475,0,0,0,1.641-.439L48.9,27.24a10.855,10.855,0,0,1,1.231-.33.209.209,0,0,1-.241-.13c.306.579.534,1.2.79,1.807q.823,1.938,1.655,3.874a2.415,2.415,0,0,0,3.284.861,2.464,2.464,0,0,0,.861-3.284q-.791-1.839-1.573-3.68a7.726,7.726,0,0,0-1.818-3.109,4.827,4.827,0,0,0-4.5-.9c-1.913.484-3.814,1.022-5.72,1.533L35.359,25.9c-2.314.62-4.744,1.248-5.337,4.013-.382,1.785.264,3.928.521,5.707q.231,1.605.464,3.209.1.673.192,1.348c.029.2.057.405.085.607.086.623-.012-.1.041.308a2.478,2.478,0,0,0,2.4,2.4,2.413,2.413,0,0,0,2.4-2.4Z"/><path class="b" d="M10.332,72.377c-.381-.147.508.264.108.048-.144-.078-.3-.143-.439-.223-.168-.093-.327-.2-.488-.3-.454-.3.2.274-.192-.171a3.407,3.407,0,0,1-1.032-2.166,3.159,3.159,0,0,1,.142-1.286,6.967,6.967,0,0,1,.221-.678c-.134.351-.013.039.078-.131a12.45,12.45,0,0,1,1.454-2.2,27.353,27.353,0,0,1,7.9-6.407L14.47,56.79a33.936,33.936,0,0,0,.458,7.284c.144.966.311,1.928.454,2.895.017.113.079.585.037.253q.046.365.081.731c.04.419.067.839.067,1.26,0,.179,0,.359-.012.538-.006.109-.12.734,0,.173a10.031,10.031,0,0,1-.284,1.063c-.183.564.193-.229-.122.253-.1.153-.185.315-.287.467-.132.2.21-.164-.1.106-.025.021-.549.472-.185.2a3.264,3.264,0,0,1-2.082.742,4.9,4.9,0,0,1-2.157-.38A2.422,2.422,0,0,0,7.38,74.053a2.449,2.449,0,0,0,1.676,2.952c4.733,1.706,10.239-.751,11.14-5.9a20.413,20.413,0,0,0-.4-6.747,32.938,32.938,0,0,1-.531-7.564,2.421,2.421,0,0,0-3.612-2.073,31.118,31.118,0,0,0-10.183,8.86A9.479,9.479,0,0,0,3.8,71.586a8.325,8.325,0,0,0,5.26,5.419,2.419,2.419,0,0,0,2.953-1.676A2.454,2.454,0,0,0,10.332,72.377Z"/></svg>