<svg id="b" xmlns="http://www.w3.org/2000/svg" width="365.105" height="338.181" viewBox="0 0 365.105 338.181" style="color: initial !important;"><defs><style>.d{fill:#febe69;}.d,.e,.f,.g,.h{stroke-width:0px;}.e{fill:#211715;}.f{fill:#645d5c;}.g{fill:#ffffff;}.h{fill:#3d8dcc;}</style></defs><g id="c"><path class="g" d="M69.824,315.259c.001-7.06.005-21.627.005-26.636,0-2.36,1.33-3.795,3.652-3.795h14.639c.37,0,.693-.253.781-.612,2.977-12.142,5.947-24.475,7.671-30.938.412-1.54,1.793-2.612,3.365-2.612h4.995c-3.805,12.271-13.044,49.981-17.247,66.213-.197.758-1.292,1.329-2.064,1.329,0,0-9.692,0-15.798,0,0-.685,0-1.699,0-2.949Z"/><path class="g" d="M62.281,316.774c.691-.055,1.321-.116,1.851-.182.926-.116,1.633-1.234,2.131-2.046.462-.752.601-1.519.625-2.407.031-1.188-.402-3.164-1.557-4.611-.012.233-.025.456-.036.668-3.562.012-8.316,0-11.146,0-1.534.939-3.418,2.287-4.183,3.198-.592.704-.861,2.084-.698,2.933.072.375.376,1.029.673,1.3.833.761,2.106,1.484,3.52,1.484,2.416,0,6.099-.119,8.821-.335Z"/><path class="g" d="M66.403,284.819c6.197-.108,10.428-.108,17.149-.159,1.786-.011,3.645.114,5.339-.387.367-1.503.735-3.01,1.101-4.504-.396-.023-.785-.061-1.174-.098-1.947-.192-3.894-.384-5.841-.571-1.31-.131-2.63-.262-3.889-.679-.655-.22-1.315-.534-1.783-1.091-.763-.913-.866-2.265-.88-3.501-.008-.761-.069-1.768-.136-2.854-6.028,1.395-11.719,2.769-18.936,4.3-1.853.393-3.175,1.857-3.586,3.458-.677,1.256.22,28.337.22,28.337l.037,1.124c2.809-.001,7.656.012,11.272,0,.312-5.572.817-18.559.999-23.366"/><path class="g" d="M73.118,227.779c.419-1.024.338-2.393.276-3.469-.072-.537-.108-1.047-.112-1.531,1.796.328,4.095.707,4.632.833,1.111.261,2.045.34,2.665,1.265.466.642,1.627,3.362,2.705,5.609.145.316.537.966.997,1.051,0,0,1.061.489,1.924.108.34-.15.711-.296,1.102-.438.308.742-2.665,4.705-4.415,6,0,0,0,.114,0,.271-.488.165-.893.306-1.18.41l-1.894-1.004c-1,.367-2.595.354-3.788.032-.609-.164-1.215-.536-1.735-1.341-.245-.376-.455-.895-.626-1.432-.26-.816-.432-1.678-.502-2.173-.134-.355-.323-.679-.618-.945-.444-.402-1.129-.686-.861-1.476.102-.298.327-.534.592-.708.395-.261.662-.632.839-1.064Z"/><path class="f" d="M24.23,301.29c-10.273,0-17.375,7.957-17.375,17.268,0,10.418,7.254,17.592,17.375,17.592,10.511,0,17.375-7.241,17.375-17.592,0-9.374-7.138-17.268-17.376-17.268Z"/><path class="g" d="M24.23,311.142c-4.466,0-7.554,3.459-7.554,7.507,0,4.529,3.154,7.648,7.554,7.648,4.57,0,7.554-3.148,7.554-7.648,0-4.075-3.103-7.507-7.554-7.507Z"/><path class="e" d="M24.23,299.29c-8.403.078-15.879,5.217-18.463,13.304-2.391,7.484-.134,16.54,6.13,21.457s15.713,5.473,22.607,1.515c7.015-4.027,10.005-12.406,8.841-20.173-1.418-9.46-9.718-16.017-19.114-16.104-2.575-.024-2.577,3.976,0,4,6.705.062,12.738,4.115,14.698,10.648,1.764,5.88.2,13.012-4.665,16.973-4.839,3.94-12.55,4.303-17.938,1.314-5.602-3.107-8.208-9.697-7.326-15.914,1.087-7.662,7.612-12.951,15.231-13.022,2.573-.024,2.579-4.024,0-4Z"/><path class="e" d="M24.23,309.142c-4.177.054-7.857,2.619-9.125,6.64-1.164,3.689.015,8.106,3.093,10.501s7.663,2.683,11.057.742c3.507-2.005,4.963-6.146,4.38-10.011-.699-4.632-4.829-7.814-9.405-7.873-2.575-.033-2.576,3.967,0,4,.22.003.438.016.657.025.631.028-.295-.088.311.039.336.07.668.147.995.254.453.149,1.012.416,1.609.878-.307-.238.172.165.186.177.094.086.185.175.274.267.133.137.26.279.383.425-.216-.257.042.056.089.127.195.295.36.598.533.906.027.047.161.347.034.049.101.237.181.486.252.733.09.314.166.636.211.959-.049-.355,0,.076.003.163.005.169.016.337.017.506,0,.344-.018.687-.054,1.029.043-.406-.042.226-.048.252-.044.221-.097.439-.158.655-.043.151-.09.301-.142.45-.015.043-.262.588-.077.207-.132.272-.271.538-.433.794-.08.126-.163.249-.251.369-.194.266.312-.311-.074.081-.251.254-.487.508-.761.739.327-.276-.124.082-.167.111-.1.066-.202.13-.305.19-.157.092-.32.171-.48.258-.502.274.206-.067-.115.055-.327.124-.66.226-1,.305-.128.03-.256.052-.384.08-.24.039-.261.044-.064.016-.136.015-.273.027-.409.036-.348.023-.699.027-1.047.011-.203-.009-.407-.023-.608-.049.097.013.323.071-.057-.018-.346-.08-.688-.153-1.026-.266-.149-.05-.298-.101-.442-.162.363.154-.207-.118-.276-.155-.292-.16-.58-.337-.843-.541.275.214.028.015-.016-.03-.128-.127-.266-.244-.392-.374-.105-.109-.204-.222-.303-.336-.222-.255.237.379-.077-.099-.204-.311-.383-.627-.562-.953-.276-.502.091.334-.096-.216-.041-.121-.086-.241-.125-.364-.119-.377-.21-.763-.272-1.153.015.094.022.334-.005-.078-.014-.21-.031-.42-.035-.631-.004-.172-.003-.345.004-.517.003-.079.066-.741.013-.36.218-1.561.764-2.53,1.77-3.463.013-.012.491-.418.185-.179.151-.118.316-.226.479-.329.165-.104.335-.201.508-.292.044-.023.549-.25.244-.126.377-.152.773-.266,1.171-.351.43-.092.563-.098,1.177-.106,2.572-.033,2.579-4.033,0-4Z"/><path class="e" d="M49.418,267.83l3.589,1.148,1.832.586c.22.07.432.16.661.2,1.131.2,2.223-.051,3.078-.843,1.728-1.602,1.501-4.869-.776-5.87-.51-.224-.981-.356-1.541-.202-.464.128-.967.486-1.195.919-.458.867-.305,2.287.718,2.736.064.028.128.066.192.092.191.077.006.183-.155-.136.018.035.079.075.106.105.163.177-.268-.369-.135-.17.224.335-.117-.382-.029-.075.061.215-.093.054-.023-.239-.009.037-.01.166.002.201-.106-.305.101-.442.028-.227-.017.051-.058.157-.061.202.001-.018.198-.37.083-.219-.05.065-.199.279.006.028.197-.242.071-.086.023-.042-.236.22.181-.133.18-.125-.002.021-.172.089-.163.093.005.003.483-.197.218-.108-.301.101.266-.071.258-.033-.004.019-.196-.021-.188-.004-.029-.06.487.134.293.032-.055-.029-.131-.035-.192-.057-.066-.023-.129-.05-.195-.073-.15-.053-.304-.097-.455-.146l-3.934-1.259-1.162-.372c-.997-.319-2.227.373-2.46,1.397-.249,1.093.33,2.119,1.397,2.46h0Z"/><path class="e" d="M50.959,264.174c-1.288-.55-2.575-1.101-3.863-1.651-.257-.11-.528-.207-.756-.372l.405.313c-.104-.083-.195-.173-.278-.276l.313.405c-.077-.105-.14-.214-.192-.333l.202.478c-.048-.122-.081-.244-.103-.373l.071.532c-.019-.156-.019-.307,0-.463l-.071.532c.026-.163.069-.315.133-.467l-.202.478c.063-.136.135-.264.224-.386l-.313.405c.083-.106.173-.2.277-.285l-.405.313c.1-.075.204-.136.319-.187l-.478.202c.114-.044.228-.073.35-.091l-.532.071c.124-.012.245-.011.369.003l-.532-.071c.153.023.296.063.439.118l-.478-.202c.711.305,1.412.635,2.117.954l-.405-.313.005.005c.741.741,2.098.796,2.828,0s.791-2.038,0-2.828c-.324-.324-.735-.464-1.142-.648l-1.162-.524c-.252-.114-.504-.235-.764-.325-.6-.21-1.222-.204-1.839-.093-1.257.227-2.139,1.266-2.564,2.407-.199.534-.215,1.106-.14,1.662.096.712.387,1.304.845,1.855.318.383.738.661,1.191.855l2.165.926c.648.277,1.296.554,1.945.831.515.22.976.357,1.541.202.464-.128.967-.486,1.195-.919.245-.464.368-1.026.202-1.541-.149-.46-.454-.996-.919-1.195h0Z"/><path class="e" d="M45.638,264.578c-1.415,2.27-2.894,4.5-4.309,6.77-.554.889-.219,2.242.718,2.736.981.519,2.145.232,2.736-.718,1.415-2.27,2.894-4.5,4.309-6.77.554-.889.219-2.242-.718-2.736-.982-.519-2.145-.231-2.736.718h0Z"/><path class="g" d="M62.893,259.205c-2.079-1.075-3.967-2.174-5.328-2.938-.904-.512-2.054-.864-3.088-.919-1.26-.07-2.591.532-3.515,1.386-.999.924-1.506,1.416-2.149,2.686-.352.542-.718,1.913-.608,2.335.1.377,1.376,1.542,1.381,1.542.21.181.934.752,1.535,1.21.527.401,1.162.634,1.824.659,2.066.08,6.544.091,7.975.014"/><path class="e" d="M63.902,257.478c-1.201-.624-2.387-1.276-3.566-1.941-1.065-.601-2.102-1.236-3.252-1.665-2.778-1.037-5.559-.383-7.708,1.608-1.649,1.528-3.063,3.608-3.184,5.924-.09,1.719,1.545,2.983,2.775,3.947.726.569,1.386,1.117,2.258,1.443.73.273,1.513.356,2.281.456,1.434.186,2.88.251,4.323.338,1.079.065,2-.965,2-2,0-1.137-.917-1.935-2-2-1.063-.064-2.128-.115-3.189-.212-.809-.074-1.626-.053-2.307-.456-.471-.279-.936-.681-1.404-1.101-.182-.163-.357-.336-.529-.51-.111-.112-.217-.229-.327-.343-.31-.321.034.141-.068-.068.077.157.094.327.154.484.085.222.053.152.033.021.008.055-.091.339-.011.124.031-.082.038-.184.059-.27.046-.187.11-.367.162-.552.097-.343-.096.141.102-.215.221-.397.428-.796.693-1.167-.181.254.082-.091.151-.168.15-.166.308-.324.469-.48.623-.606,1.093-1.026,1.852-1.239.077-.022.564-.1.361-.085.226-.017.463-.012.688.016.27.034.919.207,1.303.362.81.327,1.695.924,2.504,1.379,1.11.625,2.228,1.237,3.359,1.824.958.498,2.172.247,2.736-.718.525-.898.245-2.237-.718-2.736h0Z"/><path class="e" d="M147.388,300.014c5.438,3.486,8.944,9.419,9.539,15.839.1,1.076.848,2,2,2,1.004,0,2.1-.918,2-2-.731-7.887-4.815-14.994-11.52-19.293-2.174-1.393-4.182,2.067-2.019,3.454h0Z"/><path class="f" d="M132.237,301.29c-10.273,0-17.375,7.957-17.375,17.268,0,10.418,7.254,17.592,17.375,17.592,10.511,0,17.375-7.241,17.375-17.592,0-9.374-7.138-17.268-17.376-17.268Z"/><path class="g" d="M132.237,311.142c-4.466,0-7.554,3.459-7.554,7.507,0,4.529,3.154,7.648,7.554,7.648,4.57,0,7.554-3.148,7.554-7.648,0-4.075-3.103-7.507-7.554-7.507Z"/><path class="e" d="M132.237,299.29c-8.403.078-15.879,5.217-18.463,13.304-2.391,7.484-.134,16.54,6.13,21.457s15.713,5.473,22.607,1.515c7.015-4.027,10.005-12.406,8.841-20.173-1.418-9.46-9.718-16.017-19.114-16.104-2.575-.024-2.577,3.976,0,4,6.705.062,12.738,4.115,14.698,10.648,1.764,5.88.2,13.012-4.665,16.973-4.839,3.94-12.55,4.303-17.938,1.314-5.602-3.107-8.208-9.697-7.326-15.914,1.087-7.662,7.612-12.951,15.231-13.022,2.573-.024,2.579-4.024,0-4Z"/><path class="e" d="M132.237,309.142c-4.177.054-7.857,2.619-9.125,6.64-1.164,3.689.015,8.106,3.093,10.501s7.663,2.683,11.057.742c3.507-2.005,4.963-6.146,4.38-10.011-.699-4.632-4.829-7.814-9.405-7.873-2.575-.033-2.576,3.967,0,4,.22.003.438.016.657.025.631.028-.295-.088.311.039.336.07.668.147.995.254.453.149,1.012.416,1.609.878-.307-.238.172.165.186.177.094.086.185.175.274.267.133.137.26.279.383.425-.216-.257.042.056.089.127.195.295.36.598.533.906.027.047.161.347.034.049.101.237.181.486.252.733.09.314.166.636.211.959-.049-.355,0,.076.003.163.005.169.016.337.017.506,0,.344-.018.687-.054,1.029.043-.406-.042.226-.048.252-.044.221-.097.439-.158.655-.043.151-.09.301-.142.45-.015.043-.262.588-.077.207-.132.272-.271.538-.433.794-.08.126-.163.249-.251.369-.194.266.312-.311-.074.081-.251.254-.487.508-.761.739.327-.276-.124.082-.167.111-.1.066-.202.13-.305.19-.157.092-.32.171-.48.258-.502.274.206-.067-.115.055-.327.124-.66.226-1,.305-.128.03-.256.052-.384.08-.24.039-.261.044-.064.016-.136.015-.273.027-.409.036-.348.023-.699.027-1.047.011-.203-.009-.407-.023-.608-.049.097.013.323.071-.057-.018-.346-.08-.688-.153-1.026-.266-.149-.05-.298-.101-.442-.162.363.154-.207-.118-.276-.155-.292-.16-.58-.337-.843-.541.275.214.028.015-.016-.03-.128-.127-.266-.244-.392-.374-.105-.109-.204-.222-.303-.336-.222-.255.237.379-.077-.099-.204-.311-.383-.627-.562-.953-.276-.502.091.334-.096-.216-.041-.121-.086-.241-.125-.364-.119-.377-.21-.763-.272-1.153.015.094.022.334-.005-.078-.014-.21-.031-.42-.035-.631-.004-.172-.003-.345.004-.517.003-.079.066-.741.013-.36.218-1.561.764-2.53,1.77-3.463.013-.012.491-.418.185-.179.151-.118.316-.226.479-.329.165-.104.335-.201.508-.292.044-.023.549-.25.244-.126.377-.152.773-.266,1.171-.351.43-.092.563-.098,1.177-.106,2.572-.033,2.579-4.033,0-4Z"/><path class="g" d="M20.27,287.838c-.088-.159-.171-.315-.257-.474-9.079,5.191-16.263,14.477-17.988,24.261-.504,2.861,1.713,5.483,4.618,5.483h32.566c-6.569-9.085-13.575-19.589-18.938-29.271Z"/><path class="e" d="M41.013,315.108H10.641c-1.844,0-5.028.582-6.232-1.192-.958-1.412-.162-3.376.271-4.844.562-1.906,1.319-3.734,2.249-5.489,2.011-3.792,4.705-7.119,7.873-10.004,1.907-1.737-.928-4.559-2.828-2.828-5.797,5.279-10.584,12.493-11.877,20.343-.593,3.603,1.597,7.253,5.332,7.894.898.154,1.799.121,2.705.121h32.88c2.574,0,2.578-4,0-4h0Z"/><path class="g" d="M131.167,285.062h28.998c.814,0,1.474.66,1.474,1.474v5.11c0,.91-.589,1.677-1.25,2.105,0,0-42.698,25.067-51.587,30.508-.99.606-2.136.899-3.297.899h-57.795c-1.601,0-3.112-.763-4.105-2.087-7.69-10.217-16.751-23.345-23.336-35.234-.356-.646-.702-1.287-1.044-1.924-.477-.88-.585-1.928-.314-2.902,1.745-6.353,4.519-15.499,6.34-21.574,1.921.669,7.115,2.516,9.023,3.181.348.121.72.259.914.533.189.267.165.602.134.913-.547,5.559-1.192,11.11-1.936,16.652-.191,1.426-.389,2.872-.126,4.289.233,1.256.819,2.442,1.4,3.613,4.663,9.396,9.011,17.137,13.648,26.397.365.73,1.104,1.193,1.911,1.193h35.399c.772,0,1.869-.574,2.065-1.329,4.203-16.232,13.441-53.941,17.249-66.214h5.516c-.005,14.263-.005,27.661-.005,32.529,0,1.03.838,1.867,1.872,1.867h18.849Z"/><path class="h" d="M93.881,245.775c-.683-3.459-1.348-4.882-3.005-8.003,0,0-.098-.286-.215-.599-.084-.219-.168-.448-.243-.621,0-.002-.11-1.212-.11-1.212-1.26.226-3.043.433-4.273.789-1.497.434-2.934,1.056-4.325,1.76-.134.239-.155.529-.173.807-.071,1.127-.142,2.253-.214,3.379-1.2,1.336-1.969,2.311-2.862,4.702-.401,1.074-.732,2.184-1.011,3.297-.46,1.837-.777,3.684-1.029,5.392-3.243.478-9.012,1.081-12.402,1.471-.214.025-.384.204-.376.417.054,1.931.226,5.161.509,7.43.024.196.193.343.392.343,4.369.032,7.921-.075,11.716-.485-.401,2.106.138,6.829.163,9.187.014,1.236.117,2.588.88,3.501.468.557,1.128.871,1.783,1.091,1.259.417,2.579.548,3.889.679,1.947.187,3.894.379,5.841.571.264.025.528.051.795.072.078.006.156.012.235.017l4.081-20.753c.15-1.554.295-2.935.37-4.404.15-2.972.164-5.907-.417-8.827Z"/><path class="g" d="M77.821,214.447c-2.553,1.499-3.643,3.541-3.841,4.037-.36.903-.583,1.627-.658,2.56,5.229,1.219,7.222,1.741,8.718,3.033.771.721.986,1.265,1.743,2.386.283-.418.565-.756,1.063-.928.443-.153.889-.133,1.247.084.534.323.83,1.068.854,1.701.041,1.104-.28,1.999-.922,2.713.637,1.294,2.412,2.889,4.103,3.986l.015.01c.368-.546.735-1.091.735-1.091.583-.865,1.016-1.391,1.791-2.392,1.226-1.585,2.762-3.8,2.294-7.764-.259-2.19-1.303-4.337-2.504-5.788-3.09-3.734-6.237-4.155-8.16-4.226s-3.738.388-5.346,1.1c-.406.18-.784.375-1.133.581Z"/><path class="e" d="M85.375,227.631c.115-.148.237-.283.381-.404l-.405.313c.132-.102.269-.181.422-.247l-.478.202c.152-.056.301-.095.461-.119l-.532.071c.124-.011.243-.012.367,0l-.532-.071c.12.019.23.048.343.091l-.478-.202c.101.047.192.1.282.166l-.405-.313c.1.083.187.172.268.273l-.313-.405c.112.153.201.313.275.487l-.202-.478c.079.203.134.408.166.623l-.071-.532c.04.336.027.677-.015,1.013l.071-.532c-.048.335-.134.657-.265.969l.202-.478c-.123.278-.278.535-.464.776l.313-.405c-.214.266-.456.499-.725.71l.405-.313c-.275.209-.567.388-.873.548-.93.484-1.283,1.859-.718,2.736.611.947,1.742,1.235,2.736.718,1.49-.776,2.718-2.081,3.154-3.731.556-2.108-.062-4.785-2.364-5.522-1.345-.431-2.979.12-3.838,1.225-.34.438-.586.834-.586,1.414,0,.491.218,1.076.586,1.414.381.35.882.61,1.414.586.491-.022,1.097-.178,1.414-.586h0Z"/><path class="e" d="M84.414,231.258c.305.528.695,1.014,1.096,1.471.347.396.725.764,1.118,1.115.181.195.396.333.644.414.238.125.495.183.771.172.275.01.532-.047.771-.172.248-.081.463-.219.644-.414.35-.381.61-.882.586-1.414l-.071-.532c-.095-.339-.266-.633-.514-.883-.522-.465-1.018-.962-1.448-1.514l.313.405c-.164-.213-.318-.434-.453-.667-.126-.233-.297-.42-.515-.561-.193-.177-.42-.296-.68-.358-.266-.083-.532-.095-.798-.036-.266.012-.514.091-.744.237-.427.275-.803.685-.919,1.195-.12.527-.074,1.065.202,1.541h0Z"/><path class="e" d="M89.151,231.929c-.282.407-.475.864-.651,1.325-.12.315-.199.642-.249.975-.069.469-.132.935-.127,1.41.005.509.077,1.015.155,1.517.072.463.533.969.919,1.195.429.251,1.061.357,1.541.202.484-.157.951-.457,1.195-.919l.202-.478c.095-.354.095-.709,0-1.063-.011-.069-.021-.138-.03-.208l.071.532c-.067-.54-.074-1.086-.002-1.626l-.071.532c.057-.394.156-.777.31-1.145l-.202.478c.108-.249.238-.484.393-.706.282-.407.329-1.079.202-1.541s-.486-.967-.919-1.195c-.464-.245-1.026-.368-1.541-.202l-.478.202c-.301.178-.54.417-.718.718h0Z"/><path class="e" d="M73.996,223.256c1.162.274,2.324.55,3.472.875.42.119.838.245,1.252.387.188.064.374.132.559.204.082.032.173.081.259.104-.54-.147-.324-.142-.153-.06.282.136.56.274.826.438.119.073.234.152.349.231.285.194-.094-.065-.165-.134.053.051.117.093.173.141.341.296.641.644.938.982.171.194.34.391.505.59.061.074.12.15.182.224.135.159-.317-.429-.058-.072.613.844,1.766,1.343,2.736.718.836-.539,1.375-1.831.718-2.736-1.103-1.517-2.382-2.987-4.108-3.798-2.031-.955-4.25-1.436-6.423-1.949-1.016-.24-2.214.317-2.46,1.397-.233,1.025.308,2.203,1.397,2.46h0Z"/><path class="e" d="M71.319,221.824c-.076,1.032.06,2.033.106,3.06.043.974.108,1.541-.196,2.262.078-.189.064-.18-.042.026.138-.155.128-.147-.031.023.42-.334-.692.574-.482.376-.467.44-.822,1.025-.967,1.651-.32,1.388.4,2.31,1.362,3.165.111.099.262.359.166.116.069.176.067.418.104.602.113.576.257,1.148.443,1.704.414,1.235,1.01,2.375,2.053,3.188,1.703,1.327,4.509,1.483,6.512.816,1.024-.341,1.694-1.379,1.397-2.46-.275-1.001-1.431-1.74-2.46-1.397-.702.234-1.346.264-2.093.168.074.01-.345-.065-.417-.082-.105-.025-.562-.196-.232-.037-.04-.019-.45-.312-.237-.126-.072-.063-.263-.282-.284-.312-.497-.697-.663-1.703-.823-2.525-.2-1.019-.613-1.907-1.428-2.589-.1-.084-.214-.2-.33-.263-.174-.186-.17-.142.013.131.223.3.243.643.06,1.027-.257.232-.306.287-.148.166.164-.118.324-.241.481-.368.117-.103.22-.211.323-.327.638-.721.998-1.623,1.142-2.566.28-1.824-.127-3.606.008-5.429.08-1.079-.976-2-2-2-1.149,0-1.92.918-2,2h0Z"/><path class="e" d="M75.303,222.207c-.013-.645-.002-1.257.161-1.882.076-.291.17-.576.273-.858.055-.151.117-.3.172-.451-.019.052-.262.459-.099.252.555-.708.627-1.077,1.231-1.694,1.907-1.951,4.732-2.925,7.433-2.799,1.86.087,3.899.913,5.482,2.448,2.15,2.085,3.47,5.077,3.031,8.108-.382,2.638-2.395,4.496-3.834,6.598-.61.892-.168,2.219.718,2.736.99.579,2.125.176,2.736-.718,1.704-2.49,3.744-4.557,4.254-7.662.655-3.99-.611-7.999-3.258-11.027-2.214-2.533-5.132-4.109-8.476-4.437-3.592-.352-7.343.879-10.104,3.18-2.489,2.075-3.785,4.962-3.719,8.206.052,2.57,4.052,2.579,4,0h0Z"/><path class="e" d="M91.139,232.293c-.404-.263-.796-.542-1.178-.837l.405.313c-.311-.241-.614-.492-.909-.754-.181-.195-.396-.333-.644-.414-.238-.125-.495-.183-.771-.172-.275-.01-.532.047-.771.172-.248.081-.463.219-.644.414-.35.381-.61.882-.586,1.414l.071.532c.095.339.266.633.514.883.78.693,1.616,1.334,2.491,1.903.23.146.477.225.744.237.266.06.532.048.798-.036.26-.062.487-.181.68-.358.218-.141.389-.328.515-.561.245-.464.368-1.026.202-1.541l-.202-.478c-.178-.301-.417-.54-.718-.718h0Z"/><path class="g" d="M72.016,218.143c1.179-3.524,3.833-5.127,6.787-6.154,3.624-1.259,7.065-1.038,10.298.016,2.189.714,4.078,1.95,5.393,3.901,1.167,1.731,1.8,3.8,1.979,5.89.187,2.175-.058,4.543-.91,6.564-.35.831-1.178,1.269-2.085,1.321-2.515.146-5.058.858-7.274,1.965-.188.094-.397.129-.605.097l-1.32-.205c-.459-.085-.852-.734-.997-1.051-1.078-2.247-2.239-4.967-2.705-5.609-.62-.925-1.554-1.005-2.665-1.265-.62-.146-3.591-.628-5.422-.981-.796-.153-1.308-.942-1.133-1.745.259-1.19.403-1.983.658-2.745Z"/><path class="e" d="M73.944,218.674c2.111-5.928,10.998-6.718,15.896-4.222,3.026,1.542,4.516,4.65,4.673,7.961.039.816.028,1.645-.076,2.456-.028.218-.575,2.61-.65,2.577-.029-.013.344-.414.365-.449.192-.327.057.068-.02-.014-.021-.022-.085.048-.212.097-.528.204-1.076.363-1.618.524-1.478.439-2.971.83-4.439,1.305-.732.237-1.437.563-2.167.797-.289.093-.183-.07-.504.038-.002,0-.488-.124-.053.001.427.123-.509-.212-.595-.248l.883.514c-.67-.566-.958-1.679-1.319-2.462-.376-.815-.743-1.634-1.135-2.441-.795-1.636-1.817-2.769-3.649-3.227-1.37-.342-2.773-.546-4.162-.79-.4-.07-.801-.141-1.201-.214-.214-.039-.427-.078-.641-.118-.447-.163-.446-.007.003.469.077-.007.537-2.292.62-2.554.776-2.461-3.084-3.514-3.857-1.063-.384,1.218-.829,2.672-.72,3.947.153,1.793,1.555,2.813,3.204,3.118,1.208.224,2.42.426,3.629.642.786.14,2.152.168,2.745.696.625.558.999,2.012,1.361,2.797.628,1.364,1.127,3.019,2.293,4.03.021.018,1.286.684.718.445.263.111.533.241.812.316.575.155,1.156.206,1.744.15,1.288-.124,2.612-.857,3.858-1.237,2.074-.632,4.52-.983,6.419-2.077,2.32-1.336,2.453-5.459,2.372-7.817-.113-3.278-1.133-6.551-3.319-9.045-2.036-2.322-5.047-3.589-8.035-4.123-6.696-1.196-14.638,1.299-17.082,8.159-.865,2.429,2.998,3.475,3.857,1.063Z"/><path class="e" d="M83.9,238.936c.984-.736,1.83-1.593,2.614-2.539.788-.951,1.568-1.949,2.165-3.035.254-.462.343-1.027.202-1.541-.128-.464-.486-.967-.919-1.195-.938-.495-2.198-.262-2.736.718-.387.705-.857,1.363-1.347,1.999l.313-.405c-.778,1.004-1.625,2.012-2.632,2.795l.405-.313c-.027.021-.054.041-.082.062-.433.324-.77.654-.919,1.195-.132.479-.072,1.116.202,1.541.275.427.685.803,1.195.919.49.112,1.12.114,1.541-.202h0Z"/><path class="e" d="M112.446,251.629v-34.078c0-3.823-.008-7.517-2.088-10.913-2.681-4.376-7.15-6.458-12.167-6.478-11.667-.045-23.239-.111-34.396,3.821-4.996,1.761-9.527,4.194-13.629,7.556-3.856,3.16-7.134,6.966-10.007,11.027-6.732,9.517-11.132,20.566-14.736,31.585-.802,2.452,3.059,3.503,3.857,1.063,3.025-9.248,6.627-18.385,11.742-26.697,4.839-7.864,11.213-15.002,19.675-19.009,10.287-4.871,21.623-5.387,32.788-5.362,2.225.005,4.607-.22,6.814.087,2.035.283,3.899,1.298,5.319,2.766,1.467,1.516,2.404,3.499,2.724,5.581.189,1.233.104,2.533.104,3.779v35.272c0,2.574,4,2.578,4,0h0Z"/><path class="e" d="M64.293,284.828c-.294,7.789-.567,15.583-.999,23.366l2-2c-3.423.01-6.846.002-10.269,0-2.574-.001-2.578,3.999,0,4,3.423.002,6.846.01,10.269,0,1.125-.003,1.94-.916,2-2,.432-7.783.704-15.577.999-23.366.097-2.574-3.903-2.57-4,0h0Z"/><path class="e" d="M75.889,269.015c-3.099.717-6.195,1.448-9.295,2.162-3.247.747-6.548,1.346-9.775,2.169-1.265.323-2.435.961-3.337,1.916-.507.537-.927,1.161-1.233,1.831-.118.26-.221.524-.32.791.163-.44-.069.211-.13.413-.232.774-.212,1.697-.24,2.502-.238,6.705.059,13.451.243,20.154.056,2.039.114,4.079.182,6.117.085,2.567,4.085,2.579,4,0-.161-4.862-.289-9.726-.381-14.59-.063-3.295-.12-6.593-.081-9.889.012-1,.05-1.997.102-2.996.036-.695-.095.341.034-.235.077-.346-.337.963-.065.144.076-.228.149-.481.252-.698.254-.533.641-.983,1.154-1.279.686-.396,1.557-.466,2.318-.63.92-.198,1.839-.398,2.757-.601,1.725-.381,3.447-.77,5.169-1.166,3.239-.744,6.472-1.508,9.71-2.257,2.507-.58,1.446-4.438-1.063-3.857h0Z"/><path class="e" d="M74.213,264.924c-.243,1.891-.059,3.842.055,5.736.055.9.117,1.8.145,2.702.035,1.143.024,2.327.387,3.425.998,3.024,3.922,3.803,6.771,4.159,2.742.343,5.519.609,8.275.813,1.079.08,2-.976,2-2,0-1.149-.918-1.92-2-2-2.479-.183-4.96-.455-7.433-.717-.962-.102-2.234-.28-2.967-.605-.708-.314-.861-.66-.972-1.465-.087-.636-.054-1.558-.09-2.308-.043-.883-.103-1.766-.155-2.649-.098-1.684-.233-3.412-.017-5.092.138-1.073-1.018-2-2-2-1.195,0-1.862.924-2,2h0Z"/><path class="e" d="M75.889,253.538c-3.208.466-6.438.791-9.659,1.15-1.807.201-4.206.112-4.551,2.4-.249,1.653.102,3.598.233,5.257.148,1.867.032,4.35,2.367,4.747,1.952.332,4.219.038,6.195-.035s3.948-.211,5.912-.426c2.035-.223,4.161-.399,6.133-.971,1.859-.539,3.555-1.37,4.817-2.877s2.004-3.322,2.636-5.169c.834-2.441-3.028-3.489-3.857-1.063-.51,1.493-1.107,3.151-2.359,4.193-1.51,1.258-3.834,1.437-5.703,1.687-2.173.29-4.36.477-6.549.583-1.116.054-2.234.086-3.351.104-.587.009-1.175.014-1.762.016-.455.001-1.145.13-1.575-.031l1.195.919-.131-.245.273,1.009c-.153-1.277-.258-2.559-.34-3.842-.037-.582-.069-1.164-.097-1.746-.019-.405-.183-1.204-.039-1.589l-.919,1.195.271-.138-1.009.273c4.313-.494,8.637-.918,12.933-1.542,1.07-.155,1.658-1.512,1.397-2.46-.316-1.148-1.387-1.553-2.46-1.397h0Z"/><path class="e" d="M66.403,286.819c3.54-.061,7.081-.093,10.622-.116,1.894-.012,3.788-.023,5.682-.037,2.033-.015,4.051.063,6.061-.302,1.063-.193,1.665-1.485,1.397-2.46-.307-1.119-1.394-1.591-2.46-1.397-1.882.342-3.913.152-5.818.165-1.737.012-3.475.022-5.212.033-3.424.022-6.848.055-10.272.114-2.571.044-2.579,4.044,0,4h0Z"/><path class="e" d="M63.695,308.646c.733,1.018,1.179,2.224,1.194,3.302.016,1.141-.497,1.922-1.2,2.724.072-.082.516-.083.061-.036-.282.029-.563.059-.845.084-.648.059-1.297.105-1.947.146-1.397.087-2.795.147-4.194.188-1.182.035-2.488.199-3.662.033-.602-.085-1.059-.41-1.565-.715-.234-.141-.17-.093-.344-.474.031.067.026-.069.027-.116.002-.425.105-.881.339-1.208-.196.274.287-.257.341-.307.222-.207.455-.405.693-.594.993-.789,2.091-1.485,3.193-2.122,2.228-1.287.216-4.745-2.019-3.454-1.26.728-2.46,1.546-3.609,2.439-1.084.843-2.019,1.707-2.527,3.017-.547,1.409-.562,3,.11,4.364.707,1.436,2.26,2.384,3.739,2.874,1.349.447,2.832.32,4.232.29s2.793-.081,4.188-.154c1.285-.068,2.572-.147,3.851-.291,1.736-.195,2.802-.968,3.79-2.385,2.007-2.877,1.618-6.831-.393-9.624-.63-.875-1.741-1.3-2.736-.718-.865.506-1.352,1.855-.718,2.736h0Z"/><path class="e" d="M78.35,255.998c.407-2.736.919-5.472,1.826-8.092.377-1.089.688-1.869,1.345-2.891.12-.187.25-.367.378-.548.118-.167.098-.121-.013.015.07-.085.139-.171.209-.256.344-.413.707-.809,1.067-1.208.724-.801.791-2.037,0-2.828-.735-.735-2.101-.804-2.828,0-.75.83-1.498,1.668-2.127,2.596-.744,1.097-1.262,2.34-1.718,3.58-1.016,2.761-1.565,5.668-1.997,8.569-.159,1.067.267,2.15,1.397,2.46.943.259,2.3-.322,2.46-1.397h0Z"/><path class="e" d="M83.748,241.604c.124-1.231.013-2.481-.038-3.714l-1.468,1.929c2.809-1.006,5.684-1.902,8.598-2.55l-2.532-1.929c.096,1.06.252,1.966.64,2.963.413,1.062,1.099,2.015,1.548,3.069.436,1.022.774,2.092,1.05,3.168,1.211,4.719.924,9.672.382,14.466-.122,1.075,1.006,2,2,2,1.182,0,1.878-.922,2-2,.555-4.905.747-9.895-.337-14.746-.482-2.154-1.25-4.254-2.267-6.213-.169-.327-.451-.723-.578-.975-.123-.247-.141-.606-.307-.825-.194-.255.018.403-.032.184-.027-.119-.022-.253-.034-.374-.024-.238-.043-.478-.065-.716-.121-1.329-1.177-2.23-2.532-1.929-2.914.648-5.788,1.543-8.598,2.55-.808.289-1.506,1.009-1.468,1.929.051,1.233.162,2.483.038,3.714-.108,1.076.997,2,2,2,1.172,0,1.891-.921,2-2h0Z"/><path class="h" d="M118.317,272.891c.006-9.683.027-36.833.032-45.819,0-1.384,1.122-2.503,2.506-2.503,8.123,0,33.76,0,43.402,0,2.052,0,3.715,1.66,3.716,3.711.009,10.418.045,35.561.058,44.57.003,2.053-1.659,3.717-3.712,3.719-9.218.009-33.056.032-42.281.041-2.056.002-3.722-1.663-3.721-3.719Z"/><path class="e" d="M120.317,272.891c.008-12.624.019-25.247.027-37.871.002-2.448.003-4.896.004-7.344,0-1.236.534-1.107,1.626-1.107,1.153,0,2.305,0,3.458,0,6.583,0,13.166,0,19.749,0,6.097,0,12.195,0,18.292,0,1.242,0,2.395.246,2.5,1.711.088,1.243.002,2.524.004,3.771.003,3.212.007,6.424.011,9.637.009,7.162.019,14.323.029,21.485.004,2.74.008,5.479.011,8.219.002,1.12.217,2.434-.985,3.017-.911.441-2.438.163-3.437.164-12.922.013-25.845.025-38.767.038-1.23.001-2.457-.233-2.523-1.718-.113-2.564-4.114-2.578-4,0,.094,2.115,1.164,4.128,3.116,5.089,1.531.754,3.19.629,4.845.628,3.266-.003,6.532-.006,9.797-.01,7.516-.007,15.033-.015,22.549-.022,1.539-.001,3.079-.003,4.618-.004,1.435-.001,3.035.171,4.436-.171,2.034-.497,3.696-2.152,4.186-4.191.317-1.32.165-2.792.163-4.141-.01-7.076-.02-14.151-.029-21.227-.009-6.809.181-13.651-.024-20.457-.066-2.174-1.131-4.176-3.115-5.186-1.467-.746-3.081-.63-4.673-.63-3.11,0-6.219,0-9.329,0-7.425,0-14.85,0-22.275,0-2.838,0-5.676,0-8.514,0-1.744,0-3.383.142-4.611,1.559-1.16,1.338-1.108,2.941-1.109,4.593-.008,13.537-.019,27.074-.028,40.611,0,1.186-.002,2.373-.002,3.559-.002,2.574,3.998,2.578,4,0Z"/><path class="e" d="M23.326,260.9c-1.266,4.223-2.54,8.443-3.786,12.671-.637,2.163-1.268,4.327-1.882,6.496-.704,2.49-1.315,4.604-.056,7.047,4.627,8.978,10.371,17.48,16.145,25.749,2.758,3.95,5.467,8.074,8.564,11.769,1.492,1.781,3.639,2.525,5.901,2.525h8.577c10.617,0,21.234,0,31.851,0h12.904c2.945,0,5.842.27,8.5-1.313,8.867-5.282,17.731-10.569,26.621-15.813,8.016-4.728,16.038-9.447,24.063-14.16,1.62-.952,2.826-2.264,2.912-4.278.119-2.781.303-6.069-2.381-7.753-1.219-.765-2.514-.78-3.874-.78h-41.547c-1.008,0-2.23-.19-3.225,0-.293.056-.281-.116-.166.126-.073-.153,0-.521,0-.686v-4.523c0-9.818,0-19.635,0-29.453v-2.202c0-2.574-4-2.578-4,0v35.938c0,2.021.623,4.044,2.846,4.654.831.228,1.77.145,2.623.145h41.201c1.048,0,2.108-.044,3.155,0,1.683.071,1.369,1.654,1.369,2.949,0,.621.224,1.556-.272,2.021-.142.133-.378.222-.545.32-1.051.617-2.102,1.234-3.152,1.852-4.053,2.382-8.105,4.765-12.156,7.15-10,5.887-20.002,11.772-29.968,17.718-1.602.956-3.204,1.913-4.8,2.881-1.182.716-2.297,1.201-3.691,1.207-2.751.012-5.503,0-8.254,0h-31.3c-4.329,0-8.658,0-12.988,0h-3.735c-.93,0-1.817.062-2.656-.453-.81-.496-1.324-1.353-1.88-2.1-.704-.945-1.404-1.893-2.1-2.845-1.453-1.988-2.888-3.989-4.304-6.004-2.906-4.136-5.733-8.329-8.452-12.59-2.658-4.164-5.229-8.392-7.603-12.726-.515-.941-1.16-1.786-.943-2.897.193-.993.551-1.983.828-2.956.622-2.186,1.259-4.368,1.903-6.548,1.19-4.029,2.404-8.052,3.611-12.076.741-2.471-3.119-3.527-3.857-1.063h0Z"/><path class="e" d="M110.446,248.667h-5.513c-.901,0-1.668.625-1.929,1.468-3.255,10.527-5.84,21.282-8.56,31.956-1.628,6.389-3.239,12.782-4.852,19.175-.716,2.838-1.433,5.677-2.154,8.514-.31,1.22-.621,2.439-.933,3.659-.138.538-.276,1.076-.414,1.613-.066.255-.132.511-.197.766-.027.106-.051.215-.083.32-.137.452.125-.015-.026.003-2.078.242-4.306.068-6.413.068h-26.101c-.886,0-1.996.181-2.868,0-.519-.108-.612-.693-.918-1.298-1.036-2.051-2.089-4.093-3.152-6.131-2.103-4.029-4.243-8.038-6.336-12.072-1.07-2.062-2.128-4.131-3.166-6.21-1.069-2.14-1.854-3.905-1.619-6.349.454-4.728,1.206-9.436,1.709-14.161.21-1.977,1.137-4.948-.564-6.484-.674-.609-1.619-.838-2.458-1.131-1.017-.355-2.032-.716-3.048-1.076-1.692-.6-3.377-1.227-5.08-1.795-2.448-.816-3.497,3.046-1.063,3.857,1.48.493,2.946,1.037,4.416,1.559.857.305,1.714.608,2.572.91.38.134.76.268,1.14.401.213.075.427.149.641.223.318.133.355.131.111-.005l-.273-1.009c.092.998-.137,2.085-.24,3.079-.126,1.226-.258,2.451-.394,3.676-.264,2.369-.546,4.735-.845,7.1-.281,2.213-.815,4.528-.685,6.764.132,2.269,1.121,4.239,2.117,6.237,4.018,8.06,8.362,15.951,12.435,23.983.986,1.945,1.913,3.757,4.347,3.916.204.013.404.012.609.014,1.076.01,2.152,0,3.227,0h30.173c.787,0,1.62.064,2.396-.097,3.233-.673,3.508-4.045,4.186-6.701.673-2.636,1.341-5.273,2.007-7.91,1.557-6.163,3.108-12.327,4.672-18.488,2.817-11.102,5.567-22.238,8.769-33.237.251-.86.506-1.719.771-2.576l-1.929,1.468h5.513c2.574,0,2.578-4,0-4h0Z"/><path class="e" d="M71.824,318.21c0-5.768.002-11.537.003-17.305,0-3.158.001-6.316.002-9.475,0-1.06-.13-2.221.017-3.273.146-1.045.812-1.31,1.772-1.329,4.405-.087,8.821,0,13.227,0,.422,0,.855.028,1.276,0,2.822-.187,2.987-3.213,3.52-5.392,1.233-5.041,2.459-10.084,3.7-15.124.596-2.42,1.195-4.84,1.806-7.257.437-1.73.689-3.755,1.386-5.397.522-1.229,1.842-.992,2.927-.992h3.474c2.574,0,2.578-4,0-4-2.117,0-4.785-.42-6.811.32-2.096.765-3.143,2.479-3.686,4.542-.483,1.835-.95,3.674-1.412,5.514-1.198,4.771-2.364,9.55-3.531,14.329-.647,2.649-1.293,5.298-1.942,7.947-.096.394-.193.789-.29,1.183-.142.578-.503.832.342.519,1.941-.72.54-.131.447-.191-.125-.081-.59,0-.734,0-4.546,0-9.095-.046-13.641,0-3.728.038-5.831,2.588-5.847,6.199-.013,2.824,0,5.649-.001,8.474-.001,6.903-.004,13.806-.004,20.71,0,2.574,4,2.578,4,0h0Z"/><path class="e" d="M174.214,301.287c5.814,0,11.629,0,17.443,0,2.574,0,2.578-4,0-4-5.814,0-11.629,0-17.443,0-2.574,0-2.578,4,0,4h0Z"/><path class="e" d="M179.796,315.591h14.304c1.081,0,2-.919,2-2s-.915-2-2-2h-14.304c-1.081,0-2,.919-2,2s.915,2,2,2h0Z"/><rect class="d" x="253.08" y="222.357" width="110" height="100" rx="8.162" ry="8.162"/><path class="g" d="M298.7,273.003c3.647-2.09,5.827-5.937,6.627-10.123.949-9.705-2.203-23.508-13.749-23.508s-14.698,13.803-13.749,23.508c.714,3.737,2.528,7.204,5.504,9.391,1.099.808,2.356,1.441,3.776,1.849.467.134.784.565.784,1.05,0,7.067,0,26.439,0,26.439,0,2.211,1.539,3.733,3.687,3.733,2.231,0,3.687-1.537,3.687-3.733v-26.438c0-.486.32-.918.787-1.053.954-.275,1.835-.652,2.644-1.116Z"/><path class="g" d="M319.838,250.02l.016.441c.186,5.001.389,10.458.389,10.458.028.758.584,1.035,1.26,1.035h.407c.684,0,1.243-.29,1.261-1.057l.901-18.978c.053-1.121.832-1.997,1.775-1.997.924,0,1.694.839,1.771,1.935.523,7.366,1.213,19.041,1.213,19.041.018.767.577,1.057,1.261,1.057h.407c.676,0,1.232-.276,1.26-1.035l.692-18.587c0-1.331.961-2.41,2.146-2.41h.081c1.117,0,2.047.963,2.139,2.213l1.674,23.681c0,3.615-2.116,7.883-8.027,8.932-.45.08-.774.478-.774.935,0,5.024,0,25.926,0,25.926,0,2.196-1.457,3.733-3.687,3.733-2.148,0-3.687-1.522-3.687-3.733,0,0,0-21.223,0-26.045,0-.443-.305-.831-.739-.925-5.546-1.21-8.063-5.322-8.063-8.822l1.674-23.681c.091-1.25,1.022-2.213,2.139-2.213h.081c1.185,0,2.146,1.079,2.146,2.41,0,0,.135,3.633.286,7.687Z"/><path class="e" d="M299.71,274.73c3.496-2.077,5.857-5.469,7.048-9.32.955-3.088.869-6.52.516-9.707-.675-6.085-2.807-12.693-8.185-16.21-5.338-3.491-12.926-2.594-17.373,1.915-4.418,4.479-5.902,11.295-6.035,17.384-.082,3.727.511,7.273,2.422,10.539,1.041,1.779,2.42,3.322,4.07,4.551.841.626,1.732,1.124,2.694,1.538.113.049.682.354.879.357l.206.071c.411.202.392-.023-.058-.678-.083.088,0,.621,0,.767,0,5.844,0,11.687,0,17.531,0,2.271,0,4.542,0,6.813,0,2.031.145,4.024,1.729,5.54,2.905,2.78,8.064,1.569,9.335-2.243.409-1.227.31-2.58.31-3.857v-13.565c0-2.331,0-4.662,0-6.992v-2.492c0-.352.128-.995,0-1.328-.017-.043.026-.134,0-.172l-.139.376c-.267.425-.181.505.257.239.201-.006.748-.3.864-.35.499-.214.981-.445,1.458-.707,2.255-1.242.24-4.698-2.019-3.454-1.707.94-3.899,1.099-4.349,3.347-.072.362-.073.689-.073,1.05v4.058c0,4.592,0,9.183,0,13.775,0,2.683.16,5.422,0,8.102-.138,2.304-3.247,2.262-3.374-.026-.066-1.181,0-2.385,0-3.568,0-5.458,0-10.917,0-16.375,0-1.274,0-2.547,0-3.821,0-1.092.178-2.4-.108-3.463-.571-2.122-2.972-2.259-4.587-3.241-1.526-.929-2.744-2.267-3.642-3.802-2.924-4.997-2.219-11.847-.447-17.149,1.654-4.949,5.26-8.913,10.788-8.788s8.883,4.566,10.372,9.485c1.632,5.392,2.172,12.099-1.013,17.011-.914,1.409-2.124,2.549-3.565,3.405-2.211,1.314-.202,4.773,2.019,3.454Z"/><path class="e" d="M317.838,250.02c.127,3.406.254,6.813.381,10.219.042,1.123.16,2.211,1.108,2.977,1.07.864,2.905,1.004,4.139.39,1.606-.799,1.689-2.363,1.763-3.914l.247-5.213.551-11.602c.012-.254.125-.695.045-.941-.002-.007.004-.017.002-.024-.103-.294.33.208-.074-.052-.049-.031-.498.078-.434-.031-.122.208.16,1.54.178,1.809.213,3.112.412,6.226.606,9.34.145,2.332.288,4.663.427,6.995.029.493.033,1.003.13,1.489.343,1.717,1.827,2.527,3.486,2.491,1.71-.037,3.131-.983,3.33-2.769.036-.321.049-.635.062-.959l.176-4.726.44-11.813c.015-.403-.019-.848.046-1.247.019-.117.009-.224.05-.342.03-.086.231-.267.152-.201-.005.004.033.062,0,0,.054.1.23.542.181.338-.038-.156-.017-.101-.009-.046.015.113.018.231.024.344.028.483.068.966.102,1.449.505,7.144,1.081,14.286,1.515,21.435.083,1.363-.173,2.666-.876,3.889-.575,1-1.391,1.802-2.384,2.385-1.404.824-3.424.742-4.586,1.863-1.402,1.352-.927,4.106-.927,5.905,0,2.328,0,4.657,0,6.985,0,4.381,0,8.762,0,13.144,0,.822.183,1.987-.116,2.781-.345.916-1.477,1.217-2.346.834-.695-.306-.886-.955-.913-1.654-.119-3.161,0-6.349,0-9.511,0-4.623,0-9.247,0-13.87,0-.744.021-1.492,0-2.237-.053-1.889-.988-2.884-2.788-3.361-2.509-.666-4.851-2.305-5.691-4.855-.736-2.236-.094-5.116.071-7.456l.903-12.776.313-4.422c.02-.288.023-.584.061-.87.008-.056.028-.106-.009.046-.05.204.126-.238.181-.338-.044.081-.108-.043.053.024-.196-.082.052.037.1.177.226.652.095,1.553.12,2.23.071,1.897.141,3.794.212,5.691.096,2.566,4.096,2.579,4,0-.095-2.559-.12-5.132-.286-7.687-.202-3.102-3.394-5.708-6.35-3.788-2.448,1.59-2.126,5.144-2.308,7.719-.456,6.45-1.144,12.927-1.37,19.388-.07,1.995.587,4.081,1.689,5.735.883,1.326,2.007,2.427,3.329,3.313,1.504,1.008,3.167,1.321,4.8,1.99l-.883-.514c-.238-.214-.077-.711-.145-.179-.02.16,0,.338,0,.5,0,.459,0,.919,0,1.378,0,1.099,0,2.199,0,3.298,0,2.656,0,5.312,0,7.968,0,4.044-.026,8.088,0,12.132.017,2.611,1.288,4.975,3.889,5.803,3.841,1.223,7.369-1.588,7.486-5.467.1-3.318,0-6.654,0-9.973,0-3.09,0-6.18,0-9.27,0-1.291,0-2.582,0-3.873,0-.501,0-1.003,0-1.504,0-.235.012-.474,0-.708-.003-.07.009-.143,0-.213-.059-.473.208-.075-.123.209l-.883.514c.928-.345,1.921-.469,2.851-.845.981-.396,1.883-.875,2.727-1.514,1.376-1.042,2.493-2.381,3.205-3.96.794-1.759,1.097-3.619.962-5.531l-.975-13.799-.486-6.87c-.107-1.519-.055-3.172-.916-4.489-1.135-1.735-3.534-2.404-5.369-1.366-1.501.85-2.138,2.369-2.236,4.021-.096,1.617-.121,3.241-.181,4.859l-.33,8.875-.129,3.459c-.012.315-.033.63-.035.945,0,.088.003.184-.01.271-.041.28.227-.647-.075.075l.514-.883c.093-.116.526-.111.095-.088-.402.022.025-.007.089.074l.514.883c-.261-.649-.173-1.795-.219-2.55-.126-2.08-.254-4.159-.384-6.238-.16-2.545-.323-5.091-.495-7.635-.165-2.44-.104-5.77-3.12-6.464-2.582-.594-4.434,1.584-4.612,3.964-.056.754-.072,1.514-.108,2.269l-.457,9.623-.238,5.012c-.029.609.043,1.511-.162,2.019l.514-.883c.063-.081.491-.052.089-.074-.431-.024.002-.028.095.088l.514.883c-.201-.481-.05.173-.079-.186-.016-.198-.015-.4-.022-.599l-.096-2.577c-.094-2.515-.187-5.029-.281-7.544-.096-2.566-4.096-2.579-4,0Z"/><path class="e" d="M354.918,220.357h-84.108c-3.342,0-6.745-.191-10.083.018-5.478.342-9.608,4.862-9.647,10.309-.01,1.375,0,2.751,0,4.127,0,6.882,0,13.763,0,20.645s0,18.431,0,27.647v23.265c0,4.31-.803,9.936,1.83,13.63,2.151,3.017,5.439,4.359,9.052,4.359h92.375c3.856,0,7.501-1.709,9.435-5.174,1.178-2.111,1.308-4.321,1.308-6.641v-69.551c0-4.126.056-8.257,0-12.383-.076-5.647-4.51-10.134-10.162-10.251-2.575-.053-2.575,3.947,0,4,3.747.078,6.155,3.064,6.162,6.65.003,1.62,0,3.24,0,4.86v76.932c0,2.126-.176,4.122-1.806,5.752-1.593,1.593-3.555,1.806-5.642,1.806h-53.873c-8.192,0-16.383,0-24.575,0h-13.315c-3.128,0-5.897-1.627-6.648-4.846-.273-1.171-.14-2.527-.14-3.722,0-5.978,0-11.955,0-17.933s0-17.735,0-26.603,0-16.419,0-24.628c0-4.001-.052-8.007,0-12.008.046-3.533,2.765-6.217,6.288-6.26,1.197-.015,2.394,0,3.591,0h89.959c2.574,0,2.578-4,0-4Z"/><path class="h" d="M297.169,14.138c-10.364,0-20.659,5.531-25.419,14.757-5.897,11.428-2.915,23.46,2.994,34.091,5.474,9.849,11.989,18.918,19.109,27.636l1.069,1.309c1.161,1.421,3.332,1.421,4.493,0l1.069-1.309c7.12-8.719,13.635-17.787,19.109-27.636,5.909-10.631,8.891-22.664,2.994-34.091-4.76-9.225-14.968-14.757-25.419-14.757Z"/><path class="e" d="M276.942,82.829c-3.674,1.876-7.285,4.608-9.114,8.412-1.432,2.978-1.679,6.411-.585,9.545,2.235,6.405,8.634,10.076,14.785,11.977,8.353,2.582,17.744,2.717,26.289,1.055,6.489-1.262,13.504-4.059,17.264-9.813,1.833-2.804,2.586-6.287,2.003-9.589-.853-4.828-4.723-8.452-8.77-10.834-2.223-1.308-4.239,2.148-2.019,3.454,2.961,1.742,5.872,4.189,6.762,7.653.582,2.265.106,4.579-.94,6.482-2.588,4.703-8.216,7.077-13.244,8.323-7.331,1.815-15.437,1.892-22.817.313-5.327-1.14-11.56-3.389-14.561-8.266-1.348-2.191-1.872-4.747-1.08-7.31,1.159-3.752,4.719-6.249,8.047-7.948,2.293-1.171.272-4.623-2.019-3.454h0Z"/><path class="e" d="M297.169,12.138c-13.921.088-26.721,9.227-29.848,23.052-3.585,15.846,6.094,30.846,14.766,43.236,2.298,3.284,4.704,6.49,7.177,9.644,1.092,1.393,2.201,2.772,3.32,4.143.665.815,1.274,1.649,2.217,2.17,1.453.802,3.284.802,4.737,0,.943-.52,1.552-1.356,2.217-2.17,2.393-2.931,4.732-5.906,6.993-8.94,4.802-6.442,9.323-13.172,13.111-20.266,3.612-6.764,6.221-14.37,5.907-22.127-.297-7.321-3.2-14.518-8.403-19.726-4.601-4.605-10.788-7.642-17.214-8.611-1.652-.249-3.309-.394-4.981-.405-2.574-.016-2.577,3.984,0,4,5.837.037,11.537,1.823,16.297,5.219,5.119,3.652,8.503,9.204,9.788,15.326,1.419,6.763-.084,13.826-2.793,20.075-2.863,6.606-6.926,12.797-11.007,18.705-2.039,2.952-4.162,5.848-6.357,8.687-1.644,2.126-3.257,4.35-5.071,6.337-1.291,1.414-2.578-1.053-3.342-1.996-2.313-2.852-4.565-5.753-6.733-8.717-4.342-5.933-8.424-12.109-11.911-18.587-3.245-6.028-5.616-12.74-5.485-19.662.137-7.239,3.231-14.177,8.735-18.905,4.923-4.229,11.43-6.44,17.881-6.481,2.573-.016,2.579-4.016,0-4Z"/><path class="g" d="M297.169,31.593c-5.944,0-10.052,4.604-10.052,9.991,0,6.027,4.197,10.178,10.053,10.178,6.082,0,10.053-4.189,10.053-10.178,0-5.424-4.13-9.991-10.053-9.991Z"/><path class="e" d="M297.169,29.593c-5.258.068-9.907,3.283-11.506,8.351-1.471,4.66-.008,10.241,3.88,13.28s9.703,3.381,13.98.936c4.383-2.505,6.268-7.729,5.525-12.575-.9-5.876-6.044-9.917-11.878-9.992-2.575-.033-2.576,3.967,0,4,3.571.046,6.725,2.185,7.722,5.648.913,3.169.009,6.885-2.522,8.9-2.403,1.914-6.518,2.167-9.292.652-2.889-1.578-4.33-4.939-3.911-8.267.513-4.078,3.948-6.881,8.003-6.933,2.572-.033,2.579-4.033,0-4Z"/><path class="d" d="M53.568,131.826c0,6.411,5.197,11.609,11.609,11.609h62.417c6.411,0,11.609-5.197,11.609-11.609v-8.59c-24.571.001-61.12.003-85.634.004v8.587Z"/><path class="d" d="M139.202,13.621c0-6.411-5.197-11.609-11.609-11.609h-62.417c-6.411,0-11.609,5.197-11.609,11.609v7.851c24.514-.001,61.063-.003,85.634-.004v-7.847Z"/><path class="g" d="M74.373,123.238c2.183,0,4.398,0,6.64,0h7.439c2.986,0,5.991,0,8.996,0h6.308c3.682,0,7.337,0,10.915,0h3.275c7.655,0,14.894,0,21.255-.001.001-20.859.001-83.174,0-101.767h-21.255c-1.084.001-2.175.001-3.275.001h-10.915c-2.096,0-4.201,0-6.308,0h-8.996c-2.499,0-4.984,0-7.439,0h-6.64c-6.544,0-12.776,0-18.398.001h-.125c-.771,0-1.531,0-2.279,0-.001,18.6-.002,80.91-.002,101.767h2.281c.042,0,.083,0,.125,0h18.398Z"/><path class="e" d="M127.594,141.434h-61.389c-3.422,0-6.642-1.003-8.763-3.895-1.472-2.007-1.873-4.288-1.873-6.694V19.346c0-3.945-.566-8.378,2.052-11.679,2.195-2.767,5.326-3.654,8.691-3.654h33.935c7.841,0,15.682,0,23.523,0,1.445,0,2.901-.051,4.345.013,5.131.227,9.037,4.632,9.087,9.666.032,3.234,0,6.47,0,9.704v99.088c0,3.102.036,6.206,0,9.308-.062,5.314-4.292,9.565-9.609,9.643-2.572.038-2.579,4.038,0,4,7.191-.106,13.162-5.703,13.588-12.914.056-.948.02-1.908.02-2.858V16.329c0-.897.01-1.794,0-2.691-.074-6.393-4.638-12.221-11.027-13.374-1.925-.348-3.901-.252-5.849-.252h-9.901c-9.371,0-18.742,0-28.113,0-6.703,0-13.405,0-20.108,0-3.99,0-7.751,1.093-10.649,3.987-2.735,2.73-3.987,6.369-3.987,10.178v36.319c0,9.652,0,19.305,0,28.957v46.876c0,4.885-.361,9.66,2.865,13.823,2.795,3.607,6.969,5.282,11.449,5.282h6.943c8.892,0,17.784,0,26.676,0h28.092c2.574,0,2.578-4,0-4Z"/><path class="e" d="M53.817,125.24c9.717,0,19.434-.001,29.15-.002,15.007-.001,30.015-.002,45.022-.003,3.71,0,7.419,0,11.129,0,2.574,0,2.578-4,0-4-9.757,0-19.513.001-29.27.002-14.996.001-29.993.002-44.989.003-3.681,0-7.361,0-11.042,0-2.574,0-2.578,4,0,4h0Z"/><path class="e" d="M53.817,23.473c9.717,0,19.434-.001,29.15-.002,15.007-.001,30.015-.002,45.022-.003,3.71,0,7.419,0,11.129,0,2.574,0,2.578-4,0-4-9.757,0-19.513.001-29.27.002-14.996.001-29.993.002-44.989.003-3.681,0-7.361,0-11.042,0-2.574,0-2.578,4,0,4h0Z"/></g></svg>