<svg width="128" height="113" xmlns="http://www.w3.org/2000/svg">
 <g id="Layer_1">
  <title>Layer 1</title>
  <g stroke="null">

   <g stroke="null" id="svg_11">
    <path stroke="null" fill="#ffffff" stroke-width="0px" d="m9.60925,202.07626l0,-10.48909c0,-0.19619 0.01822,-0.39427 0.05389,-0.58795c1.38902,-7.50233 2.88051,-14.49568 4.46384,-20.83778c0.44403,-1.77764 2.34236,-3.04694 4.53974,-3.04694l95.60637,0c2.5602,0 4.63538,1.71183 4.63538,3.82607c0,9.05055 0,24.11789 0,31.14258c0,2.11424 -2.08049,3.82419 -4.6407,3.82419c-45.35874,-0.00188 -87.90148,-0.00251 -100.02695,-0.00313c-2.5602,0 -4.63311,-1.71371 -4.63311,-3.82795l0.00152,0z" class="f"/>
    <path stroke="null" fill="#3d8dcc" stroke-width="0px" d="m33.8784,186.90989l0,-9.51941c0,-0.70454 0.69147,-1.27619 1.54538,-1.27619l68.17511,0c0.85315,0 1.54538,0.57729 1.54538,1.28183c0,4.39521 0,6.8354 0,9.51252c0,0.70454 -0.69147,1.27745 -1.54538,1.27745l-68.17511,0c-0.85315,0 -1.54538,-0.57103 -1.54538,-1.27619z" class="g"/>
    <path stroke="null" stroke-width="0px" fill="#211715" d="m35.39645,186.90989c0,-2.28849 0,-4.57699 0,-6.86548l0,-1.79895c0,-0.25762 -0.06755,-0.58795 0,-0.84181c0,-0.00125 -0.02429,-0.02507 0.08349,-0.03573c0.1093,-0.01066 0.22771,0 0.33701,0l11.60477,0c7.01569,0 14.03063,0 21.04632,0l21.45999,0c4.28168,0 8.56411,0 12.84579,0c0.22543,0 0.58901,-0.05892 0.80761,0c0.04478,0.01191 -0.08197,-0.07396 0.03643,0.0094c0,0 -0.07742,-0.17425 0.00759,0.0188c0.04858,0.11032 0,0.33346 0,0.45193c0,0.42623 0,0.85309 0,1.27933c0,1.18781 0,2.37625 0,3.56406c0,0.97281 0,1.94563 0,2.91844c0,0.37358 0.13131,0.94335 0,1.29813c0.02049,-0.05516 -0.10399,0.03886 -0.03871,0.02382c-0.22012,0.05015 -0.5427,0 -0.76814,0c-4.24524,0 -8.49048,0 -12.73649,0l-21.42583,0c-7.0286,0 -14.05795,0 -21.08655,0l-11.72015,0c-0.11385,0 -0.22923,0.00501 -0.34232,0c-0.1427,-0.00627 -0.11158,-0.02257 -0.11158,-0.02257c-0.15636,-1.59712 -3.19323,-1.61091 -3.03611,0c0.14573,1.49182 1.40192,2.49284 3.21904,2.52982c0.42581,0.00878 0.85315,0 1.27972,0l5.80201,0c6.68703,0 13.37407,0 20.06186,0l22.97653,0c5.28207,0 10.56339,0 15.84546,0c1.21369,0 2.67254,0.15294 3.73366,-0.41808c1.36094,-0.73274 1.38447,-1.93246 1.38447,-3.13344c0,-0.99601 0,-1.99201 0,-2.98739c0,-1.25739 0,-2.5154 0,-3.77279c0,-1.35141 0.24061,-2.83445 -1.23114,-3.7496c-1.08617,-0.6757 -2.56703,-0.51712 -3.85207,-0.51712l-6.3523,0c-6.86996,0 -13.73992,0 -20.61064,0c-7.59863,0 -15.19801,0 -22.79664,0l-14.93159,0c-0.42885,0 -0.85922,-0.00815 -1.28807,0c-1.64861,0.03009 -3.06192,0.90512 -3.2198,2.32297c-0.09716,0.87378 -0.02049,1.77576 -0.02049,2.65205l0,4.62901c0,0.81486 0,1.63034 0,2.4452c0,1.61342 3.03611,1.61592 3.03611,0l0.00076,0z" class="d"/>
    <path stroke="null" stroke-width="0px" fill="#211715" d="m11.1273,202.07626l0,-8.70142c0,-0.53342 -0.00607,-1.06746 0,-1.60088c0.0129,-1.16525 0.35522,-2.34742 0.5761,-3.49574c0.69223,-3.5954 1.43077,-7.18516 2.23078,-10.76614c0.37572,-1.68299 0.76586,-3.36411 1.17118,-5.04271c0.29982,-1.24046 0.35598,-2.78242 1.6987,-3.60041c0.68237,-0.41558 1.45126,-0.50145 2.25963,-0.50145l4.44259,0c6.621,0 13.24124,0 19.86224,0l27.26883,0c8.68555,0 17.37111,0 26.05666,0c5.32534,0 10.65068,0 15.97602,0c1.67366,0 3.45737,-0.09465 4.37428,1.39215c0.63303,1.02609 0.3446,2.42577 0.3446,3.54275c0,1.30126 0,2.6019 0,3.90317c0,2.95542 0,5.91147 0,8.8669c0,5.18813 0,10.37564 0,15.56377c0,1.10319 -0.33625,2.10358 -1.58409,2.68213c-0.67857,0.31466 -1.34424,0.33472 -2.1063,0.33472c-1.19775,0 -2.39473,0 -3.59248,0c-4.60578,0 -9.2108,0 -13.81658,0c-16.53011,-0.00063 -33.05945,-0.00125 -49.58956,-0.00125c-10.34175,0 -20.68275,0 -31.0245,0c-0.83417,0 -1.75335,0.08775 -2.54426,-0.1636c-1.22583,-0.38988 -1.96968,-1.34451 -2.00611,-2.41072c-0.05465,-1.61028 -3.09076,-1.61655 -3.03611,0c0.10247,3.02688 2.99512,5.08157 6.56787,5.08157c1.68125,0 3.36249,0 5.04374,0c5.20617,0 10.41234,0 15.61851,0c15.62003,0 31.24006,0.00063 46.86009,0.00125c9.43471,0 18.86943,0.00063 28.30414,0.00125c2.06607,0 4.35834,0.25574 6.29689,-0.45131c1.57726,-0.57541 2.78715,-1.69616 3.33744,-3.0438c0.46073,-1.12826 0.30741,-2.39568 0.30741,-3.5697c0,-1.19533 0,-2.39067 0,-3.586c0,-5.90019 0,-11.79976 0,-17.69995c0,-1.4517 0,-2.9034 0,-4.35447c0,-1.30001 0.12676,-2.65267 -0.02884,-3.94642c-0.31879,-2.64327 -2.94199,-4.58576 -6.1375,-4.64845c-3.60614,-0.07083 -7.22518,0 -10.83284,0c-8.18839,0 -16.37678,0 -24.56517,0c-9.53491,0 -19.06981,0 -28.60472,0l-23.30974,0c-2.18069,0 -4.36137,0 -6.54206,0c-2.11845,0 -4.09344,0.02883 -5.83541,1.28998c-1.5135,1.09567 -1.88467,2.56805 -2.26342,4.12192c-0.41822,1.71621 -0.81975,3.43494 -1.20685,5.15554c-0.83645,3.71888 -1.60534,7.44779 -2.32414,11.1836c-0.25807,1.3395 -0.66263,2.72413 -0.68464,4.08181c-0.00835,0.50082 0,1.00227 0,1.5031l0,8.87943c0,1.61342 3.03611,1.61592 3.03611,0l0.00152,-0.00063z" class="d"/>
    <path stroke="null" stroke-width="0px" fill="#211715" d="m10.75234,192.55434l4.81983,0c1.20685,0 2.34843,-0.32156 3.00271,-1.22479c0.48198,-0.66442 0.51766,-1.49746 0.66567,-2.24524c0.15864,-0.80232 0.31651,-1.60527 0.47287,-2.40822c0.51158,-2.62008 1.0133,-5.24204 1.56663,-7.85648c0.28767,-1.36081 0.58901,-2.71912 0.90097,-4.07617c0.34384,-1.49307 0.8281,-3.14786 -1.06643,-4.09622c-0.95637,-0.47889 -2.10023,-0.37546 -3.17046,-0.37546l-2.69227,0c-1.95374,0 -1.95677,2.50725 0,2.50725c1.36397,0 2.74161,-0.05015 4.1033,0c0.189,0.00689 0.16775,-0.02382 0.18293,0.02006c0.063,0.17927 -0.11841,0.55786 -0.16167,0.74465c-0.09108,0.39364 -0.18217,0.78728 -0.27173,1.18092c-0.26794,1.17841 -0.52752,2.35807 -0.77649,3.53961c-0.46604,2.21014 -0.89641,4.4253 -1.32754,6.63983c-0.25579,1.31568 -0.5131,2.63073 -0.77421,3.94579c-0.06148,0.30902 -0.05996,0.7528 -0.20873,1.04552c-0.08653,0.17049 0.05541,0.10719 -0.06148,0.15106c-0.11158,0.042 -0.3742,0 -0.49489,0l-4.71053,0c-1.95374,0 -1.95677,2.50725 0,2.50725l0,0l0.00152,0.00063z" class="d"/>
    <path stroke="null" stroke-width="0px" fill="#211715" d="m49.20544,176.11429l0,10.74044c0,1.61342 3.03611,1.61592 3.03611,0l0,-10.74044c0,-1.61342 -3.03611,-1.61592 -3.03611,0l0,0z" class="d"/>
    <path stroke="null" stroke-width="0px" fill="#211715" d="m67.99366,176.11429l0,10.74044c0,1.61342 3.03611,1.61592 3.03611,0l0,-10.74044c0,-1.61342 -3.03611,-1.61592 -3.03611,0l0,0z" class="d"/>
    <path stroke="null" stroke-width="0px" fill="#211715" d="m86.53746,176.11429l0,10.74044c0,1.61342 3.03611,1.61592 3.03611,0l0,-10.74044c0,-1.61342 -3.03611,-1.61592 -3.03611,0l0,0z" class="d"/>
    <path stroke="null" stroke-width="0px" fill="#211715" d="m46.34543,201.03073c13.13497,0 26.26919,0 39.40417,0c1.95374,0 1.95677,-2.50725 0,-2.50725c-13.13497,0 -26.26919,0 -39.40417,0c-1.95374,0 -1.95677,2.50725 0,2.50725l0,0z" class="d"/>
    <path stroke="null" stroke-width="0px" fill="#211715" d="m95.90614,200.78314c-3.88167,0 -6.56635,2.48469 -6.56635,5.39059l0,0.05328c0.0296,3.22307 2.76286,5.43886 6.56863,5.43886c2.41523,0 4.32114,-0.83554 5.43995,-2.21704c0.72867,-0.89007 1.1264,-2.00768 1.1264,-3.2751c0,-1.16086 -0.42581,-2.24963 -1.17953,-3.13908c-1.14613,-1.35454 -3.05357,-2.25089 -5.3891,-2.25089l0,-0.00063z" class="d"/>
    <path stroke="null" stroke-width="0px" fill="#211715" d="m95.90614,199.27879c-3.51202,0.03761 -6.56104,1.71621 -7.84303,4.42655c-1.14385,2.41887 -0.47667,5.33982 1.58865,7.2773c2.18296,2.04843 6.01681,2.67775 9.09543,1.83343c3.60538,-0.98848 5.7762,-3.8969 5.53483,-7.00714c-0.28843,-3.71951 -3.89002,-6.47811 -8.37587,-6.53077c-0.98446,-0.01128 -1.82167,0.69952 -1.82167,1.50435c0,0.82489 0.83417,1.49307 1.82167,1.50435c1.1689,0.01379 2.10554,0.21437 3.08165,0.85999c-0.25731,-0.16987 0.19127,0.15545 0.18976,0.1542c0.08805,0.06895 0.17382,0.14041 0.25655,0.21312c-0.0334,-0.02946 0.35522,0.33973 0.21101,0.19055c-0.14953,-0.1542 0.23454,0.28332 0.19279,0.22941c0.39242,0.49832 0.55713,0.83178 0.71121,1.39027c0.24517,0.8907 0.05845,2.11173 -0.42354,2.87456c-0.13359,0.21124 -0.28388,0.41495 -0.45162,0.60864c0.20038,-0.23192 -0.14573,0.13665 -0.15788,0.14855c-0.07894,0.07146 -0.16091,0.14103 -0.24517,0.2081c-0.1055,0.08462 -0.2148,0.16548 -0.3279,0.24195c-0.24441,0.16611 0.33853,-0.16234 -0.12752,0.0702c-0.10171,0.05077 -0.20038,0.10656 -0.30361,0.15608c-0.07742,0.03698 -0.51766,0.22252 -0.43189,0.1918c0.2148,-0.07835 -0.34763,0.10217 -0.30133,0.08963c-0.11993,0.03259 -0.24137,0.06268 -0.36282,0.09026c-0.18748,0.042 -0.37648,0.07396 -0.56699,0.10593c-0.02581,0.00439 -0.34763,0.03824 -0.1093,0.01567c-0.33397,0.03134 -0.67553,0.03949 -1.01102,0.03259c-0.11841,-0.00251 -0.23758,-0.00689 -0.35598,-0.01316c-0.11689,-0.00627 -0.23302,-0.01504 -0.34915,-0.02633c0.17078,0.01943 0.19052,0.02006 0.05845,0.00251c-0.2482,-0.03824 -0.49337,-0.08211 -0.73626,-0.14041c-0.15788,-0.03761 -0.3112,-0.08399 -0.46756,-0.12787c-0.06907,-0.01943 -0.31044,-0.12035 -0.01214,-0.00251c-0.23985,-0.09528 -0.47363,-0.19557 -0.69831,-0.31278c-0.08881,-0.04638 -0.17382,-0.09653 -0.26186,-0.14417c-0.16775,-0.10092 -0.16926,-0.10154 -0.00455,0c-0.06072,-0.04074 -0.11993,-0.08337 -0.17761,-0.12662c-0.16699,-0.13602 -0.33018,-0.27517 -0.49565,-0.41244c-0.3446,-0.28583 0.16775,0.23443 -0.10475,-0.1028c-0.05845,-0.07271 -0.11993,-0.14354 -0.17609,-0.21688c-0.14422,-0.18742 -0.26642,-0.38173 -0.38483,-0.58043c0.1427,0.24007 0.01746,0.04262 -0.00683,-0.01379c-0.06452,-0.15169 -0.12903,-0.30275 -0.18217,-0.45757c-0.06983,-0.20497 -0.12296,-0.41182 -0.16926,-0.62117c0.07059,0.31905 -0.01746,-0.15294 -0.02049,-0.18178c-0.00911,-0.10029 -0.01518,-0.20058 -0.01898,-0.30087c-0.00759,-0.21374 0.00987,-0.42435 0.0167,-0.6381c0.01366,-0.44504 -0.04478,0.16485 0.00835,-0.09465c0.03264,-0.16172 0.07363,-0.32218 0.12372,-0.48139c0.07059,-0.22377 0.1556,-0.44629 0.26338,-0.66003c-0.15029,0.29711 0.07894,-0.11345 0.0964,-0.14103c0.07742,-0.1216 0.16091,-0.2407 0.24896,-0.35666c0.0592,-0.07772 0.12296,-0.15169 0.18368,-0.22816c0.12372,-0.14041 0.12979,-0.14793 0.01746,-0.02194c0.05237,-0.05265 0.10702,-0.10468 0.16243,-0.15545c0.21405,-0.18115 0.42354,-0.35979 0.65732,-0.52464c-0.24592,0.17363 0.02808,-0.01818 0.09867,-0.05704c0.16547,-0.08963 0.32942,-0.17801 0.50248,-0.25762c0.09943,-0.04576 0.20266,-0.08587 0.30285,-0.13038c0.35143,-0.15608 -0.15029,0.02131 0.20266,-0.07083c0.34384,-0.09026 0.67933,-0.16673 1.03228,-0.23067c0.35598,-0.06456 0.14877,-0.02006 0.063,-0.01191c0.25276,-0.02319 0.50627,-0.03009 0.75979,-0.03259c0.98446,-0.01066 1.82167,-0.68385 1.82167,-1.50435c0,-0.80734 -0.83341,-1.51501 -1.82167,-1.50435l0.00152,0.00125z" class="d"/>
    <path stroke="null" fill="#ffffff" stroke-width="0px" d="m95.9069,203.86456c-1.68352,0 -2.84787,1.07749 -2.84787,2.33739l0,0.02319c0.0129,1.39779 1.1985,2.3587 2.84863,2.3587c1.04746,0 1.87404,-0.3623 2.35906,-0.96153c0.31576,-0.38612 0.48881,-0.87064 0.48881,-1.42036c0,-0.50333 -0.18444,-0.97532 -0.51158,-1.36144c-0.49716,-0.58732 -1.3245,-0.97595 -2.33705,-0.97595z" class="f"/>
    <path stroke="null" stroke-width="0px" fill="#211715" d="m33.2355,200.78314c-3.88167,0 -6.56635,2.48469 -6.56635,5.39059l0,0.05328c0.0296,3.22307 2.76286,5.43886 6.56863,5.43886c2.41523,0 4.32114,-0.83554 5.43995,-2.21704c0.72867,-0.89007 1.1264,-2.00768 1.1264,-3.2751c0,-1.16086 -0.42581,-2.24963 -1.17953,-3.13908c-1.14613,-1.35454 -3.05357,-2.25089 -5.3891,-2.25089l0,-0.00063z" class="d"/>
    <path stroke="null" stroke-width="0px" fill="#211715" d="m33.2355,199.27879c-3.51202,0.03761 -6.56104,1.71621 -7.84303,4.42655c-1.14385,2.41887 -0.47667,5.33982 1.58865,7.2773c2.18296,2.04843 6.01681,2.67775 9.09543,1.83343c3.60538,-0.98848 5.7762,-3.8969 5.53483,-7.00714c-0.28843,-3.71951 -3.89002,-6.47811 -8.37587,-6.53077c-0.98446,-0.01128 -1.82167,0.69952 -1.82167,1.50435c0,0.82489 0.83417,1.49307 1.82167,1.50435c1.1689,0.01379 2.10554,0.21437 3.08165,0.85999c-0.25731,-0.16987 0.19127,0.15545 0.18976,0.1542c0.08805,0.06895 0.17382,0.14041 0.25655,0.21312c-0.0334,-0.02946 0.35522,0.33973 0.21101,0.19055c-0.14953,-0.1542 0.23454,0.28332 0.19279,0.22941c0.39242,0.49832 0.55713,0.83178 0.71121,1.39027c0.24517,0.8907 0.05845,2.11173 -0.42354,2.87456c-0.13359,0.21124 -0.28388,0.41495 -0.45162,0.60864c0.20038,-0.23192 -0.14573,0.13665 -0.15788,0.14855c-0.07894,0.07146 -0.16091,0.14103 -0.24517,0.2081c-0.1055,0.08462 -0.2148,0.16548 -0.3279,0.24195c-0.24441,0.16611 0.33853,-0.16234 -0.12752,0.0702c-0.10171,0.05077 -0.20038,0.10656 -0.30361,0.15608c-0.07742,0.03698 -0.51766,0.22252 -0.43189,0.1918c0.2148,-0.07835 -0.34763,0.10217 -0.30133,0.08963c-0.11993,0.03259 -0.24137,0.06268 -0.36282,0.09026c-0.18748,0.042 -0.37648,0.07396 -0.56699,0.10593c-0.02581,0.00439 -0.34763,0.03824 -0.1093,0.01567c-0.33397,0.03134 -0.67553,0.03949 -1.01102,0.03259c-0.11841,-0.00251 -0.23758,-0.00689 -0.35598,-0.01316c-0.11689,-0.00627 -0.23302,-0.01504 -0.34915,-0.02633c0.17078,0.01943 0.19052,0.02006 0.05845,0.00251c-0.2482,-0.03824 -0.49337,-0.08211 -0.73626,-0.14041c-0.15788,-0.03761 -0.3112,-0.08399 -0.46756,-0.12787c-0.06907,-0.01943 -0.31044,-0.12035 -0.01214,-0.00251c-0.23985,-0.09528 -0.47363,-0.19557 -0.69831,-0.31278c-0.08881,-0.04638 -0.17382,-0.09653 -0.26186,-0.14417c-0.16775,-0.10092 -0.16926,-0.10154 -0.00455,0c-0.06072,-0.04074 -0.11993,-0.08337 -0.17761,-0.12662c-0.16699,-0.13602 -0.33018,-0.27517 -0.49565,-0.41244c-0.3446,-0.28583 0.16775,0.23443 -0.10475,-0.1028c-0.05845,-0.07271 -0.11993,-0.14354 -0.17609,-0.21688c-0.14422,-0.18742 -0.26642,-0.38173 -0.38483,-0.58043c0.1427,0.24007 0.01746,0.04262 -0.00683,-0.01379c-0.06452,-0.15169 -0.12903,-0.30275 -0.18217,-0.45757c-0.06983,-0.20497 -0.12296,-0.41182 -0.16926,-0.62117c0.07059,0.31905 -0.01746,-0.15294 -0.02049,-0.18178c-0.00911,-0.10029 -0.01518,-0.20058 -0.01898,-0.30087c-0.00759,-0.21374 0.00987,-0.42435 0.0167,-0.6381c0.01366,-0.44504 -0.04478,0.16485 0.00835,-0.09465c0.03264,-0.16172 0.07363,-0.32218 0.12372,-0.48139c0.07059,-0.22377 0.1556,-0.44629 0.26338,-0.66003c-0.15029,0.29711 0.07894,-0.11345 0.0964,-0.14103c0.07742,-0.1216 0.16091,-0.2407 0.24896,-0.35666c0.0592,-0.07772 0.12296,-0.15169 0.18368,-0.22816c0.12372,-0.14041 0.12979,-0.14793 0.01746,-0.02194c0.05237,-0.05265 0.10702,-0.10468 0.16243,-0.15545c0.21405,-0.18115 0.42354,-0.35979 0.65732,-0.52464c-0.24592,0.17363 0.02808,-0.01818 0.09867,-0.05704c0.16547,-0.08963 0.32942,-0.17801 0.50248,-0.25762c0.09943,-0.04576 0.20266,-0.08587 0.30285,-0.13038c0.35143,-0.15608 -0.15029,0.02131 0.20266,-0.07083c0.34384,-0.09026 0.67933,-0.16673 1.03228,-0.23067c0.35598,-0.06456 0.14877,-0.02006 0.063,-0.01191c0.25276,-0.02319 0.50627,-0.03009 0.75979,-0.03259c0.98446,-0.01066 1.82167,-0.68385 1.82167,-1.50435c0,-0.80734 -0.83341,-1.51501 -1.82167,-1.50435l0.00152,0.00125z" class="d"/>
    <path stroke="null" fill="#ffffff" stroke-width="0px" d="m33.23626,203.86456c-1.68352,0 -2.84787,1.07749 -2.84787,2.33739l0,0.02319c0.0129,1.39779 1.1985,2.3587 2.84863,2.3587c1.04746,0 1.87404,-0.3623 2.35906,-0.96153c0.31576,-0.38612 0.48881,-0.87064 0.48881,-1.42036c0,-0.50333 -0.18444,-0.97532 -0.51158,-1.36144c-0.49716,-0.58732 -1.3245,-0.97595 -2.33705,-0.97595z" class="f"/>
    <path stroke="null" fill="#ffffff" stroke-width="0px" d="m282.47971,170.53941l0,29.82001l-116.71493,0c-0.87744,-2.8169 -1.21672,-4.94681 -0.67022,-7.9411c1.35486,-7.33121 2.80233,-14.19168 4.3424,-20.4479c0.58521,-2.39693 3.13327,-4.12004 6.09803,-4.12004l103.67939,0c1.80193,0 3.26458,1.2016 3.26458,2.68966l0.00076,-0.00063z" class="f"/>
    <path stroke="null" stroke-width="0px" fill="#211715" d="m179.55403,204.03129c-2.46077,0 -4.16251,1.57518 -4.16251,3.41739l0,0.03385c0.01822,2.04341 1.75184,3.4481 4.16403,3.4481c1.53096,0 2.73933,-0.52966 3.44826,-1.40532c0.46149,-0.56413 0.71425,-1.27243 0.71425,-2.07601c0,-0.73588 -0.27021,-1.426 -0.74764,-1.99013c-0.72639,-0.85873 -1.93552,-1.42725 -3.41638,-1.42725l0,-0.00063z" class="d"/>
    <path stroke="null" stroke-width="0px" fill="#211715" d="m194.90158,204.03129c-2.46077,0 -4.16251,1.57518 -4.16251,3.41739l0,0.03385c0.01822,2.04341 1.75184,3.4481 4.16403,3.4481c1.53096,0 2.73933,-0.52966 3.44826,-1.40532c0.46149,-0.56413 0.71425,-1.27243 0.71425,-2.07601c0,-0.73588 -0.27021,-1.426 -0.74764,-1.99013c-0.72639,-0.85873 -1.93552,-1.42725 -3.41638,-1.42725l0,-0.00063z" class="d"/>
    <path stroke="null" stroke-width="0px" fill="#211715" d="m256.5832,204.03129c-2.46077,0 -4.16251,1.57518 -4.16251,3.41739l0,0.03385c0.01822,2.04341 1.75184,3.4481 4.16403,3.4481c1.53096,0 2.73933,-0.52966 3.44826,-1.40532c0.46149,-0.56413 0.71425,-1.27243 0.71425,-2.07601c0,-0.73588 -0.27021,-1.426 -0.74764,-1.99013c-0.72639,-0.85873 -1.93552,-1.42725 -3.41638,-1.42725l0,-0.00063z" class="d"/>
    <path stroke="null" stroke-width="0px" fill="#211715" d="m271.93074,204.03129c-2.46077,0 -4.16251,1.57518 -4.16251,3.41739l0,0.03385c0.01822,2.04341 1.75184,3.4481 4.16403,3.4481c1.53096,0 2.73933,-0.52966 3.44826,-1.40532c0.46149,-0.56413 0.71425,-1.27243 0.71425,-2.07601c0,-0.73588 -0.27021,-1.426 -0.74764,-1.99013c-0.72639,-0.85873 -1.93552,-1.42725 -3.41638,-1.42725l0,-0.00063z" class="d"/>
    <path stroke="null" stroke-width="0px" fill="#211715" d="m179.55403,202.77766c-2.39853,0.0257 -4.45246,1.18029 -5.3223,3.02625c-0.77117,1.63661 -0.29071,3.59979 1.10059,4.90544c1.46416,1.37397 4.05321,1.80585 6.11928,1.23921c2.43344,-0.66756 3.93935,-2.62196 3.7754,-4.73119c-0.09336,-1.20536 -0.68996,-2.39881 -1.79358,-3.21492c-1.07934,-0.79856 -2.43344,-1.20787 -3.87939,-1.22479c-0.7947,-0.0094 -1.55449,0.58294 -1.51806,1.25363c0.03719,0.68699 0.66719,1.2436 1.51806,1.25363c0.13283,0.00125 0.26414,0.00878 0.39697,0.01379c0.08805,0.00313 0.26566,0.05579 -0.02125,-0.00376c0.20266,0.042 0.4038,0.06958 0.60267,0.12474c0.07666,0.02131 0.15256,0.0445 0.22847,0.06832c-0.34839,-0.1122 0.01063,0.01379 0.06983,0.04074c0.17154,0.0771 0.33701,0.16423 0.49337,0.26075c-0.30437,-0.18867 0.13814,0.12348 0.20949,0.18616c0.00835,0.00689 0.26262,0.23944 0.1055,0.09026c-0.1594,-0.15106 0.09108,0.11157 0.09336,0.11533c0.11993,0.15169 0.22923,0.31278 0.315,0.47951c-0.02732,-0.05391 -0.08425,-0.21186 -0.00911,0.00878c0.03643,0.10719 0.07818,0.21249 0.10854,0.32156c0.01139,0.04262 0.06072,0.39803 0.03264,0.11283c0.00759,0.07647 0.01442,0.15232 0.01746,0.22879c0.00835,0.19494 -0.00304,0.39176 -0.02808,0.58607c0.03188,-0.25135 -0.00455,-0.00689 -0.02049,0.05767c-0.02277,0.08963 -0.04858,0.17864 -0.07894,0.26702c-0.02429,0.06895 -0.05465,0.13602 -0.0797,0.20497c-0.06224,0.13476 -0.05996,0.13288 0.00835,-0.00564c-0.02581,0.04764 -0.05389,0.09402 -0.08349,0.13978c-0.08501,0.13476 -0.18596,0.25887 -0.28615,0.38612c0.21101,-0.2664 -0.11461,0.09778 -0.19887,0.16548c-0.06679,0.05391 -0.13966,0.10154 -0.20797,0.15357c-0.16395,0.12411 0.30057,-0.15608 -0.00759,-0.00251c-0.06452,0.03197 -0.12676,0.06707 -0.19203,0.09904c-0.03567,0.01692 -0.43113,0.18679 -0.23074,0.10656c0.21556,-0.0865 -0.13207,0.03698 -0.14801,0.04137c-0.0759,0.02068 -0.15256,0.04012 -0.22999,0.05704c-0.11917,0.02633 -0.23909,0.0445 -0.35978,0.06707c-0.08122,0.01504 -0.27553,0.0094 0.02732,-0.00063c-0.2148,0.00689 -0.42506,0.02507 -0.64138,0.02068c-0.07514,-0.00125 -0.15029,-0.00439 -0.22543,-0.00815c-0.07363,-0.00439 -0.14725,-0.0094 -0.22088,-0.01692c0.20418,0.02445 0.24896,0.02821 0.13359,0.01254c-0.14649,-0.04325 -0.315,-0.05265 -0.4668,-0.08901c-0.10019,-0.02382 -0.19735,-0.05391 -0.29602,-0.08086c-0.22164,-0.06017 0.06452,0.0351 0.07894,0.02883c-0.04782,0.02131 -0.39697,-0.17425 -0.44251,-0.19807c-0.05617,-0.02946 -0.11006,-0.06205 -0.16623,-0.09151c-0.24592,-0.12975 0.22164,0.18616 -0.04175,-0.03385c-0.10399,-0.08713 -0.20873,-0.17488 -0.31424,-0.26138c-0.24061,-0.19745 0.17534,0.23192 -0.00987,-0.00439c-0.03643,-0.04638 -0.0759,-0.09089 -0.11158,-0.1379c-0.03188,-0.042 -0.2687,-0.32218 -0.24365,-0.36794c-0.0129,0.02382 0.1055,0.24195 0.03264,0.06268c-0.03947,-0.09653 -0.08197,-0.1918 -0.11537,-0.29021c-0.02808,-0.08274 -0.14801,-0.3109 -0.10702,-0.39364l0.02201,0.15106c-0.00911,-0.06205 -0.0167,-0.12411 -0.02201,-0.18679c-0.00607,-0.06331 -0.00987,-0.12724 -0.01214,-0.19055c-0.00455,-0.13539 0.00759,-0.26953 0.01063,-0.40492c0.00683,-0.29021 -0.07135,0.19118 -0.00759,0.02006c0.03643,-0.09778 0.04706,-0.20559 0.07818,-0.30526c0.03871,-0.12348 0.06983,-0.31779 0.16699,-0.41808c-0.21784,0.22691 -0.03492,0.07584 0.02429,-0.01755c0.04934,-0.0771 0.10171,-0.15232 0.15788,-0.22628c0.03719,-0.04889 0.07894,-0.0959 0.11689,-0.14479c0.15712,-0.20309 -0.21177,0.16924 0.05693,-0.0514c0.07894,-0.06456 0.29374,-0.32218 0.41671,-0.33221l-0.14042,0.08775c0.04251,-0.02633 0.08577,-0.05203 0.12979,-0.07647c0.10626,-0.05516 0.20873,-0.11283 0.31879,-0.1636c0.063,-0.02883 0.12903,-0.05391 0.19203,-0.08274c0.28691,-0.13163 -0.25124,0.05829 0.04175,-0.01442c0.2186,-0.05453 0.43113,-0.10468 0.65428,-0.14605c0.28843,-0.05328 -0.02429,-0.00752 -0.05617,0.00313c0.12752,-0.04262 0.34536,-0.01943 0.48198,-0.02068c0.79394,-0.00878 1.55525,-0.5704 1.51806,-1.25363c-0.03643,-0.67194 -0.66719,-1.2624 -1.51806,-1.25363l0,-0.00188z" class="d"/>
    <path stroke="null" stroke-width="0px" fill="#211715" d="m194.90158,202.77766c-2.39853,0.0257 -4.45246,1.18029 -5.3223,3.02625c-0.77117,1.63661 -0.29071,3.59979 1.10059,4.90544c1.46416,1.37397 4.05321,1.80585 6.11928,1.23921c2.43344,-0.66756 3.93935,-2.62196 3.7754,-4.73119c-0.09336,-1.20536 -0.68996,-2.39881 -1.79358,-3.21492c-1.07934,-0.79856 -2.43344,-1.20787 -3.87939,-1.22479c-0.7947,-0.0094 -1.55449,0.58294 -1.51806,1.25363c0.03719,0.68699 0.66719,1.2436 1.51806,1.25363c0.13283,0.00125 0.26414,0.00878 0.39697,0.01379c0.08805,0.00313 0.26566,0.05579 -0.02125,-0.00376c0.20266,0.042 0.4038,0.06958 0.60267,0.12474c0.07666,0.02131 0.15256,0.0445 0.22847,0.06832c-0.34839,-0.1122 0.01063,0.01379 0.06983,0.04074c0.17154,0.0771 0.33701,0.16423 0.49337,0.26075c-0.30437,-0.18867 0.13814,0.12348 0.20949,0.18616c0.00835,0.00689 0.26262,0.23944 0.1055,0.09026c-0.1594,-0.15106 0.09108,0.11157 0.09336,0.11533c0.11993,0.15169 0.22923,0.31278 0.315,0.47951c-0.02732,-0.05391 -0.08425,-0.21186 -0.00911,0.00878c0.03643,0.10719 0.07818,0.21249 0.10854,0.32156c0.01139,0.04262 0.06072,0.39803 0.03264,0.11283c0.00759,0.07647 0.01442,0.15232 0.01746,0.22879c0.00835,0.19494 -0.00304,0.39176 -0.02808,0.58607c0.03188,-0.25135 -0.00455,-0.00689 -0.02049,0.05767c-0.02277,0.08963 -0.04858,0.17864 -0.07894,0.26702c-0.02429,0.06895 -0.05465,0.13602 -0.0797,0.20497c-0.06224,0.13476 -0.05996,0.13288 0.00835,-0.00564c-0.02581,0.04764 -0.05389,0.09402 -0.08349,0.13978c-0.08501,0.13476 -0.18596,0.25887 -0.28615,0.38612c0.21101,-0.2664 -0.11461,0.09778 -0.19887,0.16548c-0.06679,0.05391 -0.13966,0.10154 -0.20797,0.15357c-0.16395,0.12411 0.30057,-0.15608 -0.00759,-0.00251c-0.06452,0.03197 -0.12676,0.06707 -0.19203,0.09904c-0.03567,0.01692 -0.43113,0.18679 -0.23074,0.10656c0.21556,-0.0865 -0.13207,0.03698 -0.14801,0.04137c-0.0759,0.02068 -0.15256,0.04012 -0.22999,0.05704c-0.11917,0.02633 -0.23909,0.0445 -0.35978,0.06707c-0.08122,0.01504 -0.27553,0.0094 0.02732,-0.00063c-0.2148,0.00689 -0.42506,0.02507 -0.64138,0.02068c-0.07514,-0.00125 -0.15029,-0.00439 -0.22543,-0.00815c-0.07363,-0.00439 -0.14725,-0.0094 -0.22088,-0.01692c0.20418,0.02445 0.24896,0.02821 0.13359,0.01254c-0.14649,-0.04325 -0.315,-0.05265 -0.4668,-0.08901c-0.10019,-0.02382 -0.19735,-0.05391 -0.29602,-0.08086c-0.22164,-0.06017 0.06452,0.0351 0.07894,0.02883c-0.04782,0.02131 -0.39697,-0.17425 -0.44251,-0.19807c-0.05617,-0.02946 -0.11006,-0.06205 -0.16623,-0.09151c-0.24592,-0.12975 0.22164,0.18616 -0.04175,-0.03385c-0.10399,-0.08713 -0.20873,-0.17488 -0.31424,-0.26138c-0.24061,-0.19745 0.17534,0.23192 -0.00987,-0.00439c-0.03643,-0.04638 -0.0759,-0.09089 -0.11158,-0.1379c-0.03188,-0.042 -0.2687,-0.32218 -0.24365,-0.36794c-0.0129,0.02382 0.1055,0.24195 0.03264,0.06268c-0.03947,-0.09653 -0.08197,-0.1918 -0.11537,-0.29021c-0.02808,-0.08274 -0.14801,-0.3109 -0.10702,-0.39364l0.02201,0.15106c-0.00911,-0.06205 -0.0167,-0.12411 -0.02201,-0.18679c-0.00607,-0.06331 -0.00987,-0.12724 -0.01214,-0.19055c-0.00455,-0.13539 0.00759,-0.26953 0.01063,-0.40492c0.00683,-0.29021 -0.07135,0.19118 -0.00759,0.02006c0.03643,-0.09778 0.04706,-0.20559 0.07818,-0.30526c0.03871,-0.12348 0.06983,-0.31779 0.16699,-0.41808c-0.21784,0.22691 -0.03492,0.07584 0.02429,-0.01755c0.04934,-0.0771 0.10171,-0.15232 0.15788,-0.22628c0.03719,-0.04889 0.07894,-0.0959 0.11689,-0.14479c0.15712,-0.20309 -0.21177,0.16924 0.05693,-0.0514c0.07894,-0.06456 0.29374,-0.32218 0.41671,-0.33221l-0.14042,0.08775c0.04251,-0.02633 0.08577,-0.05203 0.12979,-0.07647c0.10626,-0.05516 0.20873,-0.11283 0.31879,-0.1636c0.063,-0.02883 0.12903,-0.05391 0.19203,-0.08274c0.28691,-0.13163 -0.25124,0.05829 0.04175,-0.01442c0.2186,-0.05453 0.43113,-0.10468 0.65428,-0.14605c0.28843,-0.05328 -0.02429,-0.00752 -0.05617,0.00313c0.12752,-0.04262 0.34536,-0.01943 0.48198,-0.02068c0.79394,-0.00878 1.55525,-0.5704 1.51806,-1.25363c-0.03643,-0.67194 -0.66719,-1.2624 -1.51806,-1.25363l0,-0.00188z" class="d"/>
    <path stroke="null" stroke-width="0px" fill="#211715" d="m256.5832,202.77766c-2.39853,0.0257 -4.45246,1.18029 -5.3223,3.02625c-0.77117,1.63661 -0.29071,3.59979 1.10059,4.90544c1.46416,1.37397 4.05321,1.80585 6.11928,1.23921c2.43344,-0.66756 3.93935,-2.62196 3.7754,-4.73119c-0.09336,-1.20536 -0.68996,-2.39881 -1.79358,-3.21492c-1.07934,-0.79856 -2.43344,-1.20787 -3.87939,-1.22479c-0.7947,-0.0094 -1.55449,0.58294 -1.51806,1.25363c0.03719,0.68699 0.66719,1.2436 1.51806,1.25363c0.13283,0.00125 0.26414,0.00878 0.39697,0.01379c0.08805,0.00313 0.26566,0.05579 -0.02125,-0.00376c0.20266,0.042 0.4038,0.06958 0.60267,0.12474c0.07666,0.02131 0.15256,0.0445 0.22847,0.06832c-0.34839,-0.1122 0.01063,0.01379 0.06983,0.04074c0.17154,0.0771 0.33701,0.16423 0.49337,0.26075c-0.30437,-0.18867 0.13814,0.12348 0.20949,0.18616c0.00835,0.00689 0.26262,0.23944 0.1055,0.09026c-0.1594,-0.15106 0.09108,0.11157 0.09336,0.11533c0.11993,0.15169 0.22923,0.31278 0.315,0.47951c-0.02732,-0.05391 -0.08425,-0.21186 -0.00911,0.00878c0.03643,0.10719 0.07818,0.21249 0.10854,0.32156c0.01139,0.04262 0.06072,0.39803 0.03264,0.11283c0.00759,0.07647 0.01442,0.15232 0.01746,0.22879c0.00835,0.19494 -0.00304,0.39176 -0.02808,0.58607c0.03188,-0.25135 -0.00455,-0.00689 -0.02049,0.05767c-0.02277,0.08963 -0.04858,0.17864 -0.07894,0.26702c-0.02429,0.06895 -0.05465,0.13602 -0.0797,0.20497c-0.06224,0.13476 -0.05996,0.13288 0.00835,-0.00564c-0.02581,0.04764 -0.05389,0.09402 -0.08349,0.13978c-0.08501,0.13476 -0.18596,0.25887 -0.28615,0.38612c0.21101,-0.2664 -0.11461,0.09778 -0.19887,0.16548c-0.06679,0.05391 -0.13966,0.10154 -0.20797,0.15357c-0.16395,0.12411 0.30057,-0.15608 -0.00759,-0.00251c-0.06452,0.03197 -0.12676,0.06707 -0.19203,0.09904c-0.03567,0.01692 -0.43113,0.18679 -0.23074,0.10656c0.21556,-0.0865 -0.13207,0.03698 -0.14801,0.04137c-0.0759,0.02068 -0.15256,0.04012 -0.22999,0.05704c-0.11917,0.02633 -0.23909,0.0445 -0.35978,0.06707c-0.08122,0.01504 -0.27553,0.0094 0.02732,-0.00063c-0.2148,0.00689 -0.42506,0.02507 -0.64138,0.02068c-0.07514,-0.00125 -0.15029,-0.00439 -0.22543,-0.00815c-0.07363,-0.00439 -0.14725,-0.0094 -0.22088,-0.01692c0.20418,0.02445 0.24896,0.02821 0.13359,0.01254c-0.14649,-0.04325 -0.315,-0.05265 -0.4668,-0.08901c-0.10019,-0.02382 -0.19735,-0.05391 -0.29602,-0.08086c-0.22164,-0.06017 0.06452,0.0351 0.07894,0.02883c-0.04782,0.02131 -0.39697,-0.17425 -0.44251,-0.19807c-0.05617,-0.02946 -0.11006,-0.06205 -0.16623,-0.09151c-0.24592,-0.12975 0.22164,0.18616 -0.04175,-0.03385c-0.10399,-0.08713 -0.20873,-0.17488 -0.31424,-0.26138c-0.24061,-0.19745 0.17534,0.23192 -0.00987,-0.00439c-0.03643,-0.04638 -0.0759,-0.09089 -0.11158,-0.1379c-0.03188,-0.042 -0.2687,-0.32218 -0.24365,-0.36794c-0.0129,0.02382 0.1055,0.24195 0.03264,0.06268c-0.03947,-0.09653 -0.08197,-0.1918 -0.11537,-0.29021c-0.02808,-0.08274 -0.14801,-0.3109 -0.10702,-0.39364l0.02201,0.15106c-0.00911,-0.06205 -0.0167,-0.12411 -0.02201,-0.18679c-0.00607,-0.06331 -0.00987,-0.12724 -0.01214,-0.19055c-0.00455,-0.13539 0.00759,-0.26953 0.01063,-0.40492c0.00683,-0.29021 -0.07135,0.19118 -0.00759,0.02006c0.03643,-0.09778 0.04706,-0.20559 0.07818,-0.30526c0.03871,-0.12348 0.06983,-0.31779 0.16699,-0.41808c-0.21784,0.22691 -0.03492,0.07584 0.02429,-0.01755c0.04934,-0.0771 0.10171,-0.15232 0.15788,-0.22628c0.03719,-0.04889 0.07894,-0.0959 0.11689,-0.14479c0.15712,-0.20309 -0.21177,0.16924 0.05693,-0.0514c0.07894,-0.06456 0.29374,-0.32218 0.41671,-0.33221l-0.14042,0.08775c0.04251,-0.02633 0.08577,-0.05203 0.12979,-0.07647c0.10626,-0.05516 0.20873,-0.11283 0.31879,-0.1636c0.063,-0.02883 0.12903,-0.05391 0.19203,-0.08274c0.28691,-0.13163 -0.25124,0.05829 0.04175,-0.01442c0.2186,-0.05453 0.43113,-0.10468 0.65428,-0.14605c0.28843,-0.05328 -0.02429,-0.00752 -0.05617,0.00313c0.12752,-0.04262 0.34536,-0.01943 0.48198,-0.02068c0.79394,-0.00878 1.55525,-0.5704 1.51806,-1.25363c-0.03643,-0.67194 -0.66719,-1.2624 -1.51806,-1.25363l0,-0.00188z" class="d"/>
    <path stroke="null" stroke-width="0px" fill="#211715" d="m271.93074,202.77766c-2.39853,0.0257 -4.45246,1.18029 -5.3223,3.02625c-0.77117,1.63661 -0.29071,3.59979 1.10059,4.90544c1.46416,1.37397 4.05321,1.80585 6.11928,1.23921c2.43344,-0.66756 3.93935,-2.62196 3.7754,-4.73119c-0.09336,-1.20536 -0.68996,-2.39881 -1.79358,-3.21492c-1.07934,-0.79856 -2.43344,-1.20787 -3.87939,-1.22479c-0.7947,-0.0094 -1.55449,0.58294 -1.51806,1.25363c0.03719,0.68699 0.66719,1.2436 1.51806,1.25363c0.13283,0.00125 0.26414,0.00878 0.39697,0.01379c0.08805,0.00313 0.26566,0.05579 -0.02125,-0.00376c0.20266,0.042 0.4038,0.06958 0.60267,0.12474c0.07666,0.02131 0.15256,0.0445 0.22847,0.06832c-0.34839,-0.1122 0.01063,0.01379 0.06983,0.04074c0.17154,0.0771 0.33701,0.16423 0.49337,0.26075c-0.30437,-0.18867 0.13814,0.12348 0.20949,0.18616c0.00835,0.00689 0.26262,0.23944 0.1055,0.09026c-0.1594,-0.15106 0.09108,0.11157 0.09336,0.11533c0.11993,0.15169 0.22923,0.31278 0.315,0.47951c-0.02732,-0.05391 -0.08425,-0.21186 -0.00911,0.00878c0.03643,0.10719 0.07818,0.21249 0.10854,0.32156c0.01139,0.04262 0.06072,0.39803 0.03264,0.11283c0.00759,0.07647 0.01442,0.15232 0.01746,0.22879c0.00835,0.19494 -0.00304,0.39176 -0.02808,0.58607c0.03188,-0.25135 -0.00455,-0.00689 -0.02049,0.05767c-0.02277,0.08963 -0.04858,0.17864 -0.07894,0.26702c-0.02429,0.06895 -0.05465,0.13602 -0.0797,0.20497c-0.06224,0.13476 -0.05996,0.13288 0.00835,-0.00564c-0.02581,0.04764 -0.05389,0.09402 -0.08349,0.13978c-0.08501,0.13476 -0.18596,0.25887 -0.28615,0.38612c0.21101,-0.2664 -0.11461,0.09778 -0.19887,0.16548c-0.06679,0.05391 -0.13966,0.10154 -0.20797,0.15357c-0.16395,0.12411 0.30057,-0.15608 -0.00759,-0.00251c-0.06452,0.03197 -0.12676,0.06707 -0.19203,0.09904c-0.03567,0.01692 -0.43113,0.18679 -0.23074,0.10656c0.21556,-0.0865 -0.13207,0.03698 -0.14801,0.04137c-0.0759,0.02068 -0.15256,0.04012 -0.22999,0.05704c-0.11917,0.02633 -0.23909,0.0445 -0.35978,0.06707c-0.08122,0.01504 -0.27553,0.0094 0.02732,-0.00063c-0.2148,0.00689 -0.42506,0.02507 -0.64138,0.02068c-0.07514,-0.00125 -0.15029,-0.00439 -0.22543,-0.00815c-0.07363,-0.00439 -0.14725,-0.0094 -0.22088,-0.01692c0.20418,0.02445 0.24896,0.02821 0.13359,0.01254c-0.14649,-0.04325 -0.315,-0.05265 -0.4668,-0.08901c-0.10019,-0.02382 -0.19735,-0.05391 -0.29602,-0.08086c-0.22164,-0.06017 0.06452,0.0351 0.07894,0.02883c-0.04782,0.02131 -0.39697,-0.17425 -0.44251,-0.19807c-0.05617,-0.02946 -0.11006,-0.06205 -0.16623,-0.09151c-0.24592,-0.12975 0.22164,0.18616 -0.04175,-0.03385c-0.10399,-0.08713 -0.20873,-0.17488 -0.31424,-0.26138c-0.24061,-0.19745 0.17534,0.23192 -0.00987,-0.00439c-0.03643,-0.04638 -0.0759,-0.09089 -0.11158,-0.1379c-0.03188,-0.042 -0.2687,-0.32218 -0.24365,-0.36794c-0.0129,0.02382 0.1055,0.24195 0.03264,0.06268c-0.03947,-0.09653 -0.08197,-0.1918 -0.11537,-0.29021c-0.02808,-0.08274 -0.14801,-0.3109 -0.10702,-0.39364l0.02201,0.15106c-0.00911,-0.06205 -0.0167,-0.12411 -0.02201,-0.18679c-0.00607,-0.06331 -0.00987,-0.12724 -0.01214,-0.19055c-0.00455,-0.13539 0.00759,-0.26953 0.01063,-0.40492c0.00683,-0.29021 -0.07135,0.19118 -0.00759,0.02006c0.03643,-0.09778 0.04706,-0.20559 0.07818,-0.30526c0.03871,-0.12348 0.06983,-0.31779 0.16699,-0.41808c-0.21784,0.22691 -0.03492,0.07584 0.02429,-0.01755c0.04934,-0.0771 0.10171,-0.15232 0.15788,-0.22628c0.03719,-0.04889 0.07894,-0.0959 0.11689,-0.14479c0.15712,-0.20309 -0.21177,0.16924 0.05693,-0.0514c0.07894,-0.06456 0.29374,-0.32218 0.41671,-0.33221l-0.14042,0.08775c0.04251,-0.02633 0.08577,-0.05203 0.12979,-0.07647c0.10626,-0.05516 0.20873,-0.11283 0.31879,-0.1636c0.063,-0.02883 0.12903,-0.05391 0.19203,-0.08274c0.28691,-0.13163 -0.25124,0.05829 0.04175,-0.01442c0.2186,-0.05453 0.43113,-0.10468 0.65428,-0.14605c0.28843,-0.05328 -0.02429,-0.00752 -0.05617,0.00313c0.12752,-0.04262 0.34536,-0.01943 0.48198,-0.02068c0.79394,-0.00878 1.55525,-0.5704 1.51806,-1.25363c-0.03643,-0.67194 -0.66719,-1.2624 -1.51806,-1.25363l0,-0.00188z" class="d"/>
    <path stroke="null" fill="#645d5c" stroke-width="0px" d="m282.47971,200.35942l0,4.21532c0,1.48805 -1.46265,2.69592 -3.26458,2.69592c-55.59726,-0.00627 -90.79869,-0.00627 -106.39747,-0.00627c-2.55641,0 -4.8426,-1.31004 -5.72079,-3.28701c-0.41595,-0.92204 -0.66187,-1.60213 -0.88579,-2.26342c-0.16167,-0.47074 -0.30817,-0.92204 -0.44631,-1.35454l116.71493,0z" class="e"/>
    <path stroke="null" fill="#3d8dcc" stroke-width="0px" d="m236.94867,178.21662l28.03545,0c2.08884,0 3.78148,1.39842 3.78148,3.12278c0,2.70533 0,5.41002 0,8.11535c0,1.52316 -1.49301,2.75798 -3.3382,2.75798c-6.67337,0 -21.64292,0 -28.92351,0c-1.84444,0 -3.33669,-1.23482 -3.33669,-2.75798l0,-8.11535c0,-1.72499 1.69339,-3.12278 3.78148,-3.12278z" class="g"/>
    <path stroke="null" fill="#ffffff" stroke-width="0px" d="m216.54221,200.36193l0,-22.52704c0,-1.66607 -1.64026,-3.01999 -3.657,-3.01999l-20.68047,0c-2.0175,0 -3.657,1.35454 -3.657,3.01999l0,22.52704l27.99522,0l-0.00076,0z" class="f"/>
    <path stroke="null" stroke-width="0px" fill="#211715" d="m218.06027,200.36193l0,-21.72284c0,-0.86626 -0.01139,-1.68738 -0.44327,-2.50851c-0.8744,-1.66356 -2.83421,-2.55552 -4.97619,-2.56931c-6.34623,-0.04012 -12.6955,0 -19.04173,0c-1.02089,0 -2.06531,-0.05265 -3.0475,0.22628c-2.17613,0.61804 -3.49684,2.29414 -3.52265,4.16204c-0.02657,1.93121 0,3.8643 0,5.79614l0,16.61682c0,1.61342 3.03611,1.61592 3.03611,0l0,-21.22953c0,-0.42999 -0.02732,-0.86688 0,-1.29625c0.07666,-1.19533 1.17346,-1.76448 2.50859,-1.76824c6.23617,-0.01755 12.47234,0 18.70852,0c0.66719,0 1.43153,-0.07647 2.08884,0.04701c1.25543,0.23694 1.65316,1.15271 1.65316,2.09356l0,6.3164c0,5.17372 -0.07818,10.35182 0,15.52491c0.00152,0.10342 0,0.20748 0,0.3109c0,1.61342 3.03611,1.61592 3.03611,0l0,0l0,0.00063z" class="d"/>
    <path stroke="null" stroke-width="0px" fill="#211715" d="m201.02693,175.04306l0,25.31824c0,1.61342 3.03611,1.61592 3.03611,0l0,-25.31824c0,-1.61342 -3.03611,-1.61592 -3.03611,0l0,0z" class="d"/>
    <path stroke="null" stroke-width="0px" fill="#211715" d="m236.94867,179.47024l27.26352,0c0.45086,0 0.93588,-0.03259 1.37308,0.06707c0.76662,0.17488 1.36929,0.67257 1.58105,1.30565c0.15332,0.45945 0.08122,0.96216 0.08046,1.43352c0,0.72836 0,1.45671 0,2.18507c0,1.14456 0,2.28912 0,3.43306c0,0.89007 0.28691,2.03025 -0.62013,2.69467c-0.59735,0.43752 -1.34196,0.37045 -2.08353,0.37045c-0.88579,0 -1.77233,0 -2.65812,0c-8.39712,0 -16.7988,0.06958 -25.19593,0c-1.53855,-0.01254 -2.00383,-0.9258 -2.00383,-2.02147l0,-3.69632c0,-1.17841 0,-2.35682 0,-3.53585c0,-1.1665 0.69375,-2.19134 2.26342,-2.23522c1.94842,-0.05453 1.95753,-2.56179 0,-2.50725c-2.62472,0.07334 -4.87979,1.59649 -5.23805,3.78595c-0.13359,0.81736 -0.06148,1.66795 -0.06148,2.4897c0,2.13054 -0.16015,4.30495 0.00987,6.43173c0.18217,2.27847 2.45166,3.78094 5.1242,3.79598c2.01825,0.01128 4.03727,0 6.05552,0c4.89876,0 9.79829,0 14.69705,0c2.11313,0 4.22703,0 6.34016,0c0.98142,0 2.01294,0.06644 2.96324,-0.17237c1.22583,-0.30839 2.31959,-1.04552 2.89797,-1.99327c0.68161,-1.11698 0.5465,-2.3493 0.5465,-3.56218c0,-1.40469 0,-2.80938 0,-4.21344c0,-1.18844 0.18976,-2.4991 -0.30741,-3.63865c-0.42126,-0.96655 -1.24025,-1.80397 -2.31731,-2.32485c-1.67062,-0.80796 -3.80045,-0.59735 -5.66386,-0.59735l-8.85861,0c-5.29194,0 -10.5983,-0.09465 -15.88949,0c-0.09943,0.00188 -0.19962,0 -0.29906,0c-1.95374,0 -1.95677,2.50725 0,2.50725l0.00076,-0.00188z" class="d"/>
    <path stroke="null" stroke-width="0px" fill="#211715" d="m279.21741,166.5955c-4.22171,0 -8.44342,0 -12.66514,0c-9.78918,0 -19.5776,0 -29.36678,0l-33.12625,0c-7.95309,0 -15.90618,0 -23.85928,0c-1.52033,0 -3.04218,-0.0163 -4.56176,0c-2.76362,0.03009 -5.32913,1.15334 -6.76218,3.13281c-1.18864,1.64288 -1.36321,3.78094 -1.79055,5.62627c-0.4706,2.0315 -0.91994,4.06551 -1.35107,6.10265c-0.45162,2.13242 -0.88427,4.26734 -1.30021,6.40478c-0.43113,2.21578 -1.01102,4.46604 -1.10894,6.71317c-0.08122,1.8654 0.26642,3.72202 0.79698,5.53037c0.51234,1.7463 1.01027,3.74584 2.12224,5.30973c1.08086,1.52002 2.98526,2.66333 5.09308,2.98175c1.11198,0.16799 2.249,0.12348 3.37388,0.12348c1.95677,0 3.91279,0 5.86956,0c11.79605,0 23.59286,0 35.38891,0.00063c18.47398,0 36.94795,0.00125 55.42193,0.00188c1.35411,0 2.70745,0 4.06156,0c1.36777,0 2.77804,0.08211 4.13822,-0.02006c2.09492,-0.15733 3.9348,-1.43854 4.31128,-3.17732c0.16015,-0.73839 0.09336,-1.51814 0.09336,-2.26405l0,-10.55616c0,-7.24157 0.05845,-14.48502 0,-21.7266c-0.01822,-2.29288 -1.94539,-4.09434 -4.77884,-4.18398c-1.95374,-0.06205 -1.9507,2.4452 0,2.50725c1.61217,0.0514 1.74273,1.18781 1.74273,2.19886l0,3.48696c0,4.04796 0,8.09592 0,12.14388c0,4.16705 0,8.33411 0,12.50116l0,3.98967c0,0.72648 0.16471,1.61154 -0.51462,2.17003c-0.65428,0.53843 -1.51578,0.4231 -2.36741,0.4231c-1.37005,0 -2.74009,0 -4.11014,0c-2.66419,0 -5.32762,0 -7.9918,0c-4.96784,0 -9.93643,0 -14.90427,0c-8.75083,0 -17.5009,-0.00063 -26.25173,-0.00063c-12.801,0 -25.60201,-0.00063 -38.40301,-0.00063c-4.07446,0 -8.14968,0 -12.22414,0c-1.17649,0 -2.3416,0.05767 -3.42625,-0.3974c-1.84671,-0.77474 -2.41067,-2.2979 -2.95565,-3.83422c-0.63151,-1.7814 -1.25012,-3.61483 -1.41179,-5.47396c-0.1723,-1.97321 0.22088,-3.89 0.58976,-5.8325c0.79546,-4.1915 1.65089,-8.37548 2.5898,-12.54692c0.43644,-1.94061 0.79015,-3.92698 1.38067,-5.84002c0.43265,-1.40155 1.71009,-2.50098 3.41487,-2.86642c1.26075,-0.27016 2.77956,-0.11972 4.06535,-0.11972c7.03467,0 14.06934,0 21.10325,0l31.62489,0c10.08596,0 20.17192,0 30.25864,0c5.66842,0 11.33608,0 17.0045,0l0.78787,0c1.95374,0 1.95677,-2.50725 0,-2.50725l-0.00152,-0.00063z" class="d"/>
    <path stroke="null" stroke-width="0px" fill="#211715" d="m166.2331,201.61555l115.47848,0c1.95374,0 1.95677,-2.50725 0,-2.50725l-115.47848,0c-1.95374,0 -1.95677,2.50725 0,2.50725l0,0z" class="d"/>
    <path stroke="null" stroke-width="0px" fill="#211715" d="m164.90708,195.88021l5.41263,0c1.35714,0 2.66646,-0.37421 3.33061,-1.43603c0.46073,-0.73651 0.49565,-1.65416 0.65504,-2.46087c0.18368,-0.93019 0.36661,-1.86038 0.54802,-2.7912c0.56851,-2.9128 1.12716,-5.82748 1.74273,-8.73401c0.3317,-1.56703 0.68009,-3.13219 1.04063,-4.69546c0.189,-0.81862 0.5465,-1.69866 0.32638,-2.53295c-0.20873,-0.79104 -0.82962,-1.47426 -1.70781,-1.84283c-0.9966,-0.41808 -2.24141,-0.29398 -3.3253,-0.29398l-2.95338,0c-1.95374,0 -1.95677,2.50725 0,2.50725c1.50363,0 3.14086,-0.16423 4.62855,0c0.19659,0.02194 0.27932,-0.01692 0.40304,0.14041c0.06224,0.07961 -0.10475,0.52214 -0.11082,0.54533c-0.10626,0.44441 -0.20646,0.88945 -0.30892,1.33449c-0.30968,1.35141 -0.60874,2.7047 -0.89641,4.05987c-0.53891,2.53734 -1.0338,5.08095 -1.52868,7.62455c-0.29754,1.5288 -0.59584,3.05759 -0.89945,4.58514c-0.07363,0.36982 -0.08425,1.34075 -0.4038,1.468c-0.14042,0.05579 -0.39545,0.01442 -0.54119,0.01442l-5.41263,0c-1.95374,0 -1.95677,2.50725 0,2.50725l0,0l0.00076,0.00063z" class="d"/>
    <path stroke="null" fill="#ffffff" stroke-width="0px" d="m10.54816,61.96033c-6.90412,3.72014 -8.00015,6.74388 -7.73525,10.02462c0.2482,3.06637 3.42777,5.4119 9.1774,5.4119l109.14667,0c2.54198,0 4.60274,-1.6504 4.60274,-3.6888c0,-7.44278 0,-23.1714 0,-31.9004c0,-2.0384 -2.05697,-3.68629 -4.59895,-3.68629c-12.07006,0 -43.72759,0 -43.72759,0c0,0 -0.54422,0 -1.27896,0c-12.91258,0 -24.33519,3.53836 -30.17211,6.18539c-11.5858,5.2552 -35.41396,17.65356 -35.41396,17.65356" class="f"/>
    <path stroke="null" stroke-width="0px" fill="#211715" d="m125.73973,61.96033l0,6.33771l-83.62133,0c-1.1689,0 -1.84216,-1.06558 -1.15069,-1.82152l2.60347,-2.84385c0.96245,-1.05117 2.49189,-1.67234 4.11848,-1.67234l78.05006,0z" class="d"/>
    <rect stroke="null" fill="#ffffff" stroke-width="0px" ry="4.043" rx="4.043" height="20.10064" width="12.98545" y="50.7059" x="64.82851" class="f"/>
    <path stroke="null" fill="#3d8dcc" stroke-width="0px" d="m90.3698,49.75127l4.70673,0c1.03076,0 1.86645,0.67006 1.86645,1.4962c0,1.29625 0,2.59313 0,3.88938c0,0.72961 -0.74309,1.3207 -1.65316,1.3207c-3.28431,0 -1.54993,0 -5.13482,0c-0.90932,0 -1.65164,-0.59108 -1.65164,-1.3207l0,-3.89c0,-0.82677 0.83569,-1.4962 1.86645,-1.4962l0,0.00063z" class="g"/>
    <path stroke="null" fill="#3d8dcc" stroke-width="0px" d="m107.65893,49.75127l4.70673,0c1.03076,0 1.86645,0.67006 1.86645,1.4962c0,1.29625 0,2.59313 0,3.88938c0,0.72961 -0.74309,1.3207 -1.65316,1.3207c-3.28431,0 -1.54993,0 -5.13482,0c-0.90932,0 -1.65164,-0.59108 -1.65164,-1.3207l0,-3.89c0,-0.82677 0.83569,-1.4962 1.86645,-1.4962l0,0.00063z" class="g"/>
    <path stroke="null" stroke-width="0px" fill="#211715" d="m76.13499,36.86712c-7.09691,0.01818 -14.19989,1.01857 -20.93778,2.85075c-4.71888,1.28309 -9.0886,3.04568 -13.38773,5.07844c-8.66051,4.09497 -17.15706,8.43064 -25.63237,12.78072c-2.13514,1.09567 -4.26801,2.19385 -6.39481,3.30017c-1.64937,0.85811 -0.12752,3.02813 1.53248,2.16501c5.58493,-2.90528 11.19945,-5.77295 16.83448,-8.61116c4.38718,-2.21014 8.78802,-4.40274 13.23061,-6.53453c3.94163,-1.89172 7.87188,-3.72828 12.15659,-5.04647c7.22063,-2.2208 14.88757,-3.45562 22.59853,-3.47568c1.95298,-0.00501 1.95677,-2.51227 0,-2.50725l0,0z" class="d"/>
    <path stroke="null" stroke-width="0px" fill="#211715" d="m30.05973,53.23698l7.31779,0c2.76134,0 5.68056,0.24195 8.23469,-0.7948c2.45545,-0.99663 4.85322,-2.10609 7.27528,-3.15788c1.08389,-0.47011 2.25204,-0.89007 2.60954,-1.97509c0.55789,-1.6924 -1.00192,-3.11087 -3.0103,-3.16353c-2.71732,-0.07083 -5.44982,0 -8.16866,0c-1.95374,0 -1.95677,2.50725 0,2.50725l7.07642,0c0.37572,0 0.7651,-0.02382 1.1393,0c0.03112,0.00188 0.063,0 0.09412,-0.00125c-0.0167,0 -0.05313,-0.03636 -0.05693,-0.03573c0.04478,-0.00878 -0.02505,0.03071 -0.00304,0.02633c-0.45466,0.0934 -1.21217,0.47575 -1.72755,0.6989c-2.23382,0.96968 -4.44183,2.01646 -6.71815,2.91593c-1.8748,0.74089 -4.35758,0.47136 -6.38494,0.47136l-7.67908,0c-1.95374,0 -1.95677,2.50725 0,2.50725l0,0l0.00152,0.00125z" class="d"/>
    <path stroke="null" stroke-width="0px" fill="#211715" d="m11.99107,78.64986c2.24444,0 4.48813,0 6.73258,0l17.17832,0c7.66694,0 15.33464,0 23.00158,0l24.48699,0c7.1212,0 14.2424,0 21.36359,0c4.55948,0 9.11972,0 13.6792,0c0.86377,0 1.72907,0.01128 2.59284,0c1.62508,-0.02194 3.14541,-0.46133 4.35226,-1.37899c2.0638,-1.56891 1.88011,-3.7239 1.88011,-5.835c0,-9.48807 0,-18.97551 0,-28.46358c0,-1.17778 0.00152,-2.28661 -0.64366,-3.36912c-0.61254,-1.02672 -1.71237,-1.84032 -2.97311,-2.29414c-1.9545,-0.70391 -4.36213,-0.44128 -6.45477,-0.44128c-4.66271,0 -9.32541,0 -13.98812,0c-8.11552,0 -16.23105,0 -24.34733,0c-0.47895,0 -0.95865,0 -1.4376,0c-1.95374,0 -1.95677,2.50725 0,2.50725c5.96748,0 11.93495,0 17.90243,0c4.91091,0 9.82182,0 14.73197,0c2.19359,0 4.38794,0 6.58153,0c0.93892,0 1.87708,0 2.81599,0c0.90704,0 1.93021,-0.10719 2.79322,0.15545c2.49872,0.76158 1.98334,3.11714 1.98334,4.87347c0,2.29915 0,4.5983 0,6.89808c0,4.93929 0,9.87795 0,14.81724c0,2.05783 0,4.11565 0,6.17348c0,0.84181 0.15181,1.76197 -0.3408,2.53107c-0.54195,0.84682 -1.61597,1.29312 -2.74389,1.32007c-0.56927,0.01379 -1.14234,0 -1.71161,0l-12.09207,0c-6.69614,0 -13.39229,0 -20.08767,0l-23.8107,0c-7.75347,0 -15.50618,0 -23.25965,0l-18.43527,0c-3.11277,0 -6.22479,0 -9.33756,0l-0.41215,0c-1.95374,0 -1.95677,2.50725 0,2.50725l0,0l0,-0.00125z" class="d"/>
    <path stroke="null" stroke-width="0px" fill="#211715" d="m9.7823,60.87783c-3.55908,1.93685 -7.31323,4.46792 -8.24684,8.09466c-0.76206,2.96169 -0.03036,6.07445 3.03839,7.94987c2.11996,1.29562 4.83197,1.70869 7.41798,1.7275c1.9545,0.01442 1.95601,-2.49284 0,-2.50725c-2.13211,-0.01567 -4.51849,-0.31967 -6.13522,-1.57769c-1.26226,-0.98159 -1.58865,-2.22393 -1.55828,-3.60167c0.02884,-1.29061 0.46073,-2.53985 1.38143,-3.70697c1.3875,-1.76009 3.54238,-3.07515 5.63502,-4.21406c1.62432,-0.88381 0.1055,-3.05634 -1.53248,-2.16501l0,0l0,0.00063z" class="d"/>
    <path stroke="null" stroke-width="0px" fill="#211715" d="m90.3698,51.00489l4.09344,0c0.19962,0 0.40077,0.00501 0.60115,0c0.06604,-0.00188 0.23758,-0.00313 0.04402,-0.00815c-0.21025,-0.00501 0.01746,0.00878 0.07894,0.02131c0.06907,0.01379 0.24744,0.1053 0.08046,0.01692c-0.16926,-0.09026 -0.01214,0.00188 0.0167,0.01818c0.24592,0.13727 -0.02353,-0.03698 -0.04175,-0.03761c-0.00987,0 0.15864,0.10781 0.1556,0.12474c-0.11006,-0.12787 -0.13359,-0.15357 -0.07059,-0.07772c0.03112,0.03698 0.05996,0.07459 0.08577,0.11408c0.13283,0.16046 -0.0167,-0.04952 -0.02277,-0.05203c0.02125,0.00689 0.0501,0.18428 0.05541,0.17676c-0.01518,0.0188 0.00759,-0.26075 -0.02353,-0.10154c-0.01594,0.08086 0.00152,0.17237 0.00152,0.25574c0,0.39364 0,0.78728 0,1.18092c0,0.76409 0,1.52817 0,2.29226c0,0.06895 -0.00304,0.13915 0,0.2081c0.01214,0.27642 0.00455,-0.06582 0.01746,-0.05579c0.00076,0.00063 -0.04326,0.15796 -0.063,0.17425c0.1685,-0.14354 0.08273,-0.14291 0.00683,-0.05892c0.27401,-0.30463 0.04023,-0.05641 0.03567,-0.04325l-0.07818,0.06205l0.13587,-0.08399c0.00152,-0.00376 -0.16623,0.09841 -0.189,0.09277c0.1556,0.03636 0.19659,-0.08462 -0.0038,-0.01504c-0.18217,0.06331 0.26262,0.01379 0.06072,-0.00627c-0.09108,-0.00878 -0.18824,0.00188 -0.28084,0.00188c-0.17306,0 -0.34612,0 -0.51917,0c-0.26718,0 -0.53436,0 -0.80153,0c-0.54422,0 -1.08845,0 -1.63343,0c-0.59811,0 -1.19623,0.00313 -1.79434,0c-0.03492,0 -0.26945,0.01379 -0.2816,-0.00313c-0.01442,-0.01943 0.29754,0.06895 0.11993,0.00815c-0.04934,-0.01692 -0.27477,-0.08901 -0.08273,-0.01191c0.19355,0.07772 -0.02429,-0.01442 -0.063,-0.04137c-0.14953,-0.1053 0.22695,0.0865 0.05161,0.02883c-0.07514,-0.02507 -0.14118,-0.19118 -0.05693,-0.04262c0.10171,0.1799 -0.12828,-0.1053 0.03036,0.04576c0.16091,0.15357 -0.08729,-0.05704 -0.03188,-0.10593c-0.01518,0.01316 0.00911,0.25511 0.01746,0.04952c0,-0.01692 0,-0.03385 0,-0.05015c-0.00076,-0.0771 0,-0.1542 0,-0.23129l0,-0.87817c0,-0.77035 0,-1.54008 0,-2.31043c0,-0.01442 0.00152,-0.50835 0.0038,-0.50835c-0.1852,-0.00815 0.04706,0.26138 -0.00076,0.05955c0.04402,-0.10907 0.04251,-0.11596 -0.00455,-0.02131c-0.05237,0.09277 -0.04782,0.08775 0.01366,-0.01442c0.03036,-0.03824 0.07287,-0.12975 0.11537,-0.15169l-0.10095,0.11471c0.03643,-0.03322 0.07514,-0.06519 0.11537,-0.09465c0.1685,-0.10342 -0.21556,0.13727 -0.04782,0.03197c0.03036,-0.01692 0.06224,-0.03259 0.09412,-0.04638c0.09943,-0.04325 0.06224,-0.03322 -0.11158,0.02946c0.03643,-0.02695 0.17989,-0.04576 0.2148,-0.05516c0.2983,-0.07647 -0.29071,0.00752 0.05617,-0.00063c0.79318,-0.02006 1.55525,-0.56225 1.51806,-1.25363c-0.03567,-0.66254 -0.66794,-1.27494 -1.51806,-1.25363c-1.87632,0.04701 -3.36401,1.23231 -3.3845,2.79809c-0.00835,0.65502 0,1.31129 0,1.96631c0,0.61616 -0.01973,1.2342 0,1.84973c0.02277,0.70328 0.32638,1.34201 0.92981,1.84534c0.78332,0.65314 1.79662,0.75468 2.85167,0.75468c0.82355,0 1.64709,0 2.47064,0c1.49756,0 3.1864,0.19118 4.33177,-0.78602c0.7818,-0.66693 0.89186,-1.4611 0.89186,-2.34428s0,-1.75946 0,-2.63951s-0.04934,-1.65729 -0.72639,-2.38001c-0.63986,-0.68385 -1.6228,-1.04239 -2.65812,-1.06433c-1.56663,-0.03322 -3.13934,0 -4.70673,0c-0.79394,0 -1.55449,0.57667 -1.51806,1.25363s0.66719,1.25363 1.51806,1.25363l0.00152,0z" class="d"/>
    <path stroke="null" stroke-width="0px" fill="#211715" d="m107.65893,51.00489l4.09344,0c0.19962,0 0.40077,0.00501 0.60115,0c0.06604,-0.00188 0.23758,-0.00313 0.04402,-0.00815c-0.21025,-0.00501 0.01746,0.00878 0.07894,0.02131c0.06907,0.01379 0.24744,0.1053 0.08046,0.01692c-0.16926,-0.09026 -0.01214,0.00188 0.0167,0.01818c0.24592,0.13727 -0.02353,-0.03698 -0.04175,-0.03761c-0.00987,0 0.15864,0.10781 0.1556,0.12474c-0.11006,-0.12787 -0.13359,-0.15357 -0.07059,-0.07772c0.03112,0.03698 0.05996,0.07459 0.08577,0.11408c0.13283,0.16046 -0.0167,-0.04952 -0.02277,-0.05203c0.02125,0.00689 0.0501,0.18428 0.05541,0.17676c-0.01518,0.0188 0.00759,-0.26075 -0.02353,-0.10154c-0.01594,0.08086 0.00152,0.17237 0.00152,0.25574c0,0.39364 0,0.78728 0,1.18092c0,0.76409 0,1.52817 0,2.29226c0,0.06895 -0.00304,0.13915 0,0.2081c0.01214,0.27642 0.00455,-0.06582 0.01746,-0.05579c0.00076,0.00063 -0.04326,0.15796 -0.063,0.17425c0.1685,-0.14354 0.08273,-0.14291 0.00683,-0.05892c0.27401,-0.30463 0.04023,-0.05641 0.03567,-0.04325l-0.07818,0.06205l0.13587,-0.08399c0.00152,-0.00376 -0.16623,0.09841 -0.189,0.09277c0.1556,0.03636 0.19659,-0.08462 -0.0038,-0.01504c-0.18217,0.06331 0.26262,0.01379 0.06072,-0.00627c-0.09108,-0.00878 -0.18824,0.00188 -0.28084,0.00188c-0.17306,0 -0.34612,0 -0.51917,0c-0.26718,0 -0.53436,0 -0.80153,0c-0.54422,0 -1.08845,0 -1.63343,0c-0.59811,0 -1.19623,0.00313 -1.79434,0c-0.03492,0 -0.26945,0.01379 -0.2816,-0.00313c-0.01442,-0.01943 0.29754,0.06895 0.11993,0.00815c-0.04934,-0.01692 -0.27477,-0.08901 -0.08273,-0.01191c0.19355,0.07772 -0.02429,-0.01442 -0.063,-0.04137c-0.14953,-0.1053 0.22695,0.0865 0.05161,0.02883c-0.07514,-0.02507 -0.14118,-0.19118 -0.05693,-0.04262c0.10171,0.1799 -0.12828,-0.1053 0.03036,0.04576c0.16091,0.15357 -0.08729,-0.05704 -0.03188,-0.10593c-0.01518,0.01316 0.00911,0.25511 0.01746,0.04952c0,-0.01692 0,-0.03385 0,-0.05015c-0.00076,-0.0771 0,-0.1542 0,-0.23129l0,-0.87817c0,-0.77035 0,-1.54008 0,-2.31043c0,-0.01442 0.00152,-0.50835 0.0038,-0.50835c-0.1852,-0.00815 0.04706,0.26138 -0.00076,0.05955c0.04402,-0.10907 0.04251,-0.11596 -0.00455,-0.02131c-0.05237,0.09277 -0.04782,0.08775 0.01366,-0.01442c0.03036,-0.03824 0.07287,-0.12975 0.11537,-0.15169l-0.10095,0.11471c0.03643,-0.03322 0.07514,-0.06519 0.11537,-0.09465c0.1685,-0.10342 -0.21556,0.13727 -0.04782,0.03197c0.03036,-0.01692 0.06224,-0.03259 0.09412,-0.04638c0.09943,-0.04325 0.06224,-0.03322 -0.11158,0.02946c0.03643,-0.02695 0.17989,-0.04576 0.2148,-0.05516c0.2983,-0.07647 -0.29071,0.00752 0.05617,-0.00063c0.79318,-0.02006 1.55525,-0.56225 1.51806,-1.25363c-0.03567,-0.66254 -0.66794,-1.27494 -1.51806,-1.25363c-1.87632,0.04701 -3.36401,1.23231 -3.3845,2.79809c-0.00835,0.65502 0,1.31129 0,1.96631c0,0.61616 -0.01973,1.2342 0,1.84973c0.02277,0.70328 0.32638,1.34201 0.92981,1.84534c0.78332,0.65314 1.79662,0.75468 2.85167,0.75468c0.82355,0 1.64709,0 2.47064,0c1.49756,0 3.1864,0.19118 4.33177,-0.78602c0.7818,-0.66693 0.89186,-1.4611 0.89186,-2.34428s0,-1.75946 0,-2.63951s-0.04934,-1.65729 -0.72639,-2.38001c-0.63986,-0.68385 -1.6228,-1.04239 -2.65812,-1.06433c-1.56663,-0.03322 -3.13934,0 -4.70673,0c-0.79394,0 -1.55449,0.57667 -1.51806,1.25363s0.66719,1.25363 1.51806,1.25363l0.00152,0z" class="d"/>
    <path stroke="null" stroke-width="0px" fill="#211715" d="m76.2959,53.24011l0,9.98075c0,1.58521 0.01063,3.17105 0,4.75626c-0.0038,0.61052 -0.16926,1.20724 -0.93588,1.47803c-0.7021,0.24822 -1.7655,0.09778 -2.50176,0.09778l-3.85662,0c-0.83417,0 -1.78979,0.12035 -2.35602,-0.51775c-0.35674,-0.40116 -0.29982,-0.87503 -0.29982,-1.34201l0,-13.80807c0,-0.59234 -0.07287,-1.18781 0.54346,-1.62219c0.67857,-0.47826 1.90288,-0.304 2.72719,-0.304l4.2923,0c1.10818,0 2.32566,0.1028 2.38638,1.28058c0.08273,1.60715 3.1196,1.61592 3.03611,0c-0.1093,-2.11424 -2.01446,-3.70885 -4.5868,-3.78783c-0.92222,-0.02821 -1.85203,0 -2.77425,0c-2.87823,0 -6.6802,-0.49706 -8.18763,2.12114c-0.778,1.35141 -0.47363,3.17355 -0.47363,4.62839l0,7.31428c0,1.55826 -0.05085,3.12278 0,4.68041c0.04782,1.45671 0.93133,2.82943 2.56855,3.47254c1.19167,0.46823 2.46001,0.39113 3.73897,0.39113l4.16175,0c1.44063,0 2.76058,-0.09904 3.93176,-0.90574c1.90668,-1.31317 1.62204,-3.29578 1.62204,-5.11417l0,-12.80015c0,-1.61342 -3.03611,-1.61592 -3.03611,0l0,0.00063z" class="d"/>
    <path stroke="null" fill="#ffffff" stroke-width="0px" d="m240.24513,50.76106c0.24365,-0.29711 0.51007,-0.61678 0.81444,-0.97908c0.13435,-0.15858 0.25048,-0.34287 0.25048,-0.53342c0,-0.15858 -0.715,-0.76158 -1.04594,-0.97156c-0.29526,-0.18428 -2.12755,-0.30463 -3.9515,0.20309c-4.46764,1.25049 -8.92693,2.64014 -13.47502,4.04859c4.77884,0.7014 9.56071,1.46674 14.26517,2.27784c1.46492,-1.91742 2.0896,-2.76362 3.14162,-4.04608l0.00076,0.00063z" class="f"/>
    <path stroke="null" fill="#ffffff" stroke-width="0px" d="m164.21408,65.71118c0.11917,-0.60989 0.30741,-1.21038 0.5465,-1.79457c1.53324,-3.73643 4.02512,-6.27753 7.53183,-8.73589c0.04478,-0.03134 0.08957,-0.06268 0.13511,-0.09402c6.47602,-4.51493 14.69478,-6.53954 22.87482,-5.83062c20.51728,1.77827 44.35454,5.60308 63.85776,9.81276c4.83045,-1.5545 12.27651,-4.32313 16.85421,-5.35424c1.51881,-0.34224 2.92605,0.81924 2.66495,2.19761c-0.48957,2.58937 -1.29187,6.35714 -2.16702,8.514c2.35602,1.04114 4.45549,2.7141 6.12991,4.85341c1.49301,1.90677 0.01822,4.52308 -2.58904,4.52434c-33.43289,0.01442 -99.15483,0.13414 -105.34318,-0.00501c-4.59591,-0.10342 -10.18539,-0.68699 -10.61728,-6.11582c-0.05237,-0.66129 -0.00455,-1.32195 0.1222,-1.97195l-0.00076,0z" class="f"/>
    <path stroke="null" fill="#3d8dcc" stroke-width="0px" d="m182.75258,54.44547c-0.65276,-0.34663 -1.44443,-0.5541 -2.34388,-0.5541l-5.40352,0s-0.26414,0 -0.72563,0c-0.63151,0.37671 -1.2486,0.77537 -1.85127,1.19533c-0.04478,0.03134 -0.08957,0.06268 -0.13511,0.09402c-2.53971,1.78078 -4.54734,3.6048 -6.04414,5.89518c0,0.00251 14.0997,0.00251 14.0997,0.00251c1.02545,0 2.0175,-0.29523 2.79778,-0.84682c0.0334,-0.02194 0.0592,-0.04388 0.0926,-0.06582c2.35906,-1.67296 1.76702,-4.52496 -0.48654,-5.72155l0,0.00125z" class="g"/>
    <path stroke="null" stroke-width="0px" fill="#211715" d="m275.74562,65.50872c2.10099,0.95213 3.8589,2.32736 5.21983,3.95206c0.43492,0.51963 0.84556,1.02484 0.7522,1.68675c-0.07666,0.54407 -0.48198,1.1339 -1.13247,1.33323c-0.56244,0.17237 -1.3078,0.06895 -1.89985,0.06958c-0.87592,0 -1.75184,0.00063 -2.62851,0.00125c-1.63646,0.00125 -3.27217,0.00188 -4.90863,0.00313c-7.52196,0.00564 -15.04317,0.01379 -22.56514,0.02131c-15.47278,0.01567 -30.94632,0.03322 -46.4191,0.0351c-9.02332,0.00125 -18.05803,0.09089 -27.07983,-0.05955c-2.45925,-0.04074 -5.33672,-0.10092 -7.40432,-1.35016c-3.40196,-2.05532 -2.01522,-6.34272 -0.47136,-8.93146c1.97119,-3.30519 5.34583,-5.9892 9.05141,-7.98623c4.01981,-2.16627 8.67417,-3.52708 13.46667,-3.83672c4.98074,-0.32218 10.07685,0.44817 15.00218,0.99413c5.21452,0.57729 10.41386,1.24924 15.59802,1.99013c10.45485,1.49432 20.85353,3.27134 31.16568,5.33543c2.38335,0.477 4.76138,0.97093 7.1341,1.48179c1.89226,0.40743 2.6991,-2.01019 0.80685,-2.41762c-10.68787,-2.29978 -21.48428,-4.26296 -32.34217,-5.93279c-5.52344,-0.84933 -11.06511,-1.62157 -16.62347,-2.29915c-5.33445,-0.65063 -10.71747,-1.33637 -16.09746,-1.66607c-10.0427,-0.61616 -20.34042,2.95104 -26.8043,9.35143c-3.1826,3.15099 -5.69726,7.44153 -4.81148,11.62738c0.67857,3.2049 3.72303,5.17622 7.45441,5.77796c3.52796,0.56852 7.28667,0.39677 10.86776,0.40806c5.53635,0.01818 11.0727,0.01943 16.60904,0.02068c15.9449,0.00251 31.88979,-0.01567 47.83469,-0.03134c7.95006,-0.00815 15.90011,-0.0163 23.85017,-0.02257c3.43156,-0.00251 6.86313,-0.00501 10.29469,-0.00689c2.14122,-0.00125 3.92493,-0.8744 4.72798,-2.54988c0.94347,-1.97007 -0.16243,-3.67312 -1.61521,-5.21509c-1.50667,-1.59963 -3.34276,-2.97109 -5.50067,-3.94892c-1.71388,-0.77662 -3.24788,1.38776 -1.53248,2.16501l0,0l0.00076,0z" class="d"/>
    <path stroke="null" fill="#ffffff" stroke-width="0px" d="m214.61353,72.11157c10.26054,4.0605 23.02359,8.83117 35.83749,13.55734c5.75115,2.12114 10.06623,-2.47152 5.98493,-6.43361c-6.0707,-5.89392 -11.96455,-10.54989 -16.06786,-13.49153c-1.61749,-1.16023 -3.5606,-1.95754 -5.70333,-1.95754l-17.67396,0c-5.61908,0 -7.4453,6.32016 -2.37803,8.32533l0.00076,0z" class="f"/>
    <path stroke="null" stroke-width="0px" fill="#211715" d="m260.13014,60.09745c4.84943,-1.59524 9.6146,-3.40924 14.58244,-4.74811c0.55485,-0.14981 1.81635,-0.72961 2.2953,-0.23819c0.31196,0.31967 0.15332,0.75719 0.08273,1.11949c-0.09943,0.51023 -0.20266,1.01982 -0.30968,1.5288c-0.44783,2.12615 -0.91691,4.27925 -1.7321,6.33332c-0.61026,1.53695 2.32035,2.1951 2.92757,0.6663c0.92222,-2.32234 1.42014,-4.76817 1.90516,-7.17325c0.25959,-1.28497 0.63151,-2.55364 -0.252,-3.74082c-0.82203,-1.10382 -2.37576,-1.61906 -3.89229,-1.36144c-2.71884,0.46133 -5.40352,1.48743 -7.96675,2.33927c-2.82282,0.93771 -5.61984,1.92682 -8.44646,2.85701c-0.7613,0.2501 -1.2949,0.83742 -1.06036,1.54196c0.19887,0.59798 1.10135,1.12764 1.86721,0.87566l0,0l-0.00076,0z" class="d"/>
    <path stroke="null" stroke-width="0px" fill="#211715" d="m175.00518,55.14499c1.77992,0 3.56288,-0.02695 5.3428,0c1.05733,0.0163 1.91351,0.38862 2.41978,1.05305c0.57307,0.75218 0.6558,1.68049 0.06452,2.46338c-1.02545,1.35705 -2.86457,1.16337 -4.52988,1.16337l-12.05336,0c-1.95374,0 -1.95677,2.50725 0,2.50725l12.52396,0c0.52373,0 1.04974,0.01128 1.57346,0c2.12604,-0.0445 4.16554,-0.97971 5.20238,-2.54047c1.745,-2.62823 0.07514,-6.01427 -3.36173,-6.93443c-1.20154,-0.32156 -2.564,-0.22001 -3.81032,-0.22001l-3.37084,0c-1.95374,0 -1.95677,2.50725 0,2.50725l0,0l-0.00076,0.00063z" class="d"/>
    <path stroke="null" stroke-width="0px" fill="#211715" d="m223.23608,53.73968c3.31392,-1.02672 6.62631,-2.05783 9.96072,-3.03879c1.55828,-0.4582 3.216,-1.09943 4.86537,-1.28371c0.43948,-0.04889 1.19547,0.03134 1.48086,-0.02445c0.27021,0.06644 0.19431,0.01755 -0.22923,-0.14605c0.10171,0.07271 0.19962,0.14855 0.29526,0.22628c0.12069,0.09778 0.36282,0.45193 0.23758,0.10844l0,-0.6663c-0.07135,0.3811 -0.5298,0.74904 -0.79394,1.06997c-0.31348,0.38048 -0.62316,0.76409 -0.92753,1.14958c-0.63531,0.80483 -1.25088,1.62031 -1.871,2.43329c-1.04442,1.36959 1.58181,2.62885 2.62168,1.26554c0.64138,-0.84118 1.2782,-1.6855 1.93704,-2.51728c0.59584,-0.7528 1.46492,-1.52065 1.83533,-2.36747c0.41898,-0.95777 -0.1389,-1.6598 -0.96852,-2.30855c-0.74992,-0.5867 -1.53627,-0.75782 -2.55565,-0.77411c-2.82814,-0.04513 -5.63426,1.08501 -8.24456,1.8654c-2.8251,0.84494 -5.6373,1.71935 -8.45101,2.59125c-0.76738,0.23756 -1.29187,0.84682 -1.06036,1.54196c0.20266,0.60801 1.09604,1.11447 1.86721,0.87566l0,0l0.00076,-0.00063z" class="d"/>
    <path stroke="null" stroke-width="0px" fill="#211715" d="m213.84691,73.19408c8.9793,3.55152 18.04361,6.95637 27.12234,10.33113c2.44635,0.90951 4.89421,1.81525 7.34283,2.71974c2.04103,0.75343 3.97731,1.44292 6.2597,1.11259c3.51961,-0.5096 5.6244,-3.38667 4.78415,-6.20858c-0.52752,-1.77137 -2.12831,-3.09082 -3.54011,-4.41778c-1.68049,-1.57894 -3.40652,-3.12529 -5.17581,-4.63654c-2.78943,-2.38377 -5.68132,-4.68856 -8.6977,-6.87614c-1.56967,-1.13892 -3.29418,-2.14934 -5.37923,-2.51101c-1.78675,-0.31027 -3.69874,-0.17425 -5.5151,-0.17425l-11.68068,0c-1.82318,0 -3.63271,-0.09966 -5.33445,0.53593c-1.46416,0.54721 -2.62927,1.58145 -3.27293,2.78869c-1.4672,2.75234 -0.21025,5.9704 3.08697,7.33622c1.74197,0.72146 3.28128,-1.44042 1.53248,-2.16501c-2.0638,-0.85497 -2.72339,-2.64139 -1.84975,-4.17708c0.4205,-0.73901 1.10818,-1.32195 2.03344,-1.6084c1.17497,-0.36418 2.57159,-0.20371 3.80425,-0.20371l10.50039,0c1.53475,0 3.07027,-0.00689 4.60502,0c1.8285,0.00815 3.43991,0.61804 4.82134,1.59022c2.57234,1.81024 5.02021,3.75461 7.40583,5.7297c1.51806,1.25676 3.00575,2.53922 4.46156,3.84487c1.50971,1.35392 3.20613,2.71222 4.48206,4.22409c1.39357,1.65165 1.08161,4.06802 -1.66227,4.47858c-1.71085,0.25574 -3.32226,-0.52527 -4.82362,-1.08c-2.22016,-0.81987 -4.43879,-1.64225 -6.65667,-2.46651c-9.07873,-3.37476 -18.14228,-6.77961 -27.12234,-10.33113c-1.75411,-0.69388 -3.2957,1.46737 -1.53248,2.16501l0.00076,-0.00063z" class="d"/>
    <path stroke="null" stroke-width="0px" fill="#211715" d="m194.91144,60.67787l2.86153,0c0.50627,0 1.03759,-0.18178 1.39509,-0.47763c0.34232,-0.28269 0.60039,-0.74653 0.57838,-1.15208c-0.02277,-0.42122 -0.19052,-0.85873 -0.57838,-1.15208s-0.86074,-0.47763 -1.39509,-0.47763l-2.86153,0c-0.50627,0 -1.03759,0.18178 -1.39509,0.47763c-0.34232,0.28269 -0.60039,0.74653 -0.57838,1.15208c0.02277,0.42122 0.19052,0.85873 0.57838,1.15208s0.86074,0.47763 1.39509,0.47763l0,0z" class="d"/>
    <path stroke="null" stroke-width="0px" fill="#211715" d="m204.90632,60.67787l2.86153,0c0.50627,0 1.03759,-0.18178 1.39509,-0.47763c0.34232,-0.28269 0.60039,-0.74653 0.57838,-1.15208c-0.02277,-0.42122 -0.19052,-0.85873 -0.57838,-1.15208s-0.86074,-0.47763 -1.39509,-0.47763l-2.86153,0c-0.50627,0 -1.03759,0.18178 -1.39509,0.47763c-0.34232,0.28269 -0.60039,0.74653 -0.57838,1.15208c0.02277,0.42122 0.19052,0.85873 0.57838,1.15208s0.86074,0.47763 1.39509,0.47763l0,0z" class="d"/>
    <path stroke="null" stroke-width="0px" fill="#211715" d="m214.90196,60.67787l2.86153,0c0.50627,0 1.03759,-0.18178 1.39509,-0.47763c0.34232,-0.28269 0.60039,-0.74653 0.57838,-1.15208c-0.02277,-0.42122 -0.19052,-0.85873 -0.57838,-1.15208s-0.86074,-0.47763 -1.39509,-0.47763l-2.86153,0c-0.50627,0 -1.03759,0.18178 -1.39509,0.47763c-0.34232,0.28269 -0.60039,0.74653 -0.57838,1.15208c0.02277,0.42122 0.19052,0.85873 0.57838,1.15208s0.86074,0.47763 1.39509,0.47763l0,0z" class="d"/>
   </g>
  </g>
 </g>

</svg>