<svg xmlns="http://www.w3.org/2000/svg" xmlns="http://www.w3.org/2000/svg" viewBox="-21.59575227944103 -21.588708090121273 187.08438477760095 187.08438477760095"><defs><style>.d{fill:#ffffff;}.e{fill:#211715;}.f{fill:#ffda71;}.g{fill:#645d5c;}</style></defs><path class="f" d="M82.771,51.488c-6.906-6.906-16.792-8.754-25.656-4.603-4.674,2.189-8.676,5.606-12.193,9.337-3.218,3.414-5.924,7.729-10.427,9.587-4.898,2.021-10.266,2.343-15.05,4.728-4.964,2.474-9.448,6.105-12.601,10.695-4.382,6.379-5.225,14.303-3.823,21.889,1.685,9.12,6.76,16.098,14.204,23.544,7.447,7.444,14.425,12.52,23.544,14.205,7.585,1.401,15.51.559,21.889-3.823,4.59-3.153,8.22-7.637,10.695-12.601,2.385-4.785,2.707-10.152,4.728-15.05,1.858-4.503,6.173-7.209,9.587-10.427,3.732-3.517,7.149-7.519,9.337-12.193,4.151-8.865,2.303-18.751-4.603-25.656" /><path class="d" d="M34.19,101.624c-.085-.085-.17-.17-.254-.254,9.374-9.374,18.748-18.748,28.122-28.122,2.982-2.982,5.965-5.965,8.947-8.947,13.26-13.26,26.519-26.519,39.775-39.783,2.259,2.258,6.345,6.344,8.591,8.589-13.261,13.258-26.521,26.518-39.781,39.778-2.982,2.982-5.965,5.965-8.947,8.947-9.374,9.374-18.748,18.748-28.118,28.125-2.573-2.573-5.728-5.728-8.334-8.334Z" /><path class="e" d="M84.468,49.791c-6.777-6.669-16.711-9.312-25.787-6.123-4.8,1.687-9.028,4.683-12.724,8.132-3.365,3.14-5.956,7.113-9.501,10.043-3.725,3.078-9.077,3.429-13.55,4.79-4.793,1.459-9.181,4.098-12.909,7.429s-6.692,7.505-8.357,12.252C-.004,90.999-.327,96.142.295,101.045c.591,4.656,1.943,9.094,4.166,13.237,2.247,4.19,5.268,7.951,8.497,11.421,6.449,6.929,13.899,13.536,23.079,16.457,9.251,2.944,20.272,2.401,28.332-3.394,4.041-2.905,7.386-6.669,9.896-10.964,2.653-4.539,3.559-9.466,4.993-14.446.632-2.193,1.402-4.31,2.909-6.066,1.437-1.674,3.134-3.091,4.809-4.517,3.792-3.229,7.29-6.852,10.013-11.043,5.25-8.082,6.223-18.205,1.382-26.729-1.158-2.039-2.628-3.91-4.271-5.579-2.17-2.205-5.564,1.19-3.394,3.394,5.802,5.895,7.752,14.527,4.467,22.224-1.796,4.208-4.751,7.842-7.971,11.041-3.038,3.018-6.661,5.453-9.277,8.879-2.883,3.777-3.623,8.582-4.818,13.063-1.167,4.377-3.192,8.397-6.136,11.861-2.828,3.327-6.332,6.176-10.476,7.67-4.236,1.527-8.782,1.832-13.233,1.292-8.552-1.037-15.668-5.687-21.836-11.454-6.236-5.83-12.422-12.517-15.067-20.815s-2.178-18.002,3.271-25.125c2.643-3.456,6.134-6.218,9.945-8.28,4.217-2.282,8.984-2.833,13.494-4.294,2.116-.685,4.089-1.56,5.862-2.912s3.273-2.961,4.721-4.648c2.895-3.375,5.886-6.691,9.516-9.303,3.469-2.497,7.441-4.474,11.756-4.845,3.954-.34,7.906.467,11.378,2.401,1.768.985,3.333,2.197,4.773,3.615,2.204,2.169,5.6-1.223,3.394-3.394h0Z" /><path class="e" d="M50.44,93.447c-2.739-2.74-4.314-6.583-3.943-10.4.627-6.436,6.992-12.039,13.457-11.901,3.396.072,6.411,1.703,8.749,4.04,2.356,2.356,3.968,5.352,4.04,8.749.138,6.465-5.465,12.83-11.901,13.457-3.817.372-7.695-1.238-10.402-3.945Z" /><path class="e" d="M52.137,91.75c-3.167-3.259-4.353-8.07-2.066-12.163,2.025-3.624,6.057-6.281,10.289-6.024,4.451.27,8.625,4.231,9.713,8.447,1.046,4.055-1.07,8.353-4.272,10.838-4.27,3.314-9.87,2.587-13.663-1.098-2.217-2.154-5.615,1.237-3.394,3.394,4.776,4.64,11.856,6.136,17.826,2.904,5.209-2.82,9.08-8.891,8.528-14.92-.592-6.461-5.798-12.46-12.129-13.986-6.159-1.484-12.433,1.554-16.071,6.525-4.463,6.098-3.298,14.183,1.846,19.477,2.156,2.219,5.549-1.176,3.394-3.394Z" /><path class="e" d="M119.748,29.332c-21.024,21.024-42.047,42.047-63.071,63.071-5.958,5.958-11.917,11.917-17.875,17.875-2.187,2.187,1.206,5.582,3.394,3.394,21.003-21.003,42.005-42.005,63.008-63.008,5.979-5.979,11.959-11.959,17.938-17.938,2.187-2.187-1.206-5.582-3.394-3.394h0Z" /><path class="e" d="M115.456,25.04c-21.024,21.024-42.047,42.047-63.071,63.071-5.958,5.958-11.917,11.917-17.875,17.875-2.187,2.187,1.206,5.582,3.394,3.394,21.003-21.003,42.005-42.005,63.008-63.008,5.979-5.979,11.959-11.959,17.938-17.938,2.187-2.187-1.206-5.582-3.394-3.394h0Z" /><path class="e" d="M111.164,20.748c-21.024,21.024-42.047,42.047-63.071,63.071l-17.875,17.875c-2.187,2.187,1.206,5.582,3.394,3.394,21.003-21.003,42.005-42.005,63.008-63.008,5.979-5.979,11.959-11.959,17.938-17.938,2.187-2.187-1.206-5.582-3.394-3.394h0Z" /><path class="d" d="M128.816,1.482s13.203,13.203,13.583,13.583c-4.73,4.46-14.385,13.154-21.463,19.607-.498-.498-10.953-10.953-11.721-11.718.869-.953,16.22-17.87,19.6-21.472Z" /><path class="e" d="M128.601,4.662c1.858,1.858,3.716,3.716,5.574,5.574.925.925,1.85,1.85,2.774,2.774.444.444.888.888,1.332,1.332.196.196.391.391.587.587.282.282.251.506.246.123-.005-.412.254-.312-.171-.042-.16.102-.342.317-.473.438-.505.467-1.011.934-1.517,1.4-1.13,1.039-2.263,2.075-3.397,3.11-2.521,2.3-5.049,4.594-7.576,6.887-1.163,1.055-2.326,2.111-3.488,3.167-.239.217-1.64,1.207-1.625,1.503.002.046.41-.08.401.097.007-.138-.674-.674-.781-.781-1.931-1.931-3.863-3.863-5.794-5.794-.472-.472-.945-.945-1.417-1.417-.208-.208-.417-.417-.625-.625l-.193-.193c-.213-.245-.241-.249-.085-.01.201.051-.334.604.231-.006.366-.394.724-.796,1.085-1.194,1.644-1.809,3.288-3.618,4.933-5.426,2.016-2.216,4.033-4.43,6.053-6.642.898-.983,1.796-1.965,2.695-2.946.412-.449.824-.899,1.237-1.347.048-.052.484-.454.471-.512.018.078-.348.054-.481-.059.988.837,2.424.97,3.394,0,.859-.859.993-2.552,0-3.394-1.608-1.363-3.733-1.753-5.573-.545-1.127.74-2.023,2.004-2.927,2.991-2.135,2.331-4.265,4.667-6.394,7.005-2.034,2.233-4.065,4.467-6.097,6.702-.797.877-1.637,1.73-2.378,2.654-1.4,1.743-1.33,4.122.14,5.805,2.143,2.453,4.644,4.665,6.948,6.968,1.114,1.114,2.266,2.641,3.788,3.178,2.23.786,3.874-.333,5.461-1.777,5.719-5.201,11.47-10.369,17.139-15.625,1.686-1.563,2.451-3.913,1.109-5.988-.907-1.403-2.419-2.569-3.595-3.744-2.541-2.541-5.082-5.082-7.622-7.622-2.187-2.187-5.582,1.206-3.394,3.394Z" /><path class="d" d="M45.499,116.652l-2.48,2.48c-1.027,1.027-2.693,1.027-3.72,0l-14.541-14.541c-1.027-1.027-1.027-2.693,0-3.72l2.48-2.48c1.027-1.027,2.688-1.032,3.715-.005,3.504,3.504,11.023,11.023,14.549,14.549,1.027,1.027,1.024,2.69-.003,3.717Z" /><path class="e" d="M43.801,114.955l-1.593,1.593c-.263.263-.514.553-.796.796-.016.014-.108.118-.07.082.071-.068-.228.131-.219.127.294-.117.03.052-.1-.054.262.212-.095-.14-.254-.29-.339-.321-.661-.661-.991-.991l-7.938-7.938c-1.795-1.795-3.626-3.559-5.387-5.387.075.078-.175-.387-.066-.081.007.021.069-.352-.052-.048.081-.203.234-.313.453-.532.648-.648,1.282-1.314,1.946-1.946.19-.181.245-.256.363-.292-.315.098.308.095-.008-.003.118.037.198.134.374.302.89.849,1.742,1.742,2.612,2.612,2.366,2.366,4.732,4.732,7.098,7.098,1.109,1.109,2.217,2.217,3.326,3.326.434.434.877.861,1.303,1.303-.098-.102.249.364.063.027.169.307-.051.343.003.163.072-.239-.191.27-.068.133-.866.964-.951,2.443,0,3.394.88.88,2.525.968,3.394,0,1.552-1.728,1.956-4.137.734-6.183-.741-1.241-2.08-2.276-3.095-3.291-2.455-2.455-4.909-4.909-7.364-7.364-1.119-1.119-2.237-2.237-3.356-3.356-1.171-1.171-2.275-2.475-3.98-2.821-3.065-.622-5.017,1.719-6.916,3.682-2.128,2.198-2.078,5.307.049,7.479,1.021,1.042,2.064,2.064,3.095,3.095l9.465,9.465c1.184,1.184,2.343,2.625,4.026,3.076,3.265.875,5.314-1.754,7.342-3.782,2.187-2.187-1.206-5.582-3.394-3.394Z" /></svg>