<svg id="b" xmlns="http://www.w3.org/2000/svg" width="318.49" height="319.572" viewBox="0 0 318.49 319.572" style="color: initial !important;"><defs><style>.d{fill:#acdda7;}.e{fill:#665e99;}.f{fill:#74c66d;}.g{fill:#a095c1;}.h{fill:#211715;}.i{fill:#f2635f;}.j{fill:#febe69;}</style></defs><g id="c"><path class="i" d="M54.298,229.087c4.218,1.708,8.714,2.556,13.255,2.254,12.353-.822,27.885,7.25,35.516,21.24,8.79,22.124-.484,45.92-19.349,56.309-8.597,4.734-19.121,6.349-27.256,6.819-6.367.368-14.127-.87-20.086-3.142-8.549-3.259-16.531-7.824-23.325-15.657-8.732-10.069-12.171-23.35-10.046-36.507,2.124-13.158,9.31-25.852,22.576-31.143,10.727-4.278,19.956-3.721,28.717-.174Z"/><path class="h" d="M53.66,231.401c2.739,1.088,5.556,1.803,8.48,2.169,2.569.321,5.081.073,7.65.119,4.001.071,7.983,1.056,11.7,2.605,3.936,1.64,7.648,3.975,10.853,6.783,3.317,2.907,6.604,6.504,8.553,10.506,1.031,2.115,1.596,4.645,2.103,6.931.487,2.195.8,4.413.932,6.658.263,4.483-.141,8.965-1.255,13.316-2.16,8.439-6.86,16.067-13.482,21.736-7.485,6.407-17.19,9.386-26.831,10.561-5.004.61-10.028.833-15.033.095-5.085-.75-9.961-2.277-14.622-4.429-9.363-4.323-17.705-11.022-22.752-20.139-4.891-8.835-6.265-19.32-4.292-29.187,1.734-8.668,5.75-16.971,12.583-22.748,7.492-6.334,18.564-9.052,28.153-7.166,2.487.489,4.906,1.251,7.258,2.191,1.204.481,2.636-.526,2.952-1.676.376-1.367-.468-2.469-1.676-2.952-10.84-4.333-22.882-3.64-33.292,1.648-8.974,4.559-15.227,12.928-18.609,22.254-3.635,10.024-4.098,21.323-.881,31.518,3.469,10.995,11.066,20.117,20.691,26.334,9.338,6.032,20.464,9.726,31.629,9.646,5.233-.037,10.57-.764,15.678-1.87,5.576-1.209,11.084-3.115,16.003-6.04,17.162-10.206,25.61-30.906,21.631-50.294-.51-2.485-1.222-4.927-2.12-7.3-.95-2.51-2.57-4.763-4.204-6.874-3.087-3.989-6.84-7.415-11.064-10.171-3.915-2.555-8.292-4.538-12.833-5.672-2.192-.548-4.453-.9-6.71-1.024-2.46-.136-4.908.179-7.369-.017-2.94-.234-5.816-1.052-8.549-2.138-1.205-.479-2.636.524-2.952,1.676-.375,1.365.467,2.472,1.676,2.952Z"/><path class="f" d="M34.912,242.277c-.077-.819.425-2.109.964-2.903.57-.84,2.011-2.535,2.687-3.122,2.311-2.005,2.867-2.264,5.585-3.669,2.048-1.059,5.387-2.074,9.155-1.816-3.374-2.941-7.966-4.713-15.255-6.959-.665-.205-.92-1.552-.382-1.993,3.197-2.621,9.205-2.452,13.952-1.832,3.95.516,6.319,1.509,10.198,3.593,1.369.736,3.011,2.209,4.504,2.475,1.668.298,3.28-.329,4.921-.579,2.354-.359,4.214-.433,6.06-.289,3.98.312,7.024,1.396,10.114,3.399.725.47,1.557,1.427.58,2.092-3.172,2.159-6.828,3.607-10.626,4.17,7.546,2.05,13.072,9.069,13.957,16.682.084.719-.688,1.271-1.311.901-4.64-2.754-10.262-5.521-14.046-6.553-.839-.229-2.443-.681-3.321-.432-.662.187-1.152.731-1.159,1.419-.026,2.622-.003,3.385-.594,6.421-.284,1.457-1.29,4.39-2.343,5.823-1.91,2.598-6.173,2.069-6.948-1.061-.993-4.007-2.466-8.462-4.125-11.867-.389-.798-1.098-1.394-1.984-1.446-5.589-.328-11.197-.322-16.784.015-1.991.12-3.64-.769-3.8-2.468Z"/><path class="h" d="M37.312,242.277c-.023-1.37,1.358-2.672,2.22-3.6.97-1.044,2.034-1.906,3.216-2.62,3.279-1.981,6.682-3.103,10.555-2.891,2.006.11,3.263-2.753,1.697-4.097-3.1-2.66-6.773-4.313-10.587-5.691-1.101-.398-2.211-.77-3.325-1.129-.1-.032-1.895-.692-1.949-.616.103-.147.637.973.639,1.015.03,1.218-.839.949-.134.695.818-.294,1.485-.712,2.359-.925,1.053-.256,2.112-.362,3.194-.403,4.354-.163,8.873.419,12.829,2.309,1.077.515,2.17,1.046,3.184,1.678,1.066.664,2.054,1.418,3.212,1.923,2.674,1.167,5.239.138,7.959-.209,2.591-.331,5.247-.284,7.796.311,1.182.275,2.349.644,3.444,1.169.59.282,1.165.593,1.728.927.221.131.447.34.686.423.388.134.113.146.093.033v-1.276c.436-.528.418-.606-.054-.233-.18.115-.361.226-.545.335-.366.219-.737.429-1.113.63-.757.404-1.532.777-2.333,1.086-1.728.666-3.521,1.122-5.349,1.409-2.447.384-2.116,4.03,0,4.629,3.349.948,6.227,2.939,8.417,5.638,1.022,1.26,1.885,2.716,2.524,4.207.33.77.59,1.577.807,2.385.136.505.505,1.833.419,2.058l.617-1.059,1.344-.249c-.249-.146-.498-.291-.748-.434-.253-.145-.506-.289-.76-.432-.642-.361-1.289-.715-1.94-1.061-1.351-.719-2.719-1.406-4.108-2.049-2.351-1.088-4.763-2.117-7.279-2.758-2.785-.71-6.52-.51-6.892,3.126-.221,2.158-.119,4.213-.601,6.355-.358,1.592-1.096,4.397-2.354,5.209-.528.341-.993.328-1.403.205-.671-.202-.725-.421-.959-1.311-.753-2.854-1.606-5.679-2.696-8.425-.993-2.5-1.955-5.62-4.985-6.149-1.882-.328-3.913-.252-5.82-.294-1.893-.041-3.787-.045-5.68-.01-1.811.034-3.62.113-5.429.204-.49.025-1.133.137-1.603-.049-.387-.152-.292-.076-.376-.629-.195-1.283-1.808-1.991-2.952-1.676-1.371.377-1.872,1.666-1.676,2.952.29,1.908,1.805,3.343,3.593,3.916,2.038.654,4.373.199,6.469.131,2.468-.08,4.939-.095,7.408-.046,1.152.023,2.304.06,3.456.112.555.025,1.433-.143,1.805.215.523.503.812,1.724,1.083,2.399.409,1.02.787,2.052,1.14,3.092.682,2.009,1.163,4.066,1.782,6.091,1.02,3.335,4.652,5.11,7.948,4.011,3.494-1.165,5.015-5.116,5.818-8.409.402-1.647.656-3.382.743-5.075.031-.605.261-1.736.047-2.29-.2-.518-.602.692-.601.696.034.173-1.66-1.26.308.026.268.175.833.168,1.154.249,3.596.916,6.979,2.588,10.24,4.323.908.483,1.808.981,2.7,1.493,1.015.583,1.971,1.217,3.193,1.045,1.134-.159,2.029-.869,2.524-1.885s.268-2.105.083-3.17c-1.4-8.079-7.588-15.076-15.481-17.309v4.629c3.568-.56,7.04-1.836,10.125-3.719,1.527-.932,3.062-2.107,2.622-4.137-.39-1.798-2.004-2.786-3.501-3.623-2.953-1.651-6.155-2.541-9.513-2.859-1.429-.135-2.862-.136-4.291-.016-1.947.163-3.843.753-5.774.909-1.483.12-2.553-.892-3.733-1.656-1.384-.896-2.899-1.63-4.404-2.298-3.026-1.344-6.092-2.013-9.377-2.348-3.069-.313-6.24-.362-9.264.336-2.75.634-6.621,2.311-5.805,5.789.531,2.262,2.583,2.653,4.51,3.272,1.663.534,3.32,1.093,4.949,1.725,2.505.972,5.119,2.267,7.055,3.928l1.697-4.097c-4.779-.262-9.436,1.22-13.421,3.824-1.625,1.062-3.136,2.357-4.4,3.83-1.526,1.781-3.013,3.791-2.971,6.257.052,3.085,4.852,3.095,4.8,0Z"/><path class="f" d="M305.285,230.368c-4.629-10.031-20.109-11.92-28.952-5.739-1.529-1.388-2.455-3.103-4.355-4.241-1.719-1.03-3.66-1.689-5.64-1.98-4.026-.592-8.134.197-12.036,1.354-7.313,2.169-14.109,5.712-19.936,10.649l-1.652,1.779c-17.338,3.509-22.687,32.042-19.919,46.454,2.304,11.997,8.671,22.992,19.222,29.446,2.9,1.774,5.989,3.313,9.203,4.595,17.179,6.848,37.967,6.338,52.96-4.971,3.51-2.648,4.405-7.839,4.501-10.663.282-8.266-.013-13.204-2.52-20.651l10.127-30.696c.897-5.787,1.376-10.179-1.005-15.337Z"/><path class="h" d="M236.064,232.108c5.565-4.675,12.137-8.063,19.102-10.098,3.624-1.059,7.61-1.914,11.38-1.141,1.635.335,3.363.889,4.711,1.911,1.294.98,2.201,2.436,3.378,3.546.73.688,2.022.983,2.908.375,8.214-5.636,22.734-4.131,26.223,6.305,1.318,3.943.828,8.032.208,12.06-.197,1.28.324,2.581,1.676,2.952,1.137.312,2.754-.387,2.952-1.676.668-4.34,1.26-8.71.238-13.048-.815-3.458-2.564-6.757-5.21-9.156-4.818-4.37-11.741-6.037-18.112-5.28-3.696.439-7.31,1.58-10.399,3.699l2.908.375c-1.443-1.36-2.552-2.983-4.171-4.164-1.629-1.189-3.658-1.986-5.617-2.436-4.453-1.024-9.092-.396-13.446.794-8.129,2.221-15.677,6.171-22.126,11.588-.993.834-.861,2.534,0,3.394.983.983,2.399.836,3.394,0h0Z"/><path class="d" d="M281.629,234.957c-.497.041-1.033.11-1.595.218-1.718.33-3.672,1.027-5.46,2.425-2.325,1.818-4.202,3.764-5.284,7.057,2.579.741,5.168,1.597,7.25,3.268,2.326,1.868,3.875,5.041,2.95,7.877-.204.625-.515,1.324-.197,1.899.215.389.656.584,1.062.765,7.267,3.246,13.198,10.238,15.755,17.775,2.557,7.537,2.856,12.483,2.572,20.809-.058,1.694-.403,4.24-1.427,6.578.52-.293.818-.458.818-.458,18.204-10.085,22.329-34.32,13.644-49.959-6.411-11.544-14.506-16.452-26.897-18.173,0,0-1.315-.237-3.19-.081Z"/><path class="h" d="M284.181,237.353c4.756.675,9.489,1.848,13.676,4.27,4.035,2.334,7.299,5.715,9.85,9.593,5.629,8.554,7.351,18.885,4.854,28.835-1.433,5.71-4.195,11.015-8.248,15.303-2.121,2.244,1.267,5.645,3.394,3.394,8.031-8.496,11.806-20.586,10.545-32.169-1.196-10.98-7.014-21.786-16.274-28.039-4.91-3.315-10.708-4.991-16.521-5.816-1.282-.182-2.578.314-2.952,1.676-.309,1.125.385,2.769,1.676,2.952h0Z"/><path class="h" d="M263.748,238.487c-1.992-4.156-5.394-8.393-10.236-9.078-2.541-.36-5.12.182-7.606.689-.967.197-1.948.469-2.935.515-1.226.058-2.417-.201-3.611-.439-2.468-.493-4.799-.822-7.293-.317-1.624.329-3.189.907-4.679,1.628-2.899,1.403-5.453,3.582-7.491,6.06-4.518,5.492-7.175,12.337-8.672,19.233-1.412,6.506-1.994,13.362-1.134,19.984,1.147,8.83,4.749,17.404,10.352,24.327,5.898,7.288,14.276,11.98,23.043,14.985,8.58,2.942,17.914,4.145,26.944,3.159,9.107-.994,18.595-4.087,25.72-10.037,3.229-2.697,4.522-7.139,4.873-11.181.405-4.656.23-9.505-.49-14.12-1.512-9.693-6.063-18.67-14.03-24.589-.926-.688-1.892-1.321-2.898-1.886-.733-.412-2.122-.779-2.615-1.416l.617,1.059c-.095.279-.073.199.068-.241.088-.243.166-.489.232-.738.109-.442.174-.907.217-1.358.089-.935-.014-1.896-.233-2.808-.417-1.735-1.379-3.337-2.563-4.655-2.64-2.939-6.632-4.142-10.308-5.175-2.979-.837-4.25,3.793-1.276,4.629,2.378.668,4.865,1.316,6.904,2.774,1.488,1.063,2.936,2.972,2.708,4.916-.145,1.237-.822,2.269-.498,3.575.371,1.494,1.517,2.185,2.803,2.797,2.014.957,3.91,2.176,5.597,3.635,7.046,6.092,10.461,15.184,11.007,24.336.247,4.141.467,8.613-.668,12.436-.524,1.765-1.387,3.442-2.841,4.618-1.716,1.389-3.707,2.54-5.651,3.575-7.842,4.172-16.836,5.741-25.658,5.321s-17.574-2.857-25.338-7.028c-8.055-4.328-14.089-10.858-17.811-19.219-1.682-3.778-2.854-7.891-3.446-11.984.065.449-.045-.368-.062-.518-.04-.359-.076-.718-.107-1.078-.069-.791-.116-1.584-.144-2.377-.058-1.604-.041-3.211.039-4.814.327-6.58,1.722-13.577,4.446-19.593,1.354-2.991,3.05-5.863,5.129-8.143,1.034-1.134,2.237-2.217,3.264-2.921.554-.38,1.129-.732,1.721-1.05.37-.199.747-.386,1.13-.557.236-.105.34-.146.839-.319,1.617-.562,3.222-.892,4.938-.674,2.507.318,4.96,1.205,7.52.95,4.005-.399,8.686-2.788,12.216.185,1.705,1.436,2.87,3.364,3.823,5.352.56,1.169,2.23,1.477,3.284.861,1.195-.699,1.423-2.111.861-3.284h0Z"/><path class="h" d="M234.503,284.717c1.284-10.622,6.455-21.527,14.172-29.155,2.2-2.175-1.194-5.569-3.394-3.394-8.676,8.577-14.119,20.48-15.578,32.549-.156,1.289,1.215,2.4,2.4,2.4,1.427,0,2.244-1.107,2.4-2.4h0Z"/><path class="h" d="M248.33,296.55c8.718-.468,16.837-3.86,23.571-9.36,1.005-.821.852-2.542,0-3.394-.993-.993-2.387-.823-3.394,0-5.696,4.652-12.819,7.559-20.177,7.954-1.295.07-2.4,1.053-2.4,2.4,0,1.246,1.099,2.47,2.4,2.4h0Z"/><path class="f" d="M73.392,14.67c1.399-2.862,2.799-5.724,4.198-8.586.468-.956.958-1.943,1.777-2.623,1.341-1.114,2.809-1.17,4.534-.92,1.99.288,3.581,1.383,4.99,2.409,2.737,1.994,4.33,3.282,6.455,5.573.584.629.949,1.937,1.035,2.791.145,1.44-.447,2.994-1.413,4.077-2.228,2.497-5.434,5.333-7.975,7.512"/><path class="h" d="M75.465,15.882c1-2.044,1.999-4.089,2.999-6.133.504-1.03.985-2.076,1.518-3.092.305-.581.6-1.194,1.18-1.539,1.151-.683,2.944-.227,4.076.336,1.565.779,3.008,1.936,4.375,3.015,1.313,1.037,2.704,2.176,3.774,3.47.706.853.858,2.183.158,3.35-.914,1.524-2.558,2.802-3.845,4.003-1.436,1.34-2.913,2.634-4.403,3.914-.984.845-.868,2.526,0,3.394.975.975,2.408.847,3.394,0,2.789-2.395,5.73-4.818,8.091-7.652,2.516-3.02,2.732-7.439,0-10.404-2.283-2.476-5.036-4.644-7.848-6.486-3.008-1.97-7.48-3.061-10.632-.781-1.864,1.348-2.704,3.434-3.682,5.435-1.1,2.249-2.199,4.498-3.299,6.746-.569,1.164-.316,2.596.861,3.284,1.056.618,2.712.308,3.284-.861h0Z"/><path class="j" d="M92.726,42.055c.273-1.512.368-3.055.24-4.627-.751-9.209-9.009-15.492-17.466-19.215-3.891-1.713-8.097-3.031-12.334-2.67-15.132,1.29-24.396,21.599-30.79,33.085-4.838,8.691-9.133,17.684-12.852,26.91-3.278,8.133-7.682,17.099-7.063,25.976.33,4.729,3.062,8.431,7.432,10.268,12.67,5.326,28.821-11.874,36.802-19.82,7.709-7.676,14.601-16.116,21.218-24.736,5.59-7.283,13.129-15.829,14.813-25.171Z"/><path class="h" d="M95.04,42.693c.825-4.904.097-9.782-2.544-14.044-2.366-3.818-5.83-6.839-9.594-9.231-4.125-2.622-8.885-4.858-13.69-5.83-4.543-.918-8.98-.443-13.201,1.432-7.106,3.158-12.291,9.756-16.429,16.104-4.347,6.668-8.046,13.838-11.763,20.871-5.273,9.975-9.736,20.357-13.867,30.851-3.328,8.456-7.355,21.11.573,28.317,6.379,5.8,15.037,4.407,22.047.664,7.077-3.778,13.078-9.459,18.725-15.074,7.11-7.07,13.78-14.464,20.016-22.32,3.218-4.054,6.401-8.145,9.545-12.258,2.996-3.918,5.895-7.995,7.91-12.519,1-2.245,1.815-4.545,2.273-6.964.241-1.272-.354-2.589-1.676-2.952-1.171-.322-2.71.396-2.952,1.676-1.683,8.904-7.977,16.109-13.379,23.055-6.332,8.141-12.727,16.215-19.908,23.635-5.068,5.236-10.241,10.532-16.011,15.002-2.855,2.212-5.946,4.273-9.274,5.702-2.748,1.18-5.911,1.925-8.584,1.458-3.272-.571-6.262-2.54-7.632-5.633-1.762-3.976-.672-9.118.427-13.12,1.373-4.998,3.502-9.738,5.457-14.524,1.974-4.833,4.04-9.618,6.3-14.325,3.649-7.603,7.721-15.036,11.864-22.382,3.499-6.204,7.356-12.464,12.75-17.216,2.357-2.077,5.08-3.77,8.049-4.604,4.219-1.186,8.583-.277,12.706,1.356,6.92,2.74,14.862,7.617,16.951,15.264.563,2.062.639,4.224.284,6.331-.215,1.277.337,2.584,1.676,2.952,1.151.316,2.736-.391,2.952-1.676Z"/><path class="h" d="M58.372,38.141c2.199.948,4.296,2.054,6.319,3.333.522.33,1.034.674,1.536,1.033.246.176.489.356.731.537.115.086.261.202.062.046.153.12.304.24.455.362,1.064.859,2.081,1.772,3.053,2.733.894.884,2.514.959,3.394,0,.875-.953.954-2.451,0-3.394-3.789-3.745-8.244-6.689-13.129-8.795-1.15-.496-2.628-.38-3.284.861-.546,1.034-.37,2.753.861,3.284h0Z"/><path class="h" d="M50.158,53.363c3.09,1.618,6.006,3.493,8.804,5.574.468.348,1.314.389,1.849.242.557-.153,1.16-.584,1.434-1.103.294-.557.442-1.232.242-1.849-.204-.631-.574-1.041-1.103-1.434-2.797-2.081-5.714-3.956-8.804-5.574-1.111-.582-2.659-.321-3.284.861-.584,1.106-.327,2.662.861,3.284h0Z"/><path class="g" d="M266.726,30.866c-5.313,7.064-10.659,13.73-17.331,19.545-6.859,5.977-14.419,9.275-21.268,16.882-4.952,5.499-8.139,14.448-7.493,21.706,1.91,21.458,23.744,29.887,40.961,21.688,18.04-8.59,28.3-29.966,35.588-47.44,2.582-6.191,4.603-12.592,5.88-19.281"/><path class="h" d="M264.654,29.655c-5.119,6.799-10.512,13.457-16.956,19.059-6.045,5.255-13.25,8.97-19.033,14.566-5.71,5.525-9.332,12.703-10.307,20.604-.798,6.467.842,13.444,4.333,18.942,6.538,10.298,18.933,14.714,30.71,12.899,13.673-2.107,24.359-12.758,31.782-23.754,3.98-5.895,7.271-12.231,10.231-18.69,3.294-7.187,6.408-14.505,8.462-22.154.579-2.155,1.074-4.331,1.499-6.522.246-1.271-.358-2.59-1.676-2.952-1.176-.323-2.705.397-2.952,1.676-1.522,7.857-4.15,15.335-7.316,22.666-2.666,6.173-5.551,12.265-8.951,18.071-6.31,10.778-15.182,21.942-27.524,25.892-9.899,3.168-21.262.995-28.228-7.001-8.252-9.472-7.185-24.695,1.095-33.966,5.193-5.815,11.939-9.593,18.059-14.284,6.499-4.982,11.97-11.116,17.01-17.536,1.321-1.683,2.619-3.383,3.906-5.092.78-1.036.166-2.683-.861-3.284-1.229-.719-2.502-.178-3.284.861h0Z"/><path class="e" d="M307.787,29.399c-.484-1.82-1.21-3.566-2.196-5.171-1.178-1.917-2.62-3.697-4.323-5.175-.415-.36-.849-.693-1.291-1.015l.112-.183c.556-.971,1.722-3.048,2.231-4.206.444-1.009.773-1.66.975-2.567.375-1.681-.342-3.511-1.739-4.514-1.184-.85-2.802-1.058-4.162-.535-.588.226-1.134.586-1.522,1.083-.715.916-.841,2.153-1.185,3.23-.431,1.351-.844,2.709-1.252,4.068l-.161.464c-.512-.137-1.028-.261-1.55-.36-3.555-.676-7.292-.474-10.736.644-5.343,1.734-9.899,5.545-12.838,10.34-.827,1.349-1.525,2.775-2.078,4.255-.151.405-.295.839-.21,1.263.082.413.367.754.672,1.044,1.025.973,5.146,1.291,6.733,1.662.519.121,1.35.451,1.731.822.249.242.348.597.409.939.258,1.462-.018,2.966.097,4.447.114,1.48.788,3.097,2.187,3.595,1.356.482,3.53.303,4.779-.41l3.684-2.104c1.46-.834,3.32-.292,4.104,1.195l1.91,3.62c1.108,2.1,1.282,3.443,3.08,5.049.53.473,1.21.768,1.92.795.765.028,1.594-.064,2.244-.472,4.415-2.77,7.126-7.809,8.506-14.011.699-3.142.496-5.43-.132-7.79Z"/><path class="h" d="M302.161,19.067c.786-1.375,1.582-2.76,2.231-4.206.98-2.184,1.919-4.445,1.041-6.848-.833-2.278-2.709-4.123-5.164-4.528-2.6-.429-5.528.484-6.809,2.956-.573,1.105-.785,2.306-1.155,3.48-.404,1.282-.797,2.567-1.185,3.854-.362,1.202.433,2.669,1.676,2.952,1.294.295,2.565-.389,2.952-1.676.531-1.765,1.118-3.516,1.584-5.299.047-.178.094-.356.148-.532.036-.117.077-.231.115-.348.023-.071.16-.302.016-.05-.156.274.136-.194.175-.273.13-.262-.09.145-.097.117-.011-.044.236-.23.268-.265-.03.033-.337.205-.11.091.081-.041.165-.099.242-.148.447-.285-.062.007-.058.002.027-.04.212-.074.258-.089.088-.027.622-.199.301-.097-.274.087-.056.002.042-.002.121-.005.242-.012.364-.011.09,0,.183.015.273.011.337-.012-.422-.106-.097-.016.176.048.355.078.529.133.027.008.253.066.258.089.007.033-.406-.222-.159-.056.043.029.56.304.544.33-.019.033-.432-.402-.087-.051.06.061.123.118.182.18.015.015.162.192.173.189-.019.006-.255-.378-.115-.149.089.146.187.283.269.433.014.025.094.222.117.227-.067-.014-.159-.463-.049-.101.057.188.095.387.156.574.079.245-.031-.187-.02-.218-.02.055.016.194.018.254.008.171-.009.34-.007.511.004.291.024-.233.033-.214.042.091-.08.362-.104.451-.048.18-.103.357-.164.533-.029.082-.225.593-.115.318.109-.272-.12.267-.157.351-.102.228-.201.457-.305.684-.635,1.383-1.398,2.711-2.152,4.031-.623,1.09-.292,2.674.861,3.284,1.141.603,2.618.303,3.284-.861h0Z"/><path class="h" d="M292.362,12.203c-5.78-1.037-11.644-.188-16.764,2.745-4.493,2.575-8.258,6.594-10.567,11.227-1.261,2.529-2.584,5.468-.063,7.694,1.558,1.376,3.974,1.561,5.937,1.868.361.056.722.11,1.081.174.128.023,1.167.356,1.237.312-.041.026-.075-.467-.208-.441.089-.017.105,1.042.105,1.029.012.744-.048,1.487-.046,2.231.008,2.7.985,5.611,3.692,6.679,2.204.87,4.916.535,6.977-.567,1.105-.59,2.159-1.277,3.266-1.865.848-.451,1.017-.174,1.454.656.544,1.032,1.097,2.059,1.633,3.095,1.132,2.189,1.908,4.413,3.975,5.944,2.391,1.77,5.428,1.199,7.666-.485,3.977-2.991,6.412-7.415,7.83-12.116.864-2.863,1.429-5.863,1.058-8.854-.389-3.136-1.486-6.202-3.185-8.87-3.454-5.424-8.752-9.191-15.078-10.456-1.27-.254-2.592.364-2.952,1.676-.325,1.182.399,2.697,1.676,2.952,4.506.901,8.457,3.162,11.252,6.856,2.726,3.602,4.258,8.132,3.317,12.631-.826,3.945-2.314,8.011-5.178,10.945-.825.846-2.416,2.645-3.682,1.776-1.348-.926-1.863-3.086-2.576-4.464-1.261-2.436-2.335-5.413-5.272-6.189s-5.196,1.43-7.627,2.623c-.891.437-2.703.844-3.212-.275-.356-.782-.236-1.759-.214-2.586.035-1.317.091-2.714-.379-3.965-.789-2.103-3.042-2.715-5.045-3.031-.819-.129-1.64-.248-2.455-.406-.396-.077-.793-.16-1.183-.265-.215-.058-.43-.15-.647-.197-.258-.056.164.13-.153-.081.481.32.028.067-.025-.065.41,1.007.265.525.532-.146.215-.541.469-1.068.734-1.586.585-1.145,1.257-2.247,2.012-3.288,1.314-1.813,2.981-3.493,4.809-4.788,4.377-3.101,9.673-4.452,14.992-3.498,1.274.229,2.587-.346,2.952-1.676.319-1.162-.394-2.722-1.676-2.952Z"/></g></svg>