<svg xmlns="http://www.w3.org/2000/svg" width="309.014" height="318.408" viewBox="0 0 309.014 318.408" style="color: initial !important;"><defs><style>.a{fill:#74c66d;}.b{fill:#febe69;}.c{fill:#211715;}.d{fill:#ffda71;}.e{fill:#ffffff;}</style></defs><path class="a" d="M14.933,90.156A332.161,332.161,0,0,1,16.19,54.711a56.476,56.476,0,0,0-3.7,4.876,51.588,51.588,0,0,0-3.966,6.845A54.939,54.939,0,0,0,3.807,81.518c-1.141,7.075-1.888,20.277,2.114,28.07,1.614,3.144,3.541,5.464,7.235,6.06a8.521,8.521,0,0,0,9.285-5.11c3.126-7.57,7.654-13.793,12.5-20.285a34.786,34.786,0,0,1,20.419-13.7c-4.512-2.193-13.825-1.66-17.87-.229-7.4,2.62-11.732,5.273-15.831,11.879"/><path class="b" d="M80.134,19.085a8.7,8.7,0,0,0-1.936,2.16,4.519,4.519,0,0,0,3.791,6.883c3.692.047,7.274-1.574,10.4-3.428,2.039-1.151,3.488-4.8,1.709-7.087-1.152-1.481-3.359-2.123-5.642-1.9A14.956,14.956,0,0,0,80.134,19.085Z"/><path class="c" d="M13.156,118.048a11.04,11.04,0,0,0,10.133-4.222c1.256-1.658,1.887-3.7,2.8-5.557,1-2.042,2.126-4.024,3.327-5.957,2.33-3.75,4.944-7.323,7.6-10.848A32.406,32.406,0,0,1,56,78.869c1.882-.479,2.483-3.494.574-4.386a23.718,23.718,0,0,0-10.322-1.8,30.272,30.272,0,0,0-9.765,1.461,36.812,36.812,0,0,0-9.612,4.739,29.061,29.061,0,0,0-7.286,8.112c-1.646,2.624,2.5,5.036,4.144,2.422a23.161,23.161,0,0,1,5.816-6.573,32.207,32.207,0,0,1,8.214-4.071A25.5,25.5,0,0,1,45.9,77.487c2.681-.053,6.014.1,8.25,1.14l.573-4.386a37.831,37.831,0,0,0-19.08,11.373A103.368,103.368,0,0,0,27.92,95.865a76.413,76.413,0,0,0-6.648,11.392c-.815,1.771-1.373,3.722-3.025,4.914a6.988,6.988,0,0,1-5.091,1.077,2.413,2.413,0,0,0-2.4,2.4,2.458,2.458,0,0,0,2.4,2.4Z"/><path class="c" d="M17.333,90.156A339.313,339.313,0,0,1,18.59,54.711c.16-2.083-2.731-3.156-4.1-1.7A49.42,49.42,0,0,0,6.864,64.385,56.955,56.955,0,0,0,1.493,80.88,76.349,76.349,0,0,0,.5,93.61a44.158,44.158,0,0,0,1.965,13.905c1.652,4.821,4.7,9.485,10.051,10.447a2.466,2.466,0,0,0,2.952-1.676,2.419,2.419,0,0,0-1.676-2.952c-3.676-.661-5.556-3.761-6.7-7.095a39.369,39.369,0,0,1-1.79-12.258c-.116-8.848,1.213-17.6,5-25.723a45.9,45.9,0,0,1,7.581-11.85l-4.1-1.7a339.313,339.313,0,0,0-1.257,35.445c.087,3.082,4.887,3.095,4.8,0Z"/><path class="b" d="M80.134,19.085a8.7,8.7,0,0,0-1.936,2.16,4.519,4.519,0,0,0,3.791,6.883c3.692.047,7.274-1.574,10.4-3.428,2.039-1.151,3.488-4.8,1.709-7.087-1.152-1.481-3.359-2.123-5.642-1.9A14.956,14.956,0,0,0,80.134,19.085Z"/><path class="b" d="M62.049,29.589a8.719,8.719,0,0,0-1.936,2.159,4.519,4.519,0,0,0,3.792,6.883c3.692.047,7.274-1.573,10.4-3.428,2.04-1.151,3.489-4.8,1.709-7.086-1.151-1.481-3.359-2.123-5.641-1.9A14.956,14.956,0,0,0,62.049,29.589Z"/><path class="b" d="M45.31,42.9a8.741,8.741,0,0,0-1.936,2.16,4.519,4.519,0,0,0,3.792,6.883c3.692.047,7.274-1.574,10.4-3.429,2.04-1.15,3.489-4.8,1.709-7.086-1.151-1.481-3.359-2.123-5.641-1.9A14.962,14.962,0,0,0,45.31,42.9Z"/><path class="b" d="M29.39,28.733a8.741,8.741,0,0,0-1.936,2.16,4.519,4.519,0,0,0,3.792,6.883c3.692.047,7.273-1.574,10.4-3.429,2.04-1.15,3.489-4.8,1.709-7.086-1.152-1.481-3.359-2.123-5.642-1.9A14.965,14.965,0,0,0,29.39,28.733Z"/><path class="b" d="M45.755,15.623a8.741,8.741,0,0,0-1.936,2.16,4.519,4.519,0,0,0,3.791,6.883c3.692.047,7.274-1.574,10.4-3.428,2.04-1.151,3.489-4.8,1.709-7.087-1.152-1.481-3.359-2.123-5.642-1.9A14.956,14.956,0,0,0,45.755,15.623Z"/><path class="b" d="M64.41,5.042a8.76,8.76,0,0,0-2.135,1.963,4.519,4.519,0,0,0,3.112,7.216c3.67.4,7.392-.866,10.68-2.412C78.208,10.86,80,7.37,78.45,4.92c-1-1.585-3.139-2.436-5.433-2.431A14.954,14.954,0,0,0,64.41,5.042Z"/><path class="c" d="M78.437,17.388a8.689,8.689,0,0,0-3.151,4.954,6.838,6.838,0,0,0,6.066,8.132,14.843,14.843,0,0,0,6.147-.847,30.652,30.652,0,0,0,5.859-2.713,7.983,7.983,0,0,0,3.5-4.3,7.075,7.075,0,0,0-.34-5.681,7.232,7.232,0,0,0-4.878-3.413c-4.566-.965-9.737.9-13.2,3.863a2.421,2.421,0,0,0,0,3.395,2.45,2.45,0,0,0,3.394,0,9.084,9.084,0,0,1,1.514-1.043,10.155,10.155,0,0,1,1.677-.795,16.254,16.254,0,0,1,2.142-.613c.34-.074.683-.138,1.028-.189.473-.069-.553.027.263-.027.219-.015.436-.035.655-.04a8.185,8.185,0,0,1,1.027.034c.416.041-.3-.065.1.02.159.034.318.067.475.108.193.051.383.109.57.178-.1-.038-.338-.19.065.034.131.074.262.15.394.222.365.2-.04-.072.134.087.107.1.208.2.31.3.252.258-.159-.282.021.025a4.672,4.672,0,0,1,.254.46c-.061-.14-.084-.361-.03.009.02.133.066.269.089.4-.02-.119-.011-.457-.025-.023-.005.135-.008.28-.006.414.006.493.124-.326-.028.189-.079.269-.144.538-.236.8.159-.457-.133.246-.2.365-.088.151-.534.7-.2.335-.087.1-.171.194-.262.286-.117.117-.528.367-.083.107a39.018,39.018,0,0,1-3.78,2.015,18.036,18.036,0,0,1-2.154.758c-.364.105-.732.2-1.1.279-.185.039-.37.073-.556.109a1.9,1.9,0,0,1-.482.07c-.376.034-.752.059-1.13.061-.169,0-.332,0-.5-.01-.474-.015-.084-.018.014.006-.132-.032-.264-.057-.4-.095-.014,0-.6-.239-.267-.083.285.133-.081-.053-.144-.093-.133-.085-.268-.166-.4-.257.407.286.129.1.055.016-.121-.141-.258-.264-.377-.408.073.089.228.39.052.036-.081-.165-.181-.322-.264-.487.25.5-.012-.25-.08-.4-.134-.288-.01.4,0,.08.006-.157-.02-.318-.017-.477,0-.027.073-.635.007-.261-.063.352.055-.2.074-.264.035-.132.079-.259.123-.388-.161.477.065-.11.111-.191a7.173,7.173,0,0,1,1.561-1.673,2.4,2.4,0,0,0-3.394-3.395Z"/><path class="c" d="M60.352,27.892a8.687,8.687,0,0,0-3.15,4.953,6.838,6.838,0,0,0,6.066,8.132,14.812,14.812,0,0,0,6.147-.847,30.644,30.644,0,0,0,5.858-2.713,7.981,7.981,0,0,0,3.5-4.3,7.079,7.079,0,0,0-.34-5.681,7.237,7.237,0,0,0-4.879-3.413c-4.565-.965-9.736.9-13.2,3.864a2.421,2.421,0,0,0,0,3.394,2.45,2.45,0,0,0,3.394,0,9.14,9.14,0,0,1,1.515-1.042,10.131,10.131,0,0,1,1.677-.8,16.21,16.21,0,0,1,2.142-.613c.34-.073.683-.138,1.027-.188.474-.07-.552.026.264-.028.218-.015.436-.034.655-.04a8.379,8.379,0,0,1,1.027.034c.416.041-.3-.065.1.02.16.034.319.067.476.109.192.051.383.109.57.177-.1-.038-.338-.19.064.035.132.073.263.15.395.222.365.2-.04-.073.133.086.107.1.209.2.311.3.252.257-.16-.283.02.024a4.482,4.482,0,0,1,.255.46c-.061-.139-.084-.361-.03.009.019.134.066.269.089.4-.021-.118-.011-.457-.025-.023,0,.136-.008.28-.006.415.006.492.123-.326-.028.188-.08.269-.144.538-.236.8.159-.456-.133.246-.2.365-.088.151-.534.7-.2.336-.087.1-.171.194-.263.285-.116.117-.527.368-.082.108a39,39,0,0,1-3.78,2.014,18.057,18.057,0,0,1-2.155.759c-.364.1-.731.2-1.1.278-.185.04-.37.073-.556.11a1.945,1.945,0,0,1-.482.069c-.376.034-.753.059-1.13.061-.169,0-.333,0-.5-.009-.474-.016-.084-.018.013,0-.132-.032-.263-.057-.394-.095-.014,0-.6-.238-.267-.083.285.133-.081-.053-.144-.093-.134-.085-.268-.166-.4-.257.407.287.129.1.055.016-.121-.14-.259-.264-.378-.407.074.088.229.39.053.035-.081-.165-.182-.322-.264-.487.25.5-.013-.249-.08-.4-.134-.289-.01.4,0,.079.006-.157-.02-.318-.017-.477,0-.026.073-.634.007-.261-.063.353.055-.2.073-.264.036-.131.08-.258.124-.387-.162.476.065-.111.111-.192a7.228,7.228,0,0,1,1.56-1.673,2.4,2.4,0,1,0-3.394-3.394Z"/><path class="c" d="M43.613,41.2a8.687,8.687,0,0,0-3.15,4.954,6.836,6.836,0,0,0,6.066,8.131,14.828,14.828,0,0,0,6.147-.846,30.672,30.672,0,0,0,5.858-2.713,7.989,7.989,0,0,0,3.5-4.3,7.079,7.079,0,0,0-.34-5.681,7.236,7.236,0,0,0-4.879-3.413c-4.565-.965-9.736.9-13.2,3.863a2.421,2.421,0,0,0,0,3.394,2.448,2.448,0,0,0,3.394,0,9.2,9.2,0,0,1,1.515-1.042,10.118,10.118,0,0,1,1.677-.8,16.24,16.24,0,0,1,2.141-.613c.341-.074.684-.138,1.028-.189.474-.069-.552.027.264-.027.218-.015.436-.035.655-.04a8.191,8.191,0,0,1,1.027.034c.416.04-.3-.066.1.02.16.034.318.067.476.108.192.051.382.109.569.178-.1-.038-.337-.191.065.034.131.074.263.15.394.222.366.2-.039-.073.134.087.107.1.209.2.31.3.253.258-.159-.282.021.025a4.482,4.482,0,0,1,.255.46c-.061-.14-.084-.361-.03.009.019.133.066.269.089.4-.021-.118-.011-.456-.026-.022,0,.135-.007.28-.005.414.006.493.123-.326-.028.189-.08.269-.144.538-.237.8.159-.457-.132.246-.2.365-.088.15-.534.7-.2.335-.087.1-.171.194-.263.286-.116.117-.527.367-.082.107a39.135,39.135,0,0,1-3.78,2.015,18.051,18.051,0,0,1-2.155.758c-.364.1-.731.2-1.1.279-.185.039-.37.073-.556.109a2,2,0,0,1-.482.07c-.376.034-.753.059-1.13.061-.169,0-.333,0-.5-.01-.473-.015-.084-.018.014.006-.132-.032-.264-.058-.394-.095-.014,0-.6-.239-.267-.083.285.133-.081-.053-.144-.093-.134-.085-.268-.166-.4-.257.408.286.13.1.056.016-.121-.141-.259-.264-.378-.408.074.089.228.39.053.036-.081-.165-.182-.322-.264-.487.25.5-.013-.25-.08-.4-.134-.288-.01.4,0,.08.006-.158-.02-.319-.018-.477,0-.027.074-.635.008-.261-.063.352.055-.2.073-.264.036-.132.08-.259.123-.388-.161.477.066-.11.112-.191a7.189,7.189,0,0,1,1.56-1.674A2.4,2.4,0,1,0,43.613,41.2Z"/><path class="c" d="M27.693,27.036a8.682,8.682,0,0,0-3.15,4.954,6.836,6.836,0,0,0,6.066,8.131,14.83,14.83,0,0,0,6.147-.846,30.672,30.672,0,0,0,5.858-2.713,7.989,7.989,0,0,0,3.5-4.295,7.079,7.079,0,0,0-.341-5.681,7.233,7.233,0,0,0-4.878-3.414c-4.566-.964-9.737.9-13.2,3.864a2.421,2.421,0,0,0,0,3.394,2.448,2.448,0,0,0,3.394,0A9.127,9.127,0,0,1,32.6,29.388a10.155,10.155,0,0,1,1.677-.8,16.412,16.412,0,0,1,2.142-.614c.34-.073.683-.137,1.028-.188.473-.069-.552.027.263-.028.219-.014.436-.034.656-.04a8.37,8.37,0,0,1,1.026.035c.417.04-.3-.066.1.02.159.034.318.066.476.108.192.051.382.109.569.178-.1-.038-.337-.191.065.034.131.074.262.15.394.222.365.2-.04-.073.134.087.107.1.208.2.31.3.253.258-.159-.283.021.025a4.474,4.474,0,0,1,.254.46c-.061-.14-.084-.361-.03.009.02.133.066.269.09.4-.021-.118-.012-.456-.026-.022,0,.135-.008.28-.006.414.006.493.124-.326-.028.189-.079.269-.143.538-.236.8.159-.457-.132.246-.2.365-.088.15-.535.7-.2.335-.088.1-.171.194-.263.286-.116.117-.528.367-.082.107A39.147,39.147,0,0,1,36.953,34.1a17.975,17.975,0,0,1-2.154.758c-.364.105-.731.2-1.1.278-.184.04-.37.074-.555.11a2,2,0,0,1-.483.07c-.375.034-.752.059-1.13.061-.168,0-.332,0-.5-.01-.474-.015-.084-.018.014.006-.132-.032-.264-.058-.394-.095-.015,0-.6-.239-.267-.083.284.133-.081-.053-.145-.093-.133-.085-.268-.166-.4-.257.407.286.13.1.055.016-.12-.141-.258-.264-.377-.408.073.089.228.39.053.036-.082-.165-.182-.322-.264-.487.25.5-.013-.25-.081-.4-.133-.288-.009.4,0,.079.005-.157-.021-.318-.018-.476,0-.027.073-.635.007-.261-.062.352.055-.2.074-.264.036-.132.079-.259.123-.388-.161.476.065-.11.111-.191a7.2,7.2,0,0,1,1.561-1.674,2.4,2.4,0,0,0-3.394-3.394Z"/><path class="c" d="M44.058,13.926a8.682,8.682,0,0,0-3.15,4.954,6.836,6.836,0,0,0,6.065,8.131,14.826,14.826,0,0,0,6.147-.846,30.652,30.652,0,0,0,5.859-2.713,7.983,7.983,0,0,0,3.5-4.3,7.075,7.075,0,0,0-.34-5.681,7.232,7.232,0,0,0-4.878-3.413c-4.566-.965-9.737.9-13.2,3.863a2.422,2.422,0,0,0,0,3.4,2.45,2.45,0,0,0,3.394,0,9.126,9.126,0,0,1,1.514-1.043,10.155,10.155,0,0,1,1.677-.795,16.254,16.254,0,0,1,2.142-.613c.34-.074.683-.138,1.028-.189.473-.069-.553.027.263-.027.219-.015.436-.035.655-.04a8.185,8.185,0,0,1,1.027.034c.417.041-.3-.066.1.02.159.034.318.067.475.108.193.051.383.109.57.178-.1-.038-.338-.191.065.034.131.074.262.15.394.222.365.2-.04-.072.134.087.107.1.208.2.31.3.253.258-.159-.282.021.025a4.474,4.474,0,0,1,.254.46c-.061-.14-.084-.361-.03.009.02.133.066.269.09.4-.021-.119-.012-.457-.026-.023,0,.135-.008.28-.006.414.006.493.124-.326-.028.189-.079.269-.143.538-.236.8.159-.457-.132.246-.2.365-.087.151-.534.7-.2.335-.088.1-.172.194-.263.286-.116.117-.528.367-.082.107a39.147,39.147,0,0,1-3.781,2.015,17.975,17.975,0,0,1-2.154.758c-.364.105-.731.2-1.1.279-.185.039-.37.073-.555.109a1.956,1.956,0,0,1-.483.07c-.375.034-.752.059-1.13.061-.168,0-.332,0-.5-.01-.474-.015-.084-.018.014.006-.132-.032-.264-.057-.4-.095-.014,0-.6-.239-.266-.083.284.133-.081-.053-.145-.093-.133-.085-.268-.166-.4-.257.407.286.13.1.055.016-.12-.141-.258-.264-.377-.408.073.089.228.39.053.036-.082-.165-.182-.322-.264-.487.249.5-.013-.25-.081-.4-.133-.288-.009.4,0,.08,0-.157-.021-.318-.018-.477,0-.027.073-.635.007-.261-.062.352.055-.2.074-.264.036-.132.079-.259.123-.388-.161.477.065-.11.111-.191a7.173,7.173,0,0,1,1.561-1.673,2.4,2.4,0,0,0-3.394-3.4Z"/><path class="c" d="M63.2,2.97A9.328,9.328,0,0,0,59.25,7.847a7.135,7.135,0,0,0,.535,5.158c1.98,3.97,6.8,4.038,10.581,3.311a28.339,28.339,0,0,0,6.126-2.074,7.877,7.877,0,0,0,4.044-3.7,7.255,7.255,0,0,0,.535-5.662A7.284,7.284,0,0,0,76.521.661a13.63,13.63,0,0,0-6.95-.25A15.762,15.762,0,0,0,63.2,2.97a2.464,2.464,0,0,0-.861,3.284,2.421,2.421,0,0,0,3.283.861A12.441,12.441,0,0,1,73.412,4.9a4.591,4.591,0,0,1,2.722.965,1.639,1.639,0,0,1,.473.815c.11.354-.009-.367.014,0,.009.145.014.289.011.434,0,.071-.05.522-.006.223s-.07.266-.086.325c-.039.143-.086.281-.133.421.126-.379.028-.05-.016.036-.135.261-.284.508-.441.756-.247.389-.084.1-.017.025-.094.1-.186.209-.285.308s-.2.188-.3.279c.379-.334-.065.027-.156.079a18.922,18.922,0,0,1-3.968,1.587,14.313,14.313,0,0,1-4.385.743c-.386,0-.775-.011-1.16-.047.3.028-.337-.07-.48-.112a4.034,4.034,0,0,1-.383-.133c.468.193.066.009-.045-.06-.063-.039-.412-.259-.154-.079s-.139-.126-.19-.176c-.087-.084-.166-.191-.257-.271.349.309.043.058-.06-.112-.064-.106-.118-.216-.179-.324-.209-.368.015.221,0-.024a1.923,1.923,0,0,0-.1-.357c-.082-.29-.038-.317-.022-.006-.01-.191.046-1.094-.05-.5a6,6,0,0,1,.218-.856c.1-.336-.18.324,0,.012.087-.152.162-.31.259-.456a6.369,6.369,0,0,1,1.393-1.28,2.469,2.469,0,0,0,.861-3.284A2.417,2.417,0,0,0,63.2,2.97Z"/><path class="c" d="M15.689,114.448c1.9-16.478,4.444-33.152,11.8-48.2A98.821,98.821,0,0,1,40.609,45.729,86.715,86.715,0,0,1,57.288,30.672,204.062,204.062,0,0,1,82.1,16.457c2.758-1.394.331-5.536-2.422-4.145-14.85,7.505-29.7,15.725-40.932,28.269A103.6,103.6,0,0,0,16.247,82.9c-2.733,10.319-4.136,20.959-5.358,31.545a2.415,2.415,0,0,0,2.4,2.4,2.457,2.457,0,0,0,2.4-2.4Z"/><path class="d" d="M2.4,306.594v0Z"/><path class="d" d="M67.135,245.053a5.441,5.441,0,0,0-5.441-5.441H58.542c-.005.2-.011.4-.023.566-.119,1.651-.314,3.254-1.745,4.386a3.475,3.475,0,0,1-5.023-.979,17.978,17.978,0,0,1-2.227-3.973h-47c.008,12.416-.117,51.96-.122,66.174A10.156,10.156,0,0,0,12.568,316h44.4A10.161,10.161,0,0,0,67.135,305.82c-.023-13.337,0-48.052,0-57.642Z"/><path class="b" d="M59.251,290.5h7.884c-.007-6.273-.007-15.255-.005-24.236H2.455C2.428,277.788,2.4,292.08,2.4,290.493,3.076,290.493,30.393,290.493,59.251,290.5Z"/><path class="e" d="M67.135,240.833c0-17.019-2.191-35.991-19.51-45.009l-3.2-3.244H26.153l-4.12,3.244c-17.319,9.018-19.51,27.99-19.51,45.009"/><path class="c" d="M40.5,179.349c-3.777,0-7.8.009-11.251.013a4.758,4.758,0,0,0-4.753,4.769c0,2.021.006,4.069,0,5.517a1.883,1.883,0,0,0,1.886,1.888c3.742,0,12.053-.011,16.972.013a1.9,1.9,0,0,0,1.9-1.9l0-5.533A4.758,4.758,0,0,0,40.5,179.349Z"/><path class="c" d="M.123,240.833c0,18-.073,36.007-.108,54.011Q0,300.72,0,306.594H4.8v-.814H0A12.74,12.74,0,0,0,12.585,318.4c1.9.025,3.8,0,5.7,0H54.763c3.318,0,6.543-.222,9.373-2.252a12.67,12.67,0,0,0,5.265-8.624,53.447,53.447,0,0,0,.128-7.071q-.006-8.531,0-17.062,0-16.48.01-32.959v-2.251c0-3.089-4.8-3.094-4.8,0q0,14.538-.009,29.076,0,8.721,0,17.442,0,3.616,0,7.232c0,2.218.3,4.648-.523,6.754-1.344,3.451-4.612,4.915-8.095,4.915H13.749c-.51,0-1.022.013-1.531-.006A7.768,7.768,0,0,1,4.8,305.78c-.037-3.086-4.8-3.095-4.8,0v.814c0,3.089,4.8,3.094,4.8,0,0-17.865.074-35.73.108-53.595q.01-6.083.015-12.166c0-3.089-4.8-3.094-4.8,0Z"/><path class="c" d="M46.413,197.9a30.562,30.562,0,0,1,13.346,13.686c2.761,5.586,3.985,11.9,4.538,18.062.334,3.72.435,7.456.438,11.189,0,3.088,4.8,3.094,4.8,0-.012-13.7-1.395-28.73-10.863-39.46a34.69,34.69,0,0,0-9.836-7.622c-2.73-1.439-5.159,2.7-2.423,4.145Z"/><path class="c" d="M20.822,193.751A34.9,34.9,0,0,0,5.9,208.869C2.71,215.181,1.275,222.148.607,229.142c-.371,3.885-.481,7.79-.484,11.691,0,3.088,4.8,3.093,4.8,0,.01-12.238.895-26.265,9.348-35.942a30.9,30.9,0,0,1,8.973-7c2.734-1.441.311-5.586-2.422-4.145Z"/><path class="e" d="M58.519,240.178a48.945,48.945,0,0,0-.33-6.968,73.091,73.091,0,0,0-3.88-16.336,11.535,11.535,0,0,0-2.615-4.463,2.055,2.055,0,0,0-3.632.7,31.673,31.673,0,0,0-.736,3.975,58.128,58.128,0,0,0,.135,13.09c.834,6.551,1.741,9.926,4.29,13.409a3.475,3.475,0,0,0,5.023.979C58.205,243.432,58.4,241.829,58.519,240.178Z"/><path class="c" d="M60.919,240.178a55.522,55.522,0,0,0-1.774-15.41,71.641,71.641,0,0,0-2.66-8.922c-.941-2.52-2.6-5.78-5.43-6.5a4.433,4.433,0,0,0-4.111,1.064c-1.223,1.191-1.456,3.006-1.73,4.611a50.247,50.247,0,0,0-.552,10.245c.2,5.587.834,11.756,3.357,16.829,1.375,2.765,3.461,5.586,6.868,5.577a5.8,5.8,0,0,0,4.533-2.437,9.249,9.249,0,0,0,1.5-5.052,2.421,2.421,0,0,0-2.4-2.4,2.448,2.448,0,0,0-2.4,2.4c-.078,1.023-.45,3.414-1.955,2.48-1.144-.71-2.04-2.939-2.449-3.994a41.6,41.6,0,0,1-2.237-12.994,52.14,52.14,0,0,1,.248-8.584c.05-.4.116-.8.189-1.2a6.94,6.94,0,0,0,.409-1.922c-.224-.885.156-.093.014-.166a2.221,2.221,0,0,1-.473.208c-.02.021-.117-.05-.117-.087,0-.088.474.442.483.452,1.5,1.645,2.052,3.919,2.707,5.983.7,2.206,1.322,4.438,1.8,6.7a48.823,48.823,0,0,1,1.378,13.12C55.935,243.263,60.735,243.253,60.919,240.178Z"/><path class="c" d="M40.5,176.949q-4.559,0-9.116.011c-2.8,0-5.486.131-7.471,2.4-2.09,2.393-1.815,5.332-1.813,8.3,0,1.441-.148,2.937.63,4.226a4.439,4.439,0,0,0,3.843,2.048c4.511.108,9.037-.007,13.549,0,2.584.006,5.577.424,7.033-2.275.724-1.342.5-3.1.506-4.574a17.49,17.49,0,0,0-.292-5.014,7.3,7.3,0,0,0-6.869-5.126c-3.09-.09-3.087,4.71,0,4.8a2.388,2.388,0,0,1,2.364,2.111c.071.7,0,1.783,0,2.608v1.806c0,.295-.148,1.025,0,1.285.083.148-.11.009.021-.085.3-.217.584-.3.232-.327-.891-.062-1.807-.006-2.7-.008q-5.8-.014-11.6-.005c-.68,0-1.36,0-2.041,0-.461,0-.4-.023.107.33.02.013.024.183.025.182a5.515,5.515,0,0,0,0-.936q0-1.684,0-3.37c0-.4-.022-.81,0-1.211,0,.006.024-.467-.01-.218a2.383,2.383,0,0,1,.328-.976,2.265,2.265,0,0,1,1.542-1.124,19.6,19.6,0,0,1,3.363-.054q4.19-.006,8.381-.01C43.588,181.746,43.593,176.946,40.5,176.949Z"/><path class="c" d="M11.827,242.012H41.708c3.088,0,3.093-4.8,0-4.8H11.827c-3.089,0-3.094,4.8,0,4.8Z"/><path class="c" d="M3.743,292.893H67.125c3.088,0,3.094-4.8,0-4.8H3.743c-3.088,0-3.094,4.8,0,4.8Z"/><path class="c" d="M3.743,268.664H67.125c3.088,0,3.094-4.8,0-4.8H3.743c-3.088,0-3.094,4.8,0,4.8Z"/><path class="d" d="M306.583,291.091v-61.8a2.209,2.209,0,0,0-2.207-2.218l-103.878,0a2.209,2.209,0,0,0-1.363.47l-16.7,13.047a2.2,2.2,0,0,0-.853,1.738c0,6.819,0,43.972,0,64.358a2.209,2.209,0,0,0,2.217,2.209H291.283a2.2,2.2,0,0,0,1.694-.787l13.089-15.593A2.21,2.21,0,0,0,306.583,291.091Z"/><path class="c" d="M295.526,233.406l-6.855,8.17a2.569,2.569,0,0,0-.7,1.7,2.4,2.4,0,0,0,4.1,1.7l6.855-8.17a2.569,2.569,0,0,0,.7-1.7,2.4,2.4,0,0,0-4.1-1.7Z"/><path class="c" d="M308.983,291.091v-59.4a15.207,15.207,0,0,0-.144-3.524,4.654,4.654,0,0,0-3.185-3.316,11.762,11.762,0,0,0-3.171-.18h-97.2c-2.1,0-5.178-.469-7.05.6a18.415,18.415,0,0,0-2.05,1.558l-3.485,2.723-8.579,6.7c-2.152,1.681-4.829,3.106-4.935,6.169-.244,7.038,0,14.129,0,21.171q0,16.219,0,32.437v7.227c0,2.629-.423,5.77,2.2,7.356a6.562,6.562,0,0,0,3.667.682h104.77a11.7,11.7,0,0,0,2.489-.119c2.078-.456,3.365-2.56,4.65-4.091l4.649-5.539,4.146-4.939c1.421-1.693,3.028-3.194,3.23-5.515a2.419,2.419,0,0,0-2.4-2.4,2.45,2.45,0,0,0-2.4,2.4c0-.05.19-.36.006-.059a3.552,3.552,0,0,1-.312.372l-.624.742-1.919,2.287-4.549,5.419q-2.087,2.486-4.172,4.97a16.868,16.868,0,0,1-1.285,1.531c-.253.237.039.1-.107.141a8.492,8.492,0,0,1-2.149,0H189.5a43.13,43.13,0,0,1-5.7-.007c.419.058.058.471.185-.077a8.319,8.319,0,0,0,0-1.692V294.033q0-8.033,0-16.067V245.354a17,17,0,0,1,0-3.027c-.057.3-.187.176.177-.062a1.772,1.772,0,0,0,.16-.126c.3-.242.606-.473.908-.709l3.292-2.572,8.439-6.593,3.068-2.4c.229-.179.486-.346.7-.546a.581.581,0,0,1,.1-.081c-.468.22-.282.2.031.231,1.928.173,3.953,0,5.887,0h95.736a9.8,9.8,0,0,1,1.886.03c-.251-.059-.186-.359-.186-.1,0,1.147,0,2.293,0,3.44v58.256C304.183,294.179,308.983,294.185,308.983,291.091Z"/><path class="c" d="M281.446,240.873H194.3c-3.088,0-3.094,4.8,0,4.8h87.15c3.089,0,3.094-4.8,0-4.8Z"/><path class="c" d="M292.768,298.223v-54.95c0-3.089-4.8-3.094-4.8,0v54.95c0,3.089,4.8,3.094,4.8,0Z"/><path class="e" d="M218.9,277.35a15.6,15.6,0,0,0-2.544-4.621,2.478,2.478,0,0,0-1.205-.882,2.417,2.417,0,0,0-1.38.241,35.98,35.98,0,0,1-6.611,2.3c-1.732.317-3.929.03-4.6-1.595-.515-1.239.127-2.627.755-3.812l2.516-4.749a32.62,32.62,0,0,1,4.321-6.748,5.815,5.815,0,0,1,3.367-2.112,2.609,2.609,0,0,1,2.994,2.051l7.038,3.045c.179-.1.371-.2.573-.3a14.5,14.5,0,0,1,5.932-1.455,194.362,194.362,0,0,0,22.306.024,29.588,29.588,0,0,1,6,.207,10.073,10.073,0,0,1,5.365,2.5,11.037,11.037,0,0,1,1.844,2.5c1.2,2.109,3.143,9.145,3.143,13.4"/><path class="c" d="M234.109,267.071c-1.459-2.668-5.055-5.058-10.317-4.729a.907.907,0,0,1-.542-1.666,13.665,13.665,0,0,1,6.805-1.963,182.573,182.573,0,0,0,21.055.068l-.739.9c-1.146,1.322-1.652,3.5-.44,4.757a5.7,5.7,0,0,0,2.595,1.207,6.078,6.078,0,0,1,3.267,1.977,2.3,2.3,0,0,1-.916,3.545,3.907,3.907,0,0,1-3.205.2c-2.93-1.086-5.825.315-8.383,1.8a3.844,3.844,0,0,1-2.11.5c-2.541-.117-4.145-.381-5.4-2.044a6.246,6.246,0,0,1-.99-2.536A5.881,5.881,0,0,0,234.109,267.071Z"/><path class="e" d="M268.71,277.35c.153,5.93-.9,12.1-4.034,16.622a4.506,4.506,0,0,1-1.32,1.379,2.557,2.557,0,0,1-3.16-.547.936.936,0,0,1-.222-.413,1.176,1.176,0,0,1,.246-.782c1.629-2.717,2.871-6.041,1.761-9.008a8.908,8.908,0,0,0-1.464-2.44,14.913,14.913,0,0,0-2.523-2.455,15.677,15.677,0,0,1-10.65,4.348c-2.978.027-9.365-1.308-12.966,1.067-.759,1.721-4.167,6.294-4.528,8.1a4.792,4.792,0,0,1-.907,2.677c-.973.976-3.461.974-4.681.207a.614.614,0,0,1-.306-.337c-.063-.292.331-.49.611-.678a7.518,7.518,0,0,0,1.508-1.265c.812-.974,1.379-3.265,1.777-5.628l-1.381-.916c-2.522-1.673-6.475-5.939-7.568-9.934"/><path class="c" d="M235.589,287.194c3.133-1.952,7.458-.918,10.92-.76a18.213,18.213,0,0,0,13.182-5.031H256.3a9.728,9.728,0,0,1,3.5,4.225,6.934,6.934,0,0,1-.568,4.721c-.8,1.858-2.439,3.632-1.107,5.666a4.913,4.913,0,0,0,5.136,1.921c3.572-.837,5.421-5.806,6.395-8.913a36.625,36.625,0,0,0,1.456-11.673c-.064-3.085-4.864-3.1-4.8,0a32.653,32.653,0,0,1-1.165,10,19,19,0,0,1-1.8,4.242,15.546,15.546,0,0,0-1.142,1.633c-.082.213-.029,0-.044.052-.138.449.615-2.112.267.706L262.1,295.2c1.468-2.83,2.993-5.714,2.661-9.022-.337-3.361-2.479-6.127-5.066-8.167a2.472,2.472,0,0,0-3.394,0c-3.123,2.94-7.019,3.85-11.191,3.532-3.967-.3-8.4-.7-11.939,1.508-2.617,1.63-.21,5.784,2.422,4.145Z"/><path class="c" d="M225.976,284.384q-.057.5-.118,1c-.022.175-.045.35-.067.525-.052.42.085-.583-.016.116-.107.736-.219,1.471-.354,2.2-.13.7-.276,1.406-.457,2.1-.075.284-.155.567-.244.847-.046.145-.094.29-.145.434-.029.082-.06.163-.092.244q-.1.256.084-.19c.041.092-.3.559-.342.649-.193.373.122-.216.153-.178a3.413,3.413,0,0,1-.4.41c-.1.091-.2.175-.305.263.36-.307.022-.022-.08.05a9.086,9.086,0,0,0-1.105.8,2.76,2.76,0,0,0-.546,3.463,4.188,4.188,0,0,0,2.27,1.59c2.5.881,6.029.278,7.27-2.3a25.809,25.809,0,0,0,.861-3.136c.11-.322-.115.276-.119.281a1.468,1.468,0,0,0,.145-.313c.082-.17.168-.337.256-.5.231-.435.479-.861.732-1.284a52.272,52.272,0,0,0,3.089-5.118,2.46,2.46,0,0,0-.861-3.284,2.428,2.428,0,0,0-3.284.861c-1.1,2.433-2.914,4.5-4.077,6.9a7.847,7.847,0,0,0-.723,1.934c-.071.388-.113.782-.2,1.167-.039.168-.321.808-.032.219-.134.22-.1.2.1-.061a1.965,1.965,0,0,1-.207.211q.5-.363.184-.16l-.113.063q-.336.161.2-.083c-.089.032-.178.059-.269.084s-.188.047-.283.065c-.258.045-.194.038.194-.02-.1-.056-.488.027-.612.026a3.217,3.217,0,0,0-.461-.025c.386.058.448.066.188.024-.1-.018-.193-.038-.289-.062s-.185-.049-.277-.077q-.363-.129.188.1c-.079-.036-.156-.074-.232-.117q-.482-.3.447.461l.328,1.211-.041.409-.617,1.059c.214-.266-.131.117-.174.092a1.609,1.609,0,0,0,.254-.166c.306-.205.6-.428.891-.653a7.524,7.524,0,0,0,1.554-1.568,9.389,9.389,0,0,0,1.264-2.957,47.659,47.659,0,0,0,1.289-7.6,2.4,2.4,0,0,0-2.4-2.4,2.471,2.471,0,0,0-2.4,2.4Z"/><path class="c" d="M216.588,277.988a20.25,20.25,0,0,0,4.571,7.727,27.223,27.223,0,0,0,5.482,4.557,2.417,2.417,0,0,0,3.284-.861,2.457,2.457,0,0,0-.861-3.284c-.442-.293-.884-.584-1.325-.878-.115-.077-.229-.154-.342-.234s-.194-.152-.3-.217c.587.371.221.172.077.056a22,22,0,0,1-2.513-2.409q-.307-.342-.6-.694-.162-.195-.321-.393c-.194-.242-.182-.182.009.016a10.033,10.033,0,0,1-1.162-1.688,16.513,16.513,0,0,1-.884-1.615c-.069-.145-.127-.3-.2-.446.3.556.057.124,0-.022-.109-.293-.2-.59-.288-.891a2.4,2.4,0,0,0-4.629,1.276Z"/><path class="c" d="M271.11,277.35a37.9,37.9,0,0,0-2.041-11.08c-1.182-3.652-3.14-7-6.8-8.623-4.556-2.019-9.786-1.3-14.62-1.149-5.2.167-10.417.265-15.617-.046a17.626,17.626,0,0,0-7.128.79c-1.955.7-4.532,1.783-4.466,4.257A3.371,3.371,0,0,0,222,264.244c1.079.655,2.251.428,3.446.484a9.169,9.169,0,0,1,4.681,1.488,5.813,5.813,0,0,1,2.113,2.476c.1.271.236,1.156.372,1.667a7.887,7.887,0,0,0,1.574,3.081,7.394,7.394,0,0,0,4.851,2.433,12.615,12.615,0,0,0,3.018.134,10.735,10.735,0,0,0,3.817-1.53,8.873,8.873,0,0,1,3.179-1.086c1.334-.121,2.506.586,3.834.618,2.71.066,5.556-1.738,5.777-4.61.214-2.779-2.027-4.727-4.391-5.677-1.225-.493-3.635-.56-2.2-2.347a2.473,2.473,0,0,0,0-3.394,2.417,2.417,0,0,0-3.394,0,6.95,6.95,0,0,0-1.737,5.592,5.39,5.39,0,0,0,3.9,4.062c.413.144,3.3,1,3.048,1.442a4.117,4.117,0,0,1-1,.132c-1.078-.107-2.058-.59-3.183-.626a12.764,12.764,0,0,0-6.052,1.646,5.916,5.916,0,0,1-2.472,1.032,8.248,8.248,0,0,1-2.117-.233,2.54,2.54,0,0,1-1.9-2.276,9.515,9.515,0,0,0-1.353-3.5,12.281,12.281,0,0,0-7.648-4.978,17.445,17.445,0,0,0-2.714-.347,4.367,4.367,0,0,0-1.443,0l-.212.01.964,2.621c.2.01.609-.341.788-.426a10.751,10.751,0,0,1,5-.985c4.633.229,9.236.348,13.876.238,2.233-.053,4.464-.132,6.7-.21a36.116,36.116,0,0,1,6.461.056,7.675,7.675,0,0,1,4.974,2.479,10.037,10.037,0,0,1,1.193,1.942c.007.014.152.334.058.12s.095.241.11.28c.131.35.26.7.38,1.056a33.609,33.609,0,0,1,2.013,10.237c.032,3.087,4.832,3.095,4.8,0Z"/><path class="c" d="M221.217,276.712c-1.136-3.193-3.529-8.3-7.744-7.064-1.855.546-3.569,1.526-5.437,2.066a6.467,6.467,0,0,1-2.3.387,2.088,2.088,0,0,1-.765-.134c.1.033-.172-.065-.2-.1a3.01,3.01,0,0,1,.275-1c.392-.918.935-1.792,1.4-2.674.932-1.759,1.837-3.537,2.826-5.265a18.375,18.375,0,0,1,3.167-4.348,2.7,2.7,0,0,1,1.364-.82c.17-.013.34-.032.459.148-.117-.176-.119-.155-.069.163a2.418,2.418,0,0,0,2.952,1.676,2.458,2.458,0,0,0,1.676-2.952,4.8,4.8,0,0,0-3.508-3.634,6.056,6.056,0,0,0-5.134,1.092c-3.012,2.189-4.819,5.746-6.523,8.961-.892,1.683-1.835,3.35-2.673,5.062-.911,1.859-1.45,3.914-.442,5.861,1.726,3.332,6.112,3.047,9.138,2.1.993-.31,1.959-.7,2.921-1.092.482-.2.962-.4,1.445-.592.176-.07.352-.144.531-.207.339-.12.852-.086.083-.259-.914-.205.026.367.094.454s.4.59.553.845a13.942,13.942,0,0,1,1.277,2.608,2.462,2.462,0,0,0,2.953,1.676,2.422,2.422,0,0,0,1.676-2.952Z"/><path class="e" d="M297.526,40.013a35.278,35.278,0,0,0,1.3-9.767c-.19-3.37-.621-6.674-2.263-9.62-4.973-8.919-15.21-14.354-25.4-16.434A79.315,79.315,0,0,0,255.2,2.356a109.768,109.768,0,0,0-15.714,1.177A55.974,55.974,0,0,0,222.529,8.37a41.421,41.421,0,0,0-13.5,10.7,37.065,37.065,0,0,0-7.3,14.942,33.728,33.728,0,0,0-.443,10.307c.408,3.7,1.3,7.116,2.026,10.761,1.427,7.189,1.122,14.341.993,21.623-.13,7.332-.359,14.7-.191,22.028.112,4.9,1.5,9.6,5.357,12.855,4.234,3.579,9.684,4.288,15.049,4.288H268.99a27.439,27.439,0,0,0,8.845-1.18,16.738,16.738,0,0,0,5.824-3.326,36.033,36.033,0,0,0,4.257-5.129c2.982-3.826,6.969-7.655,7.765-13.031a63.539,63.539,0,0,0,.313-9.717c-.022-3.494-.626-29.251-.347-32.882A73.469,73.469,0,0,1,297.526,40.013Z"/><path class="b" d="M212.62,15.242a41.551,41.551,0,0,1,9.909-6.872,55.974,55.974,0,0,1,16.956-4.837A109.768,109.768,0,0,1,255.2,2.356a79.315,79.315,0,0,1,15.955,1.836c10.194,2.08,20.431,7.515,25.4,16.434,1.642,2.946,2.073,6.25,2.263,9.62a35.278,35.278,0,0,1-1.3,9.767,73.469,73.469,0,0,0-1.879,10.6c-.279,3.631.325,29.388.347,32.882a63.539,63.539,0,0,1-.313,9.717c-.8,5.376-4.783,9.2-7.765,13.031l-.039.05a2.309,2.309,0,0,1-4.141-1.4c0-3.738,0-6.4,0-6.4,0-9.781-.215-20.532-.5-31.823a53.415,53.415,0,0,1,2.409-17.158c1.769-5.714,1.923-12.229-1.018-17.372-6.126-10.712-25.781-15.746-40.891-15.452-11.333-.22-25.139,1.3-33.98,8.2l-4.516-.116a37.7,37.7,0,0,1,3.792-5.7A38.471,38.471,0,0,1,212.62,15.242Z"/><path class="c" d="M299.84,40.651c1.544-6.869,2.357-14.335-1-20.85-2.654-5.147-7.228-9.28-12.139-12.228a51.31,51.31,0,0,0-17.3-6.161A84.719,84.719,0,0,0,247.779.228c-6.919.5-13.985,1.408-20.577,3.649a44.717,44.717,0,0,0-17.051,10.407,39.9,39.9,0,0,0-10.022,16.352c-2.216,7.051-1.441,14.249.081,21.342a71.826,71.826,0,0,1,1.624,10.286c.249,3.678.208,7.367.138,11.051-.141,7.492-.376,14.988-.3,22.482.06,6.183.773,12.466,5.52,16.961,4.679,4.431,11.124,5.493,17.334,5.517,14.968.057,29.948.137,44.915,0,7.032-.065,13.714-1.994,18.2-7.712q2.6-3.314,5.216-6.606a25.827,25.827,0,0,0,4.6-7.842c1.534-4.646.993-9.917.91-14.748-.06-3.488-.13-6.975-.192-10.463-.073-4.124-.141-8.248-.179-12.373-.023-2.63-.126-5.292.054-7.919a66.519,66.519,0,0,1,1.793-9.959c.677-3.009-3.949-4.293-4.628-1.276a64.706,64.706,0,0,0-2.031,13.568c-.032,3.314.018,6.629.063,9.942.091,6.7.264,13.4.345,20.1.031,2.6.115,5.207-.056,7.8a15.361,15.361,0,0,1-2.669,7.837c-1.395,2.089-3.1,3.94-4.645,5.915-1.865,2.388-3.491,4.91-6.151,6.5-5.585,3.338-12.692,2.432-18.917,2.432H229.226a76.164,76.164,0,0,1-9.52-.25c-5.222-.659-10.242-3.246-12.13-8.437a25.15,25.15,0,0,1-1.1-8.5c-.041-3.428-.006-6.856.052-10.283.118-6.947.465-13.919.248-20.866a66.213,66.213,0,0,0-1.146-10.7c-.63-3.211-1.47-6.392-1.884-9.642a30.574,30.574,0,0,1,3.235-18.2,36.587,36.587,0,0,1,11.864-13.294,45.791,45.791,0,0,1,17.522-6.843c12.751-2.418,26.5-2.614,38.981,1.286a37.128,37.128,0,0,1,13.928,7.635,25.624,25.624,0,0,1,4.838,5.807,18.6,18.6,0,0,1,2.283,8.615,33.806,33.806,0,0,1-1.183,9.569C294.536,42.384,299.162,43.668,299.84,40.651Z"/><path class="c" d="M210.963,26.958c7.222-5.551,16.682-7.283,25.577-7.758a85.708,85.708,0,0,1,25.711,2.027c6.923,1.759,15.172,4.814,19.4,10.727a17.367,17.367,0,0,1,2.661,12.6,67.727,67.727,0,0,1-1.934,7.515A51.456,51.456,0,0,0,281,60.559c-.528,6.379.012,12.881.136,19.272.121,6.219.2,12.439.2,18.66,0,3.088,4.8,3.093,4.8,0,0-5.746-.069-11.491-.175-17.235-.11-5.946-.5-11.939-.321-17.884a46.4,46.4,0,0,1,1.045-8.662c.6-2.72,1.635-5.32,2.127-8.066.927-5.182.615-10.654-1.919-15.363-3.954-7.349-12.45-11.378-20.064-13.751-8.764-2.732-17.888-3.417-27.019-3.246-10.673.2-22.562,1.836-31.269,8.53a2.48,2.48,0,0,0-.861,3.283,2.416,2.416,0,0,0,3.284.861Z"/></svg>