<svg id="b" xmlns="http://www.w3.org/2000/svg" width="353.891" height="326.063" viewBox="0 0 353.891 326.063" style="color: initial !important;"><defs><style>.d{fill:#f3736f;}.e{fill:#b5886a;}.f{fill:#d9d9d9;}.g{fill:#ffffff;}.h{fill:#211715;}.i{fill:#b3b3b3;}.j{fill:#febe69;}</style></defs><g id="c"><path class="f" d="M346.42,38.895c1.36-2.243,3.063-4.399,4.877-6.374,1.623-1.767-.322-4.612-2.66-4.069-9.866,2.295-19.219,5.578-27.629,9.705-.015-.01-.03-.02-.045-.03,3.5,2.269,5.532,4.339,6.824,6.338,1.082,1.674,1.164,3.813.144,5.526-1.425,2.394-3.941,5.257-6.912,7.189,8.408,4.138,17.756,7.42,27.617,9.713,2.337.544,4.29-2.309,2.66-4.069-4.119-4.445-7.672-9.905-7.911-15.152.134-2.937,1.306-5.928,3.034-8.778Z"/><path class="i" d="M327.788,44.466c-1.287-1.991-3.306-4.051-6.779-6.308h0c-17.025-11.425-37.114-17.394-60.254-17.394-5.687,0-11.436.432-17.096,1.328-3.602.57-7.168,1.329-10.659,2.283-10.858,2.97-20.85,6.851-29.244,14.862-2.568,2.451-3.855,5.444-3.857,8.436h128.732c.065-1.11-.215-2.236-.842-3.207Z"/><path class="g" d="M199.899,47.673c-.002,2.992,1.282,5.984,3.855,8.431,8.651,8.229,18.386,11.897,29.246,14.867,8.978,2.455,18.449,3.612,27.755,3.612,23.145,0,43.238-5.972,60.265-17.402,2.971-1.932,5.488-4.795,6.912-7.189.428-.72.651-1.515.698-2.319h-128.732Z"/><path class="h" d="M243.127,20.163c-6.695,1.076-13.308,2.79-19.682,5.107-5.743,2.088-11.3,4.767-16.206,8.44-4.759,3.562-9.65,7.984-9.328,14.472.316,6.353,5.234,10.494,10.021,13.974,4.931,3.584,10.488,6.182,16.225,8.194,6.317,2.215,12.85,3.896,19.468,4.911,13.474,2.067,27.364,1.707,40.74-.902,13.427-2.619,26.288-7.846,37.665-15.451h-2.019c7.2,3.527,14.74,6.346,22.466,8.483,1.948.539,3.937,1.152,5.932,1.484,1.613.268,3.21-.295,4.297-1.52,1.032-1.163,1.478-2.828.982-4.326-.547-1.652-2.192-2.919-3.25-4.259-2.243-2.843-4.24-6.142-4.902-9.747-.633-3.449,1.275-7.074,3.088-9.88,1.039-1.608,2.219-3.113,3.489-4.545,1.17-1.32,2.096-2.668,1.669-4.526-.352-1.529-1.463-2.793-2.92-3.361-1.738-.678-3.529-.016-5.249.417-8.825,2.222-17.434,5.308-25.613,9.303h2.019c-17.294-11.556-37.662-17.183-58.368-17.636-6.875-.15-13.728.308-20.523,1.368-1.068.167-1.66,1.504-1.397,2.46.313,1.139,1.389,1.564,2.46,1.397,23.997-3.742,49.759.335,70.78,12.701,1.137.669,2.262,1.361,3.372,2.075.543.349,1.086.79,1.657,1.089,1.042.544,1.855.075,2.798-.379,2.825-1.36,5.704-2.598,8.632-3.719,3.036-1.163,6.117-2.209,9.23-3.144,1.474-.442,2.955-.859,4.442-1.252.749-.198,1.5-.389,2.252-.575.518-.128,1.393-.522,1.919-.434.384.064.651.406.61.725-.057.443-1.18,1.327-1.477,1.681-.589.703-1.158,1.424-1.709,2.157-1.828,2.432-3.385,5.074-4.385,7.958s-1.123,5.753-.272,8.693c.818,2.823,2.259,5.467,3.949,7.857.853,1.207,1.771,2.371,2.734,3.491.398.462,1.437,1.09,1.067,1.689-.514.832-2.234-.05-2.888-.213-1.647-.412-3.286-.853-4.916-1.325-6.155-1.781-12.196-3.981-18-6.701-1.506-.705-2.707-1.672-4.306-.719-1.246.743-2.437,1.584-3.68,2.336-2.427,1.467-4.916,2.831-7.46,4.085-5.043,2.486-10.301,4.507-15.697,6.088-11.762,3.446-24.121,4.785-36.357,4.319-6.806-.259-13.58-1.148-20.202-2.75-5.656-1.369-11.344-3.067-16.653-5.471-5.237-2.37-10.129-5.476-14.306-9.442-3.685-3.499-4.61-8.683-1.391-12.851,1.758-2.276,4.314-4.154,6.655-5.789,2.324-1.624,4.784-3.048,7.33-4.294,5.253-2.572,10.878-4.363,16.524-5.847,3.213-.844,6.467-1.512,9.747-2.039,1.067-.171,1.661-1.501,1.397-2.46-.312-1.136-1.39-1.569-2.46-1.397Z"/><path class="h" d="M228.37,42.161c-.372-.623-.952-1.209-1.618-1.511-.583-.265-.945-.363-1.59-.427-.422-.042-.849.014-1.264.085-.751.128-1.568.589-2.062,1.172-.419.494-.638.864-.863,1.469-.144.387-.193.817-.199,1.227,0,.75.198,1.561.63,2.183.208.299.429.597.715.826.493.395.835.603,1.44.82.721.258,1.646.229,2.384.056.695-.163,1.449-.596,1.913-1.143.237-.279.472-.565.624-.9.269-.592.374-.983.432-1.641.065-.746-.161-1.578-.542-2.217Z"/><path class="h" d="M200.648,52.128h8.376c1.046,0,2.048-.92,2-2s-.879-2-2-2h-8.376c-1.046,0-2.048.92-2,2s.879,2,2,2h0Z"/><path class="i" d="M275.314,42.563c-.971.032-1.881.118-2.582.173-7.743.604-14.478,2.177-24.297,4.776-.152,2.3-.517,4.587-1.089,6.818,2.82.856,5.185,1.24,8.238,1.517,6.429.582,11.945.882,17.691-1.104,3.666-1.267,8.09-4.145,8.383-8.401.052-.757-.053-1.564-.514-2.168-1.126-1.475-3.636-1.682-5.831-1.61Z"/><path class="h" d="M275.314,40.563c-9.327.389-18.427,2.645-27.411,5.02-.899.238-1.405,1.049-1.468,1.929-.154,2.131-.5,4.214-1.017,6.287-.266,1.065.339,2.145,1.397,2.46,3.691,1.099,7.482,1.513,11.31,1.802,3.776.286,7.546.342,11.294-.281,5.931-.985,13.847-4.466,14.241-11.439.27-4.774-4.556-5.873-8.345-5.778-2.569.064-2.579,4.064,0,4,1.031-.026,3.53-.261,4.217.79.608.931-.291,2.636-.827,3.403-1.77,2.534-4.964,3.869-7.845,4.631-3.72.983-7.567,1.004-11.384.767-3.931-.244-7.809-.625-11.597-1.753l1.397,2.46c.602-2.413.981-4.87,1.16-7.35l-1.468,1.929c8.639-2.284,17.377-4.503,26.347-4.877,2.565-.107,2.578-4.107,0-4Z"/><path class="h" d="M244.398,33.132c3.675,10.12,2.467,21.545-3.307,30.643-1.383,2.18,2.077,4.189,3.454,2.019,6.294-9.919,7.722-22.676,3.71-33.725-.872-2.401-4.739-1.364-3.857,1.063h0Z"/><path class="h" d="M320,39.885c1.608,1.056,3.136,2.209,4.469,3.602.96,1.004,2.101,2.198,2.178,3.727.08,1.595-1.209,3.061-2.183,4.209-1.3,1.534-2.775,2.918-4.453,4.03-.899.596-1.285,1.767-.718,2.736.523.893,1.832,1.317,2.736.718,2.086-1.382,3.97-3.063,5.552-5.003s3.142-4.069,3.065-6.69c-.141-4.79-5.003-8.404-8.628-10.784-2.158-1.417-4.164,2.045-2.019,3.454h0Z"/><path class="d" d="M129.329,28.21c.87,4,.8,7.92-.67,11.28-2.12,4.83-7.29,7.18-13.35,10.39-4.87,2.59-13.22,5.65-18.17,8.08-17.75,8.71-22.13,23.7-38.96,30.54-13.11,5.32-29.03,8.1-39.55-1.39-1.47-1.33-2.84-2.86-4.1-4.55l.38-.28c13.27,1.72,25.81-9.17,26.24-17.75.37-7.28-.75-12,.5-19.07,1.87-10.55,8.02-13.9,15.8-17.78,4.95-2.46,15.43-5.34,25.54-7.2,13.18-2.41,34.01-3.01,46.34,7.73Z"/><path class="g" d="M121.799,12.77c3.47,4.5,6.36,10.04,7.53,15.44-12.33-10.74-33.16-10.14-46.34-7.73-10.11,1.86-20.59,4.74-25.54,7.2-7.78,3.88-13.93,7.23-15.8,17.78-1.25,7.07-.13,11.79-.5,19.07-.43,8.58-12.97,19.47-26.24,17.75l-.38.28C6.679,72.15,2.559,55.68,1.899,43.47c.36-8.73,4.35-16.24,10.84-22.05,6.26-5.61,14.42-8.57,22.56-10.55,8.15-1.97,26.67-4.55,41.41-7.11,5.9-1.03,13.06-1.9,18.11-1.77,6.26.16,10.64.51,16.5,2.72,4.85,1.83,8.1,4.97,10.48,8.06Z"/><path class="h" d="M114.303,48.158c-4.875,2.559-10.079,4.453-15.113,6.665-5.132,2.256-9.836,5.119-14.125,8.737-7.606,6.416-13.418,14.916-21.969,20.201-4.67,2.886-10.002,4.741-15.306,6.08-5.126,1.293-10.576,2.018-15.844,1.229-5.094-.763-9.672-2.986-13.268-6.69-3.472-3.577-6.005-7.993-8.039-12.514-2.2-4.891-3.764-10.088-4.912-15.319-.545-2.483-.999-4.991-1.321-7.513-.318-2.493-.631-5.016-.363-7.525,1.257-11.751,10.182-20.706,20.662-25.163,9.569-4.07,20.168-5.399,30.355-7.041,6.062-.977,12.129-1.924,18.185-2.939s12.092-2.082,18.236-2.34c5.894-.247,11.962.142,17.59,2.004,5.582,1.847,9.63,5.48,12.845,10.322,3.063,4.614,5.634,10.047,5.95,15.657.131,2.331-.097,4.805-1.146,6.926-1.07,2.162-2.875,3.736-4.867,5.036-2.411,1.572-5.008,2.843-7.549,4.186-2.277,1.203-.258,4.657,2.019,3.454,4.977-2.631,11.07-5.214,13.777-10.508,2.635-5.151,2.053-11.317.272-16.641-1.889-5.647-5.066-11.154-9.178-15.479-4.424-4.652-10.404-7.156-16.663-8.208-12.926-2.172-25.808.691-38.542,2.75-6.188,1.001-12.383,1.96-18.565,3-4.784.805-9.585,1.608-14.284,2.829-12.158,3.16-23.984,9.314-29.846,20.986-1.351,2.689-2.349,5.562-2.879,8.526-.516,2.889-.511,5.583-.204,8.486.584,5.526,1.648,11.007,3.216,16.339,2.98,10.134,7.918,21.45,17.132,27.4,10.054,6.493,23.139,4.619,33.849.948,5.476-1.877,10.521-4.331,15.081-7.921,4.058-3.195,7.541-7.016,11.106-10.733,3.77-3.931,7.699-7.72,12.28-10.704,4.939-3.217,10.46-5.308,15.862-7.596,2.56-1.084,5.123-2.182,7.586-3.474,2.28-1.197.261-4.65-2.019-3.454Z"/><path class="h" d="M130.747,26.796c-7.889-6.783-18.374-9.253-28.555-9.698-10.647-.466-21.217,1.393-31.493,4.037-4.943,1.272-9.966,2.684-14.552,4.967-3.911,1.947-7.92,4.041-10.938,7.276-3.523,3.778-5.143,8.608-5.804,13.651-.775,5.915.275,11.837-.273,17.748-.413,4.455-4.182,8.559-7.727,11.071-4.821,3.415-10.591,5.143-16.493,4.435-1.074-.129-2,1.011-2,2,0,1.188.923,1.871,2,2,9.965,1.195,20.851-4.17,25.989-12.819,1.028-1.731,1.818-3.651,2.108-5.65.414-2.857.224-5.828.128-8.703-.181-5.421-.291-11.136,1.884-16.228,1.639-3.838,4.62-6.561,8.147-8.661,3.842-2.287,7.864-4.055,12.125-5.396,10.12-3.185,20.797-5.502,31.434-5.775,10.74-.276,22.756,1.318,31.194,8.572,1.943,1.67,4.784-1.147,2.828-2.828h0Z"/><path class="d" d="M13.633,41.92c-.183-3.299,1.668-7.343,4.358-9.398,3.399-2.597,6.25-2.84,9.974-2.01,2.75.613,4.435,2.732,3.521,5.412-2.033,5.962-3.365,13.341-3.758,19.856-.085,1.402-1.137,3.376-2.874,3.998-1.316.471-3.419.117-4.657-.536-1.111-.586-2.639-3.172-3.178-4.331-2.065-4.445-3.102-7.865-3.386-12.99Z"/><path class="h" d="M15.633,41.92c-.147-4.244,2.766-8.426,6.899-9.565,1.814-.5,4.289-.403,5.989.455,1.868.942,1.006,2.597.521,4.168-1.602,5.191-2.567,10.592-3.092,15.994-.151,1.549.125,4.253-1.775,4.921-.767.27-1.804.066-2.548-.207-.751-.275-1.134-.846-1.599-1.542-2.771-4.148-4.098-9.297-4.395-14.224-.154-2.558-4.155-2.575-4,0,.343,5.683,1.82,11.78,5.126,16.516.661.947,1.403,1.948,2.428,2.532,1.263.72,2.94,1.068,4.384,1.023,2.948-.093,5.366-2.268,6.008-5.131.329-1.466.279-3.055.437-4.546.186-1.758.436-3.507.742-5.249.584-3.32,1.353-6.616,2.394-9.824.83-2.558.781-5.199-1.436-7.063-2.136-1.797-5.46-2.294-8.171-2.041-6.765.631-12.147,7.034-11.913,13.783.089,2.567,4.09,2.579,4,0Z"/><path class="e" d="M57.382,194.442c0,7.976-.058,19.168-.058,29.448,0,5.783-5.014,7.741-9.284,10.179-4.479,2.557-8.436,5.777-10.661,10.545-3.208,6.873-2.386,14.96-2.386,22.346,0,5.862,0,11.724,0,17.585,0,8.22,0,16.44,0,24.66,0,8.172,6.625,14.797,14.797,14.797h16.108s16.108,0,16.108,0c8.172,0,14.797-6.625,14.797-14.797,0-8.22,0-16.44,0-24.66,0-5.862,0-11.724,0-17.585,0-7.386.822-15.473-2.386-22.346-2.225-4.768-6.182-7.988-10.661-10.545-4.27-2.438-9.284-4.396-9.284-10.179,0-10.279-.058-21.471-.058-29.448"/><path class="g" d="M93.095,254.022h-58.006c-.362,4.304-.096,8.734-.096,12.937,0,5.862,0,11.724,0,17.585,0,7.228,0,14.456,0,21.684h61.811c0-7.228,0-14.456,0-21.684,0-5.862,0-11.724,0-17.585,0-4.203.266-8.633-.096-12.937h-3.614Z"/><path class="h" d="M55.382,194.442c0,6.441-.028,12.883-.044,19.324-.008,3.491.115,7.008-.021,10.496-.084,2.148-1.335,3.779-3.02,5.002-2.063,1.496-4.431,2.528-6.593,3.867-2.496,1.545-4.889,3.369-6.818,5.594-4.259,4.913-5.676,11.158-5.932,17.517-.132,3.293.013,6.587.036,9.88.026,3.699.003,7.398.003,11.097,0,7.374,0,14.749,0,22.123,0,3.614-.215,7.301.036,10.906.187,2.684.971,5.316,2.369,7.623,2.73,4.507,7.446,7.458,12.667,8.033,2.606.287,5.312.1,7.927.1h9.333c5.124,0,10.248,0,15.372,0,3.744,0,7.347-.633,10.526-2.755,4.488-2.996,7.316-7.949,7.566-13.346.17-3.669.016-7.381.016-11.054v-10.85c0-7.432-.068-14.867.007-22.298.065-6.409.52-13.055-1.523-19.239-1.967-5.955-6.242-10.33-11.523-13.531-3.667-2.222-9.185-3.964-9.292-9.039-.146-6.939-.025-13.895-.044-20.836-.008-2.871-.014-5.741-.014-8.612,0-2.574-4-2.578-4,0,0,6.288.027,12.576.042,18.864.008,3.377,0,6.753.015,10.13.013,2.707.737,5.105,2.544,7.158,1.562,1.775,3.703,2.983,5.75,4.107,2.297,1.262,4.602,2.54,6.623,4.225,4.741,3.954,6.869,9.308,7.341,15.379.251,3.226.161,6.464.105,9.696-.059,3.428-.032,6.858-.032,10.286,0,7.201,0,14.401,0,21.602,0,3.617,0,7.234,0,10.85,0,2.66.025,5.192-1.09,7.668-1.945,4.319-6.255,7.364-11.011,7.58-5.39.244-10.835.016-16.23.016-5.024,0-10.047,0-15.071,0-3.28,0-6.314-.433-9.077-2.392-1.843-1.307-3.317-3.146-4.243-5.203-1.149-2.552-1.09-5.173-1.09-7.914,0-14.301.217-28.621-.039-42.919-.109-6.074-.442-12.699,2.322-18.305,2.525-5.121,7.209-8.055,12.039-10.724,2.041-1.127,4.146-2.369,5.66-4.179,1.812-2.165,2.349-4.616,2.35-7.385.002-6.642.026-13.284.043-19.927.008-2.871.014-5.741.014-8.612,0-2.574-4-2.578-4,0h0Z"/><path class="h" d="M34.988,256.022h61.821c2.574,0,2.578-4,0-4h-61.821c-2.574,0-2.578,4,0,4h0Z"/><path class="h" d="M96.809,304.229h-61.821c-2.574,0-2.578,4,0,4h61.821c2.574,0,2.578-4,0-4h0Z"/><path class="h" d="M51.386,267.844c3.089,0,3.094-4.8,0-4.8s-3.094,4.8,0,4.8h0Z"/><path class="h" d="M61.061,267.844c3.089,0,3.094-4.8,0-4.8s-3.094,4.8,0,4.8h0Z"/><path class="h" d="M70.736,267.844c3.089,0,3.094-4.8,0-4.8s-3.094,4.8,0,4.8h0Z"/><path class="h" d="M80.412,267.844c3.089,0,3.094-4.8,0-4.8s-3.094,4.8,0,4.8h0Z"/><path class="h" d="M76.931,292.286c1.789-1.853,3.44-3.899,4.653-6.18,1.118-2.103,2.47-4.904.996-7.161-1.224-1.875-3.742-2.063-5.741-1.668-2.229.441-4.429,1.69-6.295,2.949-2.031,1.369-3.89,2.98-5.66,4.668-1.734,1.653-3.552,3.331-4.856,5.359-1.19,1.851-2.345,5.323-.285,7.007,1.94,1.586,4.873.056,6.367-1.448,1.709-1.721,2.719-4.091,3.729-6.254,1.161-2.486,2.246-5.037,3.121-7.639.767-2.282.669-4.813-1.451-6.319-1.722-1.223-4.027-1.205-6.013-.788-4.378.92-8.2,4.251-10.884,7.676-1.348,1.72-2.73,3.593-3.694,5.563-.601,1.228-.368,2.709.826,3.49,1.158.758,2.385.394,3.44-.34,2.199-1.531,3.884-3.611,5.254-5.895,1.211-2.019,3.086-4.771,2.651-7.234-.501-2.843-3.493-3.656-5.988-3.25-2.63.428-5.321,1.948-7.558,3.338-2.182,1.356-.176,4.818,2.019,3.454,1.686-1.047,3.501-2.03,5.396-2.648.459-.15,1.598-.552,2.025-.217.301.236.171.312-.052.867-.647,1.613-1.605,3.204-2.562,4.65-.474.716-.988,1.393-1.576,2.02-.524.558-1.336,1.531-2.089,1.778h1.063l-.006.024.718.718.009.003v1.063c.204-.672.85-1.449,1.224-2.037.402-.633.818-1.258,1.254-1.868.922-1.288,1.963-2.494,3.118-3.579,2.035-1.911,5.111-4.107,8.069-3.825,1.333.127,1.453.679,1.069,1.928-.579,1.885-1.357,3.738-2.153,5.54-.783,1.774-1.599,3.559-2.561,5.244-.353.618-.724,1.204-1.227,1.71-.217.218-.429.399-.688.56-.158.103-.325.189-.501.257-.438.065-.481.119-.128.162l.718.718c-.504-.783.891-2.599,1.331-3.154.931-1.174,2.052-2.21,3.126-3.251,2.143-2.078,4.372-4.073,6.976-5.561,1.15-.657,2.457-1.39,3.788-1.58.34-.049.989-.168,1.299.04.091.061.042-.07.008-.115.129.168-.028.506-.068.67-.715,2.926-3.001,5.62-5.038,7.728-1.789,1.852,1.036,4.684,2.828,2.828h0Z"/><rect class="j" x="55.561" y="187.344" width="20.668" height="24.621" rx="2.419" ry="2.419"/><path class="h" d="M73.81,185.344h-13.757c-1.034,0-2.241-.13-3.248.158-3.767,1.077-3.244,5.04-3.244,8.069v11.557c0,2.777-.651,6.572,2.188,8.234,1.189.696,2.503.603,3.814.603h5.233c2.971,0,5.966.114,8.935,0,2.527-.097,4.399-1.911,4.497-4.455.034-.881,0-1.77,0-2.652v-12.468c0-1.415.017-2.831,0-4.245-.033-2.658-1.708-4.619-4.419-4.802-2.57-.173-2.559,3.828,0,4,.615.041.419,1.082.419,1.48v3.779c0,3.508,0,7.016,0,10.525v3.633c0,.517.139,1.027-.439,1.204-.667.204-1.72,0-2.408,0h-5.121c-1.696,0-3.391,0-5.087,0-.969,0-2.117.173-3.074,0-.565-.102-.534-.385-.541-.879-.014-1.05,0-2.101,0-3.151v-14.729c0-.365-.183-1.314.057-1.654.34-.48,1.789-.207,2.266-.207h13.926c2.574,0,2.578-4,0-4Z"/><path class="h" d="M55.56,202.998h20.669c2.574,0,2.578-4,0-4h-20.669c-2.574,0-2.578,4,0,4h0Z"/><path class="h" d="M55.56,200.311h20.669c2.574,0,2.578-4,0-4h-20.669c-2.574,0-2.578,4,0,4h0Z"/><path class="j" d="M275.899,195.931h-40.398c-2.04,0-3.653,1.678-3.694,3.747-.322,16.206-1.908,47.978-1.908,64.807,0,17.794.336,33.008,1.908,47.182.228,2.057,1.654,3.747,3.694,3.747h80.796c2.04,0,3.466-1.69,3.694-3.747,1.572-14.174,1.908-29.388,1.908-47.182,0-16.83-1.586-48.602-1.908-64.807-.041-2.069-1.654-3.747-3.694-3.747h-40.398Z"/><path class="h" d="M275.899,193.931h-29.924c-3.482,0-6.993-.132-10.474,0-2.552.097-4.776,1.723-5.477,4.219-.512,1.824-.271,4.024-.324,5.91-.122,4.433-.278,8.864-.438,13.296-.721,20.005-1.558,39.992-1.287,60.015.154,11.423.441,22.945,1.831,34.296.421,3.436,2.764,5.747,6.253,5.747h65.878c4.632,0,9.265.025,13.896,0,3.717-.02,5.796-2.616,6.201-6.141.637-5.547,1.009-11.13,1.283-16.705,1.026-20.905.505-41.819-.251-62.721-.339-9.359-.722-18.717-.977-28.078-.053-1.951.203-4.232-.48-6.08-.842-2.277-2.927-3.662-5.32-3.759-1.061-.043-2.133,0-3.195,0-11.469,0-22.938,0-34.407,0h-2.788c-2.574,0-2.578,4,0,4h28.8c3.814,0,7.69-.203,11.5,0,1.04.055,1.693.699,1.793,1.747.175,1.831.086,3.728.139,5.568.126,4.336.28,8.672.437,13.007.703,19.398,1.503,38.779,1.266,58.194-.137,11.227-.511,22.468-1.673,33.642-.137,1.314-.197,3.199-1.883,3.326-.344.026-.7,0-1.044,0h-78.799c-.305,0-.621.024-.925,0-1.933-.152-1.811-2.699-1.954-4.119-.535-5.32-.892-10.657-1.136-15.999-.926-20.295-.441-40.59.291-60.88.332-9.206.706-18.411.969-27.619.049-1.709-.118-3.572.125-5.261.148-1.027.884-1.56,1.858-1.605,1.308-.061,2.634,0,3.944,0,11.212,0,22.425,0,33.637,0h2.655c2.574,0,2.578-4,0-4Z"/><path class="h" d="M318.66,203.018h-85.88c-2.574,0-2.578,4,0,4h85.88c2.574,0,2.578-4,0-4h0Z"/><path class="h" d="M319.317,304.329h-87.196c-2.574,0-2.578,4,0,4h87.196c2.574,0,2.578-4,0-4h0Z"/><path class="h" d="M253.984,304.969c2.026-3.489,4.922-5.828,8.665-7.326,1.533-.614,3.238-.801,4.876-.836,1.708-.036,3.676.09,5.11.891l.478-3.655c-3.417,1.069-6.48,2.771-9.165,5.142-1.934,1.707.904,4.527,2.828,2.828,2.154-1.902,4.662-3.256,7.4-4.113,1.594-.499,2.028-2.79.478-3.655-2.057-1.148-4.508-1.455-6.832-1.441-2.101.013-4.356.245-6.325,1.018-4.687,1.842-8.423,4.747-10.967,9.128-1.295,2.23,2.16,4.246,3.454,2.019h0Z"/><path class="h" d="M249.102,303.137c-.082-8.464.333-16.917.865-25.362.055-.867-.66-1.706-1.468-1.929-.926-.254-1.713.205-2.259.919-4.482,5.865-7.038,13.546-8.158,20.755-.166,1.066.271,2.151,1.397,2.46.949.261,2.293-.323,2.46-1.397,1.075-6.919,3.452-14.168,7.755-19.799l-3.727-1.009c-.532,8.444-.947,16.898-.865,25.362.025,2.572,4.025,2.579,4,0h0Z"/><path class="g" d="M294.462,254.266c-.565.352-1.115.718-1.574,1.293-1.595,2.04-.939,5.294,1.319,6.04,2.341.747,4.876.186,7.158-.643,1.48-.495,2.98-3.03,2.212-5.138-.497-1.364-1.8-2.284-3.287-2.55-1.956-.349-4.076-.094-5.828.998Z"/><path class="g" d="M301.538,273.67c-.579.318-1.143.651-1.624,1.198-1.675,1.943-1.151,5.232,1.075,6.111,2.308.885,4.863.475,7.175-.219,1.498-.407,3.099-2.85,2.416-5.001-.442-1.392-1.706-2.388-3.181-2.742-1.94-.465-4.067-.335-5.861.652Z"/><path class="g" d="M274.956,268.103c-.417.582-.816,1.169-1.065,1.91-.856,2.613.75,5.338,3.075,5.013,2.402-.361,4.584-2.025,6.448-3.823,1.222-1.127,1.839-4.156.479-5.767-.88-1.042-2.371-1.31-3.833-.886-1.923.558-3.813,1.749-5.105,3.553Z"/><path class="g" d="M255.224,253.536c-.276.694-.534,1.388-.614,2.182-.26,2.794,1.881,4.911,4.053,3.856,2.239-1.114,3.984-3.415,5.393-5.745.935-1.477.874-4.596-.787-5.717-1.075-.725-2.571-.508-3.89.367-1.735,1.151-3.3,2.904-4.155,5.056Z"/><path class="g" d="M275.642,237.374c-.516.45-1.016.909-1.399,1.561-1.329,2.303-.284,5.404,2.04,5.737,2.406.32,4.845-.689,7.001-1.918,1.404-.755,2.579-3.53,1.562-5.478-.658-1.26-2.058-1.937-3.561-1.933-1.978.005-4.043.637-5.642,2.03Z"/><path class="h" d="M293.452,252.539c-1.377.864-2.44,1.899-3.041,3.426-.463,1.178-.509,2.53-.209,3.755.32,1.308,1.118,2.456,2.225,3.216,1.232.846,2.967,1.053,4.424,1.008,1.595-.049,3.179-.411,4.683-.931,1.425-.493,2.506-1.308,3.291-2.614.793-1.317,1.085-2.834.861-4.346-.227-1.537-1.196-2.809-2.433-3.694-1.342-.959-3.101-1.258-4.72-1.237-1.783.024-3.554.491-5.082,1.416-.895.542-1.309,1.819-.718,2.736.579.899,1.779,1.298,2.736.718.233-.141.48-.253.714-.39.282-.165-.419.135.099-.044.113-.039.223-.081.337-.117.226-.073.455-.135.686-.187.144-.033.292-.052.436-.085.147-.024.117-.021-.093.009.088-.01.176-.019.265-.026.5-.042,1.003-.041,1.502.001.117.01.234.021.351.036-.415-.052-.042,0,.066.022.257.051.495.138.745.206.282.077-.4-.23.013.008.087.05.179.092.266.143s.169.107.254.16c.334.207-.021-.036-.049-.044.129.037.453.409.516.525-.029-.053-.222-.36-.056-.047.061.115.199.26.212.389-.004-.04-.137-.444-.036-.051.026.102.053.204.08.306.108.41.005-.051-.005-.067.048.069.011.303.009.389-.003.129.034.481.022.01.002.088-.041.226-.059.305-.023.101-.05.201-.08.3-.028.092-.225.54-.014.099-.088.182-.175.363-.28.536-.064.106-.137.204-.202.308-.152.242.325-.325.001-.013-.035.034-.346.4-.388.378-.05-.027.37-.233.098-.084-.074.041-.26.108-.314.175l.266-.117c-.09.033-.181.065-.271.097-.121.043-.243.084-.365.125-.276.092-.554.178-.834.257-.249.071-.5.136-.753.194-.158.037-.316.07-.474.101-.067.013-.601.107-.402.076.236-.037-.16.018-.212.023-.159.016-.319.028-.479.036-.255.013-.51.016-.765.008-.127-.004-.254-.017-.381-.021-.586-.016.21.058-.131-.008-.315-.062-.627-.121-.935-.217-.401-.125.024-.064.036.033-.001-.009-.228-.123-.217-.116.006.003-.19-.136-.204-.133.143-.033.308.282.122.084-.059-.063-.14-.169-.212-.215-.2-.128.253.406.05.071-.043-.071-.25-.518-.302-.534.041.012.158.469.062.131-.034-.122-.077-.239-.107-.363-.02-.083-.034-.166-.053-.249-.094-.42.007.456.01.022.002-.218-.002-.432.009-.65.019-.384.003.139-.019.141.01,0,.073-.334.088-.387.024-.085.056-.169.079-.254.108-.402-.188.32.005-.017.114-.199.217-.397.353-.583-.256.349-.012.043.069-.039.042-.043.435-.393.247-.238-.191.157.086-.058.135-.092.16-.11.324-.214.489-.317.885-.556,1.316-1.809.718-2.736-.572-.887-1.788-1.313-2.736-.718Z"/><path class="h" d="M300.529,271.943c-1.253.695-2.376,1.61-2.981,2.942-.594,1.306-.748,2.688-.464,4.095.268,1.331,1.062,2.492,2.142,3.291,1.195.884,2.871,1.156,4.321,1.207,1.546.055,3.124-.227,4.611-.635,1.471-.403,2.569-1.158,3.444-2.414,1.701-2.441,1.476-5.944-.869-7.892-2.79-2.318-7.108-2.244-10.204-.594-.925.493-1.287,1.853-.718,2.736.606.94,1.747,1.245,2.736.718.136-.073.278-.136.413-.209.272-.146-.263.076.031-.012.263-.079.518-.178.786-.246.236-.06.475-.108.715-.145-.4.062,0,.007.102,0,.182-.014.364-.022.547-.024.274-.003.547.006.82.028.121.01.242.022.363.036-.383-.046-.067-.006.009.01.255.053.51.1.76.172.125.036.246.082.37.122-.243-.079-.191-.089.017.015.206.104.389.238.588.352-.385-.221.048.049.169.17.014.014.357.364.138.132-.208-.22.082.127.102.159.052.084.097.172.146.258.193.34-.059-.342.027.075.021.102.056.21.082.309.114.439-.023-.069-.003-.064.037.009-.007.868.014.512.019-.323-.036.158-.044.192-.024.1-.051.2-.082.298s-.07.193-.101.291c.143-.446.001-.025-.054.076-.068.126-.19.435-.314.506.286-.163.141-.17-.002-.011-.077.086-.157.17-.242.25-.029.027-.182.183-.202.178-.029-.007.432-.265.092-.086-.069.036-.146.081-.213.123-.326.203.389-.081.049-.032-.544.079-1.092.308-1.634.422-.246.052-.494.094-.741.139-.586.107.235-.009-.121.018-.187.014-.374.038-.561.05-.529.034-1.057.025-1.585-.02-.401-.034-.105-.016-.022-.001-.153-.028-.306-.056-.457-.09-.308-.07-.6-.173-.901-.267-.33-.102.389.246.046.007-.065-.045-.145-.09-.212-.129-.308-.179.12.054.112.09.001-.005-.156-.144-.178-.167-.062-.063-.228-.345-.084-.074.158.298-.027-.05-.056-.097-.043-.07-.084-.141-.123-.214l-.056-.11c-.089-.194-.071-.15.055.134.025-.03-.15-.524-.172-.607-.07-.265.106.014.013.153.021-.032-.024-.342-.025-.386-.002-.086,0-.173.003-.259.002-.065.006-.13.013-.195.014-.156.003-.087-.032.207.052-.023.129-.565.153-.639-.003.01.072-.246.089-.249-.118.273-.131.311-.038.114l.063-.118c.049-.088.145-.192.175-.287.059-.186-.269.261-.025.025.106-.103.202-.215.311-.315.063-.059.128-.115.195-.168-.16.124-.182.146-.067.064.266-.139.517-.321.78-.467.916-.508,1.294-1.843.718-2.736-.598-.927-1.757-1.261-2.736-.718Z"/><path class="h" d="M273.229,267.093c-.909,1.275-1.536,2.682-1.57,4.27-.033,1.495.489,2.96,1.46,4.091.899,1.048,2.329,1.685,3.714,1.587,1.592-.113,3.154-.775,4.493-1.613,1.283-.802,2.525-1.796,3.578-2.884.84-.868,1.399-2.053,1.606-3.238.259-1.486.174-2.974-.527-4.334-.788-1.528-2.358-2.375-4.011-2.571-1.684-.199-3.398.427-4.859,1.215-1.562.842-2.841,2.052-3.883,3.476-.62.847-.171,2.267.718,2.736,1.041.55,2.075.187,2.736-.718.327-.447-.168.166.059-.078.098-.105.186-.22.282-.326.173-.189.354-.371.542-.546.104-.096.213-.185.317-.281.057-.053.297-.238-.01-.003.243-.186.497-.358.757-.518.211-.13.426-.252.646-.366.12-.062.86-.376.41-.204.2-.076.4-.152.603-.218.127-.041.255-.081.385-.115.058-.016.586-.143.302-.082-.305.065.191-.012.217-.013.105-.004.211-.005.316-.002.053.002.496.096.195.009-.319-.092.153.05.179.057.035.01.285.088.282.094-.012.03-.374-.19-.014.023l.063.037c.181.124.164.107-.05-.051.064.012.312.277.315.319,0,.009-.259-.428-.081-.087.038.073.086.156.13.228.229.368-.1-.414.002.01.021.086.053.171.074.257-.005-.02.064.262.057.264-.017.006-.024-.49-.012-.057.007.255.005.505,0,.76-.009.402.025-.12.025-.119.03.058-.047.27-.062.339-.042.199-.094.395-.158.588l-.043.126c-.063.163-.061.164.006.004l.051-.119c-.034.077-.071.153-.109.228-.08.155-.27.348-.312.512.081-.32.259-.275.065-.106-.084.073-.163.161-.243.237-.175.167-.353.332-.532.495-.225.204-.454.404-.688.598-.093.078-.188.153-.282.231-.357.294.174-.113-.17.13-.464.327-.927.646-1.424.922-.23.128-.464.244-.701.357-.346.165-.072.03.001.002-.187.071-.374.14-.565.199-.245.076-.491.132-.74.191-.465.11.067,0,.065.003-.033.042-.269.006-.326.009-.384.021.016-.129.095.02-.003-.005-.206-.055-.238-.062-.376-.079.252.19.084.039-.074-.066-.222-.148-.313-.188-.217-.095.329.338.07.041-.01-.011-.264-.271-.257-.275.074-.043.233.363.084.096-.063-.113-.129-.229-.197-.34-.219-.357.055.302.014.048-.025-.152-.104-.309-.14-.46-.015-.063-.027-.233-.057-.275.032.274.04.333.025.178-.007-.072-.012-.144-.015-.216-.004-.097-.005-.195-.003-.293.002-.099.008-.198.016-.297-.041.257-.048.309-.023.157.064-.29.127-.566.228-.847-.028.077-.167.33.007.001.079-.149.157-.297.244-.442.17-.284.361-.554.553-.824.609-.855.179-2.263-.718-2.736-1.031-.545-2.086-.195-2.736.718Z"/><path class="h" d="M253.295,253.005c-.606,1.536-.9,3.124-.516,4.759.331,1.411,1.245,2.779,2.525,3.495,2.928,1.637,5.937-.582,7.843-2.756,1.79-2.041,3.609-4.466,3.512-7.31-.05-1.449-.471-2.856-1.417-3.973-1.137-1.343-2.951-1.739-4.623-1.412-1.689.331-3.204,1.494-4.397,2.687-1.299,1.299-2.237,2.82-2.927,4.511-.397.971.43,2.24,1.397,2.46,1.162.265,2.035-.357,2.46-1.397-.136.333.022-.041.06-.122.053-.112.108-.223.165-.333.128-.246.265-.486.411-.721.129-.207.268-.407.408-.607.221-.315.069-.094.017-.029.113-.141.229-.279.348-.414.352-.399.732-.773,1.135-1.119.088-.076.179-.147.268-.222-.278.237-.059.044.005-.002.249-.178.499-.355.766-.505-.036.02.542-.26.293-.157-.202.084.162-.05.208-.064.147-.044.295-.081.446-.11-.096.018-.369.005-.005.014.114.003.229.007.342.008-.372-.005-.159-.019-.037.013.349.09.066.013-.013-.027.1.049.197.105.29.168l-.201-.159c.009-.012.204.207.23.221.197.102-.167-.314-.071-.104.021.046.335.457.295.514-.011.016-.161-.488-.05-.101.025.088.057.174.082.263.025.089.047.18.067.27.02.092.037.184.052.276l-.034-.252c.08.092.088,1.21-.001,1.265-.008.005.102-.516.012-.126-.02.087-.035.175-.056.261-.041.171-.204.445-.192.608-.021-.287.176-.34.024-.102-.047.074-.09.153-.136.228-.148.245-.301.488-.456.728-.312.483-.638.956-.983,1.417.19-.253-.003.005-.037.047-.1.122-.199.245-.301.365-.182.215-.368.425-.562.629-.376.398-.777.779-1.208,1.117.277-.217.032-.027-.024.009-.124.08-.243.167-.368.246-.224.141-.455.263-.687.388.473-.255-.15.116-.212.03-.05-.069.46-.001.126-.028-.518-.042.007.009.008.025,0,.006-.221-.059-.252-.065-.381-.08.298.205,0-.006-.031-.022-.408-.245-.129-.066.256.164-.051-.056-.105-.111-.026-.026-.303-.373-.117-.116.179.247-.055-.1-.087-.154-.011-.019-.259-.436-.101-.16.143.248-.043-.123-.064-.191-.04-.127-.073-.255-.1-.384-.018-.079-.033-.159-.045-.239.03.231.038.27.026.118.006-.112-.011-.229-.011-.342,0-.063.039-.56.012-.368-.032.23.038-.161.049-.211.042-.184.093-.366.149-.547.103-.327.226-.646.352-.964.385-.976-.421-2.238-1.397-2.46-1.152-.262-2.048.352-2.46,1.397Z"/><path class="h" d="M274.228,235.96c-1.142,1.001-2.101,2.236-2.41,3.757-.288,1.421-.143,2.814.464,4.129.563,1.22,1.613,2.141,2.868,2.597,1.425.518,3.183.308,4.621-.044,1.526-.374,2.99-1.059,4.356-1.825,1.266-.71,2.083-1.842,2.618-3.168.519-1.286.672-2.85.231-4.183-.544-1.645-1.746-2.807-3.334-3.447-1.532-.617-3.294-.495-4.875-.144-1.697.376-3.223,1.206-4.539,2.326-.8.681-.752,2.138,0,2.828.851.781,1.976.726,2.828,0-.01.009.44-.341.208-.175s.236-.155.223-.147c.192-.126.39-.245.593-.354.101-.054.203-.107.305-.157-.003.002.507-.216.229-.108-.28.108.244-.084.238-.082.16-.055.322-.106.485-.152.217-.061.435-.114.656-.158.137-.028.276-.048.413-.073.299-.055-.336.02-.034.008.249-.01.496-.04.746-.045.108-.002.217-.003.326,0,.106.003.212.01.318.02l-.219-.031c.229-.017.535.128.75.189.202.058.172-.033-.057-.028.052,0,.238.124.266.14.019.011.233.118.252.159l-.168-.135c.058.046.113.095.167.147.063.058.239.184.257.266l-.129-.171c.058.082.113.166.163.252.019.033.149.259.139.267-.037.029-.12-.379-.043-.062.022.092.046.194.074.286.135.445.004-.303.001-.019-.003.224.009.445-.003.67-.022.407.021-.067.014-.087.035.092-.07.334-.098.438-.032.12-.069.238-.11.355-.024.068-.152.358-.033.103.138-.296-.071.129-.084.153-.044.083-.09.165-.139.246-.048.079-.102.153-.15.232-.22.361.229-.183.029-.038-.079.057-.146.161-.217.229l-.09.083c-.163.137-.12.105.128-.097-.11-.003-.431.251-.524.302-.253.139-.508.274-.766.404s-.52.253-.784.372c-.365.163-.134.054-.054.023-.178.07-.357.139-.538.203-.538.189-1.084.33-1.641.446-.388.081-.11.025-.022.013-.154.02-.308.032-.463.042-.309.019-.618.02-.926,0l-.093-.006c-.259-.026-.247-.022.036.012-.014.013-.25-.06-.243-.058-.008-.002-.206-.085-.233-.078.236-.065.359.207.098.018-.047-.034-.201-.161-.251-.163.062.002.342.324.129.083-.05-.056-.113-.119-.169-.172-.286-.272.214.366.014.02-.059-.102-.216-.51-.298-.545.184.079.124.399.045.061-.029-.124-.064-.252-.099-.375-.112-.398.089.038-.001.078.014-.007-.021-.307-.022-.332-.003-.112-.003-.224.003-.336l.008-.135c.022-.222.015-.181-.021.126-.057-.038.145-.583.17-.671.099-.362-.044.055-.046.084.009-.116.136-.279.197-.383.062-.107.131-.209.201-.311-.225.324.075-.075.136-.141.235-.251.491-.479.749-.705.789-.692.76-2.131,0-2.828-.842-.773-1.986-.738-2.828,0Z"/><path class="h" d="M250.951,304.491c2.061-10.444,5.696-20.533,11.226-29.657,4.307-7.105,9.953-13.167,16.584-18.161,4.041-3.043,8.316-5.762,12.626-8.404,2.191-1.343.184-4.804-2.019-3.454-7.633,4.678-15.227,9.653-21.501,16.103-6.672,6.858-11.499,15.163-15.192,23.941-2.519,5.988-4.325,12.198-5.582,18.568-.496,2.514,3.358,3.591,3.857,1.063h0Z"/><path class="h" d="M250.749,304.969c5.204-10.994,17.227-16.489,28.216-19.906,3.947-1.227,7.943-2.288,11.944-3.32,2.491-.642,1.435-4.501-1.063-3.857-12.383,3.193-25.316,6.604-35.064,15.351-3.079,2.763-5.711,5.961-7.487,9.713-1.095,2.314,2.352,4.347,3.454,2.019h0Z"/></g></svg>