<svg id="b" xmlns="http://www.w3.org/2000/svg" width="136.804" height="147.886" viewBox="0 0 136.804 147.886" style="color: initial !important;"><defs><style>.d{fill:none;}.e{fill:#211715;}.f{fill:#f2635f;}.g{fill:#645d5c;}</style></defs><g id="c"><path class="e" d="M34.444,4.766c-.056.015-.111.027-.168.038l.638-.086c-.132.018-.258.018-.389.001l.638.086c-.132-.022-.254-.059-.377-.11l.573.242c-.127-.059-.243-.128-.356-.21l.486.375c-.17-.131-.317-.282-.451-.45l.375.486c-.171-.225-.307-.468-.417-.728l.242.573c-.121-.302-.202-.614-.25-.935l.086.638c-.034-.266-.04-.529-.01-.796l-.086.638c.027-.194.073-.381.147-.563l-.242.573c.058-.132.126-.254.212-.369l-.375.486c.075-.094.157-.177.251-.253l-.486.375c.097-.073.197-.131.308-.18l-.573.242c.118-.047.236-.079.36-.099l-.638.086c.122-.015.24-.016.363-.003l-.638-.086c.138.02.268.057.397.111l-.573-.242c.133.061.254.136.369.225l-.486-.375c.139.113.26.24.372.379l-.375-.486c.178.234.318.489.433.759l-.242-.573c.121.302.211.611.259.934l-.086-.638c.035.276.039.551.004.827l.086-.638c-.029.188-.075.369-.144.546l.242-.573c-.062.145-.136.278-.23.404l.375-.486c-.071.088-.147.166-.234.239l.486-.375c-.09.069-.183.125-.285.173l.573-.242c-.053.022-.106.041-.161.059-.59.187-1.118.562-1.434,1.103-.301.514-.429,1.273-.242,1.849.188.581.548,1.141,1.103,1.434.559.295,1.229.439,1.849.242.947-.3,1.8-.922,2.27-1.816.405-.769.627-1.66.566-2.533-.124-1.754-.906-3.54-2.455-4.484-.868-.529-1.869-.636-2.85-.441s-1.736.842-2.301,1.626c-.48.667-.658,1.528-.703,2.332-.041.725.097,1.504.362,2.18.181.461.364.904.659,1.301.42.567.771.945,1.361,1.346.887.604,2.063.765,3.091.488.581-.157,1.131-.585,1.434-1.103.301-.514.429-1.273.242-1.849-.188-.581-.548-1.141-1.103-1.434-.573-.303-1.212-.414-1.849-.242Z"/><path class="e" d="M32.94,8.052c2.396,5.084,5.032,11.776,11.395,12.66.668.093,1.241.114,1.849-.242.498-.291.973-.862,1.103-1.434.257-1.13-.346-2.767-1.676-2.952-.336-.047-.67-.103-1-.183-.16-.039-.319-.082-.476-.132-.065-.02-.705-.239-.327-.104.362.129-.161-.084-.235-.123-.149-.078-.294-.162-.437-.251-.147-.092-.286-.194-.43-.291-.139-.102-.095-.069.132.1-.072-.059-.142-.119-.211-.181-.448-.397-.858-.84-1.243-1.298-.079-.094-.155-.189-.232-.284-.267-.325.34.465.077.099-.144-.201-.29-.4-.429-.605-1.508-2.235-2.571-4.771-3.715-7.201-.537-1.139-2.261-1.52-3.284-.861-1.172.755-1.435,2.065-.861,3.284h0Z"/><path class="e" d="M101.086,9.394c1.905.515,3.8-.565,4.714-2.237.462-.845.683-1.725.754-2.68.064-.855-.157-1.7-.532-2.461-.771-1.563-2.864-2.434-4.507-1.816-.629.237-.966.438-1.477.863-.326.271-.579.623-.823.966-.146.205-.258.428-.357.658-.192.443-.391.885-.477,1.363-.086.474-.172.989-.128,1.478.068.746.186,1.214.487,1.889.435.976,1.347,1.661,2.346,1.977.58.184,1.332.061,1.849-.242.498-.291.973-.862,1.103-1.434.14-.614.11-1.304-.242-1.849-.346-.537-.818-.908-1.434-1.103-.055-.018-.108-.037-.161-.059l.573.242c-.102-.048-.195-.104-.285-.173l.486.375c-.087-.072-.163-.151-.234-.239l.375.486c-.094-.126-.169-.259-.23-.404l.242.573c-.069-.177-.115-.358-.144-.546l.086.638c-.035-.277-.031-.551.004-.827l-.086.638c.048-.322.137-.632.259-.934l-.242.573c.115-.271.254-.525.433-.759l-.375.486c.112-.139.234-.266.372-.379l-.486.375c.116-.089.237-.164.369-.225l-.573.242c.129-.054.259-.091.397-.111l-.638.086c.122-.013.241-.012.363.003l-.638-.086c.125.02.243.052.36.099l-.573-.242c.111.049.211.107.308.18l-.486-.375c.094.076.175.159.251.253l-.375-.486c.086.115.154.237.212.369l-.242-.573c.073.182.119.369.147.563l-.086-.638c.031.266.024.53-.01.796l.086-.638c-.047.321-.129.633-.25.935l.242-.573c-.11.26-.247.502-.417.728l.375-.486c-.134.168-.281.318-.451.45l.486-.375c-.113.082-.229.152-.356.21l.573-.242c-.123.052-.246.088-.377.11l.638-.086c-.132.017-.258.016-.389-.001l.638.086c-.057-.01-.112-.023-.168-.038-.603-.163-1.309-.074-1.849.242-.498.291-.973.862-1.103,1.434-.14.614-.11,1.304.242,1.849.338.525.819.937,1.434,1.103Z"/><path class="e" d="M99.722,5.629c-1.145,2.43-2.208,4.966-3.715,7.201-.138.205-.284.404-.429.605-.273.38.374-.459.077-.099-.078.094-.154.19-.232.284-.365.434-.752.856-1.172,1.236-.181.164-.379.367-.078.091-.125.115-.285.206-.429.298-.178.114-.668.497-.88.477.323-.133.363-.152.118-.058-.077.028-.154.055-.232.079-.157.051-.314.096-.474.136-.356.09-.717.153-1.08.204-1.248.173-2.039,1.831-1.676,2.952.443,1.37,1.615,1.862,2.952,1.676,6.363-.884,9-7.576,11.395-12.66.534-1.134.354-2.642-.861-3.284-1.066-.563-2.712-.351-3.284.861h0Z"/><path class="e" d="M121.918,84.487h12.484c1.255,0,2.458-1.104,2.4-2.4s-1.055-2.4-2.4-2.4h-12.484c-1.255,0-2.458,1.104-2.4,2.4s1.055,2.4,2.4,2.4h0Z"/><path class="e" d="M14.886,79.687H2.402c-1.255,0-2.458,1.104-2.4,2.4s1.055,2.4,2.4,2.4h12.484c1.255,0,2.458-1.104,2.4-2.4s-1.055-2.4-2.4-2.4h0Z"/><path class="d" d="M12.512,82.277c-2.193,0-4.386,0-6.579,0"/><path class="d" d="M125.789,82.277c2.193,0,4.386,0,6.579,0"/><path class="e" d="M114.009,116.392c.573.257,1.123.558,1.648.904.109.072.216.145.323.22-.002-.001.486.36.236.167-.254-.195.183.152.229.191.131.11.26.222.387.336.499.447.971.924,1.417,1.424.243.272.474.553.705.835.272.332-.05-.085.099.13.106.153.221.301.329.453.837,1.184,1.563,2.447,2.176,3.761.081.175.16.35.238.526.104.234-.082-.226.071.172.138.358.276.715.402,1.078.248.717.456,1.446.633,2.184.293,1.222,1.747,2.066,2.952,1.676,1.271-.411,1.991-1.643,1.676-2.952-.774-3.221-2.196-6.361-4.134-9.05-1.815-2.518-4.09-4.91-6.965-6.2-1.143-.513-2.634-.368-3.284.861-.554,1.048-.362,2.735.861,3.284h0Z"/><path class="e" d="M20.374,112.248c-2.877,1.291-5.147,3.682-6.965,6.2-1.94,2.687-3.36,5.83-4.134,9.05-.293,1.218.384,2.658,1.676,2.952,1.234.281,2.639-.37,2.952-1.676.177-.738.386-1.466.633-2.184.113-.326.233-.65.359-.971.052-.133.2-.484.067-.173.076-.177.155-.352.236-.527.623-1.352,1.365-2.65,2.224-3.866.086-.122.175-.243.262-.364.414-.573-.158.18.097-.132.231-.283.46-.566.702-.84.445-.504.914-.985,1.412-1.437.252-.229.512-.449.778-.661-.259.207-.105.081.071-.045.133-.095.267-.188.403-.278.525-.346,1.074-.647,1.648-.904,1.149-.516,1.511-2.275.861-3.284-.766-1.188-2.054-1.413-3.284-.861h0Z"/><path class="f" d="M32.148,35.884c-9.289,5.747-16.206,22.55-17.799,35.072-2.423,19.036-.934,36.351,9.505,52.56,9.417,14.622,27.432,21.992,44.548,21.992s35.131-7.37,44.548-21.992c10.439-16.209,11.927-33.524,9.505-52.56-1.594-12.522-8.511-29.325-17.799-35.072"/><path class="e" d="M66.002,31.045v112.415c0,3.089,4.8,3.094,4.8,0V31.045c0-3.089-4.8-3.094-4.8,0h0Z"/><path class="e" d="M30.937,33.811c-7.738,4.877-12.304,13.984-15.348,22.301-3.471,9.486-4.664,19.681-4.648,29.744.017,10.825,2.029,21.547,6.667,31.367,4.354,9.217,10.78,16.925,19.538,22.233,16.766,10.161,38.441,11.012,56.279,3.222,8.937-3.903,16.734-10.232,21.952-18.509,5.816-9.226,9.113-19.677,10.127-30.508.505-5.396.444-10.834.022-16.234-.389-4.974-1.003-9.934-2.263-14.768-2.333-8.947-6.27-18.311-12.768-25.057-1.384-1.437-2.939-2.728-4.627-3.792-2.621-1.652-5.032,2.5-2.423,4.145,3.112,1.962,5.584,4.98,7.591,8.102,2.415,3.756,4.316,7.833,5.805,12.037,3.155,8.909,4.237,18.342,4.223,27.762-.015,9.941-1.745,19.91-6.012,28.944-2.074,4.391-4.579,8.676-7.836,12.298-2.943,3.273-6.367,6.043-10.137,8.308-15.224,9.144-35.22,10.203-51.445,3.053-8.208-3.617-15.391-9.25-20.178-16.898-5.356-8.558-8.504-18.257-9.391-28.305-.446-5.05-.401-10.135-.033-15.188.334-4.588.878-9.139,2.005-13.605,2.078-8.236,5.545-16.966,11.45-23.236,1.2-1.274,2.425-2.357,3.875-3.271,2.607-1.643.201-5.798-2.423-4.145h0Z"/><path class="d" d="M51.878,19.634c-.575-2.091-.025-6.836,3.893-7.109,5.163.206,5.272,5.97,3.456,8.617-1.487,2.167-5.698,2.946-7.35-1.508Z"/><path class="d" d="M74.765,19.634c-.575-2.091-.025-6.836,3.893-7.109,5.163.206,5.272,5.97,3.456,8.617-1.487,2.167-5.698,2.946-7.35-1.508Z"/><path class="g" d="M68.4,5.502c-9.443,0-19.002,2.088-26.775,7.694-6.657,4.802-11.247,12.488-12.563,20.773-.402,2.529.748,5.11,2.946,6.278,2.47,1.312,21.543,3.681,36.393,3.681,16.744,0,33.923-2.369,36.393-3.681,2.198-1.168,3.348-3.749,2.946-6.278-1.316-8.285-5.905-15.971-12.563-20.773-7.774-5.607-17.396-7.694-26.778-7.694Z"/><path class="e" d="M119.645,34.196c2.18,2.717,4.406,6.588,4.056,10.203-.07.723-.285,1.431-.586,1.979-.287.52-.706,1.023-1.131,1.356-1.099.862-2.411,1.254-3.865,1.739-1.229.41-2.033,1.655-1.676,2.952.33,1.201,1.718,2.088,2.952,1.676,2.04-.681,4.052-1.42,5.743-2.783,1.922-1.549,2.99-3.835,3.289-6.254.643-5.204-2.244-10.347-5.388-14.263-.812-1.012-2.548-.846-3.394,0-1,1-.814,2.38,0,3.394h0Z"/><path class="e" d="M13.944,30.801c-3.139,3.912-6.039,9.064-5.388,14.263.303,2.419,1.364,4.705,3.289,6.254,1.692,1.362,3.702,2.102,5.743,2.783,1.229.41,2.622-.474,2.952-1.676.36-1.309-.442-2.54-1.676-2.952-1.507-.503-2.616-.785-3.911-1.774.197.151-.035-.036-.097-.093-.155-.142-.304-.288-.447-.441-.276-.294-.244-.266-.475-.667-.354-.615-.576-1.313-.653-2.099-.35-3.614,1.877-7.487,4.056-10.203.811-1.01.987-2.407,0-3.394-.839-.839-2.579-1.016-3.394,0h0Z"/><path class="e" d="M68.402,3.102c-14.919.049-30.465,5.538-37.904,19.317-3.006,5.568-6.825,15.186-.152,19.627,1.34.891,3.067,1.165,4.618,1.456,2.647.497,5.322.851,7.995,1.177,14.811,1.806,29.704,2.1,44.567.75,5.515-.501,11.31-.922,16.666-2.424,2.647-.742,4.644-2.621,5.567-5.232,1.155-3.269-.091-7.198-1.217-10.323-2.451-6.807-6.87-12.722-12.851-16.818-6.373-4.365-13.978-6.533-21.605-7.263-1.89-.181-3.785-.26-5.683-.266-3.089-.01-3.093,4.79,0,4.8,13.111.044,26.879,4.529,33.575,16.598,1.55,2.794,2.629,5.812,3.245,8.947.208,1.059.33,2.096-.125,3.118-.203.457-.522.923-.913,1.24-.044.036-.674.387-.674.409-.209.096-.109.054.302-.125-.073.028-.146.055-.219.08-4.266,1.117-8.619,1.697-13.004,2.161-13.757,1.455-27.545,1.504-41.315.225-4.822-.448-9.626-.908-14.355-1.947-.594-.13-1.17-.314-1.758-.463-.277-.07-.312-.271.202.099-.125-.09-.337-.172-.449-.245-.535-.347-.944-.849-1.205-1.434-.456-1.024-.334-2.058-.125-3.118.328-1.668.79-3.309,1.375-4.905,2.451-6.68,7.279-12.114,13.471-15.553,6.69-3.715,14.388-5.062,21.97-5.087,3.088-.01,3.094-4.81,0-4.8Z"/><path class="e" d="M89.755,79.93c-4.939,0-7.818-3.756-7.818-8.151,0-4.917,3.264-8.303,7.818-8.303,4.888,0,7.818,3.418,7.818,8.303,0,4.425-2.888,8.151-7.818,8.151Z"/><path class="e" d="M89.755,77.53c-.239-.003-.476-.02-.714-.027-.708-.02.406.117-.266-.031-.355-.078-.706-.154-1.052-.269.01.003-.627-.246-.3-.104.324.141-.277-.146-.271-.143-.178-.095-.352-.197-.522-.307-.103-.067-.561-.435-.157-.094-.252-.212-.493-.434-.717-.677-.059-.063-.461-.572-.127-.12-.118-.159-.229-.322-.334-.489-.177-.282-.326-.577-.474-.874.22.443.016.051-.026-.078-.075-.226-.154-.449-.217-.679-.091-.333-.161-.672-.215-1.013.084.529-.02-.442-.024-.629-.01-.459.011-.918.06-1.374-.012.106-.089.432.01-.026.062-.284.115-.567.194-.847.044-.158.393-1.077.183-.607.138-.308.294-.607.47-.895.104-.17.216-.332.33-.496-.264.381-.085.102-.011.022.288-.312.575-.611.9-.887.284-.241-.469.28.057-.033.168-.1.327-.212.497-.308.113-.064.233-.119.346-.184.541-.312-.445.125.154-.072.322-.106.639-.213.969-.288.202-.046.406-.086.612-.115-.546.077.089.009.209.003.408-.02.814-.006,1.221.02.131.008.605.091.111.003.205.036.409.074.612.123.326.078.641.184.958.295-.536-.188.041.024.135.073.169.086.335.18.497.28.16.099.312.208.467.316-.406-.284-.132-.106-.05-.024.267.264.53.518.777.802-.059-.068-.266-.402-.035-.037.101.161.21.315.307.479.065.11.127.222.186.335.06.115.116.231.17.348-.111-.275-.116-.284-.015-.029.108.321.217.636.299.965.037.149.203,1.133.14.609.053.442.077.889.076,1.334,0,.144-.003.289-.009.433-.005.108-.109.996-.018.42-.065.41-.154.816-.273,1.213-.039.13-.081.26-.126.388-.045.127-.092.254-.143.379.111-.265.109-.273-.005-.024-.199.347-.388.686-.607,1.022-.34.521.327-.308-.111.133-.139.139-.265.29-.407.427s-.29.267-.442.393c.413-.345-.09.049-.157.093-.17.109-.344.211-.522.306-.061.033-.666.293-.174.101-.399.156-.81.278-1.229.367-.059.013-.771.102-.251.052-.314.03-.628.043-.943.047-1.297.016-2.4,1.092-2.4,2.4,0,1.289,1.098,2.416,2.4,2.4,4.552-.057,8.43-2.806,9.747-7.208,1.156-3.862.284-8.808-2.84-11.544-3.251-2.847-8.297-3.31-12.056-1.18-3.973,2.251-5.536,6.952-4.9,11.294.328,2.24,1.396,4.454,3.076,5.997,1.92,1.764,4.385,2.608,6.974,2.64,1.297.016,2.4-1.115,2.4-2.4,0-1.315-1.099-2.384-2.4-2.4Z"/><path class="e" d="M96.499,118.394c-4.939,0-7.818-3.756-7.818-8.151,0-4.917,3.264-8.303,7.818-8.303,4.888,0,7.818,3.418,7.818,8.303,0,4.425-2.888,8.151-7.818,8.151Z"/><path class="e" d="M96.499,115.994c-.239-.003-.476-.02-.714-.027-.708-.02.406.117-.266-.031-.355-.078-.706-.154-1.052-.269.01.003-.627-.246-.3-.104.324.141-.277-.146-.271-.143-.178-.095-.352-.197-.522-.307-.103-.067-.561-.435-.157-.094-.252-.212-.493-.434-.717-.677-.059-.063-.461-.572-.127-.12-.118-.159-.229-.322-.334-.489-.177-.282-.326-.577-.474-.874.22.443.016.051-.026-.078-.075-.226-.154-.449-.217-.679-.091-.333-.161-.672-.215-1.013.084.529-.02-.442-.024-.629-.01-.459.011-.918.06-1.374-.012.106-.089.432.01-.026.062-.284.115-.567.194-.847.044-.158.393-1.077.183-.607.138-.308.294-.607.47-.895.104-.17.216-.332.33-.496-.264.381-.085.102-.011.022.288-.312.575-.611.9-.887.284-.241-.469.28.057-.033.168-.1.327-.212.497-.308.113-.064.233-.119.346-.184.541-.312-.445.125.154-.072.322-.106.639-.213.969-.288.202-.046.406-.086.612-.115-.546.077.089.009.209.003.408-.02.814-.006,1.221.02.131.008.605.091.111.003.205.036.409.074.612.123.326.078.641.184.958.295-.536-.188.041.024.135.073.169.086.335.18.497.28.16.099.312.208.467.316-.406-.284-.132-.106-.05-.024.267.264.53.518.777.802-.059-.068-.266-.402-.035-.037.101.161.21.315.307.479.065.11.127.222.186.335.06.115.116.231.17.348-.111-.275-.116-.284-.015-.029.108.321.217.636.299.965.037.149.203,1.133.14.609.053.442.077.889.076,1.334,0,.144-.003.289-.009.433-.005.108-.109.996-.018.42-.065.41-.154.816-.273,1.213-.039.13-.081.26-.126.388-.045.127-.092.254-.143.379.111-.265.109-.273-.005-.024-.199.347-.388.686-.607,1.022-.34.521.327-.308-.111.133-.139.139-.265.29-.407.427s-.29.267-.442.393c.413-.345-.09.049-.157.093-.17.109-.344.211-.522.306-.061.033-.666.293-.174.101-.399.156-.81.278-1.229.367-.059.013-.771.102-.251.052-.314.03-.628.043-.943.047-1.297.016-2.4,1.092-2.4,2.4,0,1.289,1.098,2.416,2.4,2.4,4.552-.057,8.43-2.806,9.747-7.208,1.156-3.862.284-8.808-2.84-11.544-3.251-2.847-8.297-3.31-12.056-1.18-3.973,2.251-5.536,6.952-4.9,11.294.328,2.24,1.396,4.454,3.076,5.997,1.92,1.764,4.385,2.608,6.974,2.64,1.297.016,2.4-1.115,2.4-2.4,0-1.315-1.099-2.384-2.4-2.4Z"/><path class="e" d="M43.233,115.812c-4.164,0-6.591-3.166-6.591-6.871,0-4.145,2.752-7,6.591-7,4.121,0,6.591,2.881,6.591,7,0,3.73-2.435,6.871-6.591,6.871Z"/><path class="e" d="M43.233,113.412c-.201-.003-.401-.019-.602-.023-.63-.012.474.127-.124-.013-.298-.069-.595-.13-.887-.226-.035-.012-.56-.237-.208-.069.354.169-.155-.086-.183-.101-.15-.08-.297-.166-.44-.259l-.14-.094c-.212-.153-.184-.129.084.073-.201-.052-.462-.416-.604-.57-.134-.145-.487-.354-.048-.025-.109-.082-.21-.298-.282-.412-.101-.161-.419-.552-.399-.737-.033.312.117.339.016.024-.062-.191-.13-.379-.183-.573-.062-.225-.217-.613-.182-.854-.081.555.022.142.008-.07-.008-.12-.013-.24-.016-.361-.009-.388.017-.772.051-1.159-.007.084-.097.513-.005.078.051-.239.097-.478.163-.714.048-.172.398-1.015.116-.422.122-.257.247-.511.396-.755.055-.089.183-.372.278-.418-.192.093-.263.303-.069.095.242-.259.521-.489.759-.748.219-.239-.479.299-.028.031.141-.084.275-.179.419-.26.096-.054.197-.1.292-.155.483-.281-.496.15.04-.023.272-.088.538-.179.817-.243.157-.036.353-.099.516-.097-.633-.009-.081.023.076.016.344-.017.686-.004,1.029.017.242.015.452-.102-.007-.011.13-.026.387.073.516.104.166.04.725.117.807.249l-.269-.117c.099.044.197.091.293.14.143.073.283.152.419.236.056.034.383.203.393.266-.004-.028-.373-.33-.118-.079.08.078.693.575.655.676-.005.013-.34-.501-.089-.107.086.135.177.265.258.404.055.093.107.187.157.283.05.097.098.194.144.293-.131-.322-.148-.36-.051-.114.09.271.183.536.252.814.043.171.073.344.111.516.096.44.012-.043-.006-.103.1.334.065.778.064,1.124,0,.122-.003.243-.008.365-.005.12-.013.241-.023.361-.029.274-.022.238.022-.106.037.3-.145.738-.23,1.023-.033.11-.068.219-.106.327-.038.107-.078.214-.121.319.133-.312.144-.349.034-.11-.168.292-.329.578-.512.862-.301.468.358-.357-.035.036-.117.117-.223.245-.343.36-.084.081-.259.299-.373.332.246-.185.296-.226.152-.123-.068.049-.138.096-.209.142-.143.092-.29.178-.44.258-.128.068-.618.232-.057.047-.345.113-.68.234-1.036.309-.123.026-.721.074-.112.031-.266.019-.529.036-.795.04-1.255.016-2.459,1.093-2.4,2.4.058,1.287,1.055,2.417,2.4,2.4,4.007-.05,7.422-2.48,8.58-6.353,1.01-3.377.239-7.707-2.491-10.098-2.87-2.514-7.297-2.936-10.62-1.053-3.515,1.991-4.855,6.116-4.304,9.947.28,1.945,1.234,3.885,2.69,5.222,1.694,1.555,3.861,2.307,6.145,2.336,1.256.016,2.458-1.115,2.4-2.4-.059-1.314-1.054-2.383-2.4-2.4Z"/><path class="e" d="M43.233,82.081c-6.231,0-9.862-4.738-9.862-10.282,0-6.203,4.118-10.475,9.863-10.475,6.167,0,9.863,4.312,9.863,10.475,0,5.582-3.644,10.282-9.863,10.282Z"/><path class="e" d="M43.233,79.681c-3.602-.045-6.227-2.059-7.134-5.372-.884-3.227-.1-6.985,2.552-9.129.933-.754,2.667-1.376,4.032-1.443,1.874-.091,3.325.192,4.773,1.088,1.073.664,2.129,1.98,2.567,3.139.242.641.532,1.821.577,2.153.075.555.097,1.123.096,1.683,0,.182-.004.364-.012.546-.005.104-.083.972-.045.697-.125.899-.506,2.127-.753,2.617-.499.99-.816,1.445-1.517,2.123-.452.437-1.425,1.085-1.912,1.288-1.149.479-2.092.597-3.224.611-3.086.038-3.095,4.838,0,4.8,5.461-.068,10.11-3.347,11.691-8.633,1.398-4.672.359-10.641-3.421-13.952-3.887-3.404-9.963-3.932-14.449-1.39-4.752,2.692-6.65,8.338-5.893,13.539.397,2.728,1.672,5.409,3.719,7.289,2.299,2.111,5.258,3.108,8.354,3.147s3.092-4.761,0-4.8Z"/></g></svg>