<svg id="b" xmlns="http://www.w3.org/2000/svg" width="272.314" height="156.571" viewBox="0 0 272.314 156.571" style="color: initial !important;"><defs><style>.d{fill:#ffffff;}.e{fill:none;}.f{fill:#a98a75;}.g{fill:#211715;}</style></defs><g id="c"><path class="f" d="M103.44,49.261c27.68-16.43,63.73-14.19,89.54,5.57,15.93,12.21,27.57,29.95,42.16,44.02,9.154,8.83,20.804,16.494,32.682,15.595,1.739-.132,2.774,1.956,1.608,3.252-3.122,3.473-8.073,5.156-12.65,5.922-11.89,2-24.25.57-35.5-4.1-6.29-2.6-13.16-6.21-19.56-6.06.447,3.357-.055,6.815-1.046,10.066-2.449,8.036-7.118,15.54-10.656,23.146-1.992,4.283-4.229,7.411-9.318,7.458-2.168.02-4.577.087-6.76-.05-1.846-.027-3.773-.479-5.129-1.731-1.078-.996-1.704-2.453-1.728-3.92-.023-1.467.546-2.929,1.525-4.022.438-.489.96-.896,1.57-1.147.263-.108,1.012-.13,1.145-.44,1.073-2.494,2.53-6.306,3.01-8.595.251-1.197.643-3.016.304-4.253-.252-.922-.747-1.91-1.322-2.704-22.711,3.772-46.806,2.758-68.821-2.845-.997,4.275-2.343,8.475-3.983,12.553-1.14,2.836-2.42,5.617-3.825,8.332-1.21,2.339-2.554,4.753-4.685,6.382-.469.359-.97.674-1.5.936-3.316,1.635-7.176,1.37-10.758,1.188-1.671.005-3.41-.413-4.617-1.639-.96-.975-1.502-2.416-1.499-3.879s.544-2.929,1.449-4.036c.682-.834,1.673-.878,2.353-1.591.156-.163.252-.365.334-.575,1.441-3.678,4.341-9.483,2.645-13.479-.748-1.762-2.178-3.112-3.136-4.749-.938-1.604-1.698-3.325-2.283-5.104-4.878-2.31-9.644-4.634-13.37-8.423-3.1-3.143-5.43-6.952-6.65-11.048"/><path class="g" d="M104.16,126.814c16.967,4.255,34.633,5.842,52.089,4.786,5.044-.305,10.068-.851,15.067-1.586,1.284-.189,1.989-1.813,1.676-2.952-.378-1.376-1.665-1.865-2.952-1.676-16.697,2.454-33.895,2.346-50.559-.318-4.722-.755-9.407-1.719-14.045-2.882-2.997-.752-4.275,3.876-1.276,4.629h0Z"/><path class="g" d="M199.188,112.791c1.352,6.907-1.932,13.971-4.895,20.025-1.61,3.29-3.346,6.516-4.974,9.796-1.164,2.345-2.092,5.088-3.871,7.05s-3.898,2.059-6.525,2.089c-1.663.019-3.322.011-4.983-.072-1.303-.065-2.808-.247-3.714-1.311-.772-.907-.938-2.166-.509-3.265.193-.495.539-1.084.984-1.401.635-.452,1.528-.419,2.176-1.032.972-.919,1.389-2.688,1.866-3.919.554-1.432,1.081-2.881,1.512-4.356.991-3.396,1.416-6.821-.595-9.943-.869-1.349-2.096-2.39-2.973-3.737-1.092-1.677-1.946-3.49-2.621-5.371-.438-1.219-1.635-2.038-2.952-1.676-1.179.324-2.116,1.726-1.676,2.952,1.249,3.479,2.91,6.799,5.466,9.503,1.081,1.144,1.607,2.434,1.403,3.989-.172,1.31-.546,2.614-.947,3.869-.513,1.603-1.108,3.181-1.741,4.74-.151.372-.719,1.202.028.474.784-.764-.309-.183-.679-.009-.83.39-1.589.977-2.184,1.676-2.647,3.112-2.791,7.624-.081,10.748,2.573,2.966,6.792,2.949,10.395,2.953,3.313.004,6.852.184,9.72-1.774,2.479-1.692,4.018-4.244,5.274-6.907,1.654-3.506,3.469-6.929,5.22-10.387,4.038-7.972,8.299-16.819,6.505-25.983-.249-1.273-1.77-2.001-2.952-1.676-1.329.365-1.926,1.676-1.676,2.952h0Z"/><path class="g" d="M104.652,51.333c13.892-8.198,30.117-11.692,46.165-10.318s31.555,7.848,43.885,18.268c13.713,11.59,24.026,26.504,36.633,39.187,6.407,6.446,13.601,12.349,22.079,15.827,3.987,1.636,8.282,2.638,12.608,2.619.321-.001,1.329.118,1.599-.057.521-.338-.07.159.015-.159-.016.059-.124-.426-.102-.384-.066-.127.666-.698-.06-.037-.233.212-.444.447-.677.66-1.338,1.219-3.004,2.14-4.688,2.789-4.033,1.555-8.444,2.083-12.734,2.294-4.667.23-9.372-.031-13.973-.857-4.767-.855-9.424-2.251-13.888-4.126-4.323-1.815-8.576-3.912-13.131-5.097-2.17-.564-4.42-.906-6.665-.881-3.087.034-3.095,4.834,0,4.8,4.688-.052,9.197,1.8,13.435,3.623,4.629,1.991,9.216,3.975,14.108,5.244,9.586,2.485,19.932,2.968,29.65.926,4.248-.893,8.561-2.613,11.692-5.71,1.546-1.529,2.325-3.725,1.12-5.734-1.376-2.295-3.575-2.085-5.903-2.092-8.941-.024-17.283-4.974-23.987-10.496-7.245-5.967-13.451-13.149-19.572-20.228-6.065-7.015-12.043-14.136-18.727-20.578-6.444-6.21-13.576-11.687-21.57-15.754-7.616-3.874-15.817-6.599-24.251-7.981-16.964-2.779-34.533-.407-50.007,7.15-1.866.911-3.691,1.903-5.479,2.958-2.659,1.569-.246,5.72,2.423,4.145h0Z"/><path class="f" d="M61.464,2.415c-5.093.284-9.966,2.572-12.87,7.044l-6.95,10.033-8.193,21.159-8.187,6.343C5.228,60.762,3.784,72.391,2.909,75.317c-.509,1.701-.502,4.554-.375,7.125.1,2.019.761,3.572,2.407,5.1.934.867,2.448,1.529,3.346,1.497,2.837-.101,4.929-.316,7.529-.922,2.931-.683,5.566-2.172,8.744-2.127.789.011,1.698,1.141,1.727,2.151.066,2.328-1.043,4.008-2.465,4.936-1.609,1.05-3.613,1.37-5.347,2.198-.453.216-.93.598-.774,1.344.091.438.383.868.677,1.239.861,1.084,1.847,2.128,2.869,2.728,3.572,2.1,13.561,3.359,25.019.404,9.364-.883,27.719-6.619,39.745-20.826,10.138-.318,17.474-2.917,22.821-10.432,4.365-6.136,6.061-14.105,4.571-21.487-.203-1.005-.369-1.934-.646-3.031.111-1.111.134-2.067.186-3.103.501-10.037-5.464-20.731-13.485-25.182-4.09-6.512-11.37-12.315-19.229-13.396-2.669-.367-6.042-.25-8.667,1-3.105-1.586-6.651-2.311-10.097-2.119Z"/><path class="d" d="M27.388,27.909c-.324-4.895-.064-9.746,2.941-13.982,1.202-1.695,3.056-3.399,5.248-3.505,1.842-.09,2.962,1.195,3.138,2.959.11,1.105-.064,2.216-.096,3.325-.104,3.65.975,7.19,3.452,9.92,3.669,4.045,10.37,5.012,9.491,11.943-.495,3.906-3.745,7.719-7.719,8.315-8.877,1.331-15.578-9.139-16.283-16.836-.065-.712-.125-1.426-.172-2.138Z"/><path class="g" d="M29.788,27.909c-.21-3.348-.22-6.798,1.045-9.964.575-1.441,1.434-2.835,2.556-3.913.609-.586,2.101-1.612,2.709-1.117.058.048.222.525.253.859.09.963-.105,1.967-.132,2.932-.049,1.732.155,3.517.615,5.188.843,3.065,2.611,5.87,5.093,7.864,1.805,1.45,4.066,2.639,5.603,4.058.743.686,1.272,1.339,1.512,2.162.296,1.013.253,2.178-.08,3.324-.718,2.478-2.811,4.737-5.408,5.208-2.259.409-4.452-.359-6.34-1.643-2.351-1.6-4.084-4.063-5.344-6.573-1.379-2.747-1.881-5.503-2.082-8.384-.09-1.293-1.039-2.4-2.4-2.4-1.229,0-2.49,1.1-2.4,2.4.248,3.566.885,6.816,2.386,10.077,1.37,2.977,3.382,5.829,5.935,7.907,2.593,2.109,5.711,3.544,9.11,3.504,4.004-.047,7.474-2.192,9.651-5.502,1.987-3.021,2.635-7.051,1.132-10.4-1.217-2.712-3.797-4.36-6.18-5.949-2.638-1.759-4.756-3.827-5.613-7.118-.962-3.697,1.068-8.565-2.394-11.293-4.223-3.329-9.338,1.064-11.473,4.685-2.512,4.261-2.858,9.264-2.555,14.091.192,3.068,4.994,3.09,4.8,0Z"/><path class="g" d="M48.417,103.124c6.437-.889,12.705-3.021,18.572-5.775,7.476-3.51,14.384-8.392,19.908-14.554,2.057-2.294-1.327-5.7-3.394-3.394-9.21,10.276-22.696,17.207-36.362,19.095-1.285.178-1.987,1.82-1.676,2.952.381,1.385,1.663,1.854,2.952,1.676h0Z"/><path class="g" d="M33.461,66.244c-.735-2.673-.032-8.74,4.978-9.089,6.601.264,6.741,7.633,4.419,11.017-1.901,2.771-7.285,3.767-9.397-1.928Z"/><path class="e" d="M61.142,18.212c-.612-1.708-.027-5.584,4.143-5.807,5.494.168,5.61,4.877,3.678,7.039-1.582,1.77-6.063,2.407-7.821-1.232Z"/><path class="e" d="M80.753,26.129c-.612-1.708-.027-5.584,4.143-5.807,5.494.168,5.61,4.877,3.678,7.039-1.582,1.77-6.063,2.407-7.821-1.232Z"/><path class="e" d="M92.503,42.268c-.612-1.708-.027-5.584,4.143-5.807,5.494.168,5.61,4.877,3.678,7.039-1.582,1.77-6.063,2.407-7.821-1.232Z"/><path class="e" d="M93.503,64.379c-.612-1.708-.027-5.584,4.143-5.807,5.494.168,5.61,4.877,3.678,7.039-1.582,1.77-6.063,2.407-7.821-1.232Z"/><path class="g" d="M91.949,82.055c5.225-.735,10.151-2.55,14.252-5.928,4.371-3.601,7.459-8.822,8.982-14.24.795-2.828,1.193-5.814,1.144-8.752-.024-1.446-.173-2.887-.396-4.316-.233-1.495-.793-3.016-.7-4.526.352-5.684-.457-11.013-2.834-16.217-2.466-5.397-6.533-10.278-11.729-13.221l.861.861c-6.207-9.741-19.425-18.559-31.179-13.257h2.423c-6.391-3.193-14.392-3.473-20.62.311-4.193,2.547-6.662,6.965-9.387,10.898l-3.193,4.61c-.738,1.066-.197,2.665.861,3.284,1.193.698,2.543.207,3.284-.861l4.175-6.027c1.482-2.14,2.871-4.59,4.801-6.36,3.186-2.922,7.761-3.903,11.969-3.419,1.009.116,2.011.35,2.983.64,1.124.336,2.165,1.004,3.278,1.31,1.287.354,3.054-.737,4.366-.945,1.372-.218,2.814-.199,4.194-.056,5.2.539,10.033,3.507,13.693,7.109.925.91,1.808,1.872,2.609,2.893.889,1.133,1.513,2.552,2.757,3.322,2.063,1.277,3.852,2.769,5.452,4.601,3.273,3.747,5.427,8.491,6.274,13.379.199,1.145.286,2.309.301,3.471.019,1.529-.255,3.074-.214,4.594.04,1.465.635,3.026.882,4.477.239,1.404.31,2.843.291,4.266-.08,6.086-2.359,12.227-6.525,16.704-3.823,4.108-8.868,5.998-14.331,6.766-1.285.181-1.988,1.818-1.676,2.952.38,1.382,1.664,1.858,2.952,1.676h0Z"/><path class="g" d="M52.656,99.929c1.405,4.61,3.977,8.812,7.381,12.221,3.447,3.452,7.759,5.805,12.112,7.907,1.167.563,2.593.319,3.284-.861.615-1.051.311-2.718-.861-3.284-3.882-1.874-7.801-3.891-10.913-6.931-2.94-2.872-5.181-6.412-6.374-10.328-.898-2.947-5.533-1.69-4.629,1.276h0Z"/><path class="g" d="M103.296,118.068c-1.061,6.633-2.933,13.128-5.529,19.323-1.257,2.999-2.648,6.001-4.295,8.808-1.513,2.58-3.387,4.421-6.389,5.059-2.562.544-5.657.463-8.246.115-2.612-.351-3.585-3.134-2.144-5.264.519-.767,2.088-1.164,2.802-2.22.765-1.132,1.202-2.661,1.714-3.931,1.035-2.567,1.959-5.225,2.102-8.014.08-1.561-.189-3.114-.83-4.539-.678-1.507-1.785-2.705-2.7-4.063-1.98-2.938-3.036-6.444-3.621-9.908-.216-1.279-1.794-1.995-2.952-1.676-1.355.372-1.893,1.67-1.676,2.952.587,3.481,1.712,6.911,3.453,9.992.744,1.317,1.747,2.437,2.57,3.699.784,1.203,1.041,2.291.943,3.72-.189,2.772-1.476,5.489-2.519,8.027-.108.263-.201.679-.37.906-.149.2.509-.258-.259.142-.609.317-1.189.62-1.702,1.089-1.416,1.293-2.17,3.354-2.366,5.215-.366,3.475,1.548,6.783,4.801,8.067,1.446.57,2.96.614,4.492.69,1.828.091,3.663.163,5.488-.026,3.458-.357,6.717-1.574,9.097-4.199,2.334-2.575,3.846-5.859,5.306-8.976,3.532-7.54,6.142-15.483,7.458-23.712.204-1.278-.33-2.582-1.676-2.952-1.143-.314-2.746.389-2.952,1.676h0Z"/><path class="g" d="M24.052,44.922c-7.113,4.914-13.877,10.699-18.577,18.043-2.198,3.433-3.688,7.146-4.707,11.076-.317,1.221-.551,2.435-.641,3.699-.169,2.37-.287,5.155.465,7.438.716,2.174,2.308,4.179,4.329,5.277,2.243,1.218,4.562,1.01,7.018.734,2.484-.279,4.881-.781,7.249-1.579,1.094-.369,2.185-.751,3.313-1.003.297-.066,1.178-.067,1.416-.204.312-.18.167.084-.02-.148.138.171.013-.384-.011.087-.258,4.908-7.562,2.838-8.529,7.294-.61,2.813,2.632,5.881,4.841,7.114,1.534.857,3.295,1.348,5.01,1.68,5.468,1.058,11.072.798,16.548-.053,1.282-.199,1.991-1.805,1.676-2.952-.376-1.368-1.667-1.876-2.952-1.676-4.31.67-8.887.906-13.21.194-.796-.131-1.589-.293-2.369-.501-.341-.091-.681-.19-1.016-.302-.124-.041-.922-.341-.527-.175-.647-.273-1.232-.627-1.748-1.106-.442-.41-.876-.863-1.244-1.341-.068-.088-.238-.416-.331-.468-.847,1.229-1.001,1.681-.462,1.356.066-.039.134-.074.205-.104,2.131-.632,4.522-1.422,6.228-2.889,1.664-1.431,2.535-3.513,2.668-5.676.152-2.461-1.522-4.991-4.115-5.15-2.253-.138-4.55.685-6.647,1.392-2.077.7-4.192,1.231-6.377,1.451-2.02.203-3.685.667-5.194-.875-1.372-1.401-1.432-2.986-1.469-4.856-.033-1.681-.022-3.343.416-4.972.315-1.171.597-2.347.981-3.499.124-.374.256-.745.395-1.113.08-.214.165-.425.249-.638.249-.633-.107.203.186-.438.467-1.021.965-2.024,1.521-3.001,4.2-7.374,10.898-13.168,17.856-17.975,1.065-.736,1.55-2.105.861-3.284-.617-1.055-2.212-1.601-3.284-.861h0Z"/><path class="g" d="M66.91,19.178c.113-.487.267-.962.46-1.423l-.242.573c.291-.68.662-1.317,1.11-1.905l-.375.486c.292-.377.611-.728.959-1.053.44-.412.703-1.103.703-1.697,0-.589-.261-1.292-.703-1.697-.457-.42-1.058-.732-1.697-.703-.649.029-1.217.254-1.697.703-1.537,1.438-2.67,3.39-3.145,5.441-.144.622-.085,1.29.242,1.849.291.498.862.973,1.434,1.103.614.14,1.304.11,1.849-.242.514-.331.961-.822,1.103-1.434h0Z"/><path class="g" d="M83.842,28.64c1.577-1.167,3.285-2.143,5.09-2.911l-.573.242c.187-.079.374-.155.563-.23.602-.238,1.096-.524,1.434-1.103.301-.514.429-1.273.242-1.849-.188-.581-.548-1.141-1.103-1.434-.535-.283-1.261-.475-1.849-.242-2.214.877-4.31,1.965-6.227,3.383-.52.385-.925.787-1.103,1.434-.158.574-.087,1.339.242,1.849.33.512.822.964,1.434,1.103.59.134,1.34.135,1.849-.242h0Z"/><path class="g" d="M99.605,37.949c-2.34.247-4.666.623-6.955,1.171-1.222.292-2.066,1.748-1.676,2.952.412,1.272,1.643,1.99,2.952,1.676,1.6-.383,3.217-.686,4.848-.909l-.638.086c.489-.066.979-.124,1.47-.176.654-.069,1.216-.222,1.697-.703.416-.416.73-1.099.703-1.697-.028-.621-.232-1.264-.703-1.697-.44-.404-1.076-.769-1.697-.703h0Z"/><path class="g" d="M101.492,59.663c-1.287-.202-2.582-.345-3.886-.348s-2.597.134-3.888.328c-.554.083-1.165.642-1.434,1.103-.301.514-.429,1.273-.242,1.849.188.581.548,1.141,1.103,1.434l.573.242c.425.114.851.114,1.276,0,.124-.019.248-.037.373-.054l-.638.086c1.87-.247,3.759-.246,5.629,0l-.638-.086c.166.023.331.047.496.073.659.103,1.251.108,1.849-.242.498-.291.973-.862,1.103-1.434.14-.614.11-1.304-.242-1.849-.317-.491-.831-1.008-1.434-1.103h0Z"/></g></svg>