<svg id="b" xmlns="http://www.w3.org/2000/svg" width="306.786" height="140.858" viewBox="0 0 306.786 140.858" style="color: initial !important;"><defs><style>.d{fill:#74c66d;}.e{fill:#211715;}.f{fill:#febe69;}</style></defs><g id="c"><path class="f" d="M195.409,47.201c-.886-.544-1.47-1.469-1.568-2.504-.403-4.245-.621-9.764,1.375-12.69,2.875-4.248,8.12-5.76,13.108-6.669.044-.008.08-.013.124-.018.408-.043,2.83-.295,4.809-.47,1.455-.129,2.823.715,3.348,2.078.748,1.939,1.561,4.343,1.561,4.343,1.498,4.866,2.587,10.233.13,14.762-1.693,3.142-6.74,5.494-10.696,7.089-.976.394-2.077.295-2.973-.256l-9.22-5.665Z"/><path class="e" d="M196.621,45.129c-.762-.524-.535-2.23-.579-3.024-.091-1.66-.127-3.343.047-4.999.271-2.583,1.278-4.57,3.407-6.107,2.445-1.765,5.457-2.55,8.369-3.137.365-.074.733-.134,1.098-.21-.84.175-.245.038-.047.019.511-.047,1.021-.104,1.532-.155.803-.08,1.606-.168,2.41-.231.492-.038.96-.142,1.348.217.433.402.589,1.396.781,1.929.223.618.442,1.238.656,1.86.444,1.284.81,2.597,1.115,3.92.691,2.996,1.042,6.368-.336,9.23-1.168,2.428-3.912,3.797-6.226,4.932-.693.34-1.396.662-2.105.967-.488.21-1.091.582-1.621.618-.446.031-.848-.3-1.216-.527-2.877-1.768-5.755-3.536-8.632-5.304-2.639-1.622-5.053,2.529-2.423,4.145,2.986,1.835,5.953,3.706,8.96,5.505,1.128.675,2.367,1.062,3.694.947,1.912-.166,3.882-1.294,5.591-2.122,3.183-1.541,6.648-3.609,8.214-6.931,1.905-4.04,1.713-8.474.729-12.737-.336-1.458-.757-2.893-1.249-4.305-.618-1.772-1.105-3.89-2.374-5.318-1.461-1.644-3.444-1.965-5.52-1.77-1.515.142-3.054.237-4.557.481-3.548.576-7.295,1.623-10.316,3.628-1.76,1.168-3.397,2.682-4.464,4.525-1.043,1.802-1.421,3.884-1.619,5.93s-.125,4.097.028,6.135c.19,2.537.678,4.518,2.881,6.033,2.552,1.754,4.955-2.404,2.423-4.145Z"/><path class="f" d="M127.73,32.876c-.906.048-1.778-.328-2.362-1.022-2.871-3.41-6.444-8.114-6.458-11.865-.039-5.344,3.587-9.733,7.334-13.452,0,0,2.381-2.035,4.162-3.5,1.006-.828,2.432-.888,3.512-.158,1.831,1.237,4.178,2.993,4.178,2.993,4.14,3.279,8.224,7.227,8.786,12.542.407,3.756-2.656,8.863-5.127,12.573-.508.763-1.344,1.234-2.259,1.28-2.807.141-8.97.463-11.765.609Z"/><path class="f" d="M161.463,34.941c-1.052-.294-1.909-1.059-2.307-2.076-1.611-4.116-3.396-9.545-2.241-13.028,1.663-5.078,6.496-8.087,11.231-10.422,0,0,2.334-.942,4.37-1.73,1.626-.629,3.473-.104,4.516,1.294,1.239,1.659,2.562,3.574,2.562,3.574,2.883,4.425,5.499,9.467,4.341,14.685-.791,3.61-5.14,7.389-8.626,10.108-.872.68-2.012.898-3.076.601l-10.769-3.007Z"/><path class="f" d="M97.351,42.658c-1.078.5-2.33.472-3.375-.092-3.578-1.929-7.941-4.636-9.197-7.722-1.888-4.591-.288-9.633,1.649-14.138,0,0,1.322-2.535,2.344-4.411.594-1.091,1.832-1.657,3.046-1.395,2.001.431,4.591,1.118,4.591,1.118,4.706,1.388,9.596,3.372,11.926,7.758,1.579,2.953.863,8.062.063,12.046-.238,1.187-1.025,2.187-2.123,2.697l-8.925,4.14Z"/><path class="e" d="M127.73,30.476c-.87-.012-1.871-1.764-2.388-2.439-.949-1.237-1.844-2.53-2.606-3.891-1.283-2.291-1.764-4.421-1.021-6.985,1.413-4.878,5.607-8.443,9.362-11.576,1.039-.867,1.121-.992,2.256-.206,1.093.756,2.169,1.537,3.236,2.329.461.343,1.252,1.001,2.075,1.731,1.113.987,2.189,2.033,3.13,3.188,1.506,1.847,2.842,4.298,2.74,6.752-.114,2.741-1.763,5.463-3.141,7.746-.452.75-1.09,2.356-1.878,2.741-.361.177-1.136.057-1.554.079-.689.035-1.378.071-2.067.106-2.715.14-5.429.282-8.144.424-3.073.161-3.092,4.962,0,4.8,2.882-.151,5.764-.302,8.646-.45,1.378-.071,2.915.016,4.26-.319,1.97-.491,2.999-1.983,4.03-3.593,1.912-2.987,3.89-6.331,4.462-9.883.575-3.572-.605-7.172-2.658-10.097-1.968-2.803-4.522-5.142-7.247-7.196-2.518-1.897-5.418-4.684-8.808-3.419-1.682.628-3.098,2.173-4.454,3.319-.889.752-1.726,1.495-2.532,2.338-2.555,2.674-4.867,5.655-6.108,9.177-1.403,3.979-.76,7.802,1.269,11.416,1.064,1.895,2.38,3.638,3.73,5.336,1.473,1.852,2.87,3.337,5.409,3.371,3.09.042,3.091-4.758,0-4.8Z"/><path class="e" d="M162.101,32.626c-1.031-.346-1.284-2.104-1.593-3.001-.577-1.674-1.091-3.385-1.389-5.133-.472-2.77.171-5.167,2.012-7.309,1.959-2.28,4.592-3.836,7.234-5.197.013-.007,1.088-.578.445-.268.119-.057.249-.096.37-.149.444-.193.901-.361,1.351-.54,1.051-.418,2.767-1.544,3.911-1.13.603.218.96.885,1.312,1.37.447.616.889,1.237,1.326,1.86.828,1.18,1.588,2.409,2.286,3.671,1.607,2.904,3.043,6.424,2.256,9.799-.647,2.775-3.168,4.962-5.224,6.762-.797.698-2.207,2.398-3.358,2.312-.346-.026-.728-.197-1.057-.289-3.294-.92-6.588-1.839-9.882-2.759-2.98-.832-4.252,3.798-1.276,4.629,3.418.954,6.836,1.909,10.253,2.863,1.059.296,2.103.425,3.203.237,2.086-.356,3.807-2.12,5.354-3.462,2.849-2.472,5.985-5.588,6.702-9.45.826-4.449-.517-8.768-2.614-12.672-.801-1.492-1.701-2.928-2.676-4.312-1.146-1.626-2.241-3.622-4.028-4.615-3.282-1.824-6.997.076-10.086,1.5-3.292,1.519-6.648,3.59-9.077,6.313-1.439,1.613-2.603,3.473-3.256,5.543s-.487,4.27-.142,6.375c.363,2.215,1.056,4.369,1.829,6.471.901,2.45,1.919,4.331,4.538,5.21,2.935.985,4.194-3.65,1.276-4.629Z"/><path class="e" d="M96.713,40.343c-1.397.563-2.325-.265-3.532-.977-1.288-.76-2.583-1.558-3.726-2.527-.893-.758-1.804-1.591-2.342-2.65-.694-1.367-.833-2.978-.762-4.485.132-2.77,1.122-5.758,2.374-8.217.571-1.121,1.173-2.229,1.77-3.336.116-.214.271-.75.536-.874.457-.213,1.5.241,1.988.359,4.479,1.08,10.115,2.425,12.778,6.557,1.462,2.267,1.186,5.223.845,7.788-.144,1.083-.192,2.656-.671,3.639-.264.542-.735.742-1.242.982-2.852,1.35-5.726,2.656-8.589,3.984-1.176.545-1.471,2.24-.861,3.284.705,1.206,2.103,1.409,3.284.861,2.933-1.361,5.921-2.639,8.811-4.087,3.295-1.652,3.622-5.192,4.042-8.464.45-3.505.51-7.33-1.475-10.408-3.662-5.682-10.714-7.664-16.942-9.066-1.993-.448-4.002-.232-5.495,1.304-1.18,1.213-1.863,3.04-2.644,4.524-1.672,3.178-2.874,6.721-3.242,10.301-.465,4.528,1.089,8.624,4.589,11.523,1.627,1.347,3.394,2.504,5.228,3.548,2.074,1.18,4.193,2.02,6.553,1.069,1.202-.484,2.048-1.6,1.676-2.952-.313-1.141-1.743-2.163-2.952-1.676Z"/><path class="d" d="M104.017,38.598c-7.388,2.745-14.33,6.574-20.54,11.628-9.892,1.385-16.42-1.087-23.154-7.321-2.052-2.036-3.905-4.197-5.76-6.411-2.632-3.139-5.149-6.604-8.81-8.441-3.174-1.593-6.676-2.277-10.225-2.427-4.124-.173-8.55.312-12.161,2.313-3.626,2.009-6.465,5.103-9.377,7.989-2.824,2.799-6.279,4.571-9.268,7.587-2.407,2.43-3.147,5.662-1.269,8.554,1.254,1.93,3.318,2.829,5.604,3.187-.126.788-.197,1.233-.197,1.233-.416,2.606,1.912,4.842,4.268,6.03,3.759,1.895,8.026,2.458,12.198,3.02,1.426.192,2.855.387,4.253.727,4.395,1.069,8.422,3.6,11.291,7.097,19.856,21.846,44.617,35.449,68.047,43.069,10.77,3.503,22.431,5.217,34.083,5.75,10.587.484,22.754-1.478,33.055-3.976l33.421-8.106c25.832,3.039,50.181-.37,74.121-11.111,12.303-5.52,20.718-11.917,20.819-16.401.054-2.419-2.387-4.143-4.657-3.303-10.991,4.069-21.661,6.227-33.403,4.311-14.524-2.371-28.401-8.158-40.937-15.768-11.952-7.255-22.871-16.044-35.467-22.262-25.2-12.439-58.624-17.114-85.935-6.968Z"/><path class="e" d="M17.25,52.657c-2.74.322-5.697.741-8.414.121-2.405-.548-4.688-2.413-3.878-5.223.489-1.695,1.966-2.905,3.268-3.993,1.5-1.254,3.123-2.353,4.668-3.549,3.115-2.41,5.613-5.48,8.664-7.965,5.89-4.796,14.813-5.209,21.737-2.482,3.41,1.343,5.765,4.021,8.045,6.78,2.566,3.105,5.104,6.357,8.137,9.026,5.116,4.5,11.083,7.374,17.965,7.61,1.808.062,3.619-.049,5.413-.274,1.227-.154,1.917-.47,2.891-1.245.603-.48,1.219-.944,1.842-1.398,2.737-1.994,5.621-3.785,8.615-5.366,11.81-6.237,25.228-8.982,38.513-9.217,13.61-.241,27.215,2.061,40.097,6.419,6.549,2.216,12.887,4.994,18.919,8.375,7.271,4.075,14.092,8.88,21.005,13.521,13.816,9.274,28.526,17.143,44.857,20.908,8.39,1.934,16.735,2.535,25.261,1.159,4.089-.66,8.103-1.725,12.032-3.03,1.029-.342,2.048-.708,3.068-1.072.477-.17.92-.415,1.393-.218.304.127.561.408.643.699.054.192.018.456.001.669.043-.551-.024-.072-.089.198-.049.203-.186.501-.02.121-.093.214-.202.422-.316.625-.122.219-.254.431-.393.64-.076.114-.504.681-.32.452-.775.968-1.681,1.834-2.616,2.644-2.527,2.189-5.426,3.96-8.34,5.581-7.296,4.059-15.168,7.169-23.133,9.637-15.696,4.864-32.113,6.681-48.503,5.682-4.057-.247-8.107-.651-12.132-1.217-1.282-.18-2.578.313-2.952,1.676-.309,1.124.384,2.771,1.676,2.952,12.774,1.797,25.699,2.235,38.528.723,12.737-1.502,25.185-4.75,37.03-9.671,5.708-2.371,11.359-4.998,16.517-8.429,3.372-2.242,7.358-5.061,9.099-8.872.909-1.99,1.116-4.17-.045-6.136-1.593-2.696-4.754-3.311-7.524-2.305-5.943,2.161-12.123,3.899-18.441,4.466-12.538,1.125-25.307-2.49-36.765-7.344-11.771-4.986-22.254-12.113-32.81-19.221-9.849-6.632-19.943-12.565-31.112-16.695-9.942-3.676-20.344-6.05-30.886-7.139-20.651-2.133-42.642,1.086-60.284,12.575-2.212,1.44-4.332,3.014-6.383,4.674l1.059-.617c-3.555.481-7.234.443-10.697-.558-3.23-.934-6.151-2.719-8.704-4.884-6.592-5.591-10.461-14.294-18.869-17.532-4.125-1.589-8.842-2.014-13.228-1.633-4.686.407-8.8,1.92-12.514,4.821-3.416,2.669-6.129,6.101-9.606,8.691-3.41,2.539-7.644,5.126-8.895,9.463-1.323,4.587,1.473,9.047,5.754,10.679,3.527,1.345,7.506.928,11.166.498,1.287-.151,2.4-.995,2.4-2.4,0-1.18-1.104-2.552-2.4-2.4h0Z"/><path class="e" d="M6.46,56.49c-.765,6.743,7.938,9.595,13.043,10.572,3.255.622,6.617.77,9.825,1.618,2.677.707,5.235,2.006,7.338,3.817,2.344,2.019,4.287,4.537,6.459,6.741,2.242,2.275,4.559,4.476,6.946,6.598,4.59,4.081,9.437,7.881,14.478,11.389,20.031,13.936,43.527,23.781,67.845,26.528,7.41.837,14.831,1.175,22.268.512s14.788-1.995,22.031-3.743c3.002-.724,1.731-5.354-1.276-4.629-6.165,1.487-12.414,2.697-18.723,3.372s-12.568.687-18.888.201c-12.557-.967-24.662-3.742-36.419-8.232-21.649-8.267-41.612-21.138-57.465-38.097-2.266-2.424-4.374-4.777-7.253-6.513-3.006-1.812-6.3-2.776-9.754-3.268-3.477-.495-7.001-.866-10.347-1.992-2.124-.715-5.62-2.123-5.309-4.874.146-1.29-1.208-2.4-2.4-2.4-1.419,0-2.253,1.106-2.4,2.4h0Z"/><path class="e" d="M26.862,44.219c-.535-1.943-.023-6.352,3.618-6.606,4.797.192,4.899,5.547,3.212,8.007-1.381,2.014-5.295,2.738-6.83-1.401Z"/><path class="d" d="M202.713,92.971c.732,3.799,1.466,7.696.819,11.511-.513,3.024-1.867,5.83-3.207,8.589-1.711,3.524-7.258,14.951-8.321,17.141-.964,1.986-1.49,3.861-2.926,5.57-1.727,2.055-3.997,2.617-6.586,2.641-2.171.02-4.583.088-6.768-.05-1.622-.102-3.317-.419-4.587-1.497-1.14-.967-1.857-2.475-1.691-3.961.164-1.477,1.181-2.667,2.455-3.362.331-.181.684-.337,1.056-.404.11-.02,1.256-.065,1.225.144.541-3.618,1.187-7.22,1.937-10.8.251-1.198.644-3.02.305-4.258-.353-1.29-1.181-2.711-2.04-3.548-3.858-3.759-8.061-14.473-5.588-20.475"/><path class="e" d="M200.399,93.609c.584,3.037,1.154,6.091.931,9.199-.203,2.828-1.366,5.488-2.576,8.014-1.506,3.145-3.044,6.275-4.566,9.411-1.371,2.823-2.747,5.643-4.112,8.47-.971,2.011-1.624,4.571-3.368,6.081-1.702,1.472-4.128,1.239-6.222,1.262-1.586.017-3.179.036-4.762-.074-1.099-.076-2.343-.248-3.166-1.047-.691-.671-.985-1.641-.434-2.481.235-.358.608-.63.987-.819.371-.185-.273-.026.045-.089.227-.045.879.164.335-.003l-1.434-1.103.052.075c1.034,1.483,4.049,1.664,4.387-.573.356-2.359.75-4.712,1.192-7.057.384-2.035.897-4.06,1.155-6.117.255-2.034-.147-3.896-1.177-5.679-.747-1.293-2.055-2.461-2.782-3.491-1.756-2.487-2.973-5.345-3.741-8.282-.734-2.807-1.087-5.768-.033-8.457.473-1.207-.519-2.634-1.676-2.952-1.36-.374-2.478.465-2.952,1.676-1.192,3.043-.931,6.519-.284,9.655.667,3.23,1.911,6.43,3.578,9.275.737,1.258,1.594,2.467,2.581,3.541,1.063,1.157,1.91,2.333,1.774,3.955-.157,1.877-.721,3.75-1.07,5.599-.442,2.345-.836,4.697-1.192,7.057l4.387-.573c-2.097-3.007-6.464-.611-8.069,1.648-1.978,2.783-1.233,6.631,1.255,8.843,2.68,2.383,6.538,2.295,9.904,2.284,3.12-.011,6.484.166,9.251-1.53,3.017-1.849,4.076-4.975,5.525-7.993.663-1.38,1.337-2.754,2.005-4.13,1.935-3.987,3.871-7.974,5.806-11.961,1.507-3.105,3.158-6.257,3.832-9.67.875-4.438.106-8.86-.736-13.239-.245-1.274-1.773-2-2.952-1.676-1.332.366-1.922,1.675-1.676,2.952h0Z"/><path class="d" d="M113.1,92.971c.732,3.799,1.466,7.696.819,11.511-.513,3.024-1.867,5.83-3.207,8.589-1.711,3.524-7.258,14.951-8.321,17.141-.964,1.986-1.49,3.861-2.926,5.57-1.727,2.055-3.997,2.617-6.586,2.641-2.171.02-4.583.088-6.768-.05-1.622-.102-3.317-.419-4.587-1.497-1.14-.967-1.857-2.475-1.691-3.961.164-1.477,1.181-2.667,2.455-3.362.331-.181.684-.337,1.056-.404.11-.02,1.256-.065,1.225.144.541-3.618,1.187-7.22,1.937-10.8.251-1.198.644-3.02.305-4.258-.353-1.29-1.181-2.711-2.04-3.548-3.858-3.759-8.061-14.473-5.588-20.475"/><path class="e" d="M110.786,93.609c.584,3.037,1.154,6.091.931,9.199-.203,2.828-1.366,5.488-2.576,8.014-1.506,3.145-3.044,6.275-4.566,9.411-1.371,2.823-2.747,5.643-4.112,8.47-.971,2.011-1.624,4.571-3.368,6.081-1.702,1.472-4.128,1.239-6.222,1.262-1.586.017-3.179.036-4.762-.074-1.099-.076-2.343-.248-3.166-1.047-.691-.671-.985-1.641-.434-2.481.235-.358.608-.63.987-.819.371-.185-.273-.026.045-.089.227-.045.879.164.335-.003l-1.434-1.103.052.075c1.034,1.483,4.049,1.664,4.387-.573.356-2.359.75-4.712,1.192-7.057.384-2.035.897-4.06,1.155-6.117.255-2.034-.147-3.896-1.177-5.679-.747-1.293-2.055-2.461-2.782-3.491-1.756-2.487-2.973-5.345-3.741-8.282-.734-2.807-1.087-5.768-.033-8.457.473-1.207-.519-2.634-1.676-2.952-1.36-.374-2.478.465-2.952,1.676-1.192,3.043-.931,6.519-.284,9.655.667,3.23,1.911,6.43,3.578,9.275.737,1.258,1.594,2.467,2.581,3.541,1.063,1.157,1.91,2.333,1.774,3.955-.157,1.877-.721,3.75-1.07,5.599-.442,2.345-.836,4.697-1.192,7.057l4.387-.573c-2.097-3.007-6.464-.611-8.069,1.648-1.978,2.783-1.233,6.631,1.255,8.843,2.68,2.383,6.538,2.295,9.904,2.284,3.12-.011,6.484.166,9.251-1.53,3.017-1.849,4.076-4.975,5.525-7.993.663-1.38,1.337-2.754,2.005-4.13,1.935-3.987,3.871-7.974,5.806-11.961,1.507-3.105,3.158-6.257,3.832-9.67.875-4.438.106-8.86-.736-13.239-.245-1.274-1.773-2-2.952-1.676-1.332.366-1.922,1.675-1.676,2.952h0Z"/></g></svg>