<svg id="b" xmlns="http://www.w3.org/2000/svg" width="224.774" height="147.471" viewBox="0 0 224.774 147.471" style="color: initial !important;"><defs><style>.d{fill:#d4c4ba;}.e{fill:none;}.f{fill:#a98a75;}.g{fill:#211715;}</style></defs><g id="c"><path class="f" d="M217.425,2.375c-21.47,1.19-43.84,5.59-63.87,13.58-15.75,6.28-25.64,20.61-34.8,33.74-5.81,8.33-12.05,16.4-19.14,23.66-3.22,3.29-6.61,6.42-10.22,9.32-7.6,4.1-19.51,7.14-27.37,2.05-1.43-.92-2.65-2.24-3.18-3.86-.46-1.42-.22-2.94.4-4.46,2.97-3.98,5.92-8.01,8-12.51,2.04-4.41,3.21-9.35,2.56-14.15-.05-.34-.48-1.35-.81-1.48-.87-.35-1.54-.01-1.96.89-2.11,4.5-5.38,8.4-9.23,11.9-4.95,4.51-10.85,8.36-16.48,11.98-1.8,1.48-4.02,3.22-5.32,4.78-.705.844-1.438,1.767-2.181,2.746-6.284,8.879-7.371,13.014-7.792,18.288-.122,1.531,1.377,2.68,2.819,2.149l5.766-2.122c1.706-.628,3.321,1.051,2.67,2.748-1.176,3.066-1.488,6.468-.805,9.683l.056.166c4.308-3.089,8.283-6.164,11.477-8.908l.55-.47c1.38-1.21,3.33-1.51,5.02-.78,0,0,2.87,1.25,3.07,1.33,5.83,2.92,12.75,6.76,16.64,10.07,12.69,10.79,43.48,16.14,59.64,13.3l4.38-.77c3.75-.66,6.12-4.35,5.23-8.05-.01-.02-.01-.03-.01-.05-.9-3.74-2.14-7.87.79-16.01,8.08-19.65,15.12-38.75,29.44-54.88,12.95-14.58,29.12-26.73,46.85-34.89,4.74-2.18,3.02-9.28-2.19-8.99Z"/><path class="d" d="M37.287,101.624c.651-1.697-.964-3.376-2.67-2.748l-5.766,2.122c-1.442.531-2.941-.618-2.819-2.149.422-5.274,1.509-9.409,7.792-18.288-3.67,4.834-7.617,11.142-10.079,17.254l.27.22c-4.1,6.46-12.35,17.65-17.92,23.77-.91,1.01-2.63,2.85-3.28,3.87-1.41,2.23.98,4.92,3.39,3.84l2.06-.94c7.953-3.596,18.903-10.384,28.273-17.102l-.056-.166c-.683-3.214-.371-6.617.805-9.683Z"/><path class="f" d="M99.505,73.245l.11.11c-3.22,3.29-6.61,6.42-10.22,9.32-7.6,4.1-19.51,7.14-27.37,2.05-1.43-.92-2.65-2.24-3.18-3.86-.46-1.42-.22-2.94.4-4.46,2.97-3.98,5.92-8.01,8-12.51,2.04-4.41,3.21-9.35,2.56-14.15-.05-.34-.48-1.35-.81-1.48-.87-.35-1.54-.01-1.96.89-2.11,4.5-5.38,8.4-9.23,11.9l-1.24-.65c-5.53-8.57-13.5-21.71-19.03-30.29-1.19-1.84-4.14-5.87-5.25-7.76-2.07-3.55.1-7.92,4.03-6.71,7.47,2.32,17.22,8.68,23.2,13.45,6.98,5.55,13.59,11.52,19.49,18.2,6.32,7.16,13.87,19.12,20.5,25.95Z"/><path class="f" d="M128.395,137.398c-.39-.257-.813-.511-1.278-.768-5.104-2.823-12.52-6.379-16.517-10.696,8.287,1.051,16.236,1.13,22.215.101,2.651,3.361,6.76,5.711,10.966,5.359.608-.051,1.291-.123,1.76.267.538.446.643,1.336.306,1.948-.885,1.605-1.65,1.995-3.441,2.41,1.537.993,1.667,2.833,0,4.389-1.06.99-2.532.382-3.609,1.319-.861.75-.922,2.045-1.459,2.809-.504.717-1.753.679-2.469.174-.205-.144-.522-.42-.806-.848-2.055-3.106-3.186-4.829-5.669-6.464Z"/><path class="g" d="M131.118,127.735c2.181,2.695,5.235,4.867,8.634,5.695.819.2,1.668.323,2.509.379.445.03.888.026,1.333,0,.187-.011.373-.025.56-.042.713.058.554-.178-.475-.708l.094-.664c-.108.199-.224.393-.349.582-.014.018-.275.299-.351.358.292-.227-.342.135-.07.02-.39.166-.826.25-1.236.347-2.179.519-2.137,3.256-.573,4.387.115.083-.093.129-.176.305-.2.427-.246.241-.704.324-.4.073-.81.097-1.203.207-1.637.46-3.381,2.075-3.591,3.868-.062.528-.396.336.506-.11.32-.158.381.609.165.011-.231-.64-.971-1.431-1.362-1.996-.864-1.248-1.778-2.494-2.885-3.539-2.436-2.301-5.619-3.673-8.529-5.26-3.225-1.759-6.501-3.579-9.325-5.948-.992-.833-2.421-.973-3.394,0-.856.856-.998,2.557,0,3.394,2.835,2.379,5.983,4.31,9.211,6.102,2.683,1.489,5.83,2.715,8.19,4.699.971.816,1.764,1.796,2.486,2.831.962,1.379,1.782,3.133,3.327,3.955,1.647.877,3.825.709,5.121-.697.571-.62.806-1.402,1.117-2.165.068-.167.305-.609.225-.557-.16.103.574-.067.699-.087,2.196-.361,4.104-1.753,4.731-3.991s-.377-4.18-2.187-5.489l-.573,4.387c2.005-.478,3.632-1.387,4.699-3.207,1.325-2.258.56-5.412-2.209-6.056-1.076-.25-2.184.024-3.272-.06-.934-.073-1.886-.333-2.75-.693-2.007-.836-3.647-2.304-4.999-3.975-.816-1.008-2.545-.849-3.394,0-.997.997-.818,2.383,0,3.394h0Z"/><path class="f" d="M174.836,126.284c.256-.914-.088-1.693-1.13-2.266-.85-.46-1.88-.32-2.84-.22-4.53.46-9.15-1.33-13.25-3.32-5.414-2.635-9.908-7.255-16.021-8.135.181,1.808.586,3.338.936,4.806.003.014.007.029.01.044.592,2.453-.252,4.905-1.981,6.47,8.505,2.055,16.565,7.235,21.105,14.705.45.75.95,1.57,1.79,1.83,1.02.31,2.14-.43,2.61-1.4s.46-2.09.44-3.17c1.57,1.16,3.6,1.18,4.76-.38,1.17-1.57.82-4.06-.74-5.23,1.44-.68,2.96-1.42,3.84-2.75.225-.342.383-.671.47-.984Z"/><path class="g" d="M101.203,71.544c-6.839-7.088-12.05-15.59-18.221-23.234-6.824-8.452-15.108-15.871-23.731-22.442-3.933-2.997-8.082-5.742-12.412-8.131-2.186-1.206-4.428-2.297-6.737-3.25-2.025-.836-4.274-1.829-6.503-1.275-4.781,1.188-5.398,7.001-3.201,10.653,2.079,3.455,4.568,6.67,6.733,10.075,5.841,9.192,11.46,18.524,17.359,27.679,1.668,2.588,5.824.184,4.145-2.423-4.984-7.735-9.768-15.596-14.655-23.392-2.15-3.43-4.304-6.85-6.617-10.173-1.044-1.5-2.255-3.004-3.082-4.64-.327-.646-.47-1.238-.376-1.941.051-.38.213-.804.653-1.139-.058.044.122-.039.318-.072-.101.017.46.038.636.079,1.012.234,2.016.666,2.974,1.057,2.037.831,4.007,1.844,5.931,2.906,4.071,2.247,7.977,4.81,11.7,7.593,8.188,6.121,16.002,13.242,22.549,21.103,6.603,7.929,11.959,16.914,19.144,24.36,2.149,2.227,5.541-1.169,3.394-3.394h0Z"/><path class="g" d="M41.956,86.957c-.523-1.901-.023-6.217,3.541-6.465,4.695.187,4.795,5.429,3.143,7.836-1.352,1.971-5.182,2.679-6.684-1.371Z"/><path class="g" d="M142.687,115.012c3.031.848,5.651,2.582,8.261,4.287,2.85,1.862,5.729,3.48,8.879,4.787,3.194,1.325,6.67,2.313,10.16,2.173.433-.017.861-.069,1.293-.105.145-.012,1.154.022,1.253-.048.004-.003.12-.41-.041-.381.008-.001-.526.678-.526.678-.209.205-.431.35-.677.51-.621.403-1.307.715-1.974,1.032-1.321.627-1.616,2.829-.486,3.769.564.469.989,1.205.622,1.91-.407.781-1.134.34-1.734-.069-1.52-1.036-3.637.34-3.611,2.072.01.665.045,1.329-.142,1.97.006-.022-.213.45-.254.365-.066-.136.723-.103.626.042.1-.15-1.799-2.663-1.994-2.927-1.696-2.298-3.635-4.376-5.86-6.171-4.48-3.613-9.701-6.181-15.288-7.564-2.998-.743-4.278,3.885-1.276,4.629,6.152,1.523,11.918,4.589,16.302,9.211,1.011,1.066,1.937,2.198,2.753,3.421.978,1.467,1.771,3.146,3.546,3.786,1.726.622,3.609.043,4.843-1.291,1.381-1.493,1.574-3.531,1.544-5.471l-3.611,2.072c2.649,1.805,6.348,1.461,8.134-1.376,1.575-2.502,1.087-6.097-1.206-8.003l-.486,3.769c3.045-1.445,7.418-4.839,4.859-8.639-1.317-1.956-3.568-2.234-5.73-2.053-2.029.17-3.972-.054-5.932-.595-3.843-1.06-7.373-2.927-10.701-5.087-3.257-2.113-6.487-4.275-10.269-5.333-2.98-.834-4.251,3.796-1.276,4.629h0Z"/><path class="g" d="M31.799,79.281c-3.868,5.482-7.196,11.162-8.005,17.917-.211,1.757-.26,3.469,1.023,4.871,1.22,1.333,3.084,1.737,4.778,1.204.937-.295,1.854-.682,2.776-1.021l1.557-.573c.266-.098.987-.219,1.178-.434.037-.041.135-.056.182-.102-.051.05-.352-.139-.238-.191-.513.235-.78,2.286-.89,2.827-.554,2.727-.533,5.44.006,8.166.252,1.272,1.768,2.002,2.952,1.676,1.327-.365,1.929-1.676,1.676-2.952-.394-1.993-.367-4.071.089-6.052.482-2.096,1.555-4.011.307-6.085-1.081-1.798-3.246-2.55-5.226-1.965-.736.218-1.456.536-2.176.801l-3.037,1.117c-.148.055-.413.098-.541.199.109-.086.081.476.249-.194.064-.256.051-.561.079-.826.012-.108.094-.781.07-.61.026-.189.173-1.054.272-1.526.258-1.227.619-2.43,1.069-3.6,1.336-3.473,3.754-7.052,5.992-10.224.748-1.06.19-2.669-.861-3.284-1.201-.702-2.534-.201-3.284.861h0Z"/><path class="g" d="M21.945,96.825c-5.29,8.31-11.277,16.413-17.921,23.693C2.366,122.336.007,124.41,0,127.062c-.007,2.937,2.64,5.336,5.55,5.056,1.621-.156,3.271-1.155,4.74-1.842,2.097-.981,4.152-2.052,6.18-3.167,9.544-5.251,18.669-11.381,27.29-18.032,1.939-1.496,3.861-3.018,5.722-4.611.537-.46,1.02-.956,1.745-1.101.269-.054.593-.074.866-.026.113.02.735.22.394.104-.193-.066.431.182.57.242,4.704,2.044,9.249,4.506,13.592,7.234,3.753,2.357,6.99,5.396,10.852,7.583,4.059,2.298,8.449,4.044,12.883,5.471,9.338,3.006,19.219,4.705,29.017,5.116,4.314.181,8.634.06,12.911-.558,3.064-.443,6.727-.684,9.251-2.607,2.189-1.668,3.505-4.249,3.567-7.007.042-1.89-.664-3.739-.992-5.583-.144-.811-.196-1.252-.233-2.255-.039-1.057-.001-2.127.135-3.176.386-2.981,1.469-5.787,2.596-8.549,4.549-11.141,8.992-22.37,14.881-32.891,5.955-10.64,13.544-19.939,22.456-28.24,8.81-8.207,18.65-15.28,29.253-20.99,2.582-1.39,5.284-2.548,7.867-3.925,1.887-1.006,3.243-2.873,3.586-4.981.363-2.229-.286-4.585-1.868-6.231-1.703-1.772-3.918-2.211-6.282-2.07-13.041.779-26.048,2.667-38.746,5.749-6.247,1.516-12.423,3.329-18.484,5.472-5.598,1.979-11.09,4.135-16.023,7.492-9.138,6.219-16.076,14.941-22.442,23.849-6.991,9.783-13.8,19.593-22.16,28.29-2.177,2.265-4.434,4.454-6.779,6.546-1.137,1.015-2.279,2.097-3.507,3.002-.976.719-2.197,1.213-3.316,1.69-4.645,1.979-9.813,3.206-14.881,2.809-2.33-.183-4.654-.847-6.651-2.076-.976-.601-1.937-1.436-2.349-2.541-.603-1.616.299-2.902,1.211-4.138,3.749-5.082,7.318-10.46,8.996-16.622.824-3.024,1.204-6.238.864-9.363-.136-1.251-.472-2.594-1.419-3.508-1.258-1.214-3.338-1.209-4.684-.175-1.115.856-1.566,2.274-2.238,3.461-.686,1.211-1.452,2.381-2.29,3.492-1.591,2.112-3.461,4.027-5.408,5.81-4.121,3.772-8.753,6.924-13.424,9.967-2.586,1.685-5.051,3.472-7.284,5.618-2.026,1.947-3.701,4.341-5.325,6.624-3.486,4.9-6.484,10.128-8.758,15.7-.49,1.201.532,2.638,1.676,2.952,1.375.378,2.461-.471,2.952-1.676,2.233-5.473,5.396-10.617,8.871-15.382,1.532-2.1,3.121-4.114,5.082-5.832,2.161-1.893,4.505-3.384,6.893-4.966,4.643-3.074,9.227-6.326,13.29-10.15,1.994-1.876,3.814-3.905,5.463-6.09.764-1.012,1.475-2.063,2.12-3.154.321-.543.625-1.095.911-1.657.127-.249.369-.577.416-.849.299-.412.207-.437-.276-.076-.485.413-.972.317-1.463-.285.016-.036.164.911.173,1.05.051.73.059,1.463.033,2.193-.055,1.556-.306,3.083-.692,4.59-.729,2.842-1.912,5.498-3.362,8.042-1.564,2.743-3.391,5.325-5.263,7.863-.997,1.351-1.675,2.604-1.927,4.29-.266,1.79.039,3.527.919,5.114,2.639,4.762,8.995,6.476,14.052,6.634,5.226.164,10.494-1.137,15.289-3.141,1.162-.486,2.31-1.001,3.429-1.58,1.394-.721,2.598-1.921,3.783-2.943,2.216-1.909,4.356-3.905,6.425-5.972,4.289-4.286,8.268-8.875,12.019-13.636,6.879-8.732,12.695-18.272,19.833-26.8,3.361-4.015,7.022-7.838,11.166-11.055,4.235-3.288,8.913-5.649,13.91-7.534,11.903-4.49,24.29-7.675,36.832-9.769,6.121-1.022,12.285-1.766,18.472-2.249,1.505-.118,3.012-.226,4.52-.307,1.123-.06,1.481-.101,2.207.444-.342-.256.468.542.338.368.018.025.33.653.284.52.064.185.114.372.159.563.165.693.009-.243.021.174.006.196.011.39-.004.586.034-.448-.053.226-.072.289-.092.309-.427.888-.763,1.132-1.113.809-2.578,1.269-3.811,1.876-2.61,1.283-5.179,2.649-7.703,4.094-5.126,2.935-10.066,6.194-14.789,9.741-9.371,7.038-18.176,15.125-25.436,24.353-7.314,9.296-12.861,19.712-17.629,30.501-2.429,5.495-4.689,11.062-6.955,16.625-2.037,5-4.058,10.062-3.694,15.576.121,1.823.475,3.612.901,5.385.411,1.713.41,3.302-.88,4.663-1.079,1.138-2.607,1.267-4.065,1.523-1.264.222-2.527.461-3.796.653-1.371.208-3.714.389-5.483.454-2.136.078-4.274.06-6.409-.03-4.638-.195-9.258-.717-13.827-1.53-8.808-1.565-17.817-3.967-25.65-8.402-3.893-2.204-6.818-5.036-10.679-7.473-4.255-2.686-8.719-5.151-13.336-7.157-2.064-.897-4.049-1.587-6.322-.889-2.134.656-3.787,2.504-5.478,3.885-3.867,3.158-7.902,6.109-12.006,8.949-8.052,5.574-16.437,10.932-25.375,14.982-.537.243-1.134.623-1.706.772.512-.133-.041-.094-.043-.097-.121-.275-.303,0-.177-.419.146-.486,1.097-1.305,1.487-1.746.766-.865,1.557-1.706,2.322-2.572,3.373-3.821,6.496-7.869,9.537-11.956,2.761-3.712,5.458-7.483,7.943-11.387,1.664-2.614-2.489-5.024-4.145-2.423h0Z"/><path class="g" d="M138.936,28.467c1.387-2.855,2.899-5.654,4.423-8.438.403-.736.81-1.47,1.223-2.201.188-.333.378-.665.57-.996.044-.076.089-.153.133-.229.252-.399,0-.224-.756.525-.651.165-1.18-.045-1.586-.633-.121-.695-.19-.878-.206-.548-.017.066-.082.731-.039.413-.037.277-.084.552-.134.827-.092.51-.199,1.018-.321,1.522-.151.626-.303,1.269-.542,1.868-.389.974.424,2.239,1.397,2.46,1.155.263,2.044-.354,2.46-1.397.541-1.357.808-2.885,1.011-4.323.2-1.414.334-2.839-1.037-3.729-1.214-.788-2.754-.354-3.559.776-.848,1.19-1.491,2.588-2.191,3.869-.787,1.44-1.561,2.888-2.323,4.341-.673,1.283-1.343,2.568-1.976,3.871-.456.94-.287,2.206.718,2.736.897.474,2.248.287,2.736-.718h0Z"/><path class="g" d="M43.118,35.308c-.967-.319-2.059-.365-3.07-.285-.715.056-1.537.072-2.159.476-1.044.679-1.537,1.872-1.239,3.094.278,1.141,1.42,1.742,2.3,2.396.624.464,1.243.934,1.859,1.409l-.486-.375c1.518,1.173,3.039,2.357,4.459,3.649.929.845,2.489.986,3.394,0,.845-.921.992-2.492,0-3.394-1.178-1.072-2.432-2.065-3.685-3.047-1.375-1.078-2.76-2.147-4.182-3.163l.486.375-.061-.054.375.486-.044-.063.242.573c-.024-.044-.037-.09-.041-.139l.086.638.002-.072-.086.638.017-.07-.242.573c.016-.046.041-.087.074-.123l-.375.486.056-.048-.486.375.068-.036-.573.242c.093-.025.185-.036.281-.049l-.638.086c.76-.097,1.528-.134,2.29-.036l-.638-.086c.253.038.499.092.742.172,1.193.394,2.674-.456,2.952-1.676.301-1.321-.399-2.531-1.676-2.952h0Z"/><path class="e" d="M110.431,90.916c4.666-7.234,7.014-15.704,10.45-23.565,3.63-8.306,8.213-16.171,13.626-23.377"/></g></svg>