<svg width="128" height="113" xmlns="http://www.w3.org/2000/svg">
 <g id="Layer_1">
  <title>Layer 1</title>
  <g stroke="null">

   <g stroke="null" id="svg_15">
    <path stroke="null" fill="#ffffff" d="m-98.66902,218.28407c-0.29003,16.80532 6.81162,39.8422 13.58182,56.00945c0.88667,2.10481 -0.06629,4.52451 -2.12967,5.48576c-0.02486,0.00829 -0.05801,0.03315 -0.07458,0.04143c-2.1131,0.97782 -4.64052,0.08287 -5.62663,-2.03023c-6.09069,-12.9686 -11.68417,-27.64426 -15.75292,-41.84757c2.39484,-6.10726 5.10458,-11.83333 8.12091,-16.77218c0.28175,-0.31489 0.57178,-0.63807 0.85352,-0.95296l1.02754,0.06629z" class="e"/>
    <path stroke="null" fill="#ffffff" d="m-98.16353,182.32831c0.75408,1.20985 0.93639,2.67659 0.93639,4.10189c-0.00829,4.64052 -1.29272,8.11263 -2.2954,11.80019c-2.67659,-4.23448 -5.63492,-8.45238 -9.23133,-12.56256c1.41702,-1.52474 2.97491,-2.96662 4.66538,-4.30077c1.25128,-0.75408 2.36169,-0.8701 2.36169,-0.8701c1.39216,-0.2486 2.81746,0.6215 3.56326,1.83135z" class="e"/>
    <path stroke="null" fill="#211715" d="m-98.06409,200.5523c0.72757,-3.07518 1.81643,-6.0592 2.35921,-9.17912c0.56764,-3.26328 1.08721,-7.38423 -0.8991,-10.28704c-0.98445,-1.43856 -2.53157,-2.45616 -4.28834,-2.59869c-1.22891,-0.09944 -2.49925,0.30826 -3.5906,0.83778c-1.54463,0.74994 -2.90033,2.17359 -4.13007,3.35775c-1.25046,1.20405 -2.51748,2.47937 -3.54669,3.88147c-0.63641,0.86595 -0.14502,2.21916 0.71348,2.72134c1.00931,0.59001 2.08326,0.15496 2.72134,-0.71348c-0.29252,0.39776 0.29169,-0.30578 0.35301,-0.37539c0.25937,-0.29666 0.52289,-0.59001 0.79055,-0.87921c0.49886,-0.54112 1.01097,-1.06898 1.53717,-1.58358c0.94965,-0.92976 1.96476,-2.02443 3.09009,-2.74122c0.36627,-0.23368 0.83032,-0.37456 1.24797,-0.47731c0.00912,-0.00249 0.41682,-0.07127 0.42013,-0.08701c-0.53366,0.06961 -0.58752,0.07789 -0.16159,0.02403c0.09861,0.01409 0.19556,0.01077 0.29003,-0.00912c0.94716,0.1243 1.49491,1.06649 1.71534,1.90676c0.64719,2.47108 0.09281,5.37886 -0.47814,7.82011c-0.57675,2.46362 -1.39547,4.8626 -1.97885,7.3254c-0.58918,2.48931 3.24505,3.55166 3.83589,1.05738l0,0l-0.00083,-0.00083z" class="f"/>
    <path stroke="null" fill="#211715" d="m-100.65947,218.28241c-0.10524,7.22098 0.9828,14.4544 2.48434,21.50054c1.60595,7.53671 3.77291,14.95326 6.28957,22.23308c1.19328,3.45139 2.47025,6.87295 3.83506,10.26053c0.47897,1.18913 1.48,2.71636 1.2778,4.02648c-0.16408,1.06401 -1.11207,1.83052 -2.15039,1.92084c-1.57944,0.13756 -2.18022,-1.22891 -2.74288,-2.43959c-0.86595,-1.86201 -1.70954,-3.73479 -2.53323,-5.61586c-1.69711,-3.87649 -3.29809,-7.79359 -4.81703,-11.74301c-3.44642,-8.96367 -6.46773,-18.09555 -8.94461,-27.37494c-0.65962,-2.47108 -4.49716,-1.42282 -3.83589,1.05738c2.34346,8.78136 5.17584,17.42931 8.39272,25.92809c1.62418,4.29 3.35029,8.54105 5.16672,12.75232c0.89081,2.06586 1.80649,4.12012 2.74785,6.16361c0.82866,1.7982 1.60927,3.55414 3.46216,4.51291c3.49614,1.80815 7.93778,-0.03232 9.02499,-3.84832c0.54029,-1.89516 -0.0348,-3.51602 -0.74746,-5.25373c-0.72011,-1.75677 -1.41619,-3.52348 -2.08824,-5.29848c-2.88127,-7.60549 -5.37472,-15.37256 -7.3312,-23.26891c-2.06338,-8.32725 -3.63784,-16.90476 -3.51271,-25.51459c0.03729,-2.56057 -3.9403,-2.5614 -3.97759,0l0,0l0,0.00166z" class="f"/>
    <path stroke="null" fill="#3d8dcc" d="m-123.23644,240.30584c-2.58626,12.33136 -4.50711,25.09611 -5.58106,36.73802c-0.24611,2.56637 1.66479,4.83692 4.22453,5.09215c0.02486,0.00414 0.05635,-0.00166 0.09115,0.00912c2.51583,0.23783 4.77725,-1.54049 5.11535,-4.04057c2.60532,-19.21259 9.15012,-43.06902 18.84135,-58.93215c2.24485,-2.54234 4.8568,-5.05734 5.54045,-8.37946c0.3787,-1.84046 0.66459,-3.96848 -0.28755,-5.58769c-4.85349,-8.25433 -10.0459,-16.69677 -18.23974,-24.52599c-1.3905,-0.78309 -2.60781,-0.88419 -2.60781,-0.88419c-1.54049,-0.23203 -3.07518,0.76651 -3.86158,2.11061c-0.7864,1.34492 -0.94965,2.96496 -0.90739,4.52202c0.2312,8.61563 4.38032,13.45006 4.41761,22.069c0.01574,3.60386 -0.71431,8.75816 -1.71699,11.47121c-1.70871,6.6376 -3.5558,13.32327 -5.02751,20.33875l-0.00083,-0.00083z" class="d"/>
    <path stroke="null" fill="#211715" d="m-125.1548,239.77715c-1.84875,8.84351 -3.34035,17.75829 -4.48639,26.7203c-0.27512,2.15039 -0.52869,4.30408 -0.75906,6.46027c-0.20717,1.93908 -0.68531,4.06626 -0.2602,5.99953c0.79386,3.60718 4.55517,5.80148 8.09688,5.02834c1.74683,-0.38119 3.2956,-1.52889 4.23365,-3.04037c0.94965,-1.52972 0.99937,-3.38427 1.26289,-5.11701c0.56183,-3.69584 1.23471,-7.37429 2.00868,-11.03201c1.62087,-7.66018 3.66767,-15.23997 6.22493,-22.64161c2.4023,-6.95167 5.25622,-13.77987 8.92803,-20.1639c1.86781,-3.24671 4.93304,-5.55703 6.34426,-9.12111c0.69525,-1.75677 1.04826,-3.9113 0.85104,-5.79485c-0.21711,-2.07581 -1.35984,-3.72236 -2.40561,-5.47002c-4.15327,-6.94504 -8.69435,-13.68374 -14.27209,-19.57721c-0.75491,-0.798 -1.5264,-1.57944 -2.31529,-2.34429c-0.81541,-0.79137 -1.78743,-1.26537 -2.87547,-1.58772c-1.55706,-0.46074 -3.19285,-0.41599 -4.64467,0.37124c-3.87401,2.09984 -3.94196,6.95747 -3.45636,10.77761c0.45991,3.61795 1.61921,7.00719 2.67493,10.47929s1.6623,6.89781 1.47751,10.5315c-0.08867,1.74268 -0.28175,3.47956 -0.5925,5.19656c-0.29335,1.61838 -0.79303,3.15307 -1.20322,4.73831c-1.11455,4.3074 -2.26888,8.60486 -3.31797,12.92883c-0.53697,2.21171 -1.04495,4.43087 -1.5148,6.65832c-0.52703,2.49677 3.30637,3.56492 3.83589,1.05738c0.87756,-4.16238 1.89847,-8.29079 2.96248,-12.40926c0.50549,-1.95482 1.01926,-3.90798 1.52806,-5.86197c0.41019,-1.57529 0.92728,-3.12324 1.27697,-4.71345c0.72011,-3.27488 1.1419,-6.72793 1.03334,-10.08485c-0.11353,-3.52265 -0.95462,-6.91438 -2.01117,-10.25804c-0.97865,-3.09672 -2.02194,-6.21001 -2.30203,-9.46501c-0.13424,-1.56038 -0.30826,-3.38012 0.38533,-4.84189c0.26683,-0.56183 0.72177,-1.11787 1.32089,-1.34327c0.29252,-0.11021 0.52537,-0.08452 0.82866,-0.0895c0.07955,-0.00166 0.37953,0.05635 0.00746,-0.00497c-0.43091,-0.07127 0.09198,0.02237 0.17568,0.04392c1.81229,0.46488 2.92933,1.98299 4.17398,3.31134c1.35901,1.45016 2.66167,2.95253 3.90964,4.49799c2.29706,2.84398 4.38364,5.85535 6.35503,8.93218c0.94882,1.48082 1.8703,2.97822 2.77686,4.48556c0.78475,1.30432 2.08741,2.82658 2.23988,4.37452c0.34887,3.54586 -1.73937,6.39232 -3.96848,8.87831c-1.16179,1.29603 -2.08243,2.58046 -2.94093,4.0936c-0.82121,1.44685 -1.60015,2.91773 -2.34346,4.40684c-1.56535,3.1365 -2.97076,6.35172 -4.26928,9.60671c-5.29848,13.27438 -8.82859,27.34262 -10.88617,41.4755c-0.18811,1.29355 -0.1591,2.82492 -1.27366,3.7149c-0.83778,0.66956 -2.00537,0.769 -2.96496,0.32318c-1.00517,-0.46654 -1.57612,-1.49077 -1.5438,-2.5788c0.05718,-1.95316 0.3729,-3.93533 0.59001,-5.87606c0.91236,-8.16235 2.1595,-16.28741 3.68922,-24.35694c0.3961,-2.09072 0.81375,-4.1773 1.24963,-6.25973c0.52206,-2.4976 -3.31134,-3.56574 -3.83589,-1.05738l0.00166,-0.00083z" class="f"/>
    <path stroke="null" fill="#c6c6c6" d="m28.89978,211.16667c9.32994,1.10958 20.88815,2.41141 27.06502,3.26494c6.99476,0.96705 9.58102,4.66953 9.58102,11.01378l0,47.25378c0.01243,1.79157 1.58855,3.15887 3.36438,2.92436c3.45885,-0.45742 9.91746,-1.12616 12.55676,-1.55292c1.44188,-0.23285 2.49842,-1.47834 2.49842,-2.93927c0,0 0,-11.96178 0,-17.91159c0,-4.87255 0.65713,-10.95495 5.36809,-15.8507c2.14707,-2.23159 6.36415,-4.43087 10.74281,-6.094c8.55182,-3.08346 13.76744,-10.945 13.76744,-21.16907c0,-12.03718 -8.49464,-22.17258 -21.63975,-22.17258l-67.88173,0c-1.81643,0 -3.28897,1.47254 -3.28897,3.28897l0,16.14902c0,1.68633 1.26869,3.09838 2.9459,3.27157c0.56349,0.05801 1.15019,0.11933 1.75677,0.18313c1.00517,0.10607 2.06586,0.20882 3.16467,0.33892l-0.00083,0.00166z" class="g"/>
    <path stroke="null" fill="#ffffff" d="m90.62454,198.78062c-6.66412,0 -11.26984,5.16092 -11.26984,11.20106c0,6.75693 4.70516,11.41071 11.27067,11.41071c6.81825,0 11.27067,-4.69687 11.27067,-11.41071c0,-6.08074 -4.63058,-11.20106 -11.27067,-11.20106l-0.00083,0z" class="e"/>
    <path stroke="null" fill="#211715" d="m90.62454,196.79182c-5.75425,0.06795 -10.84722,3.57072 -12.63051,9.10205c-1.63993,5.08634 -0.10275,11.27067 4.14415,14.62759c4.29,3.39172 10.72789,3.81352 15.47863,1.10047c4.8162,-2.75117 6.87626,-8.47641 6.08406,-13.80058c-0.96457,-6.48016 -6.64921,-10.95412 -13.0755,-11.02953c-2.56057,-0.02983 -2.56223,3.94776 0,3.97759c4.053,0.04723 7.69001,2.45451 8.87169,6.41801c1.09135,3.65856 0.07707,8.09523 -2.97905,10.42129c-2.88375,2.19513 -7.5193,2.41556 -10.72789,0.60907c-3.31632,-1.86698 -4.90321,-5.82303 -4.36458,-9.59511c0.66376,-4.64467 4.5908,-7.79939 9.19984,-7.85408c2.55809,-0.02983 2.56472,-4.00742 0,-3.97759l-0.00083,0.00083z" class="f"/>
    <path stroke="null" fill="#211715" d="m28.89978,213.15546c7.96015,0.94551 15.92859,1.82886 23.88046,2.84398c2.72382,0.34804 5.80148,0.5204 8.13417,2.27303c1.72362,1.2952 2.49097,3.65524 2.61609,6.09649c0.1533,2.99894 0.02652,6.03019 0.02652,9.03079l0,36.16542c0,1.77914 -0.28423,3.81766 0.58172,5.4435c1.95731,3.6743 6.25808,2.40976 9.56942,2.02443c1.72362,-0.20054 3.44807,-0.39776 5.17004,-0.61487c1.52143,-0.19142 3.30057,-0.21297 4.6513,-1.0176c2.3186,-1.38056 2.42467,-3.74639 2.42467,-6.10726c0,-2.83735 0,-5.67387 0,-8.51122c0,-6.35752 -0.7864,-13.41691 2.59289,-19.12227c4.16404,-7.03122 12.90397,-7.48036 18.85047,-12.27335c5.50399,-4.43584 8.2013,-11.40077 8.42006,-18.33835c0.20882,-6.62932 -2.01283,-13.30173 -6.63263,-18.13367c-4.51457,-4.7209 -10.81242,-6.96161 -17.26606,-6.9699c-7.16629,-0.00829 -14.33259,0 -21.49888,0l-41.79537,0c-1.51646,0 -3.07103,-0.10027 -4.585,0.01243c-3.10749,0.23037 -4.99436,2.76525 -4.99436,5.74099l0,5.4493c0,2.36501 0,4.73085 0,7.09586c0,1.36978 -0.14502,2.85226 0.11684,4.20879c0.35053,1.8156 1.74848,3.33786 3.48868,3.92456c0.97368,0.32815 2.07,0.33312 3.08595,0.44002c1.05572,0.11021 2.11144,0.21628 3.16467,0.33892c1.06898,0.1243 1.9888,-1.00351 1.9888,-1.9888c0,-1.17836 -0.91733,-1.86367 -1.9888,-1.9888c-0.99771,-0.11601 -1.99708,-0.21711 -2.99645,-0.32152c-0.7168,-0.07458 -1.70705,0.00331 -2.3186,-0.41019c-0.48891,-0.32981 -0.55935,-0.80878 -0.56432,-1.34575c-0.01409,-1.62004 0,-3.24174 0,-4.86178l0,-7.01133c0,-1.30763 -0.09613,-2.65587 0,-3.96102c0.13259,-1.80069 2.48102,-1.34409 3.76628,-1.34409l38.28348,0c8.10766,0 16.21531,0 24.32214,0c4.07703,0 8.06954,0.12761 11.81179,2.00205c5.24379,2.62687 8.79462,7.51848 10.10142,13.19069c1.39796,6.06665 0.29003,12.94623 -3.38758,18.0218c-1.74185,2.40396 -4.13835,4.27757 -6.80002,5.56283c-1.7692,0.85352 -3.65607,1.45762 -5.4435,2.27883c-1.86532,0.85684 -3.70247,1.82058 -5.37721,3.01468c-6.29371,4.48722 -8.30902,11.951 -8.32145,19.33109c-0.00912,5.52388 0,11.04776 0,16.57164c0,0.40025 0.05966,0.86181 0.00829,1.25708c-0.06381,0.48643 -0.30909,0.78475 -0.7632,0.94053c-0.51957,0.17816 -1.27449,0.20882 -1.59684,0.25109c-3.25831,0.43008 -6.52988,0.7632 -9.79067,1.17173c-0.96125,0.12016 -2.11972,0.41102 -2.29872,-0.81706c-0.11187,-0.76486 0,-1.63661 0,-2.41059l0,-2.7868c0,-3.5326 0,-7.0652 0,-10.59862c0,-10.37571 0.00994,-20.75142 0,-31.12714c-0.00497,-4.88912 -1.52723,-9.71609 -6.27962,-11.90045c-2.92021,-1.34161 -6.15035,-1.56203 -9.29928,-1.95896c-3.75634,-0.47317 -7.51682,-0.91567 -11.2773,-1.35735c-3.92621,-0.46074 -7.85326,-0.9165 -11.77864,-1.38304c-1.06815,-0.12679 -1.9888,1.00517 -1.9888,1.9888c0,1.18085 0.91733,1.86118 1.9888,1.9888l-0.00166,0.00166z" class="f"/>
    <path stroke="null" fill="#211715" d="m29.26191,188.00466c0,7.79856 0,15.59796 0,23.39652c0,2.55975 3.97759,2.56389 3.97759,0c0,-7.79856 0,-15.59796 0,-23.39652c0,-2.55975 -3.97759,-2.56389 -3.97759,0l0,0z" class="f"/>
    <path stroke="null" fill="#c6c6c6" d="m72.46601,62.77352c1.94985,-1.91587 3.32377,-4.5444 3.9171,-6.79174c2.82326,-10.73369 5.35815,-25.95295 6.52822,-33.63467c1.03417,-6.85886 1.272,-9.51307 1.34824,-13.20146c0.01657,-0.65299 -0.35633,-1.55126 -1.509,-1.83964c-0.94965,-0.22871 -1.57695,0.34804 -2.06006,1.28857c-6.45198,13.82876 -11.62451,24.91878 -16.74566,35.91599l-8.52116,18.26294c-2.48434,5.34074 -5.11203,10.96158 -7.98584,17.12519c3.15473,0.45411 5.85617,1.86532 7.89303,3.8939c1.74683,-3.84086 4.67201,-10.19175 6.52822,-14.20994c0.48311,-1.05986 1.21234,-1.96725 2.08575,-2.67907l8.52116,-4.12924l0,-0.00083z" class="g"/>
    <path stroke="null" fill="#c6c6c6" d="m49.00568,12.48351c-0.59415,-1.27283 -1.19825,-2.56803 -1.81478,-3.88892c-0.47482,-0.94136 -1.11041,-1.51729 -2.06006,-1.28857c-1.1535,0.28838 -1.51729,1.18665 -1.509,1.83964c0.08452,3.68839 0.31406,6.34177 1.35652,13.20146c1.16179,7.68172 3.70496,22.90098 6.52822,33.63467c0.58504,2.24651 1.95896,4.88332 3.9171,6.79174c0.33892,0.33892 0.68696,0.6447 1.05986,0.92396c1.18665,0.88999 2.59455,1.33084 4.0356,1.61092c1.272,0.2544 2.45036,0.80546 3.4257,1.59435c0.8817,0.71182 1.59435,1.61921 2.08575,2.67907c1.94902,4.23779 5.09297,11.05853 6.79754,14.80741c1.98299,-2.08824 4.66953,-3.54669 7.83585,-4.00577c-12.08939,-25.93969 -19.74128,-42.36466 -31.65831,-67.89914l0,-0.00083z" class="g"/>
    <path stroke="null" fill="#211715" d="m74.54761,83.3907c-2.06503,-4.5386 -4.15575,-9.06642 -6.24067,-13.5959c-1.27283,-2.76691 -2.98402,-4.89741 -5.91418,-6.01113c-1.27532,-0.48477 -2.67493,-0.55189 -3.90218,-1.17753c-1.16925,-0.59581 -2.14624,-1.60761 -2.90944,-2.66333c-1.56783,-2.17027 -2.20176,-4.5734 -2.82575,-7.13315c-0.64222,-2.6335 -1.22477,-5.28108 -1.77417,-7.93612c-1.08969,-5.26368 -2.05095,-10.55387 -2.93762,-15.85484c-0.75574,-4.52368 -1.52309,-9.06145 -2.02691,-13.62159c-0.20219,-1.83052 -0.33229,-3.66518 -0.38782,-5.50565c-0.00663,-0.21297 -0.01574,-0.42593 -0.0174,-0.63807c0,0.01326 -0.04392,-0.1127 -0.00249,-0.10856c-0.01906,-0.00166 -0.05386,0.07127 0.00994,0.08452c0.15413,0.03315 -0.26352,-0.00746 -0.24446,-0.00663c-0.33892,-0.01574 -0.16988,-0.29583 -0.06629,0.04143c0.43836,1.4195 1.33332,2.83901 1.96394,4.19139c4.97116,10.65083 9.93983,21.30331 14.90602,31.9558c4.89327,10.4967 9.7857,20.99422 14.67731,31.49175c0.69691,1.49491 1.39299,2.98982 2.08989,4.48473c0.45411,0.97368 1.85538,1.21979 2.72134,0.71348c0.99854,-0.58421 1.16925,-1.74351 0.71348,-2.72134c-5.24213,-11.24747 -10.48344,-22.49576 -15.7264,-33.74323c-5.14601,-11.03864 -10.29367,-22.07563 -15.44465,-33.11262c-0.73834,-1.58109 -1.44602,-3.18124 -2.21585,-4.74659c-0.69276,-1.40956 -1.9283,-2.55809 -3.58895,-2.50505c-1.56369,0.04889 -3.02794,1.10212 -3.5442,2.57632c-0.33312,0.95131 -0.21794,1.98714 -0.17651,2.97656c0.19639,4.66621 0.94136,9.29845 1.65982,13.90748c1.65733,10.63508 3.42321,21.38038 6.24316,31.77847c0.78972,2.91276 2.37247,5.70039 4.55683,7.79276c1.17339,1.12367 2.51003,1.9341 4.04886,2.45782c1.37393,0.46737 2.80172,0.56266 4.05051,1.35984c2.1247,1.3557 2.93762,4.35298 3.94279,6.53817c1.17173,2.54566 2.34264,5.09215 3.51022,7.64029c0.47317,1.03252 0.94468,2.06503 1.41536,3.09838c0.44499,0.97782 1.86118,1.21648 2.72134,0.71348c1.00517,-0.58752 1.16013,-1.73937 0.71348,-2.72134l0,0l0.00166,0z" class="f"/>
    <path stroke="null" fill="#211715" d="m53.70669,61.77001c-2.6567,5.71199 -5.325,11.41817 -7.98667,17.12684c-0.45328,0.97285 -0.27346,2.14376 0.71348,2.72134c0.86098,0.50383 2.26474,0.26434 2.72134,-0.71348c2.6625,-5.70867 5.32997,-11.41569 7.98667,-17.12684c0.45245,-0.97368 0.27429,-2.14376 -0.71348,-2.72134c-0.86015,-0.503 -2.2664,-0.26517 -2.72134,0.71348l0,0z" class="f"/>
    <path stroke="null" fill="#211715" d="m57.04787,84.79612c1.29106,-2.83901 2.59372,-5.67221 3.89804,-8.50542c0.65796,-1.42862 1.31592,-2.85724 1.97554,-4.28585c0.65299,-1.41536 1.21482,-2.67079 2.43047,-3.69584c0.82121,-0.69276 0.71431,-2.09818 0,-2.81249c-0.81375,-0.81375 -1.9888,-0.69442 -2.81249,0c-1.33001,1.12201 -2.13961,2.52494 -2.85806,4.08035c-0.68696,1.48745 -1.37227,2.97491 -2.05757,4.46319c-1.34161,2.91359 -2.68156,5.82883 -4.00991,8.74821c-0.44416,0.977 -0.27926,2.14044 0.71348,2.72134c0.85435,0.49968 2.27386,0.26932 2.72134,-0.71348l0,0l-0.00083,0z" class="f"/>
    <path stroke="null" fill="#211715" d="m65.66184,45.51409c2.84646,-6.1114 5.69376,-12.22198 8.54353,-18.33255c1.55623,-3.33703 3.11246,-6.67407 4.66953,-10.0111c0.83281,-1.78494 1.66479,-3.56906 2.4976,-5.354c0.38864,-0.83281 0.79303,-1.65982 1.18499,-2.49014c0.17153,-0.36461 0.19391,-0.21214 -0.19308,-0.10441c-0.14916,0.04143 -0.09032,-0.12679 -0.10358,-0.12099c0.07789,-0.03398 -0.01906,0.36958 0.02983,0.11933c0.04475,-0.23037 -0.02072,0.18148 -0.02652,0.24611c-0.0232,0.2428 -0.01243,0.49306 -0.02072,0.73751c-0.0174,0.54858 -0.04143,1.09715 -0.07292,1.64573c-0.06298,1.10295 -0.15827,2.20259 -0.27595,3.30057c-0.29832,2.77437 -0.72094,5.53548 -1.15102,8.29245c-0.92065,5.89926 -1.93493,11.78527 -3.07766,17.64559c-0.70519,3.61546 -1.45845,7.22264 -2.31197,10.80579c-0.83612,3.51188 -1.67059,6.82157 -4.29414,9.47081c-1.80317,1.82058 1.00849,4.63472 2.81249,2.81249c2.6567,-2.68322 4.01737,-5.96141 4.91315,-9.56362c0.85104,-3.42239 1.59601,-6.87046 2.29209,-10.32765c1.29852,-6.45198 2.42799,-12.93794 3.44725,-19.43965c0.49886,-3.18207 0.98528,-6.37077 1.33415,-9.57356c0.12761,-1.17256 0.23037,-2.34844 0.295,-3.52597s0.2776,-2.55809 -0.05718,-3.7033c-0.53366,-1.82223 -2.52577,-3.09258 -4.40684,-2.70145c-2.1189,0.44085 -2.85226,2.53903 -3.66601,4.28254c-1.75926,3.7696 -3.51768,7.54002 -5.27611,11.31045c-3.50857,7.52262 -7.01548,15.04524 -10.5199,22.56951c-0.45328,0.97285 -0.27346,2.14376 0.71348,2.72134c0.86098,0.503 2.26557,0.26434 2.72134,-0.71348l0,0l-0.00083,0.00166z" class="f"/>
    <path stroke="null" fill="#3d8dcc" d="m103.80859,103.4361c-0.15082,-0.65796 -0.61155,-1.44519 -2.33435,-1.61175c-2.86635,-0.2776 -5.59846,-1.58358 -5.98959,-2.03106c0.70934,-1.7576 1.08721,-3.74722 1.08721,-5.90755c0,-7.41406 -5.64569,-13.6564 -13.74175,-13.6564s-13.74092,6.29288 -13.74092,13.6564c0,0.88833 0.06712,1.74765 0.19639,2.573c1.06815,6.82405 6.40475,11.34028 13.54535,11.34028c3.58812,0 6.63843,-1.06649 8.94709,-2.93762c0.86264,0.47068 1.74517,0.78806 2.6393,0.99937c2.41887,0.57841 3.71159,0.80961 6.19261,0.67619c0.88004,-0.04475 1.79572,-0.14253 2.55229,-0.59581c0.75574,-0.45328 0.84192,-1.64241 0.64636,-2.50422l0,-0.00083zm-20.69922,-2.73128c-3.88561,0 -6.66992,-2.75365 -6.66992,-6.75362c0,-3.57403 2.72631,-6.62849 6.66992,-6.62849s6.66992,3.03043 6.66992,6.62849c0,3.97345 -2.63515,6.75362 -6.66992,6.75362z" class="d"/>
    <path stroke="null" fill="#3d8dcc" d="m45.20459,79.73961c-8.41343,0 -14.229,6.51662 -14.229,14.14116c0,8.53193 5.9407,14.40717 14.22983,14.40717c8.60817,0 14.22983,-5.92993 14.22983,-14.40717c0,-7.67675 -5.84623,-14.14116 -14.22983,-14.14116l-0.00083,0zm0.00083,20.96522c-3.88561,0 -6.66992,-2.75365 -6.66992,-6.75362c0,-3.57403 2.72631,-6.62849 6.66992,-6.62849s6.66992,3.03043 6.66992,6.62849c0,3.97345 -2.63515,6.75362 -6.66992,6.75362z" class="d"/>
    <path stroke="null" fill="#211715" d="m71.20312,95.92923c-0.82038,-5.66392 2.26225,-11.43309 7.87066,-13.1534s11.82836,0.63807 14.40054,6.01196c1.56369,3.26825 1.38553,7.15718 0.09281,10.47598c-0.2486,0.6389 0.04641,1.47668 0.51129,1.93493c1.10792,1.09218 2.89618,1.64821 4.34883,2.05675c1.04329,0.29335 2.15039,0.30909 3.18124,0.59332c-0.07044,-0.01906 0.3845,0.10275 0.26766,0.07375c0.30495,0.07375 0.05966,0.19391 0.03646,0c0.00912,0.07707 -0.01657,-0.11518 -0.0174,0.00912c-0.00083,0.13176 0.02735,0.49471 0.02569,0.49057c-0.13093,-0.2428 0.52786,-0.17236 -0.03895,-0.07292c-0.18231,0.03232 -0.35964,0.10524 -0.5436,0.13673c-0.95048,0.16159 -1.98962,0.12596 -2.95005,0.06961c-1.8703,-0.11021 -3.94362,-0.5436 -5.60757,-1.41204c-0.86844,-0.45328 -1.67887,-0.26683 -2.40976,0.31075c-3.3851,2.67493 -8.58414,3.05197 -12.50704,1.42447c-3.77788,-1.56783 -6.00782,-5.01176 -6.66164,-8.94958c-0.17568,-1.06069 -1.48828,-1.65236 -2.44622,-1.38884c-1.12533,0.30909 -1.56535,1.38304 -1.38884,2.44622c0.87093,5.24959 4.27508,9.61997 9.20812,11.63114c5.4551,2.22414 12.00984,1.28277 16.60893,-2.35092l-2.40976,0.31075c2.38904,1.24797 5.23716,1.86615 7.92535,1.97056c2.59123,0.10027 6.1951,-0.03812 7.03288,-3.05446c0.63641,-2.2896 -0.49057,-4.69107 -2.78597,-5.40289c-1.33581,-0.41433 -2.76608,-0.43008 -4.11432,-0.8701c-0.47814,-0.15579 -0.94799,-0.32732 -1.39796,-0.55189c-0.15496,-0.07707 -0.30412,-0.17485 -0.46074,-0.24611c-0.44334,-0.20219 0.03315,0.07624 -0.08204,-0.03729l0.51129,1.93493c2.85889,-7.34031 0.2834,-16.27995 -6.79339,-20.13573c-6.84229,-3.72733 -15.738,-1.94322 -20.43239,4.28834c-2.72714,3.61961 -3.44725,8.10683 -2.80917,12.51284c0.15413,1.06401 1.5032,1.64821 2.44622,1.38884c1.1419,-0.31406 1.5438,-1.3789 1.38884,-2.44622l0,0.00083z" class="f"/>
    <path stroke="null" fill="#211715" d="m45.20459,77.75081c-7.06437,0.06629 -13.35062,4.41595 -15.48194,11.22841c-1.97222,6.30282 -0.02237,13.82876 5.25208,17.93065c5.24213,4.07537 13.16251,4.50048 18.8919,1.16262c5.84872,-3.4083 8.31151,-10.40389 7.3254,-16.90062c-1.19742,-7.88889 -8.15986,-13.3473 -15.98743,-13.42023c-2.56057,-0.02403 -2.56223,3.95356 0,3.97759c5.3134,0.04972 10.11137,3.23925 11.68417,8.41426c1.45431,4.78637 0.14419,10.57708 -3.82097,13.69369c-3.78783,2.97739 -9.8752,3.29311 -14.12211,0.95545c-4.41098,-2.42882 -6.52739,-7.57897 -5.89264,-12.55096c0.78806,-6.1719 6.03931,-10.45526 12.15237,-10.51244c2.55809,-0.02403 2.56472,-4.00162 0,-3.97759l-0.00083,-0.00083z" class="f"/>
    <path stroke="null" fill="#211715" d="m45.20542,85.33392c-3.78948,0.04889 -7.12237,2.38075 -8.27256,6.02688c-1.05489,3.34283 0.02403,7.33948 2.81166,9.50727s6.93427,2.4313 10.0111,0.67288c3.1887,-1.82306 4.50214,-5.58023 3.97013,-9.09128c-0.63476,-4.18724 -4.38612,-7.06271 -8.5195,-7.11574c-1.07478,-0.01409 -1.9888,0.92396 -1.9888,1.9888c0,1.08969 0.9107,1.97471 1.9888,1.9888c0.19391,0.00249 0.38699,0.01657 0.58007,0.02237c0.58172,0.01823 -0.34141,-0.09861 0.21545,0.02652c0.29583,0.06629 0.58918,0.12927 0.87838,0.22374c0.1127,0.03729 0.22374,0.07707 0.33395,0.11933c-0.41102,-0.15745 0.11021,0.06049 0.16159,0.08784c0.30412,0.15745 0.5983,0.33892 0.87176,0.54526c-0.33312,-0.25026 0.26849,0.26186 0.36047,0.35715c0.11767,0.12099 0.22705,0.24777 0.3381,0.37539c-0.25771,-0.29583 -0.01409,-0.02237 0.04392,0.06712c0.16905,0.26186 0.31572,0.52952 0.47068,0.79966c0.03895,0.06795 0.15496,0.34887 0.00829,-0.00994c0.08618,0.21131 0.15993,0.42842 0.22291,0.64719c0.08038,0.2776 0.14253,0.56101 0.18645,0.8469c-0.06298,-0.41599 -0.00746,-0.02237 -0.00497,0.08452c0.00249,0.14916 0.01409,0.29749 0.01492,0.44665c0,0.30412 -0.01906,0.60658 -0.04806,0.90905c0.04392,-0.46654 -0.02072,0.0953 -0.03398,0.16408c-0.03895,0.19474 -0.08535,0.38782 -0.14004,0.57841c-0.03812,0.13342 -0.07955,0.266 -0.12513,0.39693c-0.02817,0.08038 -0.25854,0.55189 -0.04558,0.1301c-0.12016,0.23866 -0.23948,0.47482 -0.38201,0.70105c-0.06961,0.11021 -0.15662,0.2138 -0.22125,0.32567c-0.14502,0.25026 0.30826,-0.31489 -0.03066,0.02569c-0.22291,0.22374 -0.43422,0.44416 -0.67205,0.65216c0.35633,-0.31241 -0.02817,0.01409 -0.10275,0.06298c-0.08784,0.05801 -0.17816,0.11436 -0.26932,0.16822c-0.13839,0.08121 -0.2834,0.14999 -0.42345,0.22788c-0.43008,0.23866 0.23948,-0.04309 -0.04889,0.02569c-0.29749,0.07127 -0.58255,0.19971 -0.88336,0.26932c-0.1127,0.02652 -0.22623,0.04475 -0.33892,0.07044c-0.23203,0.03729 -0.23037,0.03978 0.00331,0.0058c-0.12016,0.01326 -0.24031,0.02403 -0.3613,0.03232c-0.30743,0.02072 -0.61653,0.02403 -0.92479,0.00994c-0.17899,-0.00829 -0.35881,-0.02237 -0.53697,-0.04309c0.08701,0.00994 0.37456,0.08038 0.00829,-0.00746c-0.30495,-0.07375 -0.60741,-0.13507 -0.90573,-0.23451c-0.13176,-0.04392 -0.26186,-0.09032 -0.3903,-0.14336c0.43339,0.17816 -0.10524,-0.06795 -0.18976,-0.11436c-0.25937,-0.1417 -0.5088,-0.29998 -0.74497,-0.47814c0.36461,0.27512 -0.22705,-0.22954 -0.31572,-0.32152c-0.08784,-0.09115 -0.16988,-0.21794 -0.26766,-0.29666c-0.21794,-0.17319 0.22623,0.36047 -0.03315,-0.04226c-0.17733,-0.27677 -0.33644,-0.55521 -0.49637,-0.84109c-0.25689,-0.45825 0.10358,0.36793 -0.06215,-0.13756c-0.03563,-0.10773 -0.07624,-0.21297 -0.11021,-0.32069c-0.10524,-0.33395 -0.18148,-0.6737 -0.24031,-1.01843c0.01409,0.0837 0.03149,0.38616 0.00331,-0.00994c-0.01326,-0.18562 -0.02735,-0.37041 -0.03149,-0.55686c-0.00331,-0.15247 -0.00249,-0.30412 0.00331,-0.45659c0.00414,-0.09695 0.07458,-0.7226 0.00331,-0.25854c0.05221,-0.34141 0.13093,-0.67868 0.23451,-1.00766c0.05138,-0.16242 0.10773,-0.32401 0.17236,-0.48145c-0.13176,0.32401 0.0174,-0.01409 0.08452,-0.14004c0.15662,-0.29749 0.33644,-0.58587 0.53863,-0.85518c-0.2718,0.3613 0.07624,-0.07044 0.1185,-0.11601c0.11436,-0.1243 0.23368,-0.24363 0.35715,-0.35881c0.04309,-0.03978 0.47482,-0.39444 0.1185,-0.12347c0.1359,-0.10358 0.27843,-0.19971 0.42262,-0.29003c0.14585,-0.09198 0.29583,-0.17816 0.44914,-0.25771c0.11021,-0.05718 0.4856,-0.21462 0.16242,-0.0895c0.33561,-0.1301 0.68116,-0.23451 1.03334,-0.30992c0.04806,-0.00994 0.64222,-0.09032 0.20799,-0.04558c0.25689,-0.02652 0.51377,-0.03646 0.77232,-0.03978c1.07478,-0.01409 1.9888,-0.90407 1.9888,-1.9888c0,-1.06732 -0.90987,-2.00288 -1.9888,-1.9888l0,0.00083z" class="f"/>
    <path stroke="null" fill="#211715" d="m83.10855,85.33392c-3.78948,0.04889 -7.12237,2.38075 -8.27256,6.02688c-1.05489,3.34283 0.02403,7.33948 2.81166,9.50727s6.93427,2.4313 10.0111,0.67288c3.1887,-1.82306 4.50214,-5.58023 3.97013,-9.09128c-0.63476,-4.18724 -4.38612,-7.06271 -8.5195,-7.11574c-1.07478,-0.01409 -1.9888,0.92396 -1.9888,1.9888c0,1.08969 0.9107,1.97471 1.9888,1.9888c0.19391,0.00249 0.38699,0.01657 0.58007,0.02237c0.58172,0.01823 -0.34141,-0.09861 0.21545,0.02652c0.29583,0.06629 0.58918,0.12927 0.87838,0.22374c0.1127,0.03729 0.22374,0.07707 0.33395,0.11933c-0.41102,-0.15745 0.11021,0.06049 0.16159,0.08784c0.30412,0.15745 0.5983,0.33892 0.87176,0.54526c-0.33312,-0.25026 0.26849,0.26186 0.36047,0.35715c0.11767,0.12099 0.22705,0.24777 0.3381,0.37539c-0.25771,-0.29583 -0.01409,-0.02237 0.04392,0.06712c0.16905,0.26186 0.31572,0.52952 0.47068,0.79966c0.03895,0.06795 0.15496,0.34887 0.00829,-0.00994c0.08618,0.21131 0.15993,0.42842 0.22291,0.64719c0.08038,0.2776 0.14253,0.56101 0.18645,0.8469c-0.06298,-0.41599 -0.00746,-0.02237 -0.00497,0.08452c0.00249,0.14916 0.01409,0.29749 0.01492,0.44665c0,0.30412 -0.01906,0.60658 -0.04806,0.90905c0.04392,-0.46654 -0.02072,0.0953 -0.03398,0.16408c-0.03895,0.19474 -0.08535,0.38782 -0.14004,0.57841c-0.03812,0.13342 -0.07955,0.266 -0.12513,0.39693c-0.02817,0.08038 -0.25854,0.55189 -0.04558,0.1301c-0.12016,0.23866 -0.23948,0.47482 -0.38201,0.70105c-0.06961,0.11021 -0.15662,0.2138 -0.22125,0.32567c-0.14502,0.25026 0.30826,-0.31489 -0.03066,0.02569c-0.22291,0.22374 -0.43422,0.44416 -0.67205,0.65216c0.35633,-0.31241 -0.02817,0.01409 -0.10275,0.06298c-0.08784,0.05801 -0.17816,0.11436 -0.26932,0.16822c-0.13839,0.08121 -0.2834,0.14999 -0.42345,0.22788c-0.43008,0.23866 0.23948,-0.04309 -0.04889,0.02569c-0.29749,0.07127 -0.58255,0.19971 -0.88336,0.26932c-0.1127,0.02652 -0.22623,0.04475 -0.33892,0.07044c-0.23203,0.03729 -0.23037,0.03978 0.00331,0.0058c-0.12016,0.01326 -0.24031,0.02403 -0.3613,0.03232c-0.30743,0.02072 -0.61653,0.02403 -0.92479,0.00994c-0.17899,-0.00829 -0.35881,-0.02237 -0.53697,-0.04309c0.08701,0.00994 0.37456,0.08038 0.00829,-0.00746c-0.30495,-0.07375 -0.60741,-0.13507 -0.90573,-0.23451c-0.13176,-0.04392 -0.26186,-0.09032 -0.3903,-0.14336c0.43339,0.17816 -0.10524,-0.06795 -0.18976,-0.11436c-0.25937,-0.1417 -0.5088,-0.29998 -0.74497,-0.47814c0.36461,0.27512 -0.22705,-0.22954 -0.31572,-0.32152c-0.08784,-0.09115 -0.16988,-0.21794 -0.26766,-0.29666c-0.21794,-0.17319 0.22623,0.36047 -0.03315,-0.04226c-0.17733,-0.27677 -0.33644,-0.55521 -0.49637,-0.84109c-0.25689,-0.45825 0.10358,0.36793 -0.06215,-0.13756c-0.03563,-0.10773 -0.07624,-0.21297 -0.11021,-0.32069c-0.10524,-0.33395 -0.18148,-0.6737 -0.24031,-1.01843c0.01409,0.0837 0.03149,0.38616 0.00331,-0.00994c-0.01326,-0.18562 -0.02735,-0.37041 -0.03149,-0.55686c-0.00331,-0.15247 -0.00249,-0.30412 0.00331,-0.45659c0.00414,-0.09695 0.07458,-0.7226 0.00331,-0.25854c0.05221,-0.34141 0.13093,-0.67868 0.23451,-1.00766c0.05138,-0.16242 0.10773,-0.32401 0.17236,-0.48145c-0.13176,0.32401 0.0174,-0.01409 0.08452,-0.14004c0.15662,-0.29749 0.33644,-0.58587 0.53863,-0.85518c-0.2718,0.3613 0.07624,-0.07044 0.1185,-0.11601c0.11436,-0.1243 0.23368,-0.24363 0.35715,-0.35881c0.04309,-0.03978 0.47482,-0.39444 0.1185,-0.12347c0.1359,-0.10358 0.27843,-0.19971 0.42262,-0.29003c0.14585,-0.09198 0.29583,-0.17816 0.44914,-0.25771c0.11021,-0.05718 0.4856,-0.21462 0.16242,-0.0895c0.33561,-0.1301 0.68116,-0.23451 1.03334,-0.30992c0.04806,-0.00994 0.64222,-0.09032 0.20799,-0.04558c0.25689,-0.02652 0.51377,-0.03646 0.77232,-0.03978c1.07478,-0.01409 1.9888,-0.90407 1.9888,-1.9888c0,-1.06732 -0.90987,-2.00288 -1.9888,-1.9888l0,0.00083z" class="f"/>
    <path stroke="null" fill="#ffffff" d="m-122.25613,108.42549c-0.82369,-1.06732 -1.31426,-2.40479 -1.31426,-3.85909c0,-10.11551 0,-30.83379 0,-50.79467l0,-42.78148c0,-3.49862 2.83652,-6.33514 6.33514,-6.33514l22.66813,0c2.7462,0 4.97199,2.22579 4.97199,4.97116c0,13.74589 0,34.50892 0.00083,46.33645c0,2.7462 -2.22414,4.97199 -4.97033,4.97199c-3.96185,0 -9.39789,0 -12.84016,-0.00166c-1.82389,0 -3.30306,1.47337 -3.30306,3.29726c-0.00083,8.87334 0,28.75881 0,40.35929c0,3.48205 -2.82243,6.29785 -6.30448,6.29868l-0.22871,0c-2.04183,0 -3.85826,-0.96374 -5.01591,-2.46279l0.00083,0z" class="e"/>
    <path stroke="null" fill="#211715" d="m-120.53914,107.42115c-1.4079,-1.91919 -1.04246,-4.2784 -1.04246,-6.53651c0,-2.52743 0,-5.05403 0,-7.58145c0,-6.30531 0,-12.60979 0,-18.9151c0,-8.14163 0,-16.28326 0,-24.42489l0,-19.95922c0,-5.84706 0,-11.69495 0,-17.542c0,-0.46902 -0.00663,-0.93888 0,-1.40707c0.02486,-1.6333 0.83115,-3.08098 2.27137,-3.88312c1.69462,-0.94385 4.35546,-0.52703 6.21333,-0.52703c6.0882,0 12.17723,-0.03646 18.26543,0c1.30018,0.00746 2.53737,0.57841 3.04617,1.86864c0.3845,0.97368 0.20054,2.18519 0.20054,3.21273c0,1.33332 0,2.66747 0,4.00079c0,5.98462 0,11.97006 0,17.95468c0,5.67055 0,11.34028 0,17.01083c0,1.23222 0,2.46362 0,3.69584c0,0.98694 0.13176,2.02028 -0.31986,2.92767c-1.14107,2.29209 -4.28337,1.63164 -6.36166,1.63164c-2.95916,0 -5.91915,-0.03315 -8.87831,-0.00166c-3.14561,0.03398 -5.51228,2.29706 -5.55371,5.4725c-0.06132,4.67367 0,9.35314 0,14.02681c0,5.64901 0,11.29802 0,16.94702c0,2.56886 0,5.13772 0,7.70658c0,1.07395 0.09447,2.16033 -0.32898,3.17544c-0.39113,0.93722 -1.14356,1.71368 -2.04432,2.16944c-2.05757,1.03997 -4.38364,0.29832 -5.77911,-1.42447c-0.67702,-0.83529 -2.10895,-0.70354 -2.81249,0c-0.82535,0.82535 -0.67868,1.97554 0,2.81249c4.08035,5.03497 12.29076,3.45553 14.47843,-2.51417c0.87507,-2.38738 0.46571,-5.34489 0.46488,-7.84828c0,-2.84232 0,-5.68464 0,-8.52696c0,-5.82054 0,-11.64191 0,-17.46245c0,-2.37993 0,-4.75985 0,-7.13978c0,-0.77314 -0.22208,-1.99045 0.12513,-2.68487c0.48477,-0.96788 1.66976,-0.73254 2.5672,-0.73254c3.14313,0 6.28625,0.00083 9.42938,0.00166c1.44105,0 2.93099,0.10441 4.31071,-0.38864c1.45845,-0.52206 2.67659,-1.47917 3.5442,-2.76111c1.52226,-2.24817 1.13859,-5.14352 1.13859,-7.71901c0,-2.77106 0,-5.54211 0,-8.31317c0,-6.24399 0,-12.48798 0,-18.73197c0,-2.99314 0,-5.98545 0,-8.97858c0,-1.43608 0,-2.87132 0,-4.3074c0,-1.36813 0.10938,-2.79674 -0.30163,-4.12095c-0.91319,-2.93845 -3.61381,-4.86343 -6.65998,-4.93636c-0.59747,-0.01409 -1.19742,0 -1.79572,0l-10.15612,0c-3.1887,0 -6.3774,0 -9.56611,0c-1.04412,0 -2.05923,-0.00414 -3.09258,0.22954c-2.86967,0.64884 -5.20899,2.95419 -6.04428,5.74845c-0.4972,1.66396 -0.33727,3.55 -0.33727,5.26948l0,8.75401c0,7.48781 0,14.97563 0,22.46344c0,6.05588 0,12.11259 0,18.16848c0,12.80784 0,25.61651 0,38.42436c0,2.72216 -0.11436,5.38715 1.58524,7.70327c0.63476,0.86513 1.72528,1.29603 2.72134,0.71348c0.85352,-0.49886 1.35238,-1.85041 0.71348,-2.72134l-0.00083,0.00083z" class="f"/>
    <path stroke="null" fill="#211715" d="m-109.16074,17.9005c6.52159,0 13.04401,0 19.5656,0c2.55975,0 2.56389,-3.97759 0,-3.97759c-6.52159,0 -13.04401,0 -19.5656,0c-2.55975,0 -2.56389,3.97759 0,3.97759l0,0z" class="f"/>
    <path stroke="null" fill="#211715" d="m-109.16074,29.15625c6.52159,0 13.04401,0 19.5656,0c2.55975,0 2.56389,-3.97759 0,-3.97759c-6.52159,0 -13.04401,0 -19.5656,0c-2.55975,0 -2.56389,3.97759 0,3.97759l0,0z" class="f"/>
    <path stroke="null" fill="#211715" d="m-109.16074,40.41283c6.52159,0 13.04401,0 19.5656,0c2.55975,0 2.56389,-3.97759 0,-3.97759c-6.52159,0 -13.04401,0 -19.5656,0c-2.55975,0 -2.56389,3.97759 0,3.97759l0,0z" class="f"/>
    <path stroke="null" fill="#211715" d="m-109.16074,51.66859c6.52159,0 13.04401,0 19.5656,0c2.55975,0 2.56389,-3.97759 0,-3.97759c-6.52159,0 -13.04401,0 -19.5656,0c-2.55975,0 -2.56389,3.97759 0,3.97759l0,0z" class="f"/>
   </g>
  </g>
 </g>

</svg>