<svg width="128" height="113" xmlns="http://www.w3.org/2000/svg">
 <g id="Layer_1">
  <title>Layer 1</title>
  <g stroke="null">

   <g stroke="null" id="svg_28">
    <path stroke="null" fill="#f2635f" d="m41.83803,-94.38301l60.54517,0c-3.93853,-7.83358 -7.87626,-15.66635 -11.81479,-23.51121c3.93853,-7.84485 7.87626,-15.67763 11.81479,-23.51121l-60.54517,0l0,47.02242z" class="g"/>
    <path stroke="null" fill="#211715" d="m41.83803,-92.45039l60.54517,0c1.53483,0 2.31513,-1.62341 1.6685,-2.9078c-3.94014,-7.836 -7.87948,-15.6728 -11.81479,-23.51121l0,1.95115c3.93531,-7.83841 7.87545,-15.67441 11.81479,-23.51121c0.64582,-1.2852 -0.13367,-2.9078 -1.6685,-2.9078l-60.54517,0c-1.04442,0 -1.93263,0.88579 -1.93263,1.93263l0,47.02242c0,2.48745 3.86525,2.49148 3.86525,0l0,-47.02322l-1.93263,1.93263l60.54517,0l-1.6685,-2.9078c-3.16307,6.2915 -6.32694,12.58381 -9.48759,18.87693c-0.77466,1.54127 -1.6073,3.06643 -2.3272,4.63428c-0.50087,1.08952 -0.04026,1.87143 0.44773,2.84257c0.41793,0.83183 0.83506,1.66367 1.25299,2.4955c1.58073,3.14777 3.16226,6.29473 4.74379,9.44169c1.7901,3.56086 3.58019,7.12173 5.37029,10.68259l1.6685,-2.9078l-60.54517,0c-2.48745,0 -2.49148,3.86525 0,3.86525l0,-0.00081z" class="e"/>
    <path stroke="null" fill="#211715" d="m29.0384,-63.02776l0,-82.48289s4.48772,0 4.48772,0l0,82.48289c0,0.54516 -0.44209,0.98725 -0.98725,0.98725l-2.51322,0c-0.54516,0 -0.98725,-0.44209 -0.98725,-0.98725z" class="e"/>
    <path stroke="null" fill="#211715" d="m30.97103,-63.02776c0,-2.73145 0,-5.4637 0,-8.19514c0,-6.56127 0,-13.12334 0,-19.68461l0,-23.82043c0,-6.86807 0,-13.73614 0,-20.60341l0,-6.79801c0,-1.06214 0.09824,-2.17743 0,-3.23634c-0.00403,-0.04751 0,-0.09744 0,-0.14495l-1.93263,1.93263l4.48772,0l-1.93263,-1.93263c0,2.73145 0,5.4637 0,8.19514c0,6.59348 0,13.18696 0,19.78043c0,7.94068 0,15.88136 0,23.82204l0,20.64367c0,3.29432 -0.1385,6.62247 0,9.91518c0.00564,0.13528 -0.01611,0.24802 -0.03543,0.38894l0.26413,-0.97517c-0.04671,0.16749 -0.13126,0.31244 -0.25366,0.43565l0.69333,-0.69333c-0.1232,0.1224 -0.26815,0.20695 -0.43565,0.25366l0.97517,-0.26413c-0.50087,0.06764 -1.01382,0.03543 -1.51872,0.03543c-0.29795,0 -0.59992,-0.01449 -0.89787,0c-0.87532,0.04268 0.43243,-0.1997 0.51778,0.43162c-0.13931,-1.03557 -1.4688,-1.59925 -2.37713,-1.34962c-1.1177,0.30761 -1.48973,1.33834 -1.34962,2.37713c0.22225,1.65159 1.77641,2.40612 3.28144,2.40612c0.90914,0 1.96886,0.13931 2.85868,-0.10468c1.44866,-0.39699 2.11542,-1.73292 2.14361,-3.12441c0.02818,-1.37458 0,-2.75238 0,-4.12696c0,-6.22225 0,-12.4445 0,-18.66595l0,-25.24896c0,-7.5606 0,-15.122 0,-22.68259c0,-3.75332 0.13126,-7.53241 0,-11.28412c-0.00161,-0.05476 0,-0.10952 0,-0.16427c0,-1.04442 -0.88579,-1.93263 -1.93263,-1.93263l-4.48772,0c-1.04442,0 -1.93263,0.88579 -1.93263,1.93263c0,2.73145 0,5.4637 0,8.19514c0,6.56127 0,13.12334 0,19.68461l0,23.82043c0,6.86807 0,13.73614 0,20.60341c0,3.33539 -0.12965,6.70058 0,10.03355c0.00161,0.04832 0,0.09663 0,0.14495c0,2.48745 3.86525,2.49148 3.86525,0l-0.00081,0z" class="e"/>
    <path stroke="null" fill="#ffffff" d="m31.07249,-143.71734c3.94336,0.12482 6.7658,-2.83371 6.87935,-6.39699c0.12643,-3.98685 -2.5712,-6.81976 -6.45658,-6.94296c-4.03516,-0.12804 -6.75775,2.55992 -6.88337,6.5202c-0.11354,3.58744 2.53094,6.69494 6.46061,6.81895l0,0.00081z" class="d"/>
    <path stroke="null" fill="#211715" d="m31.07249,-141.78471c3.7807,0.07086 7.10723,-2.20078 8.36264,-5.7697c1.12012,-3.184 0.20534,-7.20709 -2.42303,-9.39015c-2.77251,-2.30224 -6.87612,-2.70004 -10.06576,-1.01463c-3.10911,1.64354 -4.63186,5.33969 -4.18575,8.7395c0.56046,4.26869 4.06174,7.24654 8.3119,7.43578c1.04362,0.04671 1.93263,-0.92122 1.93263,-1.93263c0,-1.08549 -0.88579,-1.88592 -1.93263,-1.93263c-0.19326,-0.00886 -0.38733,-0.01772 -0.57979,-0.04107c0.40424,0.04751 -0.19487,-0.04429 -0.22708,-0.05154c-0.29714,-0.06442 -0.5822,-0.15944 -0.87129,-0.25124c-0.3527,-0.11274 -0.10871,-0.04268 -0.02979,-0.00644c-0.15864,-0.07328 -0.31405,-0.15139 -0.46705,-0.23594c-0.15058,-0.08375 -0.29795,-0.17394 -0.44048,-0.26976c-0.07408,-0.04993 -0.45095,-0.36398 -0.15461,-0.10629c-0.21259,-0.18521 -0.41954,-0.37445 -0.61039,-0.58301c-0.03543,-0.03865 -0.38089,-0.46947 -0.12562,-0.12723c-0.08375,-0.11193 -0.16266,-0.22789 -0.23836,-0.34626c-0.16749,-0.2609 -0.31325,-0.53228 -0.44531,-0.81251c0.03463,0.07408 0.11435,0.33982 0.00081,-0.00805c-0.07086,-0.21742 -0.14575,-0.43081 -0.20212,-0.65226c-0.03543,-0.1377 -0.13931,-0.91719 -0.10952,-0.50973c-0.02174,-0.29634 -0.03704,-0.58865 -0.02818,-0.88498c0.00564,-0.1836 0.02255,-0.36559 0.03463,-0.54838c0.02577,-0.38572 0.01369,-0.09985 -0.00081,-0.01691c0.06362,-0.3672 0.14495,-0.72876 0.25929,-1.08388c0.04268,-0.13206 0.09019,-0.26171 0.1377,-0.39216c-0.15461,0.41713 0.03865,-0.07167 0.07006,-0.13367c0.12079,-0.23836 0.26815,-0.45739 0.40424,-0.68689c0.25285,-0.42759 -0.16508,0.18118 0.02738,-0.04912c0.08375,-0.09985 0.1683,-0.1989 0.25768,-0.29392c0.1071,-0.11354 0.21823,-0.22306 0.33338,-0.32855c0.07489,-0.06845 0.44773,-0.34465 0.09261,-0.09261c0.215,-0.15219 0.43484,-0.29553 0.66595,-0.42196c0.14092,-0.0765 0.28426,-0.14736 0.43081,-0.21339c-0.36639,0.16588 -0.0306,0.0153 0.06925,-0.01449c0.29714,-0.08777 0.58704,-0.18038 0.89223,-0.24077c0.11274,-0.02255 0.22708,-0.04348 0.34143,-0.05959c-0.44209,0.06281 0.29714,-0.00886 0.37686,-0.01127c0.31083,-0.01047 0.61522,0.01208 0.92524,0.01933c0.5661,0.01288 -0.34868,-0.08777 0.19648,0.01852c0.11435,0.02255 0.22869,0.04187 0.34304,0.06764c0.306,0.06764 0.60234,0.16105 0.89867,0.26252c0.30197,0.10388 -0.39055,-0.20776 0.07408,0.02899c0.16991,0.08697 0.34063,0.16991 0.5049,0.26654c0.11596,0.06845 0.22628,0.14656 0.34224,0.215c0.43645,0.25688 -0.25527,-0.25285 0.11998,0.08455c0.19809,0.17796 0.39458,0.35431 0.57496,0.55241c0,0 0.33257,0.39941 0.15542,0.17233s0.13126,0.19568 0.13045,0.19487c0.17877,0.27218 0.33257,0.55885 0.47027,0.85438c-0.16991,-0.36639 0.1079,0.3374 0.14817,0.48074c0.04671,0.16588 0.08697,0.33338 0.12159,0.50168c0.01127,0.05556 0.08053,0.62005 0.03865,0.18521c0.02979,0.30519 0.0459,0.61039 0.04348,0.91719c-0.00161,0.15219 -0.01288,0.30278 -0.01772,0.45497c-0.00564,0.08777 -0.01288,0.17635 -0.02335,0.26332c0.03221,-0.22386 0.02979,-0.22225 -0.00725,0.00483c-0.07892,0.33821 -0.17072,0.66354 -0.26654,0.99691c-0.14656,0.51054 0.17555,-0.30439 -0.06362,0.16749c-0.0765,0.15058 -0.14978,0.30278 -0.23353,0.45014s-0.18118,0.28426 -0.26654,0.4292c-0.20132,0.34063 0.1836,-0.17716 -0.10307,0.14495c-0.22547,0.25446 -0.46303,0.48477 -0.70782,0.7191c-0.37767,0.36237 0.29875,-0.1691 -0.14334,0.11435c-0.14414,0.09261 -0.28345,0.18924 -0.43162,0.2754c-0.14978,0.08697 -0.30358,0.16266 -0.45739,0.24238c-0.38089,0.1997 0.19809,-0.03946 -0.1844,0.07328c-0.34787,0.10307 -0.68769,0.20212 -1.04362,0.2762c-0.5508,0.11515 0.34707,0.01288 -0.22708,0.02416c-0.25849,0.00483 -0.51456,0.02013 -0.77305,0.0153c-1.04442,-0.01933 -1.93263,0.9027 -1.93263,1.93263c0,1.06375 0.88498,1.9133 1.93263,1.93263l-0.00161,-0.00081z" class="e"/>
    <path stroke="null" fill="#ffda71" d="m-145.13313,76.37662c0,-8.76768 0,-17.53537 0,-26.30144c0,-1.39149 1.44705,-2.15971 2.4335,-1.29647c6.43001,5.62475 13.10965,11.04093 20.0196,16.23245c0.69655,0.52342 1.64998,0.31003 2.10898,-0.46947c4.59965,-7.80137 9.19769,-15.60354 13.79573,-23.40572c0.59267,-1.00577 1.92296,-1.00658 2.51564,-0.00161c4.17689,7.08791 11.30345,19.1789 13.79815,23.41297c0.4598,0.7803 1.41001,0.98806 2.10576,0.46464c6.90592,-5.1883 13.58073,-10.60046 20.00671,-16.22118c0.98644,-0.86324 2.4335,-0.09502 2.4335,1.29647c0,15.2903 0,28.14387 0,43.43739c0,0.918 -0.66837,1.66125 -1.49779,1.66125c-22.21715,0 -54.00564,0 -76.22199,0c-0.82942,0 -1.49779,-0.74406 -1.49779,-1.66125c0,-6.52906 0,-10.61978 0,-17.14884l0,0.00081z" class="f"/>
    <path stroke="null" fill="#211715" d="m-143.2005,76.37662c0,-5.44679 0,-10.89277 0,-16.33955c0,-2.65656 0,-5.31311 0,-7.96967c0,-0.26896 0.20293,-1.77802 0,-1.99222c0.18279,0.19407 -0.75372,0.34868 -0.64501,0.23755c-0.0153,0.01611 2.26278,1.98497 2.52933,2.21286c3.94336,3.37646 7.96323,6.66192 12.05476,9.85801c1.04281,0.81492 2.08965,1.62421 3.14052,2.42786c0.96551,0.73842 1.99141,1.78124 3.14293,2.19917c2.93196,1.06375 4.28238,-1.84324 5.49671,-3.9023c2.70568,-4.58918 5.41055,-9.17837 8.11542,-13.76835c0.67642,-1.1475 1.35203,-2.29499 2.02845,-3.44169c0.33821,-0.57335 0.67642,-1.1475 1.01463,-1.72084s0.94538,-1.26426 1.11609,-1.89317c0.11274,-0.41551 0.14092,0.00242 -0.12643,0.00161c0.01772,0 -0.30197,-0.01933 -0.41068,-0.01691l-0.1836,-0.15783c0.08053,0.13689 0.16105,0.27379 0.24158,0.41068c0.08294,0.14012 0.16508,0.28023 0.24802,0.42035c0.48638,0.82539 0.97276,1.64998 1.45913,2.47537c3.7034,6.28426 7.4076,12.56852 11.11099,18.85277c0.89303,1.5155 1.82633,3.031 3.83868,2.9537c1.28037,-0.04912 2.22816,-0.97437 3.19286,-1.70715c1.10482,-0.83908 2.204,-1.68541 3.29996,-2.53657c4.09878,-3.1832 8.12669,-6.45739 12.07892,-9.82096c0.97114,-0.827 1.9439,-1.6532 2.90055,-2.49711c0.47752,-0.42196 0.47833,-0.29473 -0.08375,-0.34224c-0.01933,-0.00161 -0.22708,-0.215 -0.20937,-0.23755c-0.10227,0.12884 0.00322,0.81734 0.00322,1.0098c0,2.66461 0,5.33002 0,7.99463c0,4.98135 0,9.96188 0,14.94323c0,5.17541 0,10.35083 0,15.52543c0,0.6579 0,1.31499 0,1.97289c0,0.26252 -0.11274,1.95034 0,1.99866c-0.30519,-0.12965 0.79479,-0.14334 0.29392,-0.27137c-0.45658,-0.11596 -1.08549,0 -1.56462,0c-2.02684,0 -4.05288,0 -6.07972,0c-8.91263,0 -17.82606,0 -26.73869,0c-9.05999,0 -18.12079,0 -27.18078,0c-4.12696,0 -8.25312,0 -12.38008,0c-0.43001,0 -0.85921,0 -1.28922,0c-0.06603,0 -0.83586,-0.03463 -0.84794,0c0.02335,-0.06523 0.5822,0.21984 0.459,0.27701c0.16105,-0.07489 -0.02416,-3.00443 -0.02416,-3.38693c0,-2.2201 0,-4.44021 0,-6.66031c0,-2.36908 0,-4.73816 0,-7.10804c0,-2.48745 -3.86525,-2.49148 -3.86525,0c0,4.95075 0,9.90069 0,14.85143c0,1.30935 -0.21178,2.83693 0.43081,4.03677c0.61119,1.14186 1.72004,1.79654 3.0004,1.85532c2.02926,0.09341 4.08589,0 6.11757,0c9.35472,0 18.70944,0 28.06496,0c9.59952,0 19.19903,0 28.79855,0c4.31781,0 8.64206,0.06925 12.95907,0c1.21917,-0.01933 2.28614,-0.4292 3.01087,-1.44383c0.81009,-1.13381 0.70219,-2.41981 0.70219,-3.75171c0,-2.8466 0,-5.6932 0,-8.53979c0,-10.83157 0,-21.66233 0,-32.4939c0,-1.23124 -0.10549,-2.37069 -0.97759,-3.31526c-0.81009,-0.87693 -2.10978,-1.27875 -3.27017,-0.97678c-1.17327,0.30519 -2.04295,1.3166 -2.92712,2.08241c-1.11046,0.96068 -2.22735,1.9133 -3.34989,2.85948c-4.18977,3.53107 -8.46249,6.96551 -12.81976,10.28802c-0.56046,0.42679 -1.15958,0.8262 -1.69427,1.28359c-0.7658,0.65468 0.44853,0.05798 0.22869,0.46141c0.07892,-0.14495 -0.81653,-1.38585 -0.92766,-1.57429c-0.81009,-1.37378 -1.61938,-2.74755 -2.42947,-4.12213c-2.10495,-3.57214 -4.21071,-7.14428 -6.31566,-10.71641c-1.0412,-1.76674 -2.08241,-3.53268 -3.1228,-5.29942c-1.07905,-1.83036 -2.2507,-3.92565 -4.77359,-3.30318c-1.29808,0.32049 -1.95598,1.38908 -2.58972,2.46329c-0.77788,1.31982 -1.55496,2.63884 -2.33284,3.95866c-1.41968,2.40934 -2.84016,4.81868 -4.25983,7.22802c-1.48812,2.52449 -2.97544,5.04818 -4.46356,7.57268c-0.66273,1.12414 -1.48812,2.25393 -2.02926,3.44169c-0.33177,0.72796 -0.24963,0.2456 -0.02496,0.18763c0.09905,-0.02577 0.33096,0.06684 0.35673,-0.06684c0.02657,-0.13609 -1.65642,-1.25218 -1.8513,-1.40035c-4.3621,-3.32251 -8.63965,-6.75775 -12.83506,-10.28963c-0.97759,-0.82298 -1.95034,-1.65079 -2.91907,-2.48504c-1.00658,-0.86646 -2.09368,-2.16132 -3.39981,-2.54865c-1.11931,-0.33177 -2.37069,-0.01611 -3.21782,0.78271c-1.00174,0.94457 -1.13864,2.16776 -1.13864,3.46906c0,5.71172 0,11.42343 0,17.13515c0,2.78942 0,5.57965 0,8.36908c0,2.48745 3.86525,2.49148 3.86525,0l-0.00161,0z" class="e"/>
    <path stroke="null" fill="#ffffff" d="m-105.52395,24.0411c-3.02376,0 -5.11341,2.33445 -5.11341,5.0659c0,3.05597 2.13475,5.16092 5.11341,5.16092c3.09381,0 5.11341,-2.12428 5.11341,-5.16092c0,-2.74997 -2.10093,-5.0659 -5.11341,-5.0659z" class="d"/>
    <path stroke="null" fill="#211715" d="m-105.52395,22.10847c-3.08737,0.03946 -5.79627,1.94229 -6.7352,4.90887c-0.85841,2.71131 0.03785,5.95088 2.30144,7.6991c2.27808,1.7603 5.61992,1.97531 8.1275,0.54677c2.61066,-1.48812 3.67119,-4.5465 3.23071,-7.41404c-0.51939,-3.38451 -3.59307,-5.69803 -6.92444,-5.74071c-1.01141,-0.01288 -1.97933,0.89787 -1.93263,1.93263c0.04751,1.05811 0.84875,1.91894 1.93263,1.93263c0.14897,0.00161 0.29634,0.01369 0.44531,0.01691c0.48235,0.01047 -0.40424,-0.10388 0.05637,0.00564c0.22628,0.05395 0.45175,0.09905 0.6732,0.17152c0.02094,0.00725 0.22869,0.05878 0.25607,0.0918l-0.21339,-0.09099c0.08133,0.03624 0.16105,0.07489 0.23997,0.11596c0.14817,0.0765 0.58462,0.25929 0.66837,0.41632l-0.18682,-0.14173c0.06684,0.05476 0.13126,0.11193 0.19487,0.16991c0.06362,0.05798 0.12562,0.11837 0.18521,0.17957c0.03221,0.03302 0.26735,0.24399 0.25929,0.28667c0.01611,-0.08294 -0.22225,-0.33821 -0.02979,-0.03221c0.12643,0.20132 0.24238,0.40505 0.36076,0.61119c0.11435,0.1997 0.09824,0.01369 -0.03543,-0.10629c0.09099,0.08214 0.13689,0.37847 0.17072,0.49443c0.03704,0.12723 0.20132,0.54275 0.14253,0.64743c0.07972,-0.14253 -0.02094,-0.38089 -0.01852,-0.04509c0.00081,0.11354 0.01127,0.22708 0.01127,0.34143c0,0.12401 0.05476,0.60234 -0.03624,0.69414l0.03463,-0.24641c-0.01369,0.08777 -0.02899,0.17474 -0.0459,0.26171c-0.02979,0.14897 -0.06523,0.29634 -0.1071,0.44209c-0.02899,0.10227 -0.06684,0.20132 -0.09663,0.30358c-0.11998,0.41874 0.20373,-0.38169 0.00644,0c-0.09341,0.18118 -0.1836,0.36317 -0.29312,0.5355c-0.05315,0.08375 -0.12079,0.16347 -0.16991,0.24883c-0.12723,0.22306 0.3213,-0.34707 0.04026,-0.06362c-0.04348,0.04429 -0.51778,0.45256 -0.51456,0.49846c-0.00564,-0.10629 0.35512,-0.24802 0.00403,-0.01611c-0.06764,0.04429 -0.13609,0.08777 -0.20615,0.12884c-0.10629,0.06201 -0.21662,0.11435 -0.32452,0.17394c-0.35834,0.19729 0.31566,-0.07892 0.06039,-0.02174c-0.22789,0.05073 -0.44773,0.153 -0.67722,0.20615c-0.08616,0.02013 -0.17394,0.03382 -0.2601,0.05395c-0.21339,0.03463 -0.17635,0.03141 0.11113,-0.01047c-0.0918,0.01047 -0.1844,0.01852 -0.27701,0.02416c-0.23594,0.0153 -0.47269,0.01852 -0.70863,0.00725c-0.08214,-0.00403 -0.34465,0.01611 -0.41149,-0.03302c0.00805,0.00644 0.48316,0.09502 0.11515,0.00886c-0.23433,-0.05476 -0.46544,-0.10388 -0.69414,-0.17957c-0.03865,-0.01288 -0.29634,-0.08133 -0.29956,-0.10952c0.26735,0.11515 0.306,0.12804 0.11757,0.04026c-0.05637,-0.02738 -0.11113,-0.05637 -0.16588,-0.08616c-0.05717,-0.03141 -0.55563,-0.37606 -0.57093,-0.36559c0.07006,-0.04671 0.30922,0.27218 0.10629,0.07086c-0.08697,-0.08616 -0.18038,-0.16427 -0.26574,-0.25285c-0.06764,-0.07006 -0.13045,-0.16508 -0.20534,-0.22628c-0.19568,-0.15864 0.25607,0.39055 0.03865,0.05154c-0.13528,-0.21178 -0.25768,-0.42437 -0.38089,-0.6426c-0.2142,-0.37928 0.12884,0.41229 -0.00644,-0.00644c-0.02657,-0.08214 -0.05798,-0.16266 -0.08455,-0.2456c-0.04348,-0.1385 -0.25446,-0.64985 -0.1844,-0.77869c-0.00403,0.00644 0.03946,0.49685 0.01691,0.10227c-0.00805,-0.14173 -0.02094,-0.28345 -0.02416,-0.42518c-0.00242,-0.11596 -0.00161,-0.23272 0.00242,-0.34868c0.00161,-0.06764 0.00564,-0.13528 0.01127,-0.20212c0.02174,-0.21742 0.01369,-0.17877 -0.02335,0.11435c-0.06684,-0.10146 0.14736,-0.66756 0.18038,-0.76983c0.02255,-0.07167 0.07167,-0.32371 0.13206,-0.368l-0.0918,0.22386c0.03624,-0.07811 0.07489,-0.15542 0.11515,-0.23192c0.07489,-0.14173 0.2601,-0.57576 0.4131,-0.65307l-0.14253,0.18843c0.05476,-0.06603 0.11193,-0.13045 0.16991,-0.19407c0.08777,-0.09502 0.17877,-0.18602 0.27379,-0.27379l0.09663,-0.08697c0.15944,-0.13287 0.13045,-0.11354 -0.08777,0.05717c0.03704,-0.06684 0.2601,-0.18199 0.32371,-0.22145c0.11193,-0.07006 0.22708,-0.13609 0.34385,-0.19648c0.07892,-0.04107 0.15944,-0.07972 0.23997,-0.11676l-0.21339,0.09019c0.12723,-0.14656 0.60314,-0.19648 0.79238,-0.23675l0.1385,-0.02738c0.21581,-0.03543 0.18682,-0.03302 -0.08777,0.00725c0.14495,-0.06845 0.43404,-0.02818 0.59187,-0.0306c1.0106,-0.01288 1.98014,-0.87935 1.93263,-1.93263c-0.04671,-1.03557 -0.84955,-1.94632 -1.93263,-1.93263l0.00081,0.00161z" class="e"/>
    <path stroke="null" fill="#ffffff" d="m-66.75626,33.00124c-3.02134,-0.09583 -5.18427,2.17098 -5.27043,4.90082c-0.09663,3.05436 1.97047,5.22534 4.94672,5.31955c3.0914,0.09824 5.17783,-1.96081 5.27365,-4.99584c0.08697,-2.74836 -1.93907,-5.12951 -4.94994,-5.22453z" class="d"/>
    <path stroke="null" fill="#211715" d="m-66.75626,31.06861c-3.1067,-0.05878 -5.81479,1.82955 -6.84311,4.75265c-0.90672,2.57925 -0.153,5.86472 1.97289,7.63468c2.28453,1.90122 5.62555,2.24024 8.25956,0.84794c2.53818,-1.34156 3.7952,-4.37176 3.42236,-7.14589c-0.21178,-1.57751 -0.9027,-3.08334 -2.0816,-4.18011c-1.30533,-1.21433 -2.96014,-1.82955 -4.7301,-1.90847c-1.01141,-0.04509 -1.97772,0.92122 -1.93263,1.93263c0.04832,1.08549 0.84955,1.88431 1.93263,1.93263c0.12643,0.00564 0.32452,-0.01449 0.4445,0.03141c-0.44531,-0.17072 -0.08375,-0.00644 0.05395,0.02335c0.22789,0.04993 0.44611,0.1224 0.66756,0.19246c0.36156,0.11515 -0.07247,-0.04268 -0.08536,-0.04107c0.07731,-0.00886 0.28989,0.14334 0.35754,0.18118c0.11515,0.06442 0.22789,0.13367 0.3374,0.20695l0.1079,0.07408c0.1683,0.1232 0.14092,0.10227 -0.08133,-0.06362c0.09502,-0.01047 0.39136,0.36317 0.46786,0.44692l0.08616,0.09583c0.13287,0.16025 0.11274,0.12965 -0.06039,-0.09019c0.0612,0.02416 0.14495,0.20615 0.18279,0.26493c0.04993,0.07731 0.38491,0.54516 0.34143,0.62247c-0.00322,0.00644 -0.16347,-0.46383 -0.04671,-0.10146c0.05395,0.16669 0.11193,0.33016 0.15542,0.50007c0.02174,0.08536 0.04107,0.17072 0.05878,0.25688l0.02416,0.13045c0.03382,0.2142 0.02899,0.17474 -0.0153,-0.11676c0.06039,0.03382 0.02335,0.61039 0.02174,0.67803c-0.00403,0.14092 -0.01772,0.28023 -0.02657,0.42035c-0.02577,0.39458 0.01852,-0.10468 0.01691,-0.1071c0.07811,0.10629 -0.15783,0.7046 -0.19809,0.83103c-0.01047,0.03221 -0.0918,0.30278 -0.10549,0.30036c0.01047,0.00161 0.19729,-0.41149 -0.00805,-0.00564c-0.09261,0.18279 -0.20534,0.35109 -0.31003,0.52664c-0.20615,0.34546 0.23433,-0.23192 0.04993,-0.05395c-0.07086,0.06845 -0.12965,0.153 -0.19729,0.22547c-0.08214,0.08697 -0.16669,0.17072 -0.25527,0.25124l-0.08938,0.07892c-0.15783,0.13045 -0.12079,0.10388 0.10952,-0.07892c-0.06845,-0.01772 -0.42196,0.2754 -0.51054,0.32371c-0.02657,0.01449 -0.33016,0.14897 -0.33016,0.16347c-0.00161,-0.09744 0.42598,-0.14012 0.05476,-0.03463c-0.22789,0.06523 -0.45014,0.1377 -0.68367,0.1844c-0.01772,0.00322 -0.22628,0.06039 -0.26171,0.04509c0.2915,-0.03785 0.32774,-0.04509 0.10952,-0.02255c-0.09261,0.00725 -0.18521,0.01288 -0.27782,0.0153c-0.23836,0.00805 -0.47108,-0.01047 -0.70863,-0.0153c-0.47027,-0.00966 0.42276,0.09663 -0.0306,0.00161c-0.08777,-0.01852 -0.17555,-0.03221 -0.26252,-0.05154c-0.22869,-0.05073 -0.4598,-0.16508 -0.6885,-0.20132c-0.25607,-0.04107 0.41551,0.21339 0.05073,0.02335c-0.12965,-0.06764 -0.2609,-0.13045 -0.38733,-0.20454c-0.08938,-0.05234 -0.17313,-0.11193 -0.26171,-0.16427c-0.36639,-0.21662 0.31244,0.29231 0,0.00644c-0.15058,-0.1377 -0.30197,-0.27137 -0.44048,-0.42276c-0.07247,-0.07972 -0.18038,-0.33338 -0.08375,-0.08616c0.10549,0.27057 -0.02094,-0.03704 -0.06442,-0.10307c-0.02496,-0.03704 -0.39458,-0.62971 -0.35995,-0.65468c-0.00483,0.00322 0.15542,0.42598 0.00805,-0.01288c-0.02738,-0.08214 -0.05315,-0.16508 -0.0765,-0.24802c-0.03543,-0.12723 -0.06684,-0.25527 -0.09341,-0.38491l-0.02496,-0.13126c-0.03463,-0.2142 -0.0306,-0.17716 0.01208,0.10952c-0.09341,-0.10952 -0.03463,-0.56449 -0.03302,-0.70299c0.00081,-0.11676 0.01127,-0.23272 0.01369,-0.34868c0.00886,-0.50409 -0.08294,0.2907 0.00725,-0.08536c0.06201,-0.25849 0.13126,-0.50812 0.20454,-0.76419c0.12159,-0.42759 -0.20293,0.37203 0.00322,-0.02013c0.06039,-0.11515 0.11515,-0.23192 0.17877,-0.34465s0.1385,-0.21742 0.20454,-0.32855c0.19085,-0.32291 -0.26493,0.28023 0.00805,-0.02013c0.17474,-0.19246 0.35593,-0.37042 0.54275,-0.5508c0.31486,-0.306 -0.35512,0.21742 0.01852,-0.01691c0.11113,-0.07006 0.21742,-0.14495 0.33096,-0.21098c0.11435,-0.06684 0.23353,-0.1232 0.35029,-0.18602c0.36317,-0.19568 -0.33579,0.09583 0.03382,-0.01127c0.26654,-0.07731 0.52825,-0.14978 0.79962,-0.21178c0.4598,-0.10468 -0.42598,0.00242 0.05395,-0.00242c0.19809,-0.00242 0.39377,-0.0153 0.59267,-0.01208c1.01141,0.01933 1.97853,-0.9027 1.93263,-1.93263c-0.04751,-1.06375 -0.84875,-1.9125 -1.93263,-1.93263l-0.00242,0.00081z" class="e"/>
    <path stroke="null" fill="#ffffff" d="m-144.13138,32.99802c-3.02376,0 -5.11341,2.33445 -5.11341,5.0659c0,3.05597 2.13475,5.16092 5.11341,5.16092c3.09381,0 5.11341,-2.12428 5.11341,-5.16092c0,-2.74997 -2.10093,-5.0659 -5.11341,-5.0659z" class="d"/>
    <path stroke="null" fill="#211715" d="m-144.13138,31.06539c-3.08737,0.03946 -5.79627,1.94229 -6.7352,4.90887c-0.85841,2.71131 0.03785,5.95088 2.30144,7.6991c2.27808,1.7603 5.61992,1.97531 8.1275,0.54677c2.61066,-1.48812 3.67119,-4.5465 3.23071,-7.41404c-0.51939,-3.38451 -3.59307,-5.69803 -6.92444,-5.74071c-1.01141,-0.01288 -1.97933,0.89787 -1.93263,1.93263c0.04751,1.05811 0.84875,1.91894 1.93263,1.93263c0.14897,0.00161 0.29634,0.01369 0.44531,0.01691c0.48235,0.01047 -0.40424,-0.10388 0.05637,0.00564c0.22628,0.05395 0.45175,0.09905 0.6732,0.17152c0.02094,0.00725 0.22869,0.05878 0.25607,0.0918l-0.21339,-0.09099c0.08133,0.03624 0.16105,0.07489 0.23997,0.11596c0.14817,0.0765 0.58462,0.25929 0.66837,0.41632l-0.18682,-0.14173c0.06684,0.05476 0.13126,0.11193 0.19487,0.16991c0.06362,0.05798 0.12562,0.11837 0.18521,0.17957c0.03221,0.03302 0.26735,0.24399 0.25929,0.28667c0.01611,-0.08294 -0.22225,-0.33821 -0.02979,-0.03221c0.12643,0.20132 0.24238,0.40505 0.36076,0.61119c0.11435,0.1997 0.09824,0.01369 -0.03543,-0.10629c0.09099,0.08214 0.13689,0.37847 0.17072,0.49443c0.03704,0.12723 0.20132,0.54275 0.14253,0.64743c0.07972,-0.14253 -0.02094,-0.38089 -0.01852,-0.04509c0.00081,0.11354 0.01127,0.22708 0.01127,0.34143c0,0.12401 0.05476,0.60234 -0.03624,0.69414l0.03463,-0.24641c-0.01369,0.08777 -0.02899,0.17474 -0.0459,0.26171c-0.02979,0.14897 -0.06523,0.29634 -0.1071,0.44209c-0.02899,0.10227 -0.06684,0.20132 -0.09663,0.30358c-0.11998,0.41874 0.20373,-0.38169 0.00644,0c-0.09341,0.18118 -0.1836,0.36317 -0.29312,0.5355c-0.05315,0.08375 -0.12079,0.16347 -0.16991,0.24883c-0.12723,0.22306 0.3213,-0.34707 0.04026,-0.06362c-0.04348,0.04429 -0.51778,0.45256 -0.51456,0.49846c-0.00564,-0.10629 0.35512,-0.24802 0.00403,-0.01611c-0.06764,0.04429 -0.13609,0.08777 -0.20615,0.12884c-0.10629,0.06201 -0.21662,0.11435 -0.32452,0.17394c-0.35834,0.19729 0.31566,-0.07892 0.06039,-0.02174c-0.22789,0.05073 -0.44773,0.153 -0.67722,0.20615c-0.08616,0.02013 -0.17394,0.03382 -0.2601,0.05395c-0.21339,0.03463 -0.17635,0.03141 0.11113,-0.01047c-0.0918,0.01047 -0.1844,0.01852 -0.27701,0.02416c-0.23594,0.0153 -0.47269,0.01852 -0.70863,0.00725c-0.08214,-0.00403 -0.34465,0.01611 -0.41149,-0.03302c0.00805,0.00644 0.48316,0.09502 0.11515,0.00886c-0.23433,-0.05476 -0.46544,-0.10388 -0.69414,-0.17957c-0.03865,-0.01288 -0.29634,-0.08133 -0.29956,-0.10952c0.26735,0.11515 0.306,0.12804 0.11757,0.04026c-0.05637,-0.02738 -0.11113,-0.05637 -0.16588,-0.08616c-0.05717,-0.03141 -0.55563,-0.37606 -0.57093,-0.36559c0.07006,-0.04671 0.30922,0.27218 0.10629,0.07086c-0.08697,-0.08616 -0.18038,-0.16427 -0.26574,-0.25285c-0.06764,-0.07006 -0.13045,-0.16508 -0.20534,-0.22628c-0.19568,-0.15864 0.25607,0.39055 0.03865,0.05154c-0.13528,-0.21178 -0.25768,-0.42437 -0.38089,-0.6426c-0.2142,-0.37928 0.12884,0.41229 -0.00644,-0.00644c-0.02657,-0.08214 -0.05798,-0.16266 -0.08455,-0.2456c-0.04348,-0.1385 -0.25446,-0.64985 -0.1844,-0.77869c-0.00403,0.00644 0.03946,0.49685 0.01691,0.10227c-0.00805,-0.14173 -0.02094,-0.28345 -0.02416,-0.42518c-0.00242,-0.11596 -0.00161,-0.23272 0.00242,-0.34868c0.00161,-0.06764 0.00564,-0.13528 0.01127,-0.20212c0.02174,-0.21742 0.01369,-0.17877 -0.02335,0.11435c-0.06684,-0.10146 0.14736,-0.66756 0.18038,-0.76983c0.02255,-0.07167 0.07167,-0.32371 0.13206,-0.368l-0.0918,0.22386c0.03624,-0.07811 0.07489,-0.15542 0.11515,-0.23192c0.07489,-0.14173 0.2601,-0.57576 0.4131,-0.65307l-0.14253,0.18843c0.05476,-0.06603 0.11193,-0.13045 0.16991,-0.19407c0.08777,-0.09502 0.17877,-0.18602 0.27379,-0.27379l0.09663,-0.08697c0.15944,-0.13287 0.13045,-0.11354 -0.08777,0.05717c0.03704,-0.06684 0.2601,-0.18199 0.32371,-0.22145c0.11193,-0.07006 0.22708,-0.13609 0.34385,-0.19648c0.07892,-0.04107 0.15944,-0.07972 0.23997,-0.11676l-0.21339,0.09019c0.12723,-0.14656 0.60314,-0.19648 0.79238,-0.23675l0.1385,-0.02738c0.21581,-0.03543 0.18682,-0.03302 -0.08777,0.00725c0.14495,-0.06845 0.43404,-0.02818 0.59187,-0.0306c1.0106,-0.01288 1.98014,-0.87935 1.93263,-1.93263c-0.04671,-1.03557 -0.84955,-1.94632 -1.93263,-1.93263l0.00081,0.00161z" class="e"/>
    <rect stroke="null" fill="#ffffff" height="7.76594" width="57.81452" y="100.9693" x="34.58826" class="d"/>
    <path stroke="null" fill="#ffda71" d="m38.24576,12.75214c-3.8266,-2.25634 -9.19689,-2.52127 -12.41471,1.18615c-2.47859,2.85546 -2.72903,7.49779 -1.25218,11.10536c1.63468,3.9949 5.17461,7.24816 8.86351,8.72178c3.6422,1.45511 7.74661,1.44222 11.38156,-0.03543" class="f"/>
    <path stroke="null" fill="#ffda71" d="m88.74449,12.75214c3.8266,-2.25634 9.19689,-2.52127 12.41471,1.18615c2.47859,2.85546 2.72903,7.49779 1.25218,11.10536c-1.63468,3.9949 -5.17461,7.24816 -8.86351,8.72178c-3.6422,1.45511 -7.74661,1.44222 -11.38156,-0.03543" class="f"/>
    <path stroke="null" fill="#211715" d="m39.22173,11.08364c-2.96256,-1.70232 -6.59106,-2.44397 -9.93209,-1.5155c-3.49966,0.97195 -6.12965,3.77667 -7.08791,7.25057c-2.04295,7.40035 2.81197,15.12602 9.4586,18.26493c4.28157,2.02201 9.25889,2.24668 13.67736,0.51134c0.97114,-0.38089 1.64756,-1.29486 1.34962,-2.37713c-0.25446,-0.92524 -1.40035,-1.73373 -2.37713,-1.34962c-5.90659,2.31915 -12.4598,0.44934 -16.27513,-4.63589c-2.92149,-3.89424 -3.99007,-11.30023 1.4688,-13.66206c2.51403,-1.08791 5.47416,-0.46544 7.76674,0.85197c2.16052,1.24091 4.11005,-2.09771 1.95115,-3.33781l0,0l0,-0.00081z" class="e"/>
    <path stroke="null" fill="#211715" d="m89.71966,14.42064c2.07677,-1.19259 4.60207,-1.78526 6.95343,-1.12575c2.45202,0.68769 4.00054,2.68796 4.52798,5.11743c1.21836,5.61589 -2.9384,11.05462 -7.8215,13.33271c-3.38854,1.58073 -7.26587,1.4696 -10.6987,0.12159c-0.97195,-0.38169 -2.12186,0.41874 -2.37713,1.34962c-0.30117,1.09596 0.37445,1.99463 1.34962,2.37713c7.75547,3.0455 16.42974,-0.14012 21.00524,-6.93088c4.05368,-6.01611 3.57375,-15.69937 -3.93209,-18.73762c-3.56489,-1.44303 -7.69669,-0.71507 -10.95719,1.15797c-2.15649,1.23849 -0.21178,4.57952 1.95115,3.33781l0,0l-0.00081,0z" class="e"/>
    <path stroke="null" fill="#ffda71" d="m60.0941,48.21745l0,17.78741c-2.55912,0 -5.25755,0.40424 -7.11448,1.74017c-2.48745,1.78929 -3.73802,4.90485 -3.73802,7.67414l28.50785,0c0,-2.76929 -1.25057,-5.88485 -3.73802,-7.67414c-1.85693,-1.33512 -4.55536,-1.74017 -7.11448,-1.74017l0,-17.78741" class="f"/>
    <path stroke="null" fill="#211715" d="m58.16148,48.21745l0,15.5504c0,0.74567 0,1.49134 0,2.23782l1.93263,-1.93263c-3.33217,0.02335 -6.79238,0.61844 -9.29996,2.9843c-2.26842,2.14119 -3.43846,5.2801 -3.48517,8.36183c-0.0153,1.04442 0.89787,1.93263 1.93263,1.93263l28.50785,0c1.03315,0 1.94793,-0.88579 1.93263,-1.93263c-0.0459,-3.08254 -1.21594,-6.22145 -3.48517,-8.36183c-2.50758,-2.36666 -5.96698,-2.96095 -9.29996,-2.9843l1.93263,1.93263c0,-5.18347 0,-10.36693 0,-15.5504l0,-2.23782c0,-2.48745 -3.86525,-2.49148 -3.86525,0c0,5.18347 0,10.36693 0,15.5504l0,2.23782c0,1.05006 0.88579,1.92538 1.93263,1.93263c2.25554,0.01611 4.84203,0.22547 6.5669,1.8521c1.54207,1.45511 2.32157,3.53188 2.35297,5.62877l1.93263,-1.93263l-28.50785,0l1.93263,1.93263c0.03141,-2.0969 0.8109,-4.17367 2.35297,-5.62877c1.72406,-1.62663 4.31217,-1.8368 6.5669,-1.8521c1.04442,-0.00725 1.93263,-0.87935 1.93263,-1.93263l0,-15.5504c0,-0.74567 0,-1.49134 0,-2.23782c0,-2.48745 -3.86525,-2.49148 -3.86525,0l0,0z" class="e"/>
    <rect stroke="null" fill="#ffffff" height="26.46571" width="48.83989" y="74.50359" x="39.07518" class="d"/>
    <path stroke="null" fill="#211715" d="m85.98325,74.50359l0,26.46571l1.93263,-1.93263l-48.83989,0l1.93263,1.93263l0,-26.46571l-1.93263,1.93263l48.83989,0c2.48745,0 2.49148,-3.86525 0,-3.86525l-48.83989,0c-1.04442,0 -1.93263,0.88579 -1.93263,1.93263l0,26.46571c0,1.04442 0.88579,1.93263 1.93263,1.93263l48.83989,0c1.04442,0 1.93263,-0.88579 1.93263,-1.93263l0,-26.46571c0,-2.48745 -3.86525,-2.49148 -3.86525,0z" class="e"/>
    <path stroke="null" fill="#211715" d="m94.33541,108.73524l0,-7.76594c0,-1.04442 -0.88579,-1.93263 -1.93263,-1.93263l-57.81452,0c-1.04442,0 -1.93263,0.88579 -1.93263,1.93263l0,7.76594c0,1.04442 0.88579,1.93263 1.93263,1.93263l57.81452,0c2.48745,0 2.49148,-3.86525 0,-3.86525l-57.81452,0l1.93263,1.93263l0,-7.76594l-1.93263,1.93263l57.81452,0l-1.93263,-1.93263l0,7.76594c0,2.48745 3.86525,2.49148 3.86525,0z" class="e"/>
    <polygon stroke="null" fill="#ffda71" points="48.057037353515625,82.56747436523438 48.057037353515625,92.90542602539062 48.057037353515625,92.90542602539062 78.93400573730469,92.90542602539062 78.93400573730469,92.90542602539062 78.93400573730469,82.56747436523438 78.93400573730469,82.56747436523438 48.057037353515625,82.56747436523438 48.057037353515625,82.56747436523438 " class="f"/>
    <path stroke="null" fill="#211715" d="m46.12443,82.56747l0,10.33794c0,0.64904 0.36076,1.36653 0.95746,1.6685c1.06053,0.53711 2.7089,0.26413 3.84834,0.26413l7.53644,0c5.62958,0 11.25997,0 16.88955,0l2.72098,0c0.64743,0 1.224,0.04429 1.83277,-0.26413c0.5967,-0.30197 0.95746,-1.01946 0.95746,-1.6685l0,-10.33794c0,-0.64904 -0.36076,-1.36653 -0.95746,-1.6685c-1.06053,-0.53711 -2.7089,-0.26413 -3.84834,-0.26413l-27.14696,0c-0.64743,0 -1.224,-0.04429 -1.83277,0.26413c-2.2193,1.12414 -0.26493,4.46034 1.95115,3.33781l0,0c-0.32533,0.08777 -0.65065,0.17555 -0.97517,0.26413l30.87774,0l-0.97517,-0.26413l0,0c-0.31888,-0.55644 -0.63777,-1.11287 -0.95746,-1.6685l0,10.33794l0.95746,-1.6685l0,0c0.32533,-0.08777 0.65065,-0.17555 0.97517,-0.26413c-9.00926,0 -18.01772,0 -27.02698,0l-3.85076,0l0.97517,0.26413l0,0c0.31888,0.55644 0.63777,1.11287 0.95746,1.6685l0,-10.33794c0,-2.48745 -3.86525,-2.49148 -3.86525,0l-0.00081,-0.00081z" class="e"/>
    <path stroke="null" fill="#ffda71" d="m43.09343,45.21222c-0.12965,-0.17394 -0.25768,-0.35109 -0.3833,-0.53147c-3.68971,-5.29459 -4.77117,-11.99839 -4.76473,-18.45175c0.00564,-5.71574 0.79962,-12.80929 1.6218,-19.04604c0.11515,-0.87129 0.85599,-1.52114 1.73534,-1.52114c9.10589,0 35.24708,0.00081 44.3876,0.00081c0.87935,0 1.62019,0.64985 1.73534,1.52194c0.82137,6.23675 1.61535,13.32949 1.62019,19.04523c0.00644,6.45336 -1.07502,13.15716 -4.76473,18.45175c-4.77117,6.84552 -12.73198,9.43766 -20.7854,9.43766c-7.84163,0 -15.59549,-2.45766 -20.40209,-8.90619l0,-0.00081z" class="f"/>
    <path stroke="null" fill="#211715" d="m44.76193,44.23704c-3.67924,-5.01919 -4.81466,-11.23017 -4.88069,-17.33888c-0.03463,-3.21541 0.17957,-6.43243 0.46786,-9.63334c0.29312,-3.24923 0.55321,-6.56529 1.11931,-9.77829c-0.02899,0.16266 -0.36317,0.06925 0.19246,0.1079c0.35995,0.02496 0.72957,0 1.08952,0c0.8423,0 1.68461,0 2.52691,0c2.05905,0 4.11811,0 6.17716,0c4.867,0 9.734,0 14.6018,0c4.63669,0 9.27339,0 13.91089,0c1.71279,0 3.42639,0 5.13918,0c0.15864,0 0.74326,0.11998 0.47833,-0.06362c-0.18279,-0.12723 -0.03543,0.1224 -0.00081,0.34948c0.07167,0.46866 0.12159,0.94135 0.18038,1.41082c0.21178,1.68541 0.41149,3.37163 0.59106,5.06107c1.18615,11.19232 2.49953,26.30466 -8.07274,33.68246c-4.53281,3.16307 -10.10925,4.2558 -15.56006,4.14226c-5.3268,-0.11113 -10.93625,-1.47121 -15.09381,-4.96846c-1.05006,-0.88337 -2.03731,-1.87787 -2.86673,-2.97222c-0.62891,-0.83103 -1.66689,-1.26507 -2.64448,-0.69333c-0.81815,0.47833 -1.32707,1.80701 -0.69333,2.64448c3.89263,5.13837 9.56167,8.26762 15.8878,9.33539c6.11354,1.03154 12.69575,0.65387 18.45739,-1.74983c6.18924,-2.58247 10.68984,-7.45189 13.04442,-13.71038c2.42061,-6.43404 2.39082,-13.52033 1.89961,-20.2805c-0.26332,-3.62529 -0.67078,-7.2393 -1.12817,-10.84526c-0.23111,-1.8207 -0.29231,-3.69373 -2.07033,-4.71883c-1.00738,-0.58059 -2.16213,-0.48799 -3.27822,-0.48799c-4.46276,0 -8.92551,0 -13.38827,0c-9.65508,0 -19.31016,0 -28.96444,0c-1.49698,0 -2.89411,0.40505 -3.72594,1.76594c-0.47671,0.77949 -0.52261,1.67736 -0.63696,2.55992c-0.11515,0.88901 -0.22708,1.77802 -0.33499,2.66702c-0.4437,3.65508 -0.8262,7.32063 -1.03234,10.99665c-0.38411,6.83264 -0.04187,13.84807 2.78379,20.18387c0.67561,1.5155 1.50745,2.94645 2.48826,4.28479c0.61602,0.84069 1.67736,1.25862 2.64448,0.69333c0.82942,-0.48477 1.31419,-1.79734 0.69333,-2.64448l-0.00161,0z" class="e"/>
    <path stroke="null" fill="#f2635f" d="m-107.39054,-94.76229s10.85331,18.79882 21.25889,36.82137c1.77802,-3.81291 3.55603,-7.62663 5.33405,-11.43954c4.19138,0.36639 8.38277,0.73359 12.57415,1.09999c-10.40558,-18.02255 -21.25889,-36.82137 -21.25889,-36.82137" class="g"/>
    <path stroke="null" fill="#f2635f" d="m-103.65735,-94.76229l-21.25889,36.82137c-1.77802,-3.81291 -3.55603,-7.62663 -5.33405,-11.43954c-4.19138,0.36639 -8.38277,0.73359 -12.57415,1.09999c10.40558,-18.02255 21.25889,-36.82137 21.25889,-36.82137" class="g"/>
    <path stroke="null" fill="#211715" d="m-109.05904,-93.78632c4.79291,8.30224 9.58663,16.60368 14.37955,24.90592l6.87935,11.91545c0.67642,1.17085 2.71051,1.34559 3.33781,0c1.77802,-3.81291 3.55603,-7.62663 5.33405,-11.43954l-1.6685,0.95746c4.19138,0.36639 8.38277,0.73359 12.57415,1.09999c1.50342,0.13126 2.35136,-1.72567 1.6685,-2.9078c-6.59187,-11.41699 -13.18293,-22.83398 -19.7748,-34.25097c-0.49443,-0.8568 -0.98886,-1.7136 -1.4841,-2.57039c-1.24332,-2.15327 -4.58516,-0.20937 -3.33781,1.95115c4.79291,8.30224 9.58663,16.60368 14.37955,24.90592c2.29338,3.97155 4.58596,7.9431 6.87935,11.91545l1.6685,-2.9078c-4.19138,-0.36639 -8.38277,-0.73359 -12.57415,-1.09999c-0.61522,-0.05395 -1.40679,0.39538 -1.6685,0.95746c-1.77802,3.81291 -3.55603,7.62663 -5.33405,11.43954l3.33781,0c-6.59187,-11.41699 -13.18293,-22.83398 -19.7748,-34.25097c-0.49443,-0.8568 -0.98886,-1.7136 -1.4841,-2.57039c-1.24332,-2.15327 -4.58516,-0.20937 -3.33781,1.95115l0,0l0,-0.00161z" class="e"/>
    <path stroke="null" fill="#211715" d="m-105.32585,-95.73746c-4.79291,8.30224 -9.58663,16.60368 -14.37955,24.90592l-6.87935,11.91545l3.33781,0c-1.77802,-3.81291 -3.55603,-7.62663 -5.33405,-11.43954c-0.26171,-0.56207 -1.05328,-1.01141 -1.6685,-0.95746c-4.19138,0.36639 -8.38277,0.73359 -12.57415,1.09999l1.6685,2.9078c6.59187,-11.41699 13.18293,-22.83398 19.7748,-34.25097c0.49443,-0.8568 0.98886,-1.7136 1.4841,-2.57039c1.24574,-2.1581 -2.09287,-4.10683 -3.33781,-1.95115c-4.79291,8.30224 -9.58663,16.60368 -14.37955,24.90592c-2.29338,3.97155 -4.58596,7.9431 -6.87935,11.91545c-0.68286,1.18212 0.16508,3.03986 1.6685,2.9078c4.19138,-0.36639 8.38277,-0.73359 12.57415,-1.09999l-1.6685,-0.95746c1.77802,3.81291 3.55603,7.62663 5.33405,11.43954c0.6273,1.34559 2.66139,1.17085 3.33781,0l19.7748,-34.25097c0.49443,-0.8568 0.98886,-1.7136 1.4841,-2.57039c1.24574,-2.1581 -2.09287,-4.10683 -3.33781,-1.95115l0,0l0,0.00161z" class="e"/>
    <path stroke="null" fill="#ffda71" d="m-105.52556,-159.55038c-22.37821,0 -37.84566,17.27768 -37.84566,37.49537c0,22.62139 15.80083,38.19917 37.84727,38.19917c22.89679,0 37.84727,-15.72353 37.84727,-38.19917c0,-20.35539 -15.54959,-37.49537 -37.84888,-37.49537z" class="f"/>
    <path stroke="null" fill="#211715" d="m-105.52556,-161.48301c-8.63079,0.02979 -17.24145,2.56637 -24.16991,7.79412c-6.55966,4.94913 -11.40089,11.84781 -13.82875,19.70393c-4.80982,15.5665 0.01288,34.00457 13.09032,44.05664c12.80285,9.8411 32.27809,10.68984 46.18736,2.65334c6.53228,-3.77426 11.75279,-9.63092 14.79667,-16.52959c3.3829,-7.6685 4.44746,-16.35002 3.1985,-24.62891c-1.21272,-8.03812 -5.00631,-15.66394 -10.71078,-21.4594c-5.80754,-5.90095 -13.53724,-9.78312 -21.71064,-11.04174c-2.27084,-0.35029 -4.55375,-0.54033 -6.85277,-0.54838c-2.48745,-0.00886 -2.49067,3.8564 0,3.86525c7.90283,0.02738 15.60677,2.34653 21.98041,7.07261c5.82928,4.32103 10.14709,10.62381 12.28667,17.53537c4.27513,13.81586 0.44934,30.42598 -10.9129,39.65991c-5.4943,4.46517 -12.62488,6.88498 -19.70313,7.42451c-7.53161,0.57415 -15.25567,-0.63535 -21.92726,-4.27755c-6.19487,-3.3829 -11.06348,-8.62354 -14.08804,-15.00524c-3.19608,-6.74487 -4.27916,-14.79426 -3.18239,-22.16562c1.08791,-7.31177 4.3621,-14.22655 9.51013,-19.55254c5.33485,-5.51926 12.35673,-9.00926 19.91411,-10.23406c2.02282,-0.32774 4.07543,-0.45014 6.12321,-0.45739c2.48665,-0.00886 2.49148,-3.87411 -0.00081,-3.86525z" class="e"/>
    <path stroke="null" fill="#211715" d="m-105.52475,-151.52354c-6.43082,0.02979 -12.86807,1.89881 -18.03785,5.79144c-4.92176,3.70501 -8.55993,8.82808 -10.41042,14.71131c-3.67682,11.69159 -0.04268,25.57348 9.78634,33.12925c9.58905,7.37136 24.14897,8.01879 34.5763,2.00832c10.70353,-6.16991 15.2911,-18.97759 13.52436,-30.85438c-1.8521,-12.45497 -11.88002,-22.48047 -24.31808,-24.37364c-1.6983,-0.25849 -3.40223,-0.40424 -5.12066,-0.41149c-2.48745,-0.01127 -2.49067,3.85398 0,3.86525c5.73749,0.02657 11.34371,1.70071 15.96027,5.15689c4.20185,3.14616 7.30774,7.70796 8.83371,12.71588c3.04308,9.98443 0.26815,21.89908 -7.89075,28.56905c-8.07677,6.60234 -21.06563,7.24977 -30.16266,2.25715c-9.43605,-5.17863 -14.01315,-16.33553 -12.43162,-26.85707c0.79801,-5.30989 3.17756,-10.32425 6.93088,-14.17984c3.86364,-3.96913 8.9231,-6.45819 14.37472,-7.34157c1.44786,-0.23433 2.91988,-0.31325 4.38545,-0.32049c2.48665,-0.01127 2.49148,-3.87653 0,-3.86525l0,-0.00081z" class="e"/>
   </g>
  </g>
 </g>

</svg>