<svg width="128" height="113" xmlns="http://www.w3.org/2000/svg">
 <g id="Layer_1">
  <title>Layer 1</title>
  <g stroke="null">

   <g stroke="null" data-layer="hair">
    <g stroke="null" id="svg_26">
     <path stroke="null" fill="#fff" d="m94.02238,40.95797c0.65564,-0.62521 1.53664,-0.85758 2.28975,-0.82823c1.63896,0.06408 2.33283,0.95343 2.6309,1.47498c0.88989,1.55711 0.84089,4.4201 0.23264,6.18911c-0.43081,1.25285 -1.13599,3.16914 -2.82315,4.53884c-0.69522,0.56436 -1.71651,0.93405 -2.69121,0.76549c0,0 -0.09343,-0.01616 -0.25768,-0.0447c-0.31341,1.02129 -0.69926,2.02157 -0.93486,2.50704c-0.68014,1.82421 -4.37891,8.14849 -9.0653,10.74519c0.01642,0.97713 -0.01292,1.33147 0.07674,2.56143c0.04039,0.55305 0.0832,1.15053 0.2881,1.69012c0.27491,0.70949 0.6446,1.32393 1.23911,1.80347c1.25904,1.01429 2.55308,1.49895 4.14681,2.09831c0,0 1.26658,0.4685 1.85059,0.69845c0,0 -1.706,12.2689 -18.04067,12.2689s-15.77865,-12.32949 -15.77865,-12.32949c0.62387,-0.24556 1.66238,-0.63787 1.66238,-0.63787c1.59372,-0.59963 2.88777,-1.08402 4.14681,-2.09831c0.59452,-0.47954 0.9642,-1.09426 1.23911,-1.80347c0.2049,-0.53959 0.24772,-1.13707 0.2881,-1.69012c0.0832,-1.14057 0.06381,-1.5283 0.07351,-2.3568c-2.18986,-1.05387 -4.15327,-2.73241 -6.02029,-4.98473c-2.41145,-2.90904 -3.77873,-6.03779 -4.5305,-8.6283c-1.04067,0.26306 -2.16293,-0.12736 -2.90608,-0.74045c-1.67639,-1.38263 -2.36676,-3.30431 -2.7876,-4.56065c-0.59452,-1.77386 -0.62117,-4.63685 0.28083,-6.18696c0.3021,-0.51939 1.00298,-1.40309 2.64221,-1.45452c0.75338,-0.02369 1.6325,0.21567 2.28329,0.846c0,0 -1.77466,-14.7641 20.12471,-14.7641s20.34038,14.92161 20.34038,14.92161l0,-0.00027z" class="skin-base"/>
     <path stroke="null" fill="#645d5c" d="m94.00246,40.94855c0.65375,-0.62817 1.53476,-0.86431 2.2884,-0.83765c0.33819,0.01185 0.63625,0.05897 0.89904,0.13113c0.75849,-2.99358 1.0816,-5.23298 0.96555,-7.97885c-0.40469,-9.57904 -5.23218,-15.52851 -9.89622,-18.89556c-3.96614,-2.85761 -8.59787,-4.69501 -14.56458,-4.69501c-1.63573,0 -3.20064,0.14136 -4.69232,0.41061c-3.71707,0.67125 -6.97965,2.13816 -9.74921,4.1977c-4.50626,3.35116 -9.60893,9.32056 -10.01739,18.98226c-0.10205,2.41415 0.22402,5.19637 0.99221,8.00605c0.28326,-0.08778 0.61013,-0.14486 0.98682,-0.15805c0.75392,-0.02666 1.63465,0.20948 2.2884,0.83765c0,0 0.21406,0.20571 0.42839,0.41169c1.40417,-1.56464 2.80807,-3.12929 2.80807,-3.12929c2.42869,-2.70629 6.71578,-6.78578 9.7239,-8.36362c0.35272,-0.18498 0.80588,0.06516 0.94886,0.65483c0.13813,0.56975 0.13732,1.00217 0.09262,1.41144c-0.06812,0.62144 0.53501,1.07352 1.0474,0.78892c2.14758,-1.1928 5.97425,-3.59403 8.68753,-4.73755l4.02349,0.49435c1.29512,0.56301 2.2806,1.10422 3.70577,2.33068c2.44242,2.10154 4.78387,4.98473 5.82104,7.59409l3.21195,2.54474l0.00027,-0.00054z" class="hair-base"/>
     <path stroke="null" fill="#211715" d="m87.74603,11.71115c-7.20717,-4.63793 -16.57727,-5.44435 -24.45811,-2.00569c-6.46725,2.82207 -11.62081,8.53271 -13.83274,15.22049c-1.64111,4.96157 -1.62765,10.22283 -0.36323,15.26303c0.33711,1.34386 2.41495,0.77438 2.07704,-0.57271c-1.89098,-7.53754 -0.51132,-15.66637 4.62124,-21.6487c4.69609,-5.47343 11.40809,-8.39001 18.61795,-8.2088c4.41068,0.11093 8.54833,1.42948 12.2506,3.81185c1.16911,0.7523 2.25044,-1.11149 1.08725,-1.86002l0,0l0,0.00054z" class="cls-2"/>
     <path stroke="null" fill="#211715" d="m98.31297,40.18925c2.26013,-9.34694 0.02154,-19.28355 -7.19882,-25.89163c-1.02102,-0.93432 -2.54851,0.58482 -1.52318,1.52318c6.65681,6.09218 8.73223,15.16287 6.64496,23.79574c-0.3258,1.34682 1.75097,1.92168 2.07704,0.57271l0,0z" class="cls-2"/>
     <path stroke="null" fill="#211715" d="m80.72008,29.40879c3.8622,1.71354 7.39861,5.37354 9.03191,9.28124c0.52666,1.26012 2.61205,0.70707 2.07704,-0.57271c-1.84629,-4.41714 -5.6164,-8.61376 -10.02197,-10.56856c-1.25581,-0.55736 -2.35303,1.29835 -1.08725,1.86002l0,0l0.00027,0z" class="cls-2"/>
     <path stroke="null" fill="#211715" d="m57.50162,38.99241c1.65188,-1.82663 3.41524,-3.55875 5.28414,-5.16298c0.93513,-0.80265 1.89825,-1.57568 2.92735,-2.25582c0.2041,-0.1349 0.58025,-0.2706 0.73426,-0.46285l0.28353,-0.16344l-0.35649,-0.13921c-0.09235,0.18336 0.05197,1.51187 0.12601,1.75932c0.74153,2.47823 3.34066,0.66587 4.64116,-0.09343c2.16724,-1.26523 4.33502,-2.56224 6.64227,-3.55929c1.269,-0.54847 0.1734,-2.40472 -1.08725,-1.86002c-2.30725,0.99705 -4.4753,2.29406 -6.64227,3.55929c-0.39446,0.23021 -1.24531,0.53313 -1.52103,0.88262l-0.26899,0.15267c0.24045,0.36565 0.3503,0.40819 0.33011,0.12736c0.09532,-0.09235 -0.01804,-0.78407 -0.02558,-0.85139c-0.10259,-0.92005 -0.49678,-1.8996 -1.48575,-2.13601c-0.9494,-0.22698 -1.86756,0.52424 -2.6072,1.02398c-1.00648,0.67987 -1.96422,1.43783 -2.89261,2.22028c-1.99007,1.67746 -3.85924,3.50598 -5.60483,5.436c-0.92786,1.02586 0.59102,2.55389 1.52318,1.52318l0,0l0,-0.00027z" class="cls-2"/>
     <path stroke="null" fill="#211715" d="m92.75257,51.28339c-0.64918,2.95858 -1.97364,5.61129 -3.70684,8.07498c-2.04554,2.90769 -4.81618,6.01086 -8.40697,6.87194c-1.34736,0.32311 -0.7768,2.40068 0.57271,2.07704c3.95779,-0.94913 6.9958,-4.17616 9.32002,-7.34126c2.00542,-2.73106 3.56818,-5.78334 4.29813,-9.11027c0.29645,-1.35113 -1.77978,-1.92814 -2.07704,-0.57271l0,0l0,0.00027z" class="cls-2"/>
     <path stroke="null" fill="#211715" d="m52.60951,51.62804c1.72324,7.59651 7.30518,15.76088 15.48516,17.0762c1.35624,0.2181 1.93972,-1.85733 0.57271,-2.07704c-7.48181,-1.20303 -12.40838,-8.63961 -13.98083,-15.57186c-0.30641,-1.35139 -2.38372,-0.7795 -2.07704,0.57271l0,0z" class="cls-2"/>
     <path stroke="null" fill="#211715" d="m54.31875,40.039c-1.5388,-1.29997 -3.81912,-1.6088 -5.52082,-0.38154c-1.53799,1.10933 -1.93164,3.17614 -1.94833,4.96131c-0.03554,3.78385 2.36487,9.80791 6.97426,9.40133c1.36997,-0.1209 1.3829,-2.27602 0,-2.15405c-2.89908,0.25579 -4.47988,-3.66134 -4.76367,-6.05664c-0.1419,-1.19738 -0.15617,-2.79245 0.50162,-3.85682c0.67879,-1.09829 2.2806,-1.19603 3.23403,-0.39069c1.05279,0.88935 2.58405,-0.6271 1.52318,-1.52318l0,0l-0.00027,0.00027z" class="cls-2"/>
     <path stroke="null" fill="#211715" d="m94.78384,41.7197c0.92759,-0.77115 2.496,-0.69091 3.18341,0.3538c0.70383,1.06975 0.66345,2.72271 0.5132,3.93706c-0.29645,2.39638 -1.92814,6.28847 -4.81914,6.01086c-1.37913,-0.13247 -1.36997,2.02238 0,2.15405c4.60643,0.44239 7.04508,-5.57575 7.03888,-9.35529c-0.00296,-1.73912 -0.35999,-3.7545 -1.80805,-4.8878c-1.69604,-1.3277 -4.04341,-1.05575 -5.63148,0.26441c-1.06706,0.8872 0.4642,2.40365 1.52318,1.52318l0,0l0,-0.00027z" class="cls-2"/>
     <path stroke="null" fill="#211715" d="m57.47173,76.13569c2.10343,-0.82123 4.41337,-1.45964 6.17538,-2.92923c1.92222,-1.60288 2.01026,-4.02672 2.02238,-6.35282c0.00727,-1.3864 -2.14678,-1.38801 -2.15405,0c-0.01077,2.06277 0.00242,3.97771 -1.93218,5.19152c-1.43756,0.90201 -3.11044,1.39851 -4.68451,2.01322c-1.27708,0.49866 -0.72161,2.58243 0.57271,2.07704l0,0l0.00027,0.00027z" class="cls-2"/>
     <path stroke="null" fill="#211715" d="m82.33238,66.85391c0.01239,2.38103 0.11605,4.84283 2.13143,6.4371c1.8199,1.43944 4.1215,2.07677 6.25481,2.90554c1.29297,0.50216 1.85302,-1.57972 0.57271,-2.07704c-1.57084,-0.61013 -3.24507,-1.09426 -4.6969,-1.96368c-2.06008,-1.23346 -2.09642,-3.09725 -2.10773,-5.30164c-0.00727,-1.38559 -2.16132,-1.38855 -2.15405,0l0,0l-0.00027,-0.00027z" class="cls-2"/>
    </g>
   </g>
   <g stroke="null" data-layer="face">
    <g stroke="null" id="svg_25">
     <path stroke="null" fill="#211715" d="m69.99508,57.97305c2.23105,1.17207 5.68937,1.48144 7.81488,-0.10124c1.0991,-0.81854 0.02639,-2.68933 -1.08725,-1.86002c-1.51483,1.12818 -4.0356,0.94428 -5.64037,0.10124c-1.22619,-0.64406 -2.31614,1.21434 -1.08725,1.86002l0,0z" class="line-main"/>
     <path stroke="null" fill="#211715" d="m73.42055,48.59191c0.11363,0.43754 0.21864,0.8775 0.31153,1.31989c0.02989,0.14271 0.04173,0.45558 0.10232,0.54013c-0.13355,-0.18659 0.34546,-0.52936 0.35649,-0.50082l0.0797,0.01346c-0.05977,-0.01266 -0.11955,-0.02343 -0.17986,-0.03231c-0.57351,-0.09289 -1.15915,0.14863 -1.32474,0.7523c-0.14109,0.51374 0.17475,1.23131 0.7523,1.32474c0.46393,0.07512 0.8907,0.13894 1.34843,-0.0175c0.6691,-0.22887 1.11149,-0.76522 1.11903,-1.48548c0.00835,-0.81611 -0.2838,-1.7025 -0.48789,-2.48711c-0.34842,-1.34062 -2.42653,-0.77223 -2.07704,0.57271l0,0l-0.00027,0z" class="line-main"/>
     <path stroke="null" fill="#211715" d="m62.85873,42.89715c-0.33495,1.08887 -0.11659,3.59349 1.94591,3.80647c2.72621,-0.01642 2.87134,-3.04447 1.95345,-4.4683c-0.75149,-1.16561 -2.96074,-1.65054 -3.89963,0.66156l0.00027,0.00027z" class="line-main"/>
     <path stroke="null" fill="#211715" d="m84.69025,42.89742c0.33522,1.08887 0.11686,3.59349 -1.94591,3.80647c-2.72621,-0.01642 -2.87134,-3.04447 -1.95372,-4.4683c0.75122,-1.16561 2.96074,-1.65054 3.89963,0.66183z" class="line-main"/>
    </g>
   </g>
   <g stroke="null" data-layer="clothes">
    <g stroke="null" id="svg_24">
     <path stroke="null" fill="#fff" d="m118.34452,105.18596l-11.8521,0l0,-24.32348c1.26335,1.06975 2.45561,2.24398 3.55848,3.53048c5.01812,5.85093 7.54751,13.20484 8.29361,20.793z" class="cloth-base"/>
     <path stroke="null" fill="#a98a75" d="m106.49242,80.86274l0,24.32348l-65.95768,0l0,-24.32348c5.1759,-4.37621 11.57961,-7.00496 18.24584,-8.51548c-0.09666,0.44831 -0.09424,0.90928 0.05089,1.30158c0.36673,0.73615 4.28197,7.01761 7.12451,9.15227c0.20383,0.15294 0.48897,0.12736 0.66748,-0.05358l0.97551,-0.99598l0.09424,0.09182c1.94349,2.15243 3.89478,4.30217 5.84339,6.4546c1.94618,-2.15243 3.89721,-4.30217 5.84069,-6.4546l0.09424,-0.09182l0.97551,0.99598c0.17825,0.18094 0.46366,0.20625 0.66748,0.05358c2.8428,-2.13466 6.75778,-8.41613 7.12451,-9.15227c0.14513,-0.38961 0.14782,-0.84573 0.05358,-1.29135c6.64819,1.51295 13.03655,4.13927 18.1998,8.50525z" class="cloth-accent"/>
     <path stroke="null" fill="#fff" d="m40.53447,80.86274l0,24.32348l-11.8521,0c0.74638,-7.58816 3.27576,-14.94208 8.29361,-20.793c1.10287,-1.28623 2.29514,-2.46073 3.55848,-3.53048z" class="cloth-base"/>
     <path stroke="null" fill="#fff" d="m106.49269,81.79491c0,7.77664 0,15.60929 0,23.39105" class="cloth-base"/>
     <path stroke="null" fill="#211715" d="m105.41567,81.79491c0,7.79711 0,15.59421 0,23.39105c0,1.38613 2.15405,1.38828 2.15405,0c0,-7.79711 0,-15.59421 0,-23.39105c0,-1.38613 -2.15405,-1.38828 -2.15405,0l0,0z" class="cls-3"/>
     <path stroke="null" fill="#fff" d="m40.5342,105.18596c0,-7.78176 0,-15.61441 0,-23.39105" class="cloth-base"/>
     <path stroke="null" fill="#211715" d="m41.61122,105.18596c0,-7.79711 0,-15.59421 0,-23.39105c0,-1.38613 -2.15405,-1.38828 -2.15405,0c0,7.79711 0,15.59421 0,23.39105c0,1.38613 2.15405,1.38828 2.15405,0l0,0z" class="cls-3"/>
     <path stroke="null" fill="#211715" d="m59.54096,71.07988c-8.06367,1.71139 -15.99217,5.01058 -21.86302,10.96032c-6.13391,6.21604 -9.19104,14.57966 -10.07259,23.14549c-0.1419,1.37751 2.01322,1.36755 2.15405,0c0.83712,-8.13502 3.84389,-16.10768 9.74544,-21.92576c5.59029,-5.51166 13.03817,-8.49609 20.60883,-10.10274c1.35516,-0.28757 0.78165,-2.3646 -0.57271,-2.07704l0,0l0,-0.00027z" class="cls-3"/>
     <path stroke="null" fill="#211715" d="m86.91323,73.15691c7.57066,1.60665 15.01854,4.59108 20.60883,10.10274c5.90128,5.81808 8.90806,13.79101 9.74544,21.92576c0.14055,1.3654 2.29594,1.37994 2.15405,0c-0.88154,-8.56556 -3.93867,-16.92945 -10.07259,-23.14549c-5.87085,-5.94974 -13.79962,-9.24893 -21.86302,-10.96032c-1.3522,-0.28703 -1.93002,1.78893 -0.57271,2.07704l0,0l0,0.00027z" class="cls-3"/>
     <path stroke="null" fill="#fff" d="m68.34374,71.20912c2.12093,1.66588 4.10723,3.21895 4.41175,3.43463l1.55953,0c0.67125,-0.47577 9.52277,-7.45515 9.95708,-7.80653c1.02183,1.14299 2.2814,2.81776 3.28115,3.97583c0.58859,0.68176 1.02156,1.93299 0.6866,2.83553c-0.36807,0.73507 -4.28278,7.01842 -7.12504,9.15281c-0.20329,0.15267 -0.4887,0.12682 -0.66668,-0.05493l-0.98171,-1.00217c-1.97149,2.1842 -3.95402,4.36814 -5.93116,6.55234c-1.97714,-2.1842 -3.95994,-4.3684 -5.93116,-6.55234c-0.57001,0.58186 -0.98171,1.00244 -0.98171,1.00244c-0.17798,0.18175 -0.46339,0.2076 -0.66668,0.05493c-2.84226,-2.13439 -6.75697,-8.41774 -7.12504,-9.15281c-0.33468,-0.90255 0.09801,-2.15405 0.6866,-2.83553c0.99975,-1.1578 2.25932,-2.83257 3.28115,-3.97583c0.23721,0.19198 2.98901,2.36407 5.54532,4.3719l0,-0.00027z" class="cloth-base"/>
     <path stroke="null" fill="#fff" d="m67.69375,81.84391c1.94187,2.15108 3.89425,4.3019 5.8415,6.45298c1.94726,-2.15108 3.89963,-4.3019 5.8415,-6.45298" class="cloth-base"/>
     <path stroke="null" fill="#211715" d="m66.9323,82.60563c1.94456,2.15324 3.89398,4.30217 5.8415,6.45298c0.37696,0.41627 1.14649,0.416 1.52318,0c1.94726,-2.15081 3.89694,-4.29947 5.8415,-6.45298c0.92705,-1.02667 -0.59155,-2.5547 -1.52318,-1.52318c-1.94456,2.15324 -3.89398,4.30217 -5.8415,6.45298l1.52318,0c-1.94726,-2.15081 -3.89694,-4.29947 -5.8415,-6.45298c-0.93109,-1.03098 -2.4505,0.49624 -1.52318,1.52318l0,0z" class="cls-3"/>
     <path stroke="null" fill="#211715" d="m70.2016,77.55305l-2.17047,2.21597c-0.6621,0.6761 -1.44779,1.8094 -2.27629,2.20036l0.82985,-0.10851c-1.05521,-0.30157 -2.22109,-2.13008 -2.89611,-2.97931c-0.96501,-1.21354 -1.85517,-2.48981 -2.70387,-3.78708c-0.51078,-0.78057 -1.37724,-1.68042 -1.11849,-2.66052c0.25579,-0.96959 1.15188,-1.7437 1.76147,-2.50031c0.6341,-0.78703 1.26523,-1.57542 1.93218,-2.33499l-1.52318,0c3.08432,2.48038 6.20823,4.91688 9.33967,7.33749c1.08725,0.84035 2.61905,1.24019 3.83501,0.37184c1.73158,-1.23669 3.37189,-2.62578 5.04424,-3.94083c1.59426,-1.25365 3.19741,-2.49762 4.77767,-3.76877l-1.52318,0c0.66695,0.75957 1.29835,1.54795 1.93218,2.33499c0.59802,0.74261 1.51591,1.5458 1.76147,2.50031c0.25364,0.98601 -0.60448,1.87483 -1.11849,2.66052c-0.84869,1.297 -1.73885,2.57328 -2.70387,3.78708c-0.66452,0.8355 -1.85356,2.68125 -2.89611,2.97931l0.82985,0.10851c-0.82608,-0.38988 -1.61553,-1.52587 -2.27629,-2.20036l-2.17047,-2.21597c-0.97147,-0.99194 -2.49438,0.53151 -1.52318,1.52318c1.29647,1.32366 2.59293,2.64732 3.8894,3.97098c0.67637,0.69064 1.41709,1.2173 2.4233,0.68418c1.13141,-0.59936 2.12766,-1.95857 2.91873,-2.92169c1.62307,-1.97553 3.24372,-4.12123 4.4613,-6.37867c0.66452,-1.23238 0.39742,-2.73402 -0.34303,-3.88132c-1.01509,-1.57326 -2.42761,-3.06871 -3.66188,-4.47422c-0.41277,-0.47012 -1.09426,-0.34492 -1.52318,0c-2.90635,2.33741 -5.85308,4.62877 -8.79793,6.91772c-0.20302,0.15778 -0.45397,0.30695 -0.63517,0.49085c-0.05574,0.05654 -0.17771,0.0972 -0.21783,0.16505c0.02019,-0.03393 0.64514,0.00512 0.15482,-0.08239c-0.24071,-0.04308 -0.60502,-0.02693 -0.85462,0c-0.67045,0.07189 0.06839,-0.08993 0.10124,0.11955c-0.01346,-0.08616 -0.4055,-0.30749 -0.47497,-0.3608c-1.64273,-1.26254 -3.26607,-2.55093 -4.89453,-3.83205c-1.44536,-1.13707 -2.89854,-2.26525 -4.33152,-3.41766c-0.43,-0.34599 -1.10664,-0.47443 -1.52318,0c-1.23723,1.40928 -2.64409,2.898 -3.66188,4.47422c-0.74234,1.14972 -1.00405,2.64678 -0.34303,3.88132c1.2095,2.25879 2.84038,4.4061 4.4613,6.37867c0.79538,0.96824 1.78436,2.31856 2.91873,2.92169c1.00352,0.5334 1.74478,0.00862 2.4233,-0.68418c1.29647,-1.32366 2.59293,-2.64732 3.8894,-3.97098c0.97067,-0.99113 -0.55117,-2.51566 -1.52318,-1.52318l0,0l0.00081,0z" class="cls-3"/>
    </g>
   </g>
   <g stroke="null" data-layer="hand">
    <g stroke="null" id="svg_23">
     <path stroke="null" fill="#fff" d="m28.77527,86.33025c1.18149,-0.68418 2.47958,-1.13007 3.84363,-1.04498c0.01427,0.00081 0.02827,0.00188 0.04227,0.0035c0.21244,-0.30884 0.41061,-0.59721 0.57217,-0.83227c-1.0509,-3.68449 -2.65944,-9.33186 -3.61072,-12.66121c0,0 -0.08616,-0.32795 -0.21029,-0.79996c-1.44267,0.62252 -2.99924,1.04337 -4.63712,1.22646c0.13301,0.50108 0.22375,0.84869 0.22644,0.87508c0.96582,3.38051 2.7246,9.55508 3.77389,13.23284l-0.00027,0.00054z" class="skin-base"/>
     <path stroke="null" fill="#211715" d="m35.16228,87.2888c-1.50702,-5.25803 -2.9987,-10.52009 -4.50142,-15.77946c-0.38019,-1.33066 -2.45911,-0.76496 -2.07704,0.57271c1.50245,5.2591 2.99439,10.52144 4.50142,15.77946c0.38127,1.33012 2.46046,0.76469 2.07704,-0.57271l0,0z" class="line-main"/>
     <path stroke="null" fill="#211715" d="m30.54751,88.61192c-1.50891,-5.26503 -3.00301,-10.53463 -4.50761,-15.801c-0.38019,-1.33066 -2.45911,-0.76496 -2.07704,0.57271c1.50433,5.26637 2.99843,10.53598 4.50761,15.801c0.38127,1.33012 2.46046,0.76469 2.07704,-0.57271l0,0z" class="line-main"/>
     <path stroke="null" fill="#fff" d="m34.26835,108.08611c0.77519,-0.12628 1.53557,-0.3223 2.24936,-0.53582c2.2254,-0.66587 3.74965,-2.34629 4.4963,-4.54611c0.56598,-1.66696 0.80534,-4.41687 0.42623,-5.8722c-0.24879,-0.95532 -0.81477,-2.65271 -1.27385,-6.06822c-0.45181,-3.36273 -0.31395,-3.42682 -1.24262,-5.57413c-1.00513,-2.32448 -3.39935,-1.89098 -5.31699,-1.5773l-0.94643,1.37617c-0.014,-0.00188 -0.028,-0.00269 -0.042,-0.0035c-2.53073,-0.15805 -4.83745,1.50379 -6.58653,3.14625c-1.86648,1.78032 -2.83876,3.76985 -2.6247,6.17538c0.41277,4.63793 3.61422,10.6671 6.41582,13.04167c1.38371,0.66398 2.94216,0.68229 4.44487,0.43781l0.00054,0z" class="skin-base"/>
     <path stroke="null" fill="#211715" d="m36.42186,89.9135c0.88881,-2.26956 -0.42946,-5.00762 -2.81507,-5.57305c-3.11933,-0.73965 -6.19207,1.26819 -8.33616,3.32962c-2.15701,2.07381 -3.25476,4.66324 -2.85492,7.66059c0.39581,2.96747 1.56491,5.85604 3.04797,8.44197c1.3102,2.28437 2.93435,4.93546 5.70957,5.41177c2.6064,0.44723 5.98367,-0.22914 8.09517,-1.8584c2.2919,-1.76874 3.17695,-4.548 3.39047,-7.33722c0.17744,-2.32045 -0.58455,-4.33717 -1.0229,-6.57469c-0.51697,-2.63871 -0.49651,-5.39885 -1.54149,-7.90319c-1.27358,-3.05147 -3.87001,-3.11125 -6.7734,-2.63655c-1.36459,0.22321 -0.78569,2.29917 0.57271,2.07704c0.82958,-0.1357 1.73831,-0.32311 2.5792,-0.17529c1.07864,0.18983 1.45344,1.02236 1.80967,1.96287c0.55871,1.47444 0.63194,3.06251 0.84573,4.61154c0.25633,1.85813 0.62171,3.68261 1.1158,5.49147s0.35892,3.76393 -0.16613,5.55151c-0.65671,2.2359 -2.22324,3.68853 -4.44703,4.28897c-1.07837,0.29133 -2.19713,0.52155 -3.32046,0.46581c-1.39501,-0.06947 -2.16885,-0.56975 -3.03505,-1.5983c-1.35032,-1.60342 -2.40768,-3.50759 -3.24157,-5.42416c-0.88047,-2.02346 -1.78355,-4.51111 -1.55307,-6.75455c0.27572,-2.68206 2.66859,-4.90018 4.90018,-6.14926c1.10529,-0.61875 2.69202,-1.21838 3.96102,-0.72187c1.12684,0.44077 1.41144,1.79809 1.00298,2.84119c-0.50566,1.29135 1.57649,1.85113 2.07704,0.57271l0,0l-0.00027,-0.00054z" class="line-main"/>
     <path stroke="null" fill="#211715" d="m29.84852,92.01854c1.10179,-0.33953 2.22674,-0.72403 3.36623,-0.91628c0.68095,-0.11497 1.36782,-0.20113 1.90068,0.35784c0.39904,0.41842 0.71541,1.29431 0.16667,1.73239c-1.08322,0.86458 0.44993,2.37995 1.52318,1.52318c1.65888,-1.3242 0.87023,-4.13415 -0.66425,-5.20417c-2.00676,-1.39905 -4.78871,-0.21002 -6.86494,0.42973c-1.3207,0.40685 -0.75742,2.48685 0.57271,2.07704l0,0l-0.00027,0.00027z" class="line-main"/>
     <path stroke="null" fill="#211715" d="m30.82161,96.02372c1.11337,-0.30372 2.22836,-0.60017 3.34658,-0.88585c0.68472,-0.17502 1.63546,-0.44643 2.01753,0.43889c0.26387,0.61148 -0.07835,0.87939 -0.55521,1.14111c-1.21542,0.66748 -0.12978,2.52831 1.08725,1.86002c1.86271,-1.02317 2.30779,-3.24103 0.78353,-4.81779c-1.87564,-1.94026 -5.09082,-0.40335 -7.25186,0.18632c-1.33578,0.36457 -0.76873,2.44323 0.57271,2.07704l0,0l-0.00054,0.00027z" class="line-main"/>
     <path stroke="null" fill="#211715" d="m32.28582,99.72491c0.71784,-0.17582 3.75316,-1.22242 3.83555,0.00431c0.05224,0.78084 -1.92275,1.03502 -2.46019,1.16211c-1.34843,0.3188 -0.77761,2.39638 0.57271,2.07704c1.84817,-0.437 4.548,-1.21811 3.97448,-3.71411c-0.72645,-3.16241 -4.2257,-2.16212 -6.49499,-1.60638c-1.34574,0.32957 -0.77573,2.40715 0.57271,2.07704l0,0l-0.00027,0z" class="line-main"/>
     <circle stroke="null" fill="#fff" r="16.33332" cy="55.99052" cx="22.9545" class="skin-base"/>
     <path stroke="null" fill="#f2635f" d="m29.15788,55.4477c0.16559,3.39424 -2.19147,6.44248 -5.66056,6.7462c-3.38885,0.29645 -6.45002,-2.27521 -6.7462,-5.66056c-0.69764,-7.97428 11.39544,-9.08576 12.40676,-1.08537c0.24825,1.96476 3.32315,1.70573 3.07355,-0.26899c-0.6349,-5.02243 -4.89641,-8.91936 -10.08847,-8.46513c-5.04558,0.44131 -8.90671,5.04289 -8.46513,10.08847c0.44131,5.04477 5.04316,8.90671 10.08847,8.46513c5.1926,-0.45423 8.71204,-5.03185 8.46513,-10.08847c-0.09693,-1.98468 -3.17022,-1.71247 -3.07355,0.26899l0,-0.00027z" class="red"/>
     <path stroke="null" fill="#211715" d="m38.1486,54.56696c0.47954,6.30893 -2.78922,12.30633 -8.49259,15.13567c-5.77203,2.86353 -12.93962,1.61338 -17.48062,-2.91631c-4.50546,-4.49442 -5.7723,-11.58796 -3.00812,-17.34249c2.75556,-5.73703 8.83563,-9.18297 15.16825,-8.65307c7.25644,0.60717 13.10117,6.5868 13.81282,13.77593c0.13517,1.36674 2.29083,1.38074 2.15405,0c-0.7111,-7.18347 -5.62394,-13.37016 -12.64182,-15.34354c-7.03969,-1.97957 -14.66205,0.7908 -18.90687,6.7007c-4.24239,5.90639 -4.24562,14.24443 0.00835,20.1476s11.81629,8.63907 18.84332,6.69935c7.99312,-2.20655 13.32223,-9.97915 12.69702,-18.20438c-0.10447,-1.37347 -2.25932,-1.38478 -2.15405,0l0.00027,0.00054z" class="line-main"/>
    </g>
   </g>
  </g>
 </g>

</svg>