<svg id="b" xmlns="http://www.w3.org/2000/svg" width="370.816" height="232.345" viewBox="0 0 370.816 232.345" style="color: initial !important;"><defs><style>.g{fill:#211715;}.h{fill:#ffffff;}</style></defs><g id="c"><g id="d"><g id="e"><path class="h" d="M326.459,121.673c.134-7.078,2.083-23.195,2.072-34.194,0-2.363-.09-4.502-.314-6.238-.022-.179-.045-.358-.067-.526-.067-2.419-.314-4.816-.706-7.168-1.803-10.741-6.642-20.597-11.962-28.224-4.245-6.104-8.814-10.774-12.342-13.294-6.395-4.547-13.048-8.008-19.925-10.629-.045-.022-.09-.034-.134-.045-19.298-7.358-40.286-8.064-61.992-7.403-5.018.157-10.08.381-15.165.616-3.013.157-6.16.325-9.374.526-28.269,1.758-63.426,5.309-93.184,2.878-6.039-.482-11.854-1.233-17.333-2.275,2.522-1.294,4.897-2.87,7.08-4.682.912-.754,1.846-1.655,2.015-2.837.191-1.34-.743-2.645-1.925-3.31s-2.578-.822-3.929-.946c-3.355-.304-6.754-.462-10.086.034-3.343.495-5.831.777-8.443,2.904,0,0-.662.426-.657.431-1.077-.606-2.368-1.38-4.087-2.38-4.704-2.71-11.066-4.368-15.288-.941-3.136,2.531-4.066,7.146-7.336,9.542-.381.28-.795.526-1.221.739-2.195,1.131-4.827,1.49-6.978,2.766-5.813,3.438-6.72,10.506-8.77,17.774-2.957,8.568-6.765,13.317-11.514,18.939-4.278,5.062-11.861,8.098-12.835,14.661-.728,5.018,3.125,9.677,7.571,12.152,8.938,4.995,19.992,3.741,29.982,1.478,7.012-1.587,19.133-4.662,28.559-9.068.414.812.646,1.266.646,1.266,2.642,5.165,8.04,9.512,13.992,15.42,3.883,3.854,6.647,8.712,7.861,14.047,3.789,16.652,11.538,39,31.118,47.075,1.042,2.952,1.755,5.573,1.673,7.61-.492,12.086,6.039,29.264,5.729,37.316-1.2,7.161-3.755,13.664-5.264,16.684-2.323,3.135-5.108,10.084-5.342,13.006-.156,1.953,1.525,3.135,3.484,3.135,4.796,0,14.558.282,16.179.155,1.349-.106,4.413.348,5.808-1.853.709-1.119.465-10.147.658-14.212.813-2.787,3.141-6.292,4.761-11.961,1.239-4.335-.685-11.596-1.45-20.404-.453-5.219,2.417-13.202,6.151-22.037l.863.238c5.403,1.543,24.45,4.347,38.832,4.11,26.954-.445,58.466-7.206,82.077-15.283l.643-.315c3.535,3.7,8.183,6.968,14.3,10.252,7.472,4.131,12.005,12.317,13.732,20.679s3.297,14.78,4.181,22.142c.596,4.966,1.928,10.384,1.51,15.368-.503,2.594-2.696,9.25-3.545,12.262-.319,1.133.477,2.265,1.65,2.362,5.337.439,15.897.385,21.428.138,1.388-.062,2.506-1.135,2.653-2.517.415-3.905.651-11.486.304-14.605-1.548-6.193-4.185-17.356-5.584-24.021-6.145-29.269-3.532-37.553-.764-67.332"/><path class="g" d="M109.354,69.618c-3.908,8.526-9.59,8.535-17.279,3.154-7.689-5.381-5.006-14.714-14.26-16.223-7.925-1.295-15.749,2.128-23.347,4.728-7.587,2.612-16.458,4.334-23.268.079-1.756-1.092-3.355-2.645-3.906-4.649-1.587-5.707,5.37-9.681,8.826-14.51,3.602-5.043,3.377-11.741,4.311-17.865.326-2.173.878-6,1.722-10.075.428-.214.844-.462,1.227-.743,3.264-2.398,4.199-7.013,7.34-9.546,4.221-3.422,10.582-1.767,15.287.946,1.711.991,2.994,1.767,4.075,2.375l.664-.428c2.612-2.128,5.099-2.409,8.443-2.904,3.332-.495,6.732-.338,10.086-.034,1.351.124,2.747.281,3.929.946,1.182.664,2.116,1.97,1.925,3.31-.169,1.182-1.103,2.083-2.015,2.837-2.184,1.812-4.559,3.388-7.081,4.683,5.482,1.047,19.482,3.812,51.34,2.816,1.251,25.266-24.647,21.038-28.186,35.761-1.27,5.282,1.543,12.341.167,15.343Z"/><path class="g" d="M327.445,73.546c-2.587,4.491-6.462,6.63-11.301,6.059-5.768-.672-10.64-4.458-15.12-8.154-4.469-3.707-9.173-7.627-14.885-8.68-5.118-.941-10.326.549-15.433,1.501-5.118.963-23.274-.302-27.854-2.766-4.693-2.52-7.896-6.328-6.182-12.992,4.413-17.136-9.442-20.474-16.52-29.086-1.176-1.434-1.221-4.11.941-5.477,21.705-.661,42.694.045,61.992,7.403.045.011.09.022.135.045,6.877,2.621,13.53,6.082,19.925,10.629,3.528,2.52,8.098,7.19,12.342,13.294,5.32,7.627,10.158,17.483,11.962,28.224Z"/><path class="g" d="M161.233,87.095c13.33,2.916,25.411,2.916,33.325,0,7.344-2.706,9.909-9.395,9.451-14.556-.704-7.939-.976-12.624-4.036-17.52-3.356-5.37-8.162-8.749-13.747-8.748-12.065.002-11.021,11.583-19.162,14.163-15.754,4.993-18.683,12.68-18.329,15.83.711,5.78,8.388,9.932,12.497,10.831Z"/></g><g id="f"><path class="g" d="M113.1,127.755c.076,8.925,4.705,16.948,7.342,25.255.492,1.551.971,3.18,1.024,4.705.067,1.939-.019,3.86.151,5.801.408,4.683,1.334,9.309,2.345,13.893.936,4.245,2.003,8.47,2.739,12.757.269,1.564.484,3.144.503,4.733.028,2.42-.908,5.063-1.58,7.372-.66,2.268-1.427,4.512-2.331,6.694-.653,1.576-1.522,2.911-2.355,4.387-1.958,3.47-3.856,7.611-4.303,11.613-.252,2.256.959,4.224,3.051,5.08,1.785.73,3.924.472,5.819.498,3.761.051,7.523.169,11.285.158,3.125-.009,7.178.233,8.997-2.876.64-1.095.622-2.58.691-3.805.106-1.875.117-3.755.136-5.632.018-1.757-.192-3.704.089-5.44.045-.275.366-1.039.572-1.517.418-.968.882-1.916,1.32-2.875,1.868-4.097,3.482-8.166,3.254-12.731-.252-5.062-1.317-10.062-1.777-15.107-.269-2.95.215-5.374.995-8.233,2.082-7.63,5.5-14.886,8.666-22.109,3.377-7.707,6.905-15.463,9.176-23.586.462-1.651.857-3.319,1.154-5.008.187-1.063-.286-2.155-1.397-2.46-.966-.265-2.272.327-2.46,1.397-1.326,7.536-4.373,14.754-7.369,21.752-3.26,7.616-6.81,15.129-9.663,22.912-1.131,3.087-2.177,6.244-2.754,9.487-.647,3.636-.276,7.027.202,10.679.56,4.279,1.637,8.826,1.198,13.161-.405,4.002-2.781,7.797-4.321,11.456-.329.782-.704,1.586-.781,2.439-.074.821-.055,1.661-.068,2.485-.029,1.856-.033,3.711-.065,5.567-.027,1.608-.024,3.244-.225,4.843.055-.441-.073.288-.074.358-.003.251-.245.23.084-.118-.052.055-.034.147-.125.18-.201.073-.418.342-.637.438-.367.161-.793.215-1.189.253-2.716.26-5.533.087-8.253.043-2.006-.032-4.011-.071-6.017-.1-.92-.014-1.84-.026-2.759-.033-.692-.005-1.562.138-2.211-.156-1.243-.563-.316-2.43.011-3.501.596-1.95,1.36-3.851,2.255-5.683.786-1.609,1.878-3.05,2.627-4.662.857-1.843,1.607-3.74,2.278-5.657,1.482-4.231,3.152-9.027,2.77-13.559-.326-3.877-1.217-7.702-2.071-11.489-.985-4.369-2.017-8.731-2.759-13.149-.355-2.116-.634-4.243-.768-6.385-.112-1.788.07-3.599-.12-5.377-.4-3.749-1.88-7.315-3.232-10.801-1.58-4.073-3.229-8.15-4.264-12.404-.476-1.958-.791-3.923-.808-5.941-.022-2.573-4.022-2.579-4,0h0Z"/><path class="g" d="M264.07,118.425c.61,6.851,1.666,13.719,4.458,20.054,2.421,5.493,6.325,10.14,11.032,13.825,3.231,2.53,6.714,4.679,10.323,6.626,2.266,1.222,4.288-2.23,2.019-3.454-5.549-2.992-10.956-6.451-15.104-11.27-3.57-4.148-5.727-9.198-6.999-14.479-.895-3.714-1.39-7.502-1.728-11.302-.096-1.076-.851-2-2-2-1.008,0-2.096.918-2,2h0Z"/><path class="g" d="M324.456,121.677c-1.246,13.36-3.383,26.808-2.936,40.26.469,14.121,3.726,27.999,6.955,41.696.748,3.174,1.597,6.333,2.298,9.518.546,2.481.214,5.835.115,8.519-.058,1.575-.141,3.15-.271,4.721-.116,1.4-.275,1.747-1.721,1.801-3.214.12-6.432.157-9.648.15s-6.425-.043-9.628-.241c-.232-.014-1.046-.2-.928.013-.032-.057.385-1.225.473-1.518.439-1.458.892-2.911,1.335-4.368.883-2.902,1.893-5.773,1.894-8.836,0-4.233-.916-8.398-1.487-12.575-1.097-8.026-2.709-15.921-4.432-23.835-1.499-6.886-4.834-13.718-10.204-18.406-1.348-1.177-2.81-2.221-4.369-3.1-2.245-1.266-4.263,2.188-2.019,3.454,6.268,3.536,10.211,9.935,12.138,16.729,1.125,3.965,1.815,8.091,2.655,12.125.816,3.915,1.578,7.847,2.077,11.817.548,4.361,1.53,8.712,1.633,13.117.072,3.063-.958,5.873-1.844,8.777-.452,1.48-.913,2.958-1.355,4.441-.488,1.637-.788,3.283.434,4.702,1.195,1.388,2.884,1.404,4.576,1.497,1.599.087,3.2.134,4.801.165,3.478.067,6.957.058,10.435-.011,3.188-.063,7.343.415,8.745-3.219.554-1.437.495-3.225.585-4.753.098-1.664.161-3.33.192-4.997.056-3.033.002-5.897-.723-8.848-3.47-14.124-7.166-28.452-8.383-42.982-1.097-13.093.645-26.108,1.958-39.117.225-2.231.443-4.462.651-6.695.1-1.077-.991-2-2-2-1.165,0-1.899.92-2,2h0Z"/><path class="g" d="M154.51,160.369c5.665,1.594,11.695,2.233,17.522,2.904,8.004.922,16.062,1.46,24.121,1.225,17.841-.521,35.65-3.378,52.999-7.479,9.224-2.18,18.358-4.762,27.33-7.823,2.423-.827,1.382-4.692-1.063-3.857-16.196,5.526-32.933,9.594-49.83,12.278-8.637,1.372-17.346,2.343-26.084,2.753-8.086.379-16.14.065-24.192-.743-6.557-.658-13.372-1.323-19.739-3.115-2.482-.698-3.541,3.16-1.063,3.857h0Z"/><path class="g" d="M67.094,75.231c3.344,6.387,9.47,10.939,14.45,15.97,2.446,2.471,4.451,5.389,5.801,8.601,1.159,2.757,1.673,5.722,2.415,8.606,2.875,11.173,7.14,22.285,14.431,31.355,4.242,5.277,9.617,9.644,15.821,12.4.986.438,2.149.287,2.736-.718.498-.852.275-2.296-.718-2.736-10.819-4.806-18.041-14.32-22.806-24.878-2.264-5.016-3.97-10.283-5.375-15.598-.722-2.731-1.211-5.551-2.156-8.216-1.212-3.419-2.997-6.542-5.272-9.361-4.919-6.094-12.169-10.371-15.872-17.444-1.194-2.281-4.648-.262-3.454,2.019h0Z"/><path class="g" d="M328.459,121.673c.178-8.349,1.273-16.678,1.761-25.012.271-4.627.523-9.321.149-13.948-.433-5.366-.919-10.643-2.373-15.853-2.831-10.147-8.054-19.657-14.744-27.767-2.898-3.513-6.124-6.728-9.87-9.332-4.485-3.118-9.26-5.816-14.244-8.053-20.164-9.048-42.482-10.346-64.28-9.857s-43.406,2.416-65.108,3.737c-21.58,1.314-43.515,2.279-65.022-.513-2.731-.354-5.45-.796-8.156-1.306-2.516-.474-3.594,3.38-1.063,3.857,21.129,3.982,42.948,3.561,64.331,2.51,21.167-1.04,42.273-3.013,63.449-3.897,21.727-.907,44.131-1.327,65.041,5.546,4.976,1.636,9.803,3.667,14.419,6.145,4.278,2.296,8.596,4.853,12.189,8.147,7.212,6.613,12.86,15.312,16.601,24.322,3.985,9.599,5.225,19.898,4.95,30.229-.234,8.794-1.199,17.545-1.794,26.318-.107,1.574-.201,3.15-.234,4.727-.055,2.575,3.945,2.575,4,0h0Z"/><path class="g" d="M69.335,10.153c1.524-.987,3.05-2.273,4.698-3.006,3.03-1.348,6.933-1.535,10.19-1.506,1.945.017,3.937.097,5.865.364.91.126,3.198.525,3.052,1.898-.127,1.193-2.301,2.409-3.161,3.029-1.575,1.136-3.234,2.141-4.956,3.038-2.284,1.19-.264,4.643,2.019,3.454,2.123-1.106,4.133-2.385,6.032-3.842,1.572-1.206,3.356-2.515,3.91-4.526.614-2.228-.594-4.501-2.456-5.718-1.893-1.237-4.268-1.347-6.454-1.516-4.548-.353-9.316-.235-13.742.999-2.664.743-4.744,2.407-7.017,3.878-2.153,1.394-.151,4.858,2.019,3.454h0Z"/><path class="g" d="M28.573,14.517c-.225-.295-.434-.6-.618-.923-.078-.138-.153-.278-.223-.42-.047-.095-.091-.19-.134-.287.087.211.103.248.05.112-.11-.327-.229-.646-.314-.981-.039-.154-.074-.309-.105-.464-.02-.104-.039-.208-.056-.313.033.27.036.289.009.059-.025-.318-.049-.633-.048-.952,0-.186.007-.371.019-.556.007-.109.035-.709.003-.179.04-.663.291-1.374.54-1.984-.186.456.028-.033.061-.098.083-.165.173-.327.268-.486s.198-.312.302-.467c.24-.358-.262.172.077-.08.33-.245-.161.098-.252.129-.291.089-.562.068-.813-.063.184.122.176.113-.024-.027.283.269.557.547.833.823,1.356,1.356,2.712,2.712,4.068,4.067.741.741,2.098.796,2.828,0s.791-2.038,0-2.828c-1.592-1.591-3.143-3.241-4.783-4.781-1.076-1.01-2.546-1.536-3.923-.741-.915.528-1.567,1.509-2.034,2.434-1.738,3.442-1.565,7.909.815,11.023.633.828,1.751,1.353,2.736.718.818-.528,1.397-1.847.718-2.736h0Z"/><path class="g" d="M78.108,63.7c-2.651,3.534-7.51,5.971-11.6,7.833-5.236,2.384-10.754,4.166-16.281,5.736-5.105,1.45-10.287,2.773-15.51,3.725-7.037,1.282-14.549,1.729-21.348-.878-5.059-1.94-11.681-7.445-8.68-13.542,1.208-2.455,3.429-4.255,5.511-5.947,2.282-1.854,4.57-3.647,6.472-5.906,4.233-5.027,7.976-10.195,10.499-16.303,1.354-3.278,2.062-6.71,3.045-10.105.787-2.718,1.747-5.586,3.701-7.708,2.408-2.616,5.803-2.995,8.882-4.442,3.054-1.435,4.741-4.182,6.391-6.984,1.511-2.565,3.261-4.802,6.44-5.099,3.142-.294,6.336.872,9.042,2.377,1.482.824,2.924,1.722,4.4,2.558,2.243,1.27,4.261-2.184,2.019-3.454-5.939-3.362-13.119-7.842-20.024-4.21-3.129,1.646-4.651,4.803-6.434,7.673-.829,1.335-1.767,2.564-3.165,3.337-1.663.92-3.57,1.285-5.322,1.997-6.997,2.845-9.054,9.926-10.786,16.621-1.777,6.871-4.972,12.886-9.428,18.395-2.059,2.546-4.166,4.863-6.71,6.933-2.394,1.948-4.867,3.812-6.744,6.293-2.008,2.654-2.91,5.914-2.274,9.209.662,3.432,2.974,6.451,5.663,8.585,11.56,9.172,28.094,5.28,41.077,1.913,5.903-1.531,11.767-3.294,17.434-5.555,5.222-2.083,10.587-4.519,14.786-8.347.895-.816,1.674-1.717,2.4-2.685.649-.865.139-2.235-.718-2.736-1.023-.598-2.086-.149-2.736.718h0Z"/><path class="g" d="M104.416,151.238c-.741,3.533-.316,6.692.968,10.028,1.696,4.406,3.002,8.758,3.571,13.468,1.428,11.828,1.067,24.378-4.564,35.146-1.394,2.667-2.305,6.068.785,7.942,2.428,1.473,5.741,1.301,8.469,1.305,2.574.005,2.578-3.995,0-4-1.283-.002-2.568-.009-3.848-.115-.815-.068-1.917-.149-2.602-.644-.192-.139-.16-.031-.2-.288-.064-.403.209-.905.371-1.258.626-1.354,1.368-2.647,1.962-4.019,2.249-5.197,3.491-10.703,4.027-16.33.549-5.758.321-11.573-.35-17.311-.546-4.667-1.505-9.134-3.203-13.518-1.295-3.344-2.258-5.877-1.531-9.344.527-2.512-3.328-3.585-3.857-1.063h0Z"/><path class="g" d="M272.52,158.639c1.034,4.382,3.596,8.463,5.991,12.215,2.515,3.942,5.4,7.626,7.948,11.541,6.182,9.497,9.64,20.853,8.562,32.225-.273,2.88-1.838,6.414.539,8.795,1.496,1.498,3.553,1.365,5.499,1.439,2.574.098,2.57-3.902,0-4-.682-.026-2.618.303-2.853-.598-.115-.439.187-1.147.266-1.592.11-.617.203-1.236.289-1.857.194-1.414.339-2.832.407-4.259.26-5.42-.454-10.909-1.927-16.125-1.486-5.265-3.766-10.337-6.652-14.982-2.363-3.804-5.163-7.329-7.628-11.069-2.578-3.912-5.494-8.172-6.585-12.796-.591-2.504-4.449-1.444-3.857,1.063h0Z"/><path class="g" d="M123.698,214.953c7.008-.012,14.008-.451,21.019-.348,2.575.038,2.576-3.962,0-4-7.011-.103-14.011.337-21.019.348-2.574.004-2.578,4.004,0,4h0Z"/><path class="g" d="M313.547,215.316c6.271-.913,12.614-1.316,18.95-1.273,2.574.018,2.577-3.982,0-4-6.703-.046-13.381.45-20.013,1.416-1.07.156-1.658,1.511-1.397,2.46.315,1.148,1.387,1.553,2.46,1.397h0Z"/><path class="h" d="M47.522,32.43c-1.063,1.786-1.758,6.32,1.796,7.586,4.827,1.145,6.391-4.161,5.383-7.08-.825-2.39-4.522-4.201-7.18-.506Z"/><path class="g" d="M318.735,36.485c6.67,3.153,12.314,8.19,16.134,14.51,4.517,7.473,5.368,16.233,7.548,24.532,1.353,5.15,2.83,10.268,3.905,15.487.519,2.519,4.376,1.453,3.857-1.063-.994-4.823-2.329-9.561-3.596-14.317-1.257-4.72-2.168-9.502-3.309-14.246-1.907-7.925-5.773-15.146-11.664-20.83-3.183-3.071-6.858-5.636-10.857-7.526-2.315-1.094-4.347,2.353-2.019,3.454h0Z"/><path class="g" d="M10.785,69.218h3.752c.513,0,1.052-.223,1.414-.586.347-.347.608-.916.586-1.414-.023-.517-.193-1.054-.586-1.414s-.872-.586-1.414-.586h-3.752c-.513,0-1.052.223-1.414.586-.347.347-.608.916-.586,1.414.023.517.193,1.054.586,1.414s.872.586,1.414.586h0Z"/><path class="h" d="M78.318,13.423c.033-.016.066-.032.1-.046l-.478.202c.505-.21,1.061-.31,1.6-.385l-.532.071c.611-.082,1.235-.118,1.848-.036l-.532-.071c.132.019.263.044.393.078.508.131,1.086.065,1.541-.202.415-.243.811-.718.919-1.195.117-.512.091-1.087-.202-1.541-.28-.434-.683-.787-1.195-.919-.902-.232-1.854-.234-2.772-.113-.946.125-1.847.278-2.71.705-.431.213-.795.744-.919,1.195-.132.479-.072,1.116.202,1.541.275.427.685.803,1.195.919.545.124,1.038.047,1.541-.202h0Z"/><path class="g" d="M347.713,93.274c6.031-3.304,13.149.369,16.334,5.848,3.347,5.758,3.572,13.124,1.208,19.274-1.267,3.298-3.49,6.269-6.443,8.227-2.136,1.416-.135,4.882,2.019,3.454,6.702-4.444,10.076-12.467,9.984-20.363-.096-8.247-3.973-17.047-11.957-20.368-4.245-1.765-9.091-1.756-13.163.474-2.258,1.237-.242,4.693,2.019,3.454h0Z"/><path class="g" d="M344.987,96.028c-2.074,2.042-3.128,4.964-2.906,7.864.243,3.166,1.849,5.663,4.37,7.519,2.227,1.64,5.151,2.695,6.324,5.397,1.379,3.177.947,7.232-.434,10.323-.44.986-.286,2.15.718,2.736.854.499,2.294.274,2.736-.718,1.521-3.405,2.092-7,1.534-10.699-.503-3.338-2.164-5.957-4.894-7.906-2.09-1.492-4.944-2.546-5.968-5.099-.898-2.238-.362-4.905,1.349-6.59,1.837-1.809-.991-4.637-2.828-2.828h0Z"/></g></g></g></svg>