<?xml version='1.0' encoding='utf-8'?>
<svg xmlns="http://www.w3.org/2000/svg" viewBox="217.4664 175.2894 114.94120000000002 114.94120000000002" width="100" height="100"><defs><style>.a{fill:#febe69;}.b{fill:#211715;}.c{fill:#c6c6c6;}.d{fill:#ffffff;}.e{fill:#3d8dcc;}</style></defs><path class="a" d="M298.565,269.428l10.552,10.554a18.3,18.3,0,0,1-9.216,2.777c-10.008.215-19.861-8.457-20.83-18.42a19.575,19.575,0,0,1,2.915-11.972l-26.653-26.653a19.575,19.575,0,0,1-11.972,2.915c-9.963-.969-18.635-10.822-18.421-20.83a18.314,18.314,0,0,1,2.778-9.216l10.554,10.552L251.308,196.1l-10.553-10.553a18.311,18.311,0,0,1,9.217-2.778c10.009-.215,19.861,8.457,20.83,18.421a19.575,19.575,0,0,1-2.915,11.972l26.653,26.653a19.575,19.575,0,0,1,11.972-2.915c9.964.969,18.636,10.821,18.421,20.83a18.306,18.306,0,0,1-2.779,9.216L311.6,256.392Z" /><path class="b" d="M296.868,271.125l10.552,10.554.486-3.769a15.856,15.856,0,0,1-11.572,2.116A19.446,19.446,0,0,1,287,274.933a18.446,18.446,0,0,1-5.279-9.144,16.891,16.891,0,0,1,2.338-12.211,2.444,2.444,0,0,0-.375-2.908L257.03,224.017a2.446,2.446,0,0,0-2.908-.375,16.886,16.886,0,0,1-12.211,2.337,18.437,18.437,0,0,1-9.144-5.278,19.446,19.446,0,0,1-5.093-9.335,15.856,15.856,0,0,1,2.116-11.572l-3.769.486,10.554,10.552a2.436,2.436,0,0,0,3.394,0L253.005,197.8a2.436,2.436,0,0,0,0-3.394l-10.552-10.553-.486,3.77a15.85,15.85,0,0,1,11.572-2.117,19.446,19.446,0,0,1,9.335,5.093,18.446,18.446,0,0,1,5.279,9.144,16.883,16.883,0,0,1-2.338,12.21,2.446,2.446,0,0,0,.375,2.909l26.653,26.653a2.448,2.448,0,0,0,2.909.375,16.883,16.883,0,0,1,12.21-2.338,18.446,18.446,0,0,1,9.144,5.279,19.446,19.446,0,0,1,5.093,9.335,15.85,15.85,0,0,1-2.117,11.572l3.77-.486L313.3,254.694a2.438,2.438,0,0,0-3.394,0l-13.037,13.037c-2.187,2.187,1.206,5.582,3.394,3.394L313.3,258.089H309.9l10.552,10.553a2.428,2.428,0,0,0,3.77-.486,21.215,21.215,0,0,0,.018-21.8,23.686,23.686,0,0,0-17.207-11.8,21.946,21.946,0,0,0-13.709,3.181l2.908.376-26.653-26.653.375,2.908a21.419,21.419,0,0,0,.166-22.354,24.435,24.435,0,0,0-17.513-11.5,20.633,20.633,0,0,0-13.068,2.959,2.428,2.428,0,0,0-.486,3.77L249.611,197.8V194.4l-13.036,13.037h3.394l-10.554-10.552a2.427,2.427,0,0,0-3.769.486,21.212,21.212,0,0,0-.018,21.793,23.69,23.69,0,0,0,17.207,11.8,21.94,21.94,0,0,0,13.709-3.182l-2.908-.375,26.653,26.653-.375-2.908a21.419,21.419,0,0,0-.166,22.354,24.437,24.437,0,0,0,17.513,11.5,20.628,20.628,0,0,0,13.067-2.959,2.427,2.427,0,0,0,.486-3.769l-10.552-10.554C298.075,265.544,294.68,268.937,296.868,271.125Z" /></svg>