<svg xmlns="http://www.w3.org/2000/svg" width="284.797" height="305.179" viewBox="0 0 284.797 305.179" style="color: initial !important;"><defs><style>.a{fill:#7abee6;}.b{fill:#74c66d;}.c{fill:#211715;}</style></defs><path class="a" d="M142.366,2.4c-59.129,0-100,45.65-100,99.071,0,59.769,41.748,100.929,100,100.929s100-41.16,100-100.929C242.366,48.05,201.5,2.4,142.366,2.4Z"/><path class="b" d="M157.005,41.675c.047-.071.093-.142.138-.214,2.342-3.71,1.82-8.354.119-12.221a13.549,13.549,0,0,0-7.958-7.3c-10.549-3.876-30.347-6.561-42.888-13.378-39.106,14.187-64.05,51.18-64.05,92.913q0,.853.011,1.7a35.094,35.094,0,0,1,10.272,4.694,38.388,38.388,0,0,1,8.335,9.391c2.417,3.613,4.158,7.529,6.315,11.282a12.059,12.059,0,0,0,3.328,3.935c4.132,2.93,10.263.4,12.6-3.692,2.507-4.389.446-9.918,3.189-14.187,1.145-1.781,3.011-2.874,4.763-3.971,1.791-1.122,3.5-2.392,5.176-3.683,2.969-2.29,6.122-5.043,7.724-8.506a41.815,41.815,0,0,0,2.628-8.1c.489-2.1.6-5.622,2.777-6.8a5.135,5.135,0,0,1,7.466,4.041,4.585,4.585,0,0,0,1.609,3.375,4.1,4.1,0,0,0,4.941-.125c2.409-1.783,2.925-4.8,3.009-7.616.075-2.342-.092-4.734.591-6.975a9.708,9.708,0,0,1,5.067-5.859c2.692-1.275,6.05-1.358,8.133-3.491,3.125-3.2,1.116-8.446,2.252-12.779a5.068,5.068,0,0,1,1.473-2.437,50.406,50.406,0,0,1,4.626-3.114C151.7,46.7,154.993,44.717,157.005,41.675Z"/><path class="b" d="M185.468,17.156a12.826,12.826,0,0,1,1.815-.839,18.976,18.976,0,0,1,5.578-1.09,97.3,97.3,0,0,1,47.708,67.039c-7.936-2.791-24.211-9.908-29.77-13.649-3.6-2.417-7.3-4.95-9.533-8.659-2.825-4.683-2.925-10.65-5.9-15.233-2.35-3.642-6.2-5.967-9.517-8.75s-6.358-6.642-6-10.958C180.128,21.668,182.5,18.819,185.468,17.156Z"/><path class="c" d="M192.874,12.833c-4.2.257-8.233,1.412-11.412,4.276A11.616,11.616,0,0,0,177.6,27.583c.632,3.987,3.419,7.412,6.407,9.961,2.945,2.512,6.491,4.579,8.834,7.725,2.379,3.194,2.978,7.254,4.195,10.952a21.96,21.96,0,0,0,6.484,9.984c4.838,4.212,10.5,7.188,16.265,9.911a215.251,215.251,0,0,0,20.148,8.465,2.4,2.4,0,0,0,1.276-4.629c-5.438-1.922-10.758-4.2-16-6.591a95.225,95.225,0,0,1-14.371-7.615c-2.932-2-5.905-4.2-7.692-7.344s-2.324-6.814-3.508-10.19a21.431,21.431,0,0,0-6.34-9.356c-2.757-2.386-5.9-4.332-8.331-7.083-2.356-2.668-3.735-6.229-1.676-9.47s5.967-4.448,9.593-4.67c3.069-.187,3.091-4.988,0-4.8Z"/><path class="b" d="M67.091,143.845a4.8,4.8,0,0,0-2.269-.08,3.119,3.119,0,0,0-1.5.716,3.24,3.24,0,0,0-.782,2.9,12.048,12.048,0,0,0,2.107,4.779,23.371,23.371,0,0,0,4.4,4.793c1.652,1.321,3.824,2.75,6.007,2.812a3.088,3.088,0,0,0,3.231-4.07,6.8,6.8,0,0,0-1.7-2.792c-.8-.923-1.632-1.825-2.47-2.721-1.564-1.674-2.9-3.685-4.7-5.121A6.515,6.515,0,0,0,67.091,143.845Z"/><path class="b" d="M142.857,144.467a3.885,3.885,0,0,0-1.917,2.182,3.178,3.178,0,0,0-.017,2.274,3.472,3.472,0,0,0,1.623,1.66,21.964,21.964,0,0,0,5.444,1.5,69.61,69.61,0,0,0,8.749,1.425,4.693,4.693,0,0,0,3.367-.7c1.756-1.363,1.183-4.273.3-5.994-1.1-2.158-3.739-2.512-5.937-2.763-2.082-.238-4.181-.212-6.27-.34A10.289,10.289,0,0,0,142.857,144.467Z"/><path class="b" d="M144.941,106.8a31.511,31.511,0,0,1-6.9,1.089c-2.116.161-5.139.493-6.659-1.389a3.724,3.724,0,0,1,.069-4.294c1.242-1.853,3.346-2.522,5.3-3.4a27.125,27.125,0,0,0,6.22-3.52c2.831-2.319,4.595-10.111,9.821-6.924,2.827,1.724,2,5.244,1.163,7.839a25.024,25.024,0,0,1-2.849,6.509C149.544,104.988,147.509,106.005,144.941,106.8Z"/><path class="b" d="M127,114.689a11.054,11.054,0,0,0,.344-3.866,4.5,4.5,0,0,0-3.715-4.4,4.236,4.236,0,0,0-3.967,1.333,5.418,5.418,0,0,0-.52,4.409,7.5,7.5,0,0,0,2.072,4.152A3.7,3.7,0,0,0,127,114.689Z"/><path class="b" d="M124,187.126c-8.283-.066-15.365-5.827-16.114-14.445-.49-5.634,4.134-10.436,9.284-11.914a10.716,10.716,0,0,1,7.865.526c3.365,1.745,3.744,4.13,8.1,3.859a12.227,12.227,0,0,0,4.619-.8c2.031-1.015,3.223-3.181,5.484-3.825a6.383,6.383,0,0,1,4.335.5,15.348,15.348,0,0,1,6.86,6.075,14.027,14.027,0,0,1,1.661,8.5,29.066,29.066,0,0,1-1.908,6.664A10.783,10.783,0,0,1,151.118,187a8.5,8.5,0,0,1-5.727,1.772c-2.628-.1-4.846-.953-7.369-1.489C133.343,186.294,128.717,187.163,124,187.126Z"/><path class="b" d="M99.03,120.743a3.044,3.044,0,0,1,1.788-1.467,3.389,3.389,0,0,1,3.207,1.126,12.6,12.6,0,0,1,2.5,5.3,17.023,17.023,0,0,1,.431,7.1,3.593,3.593,0,0,1-5.169,2.654c-2.207-1.257-2.9-5.045-3.286-7.3a16.378,16.378,0,0,1-.025-5.984A4.842,4.842,0,0,1,99.03,120.743Z"/><path class="b" d="M99.261,147.705a7.7,7.7,0,0,0,.413-2.713c-.136-4.259-4.464-5.207-7.888-4.064-3.136,1.047-6.169,3.123-7.586,6.185-1.164,2.516-.937,5.433,1.8,6.747a10.919,10.919,0,0,0,6.123.675,7.614,7.614,0,0,0,4.72-2.711A13.575,13.575,0,0,0,99.261,147.705Z"/><path class="b" d="M155.341,71.792a6.3,6.3,0,0,0-3.135,1.718,6.159,6.159,0,0,0-1.294,6.685c1.683,2.76,4.937,3.3,8.247,2.9a4.532,4.532,0,0,0,4.186-4.115,6.537,6.537,0,0,0-1.121-4.65A6.642,6.642,0,0,0,159.266,72,7.108,7.108,0,0,0,155.341,71.792Z"/><path class="c" d="M41.745,105.481a26.022,26.022,0,0,1,9.534,4.34c3.978,2.939,7.028,7.362,9.45,11.608,1.334,2.337,2.52,4.754,3.818,7.111a17.034,17.034,0,0,0,4.709,5.888c3.559,2.581,8.545,2.014,12.073-.326a12.15,12.15,0,0,0,4.157-4.456,17.94,17.94,0,0,0,1.6-7.223c.125-2.031.1-4.267,1.1-6.1,1.066-1.954,3.174-2.938,4.965-4.111,4.131-2.708,8.386-5.856,11.355-9.852,2.829-3.807,4.05-8.8,4.888-13.4.264-1.441.4-3.268,1.949-3.563a2.763,2.763,0,0,1,2.97,1.544,21.3,21.3,0,0,1,.6,2.672,6.4,6.4,0,0,0,1.952,3.043,6.476,6.476,0,0,0,7.358.563c4.537-2.542,4.635-8.042,4.728-12.587.045-2.2.305-4.4,1.773-6.15,1.406-1.674,3.257-2.3,5.291-2.886,2.153-.624,4.381-1.356,5.985-3.006a9.915,9.915,0,0,0,2.524-6.4c.16-2.085-.127-4.2.123-6.276a4.023,4.023,0,0,1,.845-2.332,16.647,16.647,0,0,1,3.189-2.21c4.032-2.551,8.647-4.994,10.945-9.4,2.344-4.5,1.671-9.823-.44-14.272-3.734-7.865-13.061-9.457-20.682-11.357C129.927,14.2,121.223,12.283,113,9a52.057,52.057,0,0,1-5.368-2.51c-2.719-1.465-5.146,2.678-2.422,4.145,7.552,4.067,15.981,6.328,24.253,8.411,3.987,1,7.992,1.942,11.965,3,3.363.9,7.157,1.671,10.042,3.708A12.426,12.426,0,0,1,156.318,36c-.1,4.578-3.811,7.334-7.363,9.555a65.217,65.217,0,0,0-6.386,4.235c-1.927,1.546-2.54,3.948-2.742,6.3-.286,3.336,1.108,8.323-2.675,10.068-1.929.89-4.086,1.178-6.027,2.07a12.041,12.041,0,0,0-4.937,4.35,13.863,13.863,0,0,0-2.012,7.108c-.105,2.247.131,4.561-.511,6.748-.374,1.276-1.494,3.218-3.116,2.861-.682-.15-.933-.682-1.1-1.3a18.385,18.385,0,0,0-.849-3.2,7.548,7.548,0,0,0-10.576-3.18,7.791,7.791,0,0,0-3.067,5.117c-.446,2.011-.774,4.018-1.346,6a22.5,22.5,0,0,1-2.78,6.542,23.633,23.633,0,0,1-4.627,4.733,61.25,61.25,0,0,1-5.851,4.292c-2.01,1.292-4.083,2.5-5.544,4.438-2.914,3.868-1.853,8.481-2.915,12.87a7.556,7.556,0,0,1-7.321,5.723,5.394,5.394,0,0,1-4.108-2.331,42.467,42.467,0,0,1-3.719-6.56A59.774,59.774,0,0,0,58.173,109.7a28.891,28.891,0,0,0-9.856-6.946,27.068,27.068,0,0,0-5.3-1.905c-3.013-.639-4.3,3.987-1.276,4.629Z"/><path class="c" d="M67.729,141.53c-2.151-.523-4.785-.273-6.325,1.5a6.291,6.291,0,0,0-.93,6.051,16.267,16.267,0,0,0,2.747,5.166,24.863,24.863,0,0,0,3.923,4.231c2.961,2.443,7.683,5.32,11.4,2.663a5.677,5.677,0,0,0,2.107-5.859c-.409-2-1.857-3.529-3.173-4.993-1.445-1.608-2.851-3.236-4.272-4.864a11.931,11.931,0,0,0-5.48-3.894,2.4,2.4,0,0,0-1.276,4.629,3.949,3.949,0,0,1,1.438.733c.347.255-.185-.163.141.119.134.116.267.233.4.354.261.243.512.5.756.756.953,1.012,1.8,2.12,2.71,3.165,1.038,1.186,2.147,2.307,3.171,3.506a4.462,4.462,0,0,1,.791,1.157c-.138-.274.034.081.048.131a4.109,4.109,0,0,1,.12.477c-.018-.114-.032-.415-.02.056.011.436.058-.076,0,.168-.027.112-.054.223-.09.333.117-.356.024-.022-.043.047.277-.286,0,.018-.05.049.107-.075.288-.125-.1.053.4-.186-.487.136-.256.09.21-.041-.9-.027-.557.017a7.766,7.766,0,0,1-3.488-1.62,20.114,20.114,0,0,1-5.227-5.6,10.508,10.508,0,0,1-.967-1.951,10.332,10.332,0,0,1-.326-1.194c-.006-.03-.043-.448-.03-.17.014.3.015-.3.016-.358-.01.494.013,0,.008-.03l.059-.215c-.1.195-.106.218-.026.067.124-.271-.062.028-.064.036q.264-.253.1-.116c-.117.091-.065.066.156-.073-.441.091.524-.1.274-.068a3.319,3.319,0,0,1,.573-.011c.381.016.088-.006.481.09a2.4,2.4,0,1,0,1.276-4.629Z"/><path class="c" d="M141.645,142.394a6.391,6.391,0,0,0-3.323,5.563c.025,2.664,2.043,4.388,4.338,5.287a37.918,37.918,0,0,0,6.135,1.475c2.322.481,4.671.828,7.026,1.094,2.167.245,4.5.16,6.168-1.465a6.321,6.321,0,0,0,1.52-5.662,8.184,8.184,0,0,0-2.163-4.593,8.987,8.987,0,0,0-4.984-2.195,71.139,71.139,0,0,0-7.423-.548,14.388,14.388,0,0,0-7.294,1.044,2.425,2.425,0,0,0-.861,3.284,2.451,2.451,0,0,0,3.284.861,7.945,7.945,0,0,1,3.821-.446c1.7.082,3.409.115,5.11.228a14.731,14.731,0,0,1,3.605.517c1.035.29,1.3.435,1.78,1.285.183.324-.111-.313.032.053.043.111.085.224.123.337.092.274.165.552.231.833a4.081,4.081,0,0,1,.068,1.129c.046-.275-.251.655-.055.223-.012.027-.217.295-.068.143.189-.193-.262.167-.089.088a2.761,2.761,0,0,1-1.147.223c-3.238-.021-6.507-.909-9.657-1.554-1.362-.278-3.2-.438-4.319-1.208a.693.693,0,0,1-.3-.944,1.2,1.2,0,0,1,.219-.417c.278-.335.206-.244.645-.49C146.762,145.027,144.345,140.879,141.645,142.394Z"/><path class="c" d="M142.366,0C120.209.035,98.147,6.57,80.308,19.891A100.486,100.486,0,0,0,44.8,69.955c-6.517,20.544-6.355,43.327-.412,63.993,5.555,19.319,16.775,36.921,32.641,49.377,16.45,12.915,36.645,19.849,57.426,21.217,21.077,1.388,42.73-2.658,61.209-13.1a94.587,94.587,0,0,0,39.422-43.217A112.9,112.9,0,0,0,243.37,84.4,99.426,99.426,0,0,0,159.514,1.315,115.278,115.278,0,0,0,142.366,0c-3.089,0-3.094,4.8,0,4.8,21.281.034,42.217,6.319,59.379,19.045a95.025,95.025,0,0,1,33.564,47.386c6.271,19.771,6.132,41.55.412,61.441a92.286,92.286,0,0,1-31.17,47.073c-15.389,12.163-34.771,18.713-54.269,20-20.26,1.334-41.011-2.4-58.786-12.449a90.236,90.236,0,0,1-37.571-41.21,102.126,102.126,0,0,1-8.167-28.974,109.007,109.007,0,0,1,.233-31.432A94.788,94.788,0,0,1,126.147,6a106.857,106.857,0,0,1,16.219-1.2C145.454,4.8,145.46,0,142.366,0Z"/><path class="c" d="M144.3,104.486a33.01,33.01,0,0,1-7.382,1.087c-1.139.071-3.488.354-3.783-.863-.431-1.775,2.593-2.866,3.736-3.359a34.132,34.132,0,0,0,6.675-3.5,13.68,13.68,0,0,0,3.518-3.908c.4-.619.78-1.247,1.189-1.858.192-.286.386-.571.594-.845-.293.384.154-.177.18-.206.145-.157.293-.31.439-.465a3.833,3.833,0,0,1,.3-.28c-.356.31-.046.025.072-.042.141-.08.275-.166.42-.238-.433.213-.159.079-.041.038.506-.176-.426-.094.122-.036.133.014.27,0,.4.011-.471-.045.521.237.463.207a1.689,1.689,0,0,1,1.056,1.165,5.415,5.415,0,0,1-.046,2.024,24.48,24.48,0,0,1-2.563,7.073,8.542,8.542,0,0,1-5.357,4c-2.934.93-1.68,5.565,1.276,4.629a13.727,13.727,0,0,0,7.392-4.9,26.413,26.413,0,0,0,3.613-8.417c.693-2.508.977-5.444-.623-7.681a6.8,6.8,0,0,0-6.829-2.744c-2.146.533-3.622,2.261-4.826,4-.483.7-.924,1.43-1.383,2.146-.239.373-.484.742-.739,1.1-.4.564.305-.333-.127.17a7.4,7.4,0,0,1-.517.56c-4.024,3.8-13.061,3.973-13.2,11.031-.078,3.885,3.284,5.858,6.763,6.024a32.282,32.282,0,0,0,4.576-.255,31.3,31.3,0,0,0,5.9-1.037C148.534,108.238,147.276,103.6,144.3,104.486Z"/><path class="c" d="M129.309,115.327a12.656,12.656,0,0,0,.423-4.643,7.5,7.5,0,0,0-1.641-4.283,6.872,6.872,0,0,0-7.671-2.006,5.853,5.853,0,0,0-3.572,3.662,8.74,8.74,0,0,0-.057,4.6,12.092,12.092,0,0,0,1.356,3.688,6.532,6.532,0,0,0,3.492,2.884,6.211,6.211,0,0,0,4.6-.349,6,6,0,0,0,3.073-3.552,2.413,2.413,0,0,0-1.676-2.952,2.462,2.462,0,0,0-2.953,1.676c-.16.448.287-.516.049-.113-.041.07-.076.144-.117.214a1.489,1.489,0,0,0-.131.2c.155-.427.3-.354.078-.115-.105.114-.243.206-.341.324.348-.421.346-.252.109-.1-.1.063-.2.114-.3.173-.163.095-.338.061.255-.1-.092.025-.182.068-.274.1-.166.052-.345.069-.509.122.593-.19.476-.04.232-.041-.1,0-.194.008-.292.007-.078,0-.156-.009-.234-.012-.444-.015.575.128.171.018-.187-.051-.383-.129-.57-.171.545.122.415.2.242.093-.087-.052-.178-.106-.267-.153-.186-.1-.3-.313.128.121-.064-.065-.142-.12-.208-.182-.084-.08-.164-.164-.241-.251-.383-.433.218.381-.012-.02-.1-.167-.2-.327-.3-.5-.069-.13-.13-.263-.2-.394-.078-.158-.073-.357.069.166-.127-.465-.321-.913-.443-1.382-.059-.225-.113-.451-.16-.678-.021-.1-.04-.2-.058-.3-.012-.066-.127-.55-.026-.133s0-.062,0-.141c-.007-.1-.013-.206-.016-.309,0-.128,0-.257,0-.385,0-.1.091-.622,0-.217-.095.425.021-.071.035-.131.023-.1.048-.2.078-.292l.047-.144c.073-.191.07-.189-.007.006l-.06.149q.069-.136.147-.267c.175-.358-.037.094-.119.125.069-.026.171-.19.23-.246.184-.176.326-.134-.12.075.118-.055.232-.153.348-.216a1.489,1.489,0,0,0,.247-.122l-.317.135c.087-.033.176-.063.265-.09.179-.055.362-.09.544-.131.5-.114-.589.018-.085.018.092,0,.184-.009.276-.01s.182,0,.272,0,.178.011.267.021c-.4-.059-.5-.072-.308-.037s.405.09.6.156c.068.022.505.159.09.026-.391-.125-.011.008.071.054.111.061.639.432.3.173s0,.011.055.063c.095.088.185.18.272.276.052.057.108.144.167.2-.457-.405-.2-.259-.075-.064.069.111.134.224.193.34l.058.117c.1.229.075.158-.086-.21a4.681,4.681,0,0,0,.193.637c.02.088.062.517.03.081-.034-.469,0,.144.009.229.029.592.036,1.189.008,1.78-.007.144-.016.287-.028.43-.007.085-.016.17-.026.255q-.031.279.028-.215a1.613,1.613,0,0,0-.064.333,6.62,6.62,0,0,1-.177.645A2.422,2.422,0,0,0,126.357,117,2.454,2.454,0,0,0,129.309,115.327Z"/><path class="c" d="M124,184.726c-6.678-.117-12.5-4.554-13.617-11.274-1.17-7.025,7.823-13.512,14.076-9.73,1.321.8,2.36,1.991,3.7,2.763a9.674,9.674,0,0,0,5.549,1.034c2.169-.126,4.339-.356,6.163-1.647,1.344-.951,2.67-2.89,4.4-3.121,1.743-.234,3.642,1.037,4.952,2.034a11.5,11.5,0,0,1,3.705,4.653c1.738,4.205.464,8.607-1.217,12.61a6.4,6.4,0,0,1-3.924,4.047c-2.262.641-4.536.039-6.746-.538a32.179,32.179,0,0,0-8.325-1.147c-2.908.01-5.8.32-8.713.316-3.089,0-3.093,4.795,0,4.8,2.909,0,5.806-.306,8.713-.316a32.5,32.5,0,0,1,8.106,1.248c5.22,1.291,10.64.825,13.915-3.94a25.429,25.429,0,0,0,2.988-7.118,18.569,18.569,0,0,0,.633-8.2,16.485,16.485,0,0,0-8.86-11.9c-2.346-1.213-5.038-1.85-7.576-.834a10.747,10.747,0,0,0-3.074,2.022,9.413,9.413,0,0,1-2.3,1.794,8.958,8.958,0,0,1-3.028.447,7.449,7.449,0,0,1-2.457-.143c-1.512-.593-2.632-2.075-4.176-3.01-8.618-5.214-21.145,2.135-21.428,12.013a17.585,17.585,0,0,0,5.492,12.787A19.389,19.389,0,0,0,124,189.526C127.089,189.58,127.089,184.78,124,184.726Z"/><path class="c" d="M101.1,121.954c.031-.049.266-.356.047-.1a2.379,2.379,0,0,1,.25-.252c.172-.151-.142-.04.084-.033.135,0,.114-.018-.027.021s-.392-.054.058,0c-.045-.006-.343-.074-.058-.013.054.011.51.161.274.065-.183-.075.209.126.247.149.335.193-.2-.2.093.057.09.079.17.167.258.249.277.259.2.2.109.094.08.1.149.208.219.313.167.251.32.511.461.777.082.154.157.31.233.467.024.049.162.37.071.15a16.364,16.364,0,0,1,1.285,7.683c-.011.139-.022.277-.038.415.031-.281-.021.157-.025.175-.024.12-.207.723-.118.512.106-.253-.034.054-.057.086-.078.111-.139.235-.22.345.336-.455-.45.347,0,0-.107.081-.628.375-.414.277s-.359.1-.476.123c.583-.125-.345-.043-.049-.014.318.03-.11-.036-.188-.058-.332-.091.287.176-.026,0-.111-.063-.22-.147-.334-.2-.224-.1.085.05.117.088-.048-.057-.51-.526-.334-.318s-.207-.315-.265-.412c-.143-.238-.263-.485-.385-.734-.2-.412-.041-.1-.007-.014-.05-.134-.1-.268-.149-.4q-.106-.306-.2-.616c-.163-.541-.3-1.091-.414-1.643a20.662,20.662,0,0,1-.487-3.294,14.777,14.777,0,0,1,.043-2.462,6.071,6.071,0,0,1,.137-.741c.031-.125.065-.248.1-.371.19-.617-.132.195.178-.368a2.4,2.4,0,0,0-4.144-2.422c-1.8,3.26-1.2,7.452-.458,10.934.64,3.012,1.92,6.353,5.046,7.5,3.592,1.325,7.3-1.486,7.8-5.061a20.744,20.744,0,0,0-1.747-11.344,7.927,7.927,0,0,0-4.531-4.522,5.27,5.27,0,0,0-6.115,2.488,2.4,2.4,0,0,0,4.144,2.422Z"/><path class="c" d="M101.575,148.343a8.763,8.763,0,0,0-.308-6.607,6.817,6.817,0,0,0-3.982-3.233c-3.435-1.169-7.39.164-10.288,2.075-3.217,2.12-6.2,5.8-5.834,9.888A6.7,6.7,0,0,0,84.2,155.6a11.272,11.272,0,0,0,6.465,1.48,11.077,11.077,0,0,0,6.717-2.413,14.574,14.574,0,0,0,4.194-6.326,2.415,2.415,0,0,0-1.676-2.952,2.461,2.461,0,0,0-2.953,1.676,11.165,11.165,0,0,1-2.271,3.586c-.136.139-.279.269-.423.4-.313.283.445-.276-.149.122a8.51,8.51,0,0,1-.784.479c.038-.019-.637.3-.339.172s-.405.135-.362.122a9.25,9.25,0,0,1-1.136.273c.394-.073,0,0-.074.01-.206.018-.412.035-.619.046q-.572.028-1.145,0c-.172-.007-.342-.023-.514-.032-.8-.044.206.049-.254-.026a9,9,0,0,1-1.344-.321c-.151-.05-.312-.1-.459-.165.352.154-.086-.062-.168-.108a4.169,4.169,0,0,1-.46-.294c.11.084.254.27.013-.023-.083-.1-.184-.191-.27-.29.322.374.06.057-.011-.065s-.217-.515-.042-.023c-.063-.178-.1-.363-.163-.542-.042-.124-.045-.45-.009.074-.009-.129-.021-.256-.025-.386,0-.164.007-.326.009-.49s.106-.566,0-.057c.057-.269.113-.536.193-.8.051-.168.109-.332.171-.5s.05-.132-.037.085c.049-.107.1-.213.155-.317a9.324,9.324,0,0,1,.529-.907c-.03.044.409-.575.219-.325s.288-.337.253-.3q.308-.351.644-.674.21-.2.431-.394c.07-.061.531-.434.394-.33-.25.189.375-.26.327-.227.13-.088.261-.175.393-.258.3-.19.6-.367.915-.534s.628-.321.949-.467c.437-.2.168-.071.072-.033.216-.085.433-.167.652-.244.305-.106.613-.2.926-.278.12-.029.24-.055.36-.079.03-.006.627-.095.226-.045s.2-.012.228-.014c.121-.009.242-.014.363-.017.3-.007.6.014.9.031.553.032-.332-.131-.028,0a3.961,3.961,0,0,0,.506.116c.137.038.27.087.406.127.453.135-.388-.241.042.023.094.057.195.1.289.16.166.1.437.4.049,0,.159.16.628.714.3.232.095.14.177.29.273.428.261.379-.095-.423.044.072.034.119.076.234.108.355s.089.691.052.138a5.44,5.44,0,0,1-.3,2.5,2.422,2.422,0,0,0,1.677,2.953A2.453,2.453,0,0,0,101.575,148.343Z"/><path class="c" d="M154.7,69.477a8.758,8.758,0,0,0-6.649,7.8,7.111,7.111,0,0,0,1.577,5.212,8.455,8.455,0,0,0,3.91,2.575,12.368,12.368,0,0,0,4.477.531,8.918,8.918,0,0,0,4.613-1.242,6.838,6.838,0,0,0,2.915-4.027,9.467,9.467,0,0,0-.276-5.317A8.807,8.807,0,0,0,154.7,69.477a2.417,2.417,0,0,0-1.676,2.953,2.456,2.456,0,0,0,2.952,1.676c-.02,0,.693-.117.34-.072-.3.037.167-.008.235-.011a8.519,8.519,0,0,1,1,.013c.116.008.432.1.019,0,.142.035.288.056.43.092.174.043.349.119.524.153.3.058-.34-.2.053.013.28.153.543.307.807.487-.425-.289.123.121.243.236.186.178.362.366.531.561,0,0,.377.5.181.215-.169-.248.169.283.2.343.066.116.121.238.184.356.169.313-.122-.511.016.075.061.26.14.516.2.778.1.448.008.062,0-.033.014.171.028.342.034.514.013.352-.026.7-.023,1.051,0,.394.147-.545,0,0-.03.112-.05.226-.081.338a2.148,2.148,0,0,0-.1.322c-.059-.167.208-.4.045-.117-.062.105-.458.725-.243.435.236-.318-.086.082-.122.119-.091.094-.2.174-.288.271-.206.237.487-.292.046-.039-.091.053-.177.115-.269.168s-.188.1-.282.15c-.413.229.135-.067.132-.05-.015.075-.619.186-.7.209-.145.041-.569.138.07.013a5.486,5.486,0,0,1-.572.058,14.231,14.231,0,0,1-1.6.052c-.276-.007-.549-.033-.824-.049-.161-.01-.405.045.1.02a2.279,2.279,0,0,1-.524-.094c-.228-.048-.455-.1-.678-.171-.11-.033-.219-.068-.328-.106-.055-.02-.517-.259-.189-.068s-.137-.079-.173-.1c-.1-.053-.2-.109-.294-.167s-.189-.122-.284-.183c-.464-.3.348.344-.051-.04-.166-.16-.326-.327-.492-.487-.4-.386.175.293-.014,0a2.371,2.371,0,0,0-.2-.3c-.2-.219.115.484-.018-.034-.031-.121-.075-.238-.106-.36a3.4,3.4,0,0,1-.081-.364q.048.452.021.178c-.011-.093-.018-.185-.022-.278a4.022,4.022,0,0,1,.026-.926c.032-.006-.1.478,0,.088.046-.179.079-.362.131-.54.034-.119.079-.234.112-.353.145-.516-.185.327.042-.109.142-.274.3-.531.457-.8.288-.5-.231.232.008-.024.1-.11.2-.228.3-.336s.253-.226.37-.347.1-.09-.091.062c.081-.06.164-.116.249-.17.113-.073.227-.142.344-.208.062-.035.628-.309.345-.186s.113-.037.182-.06c.223-.076.449-.136.677-.192a2.423,2.423,0,0,0,1.676-2.952A2.449,2.449,0,0,0,154.7,69.477Z"/><path class="c" d="M193.145,233.693a90.763,90.763,0,0,0,9.124-3.535,27.827,27.827,0,0,0,7.182-5.1c5.144-4.922,9.508-10.574,14.446-15.693,2.105-2.182,4.175-4.3,7.421-4.293a5.611,5.611,0,0,1,5.377,3.67c.831,2.644-.32,5.576-1.443,7.952-1.347,2.849-3.037,5.515-4.658,8.212-4.333,7.209-8.889,14.239-13.558,21.236-1.719,2.577,2.437,4.983,4.145,2.423,4.5-6.738,8.97-13.474,13.089-20.451,1.72-2.913,3.57-5.754,5.036-8.809,1.454-3.031,2.765-6.414,2.386-9.839-.841-7.606-9.095-11.084-15.693-7.981-3.126,1.47-5.557,4.487-7.837,6.988-2.591,2.843-5.072,5.784-7.669,8.621-2.551,2.788-5.175,5.774-8.441,7.738a54.942,54.942,0,0,1-10.183,4.233,2.461,2.461,0,0,0-1.676,2.952,2.421,2.421,0,0,0,2.952,1.677Z"/><path class="c" d="M144.766,302.859c0-7.373.131-14.746.154-22.119.026-8.244-.062-16.7,3.09-24.48a25.3,25.3,0,0,1,12-12.9c5.142-2.764,10.856-4.342,16.529-5.664,5.521-1.286,11.251-2.1,16.607-4a2.462,2.462,0,0,0,1.676-2.953,2.421,2.421,0,0,0-2.952-1.676c-4.841,1.722-10,2.515-15,3.634a80.516,80.516,0,0,0-17.79,5.751,30.73,30.73,0,0,0-13.814,12.482c-4.223,7.687-5.068,16.614-5.134,25.233-.068,8.9-.162,17.8-.164,26.695,0,3.089,4.8,3.094,4.8,0Z"/><path class="c" d="M242.7,259.554c-6.107,7.55-14.528,12.7-23.653,15.767-8.719,2.932-19.371,5.058-25.205,12.854-3.206,4.284-3.007,9.584-3,14.685,0,3.089,4.8,3.094,4.8,0,0-3.991-.413-8.375,2.007-11.8,2.394-3.386,6.466-5.4,10.21-6.9,4.343-1.743,8.866-2.969,13.286-4.493a58.085,58.085,0,0,0,12.954-6.184,51.362,51.362,0,0,0,12-10.538,2.472,2.472,0,0,0,0-3.4,2.418,2.418,0,0,0-3.394,0Z"/><path class="c" d="M231.509,231.471A35.48,35.48,0,0,0,243.26,224a80.141,80.141,0,0,0,9.266-11.124c2.972-4.024,5.846-8.118,8.767-12.178,1.38-1.918,2.77-3.829,4.189-5.718a28.6,28.6,0,0,1,4.14-4.972c2.591-2.162,6.914-2.917,9.285.027,2.493,3.094.28,8.1-1.1,11.19-4.363,9.772-9.8,18.981-15.111,28.252a278.786,278.786,0,0,1-20.371,30.566,2.415,2.415,0,0,0,.861,3.284,2.462,2.462,0,0,0,3.284-.861,271.071,271.071,0,0,0,19.211-28.544c5.615-9.694,11.291-19.371,15.953-29.571,1.963-4.3,4.215-9.526,2.623-14.3a10.238,10.238,0,0,0-10.38-6.758,12.585,12.585,0,0,0-6.837,2.671,28.012,28.012,0,0,0-4.981,5.634c-3.066,4.032-5.986,8.174-8.932,12.294-6.163,8.621-12.495,19.035-22.895,22.95a2.468,2.468,0,0,0-1.676,2.952,2.419,2.419,0,0,0,2.952,1.677Z"/><path class="c" d="M92.863,229.064a66.622,66.622,0,0,1-8.941-3.535,30.719,30.719,0,0,1-7.668-6.285c-2.615-2.717-5.067-5.582-7.564-8.406a61.056,61.056,0,0,0-7.682-7.887c-5.639-4.411-14.776-3.183-17.432,4.023-2.407,6.529,2.381,13.7,5.62,19.036,4.63,7.632,9.4,15.128,14.355,22.554,1.706,2.557,5.866.157,4.145-2.423-4.215-6.316-8.478-12.609-12.331-19.155-1.649-2.8-3.41-5.544-4.937-8.414-1.3-2.447-2.688-5.214-2.657-8.05a5.349,5.349,0,0,1,4.106-5.248c2.724-.747,5.263.5,7.208,2.333,5.108,4.822,9.346,10.5,14.25,15.521a33.419,33.419,0,0,0,8.165,6.546,75.228,75.228,0,0,0,10.087,4.019,2.423,2.423,0,0,0,2.952-1.677,2.448,2.448,0,0,0-1.676-2.952Z"/><path class="c" d="M144.766,302.859c0-7.676-.139-15.35-.157-23.026-.02-8.735-.191-17.647-3.662-25.816a29.78,29.78,0,0,0-13.137-14.44c-5.456-3.071-11.545-4.9-17.605-6.339-5.759-1.37-11.75-2.185-17.342-4.174a2.423,2.423,0,0,0-2.952,1.676,2.448,2.448,0,0,0,1.676,2.953c4.656,1.655,9.611,2.44,14.422,3.5,5.659,1.252,11.424,2.665,16.671,5.132,5.313,2.5,9.927,5.993,12.746,11.213,3.892,7.208,4.367,15.661,4.38,23.683.015,8.545.158,17.088.16,25.633,0,3.089,4.8,3.094,4.8,0Z"/><path class="c" d="M38.636,262.949A53.723,53.723,0,0,0,61.76,279.02c4.388,1.619,8.914,2.83,13.3,4.448,4.045,1.491,8.235,3.336,11.192,6.578,3.247,3.559,2.841,8.311,2.838,12.814,0,3.089,4.8,3.094,4.8,0,0-4.439.263-9.27-2.042-13.246-2.351-4.058-6.381-6.786-10.547-8.725-8.831-4.11-18.641-5.571-27-10.752a48.415,48.415,0,0,1-12.277-10.583,2.418,2.418,0,0,0-3.395,0,2.459,2.459,0,0,0,0,3.4Z"/><path class="c" d="M54.5,226.842c-9.253-3.483-15.085-12.113-20.635-19.8-3.009-4.168-5.959-8.38-9.007-12.52-2.964-4.025-5.772-8.611-10.623-10.512a10.758,10.758,0,0,0-12.174,3.1c-3.155,4.016-2.173,9.345-.452,13.754,4.011,10.275,9.848,19.845,15.332,29.376a296.7,296.7,0,0,0,21.321,32.22,2.48,2.48,0,0,0,3.284.861,2.417,2.417,0,0,0,.861-3.284,274.726,274.726,0,0,1-18.277-26.947C18.582,223.7,12.988,214.227,8.364,204.34a61.787,61.787,0,0,1-2.617-6.081,12.16,12.16,0,0,1-.874-6.1c.654-3.371,4.337-4.7,7.375-3.775,2.21.674,3.736,2.371,5.113,4.124,1.4,1.785,2.751,3.61,4.089,5.442,2.872,3.93,5.667,7.915,8.52,11.859,6.307,8.723,12.8,17.726,23.253,21.661a2.42,2.42,0,0,0,2.952-1.677,2.453,2.453,0,0,0-1.676-2.952Z"/></svg>