<svg id="b" xmlns="http://www.w3.org/2000/svg" width="348.996" height="323.44" viewBox="0 0 348.996 323.44" style="color: initial !important;"><defs><style>.d{fill:#211715;}.d,.e,.f,.g{stroke-width:0px;}.e{fill:#f2635f;}.f{fill:#645d5c;}.g{fill:#ffffff;}</style></defs><g id="c"><path class="f" d="M328.52,29.901c1.025-4.116.355-7.945-2.25-11.031-2.49-2.949-7.643-4.711-11.08-2.879-.127-3.543-2.692-7.726-6.748-9.225-3.536-1.299-9.295-.695-12.044,1.764-.963-3.172-3.819-5.257-7.138-5.908-3.445-.68-10.365.246-13.515,1.778-13.543,3.072-28.313,10.738-36.991,16.926-6.674-.454-11.171,1.989-13.247,6.735-3.865,8.838.224,24.205,2.107,31.08,4.87,17.772,14.848,33.537,22.642,38.847,5.598,3.814,14.472,7.091,29.51,8.799,6.327.719,15.143.905,20.986-1.679,7.889-3.489,15.593-10.863,21.018-19.139,5.041-7.69,11.724-21.407,13.841-27.939,1.147-3.539,3.286-10.208,3.289-13.072.008-6.536,0-10.296-10.381-15.057ZM273.56,39.687c-1.159,5.827-3.255,13.936-9.492,16.277-3.965,1.488-7.606.409-10.614-1.85-3.736-2.805-6.498-7.431-7.696-11.219-.901-2.851-1.762-5.887-2.61-9.847,8.438-6.258,22.634-13.171,31.455-14.957,0,0,.294-.06.819-.166.055,7.85-.701,15.932-1.862,21.761Z"/><path class="f" d="M270.496,29.291c-8.691,3.39-17.375,7.466-25.024,12.688.095.308.19.613.286.916.801,2.535,2.303,5.445,4.329,7.934,7.255-4.407,15.248-8.364,23.395-10.755.026-.13.052-.259.078-.387.683-3.433,1.226-7.646,1.546-12.134-1.533.56-3.071,1.138-4.61,1.738Z"/><path class="d" d="M266.61,55.227c-1.375-3.39-2.628-6.828-3.819-10.286-.408-1.184-1.665-2.093-2.952-1.676-1.174.38-2.114,1.681-1.676,2.952,1.19,3.458,2.444,6.896,3.819,10.286.244.603.52,1.093,1.103,1.434.514.301,1.273.429,1.849.242,1.119-.362,2.182-1.707,1.676-2.952h0Z"/><path class="d" d="M259.3,31.586c-.407-1.422-.799-2.848-1.181-4.276-.155-.58-.586-1.132-1.103-1.434-.514-.301-1.273-.429-1.849-.242-.581.188-1.141.548-1.434,1.103-.303.574-.413,1.211-.242,1.849.382,1.429.773,2.855,1.181,4.276.167.584.577,1.126,1.103,1.434.514.301,1.273.429,1.849.242.581-.188,1.141-.548,1.434-1.103.3-.568.423-1.218.242-1.849h0Z"/><path class="d" d="M269.218,53.653c-1.007-3.25-2.018-6.499-3.01-9.754-.366-1.199-1.695-2.083-2.952-1.676-1.21.392-2.068,1.666-1.676,2.952.992,3.255,2.003,6.504,3.01,9.754.371,1.198,1.692,2.084,2.952,1.676,1.205-.39,2.074-1.668,1.676-2.952h0Z"/><path class="d" d="M257.128,26.788c.483,1.982,1.023,3.95,1.574,5.914.164.583.579,1.128,1.103,1.434.514.301,1.273.429,1.849.242,1.232-.399,2.04-1.657,1.676-2.952-.552-1.964-1.091-3.932-1.574-5.914-.297-1.22-1.744-2.067-2.952-1.676-1.268.41-1.995,1.645-1.676,2.952h0Z"/><path class="d" d="M244.556,34.975c4.786-3.497,9.999-6.426,15.339-8.987,4.891-2.346,10.016-4.478,15.347-5.583,3.023-.626,1.744-5.254-1.276-4.629-5.598,1.16-10.989,3.45-16.132,5.894-5.468,2.599-10.807,5.584-15.7,9.159-1.045.764-1.563,2.084-.861,3.284.603,1.031,2.231,1.63,3.284.861h0Z"/><path class="d" d="M247.751,43.334c8.281-5.442,17.352-9.505,26.614-12.959,1.214-.453,2.041-1.623,1.676-2.952-.321-1.166-1.732-2.132-2.952-1.676-9.643,3.597-19.138,7.777-27.761,13.443-2.571,1.69-.169,5.848,2.423,4.145h0Z"/><path class="d" d="M251.467,52.792c6.883-4.148,14.105-7.76,21.796-10.147,2.941-.913,1.686-5.548-1.276-4.629-8.075,2.506-15.715,6.275-22.943,10.631-2.643,1.593-.232,5.745,2.423,4.145h0Z"/><path class="d" d="M292.756,17.559c-.821,9.33-3.73,18.178-7.049,26.881-.462,1.211.512,2.632,1.676,2.952,1.351.371,2.489-.461,2.952-1.676,3.487-9.142,6.358-18.363,7.22-28.157.114-1.293-1.185-2.4-2.4-2.4-1.393,0-2.286,1.103-2.4,2.4h0Z"/><path class="d" d="M309.234,25.714c-2.155,9.505-5.06,18.792-9.481,27.502-1.395,2.748,2.744,5.181,4.145,2.423,4.61-9.081,7.717-18.736,9.965-28.649.682-3.008-3.945-4.292-4.629-1.276h0Z"/><path class="d" d="M321.004,41.668c-2.421,8.468-5.512,16.534-10.004,24.133-1.575,2.665,2.572,5.083,4.145,2.423,4.689-7.933,7.96-16.439,10.487-25.28.851-2.975-3.78-4.246-4.629-1.276h0Z"/><path class="d" d="M283.623,77.469c-.201-.016-.401-.037-.602-.057-.18-.021-.119-.012.181.028-.127-.018-.254-.037-.381-.057-.406-.069-.811-.139-1.214-.221-.981-.199-1.953-.439-2.92-.7-2.161-.584-4.293-1.274-6.403-2.021-.981-.347-1.956-.708-2.926-1.085-.44-.171-.879-.345-1.316-.523-.188-.077-.376-.155-.564-.232.535.221-.106-.046-.213-.092-.606-.263-1.211-.533-1.798-.836-.197-.102-.387-.227-.586-.324-.546-.266.386.401.104.087-.866-.965-2.513-.882-3.394,0-.959.959-.868,2.426,0,3.394.776.865,2.136,1.338,3.168,1.788,1.975.862,3.983,1.645,6.013,2.369,4.124,1.471,8.456,2.939,12.85,3.282,1.294.101,2.4-1.175,2.4-2.4,0-1.383-1.102-2.299-2.4-2.4h0Z"/><path class="d" d="M319.698,84.758c-4.694,7.105-10.951,13.66-18.617,17.546-6.921,3.508-15.509,2.819-22.969,1.886-7.123-.891-14.813-2.383-21.187-5.254-5.227-2.355-8.863-5.452-12.4-10.045-9.371-12.166-14.835-27.459-17.395-42.495-.62-3.643-.984-7.367-.771-11.064.166-2.888.759-6.157,2.564-8.365,1.908-2.334,4.879-3.231,7.894-3.29,1.131-.022,2.257.223,3.279-.371.763-.444,1.472-1.025,2.21-1.513,1.59-1.053,3.213-2.057,4.859-3.02,7.587-4.442,15.667-8.17,24.096-10.701,1.868-.561,4.324-1.061,5.834-1.667,1.553-.623,3.224-.98,4.871-1.249,3.153-.515,6.541-.823,9.244.686,1.341.749,2.389,1.853,2.874,3.328.591,1.797,2.615,2.25,4.011,1.059,2.245-1.915,6.368-2.15,9.133-1.336,3.025.89,5.393,4.023,5.562,7.1.104,1.882,1.942,2.903,3.611,2.072,2.429-1.208,5.813.142,7.615,1.908,2.506,2.456,2.965,6.005,2.19,9.292-.225.955.13,2.259,1.103,2.71,2.09.969,4.365,2.079,6.083,3.522.543.457,1.302,1.216,1.587,1.594-.016-.021.331.496.447.695.11.188.208.38.308.574.233.455-.093-.314.093.207.215.603.369,1.21.491,1.838.013.068.1.773.037.223.017.147.034.295.044.443.028.421.059.841.074,1.263.028.786.034,1.575.028,2.362-.003.388-.013.77-.054,1.156-.028.266-.076.513-.17.998-1.611,8.329-4.986,16.283-8.73,23.846-2.38,4.807-4.916,9.568-7.849,14.064-1.693,2.595,2.461,5.003,4.145,2.423,2.726-4.178,5.101-8.589,7.34-13.043,2.19-4.356,4.273-8.795,5.997-13.358,1.539-4.077,2.899-8.376,3.727-12.655.643-3.325.751-7.396-.379-10.637-1.703-4.881-6.344-7.595-10.795-9.659l1.103,2.71c1.182-5.012.288-10.582-3.666-14.19-3.492-3.186-8.83-4.6-13.19-2.431l3.611,2.072c-.286-5.2-3.818-9.994-8.794-11.638-4.533-1.498-10.437-.639-14.095,2.48l4.011,1.059c-2.985-9.076-14.105-8.849-21.65-6.547-.785.24-1.628.625-2.362.834-1.22.348-2.465.61-3.686.96-2.364.677-4.698,1.459-7.002,2.32-4.778,1.787-9.448,3.883-13.971,6.24-4.318,2.25-8.527,4.735-12.499,7.554l1.211-.328c-5.802-.346-11.776,1.505-14.775,6.829-2.801,4.973-2.768,11.25-2.191,16.762,1.273,12.171,5.032,24.426,10.423,35.377,4.545,9.231,10.63,19.1,19.991,24.062,4.484,2.377,9.384,3.936,14.318,5.064,6.501,1.486,13.263,2.488,19.937,2.621,3.734.074,7.54-.15,11.187-1,3.378-.787,6.525-2.368,9.417-4.257,6.758-4.414,12.351-10.497,16.782-17.204,1.708-2.585-2.448-4.992-4.145-2.423Z"/><path class="d" d="M272.798,11.721c.45,6.829.238,13.716-.516,20.516-.558,5.025-1.347,10.375-3.348,15.058-1.698,3.974-5.03,7.649-9.706,6.871s-8.087-5.237-10.072-9.233c-1.1-2.214-1.763-4.782-2.423-7.239-.909-3.386-1.621-6.82-2.231-10.272-.226-1.277-1.787-1.997-2.952-1.676-1.347.37-1.903,1.671-1.676,2.952,1.9,10.748,4.645,25.44,16.438,29.65,5.881,2.1,11.936-.728,15.224-5.749,3.053-4.663,4.174-10.57,4.979-15.996,1.219-8.214,1.629-16.594,1.083-24.882-.085-1.294-1.042-2.4-2.4-2.4-1.233,0-2.486,1.1-2.4,2.4h0Z"/><circle class="g" cx="71.402" cy="54.824" r="50"/><path class="d" d="M119.002,54.824c-.034,9.975-3.142,19.663-8.936,27.787-5.469,7.67-13.383,13.696-22.238,16.911-9.449,3.431-19.838,3.836-29.512,1.081-9.31-2.652-17.598-8.174-23.761-15.624-12.735-15.393-14.171-37.927-3.805-54.932,10.277-16.859,30.578-25.827,49.966-21.918s34.623,19.833,37.744,39.392c.385,2.413.533,4.862.541,7.304.011,3.088,4.811,3.094,4.8,0-.037-10.812-3.368-21.544-9.687-30.343-6.242-8.693-14.946-15.33-25.011-18.984-20.502-7.444-44.364-.856-58.151,16.03-6.853,8.393-10.985,18.643-11.807,29.455s1.826,21.802,7.458,31.041c5.441,8.925,13.588,16.229,23.135,20.513,10.103,4.534,21.39,5.804,32.251,3.611,21.011-4.244,37.914-21.873,41.15-43.082.417-2.732.651-5.478.66-8.242.011-3.089-4.789-3.093-4.8,0Z"/><path class="e" d="M90.172,27.072c3.104,1.332,6.29,2.462,9.403,3.772.531.224,1.378.034,1.849-.242.498-.291.973-.862,1.103-1.434.14-.614.11-1.304-.242-1.849-.362-.562-.824-.846-1.434-1.103-1.427-.6-2.873-1.154-4.314-1.717-.772-.301-1.544-.603-2.314-.91-.365-.145-.729-.292-1.093-.44-.176-.072-.353-.145-.529-.218-.067-.028-.134-.056-.2-.084.751.311.354.149.193.08-.617-.265-1.172-.428-1.849-.242-.557.153-1.16.584-1.434,1.103-.294.557-.442,1.232-.242,1.849.179.552.544,1.195,1.103,1.434h0Z"/><path class="e" d="M98.212,73.897c-2.797,1.492-5.693,2.791-8.501,4.262-1.114.584-1.541,2.229-.861,3.284.731,1.134,2.092,1.485,3.284.861,2.808-1.472,5.703-2.771,8.501-4.262,1.109-.592,1.544-2.224.861-3.284-.727-1.128-2.097-1.494-3.284-.861h0Z"/><path class="e" d="M87.48,41.876c3.048.629,6.134,1.05,9.186,1.657,1.228.244,2.65-.35,2.952-1.676.271-1.192-.36-2.69-1.676-2.952-3.052-.607-6.138-1.028-9.186-1.657-1.226-.253-2.652.356-2.952,1.676-.273,1.199.361,2.681,1.676,2.952h0Z"/><path class="e" d="M95.96,22.825c-7.106,15.747-8.081,34.521-4.082,51.223,1.054,4.401,2.542,8.684,4.478,12.776.554,1.172,2.234,1.475,3.284.861,1.199-.701,1.417-2.108.861-3.284-3.236-6.838-4.997-14.421-5.701-21.931-.79-8.433-.398-17.04,1.447-25.316.908-4.072,2.14-8.099,3.858-11.906.533-1.181.34-2.581-.861-3.284-1.028-.601-2.748-.326-3.284.861h0Z"/><path class="e" d="M96.342,62.161c-3,.828-6.052,1.451-9.057,2.258-1.212.325-2.074,1.724-1.676,2.952.403,1.244,1.653,2.025,2.952,1.676,3.005-.807,6.057-1.43,9.057-2.258,1.21-.334,2.076-1.718,1.676-2.952s-1.656-2.034-2.952-1.676h0Z"/><path class="e" d="M87.007,55.705c3.111.078,6.223-.055,9.334.001,1.256.023,2.457-1.12,2.4-2.4-.059-1.32-1.054-2.376-2.4-2.4-3.111-.056-6.223.077-9.334-.001-1.256-.032-2.457,1.126-2.4,2.4.059,1.327,1.054,2.366,2.4,2.4h0Z"/><path class="e" d="M42.827,25.248c3.165,7.013,4.821,14.751,5.418,22.397.655,8.395.145,16.929-1.82,25.127-.956,3.991-2.237,7.916-3.994,11.629-.554,1.171-.326,2.59.861,3.284,1.044.611,2.727.316,3.284-.861,7.363-15.559,8.451-34.275,4.738-50.946-1.001-4.493-2.448-8.856-4.342-13.052-.533-1.182-2.249-1.466-3.284-.861-1.215.711-1.396,2.098-.861,3.284h0Z"/><path class="e" d="M50.046,23.998c-.096.041-.4.17.009-.003.43-.181.073-.031-.005.002-.155.065-.31.129-.466.192-.355.145-.711.288-1.067.43-.775.309-1.552.613-2.33.916-1.415.553-2.835,1.096-4.235,1.686-.604.254-1.089.513-1.434,1.103-.301.514-.429,1.273-.242,1.849.188.581.548,1.141,1.103,1.434.528.279,1.271.486,1.849.242,3.059-1.287,6.19-2.398,9.24-3.707.513-.22.962-.923,1.103-1.434.158-.574.087-1.339-.242-1.849-.33-.512-.822-.964-1.434-1.103-.672-.153-1.222-.027-1.849.242h0Z"/><path class="e" d="M54.175,37.247c-3.048.629-6.134,1.05-9.186,1.657-1.234.245-2.055,1.781-1.676,2.952.424,1.311,1.631,1.939,2.952,1.676,3.052-.607,6.138-1.028,9.186-1.657,1.232-.254,2.057-1.775,1.676-2.952-.422-1.304-1.633-1.948-2.952-1.676h0Z"/><path class="e" d="M45.313,66.79c3,.828,6.052,1.451,9.057,2.258,1.211.325,2.663-.407,2.952-1.676.287-1.262-.379-2.604-1.676-2.952-3.005-.807-6.057-1.43-9.057-2.258-1.209-.334-2.665.413-2.952,1.676s.381,2.595,1.676,2.952h0Z"/><path class="e" d="M42.154,78.172c2.746,1.464,5.588,2.739,8.344,4.184,1.111.582,2.659.321,3.284-.861.584-1.106.326-2.661-.861-3.284-2.756-1.445-5.598-2.72-8.344-4.184-1.107-.59-2.662-.315-3.284.861-.588,1.113-.322,2.653.861,3.284h0Z"/><path class="e" d="M55.924,50.905c-3.111.078-6.223-.055-9.334.001-1.254.023-2.459,1.088-2.4,2.4.057,1.281,1.055,2.424,2.4,2.4,3.111-.056,6.223.077,9.334-.001,1.254-.031,2.459-1.081,2.4-2.4-.057-1.273-1.055-2.434-2.4-2.4h0Z"/><path class="e" d="M134.519,288.122c1.318-.742,2.964-1.493,3.947-3.356.959-1.829,1.216-3.925,1.424-5.981.84-8.66.761-17.478-1.097-25.99-5.912-27.206-32.11-44.22-59.118-44.22-18.17,0-35.224,7.029-44.655,21.611-6.506,10.067-9.504,22.19-9.366,34.158-11.183,2.403-22.628,8.336-23.218,14.014-.346,3.341,2.116,5.447,5.309,6.98,6.109,2.929,22.067,2.293,33.798,1.291-1.214,6.669-.417,13.595,2.781,19.719,8.759,16.747,34.258,19.222,48.731,7.368,7.444-6.09,11.201-13.009,21.749-17.685,4.834-2.135,9.537-3.672,14.499-5.461,2.201-.797,3.591-1.532,5.218-2.447Z"/><path class="g" d="M71.294,284.636c-5.564,0-9.412,4.313-9.412,9.356v.092c.042,5.594,3.96,9.44,9.414,9.44,3.462,0,6.193-1.45,7.797-3.848,1.044-1.545,1.615-3.484,1.615-5.684,0-2.015-.61-3.904-1.69-5.449-1.643-2.351-4.377-3.907-7.724-3.907Z"/><path class="d" d="M71.294,282.236c-4.934.064-9.233,2.914-11.038,7.528-1.613,4.125-.689,9.117,2.223,12.426,3.082,3.503,8.485,4.571,12.831,3.128,5.081-1.687,8.118-6.657,7.778-11.958-.406-6.34-5.485-11.035-11.794-11.124-3.09-.044-3.091,4.756,0,4.8,1.691.024,3.151.43,4.524,1.521.346.275,1,.991,1.294,1.443.521.802.83,1.541,1.04,2.464.375,1.649.117,3.723-.628,5.152-.445.853-.63,1.108-1.258,1.718-.542.526-1.081.884-1.775,1.189-.411.18-1.638.497-2.003.541-.477.057-.969.068-1.449.056-.17-.004-.34-.011-.51-.023-.167-.011-.334-.027-.5-.046.189.025.198.024.028-.003-.356-.064-.708-.143-1.055-.243-.226-.066-.447-.144-.67-.222-.067-.023-.415-.188-.068-.025-.344-.161-.679-.34-1.001-.543-.128-.08-.25-.166-.376-.25-.226-.165-.243-.176-.05-.034-.087-.071-.171-.144-.254-.22-.242-.235-.474-.475-.71-.716-.478-.487.203.346-.184-.221-.085-.125-.172-.249-.253-.377-.206-.324-.386-.662-.551-1.008.161.338-.008-.009-.031-.074-.095-.263-.185-.526-.261-.795-.265-.937-.279-1.061-.306-1.972-.011-.371.011-.737.024-1.108.026-.769-.052.221.019-.22.045-.281.106-.56.177-.836.813-3.122,3.46-5.107,6.786-5.15,3.086-.04,3.095-4.84,0-4.8Z"/><path class="d" d="M135.73,290.194c1.466-.815,2.894-1.652,3.959-2.981,1.278-1.594,1.92-3.59,2.243-5.586.681-4.205.863-8.551.869-12.805.011-7.806-.917-15.787-3.555-23.168-4.278-11.968-12.659-21.995-23.288-28.878s-23.423-10.565-36.11-10.601c-13.609-.038-27.44,3.835-37.989,12.669-11.564,9.684-17.325,24.917-18.424,39.656-.145,1.945-.2,3.893-.183,5.842l1.762-2.314c-5.834,1.277-11.681,3.31-16.81,6.408-3.703,2.236-7.983,5.565-8.196,10.274-.234,5.163,4.844,8.487,9.26,9.729,4.501,1.266,9.386,1.393,14.031,1.424,6.088.042,12.178-.322,18.242-.837l-2.314-3.038c-1.684,9.61.34,19.868,7.01,27.231,4.89,5.399,11.923,8.694,19.066,9.765,7.512,1.126,15.172.17,22.105-2.968,7.481-3.386,12.411-9.78,18.335-15.182,4.011-3.657,8.596-6.153,13.632-8.122,5.462-2.136,11.219-3.641,16.357-6.52,2.695-1.51.278-5.658-2.423-4.145-4.238,2.375-8.937,3.672-13.468,5.37-4.617,1.73-9.191,3.619-13.204,6.53-6.361,4.614-10.912,11.407-17.503,15.667-10.733,6.936-26.693,7.073-36.72-1.144-7.379-6.047-10.188-15.911-8.559-25.206.245-1.398-.625-3.181-2.314-3.038-4.901.416-9.814.724-14.732.814-4.296.079-8.791.079-12.983-.55-1.635-.245-3.324-.567-4.856-1.211.467.196-.121-.068-.185-.1-.277-.143-.556-.279-.829-.43-.419-.232-.837-.474-1.227-.754-.706-.507-1.427-1.161-1.755-1.99-.092-.232-.141-.524-.164-.785-.025-.282-.014-.585.025-.865-.016.117-.089.426.03-.018.092-.342.215-.643.209-.631.209-.418.454-.827.736-1.2.911-1.205,2.588-2.507,4.029-3.435,4.968-3.2,10.709-5.159,16.452-6.416,1.014-.222,1.77-1.303,1.762-2.314-.116-13.798,3.928-28.594,13.649-38.777,8.507-8.912,20.627-13.472,32.753-14.394,11.779-.896,23.729,1.395,34.207,6.9,10.153,5.333,18.686,13.514,23.813,23.829,2.886,5.807,4.487,12.19,5.133,18.626.403,4.018.478,8.065.313,12.098-.081,1.978-.218,3.954-.408,5.925-.167,1.73-.336,3.651-1.221,5.185-.661,1.145-1.868,1.696-2.983,2.316-2.701,1.501-.283,5.648,2.423,4.145Z"/><path class="d" d="M39.723,267.654c-.518-.025-1.031-.074-1.547-.122-.277-.034-.256-.03.064.013-.127-.018-.254-.036-.38-.056-.189-.03-.378-.062-.566-.096-.955-.174-1.899-.409-2.823-.706-.434-.139-.863-.292-1.287-.459-.111-.044-.222-.089-.333-.134.299.127.327.137.083.031-.185-.087-.373-.17-.557-.259-.783-.38-1.536-.817-2.253-1.31-1.037-.713-2.708-.228-3.284.861-.645,1.221-.246,2.523.861,3.284,3.497,2.404,7.82,3.55,12.022,3.754,1.256.061,2.456-1.147,2.4-2.4-.061-1.352-1.055-2.335-2.4-2.4h0Z"/><path class="g" d="M232.767,307.158c.819,1.071,1.339,2.81,1.585,4.135.316,1.704-.494,3.457-1.874,4.504-1.055.801-2.53.877-3.792.474s-2.344-1.226-3.332-2.107c-2.681-2.393-4.843-5.301-6.937-8.221-.978-1.363-1.958-2.759-2.488-4.351-.53-1.592-.554-3.433.325-4.862.802-1.305,2.591-2.191,4.122-2.132,1.884.073,3.785,1.17,5.077,2.544l7.314,10.016Z"/><path class="g" d="M334.825,211.585c-1.225-.214-2.492-.264-3.773-.124-3.9.43-7.36,2.51-10.36,4.94-3.89,3.14-30.519,26.4-55.129,47.659,3.58,3.928,7.875,9.437,11.67,14.316,4.862-3.211,9.715-6.443,14.569-9.666,9.4-6.26,18.8-12.52,28.17-18.82,3.61-2.43,7.21-4.86,10.81-7.31,4.84-3.3,10.59-6.36,13.87-11.34,5.481-8.313-1.103-18.133-9.827-19.656Z"/><path class="f" d="M235.44,306.117c1.382-.921,2.765-1.841,4.149-2.761,8.307-5.523,13.454-8.919,21.767-14.433,5.311-3.523,10.622-7.046,15.932-10.57-3.823-4.907-7.947-10.145-11.632-14.366-16.798,14.532-32.666,28.149-39.716,33.82,1.634,2.238,6.828,9.35,6.828,9.35,0,0,.156.214.365.499.769-.514,1.538-1.027,2.308-1.54Z"/><path class="d" d="M230.694,308.369c.877,1.227,1.838,3.386.993,4.78-1.024,1.691-2.853.775-4.089-.209-1.919-1.528-3.564-3.478-5.055-5.413-1.472-1.911-3.24-3.966-4.172-6.209-.612-1.474-.72-3.383.877-4.097.738-.33,1.345-.276,2.138.002.455.16.886.399,1.285.672.201.138,1.163.951.71.462,1.277,1.377,2.293,3.14,3.399,4.655,1.304,1.786,2.608,3.572,3.912,5.357.763,1.045,2.084,1.563,3.284.861,1.032-.603,1.63-2.231.861-3.284-1.493-2.045-2.987-4.09-4.48-6.135l-2.447-3.351c-1.19-1.63-2.724-2.853-4.606-3.619-2.786-1.133-6.037-.679-8.203,1.504-2.447,2.466-2.29,6.208-.972,9.178,1.261,2.842,3.433,5.404,5.354,7.824s4.198,5.128,6.995,6.58c3.36,1.744,7.346,1.023,9.352-2.356,1.726-2.907.903-6.971-.993-9.626-.752-1.053-2.092-1.558-3.284-.861-1.041.609-1.618,2.223-.861,3.284Z"/><path class="d" d="M227.639,299.503c10.514-8.464,20.674-17.387,30.896-26.198,13.42-11.568,26.794-23.189,40.174-34.803,7.847-6.81,15.56-13.843,23.641-20.378,4.19-3.388,9.567-5.692,14.816-3.347,4.129,1.845,7.291,5.992,7.076,10.534-.27,5.701-6.123,9.581-10.429,12.411-6.019,3.956-11.964,8.024-17.945,12.037-24.83,16.663-49.794,33.127-74.704,49.671-3.092,2.053-6.183,4.108-9.269,6.17-2.556,1.708-.156,5.867,2.423,4.145,25.603-17.105,51.339-34.011,76.935-51.127,6.525-4.363,13.046-8.732,19.537-13.145,5.393-3.667,11.428-6.875,15.373-12.223,3.475-4.71,3.769-10.893.785-15.924-2.839-4.786-8.024-7.949-13.566-8.313-7.429-.487-13.137,4.564-18.399,9.075-4.545,3.896-9.066,7.821-13.589,11.743-13.411,11.63-26.805,23.279-40.237,34.884-11.411,9.859-22.787,19.775-34.427,29.364-.826.68-1.654,1.357-2.487,2.028-1.01.813-.847,2.547,0,3.394.999.999,2.381.815,3.394,0h0Z"/><path class="d" d="M264.918,267.092c3.683,4.007,6.971,8.374,10.311,12.665.775.996,2.591.874,3.394,0,.969-1.056.827-2.332,0-3.394-3.34-4.291-6.627-8.658-10.311-12.665-.852-.927-2.542-.928-3.394,0-.91.991-.909,2.406,0,3.394h0Z"/></g></svg>