<svg id="b" xmlns="http://www.w3.org/2000/svg" width="329.755" height="191.16" viewBox="0 0 329.755 191.16" style="color: initial !important;"><defs><style>.d{fill:#ffffff;}.e{fill:#a0a0a0;}.f{fill:#211715;}</style></defs><g id="c"><path class="e" d="M91.188,116.349c-.725-.695-1.432-1.408-2.122-2.138-.452,7.646-2.636,15.185-6.316,21.909-1.043,1.906-2.217,3.774-2.812,5.864-.962,3.376-.31,7.047,1.102,10.26,2.295,5.221,6.48,9.451,9.402,14.163,1.947-3.996,2.17-8.769,2.268-13.302.248-11.834.177-23.692-.201-35.527-.447-.403-.887-.814-1.322-1.23Z"/><path class="e" d="M285.604,46.325c-9.201-16.086-20.556-23.529-39.197-27.309-30.103-6.105-82.3-1.497-117.119-3.8h-.025c-5.165-6.387-12.144-10.546-23.585-12.366-8.504-1.358-18.874.437-24.944,5.61-14.315-.579-27.224,6.697-34.924,18.649-3.85,5.959-5.532,12.414-6.652,19.058-.886,5.261-1.419,10.64-2.395,15.984-1.417,7.736-2.953,15.448-2.87,23.35.118,12.118,1.385,23.669-4.497,34.275-3.366,6.047-6.262,10.24-13.16,16.039-4.051,3.425-9.708,6.898-12.767,10.842-3.106,4.028.968,10.405,6.012,9.768,4.89-.626,14.031-5.433,18.271-8.232,20.491-13.534,28.251-30.727,29.488-54.568,1.182-.735,2.338-1.54,3.462-2.416.463-.362,1.031-.811,1.646-1.309,1.771-1.437,2.501-3.669,2.109-5.752h2.208c0,9.395,5.461,13.001,11.342,13.746,3.448,7.454,8.416,14.189,14.503,19.687.378,11.834.449,23.692.201,35.527-.118,5.421-.413,11.185-3.626,15.555-1.512,2.067-3.602,3.72-4.878,5.929-1.276,2.232-1.441,5.48.626,7.016.862.626,1.949.862,3,1.028,7.996,1.37,16.204,1.417,24.224.165,3.768-.614,8.067-1.937,9.484-5.516.626-1.606.531-3.413.449-5.161-.791-15.944.602-33.519,11.362-45.211,3.484-3.791,8.882-5.138,13.736-3.449,25.346,8.858,52.936,11.114,79.345,6.401,3.047,8.575,6.26,17.102,8.929,25.818,2.681,8.811,4.748,18.531,1.217,27.047-.26.626-.543,1.299-.307,1.925.26.602.886.909,1.488,1.158,8.799,3.6,18.903,3.917,27.938.912,3.464-1.152,5.481-4.749,4.795-8.334-3.105-16.217-.676-33.433,6.762-48.183,4.37-8.693,7.937-17.362,11.657-26.338,6.732-16.252,5.433-42.247-3.307-57.542Z"/><path class="f" d="M129.289,17.615c25.353,1.659,50.825.178,76.208.525,11.536.158,23.192.492,34.611,2.201,10.572,1.582,21.384,4.431,29.988,11.062,8.388,6.464,14.617,16.11,17.643,26.2,3.436,11.457,4.088,24.184,1.736,35.919-1.265,6.312-3.848,12.117-6.342,18.021-1.549,3.667-3.138,7.319-4.811,10.932-1.566,3.382-3.326,6.677-4.824,10.09-5.922,13.493-7.984,28.415-5.899,43.005.375,2.627,1.337,5.372-.666,7.581-.953,1.051-2.232,1.401-3.556,1.776-1.763.5-3.567.892-5.384,1.13-3.536.464-7.216.449-10.742-.099-1.662-.259-3.307-.625-4.922-1.093-.773-.223-1.538-.47-2.296-.74-.413-.148-.824-.301-1.232-.464-1.127-.449.135.511-.2.474.103.011.825-2.19.895-2.404.269-.821.492-1.657.672-2.502.402-1.892.622-3.839.671-5.772.095-3.731-.438-7.484-1.228-11.123-1.634-7.53-4.331-14.847-6.914-22.091-1.31-3.675-2.645-7.341-3.953-11.017-.466-1.31-1.591-1.917-2.952-1.676-19.148,3.387-38.971,3.067-58.013-.86-4.758-.981-9.471-2.182-14.117-3.599-4.446-1.356-8.58-3.256-13.326-2.523-8.444,1.305-13.517,9.954-16.479,17.193-3.119,7.623-4.192,16.004-4.412,24.187-.056,2.096-.053,4.194-.002,6.29.053,2.161.311,4.361.186,6.519-.214,3.702-3.927,4.885-7.035,5.514-4.838.98-9.927,1.158-14.848.983-2.458-.088-4.919-.283-7.354-.63-1.354-.193-4.093-.152-4.611-1.66-.483-1.406.299-3.021,1.156-4.17,1.293-1.733,2.942-3.165,4.218-4.921,2.617-3.598,3.456-8.112,3.774-12.458.356-4.869.29-9.789.316-14.668.028-5.265-.006-10.53-.102-15.794-.048-2.632-.111-5.263-.189-7.894-.044-1.481-.068-2.545-1.219-3.606-.833-.768-1.644-1.559-2.432-2.372-3.068-3.164-5.76-6.653-8.044-10.422-1.176-1.94-2.235-3.946-3.194-6.002-.548-1.175-2.239-1.472-3.284-.861-1.204.704-1.411,2.105-.861,3.284,3.561,7.636,8.659,14.53,14.891,20.198l-.703-1.697c.306,9.701.413,19.409.304,29.114-.048,4.285.097,8.687-.504,12.941-.258,1.829-.678,3.722-1.464,5.402-.85,1.817-2.104,3.227-3.448,4.689-2.604,2.834-4.958,6.315-3.883,10.362,1.262,4.75,6.507,5.023,10.57,5.501,4.752.559,9.556.658,14.327.304,4.12-.306,8.439-.696,12.259-2.382,3.684-1.626,5.94-4.707,6.159-8.756.11-2.032-.121-4.096-.176-6.128-.053-1.963-.066-3.928-.027-5.892.149-7.493,1.048-15.038,3.643-22.109,1.25-3.404,2.973-6.646,5.129-9.565,2.105-2.849,4.628-5.23,8.249-5.807,3.88-.619,7.739,1.433,11.361,2.532,4.354,1.321,8.765,2.452,13.217,3.39,17.906,3.774,36.394,4.492,54.529,2.047,2.245-.303,4.484-.651,6.715-1.045l-2.952-1.676c2.779,7.813,5.689,15.583,8.201,23.488,2.244,7.061,4.435,14.563,3.547,22.052-.203,1.71-.628,3.409-1.21,5.029-.696,1.936-1.484,3.956.18,5.675,1.207,1.246,3.149,1.76,4.752,2.293,1.804.599,3.652,1.066,5.523,1.401,3.744.671,7.562.9,11.354.576,3.691-.316,7.726-.912,11.115-2.482,3.078-1.426,5.032-4.523,5.387-7.838.184-1.723-.27-3.412-.542-5.103-.29-1.807-.495-3.627-.634-5.452-.556-7.294-.056-14.652,1.537-21.792.811-3.636,1.888-7.214,3.223-10.692,1.369-3.564,3.153-6.926,4.792-10.368,3.525-7.402,6.659-14.983,9.787-22.558,4.744-11.488,5.301-24.723,3.658-36.915-.84-6.234-2.362-12.336-4.848-18.123-2.327-5.416-5.678-10.483-9.491-14.966-7.424-8.729-17.495-14.05-28.482-16.893-11.262-2.914-23.04-3.735-34.625-4.19-13.397-.526-26.812-.382-40.216-.254-13.087.125-26.186.316-39.269-.146-2.859-.101-5.716-.239-8.571-.426-1.295-.085-2.4,1.164-2.4,2.4,0,1.37,1.101,2.315,2.4,2.4h0Z"/><path class="f" d="M54.686,96.154c-.981,13.078-4.517,26.116-12.926,36.446-4.382,5.383-9.718,9.961-15.537,13.726-2.738,1.771-5.632,3.324-8.575,4.724-1.518.722-3.056,1.394-4.64,1.958-.686.244-1.378.471-2.08.663-.529.145-1.515.365-1.755.382-2.235.166-4.323-1.907-4.381-4.012-.034-1.237.594-2.041,1.57-3.078,1.37-1.455,2.917-2.74,4.488-3.97,3.252-2.547,6.603-4.932,9.65-7.734,2.738-2.518,5.21-5.293,7.339-8.346,2.189-3.138,4.146-6.521,5.58-10.07,1.595-3.948,2.388-8.142,2.774-12.369.804-8.796-.41-17.631.454-26.422.457-4.652,1.324-9.25,2.17-13.843.791-4.296,1.364-8.618,1.975-12.943,1.17-8.272,2.788-16.524,7.509-23.583,3.958-5.92,9.513-10.691,15.983-13.668,3.153-1.451,6.604-2.43,10.043-2.888,1.803-.24,3.634-.324,5.451-.295.52.008,1.084.081,1.594-.059.643-.177,1.079-.662,1.59-1.052.625-.477,1.305-.897,1.985-1.29,6.231-3.594,14.15-4.322,21.139-3.093,6.514,1.146,12.985,3.358,17.962,7.842,10.754,9.686,13.699,25.52,14.419,39.314.74,14.167.1,29.779-9.758,41.006-4.556,5.188-10.423,8.58-17.196,9.897-6.235,1.213-13.091.667-18.926-1.921-2.896-1.284-5.506-3.057-7.712-5.33-2.155-2.221-5.548,1.175-3.394,3.394,8.802,9.068,23.151,11.21,34.921,7.582,13.019-4.013,21.704-15.516,25.084-28.345,1.716-6.515,2.001-13.231,1.961-19.935-.043-7.071-.574-14.172-1.937-21.117-2.42-12.326-8.059-25.065-19.232-31.771-5.629-3.379-12.322-5.179-18.824-5.784-6.848-.637-14.206.498-20.303,3.768-1.474.791-2.832,1.753-4.115,2.824l1.697-.703c-9.056-.322-18.118,2.361-25.476,7.671-7.901,5.703-13.659,13.806-16.465,23.138-1.453,4.831-2.182,9.837-2.868,14.824-.736,5.355-1.665,10.655-2.598,15.978-1.004,5.727-1.846,11.521-1.838,17.348.007,5.282.331,10.561.13,15.844-.188,4.944-.883,9.893-2.751,14.506-1.545,3.815-3.884,7.588-6.426,10.824-2.905,3.698-6.473,6.919-10.203,9.764-3.804,2.902-8.308,5.699-11.026,9.74-2.335,3.472-1.095,8.317,1.928,10.948,1.556,1.355,3.493,2.197,5.574,2.223,1.824.023,3.71-.576,5.413-1.174,8.02-2.819,15.496-7.365,22.043-12.745,6.338-5.208,11.763-11.577,15.565-18.866,3.751-7.192,5.927-15.052,7.02-23.064.311-2.281.554-4.567.727-6.862.097-1.294-1.173-2.4-2.4-2.4-1.38,0-2.303,1.102-2.4,2.4h0Z"/><path class="d" d="M24.776,96.231c10.536-2.796,20.19-8.851,27.33-17.092,2.369-2.734,6.597-2.765,9.002-.061l1.941,2.182c2.269,2.552,1.952,6.487-.7,8.638-.615.499-1.183.948-1.646,1.309-11.657,9.082-26.609,10.485-40.711,6.056,1.611-.269,3.207-.614,4.784-1.033Z"/><path class="f" d="M25.414,98.546c6.563-1.769,12.835-4.701,18.365-8.657,2.794-1.999,5.435-4.218,7.837-6.676,1.674-1.713,3.295-4.478,6.082-3.585,1.474.473,2.703,2.13,3.637,3.309,1.375,1.737.925,3.876-.683,5.264-5.055,4.361-11.309,7.214-17.849,8.438-7.391,1.383-15.036.522-22.172-1.69v4.629c1.61-.277,3.203-.621,4.784-1.033,2.987-.778,1.721-5.409-1.276-4.629-1.581.412-3.174.756-4.784,1.033-2.471.425-2.088,3.981,0,4.629,7.359,2.281,15.105,3.087,22.747,2.012s14.695-4.263,20.745-9.035c1.398-1.103,2.628-2.207,3.362-3.868.755-1.706.933-3.558.528-5.383-.524-2.363-2.295-4.157-3.889-5.875-2.243-2.418-5.79-3.411-8.935-2.3-1.82.643-3.04,1.826-4.306,3.221-1.221,1.346-2.51,2.63-3.859,3.848-6.155,5.553-13.611,9.565-21.608,11.72-2.979.803-1.715,5.435,1.276,4.629Z"/><path class="f" d="M61.736,57.016c-.794-2.885-.035-9.433,5.372-9.809,7.124.284,7.275,8.238,4.77,11.89-2.051,2.99-7.862,4.066-10.142-2.081Z"/><path class="f" d="M64.266,84.147c.026,4.464,1.221,9.119,4.602,12.244,2.804,2.592,6.49,3.768,10.243,4.02,2.022.136,4.05-.056,6.041-.41,1.277-.227,1.997-1.786,1.676-2.952-.37-1.346-1.672-1.904-2.952-1.676-.164.029-.328.056-.492.084-.287.048-.427.056-.029.011-.397.045-.793.093-1.191.123-.723.056-1.45.077-2.175.06-.38-.009-.761-.028-1.14-.059-.175-.014-.35-.032-.525-.05-.087-.009-.174-.023-.262-.031-.335-.027.442.091.116.013-.74-.176-1.486-.277-2.218-.499-.334-.101-.661-.219-.988-.339-.082-.03-.161-.066-.242-.096.015.006.405.201.174.071-.175-.098-.369-.17-.548-.261-.335-.17-.663-.356-.981-.557-.147-.093-.292-.189-.435-.289-.18-.126-.503-.407-.143-.097-.593-.51-1.14-1.04-1.636-1.646.264.323.054.066-.067-.108-.108-.155-.211-.313-.311-.474-.223-.36-.419-.734-.607-1.112-.032-.064-.209-.45-.087-.174.115.26-.056-.143-.074-.19-.086-.232-.17-.464-.246-.699-.159-.496-.291-1.001-.397-1.51-.057-.27-.104-.541-.149-.812-.046-.279-.007-.017,0,.035-.027-.207-.048-.416-.067-.624-.061-.664-.084-1.328-.088-1.995-.018-3.088-4.818-3.094-4.8,0h0Z"/><path class="f" d="M309.843,115.717c-1.512-9.255-3.089-18.515-5.228-27.649-1.677-7.164-3.696-14.314-6.815-20.999-1.434-3.074-3.163-5.955-5.278-8.61-.808-1.015-2.55-.844-3.394,0-1.002,1.002-.81,2.377,0,3.394.299.376.146.183.082.098.101.133.201.266.3.4.175.238.347.478.516.721.422.607.824,1.227,1.208,1.858.744,1.223,1.421,2.487,2.047,3.775,1.39,2.861,2.495,5.83,3.486,8.879,2.485,7.646,4.167,15.544,5.665,23.434,1.008,5.31,1.911,10.64,2.782,15.974.209,1.28,1.798,1.993,2.952,1.676,1.36-.374,1.886-1.668,1.676-2.952h0Z"/><path class="d" d="M320.726,131.211c-2.626.575-5.323.751-7.842-.093-5.336-1.789-8.495-7.62-7.099-12.842.637-2.383,2.026-4.167,4.547-4.388,3.557-.312,7.493,1.827,9.449,5.709,1.043,2.069,1.628,4.498,3.404,5.986,1.18.989,2.668,1.605,4.202,1.74-.206,1.704-2.095,2.594-3.734,3.102-.957.296-1.936.569-2.926.786Z"/><path class="f" d="M320.088,128.897c-3.292.694-6.823.562-9.338-1.748-2.064-1.896-3.159-4.532-2.848-7.293.116-1.024.562-2.299,1.238-2.979.244-.246.657-.478,1.109-.561.373-.068,1.288-.07,1.703-.002,2.744.448,4.913,2.579,6.112,5.246.835,1.857,1.513,3.764,2.948,5.269,1.687,1.77,3.997,2.625,6.375,2.893l-2.314-3.038c-.061.34-.016.374-.25.575-.197.17-.743.462-.977.563-1.181.508-2.509.792-3.758,1.074-3.012.681-1.737,5.31,1.276,4.629,3.132-.708,7.666-1.815,8.337-5.565.297-1.661-.671-2.853-2.314-3.038-1.793-.202-3.087-1.339-3.887-2.881-.975-1.879-1.569-3.861-2.869-5.565-2.35-3.08-6.196-5.283-10.161-4.999-4.502.323-6.927,4.024-7.353,8.233-.386,3.806,1.163,7.712,3.818,10.423,3.861,3.943,9.257,4.481,14.43,3.391,1.269-.267,2.005-1.757,1.676-2.952-.361-1.315-1.68-1.944-2.952-1.676Z"/><path class="f" d="M86.392,117.339c-.554,3.986-1.533,7.898-2.966,11.66-1.45,3.807-3.783,7.158-5.299,10.918-3.298,8.181,1.73,16.062,6.49,22.395.777,1.035,2.073,1.569,3.284.861,1.019-.596,1.644-2.241.861-3.284-4.241-5.644-9.21-12.501-5.513-19.695,1.761-3.426,3.617-6.71,4.962-10.338s2.276-7.403,2.809-11.242c.178-1.282-.312-2.577-1.676-2.952-1.122-.308-2.773.384-2.952,1.676h0Z"/></g></svg>