<svg id="b" xmlns="http://www.w3.org/2000/svg" width="238.799" height="130.695" viewBox="0 0 238.799 130.695" style="color: initial !important;"><defs><style>.d{fill:#ffffff;}.e{fill:#74c66d;}.f{fill:#211715;}</style></defs><g id="c"><path class="d" d="M228.472,65.065l.439.546c-1.081,6.35-5.172,11.436-10.29,15.451-20.945,16.415-52.715,19.595-79.517,19.767-.428,0-.857.011-1.296.011,1.863-1.917,3.673-3.919,5.461-5.793,1.842-1.938,3.662-3.887,5.461-5.857l.011.011c29.297-1.799,57.79-6.468,79.731-24.136Z"/><path class="e" d="M155.781,88.702c-2.34.187-4.689.35-7.043.494l-38.774,7.944c-7.105,1.615-10.756,2.268-17.62,2.235-7.406-.036-14.973-2.607-19.943-8.294,0,0-6.135-21.918-9.27-33.112,11.463-4.173,27.057-9.847,27.564-10.016,4.704-1.561,8.631-1.995,13.785-2.38,3.164-.237,6.593.768,9.325,2.9,1.645,1.284,2.485,3.074,2.847,4.994.166-.021.253-.032.253-.032,4.569-.574,7.932-.997,7.932-.997,14.966-2.553,30.145-3.769,45.297-4.585,18.535-.998,37.408-2.696,55.951-1.234,2.044.161,4.127.377,5.995,1.222,4.787,2.166,5.81,8.597,2.042,12.239-20.9,20.199-48.977,26.279-78.341,28.623Z"/><path class="f" d="M92.139,102.779c11.474.321,22.953.463,34.431.481,9.96.015,19.928.035,29.871-.628,18.601-1.241,37.861-4.429,54.365-13.556,8.963-4.957,18.483-12.116,20.418-22.826.23-1.274-.347-2.587-1.676-2.952-1.163-.32-2.721.394-2.952,1.676-1.609,8.904-9.215,14.708-16.582,19.029-7.688,4.51-16.139,7.517-24.773,9.633-18.128,4.443-36.812,4.816-55.376,4.826-12.577.007-25.155-.13-37.727-.482-3.09-.087-3.088,4.714,0,4.8h0Z"/><path class="e" d="M43.889,42.138c-3.062,2.45-5.731,5.424-7.85,8.712-5.241,8.132-7.352,18.002-7.268,27.676.062,7.187,1.652,15.028,7.226,19.566,7.596,6.185,19.029,3.575,27.654-1.07h0c13.732-7.395,22.49-21.773,22.16-37.366-.014-.656-.04-1.312-.078-1.967-.683-11.742-9.573-21.513-21.3-22.409-1.65-.126-3.309-.096-4.947.097-5.722.677-11.087,3.152-15.597,6.761Z"/><path class="f" d="M46.571,71.203c-.634-2.684.285-8.69,5.278-8.855,6.552.501,6.425,7.832,3.994,11.112-1.99,2.685-7.379,3.481-9.272-2.257Z"/><path class="f" d="M42.192,40.441c-11.9,9.644-16.688,25.812-15.727,40.709.423,6.555,2.209,13.602,7.273,18.158,5.269,4.74,12.438,5.517,19.166,4.215,12.854-2.487,24.419-11.554,30.404-23.109,5.725-11.052,7.587-26.308-.111-36.909-3.608-4.969-8.833-8.684-14.865-10.049-7.323-1.656-15.06.013-21.487,3.749-1.639.953-3.167,2.062-4.653,3.236-1.018.804-.841,2.553,0,3.394,1.005,1.005,2.374.806,3.394,0,5.193-4.105,11.735-6.581,18.397-6.186,5.174.307,10.013,2.7,13.545,6.464,7.741,8.252,7.041,21.163,2.984,31.003-4.296,10.418-13.226,18.683-23.837,22.399-5.21,1.824-11.541,2.911-16.694.304-5.305-2.684-7.628-8.307-8.444-13.918-1.015-6.976-.247-14.477,1.746-21.212,2.19-7.4,6.283-13.977,12.303-18.855,1.008-.817.849-2.545,0-3.394-.996-.996-2.384-.819-3.394,0Z"/><path class="f" d="M148.738,91.596c13.613-.843,27.281-2.259,40.553-5.508,12.726-3.115,25.158-8.039,35.927-15.592,2.758-1.934,5.416-4.022,7.938-6.256,2.287-2.026,4.62-4.065,5.361-7.164.653-2.732.175-5.762-1.454-8.074-2.009-2.851-5.101-4.069-8.465-4.522-8.001-1.076-16.285-.939-24.339-.759-8.286.185-16.561.693-24.833,1.192-16.442.992-32.868,1.849-49.182,4.251-2.019.297-4.034.618-6.046.959-1.279.217-1.995,1.793-1.676,2.952.372,1.354,1.67,1.894,2.952,1.676,15.422-2.616,31.01-3.731,46.611-4.607,15.536-.872,31.092-2.131,46.664-1.548,3.593.135,7.552.022,11.044.974,2.278.621,3.814,2.064,4.176,4.331.115.721.039,1.634-.241,2.466-.383,1.137-1.267,1.992-2.184,2.852-2.173,2.039-4.45,3.974-6.842,5.753-9.985,7.429-21.47,12.414-33.441,15.651-13.872,3.751-28.218,5.287-42.525,6.172-3.069.19-3.09,4.991,0,4.8h0Z"/><path class="f" d="M70.704,92.778c10.166,11.416,26.473,9.719,39.898,6.676,3.011-.683,1.737-5.311-1.276-4.629-11.757,2.665-26.274,4.613-35.228-5.442-2.059-2.312-5.443,1.093-3.394,3.394h0Z"/><path class="f" d="M187.73,55.807c6.933,15.93,13.291,32.102,19.084,48.481,1.692,4.784,3.338,9.584,4.95,14.396.338,1.009,1.218,1.762,2.314,1.762h7.052c3.089,0,3.094-4.8,0-4.8h-7.052l2.314,1.762c-5.608-16.745-11.692-33.325-18.424-49.652-1.984-4.811-4.017-9.601-6.094-14.372-.517-1.189-2.259-1.46-3.284-.861-1.227.718-1.38,2.09-.861,3.284h0Z"/><path class="e" d="M174.814,34.748c-12.734,8.538-24.532,18.502-35.717,28.944-6.512,6.08-12.868,12.349-19.004,18.81-4.242,4.467-15.077,17.14-9.582,23.789.8.968,1.899,1.643,3.032,2.185,13.065,6.246,21.631-4.934,29.723-13.43,8.744-9.18,17.066-18.748,25.39-28.307,7.126-8.183,17.101-16.497,20.502-27.096,1.453-4.529.864-14.316-6.163-10.094-2.771,1.664-5.496,3.4-8.181,5.2Z"/><path class="f" d="M173.603,32.675c-16.538,11.115-31.523,24.432-45.676,38.413-5.441,5.375-11.049,10.749-15.557,16.959-3.5,4.822-7.66,11.815-4.893,17.878,1.701,3.729,6.135,5.65,9.951,6.394,3.755.732,7.435.245,10.927-1.279,6.763-2.95,11.649-9.078,16.608-14.3,7.107-7.485,13.957-15.204,20.745-22.978,2.972-3.403,5.918-6.82,9.026-10.102,2.91-3.073,5.861-6.115,8.546-9.39,4.472-5.456,9.083-12.144,8.918-19.508-.06-2.679-.654-5.781-2.886-7.522-3.002-2.342-6.416-.463-9.185,1.24-2.202,1.354-4.375,2.756-6.524,4.193-2.555,1.709-.155,5.868,2.423,4.145,2.015-1.347,4.05-2.664,6.111-3.939.866-.535,1.724-1.116,2.633-1.577.266-.135.272-.147.59-.249.119-.038.238-.067.358-.102.642-.187-.197-.021.136-.032.219-.007.75-.042.243-.02.058-.003.331.081.351.103-.131-.145-.279.011-.169-.053.07-.041.371.325.123.064-.207-.218-.016.006.029.047.088.081.17.179.247.272-.135-.164-.161-.246-.046-.02.05.098.395.808.203.336.095.234.17.477.238.719.072.255.127.513.183.771.024.114.042.229.061.344.042.255-.017-.254.021.187.048.568.074,1.135.065,1.704-.004.285-.017.569-.035.853-.009.13-.105,1.069-.05.666-.176,1.285-.573,2.51-1.044,3.716-1.317,3.374-3.402,6.512-5.64,9.341-4.911,6.21-10.715,11.694-15.914,17.661-6.299,7.229-12.618,14.443-19.142,21.47-2.661,2.866-5.344,5.715-8.031,8.557-2.296,2.428-4.663,4.886-7.393,6.833-2.341,1.669-5.016,3.085-7.911,3.363-3.124.301-7.287-.546-9.607-2.786-.391-.377-.684-.756-.966-1.437.131.315-.063-.238-.087-.331-.041-.156-.078-.311-.115-.468-.098-.415-.014.049-.04-.205-.139-1.366.009-2.1.365-3.364.768-2.727,2.286-5.256,3.919-7.637,3.714-5.414,8.587-10.101,13.241-14.768,12.954-12.992,26.608-25.48,41.538-36.181,1.826-1.308,3.672-2.587,5.536-3.84,2.551-1.714.151-5.874-2.423-4.145Z"/><path class="f" d="M10.244,4.486c7.2,5.016,13.782,10.896,19.455,17.598,5.873,6.94,11.177,14.408,15.995,22.112,1.634,2.613,5.789.207,4.145-2.423-5.033-8.048-10.611-15.834-16.746-23.083C27.153,11.672,20.202,5.592,12.666.342c-1.064-.741-2.666-.195-3.284.861-.699,1.195-.206,2.541.861,3.284h0Z"/><path class="f" d="M1.2,15.71c7.076,3.735,13.708,8.254,19.579,13.701,6.116,5.675,11.8,11.861,17.057,18.336.818,1.007,2.544.85,3.394,0,.996-.996.82-2.385,0-3.394-5.342-6.58-11.123-12.885-17.367-18.622-6.086-5.591-12.938-10.31-20.24-14.165-2.73-1.441-5.158,2.7-2.423,4.145h0Z"/><path class="f" d="M107.99,87.533c4.418-7.205,8.329-14.872,10.175-23.176,1.013-4.556,1.921-9.708-.048-14.136s-7.15-6.677-11.715-7.042c-2.689-.215-5.537.275-8.196.644-2.768.384-5.481.988-8.15,1.816-2.941.912-1.686,5.547,1.276,4.629,4.144-1.285,8.362-1.939,12.682-2.259,3.399-.252,8.121.74,9.74,4.159,1.6,3.381.476,7.929-.321,11.368-.544,2.347-1.252,4.655-2.095,6.91-.191.509-.388,1.016-.592,1.52.02-.05-.502,1.196-.21.514-.224.524-.453,1.046-.689,1.565-1.74,3.822-3.807,7.487-6.001,11.064-1.619,2.641,2.531,5.055,4.145,2.423h0Z"/><path class="f" d="M116.895,110.826c.995,6.035,1.982,12.072,2.977,18.107.169,1.024,1.342,1.762,2.314,1.762h6.489c3.089,0,3.094-4.8,0-4.8h-6.489l2.314,1.762c-.995-6.035-1.982-12.072-2.977-18.107-.211-1.28-1.797-1.994-2.952-1.676-1.359.373-1.888,1.669-1.676,2.952h0Z"/><path class="f" d="M70.757,93.447c-4.464,9.187-9.307,18.185-14.518,26.97l2.072-1.189c-2.244,0-4.487,0-6.731,0-3.089,0-3.094,4.799,0,4.8,1.779,0,3.559,0,5.338,0,1.088,0,2.244.142,3.09-.703.626-.626,1.024-1.581,1.47-2.341.968-1.652,1.923-3.312,2.865-4.979,3.729-6.6,7.246-13.317,10.558-20.135.566-1.165.317-2.594-.861-3.284-1.054-.616-2.715-.31-3.284.861h0Z"/></g></svg>