<svg id="b" xmlns="http://www.w3.org/2000/svg" width="254.802" height="243.084" viewBox="0 0 254.802 243.084" style="color: initial !important;"><defs><style>.d{fill:#ffffff;}.e{fill:#e2e2e2;}.f{fill:#211715;}.g{fill:#ffda71;}.h{fill:#ad7b59;}.i{fill:#f2635f;}</style></defs><g id="c"><path class="d" d="M154.974,108.057c0,.293,0,.586,0,.879v-53.71c0-1.105.763-1.862,2.041-2.132,1.31-.276,2.01-.472,5.386-.472,2.87,0,5.427.491,5.427.491,1.181.223,2,.895,2,2v54.595"/><path class="f" d="M152.574,108.057c0,.293,0,.586,0,.879h4.8c0-6.89,0-13.779,0-20.669v-29.578c0-1.023.049-2.059,0-3.08-.006-.135.06-.402-.012-.312-.32.407.673.029.824-.001.262-.053.524-.102.787-.147.347-.058-.426.044-.039.006.197-.019.394-.039.591-.054,2.209-.166,4.468-.122,6.664.167.176.023.893.266,1.171.2.36-.086.106.065.067-.33.068.671,0,1.383,0,2.056,0,9.32,0,18.64,0,27.959,0,8.038-.157,16.094,0,24.13.003.141,0,.283,0,.425,0,3.089,4.8,3.094,4.8,0,0-7.198,0-14.395,0-21.593v-30.082c0-.917.03-1.839,0-2.756-.115-3.584-3.068-4.447-6.037-4.81-2.243-.274-4.535-.339-6.789-.157-1.449.117-3.241.295-4.523,1.038-1.798,1.042-2.304,2.778-2.304,4.689v26.791c0,8.546-.139,17.105,0,25.651.002.152,0,.304,0,.456,0,3.089,4.8,3.094,4.8,0,0-.293,0-.586,0-.879,0-3.089-4.8-3.094-4.8,0h0Z"/><path class="i" d="M163.108,7.652c-.365-.416-1.05-.416-1.415,0-3.363,3.839-6.349,8.035-8.455,12.618-.37.805-.718,1.618-1.038,2.442-1.959,5.052-2.712,10.821-.229,15.86.543,1.102,1.268,2.137,2.222,2.953,2.166,1.853,5.416,2.432,8.206,2.451,2.79-.019,6.04-.598,8.206-2.451.955-.817,1.679-1.852,2.222-2.953,2.484-5.039,1.731-10.808-.229-15.86-.319-.824-.668-1.637-1.038-2.442-2.106-4.583-5.092-8.779-8.455-12.618Z"/><path class="d" d="M119.972,103.056c0,.293,0,.586,0,.879v-53.71c0-1.105.763-1.862,2.041-2.132,1.31-.276,2.01-.472,5.386-.472,2.87,0,5.427.491,5.427.491,1.181.223,2,.895,2,2v54.595"/><path class="d" d="M84.97,108.057c0,.293,0,.586,0,.879v-53.71c0-1.105.763-1.862,2.041-2.132,1.31-.276,2.01-.472,5.386-.472,2.87,0,5.427.491,5.427.491,1.181.223,2,.895,2,2v54.595"/><path class="g" d="M163.151,24.092c-.368-.505-1.126-.494-1.487.016-1.133,1.598-2.189,3.095-3.082,4.786-1.083,2.051-2.065,4.233-2.113,6.536-.048,2.303,1.038,4.761,3.172,5.778.851.406,1.744.656,2.76.656s1.909-.251,2.76-.656c2.134-1.017,3.22-3.475,3.172-5.778-.048-2.303-1.03-4.485-2.113-6.536-.889-1.684-1.936-3.244-3.069-4.801Z"/><path class="f" d="M160.001,44.965v6.667c0,1.255,1.104,2.458,2.4,2.4s2.4-1.055,2.4-2.4v-6.667c0-1.255-1.104-2.458-2.4-2.4s-2.4,1.055-2.4,2.4h0Z"/><path class="f" d="M117.572,103.056c0,.293,0,.586,0,.879h4.8v-20.669c0-9.859,0-19.719,0-29.578,0-1.023.049-2.059,0-3.08-.006-.135.06-.402-.012-.312-.32.407.673.029.824-.001.262-.053.524-.102.787-.147.347-.058-.426.044-.039.006.197-.019.394-.039.591-.054,2.209-.166,4.468-.122,6.664.167.176.023.893.266,1.171.2.36-.086.106.065.067-.33.068.671,0,1.383,0,2.056,0,9.32,0,18.64,0,27.959,0,8.038-.157,16.094,0,24.13.003.141,0,.283,0,.425,0,3.089,4.8,3.094,4.8,0,0-7.198,0-14.395,0-21.593v-30.082c0-.917.03-1.839,0-2.756-.115-3.584-3.068-4.447-6.037-4.81-2.243-.274-4.535-.339-6.789-.157-1.449.117-3.241.295-4.523,1.038-1.798,1.042-2.304,2.778-2.304,4.689v26.791c0,8.546-.139,17.105,0,25.651.002.152,0,.304,0,.456,0,3.089,4.8,3.094,4.8,0,0-.293,0-.586,0-.879,0-3.089-4.8-3.094-4.8,0h0Z"/><path class="i" d="M128.106,2.651c-.365-.416-1.05-.416-1.415,0-3.363,3.839-6.349,8.035-8.455,12.618-.37.805-.718,1.618-1.038,2.442-1.959,5.052-2.712,10.821-.229,15.86.543,1.102,1.268,2.137,2.222,2.953,2.166,1.853,5.416,2.432,8.206,2.451,2.79-.019,6.04-.598,8.206-2.451.955-.817,1.679-1.852,2.222-2.953,2.484-5.039,1.731-10.808-.229-15.86-.319-.824-.668-1.637-1.038-2.442-2.106-4.583-5.092-8.779-8.455-12.618Z"/><path class="g" d="M128.149,19.092c-.368-.505-1.126-.494-1.487.016-1.133,1.598-2.189,3.095-3.082,4.786-1.083,2.051-2.065,4.233-2.113,6.536s1.038,4.761,3.172,5.778c.851.406,1.744.656,2.76.656s1.909-.251,2.76-.656c2.134-1.017,3.22-3.475,3.172-5.778-.048-2.303-1.03-4.485-2.113-6.536-.889-1.684-1.936-3.244-3.069-4.801Z"/><path class="f" d="M124.999,39.964v6.667c0,1.255,1.104,2.458,2.4,2.4s2.4-1.055,2.4-2.4v-6.667c0-1.255-1.104-2.458-2.4-2.4s-2.4,1.055-2.4,2.4h0Z"/><path class="f" d="M82.57,108.057c0,.293,0,.586,0,.879h4.8c0-6.89,0-13.779,0-20.669v-29.578c0-1.023.049-2.059,0-3.08-.006-.135.06-.402-.012-.312-.32.407.673.029.824-.001.262-.053.524-.102.787-.147.347-.058-.426.044-.039.006.197-.019.394-.039.591-.054,2.209-.166,4.468-.122,6.664.167.176.023.893.266,1.171.2.36-.086.106.065.067-.33.068.671,0,1.383,0,2.056,0,9.32,0,18.64,0,27.959,0,8.038-.157,16.094,0,24.13.003.141,0,.283,0,.425,0,3.089,4.8,3.094,4.8,0,0-7.198,0-14.395,0-21.593v-30.082c0-.917.03-1.839,0-2.756-.115-3.584-3.068-4.447-6.037-4.81-2.243-.274-4.535-.339-6.789-.157-1.449.117-3.241.295-4.523,1.038-1.798,1.042-2.304,2.778-2.304,4.689v26.791c0,8.546-.139,17.105,0,25.651.002.152,0,.304,0,.456,0,3.089,4.8,3.094,4.8,0,0-.293,0-.586,0-.879,0-3.089-4.8-3.094-4.8,0h0Z"/><path class="i" d="M93.104,7.652c-.365-.416-1.05-.416-1.415,0-3.363,3.839-6.349,8.035-8.455,12.618-.37.805-.718,1.618-1.038,2.442-1.959,5.052-2.712,10.821-.229,15.86.543,1.102,1.268,2.137,2.222,2.953,2.166,1.853,5.416,2.432,8.206,2.451,2.79-.019,6.04-.598,8.206-2.451.955-.817,1.679-1.852,2.222-2.953,2.484-5.039,1.731-10.808-.229-15.86-.319-.824-.668-1.637-1.038-2.442-2.106-4.583-5.092-8.779-8.455-12.618Z"/><path class="g" d="M93.146,24.092c-.368-.505-1.126-.494-1.487.016-1.133,1.598-2.189,3.095-3.082,4.786-1.083,2.051-2.065,4.233-2.113,6.536-.048,2.303,1.038,4.761,3.172,5.778.851.406,1.744.656,2.76.656s1.909-.251,2.76-.656c2.134-1.017,3.22-3.475,3.172-5.778-.048-2.303-1.03-4.485-2.113-6.536-.889-1.684-1.936-3.244-3.069-4.801Z"/><path class="f" d="M164.805,5.955c-1.713-1.358-3.579-1.283-5.096.33-1.328,1.412-2.509,3.022-3.653,4.583-2.06,2.809-3.852,5.806-5.252,8.998-2.843,6.486-4.404,14.632-.298,20.99,3.68,5.7,12.16,6.744,18.15,4.483,7.352-2.774,8.979-11.356,7.69-18.312-1.472-7.946-6.33-15.09-11.541-21.074-2.032-2.334-5.415,1.073-3.394,3.394,3.723,4.275,7.036,9.058,9.027,14.401,1.734,4.653,2.855,11.465-.926,15.503-1.602,1.71-4.125,2.206-6.374,2.305-2.301.101-4.854-.171-6.832-1.443-2.09-1.344-3.049-4.141-3.382-6.489-.392-2.766.069-5.602.885-8.247.922-2.987,2.328-5.814,3.958-8.475.835-1.362,1.739-2.682,2.693-3.963.938-1.26,1.95-2.813,3.183-3.79l-1.059.617h-.366l-1.059-.617.252.2c1.015.804,2.403.991,3.394,0,.835-.835,1.021-2.585,0-3.394Z"/><path class="f" d="M164.848,22.395c-.825-.881-2.111-1.288-3.29-.963-1.26.347-1.912,1.38-2.618,2.388-1.089,1.555-2.098,3.146-2.936,4.852-1.759,3.579-2.771,7.609-.84,11.341,1.813,3.503,6.305,5.13,9.987,3.782,3.618-1.325,5.785-4.834,5.57-8.678-.252-4.507-2.921-8.68-5.497-12.236-.759-1.048-2.087-1.561-3.284-.861-1.035.605-1.626,2.228-.861,3.284,1.623,2.24,3.26,4.638,4.217,7.253.446,1.22.704,2.344.614,3.616.024-.333-.065.347-.096.471-.069.282-.15.566-.258.836.114-.284-.136.249-.181.327-.061.108-.129.211-.194.316-.094.134-.09.138.013.012l-.16.187c-.577.622-1.313,1.029-2.185,1.122-.666.072-.985.014-1.524-.146-.285-.084-.464-.16-.586-.222-.112-.057-.218-.122-.329-.182l-.209-.135c.124.103.124.102,0-.005-.184-.162-.359-.337-.516-.526-.255-.307.144.235-.066-.106-.065-.105-.133-.208-.194-.316-.262-.46-.317-.612-.469-1.285-.027-.122-.052-.245-.072-.369-.065-.408.013.306-.002-.105-.01-.26-.019-.516-.009-.776.025-.646.177-1.305.379-1.97.431-1.416,1.122-2.75,1.86-4.029.418-.724.872-1.427,1.34-2.119.207-.306.418-.61.631-.913.113-.162.31-.34.37-.525.232-.283.073-.237-.478.136-.486.39-.994.369-1.523-.063.886.947,2.499.895,3.394,0,.944-.944.888-2.445,0-3.394Z"/><path class="f" d="M129.803.954c-1.713-1.358-3.579-1.283-5.096.33-1.328,1.412-2.509,3.022-3.653,4.583-2.06,2.809-3.852,5.806-5.252,8.998-2.843,6.486-4.404,14.632-.298,20.99,3.68,5.7,12.16,6.744,18.15,4.483,7.352-2.774,8.979-11.356,7.69-18.312-1.472-7.946-6.33-15.09-11.541-21.074-2.032-2.334-5.415,1.073-3.394,3.394,3.723,4.275,7.036,9.058,9.027,14.401,1.734,4.653,2.855,11.465-.926,15.503-1.602,1.71-4.125,2.206-6.374,2.305-2.301.101-4.854-.171-6.832-1.443-2.09-1.344-3.049-4.141-3.382-6.489-.392-2.766.069-5.602.885-8.247.922-2.987,2.328-5.814,3.958-8.475.835-1.362,1.739-2.682,2.693-3.963.938-1.26,1.95-2.813,3.183-3.79l-1.059.617h-.366l-1.059-.617.252.2c1.015.804,2.403.991,3.394,0,.835-.835,1.021-2.585,0-3.394Z"/><path class="f" d="M129.846,17.395c-.825-.881-2.111-1.288-3.29-.963-1.26.347-1.912,1.38-2.618,2.388-1.089,1.555-2.098,3.146-2.936,4.852-1.759,3.579-2.771,7.609-.84,11.341,1.813,3.503,6.305,5.13,9.987,3.782,3.618-1.325,5.785-4.834,5.57-8.678-.252-4.507-2.921-8.68-5.497-12.236-.759-1.048-2.087-1.561-3.284-.861-1.035.605-1.626,2.228-.861,3.284,1.623,2.24,3.26,4.638,4.217,7.253.446,1.22.704,2.344.614,3.616.024-.333-.065.347-.096.471-.069.282-.15.566-.258.836.114-.284-.136.249-.181.327-.061.108-.129.211-.194.316-.094.134-.09.138.013.012l-.16.187c-.577.622-1.313,1.029-2.185,1.122-.666.072-.985.014-1.524-.146-.285-.084-.464-.16-.586-.222-.112-.057-.218-.122-.329-.182l-.209-.135c.124.103.124.102,0-.005-.184-.162-.359-.337-.516-.526-.255-.307.144.235-.066-.106-.065-.105-.133-.208-.194-.316-.262-.46-.317-.612-.469-1.285-.027-.122-.052-.245-.072-.369-.065-.408.013.306-.002-.105-.01-.26-.019-.516-.009-.776.025-.646.177-1.305.379-1.97.431-1.416,1.122-2.75,1.86-4.029.418-.724.872-1.427,1.34-2.119.207-.306.418-.61.631-.913.113-.162.31-.34.37-.525.232-.283.073-.237-.478.136-.486.39-.994.369-1.523-.063.886.947,2.499.895,3.394,0,.944-.944.888-2.445,0-3.394Z"/><path class="f" d="M94.801,5.955c-1.713-1.358-3.579-1.283-5.096.33-1.328,1.412-2.509,3.022-3.653,4.583-2.06,2.809-3.852,5.806-5.252,8.998-2.843,6.486-4.404,14.632-.298,20.99,3.68,5.7,12.16,6.744,18.15,4.483,7.352-2.774,8.979-11.356,7.69-18.312-1.472-7.946-6.33-15.09-11.541-21.074-2.032-2.334-5.415,1.073-3.394,3.394,3.723,4.275,7.036,9.058,9.027,14.401,1.734,4.653,2.855,11.465-.926,15.503-1.602,1.71-4.125,2.206-6.374,2.305-2.301.101-4.854-.171-6.832-1.443-2.09-1.344-3.049-4.141-3.382-6.489-.392-2.766.069-5.602.885-8.247.922-2.987,2.328-5.814,3.958-8.475.835-1.362,1.739-2.682,2.693-3.963.938-1.26,1.95-2.813,3.183-3.79l-1.059.617h-.366l-1.059-.617.252.2c1.015.804,2.403.991,3.394,0,.835-.835,1.021-2.585,0-3.394Z"/><path class="f" d="M94.843,22.395c-.825-.881-2.111-1.288-3.29-.963-1.26.347-1.912,1.38-2.618,2.388-1.089,1.555-2.098,3.146-2.936,4.852-1.759,3.579-2.771,7.609-.84,11.341,1.813,3.503,6.305,5.13,9.987,3.782,3.618-1.325,5.785-4.834,5.57-8.678-.252-4.507-2.921-8.68-5.497-12.236-.759-1.048-2.087-1.561-3.284-.861-1.035.605-1.626,2.228-.861,3.284,1.623,2.24,3.26,4.638,4.217,7.253.446,1.22.704,2.344.614,3.616.024-.333-.065.347-.096.471-.069.282-.15.566-.258.836.114-.284-.136.249-.181.327-.061.108-.129.211-.194.316-.094.134-.09.138.013.012l-.16.187c-.577.622-1.313,1.029-2.185,1.122-.666.072-.985.014-1.524-.146-.285-.084-.464-.16-.586-.222-.112-.057-.218-.122-.329-.182l-.209-.135c.124.103.124.102,0-.005-.184-.162-.359-.337-.516-.526-.255-.307.144.235-.066-.106-.065-.105-.133-.208-.194-.316-.262-.46-.317-.612-.469-1.285-.027-.122-.052-.245-.072-.369-.065-.408.013.306-.002-.105-.01-.26-.019-.516-.009-.776.025-.646.177-1.305.379-1.97.431-1.416,1.122-2.75,1.86-4.029.418-.724.872-1.427,1.34-2.119.207-.306.418-.61.631-.913.113-.162.31-.34.37-.525.232-.283.073-.237-.478.136-.486.39-.994.369-1.523-.063.886.947,2.499.895,3.394,0,.944-.944.888-2.445,0-3.394Z"/><path class="f" d="M89.997,44.965v6.667c0,1.255,1.104,2.458,2.4,2.4s2.4-1.055,2.4-2.4v-6.667c0-1.255-1.104-2.458-2.4-2.4s-2.4,1.055-2.4,2.4h0Z"/><path class="d" d="M126.138,240.684c-54.018,0-123.74-15.579-123.74-49.227,0-5.206.527-10.444,2.675-15.338,5.431-12.375,17.222-18.701,29.123-23.754,54.036-22.941,140.833-20.684,192.312.416,10.607,4.348,25.89,15.955,25.89,31.91,0,14.751-5.124,24.042-17.661,32.914-16.029,11.344-46.065,23.079-108.599,23.079Z"/><path class="f" d="M126.138,238.284c-20.594-.013-41.302-2.01-61.427-6.435-9.433-2.074-18.785-4.703-27.761-8.293-3.776-1.51-7.494-3.236-11.07-5.204-1.772-.975-3.509-2.013-5.197-3.127-1.502-.991-2.931-2.018-4.125-2.984-1.328-1.073-2.604-2.211-3.805-3.425-.601-.607-1.184-1.234-1.744-1.879-.249-.287-.494-.579-.734-.874-.095-.117-.189-.235-.283-.353-.173-.221-.186-.236-.038-.047-.09-.119-.179-.238-.268-.358-.896-1.238-1.723-2.519-2.43-3.876-.77-1.48-1.007-2.033-1.52-3.72-.224-.736-.413-1.483-.564-2.237-.069-.344-.128-.69-.184-1.037-.075-.467-.014-.083-.002.01-.036-.281-.066-.562-.091-.844-.215-2.383-.103-4.818.107-7.196.513-5.831,2.59-11.365,6.238-15.965,6.385-8.051,16.104-12.715,25.412-16.519,9.18-3.752,18.718-6.601,28.378-8.819,20.931-4.807,42.501-6.714,63.952-6.659s42.764,2.056,63.636,6.588c9.485,2.06,18.872,4.652,27.981,8.013,8.079,2.981,15.684,7.024,21.711,13.655,3.139,3.454,5.677,7.535,6.898,12.066,1.229,4.56.98,9.594.123,14.206-.801,4.307-2.355,8.316-4.82,11.943-2.65,3.9-6.247,7.163-10.034,9.935-4.193,3.069-8.707,5.682-13.391,7.923-3.013,1.442-5.021,2.283-8.082,3.436-3.288,1.239-6.629,2.337-10.003,3.318-18.677,5.431-38.234,7.52-57.608,8.358-6.414.277-12.834.397-19.254.4-3.089.002-3.094,4.802,0,4.8,22.704-.011,45.686-1.333,67.899-6.308,13.007-2.914,25.994-7.19,37.432-14.157,6.982-4.253,13.713-9.53,18.027-16.585,2.466-4.033,4.018-8.592,4.708-13.26.78-5.28.985-10.776-.556-15.941-2.897-9.712-10.603-17.411-19.057-22.603-3.773-2.317-7.835-3.988-11.972-5.536-4.458-1.669-8.986-3.147-13.558-4.47-20.771-6.011-42.433-9.047-63.999-10.149-22.454-1.147-45.092-.1-67.277,3.623-10.383,1.743-20.679,4.109-30.704,7.34-9.86,3.178-19.963,7.023-28.67,12.713-4.645,3.036-8.819,6.718-12.052,11.25-3.775,5.292-5.693,11.416-6.197,17.863-.315,4.034-.255,8.119.914,12.022.93,3.104,2.429,6.045,4.332,8.664,4.48,6.165,10.718,10.822,17.307,14.535,8.035,4.528,16.768,7.827,25.581,10.482,20.219,6.091,41.469,9.028,62.52,10.116,5.103.264,10.211.398,15.321.402,3.089.002,3.094-4.798,0-4.8Z"/><path class="d" d="M127.399,89.045c-24.773-.034-49.545,2.443-67.816,7.058-7.671,1.938-17.611,9.017-17.611,18.517.007,13.166-.008,38.667-.008,57.327,0,21.179,27.731,25.85,38.24,27.477,15.584,2.413,30.628,3.779,47.194,3.779s31.61-1.367,47.194-3.779c10.509-1.627,38.24-6.298,38.24-27.477,0-18.661-.015-44.162-.008-57.327,0-9.5-9.94-16.58-17.611-18.517-18.27-4.615-43.043-7.092-67.816-7.058Z"/><path class="f" d="M127.399,86.645c-21.128-.015-42.56,1.426-63.245,5.923-4,.87-7.907,1.794-11.552,3.721s-6.915,4.593-9.383,7.896c-2.435,3.259-3.649,7.03-3.647,11.087.002,3.57.002,7.139.002,10.709,0,9.172-.004,18.344-.006,27.516-.001,4.594-.002,9.188-.003,13.783,0,3.754-.161,7.527.872,11.179,3.535,12.491,16.84,18.32,28.37,21.193,5.954,1.483,12.06,2.336,18.133,3.154,10.686,1.44,21.432,2.383,32.213,2.684,19.891.555,39.902-.896,59.51-4.31,5.45-.949,10.875-2.236,16.03-4.27,5.687-2.243,11.346-5.35,15.26-10.168,2.054-2.528,3.63-5.384,4.478-8.543,1.008-3.755.802-7.649.801-11.496-.001-9.295-.004-18.591-.007-27.886-.002-7.936.014-15.872,0-23.808-.016-8.444-6.135-15.177-13.321-18.872-3.679-1.891-7.628-2.788-11.644-3.652-4.669-1.004-9.376-1.823-14.101-2.512-10.675-1.558-21.433-2.507-32.209-2.978-5.514-.241-11.032-.354-16.551-.35-3.088.002-3.094,4.802,0,4.8,20.386-.015,41.025,1.319,61.006,5.546,3.651.772,7.423,1.463,10.785,3.143,3.175,1.587,6.178,3.765,8.344,6.608,1.077,1.413,1.946,3.004,2.437,4.715.454,1.582.455,3.127.454,4.758-.001,3.609-.001,7.217-.001,10.826,0,8.819.004,17.637.006,26.456.001,4.466.002,8.933.003,13.399,0,3.569.235,6.98-.701,10.286-1.48,5.23-5.396,9.202-10.074,12.022-4.884,2.945-10.1,4.665-15.759,6.017-5.709,1.365-11.555,2.194-17.369,2.962-10.405,1.374-20.873,2.243-31.365,2.52-19.18.506-38.461-.847-57.376-4.086-5.153-.882-10.278-2.06-15.191-3.87-5.101-1.88-10.305-4.665-13.955-8.914-1.61-1.874-2.972-4.39-3.648-6.909-.888-3.308-.63-6.836-.63-10.413.001-9.032.004-18.063.007-27.095.002-7.825.005-15.65.001-23.475,0-1.661.05-3.2.549-4.801.513-1.647,1.396-3.202,2.461-4.554,2.242-2.848,5.278-5.023,8.517-6.597,3.389-1.647,7.218-2.315,10.88-3.081,4.565-.955,9.165-1.74,13.782-2.401,10.194-1.46,20.482-2.298,30.768-2.734,5.353-.227,10.711-.333,16.068-.329,3.089.002,3.094-4.798,0-4.8Z"/><path class="e" d="M54.261,131.775c6.626,2.652,13.557,4.551,20.515,6.096,10.803,2.4,21.819,3.877,32.852,4.678,13.424.975,26.947.954,40.372.001,10.432-.74,20.854-2.079,31.075-4.32,7.302-1.601,14.518-3.673,21.463-6.455,1.202-.482,2.047-1.602,1.676-2.952-.314-1.142-1.742-2.161-2.952-1.676-14.925,5.979-31.031,8.86-46.986,10.265-24.287,2.138-49.215,1.387-73.142-3.511-8.005-1.639-15.999-3.713-23.596-6.754-1.204-.482-2.636.526-2.952,1.676-.376,1.368.468,2.469,1.676,2.952h0Z"/><path class="h" d="M69.844,86.826c.952-5.84,4.465-11.3,10.595-15.445,5.53-3.74,12.555-6.255,19.889-7.808,8.834-1.87,17.928-2.398,27.071-2.398s18.237.529,27.071,2.398c7.334,1.552,14.359,4.068,19.889,7.808,7.271,4.918,10.861,11.685,10.861,18.743,0,5.908-3.589,11.571-10.861,15.687-5.53,3.13-12.555,5.236-19.889,6.535-8.834,1.565-17.928,2.007-27.071,2.007s-18.237-.442-27.071-2.007c-7.334-1.299-14.359-3.405-19.889-6.535-7.271-4.116-10.861-9.78-10.861-15.687,0-1.108.089-2.21.266-3.298Z"/><path class="f" d="M72.159,87.464c1.367-7.954,7.314-13.327,14.275-16.777,8.269-4.098,17.706-5.801,26.83-6.574,9.841-.834,19.889-.817,29.721.131,9.044.872,18.398,2.721,26.491,7.013,6.538,3.467,12.397,9.074,13.239,16.794.344,3.159-.209,6.081-1.906,8.812-2.02,3.252-5.206,5.583-8.539,7.357-7.959,4.236-17.268,5.965-26.153,6.886-9.914,1.027-19.996,1.103-29.945.578-9.495-.501-19.128-1.737-28.103-5.011-6.635-2.42-14.211-6.62-15.845-14.106-.351-1.61-.321-3.413-.066-5.101.193-1.28-.322-2.58-1.676-2.952-1.134-.312-2.757.387-2.952,1.676-3.207,21.218,23.017,27.548,38.99,29.475,10.609,1.28,21.442,1.383,32.105.819,10.306-.545,20.916-1.857,30.587-5.638,7.737-3.026,15.963-8.169,17.955-16.851,1.853-8.073-1.984-16.541-7.982-21.883-7.178-6.393-16.925-9.54-26.212-11.276-10.575-1.978-21.444-2.312-32.175-1.956-10.347.343-20.93,1.537-30.713,5.085-8.368,3.036-16.896,8.028-20.733,16.458-.844,1.853-1.477,3.758-1.822,5.766-.219,1.276.34,2.585,1.676,2.952,1.155.317,2.732-.392,2.952-1.676Z"/><path class="i" d="M58.333,89.597c1.515-1.027,3.068-1.616,5.189-.912,4.574,1.517,7.83,6.885,9.614,11.066,1.175,2.753,1.877,5.786,1.443,8.747-1.017,6.928-8.58,9.59-14.762,8.948-8.638-.897-12.823-8.871-9.766-16.9,1.3-3.414,3.559-6.348,6.066-8.964.716-.748,1.419-1.447,2.215-1.986Z"/><path class="i" d="M83.987,98.735c1.515-1.027,3.068-1.616,5.189-.912,4.574,1.517,7.83,6.885,9.614,11.066,1.175,2.753,1.877,5.786,1.443,8.747-1.017,6.928-8.58,9.59-14.762,8.948-8.638-.897-12.823-8.871-9.766-16.9,1.3-3.414,3.559-6.348,6.066-8.964.716-.748,1.419-1.447,2.215-1.986Z"/><path class="i" d="M110.522,102.178c1.515-1.027,3.068-1.616,5.189-.912,4.574,1.517,7.83,6.885,9.614,11.066,1.175,2.753,1.877,5.786,1.443,8.747-1.017,6.928-8.58,9.59-14.762,8.948-8.638-.897-12.823-8.871-9.766-16.9,1.3-3.414,3.559-6.348,6.066-8.964.716-.748,1.419-1.447,2.215-1.986Z"/><path class="i" d="M196.464,89.597c-1.515-1.027-3.068-1.616-5.189-.912-4.574,1.517-7.83,6.885-9.614,11.066-1.175,2.753-1.877,5.786-1.443,8.747,1.017,6.928,8.58,9.59,14.762,8.948,8.638-.897,12.823-8.871,9.766-16.9-1.3-3.414-3.559-6.348-6.066-8.964-.716-.748-1.419-1.447-2.215-1.986Z"/><path class="i" d="M170.811,98.735c-1.515-1.027-3.068-1.616-5.189-.912-4.574,1.517-7.83,6.885-9.614,11.066-1.175,2.753-1.877,5.786-1.443,8.747,1.017,6.928,8.58,9.59,14.762,8.948,8.638-.897,12.823-8.871,9.766-16.9-1.3-3.414-3.559-6.348-6.066-8.964-.716-.748-1.419-1.447-2.215-1.986Z"/><path class="i" d="M144.275,102.178c-1.515-1.027-3.068-1.616-5.189-.912-4.574,1.517-7.83,6.885-9.614,11.066-1.175,2.753-1.877,5.786-1.443,8.747,1.017,6.928,8.58,9.59,14.762,8.948,8.638-.897,12.823-8.871,9.766-16.9-1.3-3.414-3.559-6.348-6.066-8.964-.716-.748-1.419-1.447-2.215-1.986Z"/><path class="f" d="M59.545,91.67c.944-.62,1.781-1.064,2.923-.794,1.055.25,2.054.876,2.876,1.567,1.876,1.578,3.256,3.643,4.409,5.785,2.175,4.044,4.217,10.027.579,13.769-2.735,2.813-7.503,3.704-11.293,2.918-4.041-.838-7.058-3.836-7.524-7.911-.309-2.699.472-5.364,1.754-7.718.771-1.415,1.688-2.747,2.724-3.981,1.056-1.258,2.21-2.673,3.551-3.636,1.052-.754,1.559-2.091.861-3.284-.608-1.039-2.225-1.62-3.284-.861-2.996,2.149-5.575,5.29-7.477,8.432-1.779,2.939-2.976,6.304-2.988,9.768-.021,6.143,3.789,11.487,9.617,13.422,5.494,1.824,12.4.654,16.801-3.143,5.688-4.908,4.374-12.926,1.452-18.961-2.991-6.178-9.929-14.425-17.406-9.517-2.572,1.688-.17,5.846,2.423,4.145Z"/><path class="f" d="M85.198,100.807c.944-.62,1.781-1.064,2.923-.794,1.055.25,2.054.876,2.876,1.567,1.876,1.578,3.256,3.643,4.409,5.785,2.175,4.044,4.217,10.027.579,13.769-2.735,2.813-7.503,3.704-11.293,2.918-4.041-.838-7.058-3.836-7.524-7.911-.309-2.699.472-5.364,1.754-7.718.771-1.415,1.688-2.747,2.724-3.981,1.056-1.258,2.21-2.673,3.551-3.636,1.052-.754,1.559-2.091.861-3.284-.608-1.039-2.225-1.62-3.284-.861-2.996,2.149-5.575,5.29-7.477,8.432-1.779,2.939-2.976,6.304-2.988,9.768-.021,6.143,3.789,11.487,9.617,13.422,5.494,1.824,12.4.654,16.801-3.143,5.688-4.908,4.374-12.926,1.452-18.961-2.991-6.178-9.929-14.425-17.406-9.517-2.572,1.688-.17,5.846,2.423,4.145Z"/><path class="f" d="M111.734,104.251c.944-.62,1.781-1.064,2.923-.794,1.055.25,2.054.876,2.876,1.567,1.876,1.578,3.256,3.643,4.409,5.785,2.175,4.044,4.217,10.027.579,13.769-2.735,2.813-7.503,3.704-11.293,2.918-4.041-.838-7.058-3.836-7.524-7.911-.309-2.699.472-5.364,1.754-7.718.771-1.415,1.688-2.747,2.724-3.981,1.056-1.258,2.21-2.673,3.551-3.636,1.052-.754,1.559-2.091.861-3.284-.608-1.039-2.225-1.62-3.284-.861-2.996,2.149-5.575,5.29-7.477,8.432-1.779,2.939-2.976,6.304-2.988,9.768-.021,6.143,3.789,11.487,9.617,13.422,5.494,1.824,12.4.654,16.801-3.143,5.688-4.908,4.374-12.926,1.452-18.961-2.991-6.178-9.929-14.425-17.406-9.517-2.572,1.688-.17,5.846,2.423,4.145Z"/><path class="f" d="M197.675,87.525c-6.666-4.376-13.136,1.924-16.343,7.503-3.374,5.869-5.632,13.773-.945,19.579,3.702,4.586,10.369,5.947,15.949,5.062,5.939-.942,10.729-5.571,11.607-11.556.547-3.726-.285-7.36-1.978-10.695-1.889-3.724-4.889-7.454-8.291-9.894-1.054-.756-2.672-.184-3.284.861-.706,1.208-.195,2.526.861,3.284,2.296,1.646,4.305,4.31,5.755,6.71,1.257,2.08,2.225,4.401,2.323,6.857.16,4.016-1.96,7.858-5.925,9.229-3.849,1.331-8.808.834-12.073-1.675-4.027-3.095-3.075-8.703-1.134-12.869,1.167-2.504,2.602-4.952,4.602-6.882.853-.823,1.835-1.564,2.954-1.983,1.381-.518,2.311-.165,3.499.614,2.59,1.7,4.997-2.455,2.423-4.145Z"/><path class="f" d="M172.022,96.662c-6.666-4.376-13.136,1.924-16.343,7.503-3.374,5.869-5.632,13.773-.945,19.579,3.702,4.586,10.369,5.947,15.949,5.062,5.939-.942,10.729-5.571,11.607-11.556.547-3.726-.285-7.36-1.978-10.695-1.889-3.724-4.889-7.454-8.291-9.894-1.054-.756-2.672-.184-3.284.861-.706,1.208-.195,2.526.861,3.284,2.296,1.646,4.305,4.31,5.755,6.71,1.257,2.08,2.225,4.401,2.323,6.857.16,4.016-1.96,7.858-5.925,9.229-3.849,1.331-8.808.834-12.073-1.675-4.027-3.095-3.075-8.703-1.134-12.869,1.167-2.504,2.602-4.952,4.602-6.882.853-.823,1.835-1.564,2.954-1.983,1.381-.518,2.311-.165,3.499.614,2.59,1.7,4.997-2.455,2.423-4.145Z"/><path class="f" d="M145.486,100.106c-6.666-4.376-13.136,1.924-16.343,7.503-3.374,5.869-5.632,13.773-.945,19.579,3.702,4.586,10.369,5.947,15.949,5.062,5.939-.942,10.729-5.571,11.607-11.556.547-3.726-.285-7.36-1.978-10.695-1.889-3.724-4.889-7.454-8.291-9.894-1.054-.756-2.672-.184-3.284.861-.706,1.208-.195,2.526.861,3.284,2.296,1.646,4.305,4.31,5.755,6.71,1.257,2.08,2.225,4.401,2.323,6.857.16,4.016-1.96,7.858-5.925,9.229-3.849,1.331-8.808.834-12.073-1.675-4.027-3.095-3.075-8.703-1.134-12.869,1.167-2.504,2.602-4.952,4.602-6.882.853-.823,1.835-1.564,2.954-1.983,1.381-.518,2.311-.165,3.499.614,2.59,1.7,4.997-2.455,2.423-4.145Z"/></g></svg>