<svg id="b" xmlns="http://www.w3.org/2000/svg" width="231.766" height="190.562" viewBox="0 0 231.766 190.562" style="color: initial !important;"><defs><style>.d{fill:#ffffff;}.e{fill:#211715;}.f{fill:#febe69;}</style></defs><g id="c"><path class="e" d="M230.594,186.123c-6.387-3.084-13.238-5.111-20.144-6.657-8.286-1.854-16.727-3.028-25.176-3.834-9.057-.864-18.16-1.266-27.257-1.286-4.915-.011-9.829.417-14.733.702-16.973.987-33.945,1.198-50.931.379-5.822-.281-11.636-.717-17.458-.988-7.528-.35-15.136.071-22.643.643-8.815.672-17.619,1.772-26.299,3.464-6.971,1.359-13.956,3.065-20.559,5.718-1.427.574-2.84,1.184-4.224,1.858-1.165.567-1.48,2.225-.861,3.284.696,1.189,2.114,1.431,3.284.861,5.687-2.77,12.101-4.543,18.358-5.976,8.151-1.867,16.442-3.106,24.76-3.925,8.546-.842,17.206-1.379,25.797-1.211,5.003.098,10.004.538,14.998.819,16.783.941,33.567,1.024,50.356.172,5.62-.285,11.234-.723,16.857-.944,7.677-.301,15.443.106,23.102.625,8.454.572,16.893,1.501,25.23,3.028,7.198,1.318,14.39,3.035,21.217,5.706,1.324.518,2.622,1.089,3.902,1.707,1.167.563,2.593.319,3.284-.861.615-1.051.311-2.718-.861-3.284h0Z"/><path class="d" d="M92.232,176.876c.043,4.402-4.936,8.807-13.779,8.807-9.166,0-13.615-4.566-13.603-9.131.043-16.619.23-47.696-.951-69.745-.125-2.341-.772-4.799-1.252-7.247-3.395-10.004-10.475-12.095-19.387-11.863-5.53.144-10.21-.609-13.207-6.344-.811-1.553-1.207-3.288-1.36-5.034-.332-3.778.459-7.209,2.085-10.103,2.6-4.626,7.731-7.878,13.437-8.982,10.222-1.977,21.347-1.351,30.155,4.784,6.302,4.389,10.912,9.476,13.065,19.525,2.788,13.016,3.042,26.678,3.51,39.937.609,17.237,1.16,42.362,1.287,55.395Z"/><path class="e" d="M91.927,158.139c.087,4.115.153,8.022.218,11.525-2.63-.96-4.246-4.693-4.595-7.138-.327-2.347.709-5.664,3.787-4.377l.589-.011Z"/><path class="e" d="M69.499,152.333c-.426,1.757-1.615,2.958-3.482,2.838h-1.146c.011-3.907-.011-8-.044-12.147h.087c1.604.033,2.969,1.353,3.689,2.728.578,1.102.851,2.347.993,3.58.109,1.004.142,2.03-.098,3.001Z"/><path class="e" d="M81.69,120.289c.655,1.135.873,2.554.688,3.809-.295,1.997-2.172,3.176-4.104,2.816-1.342-.262-2.052-1.517-2.488-2.75-.437-1.211-.622-2.565-.207-3.787.404-1.19,1.55-2.248,2.87-2.248,1.244,0,2.357.578,3.241,2.161Z"/><path class="e" d="M65.493,93.779c2.085,1.583,3.023,4.224,2.434,6.788-.382,1.615-1.91,3.678-3.569,3.634l-.753.12c-.262-1.561-.644-3.165-.96-4.758-.742-2.172-1.648-3.973-2.718-5.457l.688-.502c1.113-1.07,3.809-.644,4.879.175Z"/><path class="e" d="M86.743,78.772l-.055.011c-3.089-.698-5.708-1.441-7.411-4.005-1.397-2.106-1.19-6.188.524-8.262,3.034,3.089,5.402,6.876,6.941,12.256Z"/><path class="f" d="M133.855,2.83c-6.437-.788-13.128-.464-18.444.564-5.706,1.103-10.443,4.356-13.043,8.982-1.627,2.894-2.417,6.325-2.085,10.103.153,1.745.549,3.481,1.36,5.033,2.996,5.735,9.258,6.488,14.788,6.344,7.675-.2,16.015-1.02,20.263,7.201,1.138,2.202,1.687,4.654,1.789,7.131.19,4.625.693,13.657.794,15.546,1.273,23.767.906,113.523.906,113.523,0,4.219,4.49,8.827,13.661,8.827,8.848,0,13.787-4.547,13.787-8.807,0,0-.699-81.631-1.308-98.868-.468-13.259-.722-37.69-3.51-50.705-2.153-10.05-6.763-15.136-13.065-19.525-4.228-2.944-9.952-4.62-15.893-5.347Z"/><path class="d" d="M162.813,27.703c-.327-1.524-.716-2.922-1.153-4.232-7.697,6.883-15.793,12.913-24.662,18.279.915,2.021,1.393,4.215,1.485,6.438.033.802.076,1.742.124,2.749,8.887-5.148,17.3-11.132,25.152-17.759-.278-1.978-.591-3.819-.946-5.475Z"/><path class="d" d="M166.089,70.784c-.099-3.41-.208-7.133-.353-10.974-.404.197-.796.439-1.155.761-7.746,6.961-15.892,13.049-24.821,18.465.062,3.102.116,6.45.164,9.971.161-.068.323-.125.48-.214,9.084-5.193,17.672-11.271,25.685-18.008Z"/><path class="d" d="M166.878,107.647c-.054-3.879-.108-7.588-.164-11.026-.523.207-1.023.516-1.479.925-7.819,7.027-16.049,13.162-25.078,18.616.017,3.335.03,6.674.04,9.979.292-.093.58-.213.86-.374,9.135-5.222,17.768-11.338,25.82-18.12Z"/><path class="d" d="M165.49,134.868c-7.871,7.073-16.161,13.242-25.26,18.723-.002,3.626-.006,6.963-.011,9.924.371-.095.739-.223,1.094-.426,9.205-5.262,17.901-11.431,26.005-18.275-.037-3.536-.077-7.21-.118-10.939-.606.203-1.189.524-1.71.993Z"/><path class="e" d="M41.999,73.573c-.586-2.13-.025-6.964,3.966-7.241,5.259.21,5.371,6.081,3.521,8.777-1.514,2.207-5.804,3.001-7.487-1.536Z"/><path class="e" d="M115.169,19.732c-.586-2.13-.025-6.964,3.966-7.241,5.259.21,5.371,6.081,3.521,8.777-1.514,2.207-5.804,3.001-7.487-1.536Z"/><path class="e" d="M62.312,95.303c.181-.16.109-.105-.216.164.066-.042.134-.081.204-.116-.393.155-.472.19-.236.105l.119-.036c.082-.023.165-.043.248-.06.253-.044.17-.035-.248.028.113.018.29-.02.406-.022.185-.002.368.014.553.023.498.024-.571-.123-.089-.01.306.072.6.148.899.242.405.127-.562-.29-.024,0,.092.049.182.13.276.168-.317-.251-.367-.289-.15-.113.082.069.163.14.242.214.117.109.231.222.34.339.068.073.4.569.22.243-.191-.346.134.212.173.274.097.155.187.315.27.478.036.069.071.14.104.211.107.237.087.19-.058-.141.054-.013.296.995.307,1.052.12.59-.056.024.011-.016-.026.016.037.571.038.632.002.16-.002.319-.012.479-.006.107-.015.214-.027.32.054-.371.059-.423.016-.157-.031.15-.059.3-.098.449-.039.147-.178.382-.174.528.142-.327.175-.406.098-.239-.031.068-.063.134-.098.2-.092.18-.193.355-.303.524l-.084.127c-.149.208-.114.169.104-.117-.018-.006-.363.411-.402.45-.078.077-.298.206-.328.296.298-.224.345-.265.139-.123-.058.038-.118.074-.18.107-.452.305.415-.076.014-.005-.656.118.425-.002-.009.001-1.255.01-2.458,1.097-2.4,2.4.058,1.292,1.055,2.411,2.4,2.4,3.887-.032,6.301-4.393,6.136-7.879-.163-3.439-2.33-7.041-5.832-7.902-1.985-.488-4.169-.324-5.744,1.086-.938.84-.919,2.55,0,3.394,1.002.92,2.393.896,3.394,0h0Z"/><path class="e" d="M78.104,64.819c-2.347,2.937-2.875,7.365-1.146,10.745,1.756,3.433,5.591,4.739,9.092,5.534,1.222.278,2.656-.373,2.952-1.676.278-1.221-.367-2.655-1.676-2.952-.716-.163-1.431-.33-2.137-.535-.335-.097-.668-.202-.996-.319-.133-.047-.365-.088-.478-.181.313.135.35.15.11.044l-.151-.07c-.299-.141-.591-.297-.872-.471-.14-.086-.274-.183-.412-.271-.432-.276.311.294-.038-.029-.25-.231-.499-.454-.726-.709-.077-.087-.153-.176-.226-.266l.158.203c-.13-.111-.231-.328-.319-.476-.071-.121-.122-.263-.2-.378-.105-.154.164.531.02.024-.086-.301-.165-.597-.239-.901-.133-.545.007.224-.011-.001-.013-.165-.031-.328-.04-.493-.017-.335-.016-.67.004-1.005.01-.169.029-.336.044-.504.02-.221-.091.532.016-.027.062-.326.143-.648.244-.963.049-.154.119-.304.163-.458.056-.194-.253.455.018-.004.078-.133.145-.272.226-.403.086-.139.451-.608.015-.062.782-.979,1.028-2.451,0-3.394-.87-.799-2.557-1.047-3.394,0h0Z"/><path class="e" d="M64.915,145.423c.546.027-.31-.113-.027-.01.094.034.352.038.419.123-.126-.159-.351-.17-.017.019.047.026.381.209.375.239.003-.013-.35-.312-.065-.038.109.105.22.206.324.316.095.1.236.215.299.34-.13-.257-.163-.219-.005.022.153.233.285.477.411.725.304.6-.114-.403.095.236.045.139.094.277.136.418.105.351.189.709.258,1.069.035.18.061.362.092.543.065.394-.045-.561.008.122.026.324.053.648.059.973.003.18.003.36-.005.54-.003.062-.06.645-.016.322.043-.316-.073.315-.072.313-.033.135-.071.269-.114.401-.143.437.038-.049.037-.049.01.007-.129.254-.142.277-.059.104-.152.212-.202.321-.106.231.353-.343.048-.085-.075.063-.405.304-.081.102.346-.216-.072.026-.115.056-.29.207.102-.104.176-.055-.013-.008-.317.097-.36.11-.513.16.095-.027.093-.001-.002.022-.487.001-.507,0-1.256-.054-2.456,1.142-2.4,2.4.06,1.346,1.055,2.342,2.4,2.4,1.989.085,3.786-.863,4.891-2.504,1.073-1.593,1.294-3.651,1.111-5.52-.196-2.005-.624-4.081-1.807-5.757-1.267-1.795-3.054-3.054-5.297-3.167-1.256-.063-2.456,1.149-2.4,2.4.061,1.354,1.055,2.333,2.4,2.4h0Z"/><path class="e" d="M92.86,167.382c-.391-.142.519.276-.063-.039-.124-.067-.244-.14-.362-.218-.435-.289.013-.099.027.032-.008-.079-.365-.33-.431-.396-.105-.106-.206-.215-.304-.327-.066-.076-.131-.153-.194-.231.202.267.25.328.143.184-.172-.286-.381-.55-.551-.839-.184-.313-.351-.635-.504-.964-.033-.07-.065-.14-.096-.211-.073-.167-.043-.094.092.22.029-.067-.16-.414-.189-.496-.214-.597-.388-1.211-.502-1.836-.08-.435.012-.083.009.145.002-.162-.032-.331-.038-.494-.009-.255-.004-.51.017-.763.053-.654-.099.416-.001.004.029-.123.051-.248.083-.371.031-.121.067-.24.107-.358.203-.592-.211.355-.007.017.06-.099.118-.202.175-.302.205-.362-.398.37-.1.128.049-.054.101-.106.156-.156.183-.157.107-.1-.229.173-.001,0,.284-.158.284-.16-.408.161-.494.203-.26.128.178-.039.147-.039-.092-.002-.496.038.073.019.169.017.425-.008-.53-.159-.095-.002.198.071.401.122.598.2,1.17.465,2.686-.508,2.952-1.676.315-1.385-.424-2.454-1.676-2.952-1.693-.674-3.529-.392-4.919.775-1.119.94-1.668,2.428-1.857,3.837-.368,2.737.559,5.701,2.068,7.984,1.079,1.632,2.459,2.906,4.316,3.58,1.182.429,2.68-.481,2.952-1.676.308-1.352-.411-2.493-1.676-2.952h0Z"/><path class="e" d="M78.451,115.729c-1.434.037-2.812.635-3.8,1.682-1.048,1.11-1.534,2.443-1.681,3.943-.12,1.223.146,2.537.584,3.678s.986,2.273,1.938,3.073c2.17,1.826,5.312,1.574,7.418-.219,1.985-1.69,2.284-4.644,1.603-7.023-.381-1.331-1.139-2.728-2.202-3.64-1.11-.952-2.389-1.475-3.86-1.495-1.256-.017-2.458,1.116-2.4,2.4.059,1.315,1.054,2.382,2.4,2.4.141.002.28.02.42.023-.755-.02-.388-.059-.128.013.067.019.132.043.199.063.391.115-.481-.25-.233-.098.13.08.284.189.422.251-.424-.191-.381-.315-.214-.164.059.054.119.106.177.162.114.111.216.282.342.374-.318-.232-.26-.358-.129-.158.053.081.108.16.159.241.088.14.23.581.355.649-.146-.079-.177-.471-.074-.167.032.093.066.185.095.279.059.188.108.379.148.571.01.046.022.239.054.29-.151-.243-.05-.488-.031-.2.016.242.03.483.024.727-.004.188-.046.382-.041.569-.016-.555.073-.448.023-.253-.02.079-.037.159-.06.237-.019.064-.066.158-.076.228.064-.464.214-.446.101-.249-.076.134-.168.404-.301.49-.012.008.434-.476.158-.224-.055.05-.104.109-.158.161-.031.03-.138.146-.169.149-.025.002.545-.364.215-.174-.13.075-.26.151-.39.225-.333.19.274-.13.262-.107-.021.037-.287.094-.326.104-.074.02-.149.033-.224.052-.204.052-.293-.062.294-.034-.154-.007-.314.021-.47.017-.043-.001-.218-.028-.239-.014.025-.016.645.124.277.035-.078-.019-.166-.046-.246-.06-.176-.061-.157-.049.057.037.21.094.232.101.068.021-.065-.042-.138-.081-.204-.121-.209-.126-.011-.161.204.161-.08-.12-.235-.228-.334-.338-.158-.175.004-.179.154.2-.025-.064-.101-.149-.135-.203-.098-.157-.187-.32-.268-.486-.044-.09-.103-.186-.131-.282.004.013.227.589.101.229-.061-.175-.128-.348-.184-.525-.063-.198-.118-.398-.165-.6-.024-.101-.042-.203-.064-.304-.095-.437.027.405.008.101-.015-.232-.035-.46-.03-.692.003-.128.016-.255.023-.382.015-.299-.117.535-.003.109.026-.099.047-.199.077-.297.02-.069.042-.137.067-.204.064-.175.023-.079-.125.288.107-.132.191-.339.279-.488.149-.251-.346.398-.146.185.072-.077.139-.158.214-.232.039-.038.154-.118.186-.171-.324.241-.386.29-.185.147l.105-.068c.071-.044.147-.079.218-.123.169-.08.15-.073-.059.02-.211.085-.229.097-.053.035.029-.006.242-.065.242-.061-.008.054-.713.05-.137.035,1.254-.032,2.459-1.081,2.4-2.4-.057-1.273-1.055-2.435-2.4-2.4Z"/><path class="e" d="M89.832,176.876c-.005.592-.133,1.192-.34,1.605-.445.889-.694,1.197-1.435,1.883-1.452,1.343-3.693,2.173-5.775,2.588-4.398.875-10.428.427-13.556-2.873-.999-1.054-1.453-2.315-1.475-3.527-.039-2.088.012-4.182.018-6.27.015-5.105.024-10.209.015-15.314-.019-11.794-.115-23.591-.467-35.38-.168-5.62-.022-11.469-1.096-17.002-.583-3.002-1.334-5.815-2.913-8.466-1.24-2.081-2.852-3.871-4.808-5.298-3.668-2.674-8.347-3.462-12.79-3.537-4.265-.072-8.881.491-11.854-3.189-3.563-4.41-2.878-11.423.247-15.87,3.154-4.488,8.461-6.314,13.655-7.092,5.715-.856,11.699-.737,17.273.864,4.892,1.405,9.327,4.102,12.987,7.626,3.476,3.348,5.734,7.511,7.015,12.144,1.81,6.545,2.506,13.465,3.023,20.216.95,12.39,1.138,24.86,1.477,37.279.304,11.12.555,22.243.721,33.366.031,2.082.058,4.163.079,6.245.03,3.087,4.831,3.095,4.8,0-.108-10.992-.351-21.983-.626-32.972-.322-12.881-.591-25.786-1.306-38.652-.41-7.373-1.092-14.755-2.479-22.015-1.109-5.809-2.946-11.327-6.629-16.03-7.349-9.383-19.199-13.729-30.878-13.35-6.084.198-12.593,1.111-17.748,4.578-5.306,3.569-8.552,9.232-8.74,15.66-.184,6.273,2.758,12.591,8.842,14.948,4.591,1.778,9.785.553,14.373,1.404,4.328.804,7.592,2.941,9.711,6.969,2.759,5.243,2.497,11.739,2.71,17.508.454,12.311.577,24.633.615,36.951.017,5.548.011,11.096-.003,16.644-.006,2.315-.014,4.631-.02,6.946-.006,2.126.241,4.085,1.326,5.959,2.688,4.642,8.331,6.371,13.376,6.627,5.285.268,11.63-.945,15.185-5.239,1.408-1.7,2.271-3.708,2.291-5.937.029-3.09-4.771-3.092-4.8,0Z"/><path class="e" d="M133.855.43c-5.405-.639-10.857-.558-16.247.186-4.626.639-8.905,2.043-12.589,4.995-7.353,5.892-10.265,18.529-3.438,25.944,5.873,6.378,15.049,4.167,22.676,4.658,3.35.216,6.684,1.139,8.936,3.83,2.799,3.346,2.85,7.559,3.051,11.681.606,12.427,1.159,24.823,1.342,37.266.237,16.123.272,32.249.271,48.374,0,7.709-.014,15.418-.033,23.127-.008,3.344-.017,6.689-.026,10.033-.004,1.492-.008,2.984-.011,4.476-.003,1.447-.087,2.911.25,4.331,1.996,8.403,13.123,9.931,20.159,8.776,3.86-.634,7.698-2.436,10.061-5.64,1.883-2.553,1.773-5.372,1.757-8.383-.077-14.407-.216-28.814-.381-43.221s-.34-28.703-.657-43.051c-.307-13.881-.589-27.803-1.539-41.655-.282-4.106-.641-8.208-1.184-12.288-.53-3.984-1.167-7.989-2.529-11.787-2.705-7.54-8.326-13.92-15.472-17.593-4.494-2.31-9.418-3.428-14.398-4.058-1.288-.163-2.4,1.22-2.4,2.4,0,1.432,1.108,2.236,2.4,2.4,4.614.584,9.347,1.773,13.37,4.174,2.989,1.785,5.78,4.155,7.964,6.868,4.613,5.731,5.807,13.295,6.611,20.396,1.674,14.78,1.785,29.741,2.214,44.596.359,12.439.508,24.886.67,37.329.194,14.852.348,29.706.46,44.559.023,3.075.044,6.149.062,9.224.008,1.34.015,2.68.021,4.021.001.293.01.587.004.88-.003.142-.109.92-.013.43-.057.289-.134.572-.226.852-.143.437-.055.156-.012.058-.093.212-.208.421-.325.621-.59,1.011-1.587,1.905-2.801,2.605-1.615.93-3.477,1.46-5.32,1.695-3.711.473-7.972.117-11.18-1.963-1.094-.709-1.736-1.443-2.363-2.57-.251-.451-.046.048-.18-.438-.075-.275-.152-.541-.21-.82-.076-.365.025.39.002.022-.011-.171-.018-.341-.022-.512-.008-.351.001-.702.002-1.053.006-2.896.014-5.792.022-8.688.019-7.071.036-14.141.045-21.212.019-15.736.006-31.472-.144-47.208-.117-12.168-.23-24.352-.892-36.505-.185-3.401-.369-6.803-.538-10.205-.221-4.462-.28-8.85-2.493-12.882-1.955-3.562-5.161-6.113-9.054-7.251-3.595-1.051-7.437-.966-11.142-.855-3.463.104-7.188.323-10.439-1.114-3.951-1.747-5.408-5.703-5.337-9.81.072-4.165,1.886-8.014,4.984-10.78s7.046-3.884,11.071-4.419c5.023-.666,10.16-.639,15.187-.045,1.289.152,2.4-1.212,2.4-2.4,0-1.424-1.107-2.247-2.4-2.4Z"/></g></svg>