<svg id="b" xmlns="http://www.w3.org/2000/svg" width="200.8" height="165.615" viewBox="0 0 200.8 165.615" style="color: initial !important;"><defs><style>.d{fill:#ffffff;}.e{fill:#211715;}.f{fill:#645d5c;}</style></defs><g id="c"><path class="d" d="M146.452,119.382c7.78,10.57,1.46,27.65-6.5,36.68-3.99,4.52-10.09,8.75-16.55,6.59-5.41-1.8-8.96-6.81-11.68-11.3-1.11-1.85-1.97-3.56-2.8-5.33.32-3.61.45-7.35.45-10.83,0-12.78-.13-52.37-.13-68.88,0-2.38-.07-4.76-.24-7.15l.25-.02,2.29-1.91c10.46-10.41,26.3-20.84,42.42-24.13,11.97,13.4,27.41,23.7,44.38,29.61.17,3.44-.04,6.91-.44,10.34-1.49,12.81-5.69,26.14-14.14,36.1-5.03,5.92-11.79,10.55-19.38,12.15-6.39,1.35-12.35.35-17.92-1.92h-.01Z"/><path class="d" d="M54.352,119.382h-.01c-5.57,2.27-11.53,3.27-17.92,1.92-7.59-1.6-14.35-6.23-19.38-12.15-8.45-9.96-12.65-23.29-14.14-36.1-.4-3.43-.61-6.9-.44-10.34,16.97-5.91,32.41-16.21,44.38-29.61,16.12,3.29,31.96,13.72,42.42,24.13l2.29,1.91.23.02c-.17,2.39-.23,4.77-.23,7.15,0,16.51-.14,56.1-.14,68.88,0,3.49.13,7.24.45,10.86-.81,1.75-1.68,3.46-2.78,5.3-2.72,4.49-6.27,9.5-11.68,11.3-6.46,2.16-12.56-2.07-16.55-6.59-7.96-9.03-14.28-26.11-6.5-36.68Z"/><path class="e" d="M146.447,121.779h.01l-2.072-1.189c5.984,8.312,2.729,19.821-1.991,27.931-2.513,4.319-5.821,8.52-10.299,10.915-2.289,1.224-4.911,1.784-7.453,1.088-2.467-.676-4.527-2.242-6.263-4.074-4.654-4.91-7.188-11.342-9.982-17.383-.544-1.176-2.241-1.471-3.284-.861-1.207.706-1.407,2.103-.861,3.284,2.89,6.25,5.585,12.605,10.229,17.806,4.486,5.024,11.104,7.875,17.686,5.348,5.902-2.266,10.359-7.24,13.642-12.49,3.223-5.155,5.509-11.008,6.304-17.046.423-3.209.384-6.453-.324-9.623-.363-1.626-.943-3.203-1.674-4.698-.714-1.461-1.798-3.808-3.667-3.808-3.089,0-3.094,4.8,0,4.8h0Z"/><path class="e" d="M162.813,32.034c6.257-.174,12.416.934,18.174,3.749,8.11,3.959,14.282,10.983,16.383,19.834.553,2.33.856,4.704.974,7.094-16.971-5.906-32.419-16.218-44.388-29.626,2.953-.605,5.916-.97,8.857-1.052Z"/><path class="e" d="M110.946,60.842c4.587-3.825,8.772-8.03,13.642-11.531,6.159-4.428,12.846-8.269,19.951-10.96,13.272-5.026,29.574-6.321,41.224,3.276,5.728,4.719,9.219,11.263,9.995,18.646.898,8.544-.496,17.489-2.825,25.714-4.195,14.813-14.128,30.682-30.585,33.255-4.219.66-8.53.108-12.57-1.195-.487-.157-.971-.324-1.451-.501-.131-.048-1.134-.452-.667-.24-.104-.047-.205-.1-.306-.152-.607-.308-1.214-.615-1.817-.931-6.162-3.219-12.149-6.794-17.922-10.664-2.019-1.354-4.009-2.751-5.969-4.188-1.046-.767-2.677-.176-3.284.861-.712,1.217-.188,2.515.861,3.284,6.856,5.024,14.082,9.55,21.551,13.605,1.454.789,2.911,1.601,4.41,2.303,3.672,1.72,7.875,2.636,11.911,2.846,9.078.474,17.76-3.417,24.434-9.386,6.45-5.769,10.948-13.474,14.007-21.494,3.196-8.379,4.962-17.533,5.239-26.493.275-8.894-1.696-17.48-7.409-24.453-4.962-6.056-12.229-10.103-19.822-11.797-7.81-1.742-15.96-1.115-23.648.931-7.931,2.111-15.492,5.683-22.434,10.029-3.421,2.141-6.699,4.5-9.852,7.017-2.764,2.207-5.248,4.676-7.889,7.013-.704.623-1.447,1.207-2.17,1.809-.996.831-.858,2.536,0,3.394.986.986,2.395.833,3.394,0h0Z"/><path class="e" d="M93.253,57.448c-1.982-1.652-3.809-3.435-5.729-5.158-2.92-2.621-6.002-5.068-9.196-7.346-6.689-4.77-13.971-8.75-21.7-11.56-14.947-5.435-32.54-5.644-45.259,5.082C4.914,43.909,1.273,51.493.3,59.803c-.563,4.806-.27,9.679.35,14.464.568,4.388,1.388,8.736,2.594,12.996,4.574,16.152,15.53,33.202,33.241,36.487,6.962,1.291,14.284.19,20.576-3.054s12.449-6.911,18.357-10.861c2.086-1.395,4.14-2.835,6.164-4.318,1.044-.765,1.563-2.083.861-3.284-.602-1.03-2.232-1.632-3.284-.861-6.633,4.862-13.614,9.252-20.823,13.207-1.614.886-3.243,1.742-4.885,2.575-.099.05-.199.103-.3.149.411-.186-.361.126-.467.166-.616.231-1.238.448-1.865.646-1.95.616-3.965,1.09-6.005,1.276-17.083,1.557-29.592-13.056-35.064-27.665-2.901-7.744-4.583-16.089-4.904-24.353-.308-7.942,1.136-15.912,6.45-22.085,4.669-5.425,11.164-8.823,18.141-10.199,7.134-1.407,14.564-.521,21.493,1.48,7.327,2.116,14.228,5.511,20.648,9.601,3.099,1.974,6.095,4.115,8.946,6.434,2.515,2.046,4.782,4.334,7.21,6.468.692.608,1.417,1.181,2.124,1.771.995.829,2.419.975,3.394,0,.853-.853,1-2.56,0-3.394h0Z"/><path class="e" d="M198.983,60.399c-16.617-5.821-31.582-15.902-43.33-29.003-2.067-2.305-5.452,1.099-3.394,3.394,9.501,10.594,21.12,19.333,33.953,25.488,3.739,1.794,7.582,3.378,11.495,4.749,1.223.429,2.626-.487,2.952-1.676.364-1.324-.449-2.522-1.676-2.952h0Z"/><path class="e" d="M52.661,117.672c-1.93,1.93-3.065,5.217-3.645,7.814-.626,2.802-.754,5.71-.455,8.561.638,6.079,2.776,11.956,5.884,17.204,3.002,5.07,7.128,10.101,12.543,12.686,3.211,1.533,6.756,2.159,10.25,1.272,3.074-.781,5.829-2.622,8.063-4.832,5.301-5.245,8.188-12.239,11.252-18.886.542-1.176.333-2.585-.861-3.284-1.035-.605-2.738-.322-3.284.861-2.448,5.31-4.693,10.734-8.287,15.406-3.193,4.152-7.841,7.575-13.29,5.864-4.872-1.529-8.624-5.863-11.315-10.016-2.843-4.387-4.927-9.281-5.879-14.433-.47-2.543-.612-5.229-.244-7.795.191-1.33.54-2.659,1.019-3.914.206-.541.458-1.062.732-1.572.161-.299.331-.593.509-.882.086-.14.876-1.135.402-.661,2.187-2.187-1.206-5.582-3.394-3.394h0Z"/><path class="e" d="M37.992,32.034c-6.257-.174-12.416.934-18.174,3.749-8.11,3.959-14.282,10.983-16.383,19.834-.553,2.33-.856,4.704-.974,7.094,16.971-5.906,32.419-16.218,44.388-29.626-2.953-.605-5.916-.97-8.857-1.052Z"/><path class="e" d="M35.877,71.999c-2.874,0-4.86-2.219-4.86-4.815,0-2.905,2.029-4.906,4.861-4.906,2.941,0,4.861,2.019,4.861,4.906,0,2.614-1.997,4.815-4.861,4.815Z"/><path class="e" d="M35.877,69.599c-.142-.002-.283-.013-.424-.016-.507-.014.58.13.094.014-.216-.051-.43-.094-.641-.164-.068-.023-.169-.075-.244-.087.533.088.36.162.109.032-.224-.116-.417-.276-.635-.398.548.305.277.218.106.06-.06-.056-.119-.113-.176-.171-.081-.084-.156-.2-.246-.273.403.328.251.36.117.144-.119-.192-.231-.384-.342-.581-.091-.162-.068-.342.091.236-.044-.158-.116-.311-.162-.469-.058-.201-.078-.413-.135-.613.175.616.04.421.038.195,0-.107-.01-.215-.011-.322,0-.223.046-.453.038-.674.025.633-.055.373-.003.126.03-.144.067-.286.11-.427.03-.099.066-.195.098-.293.145-.442-.275.53-.05.128.097-.173.185-.348.296-.514.343-.516-.36.388.057-.065.079-.085.161-.168.246-.247.154-.142.461-.276-.128.078.167-.1.32-.223.491-.319.1-.056.222-.098.317-.162-.469.318-.417.155-.184.082.217-.067.429-.138.652-.186.074-.016.174-.022.248-.047-.427.052-.512.065-.255.037.087-.008.175-.014.262-.018.224-.01.45-.008.674.007.253.017.496.165-.118-.028.076.024.174.03.25.046.223.046.436.117.653.181.22.065.326.236-.185-.086.114.072.247.12.365.187.084.048.166.098.246.151.212.14.29.347-.118-.103.125.139.285.251.413.39.415.447-.293-.459.049.05.13.194.235.398.341.606.207.405-.193-.574-.063-.134.023.077.052.153.075.23.071.237.088.494.162.727-.01-.03-.055-.641-.04-.254.005.132.018.264.021.396.002.11.002.22-.003.33-.01.25-.163.614.031-.063-.069.242-.095.493-.172.735-.037.115-.099.234-.126.351l.143-.347c-.035.074-.071.148-.11.221-.116.219-.269.409-.393.621.33-.562.212-.272.062-.11-.083.09-.171.177-.261.26-.179.165-.43.224.106-.061-.105.056-.207.146-.308.21-.106.066-.216.129-.327.186-.075.039-.151.076-.228.11l.337-.143c-.242.024-.507.172-.752.224l-.131.026c-.255.042-.177.033.234-.028-.169-.025-.387.027-.561.029-1.255.016-2.459,1.092-2.4,2.4.058,1.287,1.055,2.417,2.4,2.4,3.189-.041,5.974-2.013,6.944-5.073.832-2.625.058-5.933-2.094-7.718-2.366-1.963-5.823-2.277-8.529-.805-2.775,1.51-3.913,4.718-3.447,7.721.537,3.461,3.725,5.831,7.125,5.874,1.256.016,2.458-1.115,2.4-2.4-.059-1.314-1.054-2.383-2.4-2.4Z"/><path class="e" d="M3.098,65.028c13.536-4.742,26.055-12.087,36.786-21.608,3.052-2.707,5.939-5.592,8.662-8.629,2.057-2.294-1.327-5.7-3.394-3.394-11.748,13.101-26.713,23.181-43.33,29.003-1.223.428-2.037,1.641-1.676,2.952.326,1.186,1.723,2.107,2.952,1.676h0Z"/><path class="e" d="M107.071,48.769c.437-5.842,1.768-11.868,3.351-17.698,1.706-6.283,3.771-12.634,6.993-18.322,1.789-3.158,4.167-6.046,7.071-8.25,1.031-.782,1.571-2.069.861-3.284-.594-1.015-2.245-1.649-3.284-.861-3.057,2.32-5.763,5.124-7.831,8.368-1.772,2.78-3.136,5.803-4.377,8.85-2.717,6.672-4.665,13.69-6.073,20.749-.688,3.448-1.25,6.939-1.512,10.447-.097,1.294,1.172,2.4,2.4,2.4,1.379,0,2.303-1.102,2.4-2.4h0Z"/><path class="e" d="M98.534,48.769c-.488-6.527-1.887-13.024-3.618-19.324-1.848-6.727-4.13-13.584-7.675-19.628-2.168-3.697-5.091-6.876-8.5-9.463-1.033-.784-2.685-.163-3.284.861-.721,1.232-.175,2.497.861,3.284,5.08,3.856,8.101,9.493,10.385,15.31,2.508,6.387,4.348,13.063,5.69,19.789.635,3.184,1.105,6.025,1.34,9.171.097,1.293,1.034,2.4,2.4,2.4,1.224,0,2.497-1.1,2.4-2.4h0Z"/><path class="f" d="M100.394,48.769c-2.623,0-5.146,1.179-6.502,3.138-1.07,1.546-1.763,3.37-1.937,5.162-.301,3.1-.407,6.168-.407,9.24,0,16.509-.132,56.099-.132,68.882,0,3.807.158,7.941.539,11.858.174,1.792.975,6.29,1.937,7.905,1.541,2.587,3.633,4.65,6.502,4.65,2.622,0,5.146-2.692,6.502-4.65,1.07-1.546,1.763-6.113,1.937-7.905.381-3.917.539-8.051.539-11.858,0-12.784-.132-52.373-.132-68.882,0-3.072-.106-6.14-.407-9.24-.174-1.792-.867-3.616-1.937-5.162-1.356-1.959-3.723-3.138-6.502-3.138Z"/><path class="e" d="M100.394,46.369c-5.622.126-9.846,4.127-10.704,9.648-.712,4.578-.54,9.298-.544,13.919-.006,7.435-.023,14.87-.041,22.305-.033,14.393-.119,28.786-.089,43.179.011,5.14.119,10.4,1.124,15.458.843,4.242,2.778,8.606,7.011,10.432,4.744,2.046,9.634-1.271,11.98-5.41.953-1.682,1.335-3.724,1.657-5.607.385-2.255.585-4.532.729-6.814.447-7.065.251-14.182.236-21.258-.017-8.062-.038-16.123-.057-24.185-.019-7.888-.038-15.775-.049-23.663-.005-3.334.031-6.671-.022-10.005-.084-5.297.101-11.94-4.428-15.638-1.946-1.589-4.308-2.311-6.803-2.362-3.09-.063-3.09,4.737,0,4.8,1.78.036,3.487.634,4.55,2.13,1.52,2.138,1.608,4.661,1.747,7.185.204,3.69.148,7.39.152,11.084.008,7.117.024,14.234.04,21.351.032,13.692.08,27.384.087,41.076.002,4.489-.085,8.998-.582,13.463-.055.498-.035.335-.108.802s-.149.929-.235,1.391c-.178.948-.383,1.896-.668,2.818-.402,1.3-1.503,2.679-2.81,3.727-1.377,1.105-2.817,1.336-4.301.279-1.351-.962-2.35-2.574-2.746-3.823-1.342-4.233-1.454-8.021-1.617-12.531-.224-6.197-.082-12.419-.068-18.619.016-7.479.035-14.958.053-22.437.018-7.523.036-15.046.048-22.569.005-2.965.009-5.93.01-8.896,0-2.293.017-4.584.137-6.874.133-2.55.208-5.041,1.64-7.248,1.026-1.582,2.842-2.27,4.67-2.311,3.084-.069,3.095-4.869,0-4.8Z"/><path class="e" d="M164.911,71.999c2.874,0,4.86-2.219,4.86-4.815,0-2.905-2.029-4.906-4.861-4.906-2.941,0-4.861,2.019-4.861,4.906,0,2.614,1.997,4.815,4.861,4.815Z"/><path class="e" d="M164.911,74.399c3.191-.041,5.976-2.018,6.945-5.08.885-2.796-.064-6.114-2.389-7.91-2.346-1.813-5.767-2.036-8.351-.563-2.715,1.547-3.792,4.709-3.33,7.683.537,3.461,3.726,5.827,7.125,5.87,1.256.016,2.458-1.115,2.4-2.4-.059-1.314-1.054-2.383-2.4-2.4-.141-.002-.282-.012-.423-.016-.506-.014.581.129.096.015-.215-.051-.429-.094-.64-.163-.068-.022-.169-.075-.244-.087.526.082.365.165.109.033-.223-.116-.417-.277-.635-.396.541.294.281.223.106.061-.06-.055-.119-.113-.176-.171-.081-.083-.157-.201-.246-.273.399.319.253.363.117.144-.12-.192-.232-.384-.343-.581-.09-.161-.071-.345.09.236-.044-.159-.116-.311-.162-.47-.058-.202-.078-.415-.136-.615.175.613.039.42.038.192,0-.108-.01-.216-.011-.324,0-.217.047-.445.035-.66.036.614-.061.395-.009.135.028-.141.062-.282.102-.42.028-.097.063-.192.091-.289.131-.44-.271.538-.063.134.089-.173.174-.345.278-.509.051-.08.112-.156.161-.237.153-.253-.423.479-.126.174.157-.161.339-.31.489-.474-.417.454-.325.241-.118.103.064-.042.13-.083.196-.122.101-.059.206-.11.309-.165.383-.208-.485.156-.192.077.217-.058.424-.145.644-.196.082-.019.165-.032.247-.051.406-.093-.654.05.008.007.224-.015.45-.017.674-.007.126.006.267.038.391.031-.031.002-.629-.117-.259-.028.222.053.443.098.66.171.095.032.189.077.285.104-.677-.193-.292-.124-.089-.013.19.104.358.236.543.347-.625-.375-.152-.111.038.084.067.069.125.151.195.215.218.2-.359-.526-.125-.163.13.201.246.403.362.611.223.402-.195-.57-.05-.128.026.078.055.155.08.233.074.235.084.516.175.74-.013-.032-.055-.638-.036-.247.006.135.02.269.023.404.002.111.002.221-.003.332-.01.249-.162.614.031-.066-.068.241-.095.491-.171.732-.036.115-.099.233-.126.35l.144-.347c-.035.074-.071.148-.109.22-.116.219-.27.409-.392.621.321-.558.215-.275.062-.109-.083.09-.17.177-.26.26-.174.161-.436.236.106-.06-.105.058-.206.147-.308.211-.106.067-.216.129-.327.187-.075.039-.151.076-.228.111l.337-.143c-.244.027-.507.172-.753.225l-.132.026c-.255.042-.178.033.233-.027-.169-.025-.389.027-.563.029-1.255.016-2.459,1.092-2.4,2.4.058,1.286,1.055,2.417,2.4,2.4Z"/></g></svg>