<svg id="b" xmlns="http://www.w3.org/2000/svg" width="198.726" height="173.693" viewBox="0 0 198.726 173.693" style="color: initial !important;"><defs><style>.d{fill:none;}.e{fill:#211715;}.f{fill:#ffda71;}.g{fill:#645d5c;}</style></defs><g id="c"><path class="f" d="M91.349,73.327c.009-4.433.014-8.47.014-11.753,0-1.861.042-3.72.154-5.588l-.564-.56-1.813-1.8c-8.264-9.121-17.699-17.144-27.134-25.083-5.791-4.886-11.63-9.772-18.133-13.633-6.515-3.873-12.979-6.736-20.531-7.11-4.054-.205-9.088.39-12.538,2.525l-.245.155C2.263,15.79,1.692,26.472,2.824,35.304c1.632,12.731,4.634,25.339,8.871,37.454,2.046,5.85,4.456,11.572,7.212,17.122,2.309,4.649,4.374,9.322,9.605,11.173,9.352,3.31,20.225-3.464,27.725-7.353-.689.517-1.416,1.064-2.19,1.646-5.849,4.4-11.208,10.171-15.069,16.842-6.057,10.472-7.999,23.225-.664,34.783.005.008.01.016.016.024.911,1.414.949,3.222.005,4.614-4.13,6.088-5.773,9.227-8.16,15.449-.384,1.001.01,2.685,1.106,3.485,1.584,1.156,3.379.78,4.022.05,3.681-4.179,7.536-9.49,11.395-13.754,1.074-1.187,2.7-1.674,4.267-1.348,8.289,1.721,15.945-.465,22.174-4.952,3.505-2.525,6.018-5.867,7.878-9.741,1.749-3.641,3.133-7.46,4.448-11.275,2.125-6.166,3.943-12.422,5.788-18.674.025-10.694.073-25.552.097-37.523Z"/><path class="e" d="M53.049,92.67c-5.76,3.073-12.021,6.703-18.727,6.861-3.011.071-6.107-.649-8.334-2.783-2.091-2.003-3.344-4.709-4.609-7.269-7.156-14.482-12.021-29.987-14.869-45.88-1.114-6.215-2.317-12.753-1.473-19.083.716-5.375,3.343-10.78,8.608-12.964,6.305-2.615,13.938-1.394,20.109.954,7.065,2.689,13.515,7.145,19.398,11.82,6.206,4.933,12.247,10.116,18.193,15.359,2.984,2.632,5.923,5.316,8.779,8.088,2.576,2.501,4.979,5.152,7.486,7.715.54.552,1.097,1.089,1.646,1.634,2.195,2.179,5.59-1.214,3.394-3.394-4.869-4.834-9.507-9.848-14.594-14.47-6.28-5.706-12.776-11.204-19.342-16.577C46.76,12.9,31.522,2.444,15.216,6.069c-6.872,1.528-11.882,6.619-13.941,13.262-1.959,6.321-1.309,13.007-.381,19.438,2.484,17.211,7.328,34.241,14.794,49.964,2.969,6.252,6.025,13.053,13.325,14.987,7.495,1.986,15.202-1.142,21.813-4.47,1.562-.786,3.103-1.612,4.645-2.435,2.726-1.455.305-5.6-2.423-4.145h0Z"/><path class="e" d="M89.616,107.895c-2.088,7.569-4.4,15.123-7.002,22.531-2.22,6.321-4.601,13.013-9.905,17.432-4.805,4.004-11.223,6.097-17.446,5.788-1.58-.078-3.095-.466-4.662-.615-1.836-.174-3.665.432-5.069,1.614-1.182.995-2.151,2.328-3.135,3.51-1.265,1.52-2.498,3.067-3.733,4.611-1.03,1.288-2.06,2.575-3.112,3.845-.547.66-1.15,1.29-1.671,1.971-.346.452-.361.342-.098.237-.268.108-.472.095-.751-.019-.832-.34-.598-.939-.385-1.513.558-1.501,1.183-2.982,1.859-4.434,1.253-2.693,2.754-5.252,4.374-7.739.879-1.349,1.972-2.65,2.365-4.245.437-1.777.031-3.549-.858-5.108-1.718-3.013-3.133-5.948-3.858-9.372-.65-3.072-.725-6.3-.308-9.411.855-6.38,3.689-12.318,7.367-17.538,4.338-6.156,9.994-10.796,15.981-15.252,5.215-3.881,10.596-7.469,16.121-10.895,2.62-1.625.213-5.779-2.423-4.145-5.212,3.233-10.314,6.596-15.245,10.245-5.743,4.25-11.347,8.502-15.886,14.081-9.073,11.153-14.288,26.095-8.368,39.978.709,1.663,1.592,3.192,2.489,4.756.816,1.422-.112,2.352-.914,3.56-1.78,2.681-3.454,5.429-4.831,8.342-.732,1.548-1.396,3.131-2.03,4.721-.628,1.576-1.102,2.981-.62,4.684.976,3.446,5.408,5.416,8.484,3.314,1.478-1.01,2.606-2.816,3.727-4.196,1.195-1.472,2.372-2.959,3.561-4.437,1.226-1.524,2.464-3.04,3.748-4.516.828-.951,1.544-2.029,2.945-1.873,1.94.215,3.816.632,5.781.668,1.8.033,3.592-.134,5.368-.42,3.44-.553,6.783-1.799,9.82-3.495,3.011-1.682,5.799-3.843,7.973-6.535,2.345-2.904,3.964-6.137,5.402-9.564,3.167-7.548,5.492-15.448,7.81-23.289.591-1.999,1.211-3.992,1.765-6.001.823-2.982-3.807-4.255-4.629-1.276h0Z"/><path class="e" d="M53.844,38.713c2.405,1.743,15.981,13.297,19.928,18.397,1.364,1.762-1.118,4.066-3.051,2.956-9.562-5.488-18.229-11.731-26.029-19.606-.261-.263-.511-.581-.751-.923-1.484-2.117.635-4.919,3.118-4.199,2.438.707,4.921,2.024,6.784,3.374Z"/><path class="e" d="M52.633,40.785c.393.287.239.181.072.048.214.171.43.339.643.51.569.457,1.131.922,1.691,1.389,1.486,1.239,2.953,2.499,4.408,3.773,3.333,2.918,6.636,5.892,9.73,9.065.581.596,1.155,1.201,1.709,1.822.239.268.476.54.706.816.414.498.405.526.194-.186-.036-.122.138-.125.164-.172-.313.575-.294.02-.138.107.011.006.117.036.119.036-.298-.023-.882-.509-1.143-.662-1.386-.811-2.759-1.642-4.118-2.496-5.215-3.278-10.209-6.898-14.844-10.959-1.318-1.155-2.607-2.342-3.866-3.56-.609-.589-1.302-1.166-1.829-1.834-.321-.408-.337-.307-.253-.588.024-.08.166-.225.284-.256.3-.077,1.086.268,1.55.441,1.753.656,3.397,1.624,4.92,2.704,1.058.751,2.67.188,3.284-.861.704-1.203.199-2.531-.861-3.284-1.627-1.155-3.368-2.089-5.212-2.849-1.801-.742-3.626-1.345-5.52-.565-1.511.622-2.697,1.937-3.107,3.531-.483,1.876.214,3.536,1.397,4.965,2.403,2.903,5.569,5.414,8.472,7.798,3.002,2.466,6.122,4.79,9.34,6.967,1.562,1.056,3.146,2.078,4.75,3.07,1.576.974,3.185,2.13,4.902,2.838,3.337,1.375,7.408-1.772,6.299-5.409-.62-2.031-2.924-3.931-4.381-5.397-1.906-1.917-3.886-3.761-5.89-5.575-3.562-3.226-7.163-6.534-11.049-9.374-1.047-.765-2.677-.177-3.284.861-.711,1.216-.189,2.516.861,3.284Z"/><path class="e" d="M24.686,23.958c.511-.113,1.044-.108,1.552.048,1.877.576,2.596,2.642,1.685,4.381-.444.848-1.473,1.567-2.785,1.514,0,0-1.234-.086-1.897-.626s-1.114-1.532-1.029-2.383c.142-1.425,1.097-2.629,2.475-2.934Z"/><path class="e" d="M25.324,26.273c.103-.021.205-.039.309-.053l-.638.086c.28-.03.553-.028.832.009l-.638-.086c.248.042.484.11.717.204l-.573-.242c.238.104.458.232.665.389l-.486-.375c.194.155.364.328.517.524l-.375-.486c.145.196.263.404.36.628l-.242-.573c.101.251.168.507.205.775l-.086-.638c.032.276.029.548-.005.824l.086-.638c-.042.287-.118.562-.225.832l.242-.573c-.101.238-.221.46-.377.667l.375-.486c-.146.184-.309.347-.492.495l.486-.375c-.222.169-.458.306-.714.416l.573-.242c-.25.099-.505.166-.77.206l.638-.086c-.264.032-.522.036-.784.003l.638.086c-.398-.055-.788-.147-1.161-.299l.573.242c-.164-.072-.318-.154-.464-.258l.486.375c-.178-.138-.331-.297-.471-.473l.375.486c-.161-.215-.292-.442-.4-.688l.242.573c-.1-.247-.171-.498-.208-.762l.086.638c-.021-.199-.021-.39,0-.589l-.086.638c.044-.329.127-.644.252-.952l-.242.573c.117-.271.262-.523.439-.759l-.375.486c.164-.208.346-.394.552-.56l-.486.375c.212-.162.436-.296.68-.405l-.573.242c.177-.073.356-.131.542-.175,1.223-.288,2.065-1.751,1.676-2.952-.413-1.275-1.642-1.985-2.952-1.676-.996.235-1.999.809-2.682,1.575-.695.778-1.259,1.746-1.435,2.787-.135.794-.15,1.409.002,2.202.104.542.342,1.09.624,1.56.663,1.104,1.638,1.838,2.856,2.232.603.195,1.287.315,1.919.304,1.346-.023,2.525-.517,3.557-1.353.794-.644,1.342-1.623,1.616-2.598s.287-2.088-.008-3.057c-.38-1.248-1.159-2.244-2.231-2.971-1.237-.84-2.791-.973-4.22-.68-.567.117-1.149.616-1.434,1.103-.301.514-.429,1.273-.242,1.849.188.581.548,1.141,1.103,1.434.592.313,1.19.377,1.849.242Z"/><path class="e" d="M21.81,46.643c.511-.113,1.044-.108,1.552.048,1.877.576,2.596,2.642,1.685,4.381-.444.848-1.473,1.567-2.785,1.514,0,0-1.234-.086-1.897-.626s-1.114-1.532-1.029-2.383c.142-1.425,1.097-2.629,2.475-2.934Z"/><path class="e" d="M22.448,48.958c.103-.021.205-.039.309-.053l-.638.086c.28-.03.553-.028.832.009l-.638-.086c.248.042.484.11.717.204l-.573-.242c.238.104.458.232.665.389l-.486-.375c.194.155.364.328.517.524l-.375-.486c.145.196.263.404.36.628l-.242-.573c.101.251.168.507.205.775l-.086-.638c.032.276.029.548-.005.824l.086-.638c-.042.287-.118.562-.225.832l.242-.573c-.101.238-.221.46-.377.667l.375-.486c-.146.184-.309.347-.492.495l.486-.375c-.222.169-.458.306-.714.416l.573-.242c-.25.099-.505.166-.77.206l.638-.086c-.264.032-.522.036-.784.003l.638.086c-.398-.055-.788-.147-1.161-.299l.573.242c-.164-.072-.318-.154-.464-.258l.486.375c-.178-.138-.331-.297-.471-.473l.375.486c-.161-.215-.292-.442-.4-.688l.242.573c-.1-.247-.171-.498-.208-.762l.086.638c-.021-.199-.021-.39,0-.589l-.086.638c.044-.329.127-.644.252-.952l-.242.573c.117-.271.262-.523.439-.759l-.375.486c.164-.208.346-.394.552-.56l-.486.375c.212-.162.436-.296.68-.405l-.573.242c.177-.073.356-.131.542-.175,1.223-.288,2.065-1.751,1.676-2.952-.413-1.275-1.642-1.985-2.952-1.676-.996.235-1.999.809-2.682,1.575-.695.778-1.259,1.746-1.435,2.787-.135.794-.15,1.409.002,2.202.104.542.342,1.09.624,1.56.663,1.104,1.638,1.838,2.856,2.232.603.195,1.287.315,1.919.304,1.346-.023,2.525-.517,3.557-1.353.794-.644,1.342-1.623,1.616-2.598s.287-2.088-.008-3.057c-.38-1.248-1.159-2.244-2.231-2.971-1.237-.84-2.791-.973-4.22-.68-.567.117-1.149.616-1.434,1.103-.301.514-.429,1.273-.242,1.849.188.581.548,1.141,1.103,1.434.592.313,1.19.377,1.849.242Z"/><path class="e" d="M51.609,135.765c.511-.113,1.044-.108,1.552.048,1.877.576,2.596,2.642,1.685,4.381-.444.848-1.473,1.567-2.785,1.514,0,0-1.234-.086-1.897-.626-.663-.54-1.114-1.532-1.029-2.383.142-1.425,1.097-2.629,2.475-2.934Z"/><path class="e" d="M52.247,138.079c.103-.021.205-.039.309-.053l-.638.086c.28-.03.553-.028.832.009l-.638-.086c.248.042.484.11.717.204l-.573-.242c.238.104.458.232.665.389l-.486-.375c.194.155.364.328.517.524l-.375-.486c.145.196.263.404.36.628l-.242-.573c.101.251.168.507.205.775l-.086-.638c.032.276.029.548-.005.824l.086-.638c-.042.287-.118.562-.225.832l.242-.573c-.101.238-.221.46-.377.667l.375-.486c-.146.184-.309.347-.492.495l.486-.375c-.222.169-.458.306-.714.416l.573-.242c-.25.099-.505.166-.77.206l.638-.086c-.264.032-.522.036-.784.003l.638.086c-.398-.055-.788-.147-1.161-.299l.573.242c-.164-.072-.318-.154-.464-.258l.486.375c-.178-.138-.331-.297-.471-.473l.375.486c-.161-.215-.292-.442-.4-.688l.242.573c-.1-.247-.171-.498-.208-.762l.086.638c-.021-.199-.021-.39,0-.589l-.086.638c.044-.329.127-.644.252-.952l-.242.573c.117-.271.262-.523.439-.759l-.375.486c.164-.208.346-.394.552-.56l-.486.375c.212-.162.436-.296.68-.405l-.573.242c.177-.073.356-.131.542-.175,1.223-.288,2.065-1.751,1.676-2.952-.413-1.275-1.642-1.985-2.952-1.676-.996.235-1.999.809-2.682,1.575-.695.778-1.259,1.746-1.435,2.787-.135.794-.15,1.409.002,2.202.104.542.342,1.09.624,1.56.663,1.104,1.638,1.838,2.856,2.232.603.195,1.287.315,1.919.304,1.346-.023,2.525-.517,3.557-1.353.794-.644,1.342-1.623,1.616-2.598s.287-2.088-.008-3.057c-.38-1.248-1.159-2.244-2.231-2.971-1.237-.84-2.791-.973-4.22-.68-.567.117-1.149.616-1.434,1.103-.301.514-.429,1.273-.242,1.849.188.581.548,1.141,1.103,1.434.592.313,1.19.377,1.849.242Z"/><path class="f" d="M107.423,73.327c-.009-4.433-.014-8.47-.014-11.753,0-1.861-.042-3.72-.154-5.588l.564-.56,1.813-1.8c8.264-9.121,17.699-17.144,27.134-25.083,5.791-4.886,11.63-9.772,18.133-13.633,6.515-3.873,12.979-6.736,20.531-7.11,4.054-.205,9.088.39,12.538,2.525l.245.155c8.295,5.31,8.866,15.992,7.734,24.824-1.632,12.731-4.634,25.339-8.871,37.454-2.046,5.85-4.456,11.572-7.212,17.122-2.309,4.649-4.374,9.322-9.605,11.173-9.352,3.31-20.225-3.464-27.725-7.353.689.517,1.416,1.064,2.19,1.646,5.849,4.4,11.208,10.171,15.069,16.842,6.057,10.472,7.999,23.225.664,34.783-.005.008-.01.016-.016.024-.911,1.414-.949,3.222-.005,4.614,4.13,6.088,5.773,9.227,8.16,15.449.384,1.001-.01,2.685-1.106,3.485-1.584,1.156-3.379.78-4.022.05-3.681-4.179-7.536-9.49-11.395-13.754-1.074-1.187-2.7-1.674-4.267-1.348-8.289,1.721-15.945-.465-22.174-4.952-3.505-2.525-6.018-5.867-7.878-9.741-1.749-3.641-3.133-7.46-4.448-11.275-2.125-6.166-3.943-12.422-5.788-18.674-.025-10.694-.073-25.552-.097-37.523Z"/><path class="e" d="M143.3,96.815c6.503,3.469,13.41,7.254,20.953,7.51,3.619.123,7.459-.72,10.398-2.913,2.686-2.004,4.49-4.796,6.002-7.741,7.79-15.177,13.102-31.555,16.153-48.326,2.227-12.248,5.089-29.775-7.943-37.281-6.59-3.796-15.503-3.22-22.521-1.078-7.756,2.367-14.844,6.843-21.251,11.72-6.771,5.155-13.239,10.756-19.648,16.35-3.175,2.771-6.305,5.594-9.346,8.512-2.858,2.742-5.522,5.649-8.283,8.483-.554.568-1.127,1.119-1.69,1.678-2.195,2.179,1.199,5.574,3.394,3.394,4.48-4.447,8.733-9.084,13.385-13.364,5.91-5.438,12.064-10.611,18.227-15.758,5.952-4.972,12.103-9.686,19.01-13.268,6.246-3.24,13.295-5.306,20.383-4.356,5.86.785,10.395,4.243,12.247,9.916,1.837,5.629,1.285,11.68.447,17.436-2.328,15.984-6.64,31.93-13.37,46.638-1.419,3.102-2.855,6.276-4.613,9.205-1.422,2.37-3.29,4.421-5.988,5.295-6.437,2.087-13.369-.978-19.057-3.853-1.5-.758-2.981-1.553-4.464-2.344-2.725-1.454-5.152,2.689-2.423,4.145h0Z"/><path class="e" d="M104.527,109.171c2.191,7.942,4.614,15.873,7.391,23.63,2.45,6.844,5.236,14,11.058,18.704,5.527,4.465,12.551,7.101,19.688,6.969,1.965-.036,3.842-.453,5.781-.668,1.401-.155,2.116.922,2.945,1.873,2.53,2.906,4.881,5.962,7.309,8.953,1.122,1.382,2.246,3.184,3.727,4.196,1.365.932,3.234,1.078,4.776.53,1.798-.64,3.182-1.987,3.708-3.844.482-1.702.008-3.108-.62-4.684-1.181-2.962-2.484-5.865-4.082-8.627-.874-1.511-1.814-2.982-2.779-4.436-.802-1.208-1.73-2.139-.914-3.56,1.816-3.165,3.385-6.362,4.222-9.939.801-3.424,1.05-6.995.704-10.494-.701-7.094-3.435-13.802-7.385-19.701-4.115-6.144-9.316-11.189-15.203-15.614-4.774-3.589-9.581-7.107-14.61-10.332-1.57-1.007-3.152-1.996-4.737-2.979-2.633-1.633-5.045,2.518-2.423,4.145,4.962,3.077,9.836,6.263,14.539,9.724,5.312,3.909,10.505,7.819,14.804,12.871,8.226,9.669,13.462,23.175,8.263,35.539-1.295,3.081-4.044,5.857-3.162,9.442.394,1.599,1.484,2.892,2.365,4.245.915,1.405,1.801,2.831,2.617,4.296,1.407,2.523,2.61,5.169,3.616,7.877.209.563.452,1.172-.385,1.513-.372.152-.273.053-.457.098-.297.073-.384-.193-.116,0-.739-.531-1.367-1.586-1.948-2.286-2.315-2.792-4.525-5.668-6.845-8.455-2.186-2.626-4.39-5.487-8.204-5.124-1.568.149-3.081.536-4.662.615-1.708.085-3.448.032-5.137-.252-3.116-.525-6.085-1.601-8.822-3.177-2.997-1.726-5.611-3.955-7.558-6.834-2.181-3.225-3.628-6.906-4.967-10.541-3.009-8.165-5.555-16.559-7.869-24.946-.82-2.974-5.453-1.711-4.629,1.276h0Z"/><path class="e" d="M144.928,38.713c-2.405,1.743-15.981,13.297-19.928,18.397-1.364,1.762,1.118,4.066,3.051,2.956,9.562-5.488,18.229-11.731,26.029-19.606.261-.263.511-.581.751-.923,1.484-2.117-.635-4.919-3.118-4.199-2.438.707-4.921,2.024-6.784,3.374Z"/><path class="e" d="M143.717,36.641c-3.295,2.409-6.357,5.188-9.403,7.897-3.708,3.299-7.579,6.643-10.718,10.507-1.049,1.291-1.697,2.686-1.197,4.377.468,1.583,1.885,2.803,3.463,3.195,2.024.504,3.644-.604,5.301-1.586,1.629-.965,3.24-1.959,4.83-2.986,6.433-4.156,12.537-8.863,18.054-14.181,1.508-1.453,3.297-2.961,3.605-5.152.271-1.923-.605-3.803-2.175-4.925-1.772-1.267-3.759-1.053-5.694-.335-2.153.799-4.193,1.859-6.066,3.188-1.056.749-1.556,2.095-.861,3.284.61,1.044,2.221,1.615,3.284.861,1.319-.936,2.727-1.783,4.215-2.423.589-.253,1.363-.675,1.996-.709.322-.017.263-.069.431.095.306.299.115.452-.399,1.015-1.131,1.239-2.414,2.378-3.649,3.51-4.599,4.216-9.57,7.989-14.799,11.389-2.253,1.465-4.938,3.101-7.018,4.293.204-.117.183.422-.096-.105.018.033.161.036.144.125-.081.438-.312.897.086.387.507-.648,1.08-1.253,1.643-1.853,2.943-3.137,6.147-6.038,9.364-8.889,1.692-1.5,3.402-2.981,5.134-4.436.65-.546,1.303-1.089,1.962-1.623.268-.217.539-.43.807-.645.348-.28-.42.306.178-.131,1.045-.764,1.563-2.084.861-3.284-.603-1.031-2.231-1.63-3.284-.861Z"/><path class="e" d="M174.086,23.958c-.511-.113-1.044-.108-1.552.048-1.877.576-2.596,2.642-1.685,4.381.444.848,1.473,1.567,2.785,1.514,0,0,1.234-.086,1.897-.626s1.114-1.532,1.029-2.383c-.142-1.425-1.097-2.629-2.475-2.934Z"/><path class="e" d="M174.724,21.644c-1.382-.284-2.744-.149-3.991.539-.843.466-1.644,1.258-2.06,2.133-.436.916-.708,1.92-.587,2.943.091.771.246,1.333.553,2.043.205.475.509.878.848,1.271.673.779,1.752,1.392,2.759,1.587.934.181,1.704.158,2.628-.034.984-.204,1.988-.684,2.658-1.448.866-.987,1.414-2.209,1.439-3.536.011-.575-.096-1.225-.297-1.773-.239-.651-.51-1.184-.928-1.726-.756-.979-1.804-1.713-3.021-2-.62-.146-1.292-.084-1.849.242-.498.291-.973.862-1.103,1.434-.14.614-.11,1.304.242,1.849.332.515.822.958,1.434,1.103.187.044.365.101.542.175l-.573-.242c.244.109.468.243.68.405l-.486-.375c.206.167.388.352.552.56l-.375-.486c.177.236.322.488.439.759l-.242-.573c.125.307.207.623.252.952l-.086-.638c.022.199.022.39,0,.589l.086-.638c-.038.264-.108.515-.208.762l.242-.573c-.108.245-.239.473-.4.688l.375-.486c-.14.176-.293.335-.471.473l.486-.375c-.147.104-.3.186-.464.258l.573-.242c-.372.152-.763.244-1.161.299l.638-.086c-.263.034-.52.029-.784-.003l.638.086c-.266-.04-.521-.107-.77-.206l.573.242c-.256-.11-.492-.247-.714-.416l.486.375c-.183-.148-.346-.311-.492-.495l.375.486c-.155-.207-.275-.429-.377-.667l.242.573c-.107-.27-.183-.545-.225-.832l.086.638c-.034-.276-.036-.548-.005-.824l-.086.638c.037-.268.105-.524.205-.775l-.242.573c.096-.224.215-.432.36-.628l-.375.486c.152-.196.323-.369.517-.524l-.486.375c.207-.157.427-.285.665-.389l-.573.242c.233-.095.469-.162.717-.204l-.638.086c.279-.037.552-.039.832-.009l-.638-.086c.104.015.206.032.309.053.635.131,1.277.093,1.849-.242.498-.291.973-.862,1.103-1.434.14-.614.11-1.304-.242-1.849-.326-.506-.825-.978-1.434-1.103Z"/><path class="e" d="M176.962,46.643c-.511-.113-1.044-.108-1.552.048-1.877.576-2.596,2.642-1.685,4.381.444.848,1.473,1.567,2.785,1.514,0,0,1.234-.086,1.897-.626s1.114-1.532,1.029-2.383c-.142-1.425-1.097-2.629-2.475-2.934Z"/><path class="e" d="M177.6,44.329c-1.382-.284-2.744-.149-3.991.539-.843.466-1.644,1.258-2.06,2.133-.436.916-.708,1.92-.587,2.943.091.771.246,1.333.553,2.043.205.475.509.878.848,1.271.673.779,1.752,1.392,2.759,1.587.934.181,1.704.158,2.628-.034.984-.204,1.988-.684,2.658-1.448.866-.987,1.414-2.209,1.439-3.536.011-.575-.096-1.225-.297-1.773-.239-.651-.51-1.184-.928-1.726-.756-.979-1.804-1.713-3.021-2-.62-.146-1.292-.084-1.849.242-.498.291-.973.862-1.103,1.434-.14.614-.11,1.304.242,1.849.332.515.822.958,1.434,1.103.187.044.365.101.542.175l-.573-.242c.244.109.468.243.68.405l-.486-.375c.206.167.388.352.552.56l-.375-.486c.177.236.322.488.439.759l-.242-.573c.125.307.207.623.252.952l-.086-.638c.022.199.022.39,0,.589l.086-.638c-.038.264-.108.515-.208.762l.242-.573c-.108.245-.239.473-.4.688l.375-.486c-.14.176-.293.335-.471.473l.486-.375c-.147.104-.3.186-.464.258l.573-.242c-.372.152-.763.244-1.161.299l.638-.086c-.263.034-.52.029-.784-.003l.638.086c-.266-.04-.521-.107-.77-.206l.573.242c-.256-.11-.492-.247-.714-.416l.486.375c-.183-.148-.346-.311-.492-.495l.375.486c-.155-.207-.275-.429-.377-.667l.242.573c-.107-.27-.183-.545-.225-.832l.086.638c-.034-.276-.036-.548-.005-.824l-.086.638c.037-.268.105-.524.205-.775l-.242.573c.096-.224.215-.432.36-.628l-.375.486c.152-.196.323-.369.517-.524l-.486.375c.207-.157.427-.285.665-.389l-.573.242c.233-.095.469-.162.717-.204l-.638.086c.279-.037.552-.039.832-.009l-.638-.086c.104.015.206.032.309.053.635.131,1.277.093,1.849-.242.498-.291.973-.862,1.103-1.434.14-.614.11-1.304-.242-1.849-.326-.506-.825-.978-1.434-1.103Z"/><path class="e" d="M147.163,135.765c-.511-.113-1.044-.108-1.552.048-1.877.576-2.596,2.642-1.685,4.381.444.848,1.473,1.567,2.785,1.514,0,0,1.234-.086,1.897-.626.663-.54,1.114-1.532,1.029-2.383-.142-1.425-1.097-2.629-2.475-2.934Z"/><path class="e" d="M147.801,133.451c-1.382-.284-2.744-.149-3.991.539-.843.466-1.644,1.258-2.06,2.133-.436.916-.708,1.92-.587,2.943.091.771.246,1.333.553,2.043.205.475.509.878.848,1.271.673.779,1.752,1.392,2.759,1.587.934.181,1.704.158,2.628-.034.984-.204,1.988-.684,2.658-1.448.866-.987,1.414-2.209,1.439-3.536.011-.575-.096-1.225-.297-1.773-.239-.651-.51-1.184-.928-1.726-.756-.979-1.804-1.713-3.021-2-.62-.146-1.292-.084-1.849.242-.498.291-.973.862-1.103,1.434-.14.614-.11,1.304.242,1.849.332.515.822.958,1.434,1.103.187.044.365.101.542.175l-.573-.242c.244.109.468.243.68.405l-.486-.375c.206.167.388.352.552.56l-.375-.486c.177.236.322.488.439.759l-.242-.573c.125.307.207.623.252.952l-.086-.638c.022.199.022.39,0,.589l.086-.638c-.038.264-.108.515-.208.762l.242-.573c-.108.245-.239.473-.4.688l.375-.486c-.14.176-.293.335-.471.473l.486-.375c-.147.104-.3.186-.464.258l.573-.242c-.372.152-.763.244-1.161.299l.638-.086c-.263.034-.52.029-.784-.003l.638.086c-.266-.04-.521-.107-.77-.206l.573.242c-.256-.11-.492-.247-.714-.416l.486.375c-.183-.148-.346-.311-.492-.495l.375.486c-.155-.207-.275-.429-.377-.667l.242.573c-.107-.27-.183-.545-.225-.832l.086.638c-.034-.276-.036-.548-.005-.824l-.086.638c.037-.268.105-.524.205-.775l-.242.573c.096-.224.215-.432.36-.628l-.375.486c.152-.196.323-.369.517-.524l-.486.375c.207-.157.427-.285.665-.389l-.573.242c.233-.095.469-.162.717-.204l-.638.086c.279-.037.552-.039.832-.009l-.638-.086c.104.015.206.032.309.053.635.131,1.277.093,1.849-.242.498-.291.973-.862,1.103-1.434.14-.614.11-1.304-.242-1.849-.326-.506-.825-.978-1.434-1.103Z"/><path class="e" d="M161.378,72.92c-6.673-2.275-13.439-4.263-20.282-5.959-2.998-.743-4.278,3.885-1.276,4.629,6.843,1.696,13.609,3.684,20.282,5.959,1.227.418,2.624-.48,2.952-1.676.361-1.315-.445-2.532-1.676-2.952h0Z"/><path class="e" d="M38.335,77.549c6.673-2.275,13.439-4.263,20.282-5.959,2.997-.743,1.727-5.373-1.276-4.629-6.843,1.696-13.609,3.684-20.282,5.959-1.226.418-2.034,1.649-1.676,2.952.328,1.195,1.72,2.096,2.952,1.676h0Z"/><path class="e" d="M105.578,45.334c.408-5.444,1.658-11.077,3.144-16.516,1.583-5.789,3.491-11.644,6.484-16.875,1.627-2.844,3.788-5.454,6.409-7.444,1.03-.783,1.571-2.069.861-3.284-.594-1.015-2.245-1.65-3.284-.861-2.818,2.141-5.316,4.711-7.238,7.693-1.672,2.594-2.949,5.425-4.113,8.275-2.528,6.192-4.342,12.706-5.65,19.26-.642,3.218-1.167,6.477-1.413,9.752-.097,1.294,1.173,2.4,2.4,2.4,1.379,0,2.303-1.102,2.4-2.4h0Z"/><path class="e" d="M97.674,45.334c-.459-6.128-1.776-12.229-3.412-18.142-1.724-6.231-3.849-12.595-7.166-18.178-2.01-3.383-4.708-6.284-7.836-8.66-1.033-.785-2.685-.162-3.284.861-.721,1.233-.174,2.497.861,3.284,4.658,3.539,7.436,8.725,9.531,14.062,2.319,5.906,4.023,12.079,5.264,18.298.588,2.949,1.023,5.571,1.241,8.476.097,1.293,1.034,2.4,2.4,2.4,1.224,0,2.497-1.1,2.4-2.4h0Z"/><path class="d" d="M124.108,97.324c4.383,6.658,8.766,13.316,13.149,19.975"/><path class="d" d="M74.328,97.324c-4.383,6.658-8.766,13.316-13.149,19.975"/><path class="g" d="M99.218,45.334c-2.428,0-4.765,1.091-6.02,2.905-.991,1.432-1.632,3.12-1.794,4.78-.279,2.87-.377,5.711-.377,8.555,0,15.286-.122,46.128-.122,57.965,0,3.525.146,7.352.499,10.979.161,1.659.902,5.824,1.794,7.32,1.427,2.395,3.364,4.306,6.02,4.306,2.427,0,4.765-2.492,6.02-4.306.991-1.432,1.632-5.66,1.794-7.32.352-3.627.499-7.454.499-10.979,0-11.836-.122-42.679-.122-57.965,0-2.844-.098-5.685-.377-8.555-.161-1.659-.803-3.348-1.794-4.78-1.255-1.814-3.447-2.905-6.02-2.905Z"/><path class="e" d="M99.218,42.934c-4.706.111-8.228,2.95-9.686,7.378-.772,2.345-.75,5.022-.839,7.469-.069,1.905-.065,3.81-.066,5.716-.004,6.642-.021,13.283-.038,19.925-.019,7.283-.04,14.565-.059,21.848-.015,5.954-.144,11.924.026,17.876.196,6.855.08,17.616,7.72,20.793,4.376,1.82,8.242-1.062,10.747-4.492,1.82-2.491,2.14-6.176,2.43-9.157.657-6.769.478-13.594.463-20.386-.015-6.976-.036-13.951-.055-20.927-.019-7.078-.038-14.157-.048-21.235-.005-3.398.053-6.804-.079-10.2-.179-4.593-.5-9.67-4.494-12.68-1.746-1.316-3.856-1.881-6.022-1.93-3.09-.069-3.089,4.731,0,4.8,4.112.092,5.321,3.632,5.574,7.194.248,3.492.215,6.99.219,10.488.006,6.299.022,12.598.039,18.897.031,11.962.141,23.927.079,35.89-.011,2.137-.074,4.274-.197,6.408-.092,1.594-.241,3.735-.433,4.984-.477,3.097-.913,5.398-3.498,7.352-1.129.854-2.266,1.051-3.484.262-1.036-.671-2.145-2.215-2.451-3.001-1.268-3.262-1.366-6.234-1.56-9.597-.338-5.854-.197-11.739-.183-17.6.015-6.498.034-12.996.051-19.494.018-6.597.036-13.193.047-19.79.005-2.718.004-5.436.008-8.153.004-2.297.065-4.593.234-6.884.138-1.86.41-3.769,1.636-5.271.952-1.167,2.462-1.651,3.92-1.685,3.084-.073,3.095-4.873,0-4.8Z"/></g></svg>