<svg width="128" height="113" xmlns="http://www.w3.org/2000/svg">
 <g id="Layer_1">
  <title>Layer 1</title>
  <g>

   <g id="svg_7">
    <path fill="#ffffff" stroke-width="0px" d="m63.22911,-162.51595c-5.567,0 -11.135,0.005 -15.092,0.015c-2.422,0.006 -4.484,-1.848 -4.618,-4.266c-0.847,-15.298 -1.366,-29.31 -1.366,-41.882c0,-2.398 -1.834,-4.402 -4.223,-4.604c-3.625,-0.306 -4.848,-0.356 -8.515,-0.147c-2.126,0.121 -3.912,1.653 -4.313,3.744c-7.059,36.754 -12.299,79.936 -14.899,117.315c-0.19,2.73 1.964,5.052 4.701,5.052c16.816,-0.002 32.571,-0.002 48.326,-0.003c15.755,0 31.51,0.001 48.325,0.003c2.737,0 4.891,-2.322 4.701,-5.052c-2.6,-37.379 -7.84,-80.561 -14.898,-117.314c-0.402,-2.091 -2.187,-3.623 -4.313,-3.744c-3.668,-0.209 -4.89,-0.16 -8.515,0.147c-2.389,0.202 -4.223,2.206 -4.223,4.604c0,12.572 -0.519,26.584 -1.366,41.882c-0.134,2.418 -2.196,4.273 -4.618,4.266c-3.957,-0.01 -9.526,-0.015 -15.092,-0.015l-0.002,-0.001z" class="g"/>
    <path fill="#211715" stroke-width="0px" d="m63.22911,-164.91595c-4.544,0 -9.088,0.002 -13.632,0.012c-1.254,0.003 -2.612,0.177 -3.372,-1.031c-0.425,-0.675 -0.347,-1.548 -0.389,-2.324c-0.067,-1.232 -0.132,-2.463 -0.195,-3.695c-0.469,-9.138 -0.839,-18.282 -1.003,-27.43c-0.038,-2.123 -0.065,-4.246 -0.078,-6.369c-0.013,-2.059 0.162,-4.125 -0.756,-6.032c-1.848,-3.84 -6.072,-4.017 -9.8,-4.125c-3.79,-0.111 -8.085,-0.153 -10.344,3.45c-1.088,1.735 -1.226,3.995 -1.593,5.963c-0.399,2.138 -0.788,4.277 -1.168,6.418c-3.162,17.801 -5.741,35.706 -7.913,53.654c-2.133,17.627 -3.858,35.306 -5.11,53.018c-0.139,1.971 0.033,3.802 1.204,5.466c1.14,1.619 2.871,2.692 4.832,2.964c2.256,0.312 4.665,0.09 6.941,0.09c2.443,0 4.885,0 7.328,0c9.419,0 18.839,-0.001 28.258,-0.001c9.314,0 18.627,0 27.941,0c4.712,0 9.425,0 14.137,0c2.444,0 4.888,0 7.332,0c2.325,0 4.888,0.304 7.176,-0.161c1.823,-0.371 3.4,-1.494 4.446,-3.017c1.163,-1.693 1.234,-3.582 1.094,-5.554c-0.308,-4.348 -0.647,-8.695 -1.012,-13.039c-0.75,-8.924 -1.615,-17.838 -2.586,-26.741c-1.968,-18.052 -4.354,-36.063 -7.258,-53.988c-0.709,-4.379 -1.451,-8.753 -2.229,-13.121c-0.381,-2.138 -0.771,-4.275 -1.171,-6.41c-0.356,-1.901 -0.507,-4.03 -1.609,-5.679c-2.374,-3.552 -6.74,-3.442 -10.569,-3.3c-1.781,0.066 -3.854,0.016 -5.538,0.635c-1.924,0.707 -3.424,2.149 -4.184,4.053c-0.736,1.843 -0.503,3.93 -0.517,5.876c-0.015,2.128 -0.043,4.256 -0.083,6.384c-0.082,4.403 -0.213,8.804 -0.377,13.204c-0.175,4.681 -0.389,9.36 -0.63,14.038c-0.064,1.233 -0.129,2.466 -0.196,3.699c-0.042,0.77 0.019,1.571 -0.459,2.215c-0.868,1.167 -2.393,0.894 -3.672,0.891c-4.416,-0.009 -8.831,-0.011 -13.247,-0.011c-3.089,0 -3.094,4.8 0,4.8c4.351,0 8.701,0.002 13.052,0.011c1.909,0.004 3.769,0.069 5.496,-0.889c1.58,-0.877 2.804,-2.4 3.306,-4.137c0.613,-2.117 0.421,-4.634 0.534,-6.823c0.12,-2.332 0.233,-4.664 0.337,-6.996c0.194,-4.314 0.36,-8.629 0.487,-12.946c0.124,-4.2 0.211,-8.401 0.247,-12.602c0.008,-0.903 0.013,-1.806 0.016,-2.709c0.002,-0.768 -0.144,-1.711 0.211,-2.43c0.611,-1.236 1.912,-1.246 3.117,-1.337c1.578,-0.119 3.154,-0.179 4.736,-0.13c1.329,0.04 3.022,-0.172 3.884,1.066c0.446,0.641 0.49,1.535 0.632,2.282c0.188,0.986 0.373,1.973 0.556,2.959c0.384,2.068 0.76,4.138 1.127,6.209c3.003,16.929 5.481,33.952 7.564,51.018s3.785,34.211 5.048,51.372c0.074,1.001 0.146,2.002 0.216,3.004c0.051,0.72 0.181,1.474 -0.124,2.157c-0.534,1.196 -1.683,1.349 -2.866,1.349c-4.661,0 -9.322,0 -13.983,-0.001c-9.013,0 -18.026,-0.001 -27.04,-0.001c-18.126,0 -36.255,0.087 -54.381,0.003c-1.171,-0.005 -2.225,-0.315 -2.666,-1.502c-0.262,-0.704 -0.111,-1.489 -0.059,-2.218c0.076,-1.074 0.154,-2.147 0.233,-3.221c0.308,-4.156 0.642,-8.31 1.001,-12.462c0.741,-8.569 1.586,-17.129 2.528,-25.678c1.901,-17.242 4.194,-34.443 6.972,-51.566c0.675,-4.161 1.379,-8.318 2.117,-12.468c0.368,-2.07 0.744,-4.139 1.129,-6.206c0.184,-0.986 0.369,-1.972 0.557,-2.958c0.135,-0.706 0.178,-1.529 0.619,-2.127c0.899,-1.219 2.71,-0.98 4.038,-1.016c1.657,-0.045 3.306,0.037 4.958,0.167c1.166,0.092 2.274,0.254 2.767,1.461c0.286,0.701 0.157,1.538 0.159,2.275c0.003,1.043 0.01,2.087 0.02,3.13c0.08,8.538 0.365,17.074 0.752,25.604c0.102,2.255 0.212,4.51 0.328,6.764c0.112,2.171 -0.071,4.644 0.573,6.735c0.545,1.77 1.876,3.324 3.547,4.126c1.728,0.829 3.532,0.746 5.399,0.743c4.285,-0.008 8.571,-0.01 12.856,-0.01c3.089,0 3.094,-4.8 0,-4.8l0.001,-0.004z" class="e"/>
    <path fill="#ffffff" stroke-width="0px" d="m254.31011,-158.00495c6.597,-3.78 10.539,-10.738 11.986,-18.309c1.717,-17.554 -3.984,-42.518 -24.867,-42.518s-26.583,24.965 -24.867,42.518c1.292,6.759 4.572,13.029 9.955,16.985c1.988,1.461 4.262,2.606 6.829,3.345c0.844,0.243 1.418,1.022 1.418,1.9c0.001,12.782 0.002,65.351 0.002,65.351c0,3.998 2.784,6.752 6.669,6.752c4.034,0 6.669,-2.779 6.669,-6.752l0,-65.349c0,-0.88 0.578,-1.66 1.423,-1.904c1.726,-0.498 3.32,-1.18 4.783,-2.019z" class="g"/>
    <path fill="#ffffff" stroke-width="0px" d="m292.54211,-199.57295l0.03,0.798c0.337,9.044 0.704,18.916 0.704,18.916c0.051,1.372 1.056,1.872 2.279,1.872l0.736,0c1.236,0 2.247,-0.524 2.28,-1.912l1.629,-34.325c0.096,-2.027 1.505,-3.612 3.211,-3.612c1.671,0 3.063,1.517 3.204,3.499c0.945,13.323 2.193,34.438 2.193,34.438c0.032,1.388 1.044,1.912 2.28,1.912l0.736,0c1.222,0 2.228,-0.5 2.279,-1.872l1.252,-33.618c0,-2.408 1.738,-4.359 3.881,-4.359l0.147,0c2.021,0 3.703,1.741 3.868,4.003l3.027,42.831c0,6.539 -3.827,14.259 -14.519,16.154c-0.813,0.144 -1.399,0.865 -1.399,1.691c0,9.087 0,64.423 0,64.423c0,3.973 -2.634,6.752 -6.669,6.752c-3.885,0 -6.669,-2.754 -6.669,-6.752c0,0 0,-55.917 0,-64.638c0,-0.802 -0.552,-1.503 -1.336,-1.674c-10.03,-2.188 -14.583,-9.626 -14.583,-15.956l3.027,-42.831c0.165,-2.262 1.848,-4.003 3.868,-4.003l0.147,0c2.144,0 3.881,1.952 3.881,4.359c0,0 0.245,6.572 0.518,13.904l-0.002,0z" class="g"/>
    <path fill="#211715" stroke-width="0px" d="m255.52211,-155.93295c3.647,-2.133 6.659,-5.164 8.883,-8.75c2.169,-3.498 3.904,-7.781 4.318,-11.901c0.646,-6.431 0.193,-13.081 -1.197,-19.386c-1.38,-6.261 -3.903,-12.444 -8.171,-17.304c-4.332,-4.932 -10.44,-7.698 -16.977,-7.941c-6.627,-0.246 -13.058,2.08 -17.778,6.775c-4.538,4.514 -7.283,10.619 -8.855,16.748c-1.62,6.313 -2.161,12.972 -1.737,19.471c0.552,8.467 5.14,17.016 12.317,21.669c0.94,0.61 1.927,1.141 2.949,1.6c0.581,0.261 1.171,0.507 1.768,0.731c0.272,0.102 0.547,0.199 0.823,0.29l0.42,0.134c0.455,0.173 0.557,0.192 0.305,0.056c-0.08,0.162 -0.101,-0.639 -0.224,-0.159c-0.037,0.145 0,0.369 0,0.518c0,0.407 0,0.815 0,1.222c0,2.038 0,4.077 0,6.115c0,5.571 0,11.142 0,16.712c0,11.228 0,22.456 0,33.684c0,2.291 -0.035,4.584 0,6.875c0.052,3.368 1.65,6.646 4.758,8.187c3.545,1.757 8.342,1.219 11.055,-1.801c2.315,-2.576 2.324,-5.727 2.325,-8.928l0,-10.521c0,-10.475 0,-20.95 0,-31.425l0,-13.475c0,-2.294 0.252,-4.748 0,-7.032c-0.004,-0.035 0.03,-0.295 0,-0.315c0.405,0.275 -0.932,0.452 -0.125,0.345c0.54,-0.071 1.165,-0.377 1.671,-0.573c1.194,-0.464 2.353,-0.997 3.471,-1.623c2.696,-1.509 0.278,-5.657 -2.423,-4.145c-0.949,0.531 -1.914,1.005 -2.94,1.369c-1.113,0.396 -2.284,0.626 -3.15,1.502c-0.86,0.87 -1.256,1.998 -1.304,3.204c-0.024,0.602 0,1.21 0,1.813l0,9.317c0,9.994 0,19.987 0,29.981l0,22.695c0,0.483 0.008,0.968 0,1.451c-0.045,2.684 -1.712,4.419 -4.439,4.36c-2.535,-0.055 -4.057,-1.905 -4.099,-4.381c-0.01,-0.626 0,-1.252 0,-1.878c0,-9.172 0,-18.344 0,-27.516c0,-10.73 0,-21.459 0,-32.189c0,-2.055 0.392,-4.662 -0.908,-6.378c-1.348,-1.779 -3.995,-2.013 -5.893,-3.02c-1.824,-0.968 -3.449,-2.19 -4.889,-3.669c-2.734,-2.806 -4.615,-6.35 -5.748,-10.081c-0.951,-3.134 -1.084,-6.279 -1.047,-9.54c0.071,-6.195 0.969,-12.242 3.174,-18.105c1.901,-5.054 5.104,-9.945 9.718,-12.706c4.89,-2.926 11.268,-3.38 16.747,-1.428c2.375,0.846 4.708,2.402 6.546,4.23c1.986,1.975 3.422,4.118 4.73,6.703c2.631,5.196 3.968,11.419 4.407,17.219c0.231,3.053 0.244,6.124 0.031,9.178c-0.248,3.545 -1.608,7.145 -3.394,10.211c-1.843,3.164 -4.373,5.806 -7.54,7.658c-2.665,1.559 -0.252,5.709 2.423,4.145l-0.001,0.002z" class="e"/>
    <path fill="#211715" stroke-width="0px" d="m290.14211,-199.57295c0.238,6.404 0.477,12.809 0.715,19.213c0.108,2.891 1.828,4.693 4.774,4.773c2.89,0.079 5.123,-1.327 5.342,-4.371c0.465,-6.471 0.616,-12.98 0.923,-19.46l0.544,-11.456c0.047,-0.986 0.071,-1.976 0.14,-2.961c0.049,-0.691 0.4,-1.972 1.084,-1.521c0.914,0.603 0.657,2.54 0.72,3.455c0.108,1.56 0.213,3.121 0.316,4.681c0.216,3.255 0.425,6.511 0.631,9.767c0.322,5.106 0.636,10.212 0.942,15.319c0.062,1.035 0.022,2.183 0.247,3.201c0.719,3.252 4.93,4.135 7.636,2.836c2.812,-1.35 2.387,-4.899 2.484,-7.519l0.906,-24.326c0.072,-1.927 -0.091,-4.039 0.233,-5.946c0.355,-2.084 2.727,-1.966 3.07,0.053c0.072,0.425 0.062,0.88 0.093,1.309c0.512,7.241 1.024,14.483 1.535,21.724c0.457,6.468 0.98,12.935 1.372,19.407c0.192,3.177 -0.88,6.591 -2.966,9.065c-1.74,2.064 -4.022,3.528 -6.585,4.373c-1.669,0.55 -3.841,0.555 -5.13,1.877c-0.947,0.971 -1.21,2.201 -1.21,3.507c0,7.021 0,14.042 0,21.063c0,9.402 0,18.805 0,28.207c0,4.85 0.082,9.708 0,14.558c-0.037,2.203 -1.155,3.945 -3.382,4.303c-2.361,0.38 -4.473,-0.782 -5.028,-3.096c-0.336,-1.401 -0.127,-3.084 -0.127,-4.509c0,-7.643 0,-15.285 0,-22.928c0,-9.209 0,-18.419 0,-27.628c0,-3.052 0,-6.104 0,-9.156c0,-2.166 -0.175,-4.378 -2.491,-5.377c-1.531,-0.66 -3.228,-0.85 -4.761,-1.561c-1.291,-0.6 -2.565,-1.338 -3.656,-2.258c-1.895,-1.598 -3.48,-3.721 -4.251,-5.895c-0.571,-1.609 -0.814,-2.747 -0.748,-4.324c0.089,-2.113 0.299,-4.227 0.448,-6.336l1.775,-25.109l0.661,-9.347c0.042,-0.596 0.037,-1.219 0.128,-1.81c0.208,-1.347 1.552,-2.29 2.558,-1.201c0.906,0.98 0.607,3.21 0.652,4.429l0.409,10.974c0.115,3.079 4.915,3.094 4.8,0c-0.14,-3.754 -0.28,-7.508 -0.419,-11.262c-0.081,-2.177 0.054,-4.517 -1.175,-6.427c-1.906,-2.964 -5.944,-3.937 -8.848,-1.811c-1.832,1.342 -2.619,3.332 -2.793,5.533c-0.519,6.538 -0.925,13.088 -1.387,19.63l-1.539,21.78c-0.239,3.384 0.578,6.739 2.271,9.687c1.522,2.649 3.719,4.862 6.263,6.537c1.462,0.962 3.065,1.705 4.707,2.303c0.795,0.29 1.607,0.533 2.429,0.734c0.442,0.108 0.777,0.209 0.279,-0.251c-0.277,-0.256 -0.063,-0.25 -0.111,0.037c-0.17,1.019 0,2.217 0,3.25c0,1.621 0,3.242 0,4.863c0,4.249 0,8.498 0,12.747c0,9.595 0,19.19 0,28.785c0,4.898 -0.083,9.804 0,14.701c0.054,3.173 1.46,6.186 4.23,7.865c2.862,1.735 6.886,1.739 9.745,-0.006c3.272,-1.998 4.163,-5.476 4.163,-9.047c0,-6.824 0,-13.649 0,-20.473c0,-9.639 0,-19.278 0,-28.916c0,-3.543 0,-7.086 0,-10.629c0,-0.353 0.26,-3 0,-3.171c0.315,0.207 -0.915,0.573 0.035,0.508c0.379,-0.026 0.786,-0.163 1.155,-0.253c0.897,-0.221 1.781,-0.495 2.641,-0.831c1.483,-0.579 2.921,-1.262 4.231,-2.173c4.679,-3.253 7.442,-8.36 7.819,-14.024c0.119,-1.788 -0.139,-3.613 -0.265,-5.394l-1.763,-24.94l-0.747,-10.575c-0.197,-2.782 -0.139,-5.732 -2.384,-7.797c-2.564,-2.358 -6.661,-2.106 -8.89,0.584c-1.234,1.489 -1.588,3.225 -1.658,5.098l-0.33,8.863c-0.288,7.726 -0.575,15.451 -0.863,23.177c-0.008,0.212 -0.121,0.697 -0.033,0.896c0.006,0.013 -0.016,0.111 -0.004,0.117c-0.091,-0.049 0.265,-0.427 0.272,-0.487c0.015,-0.133 0.243,-0.014 -0.189,-0.04c-0.211,-0.013 -0.942,0.013 -0.932,-0.018c-0.01,0.032 0.366,0.449 0.352,0.458c0.079,-0.053 -0.055,-0.919 -0.06,-1.017c-0.282,-4.734 -0.572,-9.467 -0.868,-14.2c-0.403,-6.438 -0.604,-12.94 -1.282,-19.355c-0.409,-3.866 -4.129,-7.107 -8.003,-5.109c-2.168,1.118 -3.081,3.427 -3.207,5.738c-0.391,7.124 -0.676,14.256 -1.015,21.382l-0.509,10.717c-0.006,0.131 -0.192,1.838 -0.089,1.884c-0.33,-0.146 0.384,-0.502 0.389,-0.493c0.041,0.067 -1.235,-0.085 -1.306,0.004c0.23,-0.29 0.447,1.212 0.401,-0.027c-0.238,-6.383 -0.475,-12.766 -0.713,-19.148c-0.115,-3.079 -4.915,-3.094 -4.8,0l-0.003,-0.003z" class="e"/>
    <path fill="#ffffff" stroke-width="0px" d="m304.35711,28.40905c-1.657,24.402 -3.512,48.767 -6.182,82.034c-0.149,1.856 -1.556,3.312 -3.302,3.312c-8.728,-0.002 -15.083,-0.015 -23.596,-0.026c-8.513,0.011 -14.868,0.024 -23.596,0.026c-1.746,0 -3.162,-1.454 -3.302,-3.312c-3.195,-42.214 -4.258,-56.299 -6.182,-82.034" class="g"/>
    <path fill="#211715" stroke-width="0px" d="m301.95711,28.40905c-0.972,14.308 -2.016,28.612 -3.107,42.912c-0.625,8.188 -1.265,16.376 -1.913,24.562c-0.358,4.523 -0.719,9.047 -1.082,13.57c-0.13,1.619 -0.385,1.902 -1.96,1.902c-2.134,0 -4.268,-0.002 -6.402,-0.004c-8.392,-0.008 -16.783,-0.021 -25.175,-0.009c-4.154,0.006 -8.309,0.011 -12.463,0.013c-1.111,0 -2.726,0.461 -3.064,-0.892c-0.244,-0.977 -0.176,-2.182 -0.253,-3.192c-0.089,-1.177 -0.178,-2.354 -0.267,-3.531c-1.021,-13.497 -2.043,-26.994 -3.06,-40.492c-0.771,-10.232 -1.539,-20.465 -2.305,-30.697c-0.103,-1.38 -0.206,-2.76 -0.31,-4.14c-0.097,-1.293 -1.034,-2.4 -2.4,-2.4c-1.224,0 -2.497,1.1 -2.4,2.4c0.806,10.774 1.614,21.548 2.425,32.322c1.028,13.651 2.061,27.302 3.094,40.953c0.177,2.345 0.355,4.691 0.532,7.036c0.161,2.124 0.289,4.171 1.882,5.772c1.647,1.654 3.702,1.662 5.888,1.661s4.352,-0.003 6.527,-0.005c8.738,-0.009 17.475,-0.016 26.213,-0.005c2.077,0.003 4.155,0.005 6.232,0.007c2.274,0.002 4.667,0.213 6.925,-0.056c1.886,-0.225 3.562,-1.428 4.399,-3.14c1.006,-2.058 0.836,-4.69 1.015,-6.928c0.71,-8.878 1.413,-17.757 2.1,-26.637c1.179,-15.228 2.313,-30.46 3.366,-45.697c0.122,-1.761 0.242,-3.522 0.362,-5.284c0.088,-1.295 -1.166,-2.4 -2.4,-2.4c-1.372,0 -2.312,1.102 -2.4,2.4l0,0l0.001,-0.001z" class="e"/>
    <path stroke-width="0px" fill="#febe69" d="m242.72611,6.15905c-0.349,3.731 -0.87,8.479 -1.247,11.704l-0.031,0.264c9.049,0 50.612,0 59.658,0c-0.022,-0.169 -0.033,-0.264 -0.033,-0.264c-0.428,-3.66 -1.041,-9.283 -1.378,-13.154c-0.086,-0.985 -0.815,-1.729 -1.686,-1.729l-53.466,0c-0.871,0 -1.6,0.745 -1.686,1.729c-0.04,0.46 -0.084,0.946 -0.131,1.45z" class="d"/>
    <path stroke-width="0px" fill="#febe69" d="m308.84711,18.12805l-75.143,0c-0.789,0 -1.429,0.64 -1.429,1.429c0,5.427 0,11.854 0,17.281c0,0.789 0.64,1.429 1.429,1.429l75.143,0c0.789,0 1.429,-0.64 1.429,-1.429c0,-5.427 0,-11.854 0,-17.281c0,-0.789 -0.64,-1.429 -1.429,-1.429z" class="d"/>
    <path fill="#211715" stroke-width="0px" d="m303.47311,17.86305c-0.316,-2.716 -0.616,-5.433 -0.896,-8.153c-0.122,-1.189 -0.241,-2.378 -0.352,-3.568c-0.146,-1.563 -0.182,-3.185 -1.381,-4.364c-1.313,-1.291 -2.863,-1.198 -4.507,-1.198l-49.114,0c-1.163,0 -2.488,-0.153 -3.637,0.12c-3.605,0.856 -3.237,5.328 -3.527,8.191c-0.303,2.993 -0.631,5.984 -0.98,8.973c-0.15,1.29 1.211,2.4 2.4,2.4c1.422,0 2.249,-1.107 2.4,-2.4c0.292,-2.509 0.57,-5.021 0.832,-7.534c0.126,-1.206 0.248,-2.412 0.363,-3.619c0.019,-0.199 0.291,-1.548 0.153,-1.655c0.079,0.061 -0.663,0.343 -0.674,0.325c0.112,0.188 2.163,0 2.384,0l49.842,0c0.277,0 0.889,0.122 1.144,0c0.339,-0.162 -0.697,-0.198 -0.597,-0.325c-0.186,0.236 0.176,1.893 0.209,2.235c0.065,0.67 0.132,1.339 0.2,2.009c0.292,2.857 0.606,5.712 0.938,8.564c0.15,1.287 0.996,2.4 2.4,2.4c1.181,0 2.551,-1.104 2.4,-2.4l0,0l0,-0.001z" class="e"/>
    <path fill="#211715" stroke-width="0px" d="m308.84711,15.72805l-31.596,0c-8.12,0 -16.241,0 -24.361,0l-16.814,0c-1.12,0 -2.399,-0.14 -3.488,0.177c-2.09,0.608 -2.713,2.541 -2.713,4.494c0,1.841 0,3.682 0,5.523c0,3.663 -0.251,7.428 0.019,11.079c0.163,2.201 1.857,3.586 3.993,3.665c0.441,0.016 0.886,0 1.327,0l69.938,0c1.191,0 2.395,0.05 3.585,0c2.733,-0.116 3.938,-2.149 3.938,-4.671c0,-3.809 0,-7.619 0,-11.428c0,-1.713 0.107,-3.467 -0.019,-5.174c-0.161,-2.181 -1.744,-3.427 -3.81,-3.665c-1.29,-0.149 -2.4,1.209 -2.4,2.4c0,1.421 1.107,2.251 2.4,2.4l-0.971,-0.971c0,0.281 0,0.562 0,0.843c0,0.43 0,0.86 0,1.29c0,0.884 0,1.769 0,2.653c0,1.816 0,3.633 0,5.449c0,1.782 0,3.565 0,5.347c0,0.38 -0.087,0.911 0,1.28l0,0.419c1.106,-0.648 1.429,-0.972 0.97,-0.971c-0.015,-0.006 -0.037,0.005 -0.053,0c-0.257,-0.087 -0.695,0 -0.963,0l-18.613,0c-14.883,0 -29.766,0 -44.65,0l-7.227,0c-1.056,0 -2.441,-0.237 -3.479,0c-0.045,0.01 -0.114,-0.018 -0.157,0l0.971,0.971c0,-0.281 0,-0.562 0,-0.843c0,-0.43 0,-0.86 0,-1.29c0,-0.884 0,-1.769 0,-2.653c0,-3.599 0,-7.197 0,-10.796c0,-0.38 0.087,-0.911 0,-1.28l0,-0.419c-1.106,0.648 -1.429,0.972 -0.97,0.971c0.015,0.006 0.037,-0.005 0.053,0c0.094,0.032 0.236,-0.009 0.335,0c0.501,0.045 1.027,0 1.53,0c12.675,0 25.35,0 38.025,0l35.199,0c3.089,0 3.094,-4.8 0,-4.8l0.001,0z" class="e"/>
    <path stroke-width="0px" fill="#febe69" d="m16.24811,82.82405c-1.601,1.613 -2.45,3.873 -2.627,6.139s0.274,4.543 0.993,6.699c2.291,6.876 9.491,10.507 16.518,11.768c11.122,1.996 20.604,2.476 31.874,2.476s20.752,-0.48 31.874,-2.476c7.027,-1.261 14.227,-4.891 16.518,-11.768c0.718,-2.156 1.17,-4.433 0.993,-6.699c-0.177,-2.266 -1.026,-4.526 -2.627,-6.139" class="d"/>
    <path fill="#211715" stroke-width="0px" d="m14.55111,81.12705c-3.544,3.757 -3.953,9.061 -2.648,13.865c1.159,4.266 3.673,7.678 7.254,10.235c3.268,2.333 7.235,3.75 11.16,4.484c5.142,0.961 10.358,1.61 15.571,2.02c10.157,0.8 20.464,0.817 30.633,0.243c5.085,-0.287 10.153,-0.821 15.187,-1.596c4.368,-0.672 8.615,-1.526 12.571,-3.583c4.166,-2.167 7.577,-5.555 9.249,-9.986c1.961,-5.198 1.921,-11.451 -2.07,-15.681c-2.124,-2.252 -5.514,1.147 -3.394,3.394c2.797,2.966 2.216,7.703 0.772,11.179c-1.236,2.977 -3.735,5.175 -6.507,6.697c-3.256,1.787 -6.851,2.535 -10.482,3.128c-4.407,0.72 -8.845,1.216 -13.3,1.522c-9.198,0.632 -18.497,0.649 -27.705,0.198c-4.402,-0.215 -8.804,-0.584 -13.171,-1.189c-3.974,-0.55 -8.059,-1.085 -11.802,-2.604c-3.377,-1.37 -6.532,-3.614 -8.273,-6.881c-1.881,-3.531 -2.623,-8.901 0.347,-12.05c2.119,-2.246 -1.269,-5.647 -3.394,-3.394l0,0l0.002,-0.001z" class="e"/>
    <path fill="#f2635f" stroke-width="0px" d="m14.86011,67.21205c-1.972,0.885 -3.344,2.306 -4.203,4.025c-0.792,1.586 -0.28,10.919 1.007,12.195c0.575,0.571 1.436,1.224 2.326,1.773c0.53,0.202 0.874,0.335 0.874,0.335c6.611,2.545 27.296,4.513 48.131,4.513s41.487,-1.964 48.115,-4.507l1.111,-0.426c0.662,-0.356 1.247,-0.749 1.63,-1.145c1.421,-1.468 2.408,-10.007 1.572,-12.07c-0.673,-1.661 -1.9,-3.444 -4.174,-5.247" class="f"/>
    <path fill="#211715" stroke-width="0px" d="m13.64811,65.14005c-2.294,1.089 -4.656,3.198 -5.402,5.713c-0.47,1.583 -0.4,3.417 -0.346,5.05c0.066,2.003 0.243,4.039 0.649,6.003c0.437,2.112 1.37,3.339 3.121,4.623c2.974,2.181 7.321,2.69 10.866,3.257c5.496,0.88 11.047,1.421 16.596,1.824c13.596,0.986 27.266,1.1 40.88,0.418c5.95,-0.298 11.898,-0.739 17.813,-1.459c4.208,-0.513 8.52,-1.038 12.593,-2.26c2.096,-0.629 4.57,-1.474 5.748,-3.444c1.122,-1.876 1.407,-4.281 1.681,-6.404c0.275,-2.135 0.53,-4.48 0.053,-6.608c-0.618,-2.757 -2.833,-5.168 -4.953,-6.89c-1.005,-0.817 -2.411,-0.983 -3.394,0c-0.844,0.844 -1.011,2.572 0,3.394c0.959,0.779 1.908,1.619 2.632,2.628c0.293,0.409 0.553,0.844 0.782,1.292c-0.029,-0.057 0.349,0.849 0.228,0.478c-0.079,-0.242 0.067,0.323 0.076,0.374c0.021,0.115 0.051,0.441 -0.005,-0.071c0.015,0.141 0.031,0.288 0.036,0.431c0.014,0.41 0.032,0.817 0.028,1.227c-0.009,0.953 -0.076,1.906 -0.177,2.853c-0.153,1.43 -0.43,3.161 -0.995,4.639c0.198,-0.518 -0.132,0.215 -0.216,0.357c0.363,-0.616 0.162,-0.159 -0.04,-0.049c-0.206,0.113 -0.392,0.265 -0.6,0.375c-0.573,0.304 -1.251,0.506 -1.87,0.701c-3.284,1.032 -6.759,1.542 -10.162,1.995c-5.315,0.707 -10.669,1.141 -16.02,1.464c-12.488,0.753 -25.023,0.801 -37.518,0.166c-5.5,-0.28 -10.998,-0.685 -16.47,-1.317c-3.853,-0.445 -7.744,-0.968 -11.5,-1.962c-0.709,-0.188 -1.411,-0.397 -2.1,-0.65c-0.303,-0.111 -0.567,-0.234 -0.839,-0.394c-0.283,-0.167 -0.561,-0.375 -0.817,-0.579c-0.13,-0.106 -0.257,-0.215 -0.381,-0.328c-0.297,-0.309 -0.344,-0.338 -0.142,-0.088c0,0 0.309,0.178 -0.005,-0.058c0.193,0.145 0.148,0.46 0.007,-0.014c-0.096,-0.322 -0.185,-0.644 -0.259,-0.973c-0.229,-1.029 -0.27,-1.445 -0.362,-2.415c-0.182,-1.905 -0.244,-3.825 -0.105,-5.735c0.009,-0.129 0.076,-0.481 -0.02,0.079c0.003,-0.018 0.096,-0.458 0.086,-0.463c0.001,0 0.163,-0.605 -0.013,-0.059c-0.162,0.503 0.36,-0.606 0.456,-0.745c0.711,-1.033 1.684,-1.698 2.804,-2.23c1.171,-0.556 1.475,-2.233 0.861,-3.284c-0.701,-1.198 -2.108,-1.419 -3.284,-0.861l0,0l-0.001,-0.001z" class="e"/>
    <path fill="#a98a75" stroke-width="0px" d="m13.86511,53.01205c-2.587,1.913 -3.696,5.055 -3.674,8.403c0.022,2.413 0.848,5.588 2.131,6.86c0.758,0.766 2.024,1.673 3.191,2.286c7.235,2.425 27.288,4.273 47.482,4.273c19.873,0 39.609,-1.79 47.126,-4.164c1.241,-0.496 2.573,-1.206 3.256,-1.917c1.402,-1.468 2.544,-4.24 2.435,-6.642c-0.13,-2.642 0.011,-6.479 -4.729,-10.436" class="h"/>
    <path fill="#211715" stroke-width="0px" d="m12.16811,51.31505c-4.092,3.17 -5.021,8.872 -3.936,13.68c0.538,2.384 1.573,4.415 3.507,5.935c1.634,1.285 3.267,2.056 5.261,2.552c3.837,0.954 7.792,1.47 11.713,1.934c5.308,0.629 10.642,1.037 15.978,1.325c12.037,0.65 24.111,0.658 36.149,0.024c9.24,-0.486 18.782,-1.034 27.81,-3.206c2.214,-0.533 4.492,-1.325 6.199,-2.897c2.079,-1.914 3.201,-5.016 3.356,-7.783c0.282,-5.045 -1.578,-9.604 -5.426,-12.902c-0.984,-0.843 -2.428,-0.966 -3.394,0c-0.863,0.863 -0.988,2.547 0,3.394c1.489,1.276 2.863,2.748 3.476,4.652c0.448,1.392 0.485,2.318 0.54,3.876c0.064,1.78 -0.448,4.015 -1.834,5.262c-1.115,1.004 -2.658,1.396 -4.077,1.741c-7.846,1.909 -16.099,2.433 -24.131,2.92c-10.996,0.667 -22.026,0.782 -33.034,0.375c-9.137,-0.338 -18.365,-0.875 -27.392,-2.4c-3.009,-0.508 -7.216,-0.884 -9.062,-3.388c-1.222,-1.658 -1.429,-4.361 -1.227,-6.332c0.224,-2.188 1.178,-4.022 2.917,-5.368c1.026,-0.794 0.835,-2.559 0,-3.394c-1.012,-1.012 -2.366,-0.797 -3.394,0l0,0l0.001,0z" class="e"/>
    <path fill="#74c66d" stroke-width="0px" d="m112.90511,39.02105l0.932,0.829c3.614,3.215 3.931,8.907 0.449,12.265c-0.633,0.611 -1.354,1.166 -2.153,1.647c-2.687,1.618 -6.17,2.348 -9.543,2.135c-2.637,-0.167 -5.148,0.834 -6.98,2.737c-0.224,0.233 -0.488,0.451 -0.801,0.655c-1.742,1.132 -3.701,1.628 -5.954,1.808c-3.196,0.256 -6.063,-0.369 -8.462,-1.64c-2.469,-1.308 -5.474,-1.312 -7.92,0.039c-2.303,1.272 -5.305,2.311 -9.467,2.311s-7.016,-0.737 -9.173,-1.877c-2.383,-1.26 -5.182,-1.32 -7.564,-0.057c-2.51,1.332 -5.578,1.815 -8.835,1.554c-2.253,-0.18 -4.212,-0.676 -5.954,-1.808c-0.485,-0.316 -0.885,-0.666 -1.216,-1.057c-1.672,-1.973 -4.261,-2.827 -6.842,-2.664c-3.373,0.213 -6.857,-0.517 -9.543,-2.135c-0.261,-0.157 -0.514,-0.323 -0.758,-0.495c-4.676,-3.303 -4.436,-10.36 0.23,-13.677l0.8,-0.569" class="i"/>
    <path stroke-width="0px" fill="#febe69" d="m63.00511,6.82905c-9.453,0 -19.378,1.368 -28.363,5.321c-8.635,3.799 -16.564,10.899 -20.005,20.76l0,0c-1.68,4.841 1.124,9.151 6.232,9.553c14.099,1.11 28.084,1.809 42.129,1.732c14.043,0.077 27.902,-0.603 42.145,-1.733c5.105,-0.405 7.909,-4.715 6.23,-9.553l0,0c-3.44,-9.861 -11.37,-16.962 -20.005,-20.761c-8.985,-3.953 -18.535,-5.321 -28.363,-5.321l0,0.002z" class="d"/>
    <path fill="#211715" stroke-width="0px" d="m63.00511,4.42905c-15.279,0.034 -32.089,3.458 -42.923,15.075c-2.472,2.65 -4.605,5.662 -6.172,8.934c-1.466,3.059 -2.799,6.42 -1.801,9.84c0.909,3.117 3.479,5.441 6.598,6.248c2.048,0.531 4.289,0.505 6.389,0.658c2.316,0.168 4.632,0.325 6.949,0.468c18.186,1.122 36.438,1.288 54.638,0.407c4.588,-0.222 9.172,-0.506 13.753,-0.838c3.835,-0.278 7.881,-0.153 10.924,-2.863c5.658,-5.039 1.703,-13.181 -1.752,-18.243c-8.995,-13.181 -24.899,-18.436 -40.197,-19.477c-2.133,-0.145 -4.27,-0.204 -6.407,-0.209c-3.089,-0.007 -3.093,4.793 0,4.8c13.805,0.03 29.004,2.831 39.012,13.125c2.206,2.269 4.056,4.825 5.507,7.639c1.115,2.161 2.526,4.941 1.659,7.287c-0.818,2.215 -3.183,2.719 -5.53,2.9c-4.186,0.323 -8.374,0.609 -12.565,0.847c-16.685,0.947 -33.43,1.06 -50.125,0.304c-4.216,-0.191 -8.429,-0.434 -12.64,-0.72c-2.154,-0.146 -4.307,-0.303 -6.46,-0.469c-1.28,-0.099 -2.523,-0.246 -3.6,-1.01c-1.784,-1.266 -2.033,-3.435 -1.313,-5.583c0.973,-2.902 2.541,-5.647 4.366,-8.094c8.333,-11.177 22.876,-15.271 36.192,-16.065c1.83,-0.109 3.663,-0.157 5.496,-0.161c3.088,-0.007 3.094,-4.807 0,-4.8l0.002,0z" class="e"/>
    <path fill="#211715" stroke-width="0px" d="m111.20711,40.71805c1.033,0.919 2.043,1.793 2.616,3.088c0.667,1.507 0.7,3.355 0.024,4.867c-1.725,3.858 -7.069,4.976 -10.837,4.846c-2.462,-0.085 -4.852,0.335 -6.959,1.685c-0.907,0.581 -1.607,1.378 -2.456,2.013c-0.856,0.641 -1.938,0.979 -2.966,1.214c-2.167,0.495 -4.519,0.455 -6.663,-0.129c-1.114,-0.303 -2.072,-0.808 -3.12,-1.27c-1.281,-0.564 -2.613,-0.877 -4.015,-0.944c-2.502,-0.119 -4.454,0.87 -6.643,1.883c-1.818,0.841 -3.845,1.285 -5.84,1.398c-2.241,0.127 -4.543,0.018 -6.721,-0.549c-1.979,-0.515 -3.653,-1.707 -5.717,-2.07c-1.32,-0.232 -2.606,-0.236 -3.926,0.003s-2.415,0.874 -3.626,1.389c-2.104,0.894 -4.449,1.057 -6.704,0.9c-2.052,-0.143 -4.233,-0.644 -5.695,-2.178c-1.621,-1.701 -3.64,-2.847 -5.978,-3.211c-2.751,-0.429 -5.43,0.051 -8.155,-0.762c-1.991,-0.594 -4.059,-1.646 -5.052,-3.557c-1.595,-3.068 -0.153,-6.293 2.586,-8.241c1.055,-0.75 1.557,-2.094 0.861,-3.284c-0.61,-1.043 -2.222,-1.616 -3.284,-0.861c-1.639,1.165 -3.119,2.384 -4.135,4.159c-1.09,1.905 -1.641,4.199 -1.429,6.391c0.509,5.279 4.468,8.676 9.375,10.077c1.343,0.384 2.744,0.6 4.136,0.705c1.352,0.102 2.738,-0.144 4.079,0.041c0.948,0.131 1.902,0.47 2.677,1.04c1.061,0.78 1.796,1.838 2.957,2.533c4.646,2.782 11.368,2.614 16.184,0.391c1.01,-0.466 1.922,-0.921 3.064,-0.932c1.214,-0.012 2.209,0.391 3.286,0.903c2.16,1.026 4.414,1.542 6.785,1.796c2.805,0.3 5.693,0.189 8.448,-0.436c1.065,-0.242 2.093,-0.584 3.102,-1.002c1.064,-0.441 2.075,-1.108 3.17,-1.453c2.618,-0.824 4.541,0.54 6.91,1.405c2.644,0.966 5.565,1.167 8.343,0.821c2.72,-0.338 5.364,-1.17 7.418,-3.057c0.756,-0.694 1.506,-1.305 2.488,-1.66c1.221,-0.442 2.368,-0.362 3.64,-0.341c5.771,0.096 12.581,-2.362 14.915,-8.076c0.988,-2.419 1.043,-5.253 0.115,-7.704c-0.811,-2.143 -2.177,-3.728 -3.862,-5.227c-2.301,-2.047 -5.708,1.336 -3.394,3.394l0,0l-0.002,0.002z" class="e"/>
   </g>
  </g>
 </g>

</svg>