<svg id="b" xmlns="http://www.w3.org/2000/svg" width="213.711" height="255.332" viewBox="0 0 213.711 255.332" style="color: initial !important;"><defs><style>.e{fill:#a0a0a0;}.f{fill:#211715;}.g{fill:#645d5c;}</style></defs><g id="c"><g id="d"><path class="g" d="M165.431,226.014c-8.68-.5-19.01.81-25.92,6.15l-.61-2.35c-2.89-8.01-4.93-16.33-6.13-24.77l.16-.02c8.3.71,16.65.71,24.94.01l2.98-.01c.92,7.11,2.45,14.14,4.58,20.99Z"/><path class="e" d="M140.811,247.254c-2.532.855-5.258-.79-6.06-3.303-1.008-3.161.177-7.308,2.421-9.678,7.521-7.944,21.343-9.147,31.557-7.968,1.038.12,2.1.283,3.007.803,4.223,2.42,3.736,7.995,1.684,11.735-2.35,4.283-7.54,6.846-12.363,6.283-1.166-.136-2.157,1.048-3.186,1.548-1.304.633-2.721,1.034-4.158,1.21-1.886.231-3.925.105-5.729-.526-1.488-.52-2.945-1.946-4.646-1.426-.652.2-1.186.663-1.783.993-.244.135-.493.244-.743.329Z"/><path class="f" d="M140.173,244.94c-2.753.811-3.61-2.393-3.329-4.497.384-2.873,2.213-5.026,4.497-6.669,4.922-3.54,11.092-4.961,17.058-5.343,3.008-.193,6.034-.138,9.035.14,1.269.118,2.659.171,3.686,1.007.86.701,1.282,1.763,1.398,2.748.664,5.646-4.61,10.439-10.042,10.476-.923.006-1.826-.18-2.738.07-.999.274-1.763.925-2.618,1.462-1.627,1.021-3.741,1.313-5.63,1.249-.968-.033-2-.177-2.901-.554-.87-.364-1.65-.899-2.54-1.233-.946-.355-1.994-.473-2.989-.261-1.118.238-1.869,1.009-2.887,1.405-1.207.47-2.045,1.611-1.676,2.952.317,1.152,1.738,2.149,2.952,1.676.58-.226,1.135-.461,1.668-.781.249-.15.607-.509.896-.554.629-.097,1.429.58,1.962.846,2.1,1.047,4.522,1.427,6.856,1.285,2.275-.138,4.756-.658,6.71-1.885.369-.232.703-.528,1.081-.745.595-.342.155-.142.787-.172,1.058-.051,2.064.013,3.126-.139,7.65-1.096,13.894-8.317,12.645-16.194-.641-4.041-3.788-6.706-7.743-7.234-3.591-.479-7.245-.595-10.86-.376-7.487.454-15.16,2.312-21.097,7.108-3.46,2.795-5.815,6.949-5.461,11.514.173,2.232.976,4.391,2.733,5.859,1.88,1.571,4.329,2.164,6.697,1.467,2.957-.871,1.698-5.504-1.276-4.629Z"/><path class="g" d="M17.972,64.126c-4.178,20.194-9.105,44.009-9.105,44.009C-1.058,148.059.522,193.391,13.047,231.987c.915-.871,2.141-1.263,3.344-1.594,9.583-2.634,22.587-3.697,31.852,1.378.816-14.677,1.635-26.844,2.452-41.712,9.116,4.389,19.117,6.926,29.23,7.964,1.45,11.094,3.915,22.054,7.385,32.694,0,0,.252,1.015.594,2.389,1.464-.998,3.082-1.784,4.576-2.334,6.884-2.534,14.489-2.469,21.606-1.035,3.421.689,7.369,2.51,9.992,5.234.488-1.415.935-2.71.935-2.71,3.061-9.067,5.621-18.129,7.671-27.255,9.355.809,18.787.724,28.126-.252,1.15,9.006,3.278,17.896,6.351,26.448,9.368-3.56,21.314-1.8,30.307,1.219,8.616-17.64,13.34-37.167,13.757-56.796.303-14.256.198-29.952-7.929-41.668-10.587-15.263-30.347-19.659-44.097-31.102-9.468-7.879-16.68-19.451-29.083-23.081,0,0-2.63-.77-5.261-1.54-1.944-13.233-3.887-26.466-3.887-26.466-3.39-23.079-23.201-46.355-47.158-49.13C52.708.193,29.314,15.666,23.717,36.358c0,0-2.67,12.903-5.745,27.767Z"/><path class="f" d="M129.479,82.087c11.059,3.32,17.917,13.376,26.105,20.793,8.402,7.612,18.8,12.132,28.493,17.786,4.702,2.743,9.246,5.789,13.09,9.673,4.166,4.21,7.164,9.277,8.928,14.928,1.835,5.877,2.502,12.015,2.722,18.145.233,6.502.145,13.07-.348,19.558-1.197,15.761-5.254,31.349-11.867,45.705-.542,1.176-.334,2.585.861,3.284,1.035.605,2.739.322,3.284-.861,6.223-13.508,10.269-27.864,11.993-42.637.796-6.817,1.005-13.679.966-20.538-.037-6.59-.427-13.239-1.858-19.69-1.352-6.095-3.763-11.998-7.568-16.98-3.629-4.751-8.182-8.591-13.156-11.874-9.515-6.28-20.447-10.397-29.396-17.544-10.329-8.25-17.694-20.39-30.974-24.377-2.965-.89-4.232,3.741-1.276,4.629h0Z"/><path class="e" d="M49.418,248.028c2.824.492,5.445-1.699,5.883-4.494.551-3.516-1.384-7.718-4.151-9.863-9.275-7.189-24.124-6.201-34.759-3.278-1.081.297-2.18.644-3.056,1.343-4.08,3.258-2.651,9.087.137,12.716,3.193,4.156,9.114,6.022,14.135,4.636,1.214-.335,2.459.758,3.631,1.119,1.486.458,3.054.65,4.606.601,2.037-.064,4.178-.532,5.987-1.496,1.492-.795,2.803-2.546,4.691-2.272.724.105,1.366.509,2.053.761.281.103.562.178.842.227Z"/><path class="e" d="M123.097,249.336c-3.36,2.887-8.077,3.985-12.086,1.706-.633-.36-1.277-.805-2.005-.789-.963.021-1.694.824-2.465,1.401-2.13,1.594-5.128,1.599-7.623.675s-4.601-2.644-6.646-4.347c-3.577.628-7.445-1.585-8.715-4.987-2.256-6.039,4.001-10.412,8.925-12.224,6.884-2.534,14.489-2.469,21.606-1.035,6.402,1.29,14.654,6.542,12.601,14.27-.528,1.986-1.801,3.71-3.323,5.092-.089.08-.178.159-.269.237Z"/><path class="f" d="M141.213,229.175c-2.942-8.228-5.014-16.732-6.214-25.386-.178-1.285-1.82-1.987-2.952-1.676-1.384.38-1.855,1.663-1.676,2.952,1.199,8.654,3.272,17.159,6.214,25.386.436,1.22,1.636,2.038,2.952,1.676,1.18-.324,2.115-1.726,1.676-2.952h0Z"/><path class="e" d="M44.761,141.295c-3.867-.684-7.691-1.82-11.609-2.162-5.956-.519-12.966,1.555-14.818,7.432.678,13.31,7.354,25.214,17.404,33.802,12.396,10.594,28.149,16.01,44.187,17.655-2.302-17.533-2.074-35.4.706-52.863-.909-1.003-1.455-1.606-1.455-1.606-3.417-3.769-9.105-4.478-14.159-3.89-5.054.589-9.999,2.218-15.086,2.166-1.74-.018-3.46-.232-5.17-.535Z"/><path class="f" d="M26.031,36.996c4.493-16.313,19.855-28.53,36.183-31.567,17.49-3.254,34.293,6.471,44.724,20.022,6.039,7.845,10.241,17.145,11.716,26.954.193,1.283,1.81,1.99,2.952,1.676,1.373-.377,1.87-1.666,1.676-2.952-2.81-18.678-15.311-36.441-31.975-45.351C83.055,1.365,73.64-.84,64.295.295c-9.172,1.114-17.944,4.802-25.281,10.406-8.261,6.31-14.827,14.909-17.612,25.019-.821,2.982,3.808,4.255,4.629,1.276h0Z"/><path class="f" d="M157.525,183.384c-.702,16.43,1.793,32.977,7.327,48.464.436,1.22,1.636,2.038,2.952,1.676,1.18-.324,2.114-1.726,1.676-2.952-5.405-15.127-7.84-31.138-7.155-47.188.132-3.089-4.668-3.082-4.8,0h0Z"/><path class="f" d="M132.933,207.427c8.302.69,16.64.691,24.942.004,1.292-.107,2.4-1.027,2.4-2.4,0-1.216-1.101-2.508-2.4-2.4-8.302.687-16.64.686-24.942-.004-1.293-.108-2.4,1.18-2.4,2.4,0,1.388,1.103,2.292,2.4,2.4h0Z"/><path class="f" d="M89.625,230.078c-7.532-23.199-10.293-47.794-8.172-72.091.6-6.869,1.613-13.689,3.003-20.443.261-1.268-.369-2.593-1.676-2.952-1.188-.326-2.69.401-2.952,1.676-5.046,24.515-5.127,49.927-.225,74.472,1.392,6.971,3.199,13.853,5.394,20.613.95,2.926,5.586,1.674,4.629-1.276h0Z"/><path class="f" d="M136.273,157.57c-.614,19.557-3.52,38.95-8.637,57.836-1.478,5.455-3.133,10.861-4.936,16.217-.988,2.934,3.646,4.193,4.629,1.276,6.378-18.943,10.72-38.517,12.665-58.418.549-5.623.902-11.264,1.079-16.911.097-3.09-4.703-3.086-4.8,0h0Z"/><path class="f" d="M14.836,229.704c-4.724-15.058-7.733-30.638-9.117-46.355-1.413-16.039-1.211-32.234.665-48.227,1.041-8.873,2.652-17.678,4.798-26.35.742-2.999-3.886-4.278-4.629-1.276C2.652,123.259.554,139.474.095,155.701c-.464,16.43.771,32.916,3.689,49.091,1.597,8.852,3.73,17.604,6.423,26.187.922,2.937,5.557,1.683,4.629-1.276h0Z"/><path class="f" d="M48.168,192.372c-.725,12.91-1.565,25.813-2.29,38.722-.173,3.086,4.627,3.076,4.8,0,.725-12.91,1.565-25.813,2.29-38.722.173-3.086-4.627-3.076-4.8,0h0Z"/><path class="f" d="M15.928,146.433c.609,11.612,5.501,22.46,13.323,31.006,8.149,8.903,19.105,15.088,30.495,18.82,6.551,2.147,13.337,3.448,20.187,4.164,1.291.135,2.4-1.2,2.4-2.4,0-1.41-1.105-2.265-2.4-2.4-21.46-2.244-44.542-12.167-54.721-32.339-2.641-5.233-4.177-10.999-4.484-16.851-.161-3.073-4.962-3.092-4.8,0h0Z"/><path class="e" d="M113.179,55.271c2.827-1.27,5.92-1.876,8.917-1.351s5.889,2.245,7.757,5.018c2.671,3.964,2.904,9.799.866,14.241s-6.121,7.413-10.421,8.039"/><path class="e" d="M57.471,37.717c-.84.166-1.683.337-2.528.508-4.162.845-7.921.689-12.104-.083-5.306-.979-10.538-1.811-15.904-.825-6.871,1.262-12.647,5.442-14.763,12.328-.967,3.146-1.086,6.499-.559,9.737.279,1.711.741,3.39,1.352,5.012.32.848,1.859,2.917,1.829,3.679-.066,1.697-2.109,3.496-3.149,4.662-1.391,1.558-2.745,3.178-3.762,5.018-4.602,8.33-3.235,20.198.709,28.412,2.137,4.451,5.902,7.481,9.847,10.449,6.205,4.668,13.403,6.127,21.938,6.455,6.568.253,12.036.164,19.694-1.15,8.931-1.532,16.697-4.24,21.948-11.67,1.519-2.15,2.87-4.376,3.875-6.82,3.773-9.177,2.382-20.626-5.12-27.605,11.94-7.423,11.715-24.081,1.605-33.285-7.706-7.015-15.737-6.631-24.909-4.823Z"/><path class="f" d="M20.729,146.906c3.138-6.941,12.391-5.645,18.364-4.343,4.567.995,9.129,1.99,13.83,1.522,4.567-.455,9.008-1.872,13.589-2.154,3.921-.242,8.154.326,10.967,3.32,2.12,2.256,5.509-1.143,3.394-3.394-3.034-3.229-7.379-4.558-11.708-4.752-4.866-.218-9.605,1.163-14.367,1.932-5.059.816-9.719-.081-14.655-1.151-4.446-.964-8.888-1.678-13.401-.743-4.209.872-8.333,3.305-10.158,7.341-.534,1.18-.339,2.582.861,3.284,1.028.602,2.747.326,3.284-.861h0Z"/><path class="f" d="M29.016,62.057c-.66,2.136-.245,7.045,3.785,7.452,5.328-.046,5.626-5.983,3.84-8.77-1.463-2.281-5.778-3.22-7.624,1.317Z"/><path class="f" d="M56.151,62.057c-.66,2.136-.245,7.045,3.785,7.452,5.328-.046,5.626-5.983,3.84-8.77-1.463-2.281-5.778-3.22-7.624,1.317Z"/><path class="f" d="M56.833,35.402c-2.183.432-4.327.901-6.56.975-2.286.076-4.548-.149-6.795-.55-4.805-.858-9.701-1.718-14.596-1.192-7.382.793-14.59,4.504-17.877,11.461-1.945,4.116-2.438,8.656-1.818,13.14.309,2.234.82,4.606,1.831,6.639.32.644.726,1.243,1.078,1.869.073.13.144.26.214.391.029.053.222.567.15.302-.108-.398.064-.402-.152-.221-.212.178-.352.595-.534.831-.256.333-.555.637-.842.944-.685.732-1.365,1.463-2.013,2.23-1.428,1.689-2.75,3.47-3.696,5.478-1.706,3.623-2.506,7.567-2.62,11.561-.218,7.643,1.786,16.295,6.668,22.323,2.533,3.128,5.903,5.78,9.235,8.009,3.229,2.16,6.926,3.641,10.701,4.521,4.066.947,8.254,1.268,12.417,1.4,4.039.128,8.078.078,12.101-.322,7.668-.764,15.893-2.105,22.535-6.269,12.983-8.138,18.534-27.28,9.867-40.428-1.047-1.588-2.274-3.06-3.654-4.366l-.486,3.769c7.793-4.935,11.37-13.799,9.892-22.806-1.528-9.312-8.851-17.535-17.97-20.023-5.606-1.53-11.469-.76-17.076.335-1.273.248-2.001,1.771-1.676,2.952.365,1.33,1.676,1.925,2.952,1.676,4.097-.8,8.446-1.489,12.607-.76,4.326.758,8.132,2.951,11.15,6.125,4.871,5.122,6.839,12.682,4.753,19.333-1.173,3.74-3.719,6.911-7.057,9.024-1.269.803-1.645,2.672-.486,3.769,10.325,9.775,7.294,27.056-3.006,35.66-5.259,4.392-12.418,5.831-19.011,6.803-7.384,1.088-15.212,1.192-22.618.223-3.424-.448-6.905-1.278-10.03-2.775-3.255-1.559-6.196-3.801-8.859-6.221s-4.595-5.159-5.852-8.529c-1.23-3.295-2.024-6.775-2.244-10.288s.069-7.054,1.184-10.417c1.167-3.517,3.468-6.167,5.926-8.853,1.222-1.335,2.574-2.995,2.613-4.902.031-1.523-.908-2.825-1.643-4.091-1.802-3.104-2.159-7.611-1.676-11.11.909-6.581,5.679-11.346,11.991-13.008,4.071-1.072,8.375-.851,12.501-.221,4.438.677,8.778,1.677,13.301,1.303,2.182-.18,4.313-.642,6.456-1.066,1.272-.252,2.002-1.768,1.676-2.952-.365-1.327-1.676-1.929-2.952-1.676Z"/><path class="f" d="M120.937,83.533c6.828-1.092,12.233-6.986,13.275-13.733,1.14-7.38-2.082-14.89-9.351-17.611-4.259-1.594-8.847-.755-12.894,1.01-1.188.518-1.46,2.259-.861,3.284.717,1.227,2.091,1.381,3.284.861,3.263-1.423,7.128-1.785,10.312.024,2.795,1.588,4.423,4.409,4.868,7.55.931,6.559-3.281,12.926-9.91,13.986-1.281.205-1.993,1.801-1.676,2.952.375,1.364,1.668,1.882,2.952,1.676h0Z"/><path class="f" d="M25.752,61.485c7.572.164,15.144.328,22.716.493,3.786.082,7.572.164,11.358.246,3.693.08,7.375.116,11.001-.699,3.013-.677,1.738-5.306-1.276-4.629-3.431.771-6.974.587-10.465.511l-11.111-.241c-7.407-.161-14.815-.321-22.222-.482-3.09-.067-3.089,4.733,0,4.8h0Z"/><path class="f" d="M109.266,55.795c1.477,1.171,2.249,2.949,2.916,4.669.882,2.271,1.729,4.556,2.417,6.894,1.525,5.183,2.356,10.512,2.584,15.906.13,3.077,4.931,3.094,4.8,0-.252-5.96-1.161-11.915-2.888-17.63-.728-2.407-1.6-4.783-2.548-7.113-.905-2.225-1.954-4.59-3.887-6.121-1.015-.804-2.403-.991-3.394,0-.835.835-1.021,2.585,0,3.394h0Z"/><path class="f" d="M36.195,84.329c-.15-.126-.517-.671-.263-.215-.069-.106-.131-.216-.186-.329.1.255.122.299.065.133.002-.102-.105-.85-.083-.207-.005-.148.073-.937-.042-.328.037-.194.092-.374.141-.564-.135.519.09-.139.185-.292-.271.439.026-.011.129-.112.095-.092.193-.179.296-.262-.222.174-.221.185.003.031.068-.032.707-.336.433-.238-.281.101.417-.105.482-.126.277-.052.264-.056-.041-.014.133-.014.267-.022.401-.025.141-.003.726.067.155-.03.259.044.515.108.761.203-.521-.202.059.066.17.146-.442-.32.349.551.054.079.08.123.152.251.215.384-.1-.233-.105-.215-.015.053.661,2.281,3.967,2.284,4.629,0,.09-.268.085-.286-.015-.053.063-.133.135-.26.215-.384-.3.48.357-.325.124-.13-.226.189.752-.348.1-.096.246-.095.501-.156.761-.203-.568.103.04.028.155.03.134.003.267.011.401.025-.305-.043-.319-.038-.041.014.191.063.39.109.582.171-.526-.169.224.141.333.193.224.154.225.144.003-.031.077.062.152.127.223.195.102.105.48.63.201.179.094.152.321.811.185.292.049.189.105.372.141.564-.115-.609-.037.179-.042.328.02-.576-.025-.037-.053.117-.089.256-.077.242.036-.042-.056.113-.118.223-.186.329.254-.456-.113.089-.263.215-.964.811-.899,2.569,0,3.394,1.026.942,2.365.865,3.394,0,1.457-1.226,2.063-3.259,1.814-5.105-.261-1.943-1.363-3.552-3.03-4.58-3.518-2.169-8.462-.853-9.665,3.302h4.629c-1.206-4.165-6.141-5.457-9.665-3.302-1.535.939-2.701,2.464-2.987,4.261-.311,1.958.202,4.104,1.772,5.424.96.807,2.466,1.011,3.394,0,.817-.89,1.026-2.531,0-3.394h0Z"/><path class="f" d="M25.594,104.684c10.952,1.355,21.957,1.763,32.981,1.311,3.078-.126,3.094-4.927,0-4.8-11.024.452-22.03.044-32.981-1.311-1.289-.159-2.4,1.217-2.4,2.4,0,1.43,1.108,2.24,2.4,2.4h0Z"/><path class="f" d="M48.78,250.342c4.718.64,8.563-2.601,8.982-7.324.353-3.986-1.722-8.423-4.783-10.938-6.33-5.203-15.068-6.579-23.033-6.246-4.05.17-8.104.76-12.047,1.695-2.087.495-4.295.98-6.019,2.322-1.612,1.255-2.811,3.07-3.237,5.082-1.715,8.102,5.347,15.654,13.02,16.791,1.159.172,2.322.267,3.493.182.686-.049,1.374-.141,2.05-.266.232-.043.467-.09.695-.149.218-.057.456-.011.166-.064.557.102,1.093.497,1.606.723.668.295,1.342.509,2.056.662,1.411.303,2.877.45,4.32.386,2.53-.112,5.244-.692,7.409-2.063.762-.482,1.507-1.363,2.369-1.644.881-.287,2.067.654,2.952.85,3.01.666,4.296-3.961,1.276-4.629-.936-.207-1.754-.715-2.681-.94-1.04-.253-2.115-.179-3.113.198-1.534.58-2.622,1.83-4.098,2.5-1.698.772-3.637,1.013-5.484.926-.936-.044-1.919-.179-2.803-.505-.86-.317-1.638-.854-2.533-1.094-1.73-.463-3.496.355-5.257.341-1.485-.012-2.987-.309-4.364-.876-2.706-1.115-4.891-3.311-5.921-6.056-.872-2.324-1.055-5.46,1.439-6.863,1.388-.781,3.241-1.039,4.785-1.383,1.585-.353,3.184-.651,4.792-.875,6.506-.907,13.436-.801,19.639,1.554,3.181,1.208,6.348,3.11,7.787,6.321.608,1.356,1.054,3.159.589,4.619-.35,1.099-1.507,2.305-2.777,2.133-1.283-.174-2.577.309-2.952,1.676-.307,1.119.383,2.777,1.676,2.952Z"/><path class="f" d="M121.4,247.639c-2.362,1.969-5.739,2.941-8.642,1.611-.818-.375-1.541-.922-2.41-1.193-1.136-.355-2.348-.197-3.393.348-1.393.726-2.243,1.918-3.898,2.117-3.811.459-6.492-2.441-9.33-4.423-.927-.648-1.804-.386-2.847-.411-.704-.017-1.439-.185-2.086-.471-1.238-.547-2.321-1.554-2.887-2.789-2.575-5.623,6.092-9.215,10.204-10.272,3.919-1.008,7.986-1.189,12.009-.866,3.175.255,6.507.724,9.425,2.069,2.64,1.217,5.406,3.09,6.581,5.858,1.316,3.097-.255,6.241-2.726,8.423-2.32,2.049,1.085,5.433,3.394,3.394,4.515-3.988,6.193-10.478,2.657-15.683-2.958-4.354-8.085-7.028-13.161-8.013-6.897-1.339-14.194-1.485-20.96.618-4.978,1.547-10.652,4.647-12.274,9.983-.975,3.204.061,6.679,2.258,9.123,2.434,2.709,6.072,3.764,9.597,3.236l-2.335-.617c2.586,2.15,5.299,4.366,8.616,5.251,3.369.899,6.578.286,9.336-1.805.172-.131.48-.469.692-.5-.15.022-.302.036-.057.121.679.234,1.329.734,2.002,1.014,1.465.61,3.05.929,4.642.903,3.377-.055,6.434-1.5,8.989-3.631.996-.831.858-2.536,0-3.394-.986-.986-2.395-.833-3.394,0Z"/><path class="e" d="M163.224,248.378c-2.909.313-5.433-2.093-5.693-4.969-.328-3.618,1.924-7.769,4.885-9.77,9.925-6.705,24.984-4.71,35.622-1.025,1.081.374,2.178.801,3.023,1.572,3.939,3.59,2.095,9.432-.986,12.943-3.529,4.02-9.684,5.527-14.706,3.781-1.214-.422-2.555.608-3.773.898-1.544.367-3.154.459-4.732.306-2.07-.201-4.22-.82-5.999-1.922-1.467-.91-2.686-2.779-4.627-2.627-.745.059-1.425.428-2.141.638-.293.086-.585.144-.872.175Z"/><path class="f" d="M163.224,245.978c-3.185.227-3.702-3.092-2.954-5.509,1.022-3.301,3.643-5.251,6.677-6.605,6.217-2.775,13.618-2.674,20.206-1.563,3.367.568,6.692,1.413,9.923,2.516,1.423.485,2.714,1.064,3.396,2.492.526,1.102.531,2.378.256,3.557-1.444,6.188-8.247,9.685-14.216,7.892-1.132-.34-2.168-.444-3.319-.098-.922.277-1.75.744-2.702.936-2.209.445-4.604.157-6.706-.624-1.801-.669-2.884-2.091-4.509-3.017-.87-.496-1.865-.805-2.872-.794-1.35.015-2.509.701-3.819.902-1.282.197-1.991,1.807-1.676,2.952.376,1.37,1.666,1.874,2.952,1.676.812-.125,1.954-.831,2.703-.722.591.086,1.265.883,1.72,1.259,1.811,1.499,3.974,2.47,6.276,2.947,2.488.516,5.199.607,7.672-.054.758-.203,1.68-.911,2.462-.912.27,0,.783.25,1.054.32.564.145,1.136.238,1.712.318,8.156,1.13,16.803-4.238,18.077-12.688.663-4.395-1.307-8.579-5.5-10.338-3.671-1.54-7.693-2.491-11.609-3.151-8.28-1.394-17.243-1.378-24.885,2.518-4.26,2.172-7.587,5.948-8.293,10.8-.364,2.502.06,4.924,1.656,6.935,1.51,1.902,3.875,3.027,6.317,2.854,1.293-.092,2.4-1.037,2.4-2.4,0-1.228-1.1-2.492-2.4-2.4Z"/></g></g></svg>