<svg viewBox="0 0 111 110" width="111" height="110" xmlns="http://www.w3.org/2000/svg">

 <g>
  <title>Layer 1</title>

  <g id="svg_1">
   <path fill="#c6c6c6" d="m106.09258,64.95722l0,-20.386l-11.84,0a43,43 0 0 0 -4.527,-11.525c2.872,-2.873 6.162,-6.162 8.2,-8.2l-14.417,-14.413l-8.091,8.09a40.891,40.891 0 0 0 -11.632,-4.448l0,-11.812l-20.386,0l0,11.964a44.53,44.53 0 0 0 -11.543,4.385c-2.828,-2.828 -6.2,-6.195 -8.179,-8.179l-14.416,14.415c1.992,1.991 5.208,5.207 8.017,8.017a41.122,41.122 0 0 0 -4.447,11.706l-11.739,0l0,20.386l11.854,0a44.434,44.434 0 0 0 4.381,11.656l-8.066,8.066l14.416,14.415l7.917,-7.918a40.3,40.3 0 0 0 11.805,4.383l0,11.7l20.386,0l0,-12.2a45.757,45.757 0 0 0 10.948,-4.742l8.775,8.775l14.412,-14.413l-8.466,-8.466a39.671,39.671 0 0 0 4.714,-11.256l11.924,0z" class="c"/>
   <path fill="#ffffff" d="m54.77758,38.86522a15.8,15.8 0 0 1 12.009,4.077c5.76,5.519 6.426,15.958 1.357,22.118c-5.453,6.628 -16.687,7.584 -23.133,1.922s-7.251,-16.125 -1.555,-22.469a17.274,17.274 0 0 1 11.322,-5.648z" class="d"/>
   <path fill="#211715" d="m54.77758,41.26522a14.26,14.26 0 0 1 9.253,2.469a12.666,12.666 0 0 1 4.48,6.664c1.526,5.174 0.416,11.272 -3.888,14.8a14.942,14.942 0 0 1 -14.856,1.983c-5.026,-2.163 -7.874,-7.508 -7.725,-12.853a13.855,13.855 0 0 1 12.736,-13.066a2.458,2.458 0 0 0 2.4,-2.4a2.419,2.419 0 0 0 -2.4,-2.4c-8.015,0.564 -15.479,6.408 -17.124,14.414a18.728,18.728 0 0 0 7.693,19.351c5.919,3.881 14.2,3.725 20.21,0.14c6.583,-3.925 9.263,-11.574 8.1,-18.935a18.025,18.025 0 0 0 -5.47,-10.466a18.566,18.566 0 0 0 -13.409,-4.5c-3.077,0.139 -3.094,4.939 0,4.799z" class="b"/>
   <path fill="#211715" d="m110.49258,64.17122l0,-12.82c0,-1.6 0.276,-3.533 -0.156,-5.1c-0.923,-3.364 -4.29,-3.075 -7.009,-3.075l-7.075,0l2.315,1.762a46.836,46.836 0 0 0 -4.77,-12.1l-0.375,2.908q2.338,-2.339 4.678,-4.678c1.47,-1.471 3.49,-2.933 3.487,-5.221s-2.034,-3.76 -3.5,-5.228l-4.36,-4.36l-3.778,-3.778c-1.268,-1.268 -2.475,-2.713 -4.44,-2.713c-2.265,0 -3.721,2 -5.179,3.453l-4.61,4.605l2.908,-0.375a44.5,44.5 0 0 0 -12.2,-4.69l1.762,2.314l0,-9.166c0,-2.459 -1.109,-4.773 -3.865,-5.017c-0.84,-0.074 -1.7,-0.029 -2.539,-0.029l-11.441,0c-1.025,0 -2.059,-0.041 -3.083,0a4.313,4.313 0 0 0 -4.263,4.453c-0.08,3.3 0,6.61 0,9.911l1.762,-2.314a48.414,48.414 0 0 0 -12.117,4.627l2.909,0.375l-4.656,-4.656c-1.467,-1.467 -2.933,-3.49 -5.218,-3.492c-1.976,0 -3.168,1.437 -4.442,2.711l-3.638,3.639l-4.208,4.207c-1.447,1.447 -3.6,2.976 -3.76,5.181c-0.171,2.39 1.667,3.774 3.2,5.3q2.378,2.376 4.753,4.753l-0.375,-2.909a44.755,44.755 0 0 0 -4.689,12.28l2.314,-1.762l-9.147,0c-2.446,0 -4.726,1.144 -4.966,3.864c-0.08,0.9 -0.029,1.817 -0.029,2.718l0,11.258c0,1.025 -0.041,2.059 0,3.083a4.313,4.313 0 0 0 4.459,4.263c3.262,0.071 6.532,0 9.795,0l-2.314,-1.753a48.28,48.28 0 0 0 4.623,12.229l0.375,-2.908q-2.4,2.4 -4.8,4.8c-1.517,1.517 -3.371,2.929 -3.206,5.3c0.125,1.792 1.5,2.918 2.68,4.1l3.779,3.778l4.36,4.36c1.388,1.389 2.775,3.317 4.889,3.468c2.364,0.169 3.754,-1.647 5.265,-3.158l4.692,-4.693l-2.908,0.375a43.867,43.867 0 0 0 12.378,4.625l-1.762,-2.314l0,9.184c0,2.587 1.366,4.79 4.185,4.92c0.8,0.037 1.6,0 2.4,0l11.455,0c0.97,0 1.949,0.039 2.919,0a4.326,4.326 0 0 0 4.229,-4.542c0.067,-3.351 0,-6.709 0,-10.06l-1.765,2.311a49.9,49.9 0 0 0 11.521,-4.983l-2.908,-0.376q2.352,2.353 4.7,4.7c1.346,1.346 2.853,3.475 4.792,3.92c2.634,0.6 4.258,-1.437 5.916,-3.094l4.509,-4.51l3.92,-3.919c1.33,-1.331 2.754,-2.548 2.695,-4.609c-0.065,-2.276 -2.244,-3.818 -3.719,-5.293l-4.7,-4.7l0.375,2.909a43.274,43.274 0 0 0 4.956,-11.83l-2.314,1.762l6.9,0c1.024,0 2.054,0.034 3.077,0a4.321,4.321 0 0 0 4.345,-4.186a2.419,2.419 0 0 0 -2.4,-2.4a2.45,2.45 0 0 0 -2.4,2.4c0.049,-0.545 0.831,-0.522 0.421,-0.614a4.9,4.9 0 0 0 -0.991,0l-8.951,0a2.443,2.443 0 0 0 -2.315,1.762a38.744,38.744 0 0 1 -4.464,10.686a2.438,2.438 0 0 0 0.375,2.908l3.8,3.8l1.781,1.781c0.21,0.21 1.384,1.658 1.63,1.63c-0.769,0.086 0.641,-1.261 -0.241,-0.639a4.539,4.539 0 0 0 -0.537,0.537l-1.376,1.376l-3.251,3.25l-3.634,3.634l-1.738,1.738a6.41,6.41 0 0 0 -0.844,0.844q-0.623,0.516 0.163,0.1q0.69,0.387 0.31,0.055a10.022,10.022 0 0 0 -1.8,-1.8l-1.8,-1.8l-3.8,-3.8a2.45,2.45 0 0 0 -2.909,-0.375a44.647,44.647 0 0 1 -10.374,4.5a2.451,2.451 0 0 0 -1.762,2.314l0,8.352a17.071,17.071 0 0 0 0,1.708c0,0.041 -0.037,0.292 0,0.326c-0.136,-0.124 0.47,-0.767 0.6,-0.584c-0.155,-0.214 -2.122,0 -2.385,0l-10.414,0c-1.173,0 -2.361,-0.052 -3.533,0c-0.617,0.028 -0.268,-0.125 -0.151,0.084c0.37,0.666 0.3,0.542 0.3,-0.072l0,-9.316a2.432,2.432 0 0 0 -1.762,-2.315a39.513,39.513 0 0 1 -11.231,-4.14a2.456,2.456 0 0 0 -2.909,0.375l-3.78,3.78l-1.789,1.79l-0.694,0.693l-0.4,0.4a0.478,0.478 0 0 1 0.657,-0.1q0.483,0.245 -0.056,-0.187l-0.42,-0.419l-0.853,-0.854l-1.6,-1.6l-3.479,-3.474l-2.992,-2.992l-1.2,-1.2c-0.138,-0.137 -0.9,-1.086 -1.073,-1.073c0.749,-0.06 -0.6,1.3 0.269,0.617a10.221,10.221 0 0 0 0.845,-0.846l1.836,-1.836l3.856,-3.86a2.457,2.457 0 0 0 0.376,-2.908a43.476,43.476 0 0 1 -4.14,-11.083a2.43,2.43 0 0 0 -2.314,-1.762l-8.35,0a10.044,10.044 0 0 0 -1.441,0c-0.8,0.12 0.813,0.2 0.341,0.571c0.24,-0.188 0,-2.229 0,-2.537l0,-10.348c0,-1.161 0.071,-2.35 0,-3.51c-0.036,-0.587 0.123,-0.178 -0.084,-0.067c-0.805,0.435 -0.4,0.305 0.207,0.305l9.216,0a2.435,2.435 0 0 0 2.315,-1.762a40.232,40.232 0 0 1 4.205,-11.133a2.454,2.454 0 0 0 -0.376,-2.908l-3.822,-3.822l-1.825,-1.826a10.539,10.539 0 0 0 -0.846,-0.845c-0.874,-0.686 0.451,0.723 -0.261,0.608c0.231,0.037 1.482,-1.482 1.692,-1.693l1.605,-1.6l3.475,-3.474l2.97,-2.97l1.281,-1.281c0.18,-0.181 0.378,-0.358 0.548,-0.549c0.369,-0.415 0.451,-0.188 -0.113,-0.144q-0.694,-0.381 -0.309,-0.047l0.4,0.4l0.844,0.844l1.811,1.811l3.735,3.734a2.457,2.457 0 0 0 2.908,0.375a43.554,43.554 0 0 1 10.97,-4.142a2.434,2.434 0 0 0 1.762,-2.315l0,-8.3a11.369,11.369 0 0 0 0,-1.609c-0.117,-0.777 -0.121,0.8 -0.583,0.347c0.084,0.082 0.606,0 0.732,0l12.271,0c1.126,0 2.278,0.069 3.4,0c0.536,-0.032 0.349,0.006 -0.154,-0.3c-0.415,-0.255 0.022,-0.432 -0.084,-0.186a1.921,1.921 0 0 0 0,0.6l0,9.306a2.435,2.435 0 0 0 1.762,2.315a39.971,39.971 0 0 1 11.061,4.195a2.454,2.454 0 0 0 2.909,-0.376q1.85,-1.85 3.7,-3.7l1.783,-1.783l0.831,-0.83l0.393,-0.394q0.382,-0.332 -0.314,0.052c-0.564,-0.039 -0.486,-0.271 -0.115,0.146c0.169,0.191 0.368,0.368 0.548,0.549l1.281,1.281l3.11,3.109l3.482,3.482l1.745,1.746l0.851,0.85l0.279,0.279q0.514,0.624 0.1,-0.163l0.184,-0.438l-0.533,0.532l-0.844,0.845l-1.654,1.653l-3.913,3.913a2.453,2.453 0 0 0 -0.375,2.908a42.068,42.068 0 0 1 4.286,10.952a2.434,2.434 0 0 0 2.314,1.762l8.879,0a4.9,4.9 0 0 0 0.984,0c0.662,-0.149 -0.961,-0.212 -0.423,-0.612c-0.107,0.079 0,1.076 0,1.2l0,15.614c-0.001,3.083 4.799,3.088 4.799,-0.006z" class="b"/>
  </g>
 </g>
</svg>