<svg id="b" xmlns="http://www.w3.org/2000/svg" width="197.751" height="220.946" viewBox="0 0 197.751 220.946" style="color: initial !important;"><defs><style>.d{fill:#a98a75;}.e{fill:#211715;}</style></defs><g id="c"><path class="d" d="M192.592,215.234c-.034-.035-.069-.069-.106-.103-8.745-7.974-20.364-17.923-23.341-20.274-4.697-3.708-6.288-5.33-11.371-8.487,0,0-.564-.351-1.463-.91.494.68.874,1.429.984,2.156.304,2.013-.766,5.149-1.617,6.258-.302.393-.803.832-1.363,1.18,1.282.758,2.162,1.279,2.162,1.279,5.687,3.763,11.364,7.491,16.991,11.344,2.807,1.922,10.086,6.548,16.687,10.564,1.977,1.203,3.992-1.401,2.438-3.005Z"/><path class="d" d="M179.49,55.633c.27-.559.536-1.112.798-1.657,1.021-2.133-1.918-3.902-3.329-2.005-4.61,6.201-9.619,13.222-11.499,16.057-3.768,5.684-7.629,11.271-11.487,16.894,0,0-.817,1.089-1.845,2.461.795.078,1.562.28,2.154.654,1.721,1.089,3.389,3.951,3.67,5.321.088.431.085.989.002,1.555.574-.743.963-1.245.963-1.245,3.526-4.836,4.391-6.935,7.352-12.136,1.781-3.128,8.203-15.52,13.222-25.898Z"/><path class="d" d="M3.817,161.192c-.183.153-.366.306-.548.458-2.288,1.915.205,5.477,2.79,3.987,5.223-3.011,10.146-5.943,12.358-7.355,5.749-3.668,11.544-7.21,17.35-10.787l2.465-1.384c-.356-.266-.66-.559-.868-.831-.851-1.109-1.922-4.244-1.617-6.258.161-1.068.907-2.185,1.739-3.058l-2.693,1.532c-5.183,2.991-6.826,4.56-11.641,8.114-2.547,1.88-11.283,8.857-19.335,15.581Z"/><path class="d" d="M195.367,163.425c-.014-.624-.284-1.258-.9-1.774-8.2-6.863-17.278-14.116-19.883-16.039-4.815-3.554-6.457-5.123-11.641-8.114l-2.97-1.804c.94.902,1.837,2.146,2.016,3.331.304,2.013-.766,5.149-1.617,6.258-.213.277-.525.577-.89.848l2.487,1.367c5.806,3.576,11.601,7.119,17.35,10.787,2.212,1.411,7.135,4.344,12.358,7.355,1.889,1.089,3.729-.52,3.69-2.213Z"/><path class="d" d="M5.089,217.85c-.624-.729-.756-1.883.161-2.719,8.745-7.974,20.364-17.923,23.341-20.274,4.697-3.708,6.288-5.33,11.371-8.487l1.753-1.282c-.633.77-1.144,1.665-1.274,2.527-.304,2.013.766,5.149,1.617,6.258.286.373.752.787,1.28,1.12l-2.078,1.339c-5.687,3.763-11.364,7.491-16.991,11.344-2.807,1.922-10.086,6.548-16.687,10.564-.96.584-1.928.271-2.493-.389Z"/><path class="d" d="M17.561,52.221c-.269.489-.325,1.105-.014,1.755,5.111,10.674,12.143,24.259,14.019,27.556,2.96,5.201,3.826,7.301,7.352,12.136,0,0,.396.578,1.005,1.466-.123-.639-.14-1.288-.04-1.776.281-1.37,1.949-4.232,3.67-5.321.587-.372,1.348-.574,2.137-.652-1.051-1.416-1.828-2.463-1.828-2.463-3.858-5.623-7.719-11.21-11.487-16.894-1.88-2.836-6.889-9.856-11.499-16.057-.981-1.32-2.701-.866-3.314.25Z"/><path class="d" d="M157.45,147.082c1.045-.135,2.348-1.051,2.923-1.801.851-1.109,1.922-4.244,1.617-6.258-.216-1.426-1.472-2.94-2.588-3.845-1.134-.919-9.632-3.134-12.202-3.9l-1.449-.432c.017.258.03.516.042.774.195,3.982.319,7.967.368,11.953,4.428,1.495,9.928,3.371,10.798,3.508.154.024.319.023.491,0Z"/><path class="d" d="M39.375,134.655c2.637-1.061,8.998-2.732,11.161-3.377l1.446-.431c-.014.258-.027.515-.04.773-.195,3.982-.319,7.967-.373,11.953-4.422,1.494-9.922,3.371-10.792,3.508-1.088.171-2.744-.926-3.414-1.8-.851-1.109-1.922-4.244-1.617-6.258.216-1.426,1.472-2.94,2.588-3.845.18-.146.544-.324,1.041-.524Z"/><path class="d" d="M150.913,195.302c-2.794-.859-8.912-2.972-12.482-4.154l-.322-.087c2.175-3.392,3.795-7.142,4.967-11.024,3.066.88,10.57,2.874,11.631,3.734,1.116.905,2.373,2.418,2.588,3.845.304,2.013-.766,5.149-1.617,6.258-.67.874-2.326,1.971-3.414,1.8-.209-.033-.686-.166-1.351-.371Z"/><path class="d" d="M41.333,185.589c.491-.706,1.113-1.345,1.696-1.818,1.06-.86,8.563-2.853,11.632-3.734,1.169,3.878,2.786,7.625,4.955,11.017-.193.058-.311.095-.311.095-4.419,1.463-12.745,4.354-13.832,4.525s-2.744-.926-3.414-1.8c-.851-1.109-1.922-4.244-1.617-6.258.103-.681.443-1.382.892-2.027Z"/><path class="d" d="M44.234,87.705c-.244.091-.473.201-.681.332-1.721,1.089-3.389,3.951-3.67,5.321-.221,1.079.132,2.947.875,3.759,1.047,1.142,10.867,6.771,14.552,8.549.219-3.582,1.777-7.95,3.476-11.72-2.538-1.642-9.254-6.226-10.633-6.471-.399-.071-.841-.118-1.298-.133-.889-.028-1.835.069-2.622.362Z"/><path class="d" d="M155.471,89.058c-.382-.41-.784-.764-1.189-1.021-1.219-.771-3.186-.813-4.601-.562-1.378.244-8.095,4.828-10.633,6.471,1.702,3.777,3.263,8.155,3.491,11.74,1.191-.626,2.058-1.079,2.058-1.079,4.416-2.339,11.592-6.523,12.478-7.49.744-.812,1.097-2.68.875-3.759-.215-1.047-1.241-2.968-2.481-4.3Z"/><path class="e" d="M33.581,135.425c-4.399,2.552-8.411,5.643-12.448,8.722-4.115,3.139-8.133,6.407-12.143,9.679-1.294,1.056-2.585,2.115-3.872,3.179-1.253,1.035-2.644,2.007-3.781,3.168-1.97,2.01-1.708,5.307.429,7.079,2.863,2.374,5.761.319,8.42-1.232,2.563-1.495,5.121-3.001,7.651-4.55,6.407-3.921,12.744-7.962,19.14-11.901,2.626-1.617.217-5.771-2.423-4.145-5.453,3.358-10.916,6.7-16.323,10.133-4.388,2.786-9.019,5.199-13.385,8.009-.015.01.085.023.084.024-.781.671.036-.313-.093.011-.059.149.589.047-.063-.078.135.026.016.04-.063-.141.186.426-.064-.02.06-.025.014,0-.005.184-.023.197.409-.31.991-.852,1.452-1.236,2.279-1.899,4.57-3.783,6.871-5.657,2.09-1.702,4.187-3.395,6.295-5.075.769-.613,1.54-1.224,2.313-1.832.72-.566,1.363-1.068,1.795-1.399,4.06-3.103,8.102-6.215,12.529-8.784,2.671-1.55.257-5.699-2.423-4.145h0Z"/><path class="e" d="M49.898,128.965c-2.678.794-5.382,1.495-8.052,2.318-1.337.412-2.669.844-3.949,1.411-1.519.672-2.776,2.108-3.604,3.514-1.178,1.999-1.153,4.198-.624,6.394.417,1.734,1.13,3.643,2.468,4.882,1.493,1.382,3.476,2.329,5.529,1.858.982-.225,1.946-.579,2.903-.891,3.569-1.164,7.115-2.398,10.679-3.58,1.23-.408,2.032-1.656,1.676-2.952-.331-1.203-1.717-2.086-2.952-1.676-2.842.942-5.674,1.915-8.514,2.864-1.2.401-2.4.801-3.608,1.179-.394.123-.789.249-1.188.357-.113.031-.237.048-.346.09-.127.049-.244-.023.063-.003.447.03.359.067.019-.088-.309-.141-.802-.47-1.2-.891.363.384-.107-.217-.198-.391-.087-.165-.169-.334-.242-.506.156.37-.113-.336-.121-.362-.22-.642-.459-1.554-.516-2.049-.076-.662-.041-1.128.169-1.55.367-.736.936-1.288,1.531-1.841-.214.198-.256.149-.011.029.169-.083.34-.163.51-.243-.729.345.103-.028.265-.087.223-.082.448-.161.673-.238.618-.212,1.241-.409,1.865-.602,2.669-.824,5.374-1.525,8.052-2.318,2.955-.876,1.697-5.51-1.276-4.629h0Z"/><path class="e" d="M161.733,139.57c4.181,2.426,7.955,5.357,11.818,8.246,1.211.905,2.096,1.61,3.483,2.708,1.992,1.577,3.972,3.168,5.946,4.767,2.269,1.838,4.529,3.688,6.778,5.55,1.082.896,2.129,1.879,3.247,2.726-.029-.022-.019-.071-.043-.087-.071-.051-.095.129.004-.002.142-.188-.3.235-.119.142.281-.146.08-.024.042-.054-.609-.482-1.426-.824-2.095-1.213-1.319-.767-2.635-1.538-3.949-2.314-1.953-1.155-3.906-2.314-5.828-3.52-5.93-3.724-11.874-7.422-17.836-11.094-2.638-1.624-5.051,2.526-2.423,4.145,5.927,3.651,11.84,7.322,17.732,11.029,2.203,1.386,4.444,2.71,6.686,4.031,1.478.871,2.96,1.736,4.446,2.595,1.363.788,2.743,1.415,4.351,1.048,2.657-.607,4.315-3.456,3.617-6.067-.415-1.553-1.672-2.457-2.839-3.429-1.299-1.081-2.601-2.157-3.907-3.23-4.256-3.496-8.532-6.974-12.884-10.351-4.454-3.455-8.923-6.935-13.805-9.768-2.677-1.553-5.096,2.593-2.423,4.145h0Z"/><path class="e" d="M146.562,133.593c2.354.698,4.729,1.321,7.081,2.024,1.177.352,2.355.71,3.508,1.134.109.04.828.32.425.156-.394-.161.164.083.264.129.105.048.2.115.298.176-.53-.331-.034.008.096.132.218.207.432.422.623.654.226.274.435.574.59.896.05.105.228.682.172.358.062.358.026.758-.001,1.116-.036.475.122-.545-.036.289-.051.269-.107.537-.174.802-.088.348-.19.693-.307,1.033-.055.162-.113.325-.176.484.134-.337-.048.109-.089.19-.134.265-.269.529-.438.773.358-.519-.449.361-.322.269-.145.106-.306.204-.462.293-.372.211-.277.153-.151.101-.165.068-.527.044-.384.118.054.028.641.149.412.027-.24-.127-.616-.162-.876-.239-1.114-.331-2.217-.699-3.32-1.064-3.18-1.053-6.347-2.146-9.527-3.201-1.23-.408-2.622.472-2.952,1.676-.359,1.307.442,2.543,1.676,2.952,3.18,1.054,6.347,2.148,9.527,3.201,1.184.392,2.367.793,3.566,1.137,1.642.471,3.231.222,4.687-.704,1.774-1.128,2.73-2.67,3.417-4.613.66-1.867,1.071-4.104.492-6.043-.565-1.892-2.103-3.923-3.828-4.911-1.02-.584-2.227-.938-3.341-1.301-3.029-.985-6.118-1.767-9.171-2.672-2.968-.88-4.236,3.751-1.276,4.629h0Z"/><path class="e" d="M156.563,188.442c4.257,2.658,8.124,5.83,11.997,9.011,3.634,2.985,7.188,6.07,10.734,9.158,2.358,2.054,4.705,4.119,7.039,6.201,1.104.985,2.204,1.973,3.301,2.966.146.132,1.146,1.079,1.18,1.047.023-.022-.121-.416.021-.563l.453-.117c.064.047.09.054.079.022-.003.005-1.072-.654-1.148-.7-.643-.394-1.286-.788-1.928-1.184-1.52-.937-3.036-1.881-4.549-2.831-2.423-1.521-4.839-3.054-7.23-4.624-6.305-4.141-12.532-8.405-18.823-12.568-2.584-1.709-4.99,2.446-2.423,4.145,6.213,4.11,12.366,8.313,18.585,12.411,2.589,1.706,5.21,3.365,7.837,5.012,1.582.992,3.168,1.978,4.759,2.956,1.463.9,3.031,2.205,4.84,2.161,3.662-.089,5.516-4.585,3.121-7.275-1.112-1.249-2.521-2.319-3.767-3.435-1.275-1.142-2.554-2.278-3.837-3.41-4.424-3.904-8.878-7.776-13.402-11.563-4.623-3.87-9.295-7.766-14.415-10.963-2.628-1.641-5.04,2.51-2.423,4.145h0Z"/><path class="e" d="M141.867,182.184c2.354.698,4.729,1.321,7.081,2.024,1.177.352,2.355.71,3.508,1.134.109.04.828.32.425.156-.394-.161.164.083.264.129.105.048.2.115.298.176-.53-.331-.034.008.096.132.218.207.432.422.623.654.226.274.435.574.59.896.05.105.228.682.172.358.062.358.026.758-.001,1.116-.036.475.122-.545-.036.289-.051.269-.107.537-.174.802-.088.348-.19.693-.307,1.033-.055.162-.113.325-.176.484.134-.337-.048.109-.089.19-.134.265-.269.529-.438.773.358-.519-.449.361-.322.269-.145.106-.306.204-.462.293-.372.211-.277.153-.151.101-.165.068-.527.044-.384.118.054.028.641.149.412.027-.24-.127-.616-.162-.876-.239-1.114-.331-2.217-.699-3.32-1.064-3.18-1.053-6.347-2.146-9.527-3.201-1.23-.408-2.622.472-2.952,1.676-.359,1.307.442,2.543,1.676,2.952,3.18,1.054,6.347,2.148,9.527,3.201,1.184.392,2.367.793,3.566,1.137,1.642.471,3.231.222,4.687-.704,1.774-1.128,2.73-2.67,3.417-4.613.66-1.867,1.071-4.104.492-6.043-.565-1.892-2.103-3.923-3.828-4.911-1.02-.584-2.227-.938-3.341-1.301-3.029-.985-6.118-1.767-9.171-2.672-2.968-.88-4.236,3.751-1.276,4.629h0Z"/><path class="e" d="M38.751,184.298c-4.708,2.94-9.002,6.485-13.276,10.015-4.246,3.507-8.403,7.124-12.544,10.754-2.56,2.244-5.107,4.503-7.634,6.785-1.245,1.124-2.68,2.162-3.014,3.906-.316,1.651.392,3.331,1.732,4.324,1.444,1.071,3.226,1.062,4.779.23,1.648-.883,3.218-1.969,4.806-2.956,2.882-1.79,5.753-3.597,8.601-5.441,6.814-4.412,13.5-9.032,20.271-13.511,2.565-1.697.164-5.856-2.423-4.145-10.801,7.145-21.48,14.448-32.53,21.207-.076.046-1.146.704-1.148.7-.169-.266.772.615.306.036-.15-.186.401.27.324.222.087.054-.073.318-.047.344.061.062,2.619-2.318,2.932-2.599,2.235-2.007,4.485-3.998,6.745-5.977,3.878-3.397,7.774-6.776,11.738-10.072,4.116-3.423,8.258-6.84,12.804-9.679,2.614-1.633.208-5.787-2.423-4.145h0Z"/><path class="e" d="M54.594,177.556c-2.678.794-5.382,1.495-8.052,2.318-1.337.412-2.669.844-3.949,1.411-1.519.672-2.776,2.108-3.604,3.514-1.178,1.999-1.153,4.198-.624,6.394.417,1.734,1.13,3.643,2.468,4.882,1.493,1.382,3.476,2.329,5.529,1.858.982-.225,1.946-.579,2.903-.891,3.569-1.164,7.115-2.398,10.679-3.58,1.23-.408,2.032-1.656,1.676-2.952-.331-1.203-1.717-2.086-2.952-1.676-2.842.942-5.674,1.915-8.514,2.864-1.2.401-2.4.801-3.608,1.179-.394.123-.789.249-1.188.357-.113.031-.237.048-.346.09-.127.049-.244-.023.063-.003.447.03.359.067.019-.088-.309-.141-.802-.47-1.2-.891.363.384-.107-.217-.198-.391-.087-.165-.169-.334-.242-.506.156.37-.113-.336-.121-.362-.22-.642-.459-1.554-.516-2.049-.076-.662-.041-1.128.169-1.55.367-.736.936-1.288,1.531-1.841-.214.198-.256.149-.011.029.169-.083.34-.163.51-.243-.729.345.103-.028.265-.087.223-.082.448-.161.673-.238.618-.212,1.241-.409,1.865-.602,2.669-.824,5.374-1.525,8.052-2.318,2.955-.876,1.697-5.51-1.276-4.629h0Z"/><path class="e" d="M160.989,94.879c3.202-4.414,5.804-9.222,8.385-14.017,2.656-4.935,5.196-9.935,7.711-14.944,1.525-3.038,3.033-6.084,4.513-9.145.768-1.588,1.647-3.103,1.11-4.913-.437-1.471-1.744-2.635-3.229-2.977-1.696-.39-3.351.289-4.404,1.634-1.175,1.501-2.276,3.066-3.4,4.605-2.011,2.756-4.005,5.524-5.964,8.316-4.695,6.691-9.185,13.532-13.811,20.273-1.752,2.553,2.406,4.957,4.145,2.423,7.37-10.74,14.567-21.58,22.319-32.052.087-.118.522-.597.493-.65.019.035-.255.14-.264.135-.015-.008-.515-.32-.473-.312-.134-.025.06-.134-.072-.141-.059-.003-.468.972-.51,1.059-.348.721-.698,1.44-1.049,2.159-1.377,2.821-2.776,5.631-4.189,8.434-2.277,4.516-4.575,9.024-6.968,13.48-2.61,4.862-5.244,9.739-8.489,14.211-.762,1.05-.18,2.675.861,3.284,1.213.709,2.52.191,3.284-.861h0Z"/><path class="e" d="M139.954,96.215c2.005-1.281,3.97-2.624,5.976-3.904,1.04-.664,2.086-1.323,3.161-1.928.092-.052,1.201-.595,1.196-.621.018.095-.648.189-.107.061.046-.011.093-.022.139-.034-.321.081.417-.036.435-.037.815-.045,1.372-.04,2.051.213.404.15-.347-.237.265.144.046.029.346.258.084.049.334.268.636.6.911.926.198.234.209.254.444.606.197.295.383.599.555.909.081.146.16.295.235.445-.017-.035.293.672.164.342-.088-.228.197.787.159.511-.042-.31-.057.886-.009.539-.049.356-.173.688-.274,1.03.062-.209-.109.153-.005.002-.018.026-.085.088-.117.107-.375.222.137.012.154-.111-.026.192-.922.643-1.091.754-.565.371-1.138.729-1.714,1.083-3.001,1.843-6.07,3.583-9.179,5.235-1.144.608-1.496,2.198-.861,3.284.678,1.158,2.135,1.471,3.284.861,3.11-1.651,6.179-3.392,9.179-5.235,1.172-.719,2.366-1.441,3.429-2.319,1.367-1.128,1.884-3.004,1.987-4.711.109-1.809-.709-3.552-1.676-5.034-1.152-1.765-2.6-3.358-4.646-4.044-1.616-.542-3.762-.589-5.392-.068-1.19.38-2.314,1.12-3.372,1.764-2.642,1.608-5.182,3.372-7.787,5.036-1.091.697-1.534,2.133-.861,3.284.636,1.087,2.187,1.562,3.284.861h0Z"/><path class="e" d="M40.991,92.456c-3.03-4.176-5.486-8.699-7.954-13.221-2.252-4.125-4.384-8.318-6.511-12.508-1.383-2.725-2.752-5.458-4.103-8.199-.656-1.331-1.308-2.664-1.954-4-.15-.311-.6-1.407-.732-1.397.006,0-.06.234-.066.236-.088.038-.348.155-.429.199-.009.005-.284-.101-.264-.135-.01.019.334.436.36.469.545.721,1.075,1.454,1.61,2.183,1.057,1.44,2.107,2.884,3.152,4.332,1.645,2.28,3.281,4.568,4.881,6.88,4.32,6.243,8.514,12.577,12.81,18.838,1.737,2.531,5.898.133,4.145-2.423-4.241-6.181-8.389-12.429-12.645-18.599-1.775-2.573-3.597-5.115-5.428-7.648-1.096-1.515-2.198-3.026-3.306-4.532-1.027-1.396-1.963-3.17-3.642-3.845-3.19-1.282-6.72,1.732-5.829,5.098.43,1.625,1.468,3.241,2.206,4.752.75,1.535,1.507,3.067,2.268,4.596,2.665,5.352,5.374,10.685,8.177,15.968s5.612,10.555,9.112,15.379c.76,1.048,2.087,1.561,3.284.861,1.034-.605,1.626-2.229.861-3.284h0Z"/><path class="e" d="M60.304,92.07c-2.296-1.467-4.542-3.012-6.852-4.458-1.077-.675-2.162-1.365-3.311-1.914-1.461-.699-3.039-.876-4.649-.691-2.233.257-3.973,1.247-5.374,3-1.109,1.387-2.212,3.048-2.566,4.819-.391,1.955.07,4.562,1.533,6.012.802.795,1.854,1.409,2.804,2.011,3.291,2.083,6.698,4.005,10.138,5.831,1.144.608,2.611.289,3.284-.861.635-1.086.288-2.674-.861-3.284-2.784-1.478-5.529-3.035-8.231-4.659-1.07-.643-2.14-1.293-3.171-1.999-.171-.117-.348-.281-.532-.377-.274-.143.474.392.174.133-.033-.029-.116-.08-.134-.116-.015-.03-.079-.076-.099-.098.279.311.012.017,0-.07.044.306-.026-.076-.044-.132-.08-.252-.15-.521-.189-.783.045.305.002-.116,0-.148-.005-.161-.008-.329.005-.49-.037.465.103-.267.148-.402.124-.37-.272.513.056-.134.074-.146.143-.292.219-.437.205-.389.432-.767.676-1.133.326-.488.648-.886,1.168-1.366.248-.229.74-.483,1.287-.55.426-.052.872-.046,1.3-.022.18.01.378.014.553.047-.025-.005-.223-.02-.052.004.044.006.333.083.334.113.002.091-.572-.28-.256-.103.119.067.247.12.369.182,1.032.527,2.019,1.146,3.001,1.76,2.31,1.447,4.556,2.991,6.852,4.458,1.092.698,2.648.226,3.284-.861.678-1.159.234-2.584-.861-3.284h0Z"/><path class="d" d="M60.196,114.609c-3.178,1.085-5.485,3.967-6.674,7.107-1.189,3.14-1.415,6.551-1.579,9.905-.392,8.016-.499,16.046-.322,24.07.152,6.896.521,13.829,2.043,20.557,1.522,6.728,4.255,13.285,8.709,18.553,2.551,3.017,5.625,5.566,8.928,7.733,8.16,5.356,17.807,8.427,27.568,8.728,9.76-.301,19.408-3.372,27.568-8.728,3.303-2.168,6.377-4.716,8.928-7.733,4.454-5.268,7.186-11.825,8.709-18.553,1.522-6.728,1.891-13.661,2.043-20.557.177-8.024.07-16.054-.322-24.07-.164-3.354-.39-6.765-1.579-9.905-1.189-3.14-3.496-6.022-6.674-7.107"/><path class="e" d="M59.558,112.295c-3.717,1.36-6.429,4.255-7.972,7.862-1.775,4.151-1.928,8.734-2.123,13.182-.41,9.359-.514,18.77-.044,28.129.448,8.913,1.747,17.842,5.515,26.007,3.58,7.756,9.552,13.789,16.819,18.179s15.58,7.064,24.061,7.824c8.4.753,17.16-1.493,24.762-4.968,7.662-3.502,14.718-8.778,19.376-15.875,4.732-7.208,6.857-15.736,7.816-24.209,1.046-9.246.954-18.676.742-27.966-.105-4.609-.13-9.294-.722-13.871-.53-4.099-1.803-8.122-4.723-11.166-1.376-1.434-3.03-2.448-4.887-3.128-1.217-.445-2.629.5-2.952,1.676-.368,1.338.454,2.505,1.676,2.952,2.939,1.075,4.687,4.085,5.494,6.949,1.125,3.991,1.048,8.3,1.192,12.412.303,8.621.365,17.289-.11,25.905-.437,7.908-1.576,16.02-5.001,23.245-3.295,6.952-8.535,12.255-15.105,16.188-6.561,3.927-14.042,6.42-21.669,7.074-7.465.64-15.347-1.235-22.122-4.331-6.896-3.152-13.444-7.74-17.654-14.152s-6.256-13.995-7.133-21.548c-.999-8.596-.953-17.353-.813-25.994.07-4.294.183-8.597.461-12.882.229-3.53.733-7.331,2.96-10.219.885-1.148,2.059-2.143,3.43-2.645,1.217-.445,2.04-1.629,1.676-2.952-.322-1.173-1.729-2.124-2.952-1.676h0Z"/><path class="d" d="M116.304,69.401c7.918,3.99,14.579,10.379,18.703,16.917,2.895,4.591,12.82,23.234,3.74,26.187-12.796,4.161-25.864,6.031-39.851,6.031-12.646,0-26.45-2.334-39.852-6.031-9.205-2.539.845-21.596,3.74-26.187,5.243-8.314,15.349-17.324,25.683-19.896,3.125-.778,5.269-3.652,5.32-6.872.133-8.41-.012-19.491-1.241-25.058-.384-1.739-.881-3.475-1.76-5.024-1.256-2.211-3.221-3.924-5.227-5.487-2.072-1.615-4.228-3.121-6.458-4.509-1.359-.846-2.783-1.682-3.567-3.144-.202-.376-.339-.788-.393-1.211-.272-2.139,1.365-3.148,2.963-3.568.877-.231,1.672-.51,2.5-.816,1.323-.49,3.021-1.874,3.706-3.107.973-1.751,1.068-3.432,2.439-4.861.22-.23.59-.281.908-.295.232-.01.593.016.796.13.983.551,1.599,1.381,1.991,2.439,1.072,2.89,3.023,8.257,8.424,8.257,5.061,0,7.352-5.367,8.424-8.257.392-1.057,1.018-1.991,2.001-2.543.203-.114.552-.128.783-.102.383.043.582.158.802.387,1.335,1.392,1.563,3.388,2.469,5.09.667,1.254,1.768,2.271,3.098,2.769,1.057.396,2.095.621,3.187.909,1.599.421,3.235,1.429,2.963,3.568-.054.423-.192.835-.393,1.211-.784,1.462-2.208,2.298-3.567,3.144-2.23,1.389-4.386,2.895-6.458,4.509-2.006,1.563-3.971,3.276-5.227,5.487-.88,1.549-1.376,3.284-1.76,5.024-1.24,5.619-1.376,16.852-1.237,25.295.052,3.158,2.144,5.946,5.183,6.804,2.474.699,4.874,1.654,7.168,2.81Z"/><path class="e" d="M96.468,125.626v84.432c0,3.089,4.8,3.094,4.8,0v-84.432c0-3.089-4.8-3.094-4.8,0h0Z"/><path class="e" d="M115.093,71.473c6.508,3.32,12.337,8.19,16.575,14.164,2.427,3.422,4.533,7.515,6.021,11.2.924,2.288,1.728,4.652,2.175,7.084.153.829.259,1.694.221,2.856-.007.221-.024.441-.041.662-.03.382.068-.371.004-.002-.018.102-.033.206-.056.308-.046.198-.089.396-.147.592-.05.169-.336.793-.105.341-.087.17-.181.334-.273.501-.059.107-.138.214-.211.313.018-.024.265-.308.078-.12-.135.135-.266.27-.406.4-.253.235.321-.209.024-.019-.112.072-.222.15-.34.212-.088.046-.572.274-.376.195.327-.131-.375.113-.343.103-.219.068-.436.14-.655.21-1.017.322-2.038.63-3.062.925-3.932,1.13-7.923,2.057-11.95,2.78-16.368,2.939-33.107,2.421-49.378-.841-4.265-.855-8.502-1.862-12.697-3.015-.295-.081-.588-.162-.879-.257-.382-.126.175.155-.254-.131-.075-.05-.542-.355-.31-.178.207.158-.26-.267-.363-.368-.075-.074.152.305-.063-.089-.102-.188-.214-.368-.312-.559.19.372.029.089-.035-.126-.075-.251-.14-.502-.197-.758-.041-.185-.078-.598-.037-.173-.024-.25-.041-.499-.049-.75-.017-.532.004-1.064.05-1.594.058-.673.026-.429.164-1.183.109-.596.241-1.188.39-1.775.579-2.28,1.479-4.714,2.336-6.664,1.745-3.967,3.797-7.887,6.455-11.325,4.412-5.707,10.181-10.637,16.714-13.738,3.1-1.472,6.837-1.766,9.416-4.169,2.803-2.611,3.016-6.066,3.042-9.649.052-7.004.054-14.122-1.007-21.062-.564-3.689-1.729-7.193-4.196-10.056-2.61-3.031-6.198-5.406-9.53-7.568-1.192-.774-2.883-1.474-3.687-2.703-.691-1.056.001-1.3.944-1.581,3.667-1.089,6.751-2.736,8.287-6.428.299-.719.516-1.486.879-2.177-.028.053.389-.663.397-.655-.012-.012-.711.327-.693.246-.017.074.124.144.248.344.582.933.871,2.09,1.31,3.096,1.073,2.458,2.663,4.836,5.042,6.194,2.807,1.602,6.441,1.619,9.228-.037,2.395-1.423,4.054-3.849,5.174-6.346.268-.598.521-1.204.76-1.815.197-.504.55-.95.746-1.423.188-.453.739-.019-.306-.079-.191-.011-.56-.398-.582-.255-.017.114.451.711.522.856.352.723.574,1.507.874,2.252.752,1.864,1.847,3.461,3.571,4.558,1.639,1.043,3.654,1.114,5.342,1.835.21.09.639.397.638.396.195.509-.226,1.026-.561,1.395-1.139,1.256-2.944,2.029-4.337,2.963-3.315,2.225-6.825,4.634-9.283,7.826-2.201,2.858-3.094,6.389-3.582,9.906-.468,3.372-.67,6.772-.786,10.173-.125,3.666-.144,7.335-.107,11.002.035,3.514.49,6.856,3.359,9.261,1.416,1.186,2.961,1.732,4.698,2.279,1.901.599,3.727,1.356,5.511,2.243,2.757,1.372,5.192-2.767,2.423-4.145-1.944-.967-3.95-1.827-6.01-2.517-1.519-.509-3.001-.771-4.069-2.068-.949-1.154-1.079-2.463-1.098-3.896-.025-1.859-.035-3.718-.027-5.577.017-3.764.099-7.531.353-11.287.212-3.131.497-6.216,1.465-9.224,1.251-3.892,4.66-6.367,7.86-8.644,1.665-1.185,3.423-2.217,5.109-3.367,1.652-1.128,3.198-2.57,3.73-4.574.501-1.89-.006-3.92-1.42-5.281-1.372-1.319-3.213-1.639-4.971-2.134-1.718-.483-2.732-1.234-3.39-2.934-.698-1.805-1.282-3.928-2.936-5.122-1.818-1.313-4.079-.656-5.505.9-.663.723-1.123,1.547-1.49,2.45-.115.282-.22.567-.33.852-.12.31-.196.5-.213.538-.911,2.114-2.195,4.491-4.321,5.225-2.504.864-4.6-.653-5.777-2.544-.683-1.097-1.034-1.92-1.416-2.918-.641-1.673-1.3-3.177-2.793-4.27-1.681-1.231-4.066-1.166-5.49.442-1.314,1.485-1.555,3.39-2.538,5.035-1.8,3.009-5.963,2.302-8.205,4.792-1.391,1.545-1.652,3.764-.873,5.661.764,1.861,2.288,3.126,3.943,4.187,3.404,2.183,6.957,4.365,9.801,7.278,2.467,2.528,3.32,5.929,3.763,9.313.457,3.494.59,7.039.682,10.558.098,3.77.187,7.574.038,11.344-.053,1.349-.592,2.627-1.605,3.541-1.154,1.041-2.765,1.198-4.189,1.678-12.433,4.19-22.396,14.51-28.037,26.128-2.236,4.605-4.356,9.622-4.682,14.793-.136,2.164.183,4.526,1.47,6.329,1.886,2.642,5.091,3.11,8.046,3.86,17.146,4.352,34.719,6.187,52.344,4.2,4.364-.492,8.707-1.178,12.999-2.108,4.002-.867,8.128-1.809,11.965-3.259,5.217-1.971,5.683-7.524,4.746-12.317-.971-4.964-3.187-9.756-5.575-14.185-2.92-5.415-6.816-10.253-11.503-14.245-3.024-2.576-6.31-4.825-9.85-6.631-2.746-1.401-5.178,2.739-2.423,4.145Z"/><path class="d" d="M103.113,76.681c1.067-4.519,1.937-8.678,3.698-13.105.952-2.394,2.505-5.967,1.021-6.779-1.876-1.027-3.784-.58-6.421.821-.796.423-1.669.634-2.542.634-.873,0-1.746-.211-2.542-.634-2.638-1.401-4.546-1.848-6.421-.821-1.484.813.211,4.358,1.163,6.751,1.761,4.427,2.488,8.615,3.556,13.133"/><path class="e" d="M105.427,77.319c1.131-4.802,2.28-9.52,4.102-14.116.739-1.863,1.643-4.034,1.206-6.075-.483-2.256-2.786-3.218-4.902-3.29-1.054-.036-2.15.205-3.133.573-1.092.408-2.182,1.21-3.33,1.403-.784.131-1.482-.075-2.172-.445-1.111-.596-2.347-1.136-3.593-1.363-2.073-.378-4.904-.075-6.126,1.903-1.108,1.794-.363,4.115.323,5.918.924,2.429,1.897,4.798,2.581,7.313.735,2.704,1.286,5.453,1.926,8.18.296,1.262,1.737,2.01,2.952,1.676,1.292-.355,1.973-1.686,1.676-2.952-.993-4.231-1.795-8.522-3.347-12.596-.601-1.577-1.366-3.116-1.771-4.76.011.046-.136-.754-.096-.4.032.274-.001-.162-.003-.228-.007-.349-.198.48.002-.008-.043.105-.609.806-.608.818-.009-.097.48-.189.662-.224-.338.066.79.022.55-.012.799.11,1.567.44,2.281.796,1.186.592,2.276,1.052,3.606,1.182.963.094,1.986-.002,2.91-.294,1.05-.332,1.972-.956,3-1.332.798-.292,1.224-.432,1.966-.332-.479-.065.642.171.285.09.514.117.132.149.017-.051-.034-.059-.521-.605-.352-.731-.008.006,0,.368-.002.423-.029.697.062-.245-.032.191-.076.352-.166.698-.271,1.043-.266.874-.601,1.724-.939,2.571-1.795,4.498-2.89,9.152-3.998,13.854-.297,1.261.394,2.6,1.676,2.952,1.217.334,2.654-.409,2.952-1.676h0Z"/></g></svg>