<svg id="b" xmlns="http://www.w3.org/2000/svg" width="197.7" height="195.047" viewBox="0 0 197.7 195.047" style="color: initial !important;"><defs><style>.d{fill:#ffffff;}.e{fill:#7abee6;}.f{fill:#211715;}.g{fill:#ffda71;}.h{fill:#f2635f;}</style></defs><g id="c"><path class="d" d="M34.526,56.886c-.126,1.039-.205,2.086-.235,3.138-.007.256-7.046,2.815-7.828,3.251-2.317,1.294-4.406,2.938-6.211,4.731-7.466,7.419-9.375,17.579-6.825,27.304,17.823,0,85.055,0,85.055,0h87.485c2.549-9.724.64-19.884-6.826-27.303-1.805-1.793-3.894-3.437-6.211-4.731-.782-.437-7.821-2.995-7.828-3.251-.267-9.264-4.321-18.158-10.531-23.88-6.384-5.882-14.924-8.872-23.256-9.094-.656-6.749-5.651-12.776-11.815-16.68-5.853-3.708-12.624-5.838-19.804-5.838s-14.114,1.882-19.967,5.59c-6.164,3.905-10.995,10.179-11.652,16.928-8.332.222-16.872,3.211-23.256,9.094-5.505,5.072-9.315,12.637-10.296,20.742Z"/><path class="h" d="M154.569,36.142c2.856,2.631,5.252,5.927,7.032,9.633-3.306,7.697-11.168,11.736-17.887,9.261-6.738-2.484-11.882-7.305-19.217-6.631-8.117.753-12.489,6.797-20.156,9.164-1.477.46-3.051.685-4.645.685s-3.169-.225-4.645-.685c-7.667-2.367-12.039-8.411-20.156-9.164-7.335-.675-12.479,4.147-19.217,6.631-6.719,2.474-14.582-1.565-17.887-9.261,1.78-3.707,4.176-7.002,7.032-9.633,6.386-5.878,14.924-8.87,23.256-9.095.655-6.748,5.486-13.017,11.657-16.929,5.848-3.707,12.782-5.584,19.96-5.584s13.956,2.132,19.804,5.839c6.161,3.902,11.159,9.926,11.814,16.674,8.332.225,16.87,3.218,23.256,9.095Z"/><path class="f" d="M35.716,46.991c1.85,4.187,5.187,7.859,9.413,9.722,2.098.925,4.339,1.483,6.645,1.447,2.425-.038,4.598-.769,6.797-1.728,4.298-1.873,8.346-4.876,13.077-5.569,4.698-.689,8.881,1.464,12.732,3.873,4.322,2.703,8.679,5.411,13.887,5.861,5.475.472,10.412-1.899,14.929-4.72,3.748-2.34,7.548-4.947,12.121-5.121,4.841-.184,8.993,2.494,13.161,4.577,2.507,1.252,5.065,2.433,7.875,2.743,2.369.261,4.822-.112,7.033-.993,2.37-.944,4.517-2.359,6.305-4.185.97-.991,1.841-2.107,2.588-3.275.659-1.03,1.72-2.596,1.72-3.851,0-3.089-4.8-3.094-4.8,0v.009l.328-1.211c-1.594,3.608-4.346,6.86-8.176,8.167-1.616.552-3.317.791-4.988.531-2.177-.339-4.227-1.446-6.166-2.435-4.244-2.166-8.432-4.524-13.29-4.853-4.708-.319-9.158,1.483-13.115,3.868-3.792,2.286-7.557,5.189-12.053,5.877-4.991.763-9.356-1.627-13.428-4.182-3.745-2.349-7.537-4.704-11.995-5.356-5.04-.737-9.565.787-14.015,3.039-3.991,2.02-8.248,4.955-12.877,3.907-4.489-1.016-7.751-4.461-9.564-8.562-.524-1.186-2.255-1.463-3.284-.861-1.222.715-1.387,2.093-.861,3.284h0Z"/><path class="f" d="M14.758,87.211c.039-5.977,2.031-11.799,6.039-16.291,2.048-2.296,4.419-4.208,7.113-5.686.411-.225-.572.231-.04.015.115-.047.23-.094.345-.14.419-.169.841-.334,1.262-.499.973-.381,1.948-.756,2.919-1.142.841-.334,1.689-.662,2.511-1.041,1.252-.578,1.702-1.431,1.799-2.817.217-3.09.713-6.07,1.696-9.017,1.89-5.671,5.382-10.851,10.163-14.477,5.591-4.239,12.537-6.443,19.513-6.665,1.403-.045,2.256-1.071,2.4-2.4,1.088-10.02,11.239-16.748,20.203-19.018,10.278-2.603,21.662-.508,30.041,6.116,3.998,3.161,7.623,7.671,8.194,12.902.144,1.324.984,2.355,2.4,2.4,6.18.197,12.266,1.94,17.495,5.272,5.099,3.249,8.988,8.037,11.336,13.596,1.229,2.91,2.074,6.084,2.394,9.228.139,1.37-.153,3.185.906,4.222.599.587,1.523.872,2.272,1.182,1.808.749,3.646,1.425,5.461,2.158.115.046.23.093.345.14.532.216-.451-.24-.04-.015.464.254.926.508,1.375.79,1.43.897,2.745,1.932,3.974,3.089,5.056,4.758,7.758,11.175,7.803,18.099.02,3.088,4.82,3.094,4.8,0-.054-8.218-3.319-16.025-9.366-21.639-2.447-2.271-5.113-4.104-8.209-5.329-1.194-.472-2.393-.93-3.586-1.404-.225-.089-.45-.179-.674-.27-.099-.04-.961-.407-.385-.154-.18-.079-.368-.19-.554-.249-.563-.176-.209-.728.515.646l.328,1.211c-.254-7.276-2.535-14.553-6.801-20.487-4.308-5.993-10.39-10.3-17.34-12.723-3.865-1.347-7.959-2.033-12.046-2.163l2.4,2.4c-1.316-12.062-12.635-20.403-23.593-23.482-11.883-3.339-25.595-.853-35.149,7.083-4.99,4.145-8.589,9.893-9.295,16.399l2.4-2.4c-7.263.231-14.542,2.301-20.601,6.374-6.092,4.095-10.529,9.939-13.157,16.768-1.501,3.9-2.283,8.061-2.429,12.232l.328-1.211c.724-1.374,1.077-.822.515-.646-.187.058-.375.17-.554.249.554-.243-.167.066-.28.112-.259.105-.52.209-.78.312-1.193.473-2.393.931-3.586,1.404-3.097,1.225-5.761,3.057-8.209,5.329-6.047,5.614-9.312,13.42-9.366,21.639-.02,3.089,4.78,3.093,4.8,0h0Z"/><path class="g" d="M152.232,67.158c-.279-.42-.317-.951-.104-1.409,9.557-20.561,19.241-41.192,29.107-61.118.816-1.574,2.228-2.299,3.839-2.285,2.721.024,5.608,1.329,7.755,2.948.943.711,1.769,1.62,2.204,2.718.407,1.029.395,2.184-.037,3.123-5.333,9.707-27.763,51.658-34.544,64.249-.508.943-1.822,1.026-2.449.158-2.259-3.124-4.77-6.878-5.769-8.385Z"/><path class="f" d="M154.304,65.947l.104.567c.139-.298.277-.596.416-.894.208-.447.416-.894.624-1.341.416-.894.832-1.789,1.249-2.683.868-1.863,1.737-3.726,2.606-5.588,1.67-3.575,3.344-7.148,5.023-10.718,3.382-7.187,6.788-14.364,10.234-21.521,1.693-3.516,3.395-7.027,5.109-10.532.782-1.598,1.565-3.196,2.352-4.792.539-1.093,1.064-3.225,2.368-3.613,1.171-.349,2.649.143,3.738.551,1.459.547,3.172,1.435,4.169,2.672,1.195,1.484.357,2.357-.423,3.789-8.455,15.53-16.763,31.141-25.119,46.724-2.118,3.95-4.236,7.901-6.357,11.85-.389.725-.779,1.449-1.168,2.174-.185.345-.371.69-.556,1.034-.05.094-.217.307-.222.412-.193.313-.039.227.462-.257.359-.07.666,0,.919.211.068-.353-1.271-1.794-1.471-2.079-.552-.791-1.099-1.586-1.643-2.383-.812-1.19-1.616-2.386-2.413-3.586-1.701-2.562-5.86-.161-4.145,2.423,1.761,2.653,3.55,5.289,5.404,7.877,1.155,1.612,2.679,2.73,4.757,2.116,1.404-.415,2.085-1.549,2.727-2.743,1.818-3.378,3.631-6.759,5.444-10.14,5.035-9.388,10.066-18.778,15.105-28.163,4.14-7.712,8.271-15.429,12.457-23.117,1.181-2.17,2.213-4.28,1.292-6.825-1.317-3.639-5.41-5.966-8.961-6.944-3.791-1.044-7.559-.297-9.438,3.423-1.933,3.829-3.789,7.699-5.662,11.557-7.553,15.557-14.897,31.213-22.19,46.893-.959,2.062-2.036,3.829-.935,6.067.572,1.163,2.222,1.482,3.284.861,1.186-.694,1.435-2.116.861-3.284Z"/><path class="e" d="M98.482,95.31H9.134c-4.401,0-7.628,4.137-6.621,8.459,3.462,14.875,7.853,30.063,13.956,44.292,5.868,13.682,13.066,29.075,26.356,36.987,11.442,6.826,26.954,7.038,40.214,7.403.802.022,7.882.183,15.442.183s14.641-.161,15.442-.183c13.559-.386,28.772-.577,40.214-7.403,13.291-7.912,20.489-23.305,26.356-36.987,6.103-14.23,10.494-29.417,13.956-44.292,1.007-4.323-2.22-8.459-6.621-8.459h-89.348Z"/><path class="f" d="M98.482,92.91H28.833c-5.18,0-10.36,0-15.54,0-1.227,0-2.454-.004-3.681,0-3.258.01-6.189,1.324-8.077,4.05-1.765,2.548-1.808,5.443-1.125,8.349.818,3.481,1.682,6.951,2.602,10.406,1.899,7.131,4.036,14.202,6.516,21.154,2.279,6.39,4.881,12.663,7.701,18.833,2.417,5.288,5.063,10.493,8.288,15.339,3.343,5.024,7.286,9.643,12.082,13.332,4.957,3.813,10.698,6.297,16.758,7.768,11.016,2.674,22.595,2.639,33.87,2.811,11.849.181,23.731.14,35.571-.434,12.858-.623,25.981-2.511,36.347-10.751,9.255-7.357,15.109-18.16,19.901-28.747,5.848-12.921,10.467-26.274,14.086-39.984.929-3.519,1.902-7.061,2.633-10.629.602-2.939.009-5.84-1.9-8.186-1.889-2.321-4.68-3.312-7.598-3.312h-88.785c-3.089,0-3.094,4.8,0,4.8h23.833c14.593,0,29.186,0,43.78,0h20.585c1.244,0,2.421-.032,3.527.701,1.785,1.183,2.286,3.169,1.826,5.171-.8,3.483-1.673,6.95-2.588,10.404-1.848,6.981-3.923,13.905-6.321,20.718-2.137,6.072-4.568,12.029-7.222,17.893-2.396,5.294-5.007,10.513-8.181,15.388-3.016,4.632-6.605,8.961-10.969,12.387-4.666,3.663-10.138,5.914-15.88,7.26-10.696,2.508-21.954,2.374-32.886,2.53-11.524.165-23.081.119-34.597-.432-11.757-.563-24.345-2.076-33.753-9.827-8.831-7.276-14.275-17.724-18.879-27.989-5.625-12.542-9.996-25.542-13.474-38.835-.858-3.279-1.865-6.61-2.454-9.949-.351-1.99.48-4.028,2.343-4.962,1.044-.523,2.121-.46,3.242-.46h11.712c14.067,0,28.134,0,42.201,0h34.156c3.089,0,3.094-4.8,0-4.8Z"/></g></svg>