<svg width="128" height="113" xmlns="http://www.w3.org/2000/svg">
 <g id="Layer_1">
  <title>Layer 1</title>
  <g stroke="null">

   <path stroke="null" fill="#211715" d="m212.95232,44.23945c0.04896,-8.06722 4.89576,-15.66809 12.62359,-18.41553c7.96598,-2.83373 17.26793,-0.67794 22.64745,5.97449a19.98715,19.98715 0 0 1 4.2701,12.44685c0.01577,2.56156 3.99876,2.56737 3.98299,0a23.61665,23.61665 0 0 0 -15.30713,-22.17198c-9.34094,-3.44197 -20.685,-0.71445 -26.94162,7.14947a24.25227,24.25227 0 0 0 -5.25838,15.0192c-0.01494,2.56322 3.96805,2.56654 3.98299,0l0,-0.00249z" class="a"/>
   <path stroke="null" fill="#ffda71" d="m194.76499,52.09756c0,13.73883 -0.00913,29.43845 -0.01328,43.25196a11.38057,11.38057 0 0 0 11.3814,11.38638c15.4872,0.00581 37.12895,0.01826 53.16214,0.02323a11.37476,11.37476 0 0 0 11.38555,-11.3814c0,-13.80936 0.00581,-29.5065 0.01328,-43.24616a11.37559,11.37559 0 0 0 -11.37725,-11.38887l-53.16297,-0.0224a11.37725,11.37725 0 0 0 -11.38887,11.37725z" class="b"/>
   <path stroke="null" fill="#211715" d="m192.77349,52.09756q-0.00498,15.62909 -0.00913,31.25901l0,7.75853a35.35568,35.35568 0 0 0 0.29375,7.025a13.3704,13.3704 0 0 0 6.96028,9.10528c3.83861,1.93175 8.14688,1.482 12.31076,1.48449l13.77866,0.00664l28.451,0.01245c4.19459,0 8.36511,0.27051 12.03195,-2.15745a13.59362,13.59362 0 0 0 6.03091,-10.0695c0.23649,-2.38316 0.05726,-4.85759 0.05726,-7.2507q0,-3.90499 0,-7.80832l0.00498,-15.85396q0,-3.79546 0,-7.59092a63.31296,63.31296 0 0 0 -0.08298,-7.31875a13.54881,13.54881 0 0 0 -6.22342,-9.93673c-3.46686,-2.18235 -7.3063,-2.01473 -11.23452,-2.01639l-12.46593,-0.00498l-27.32996,-0.01245l-6.22342,0a27.06028,27.06028 0 0 0 -6.03091,0.35183a13.36377,13.36377 0 0 0 -8.95343,7.14449a14.00602,14.00602 0 0 0 -1.36251,5.87242c-0.03236,2.56405 3.95063,2.56571 3.98299,0a9.47454,9.47454 0 0 1 4.57629,-8.06224c3.02209,-1.79898 6.63334,-1.32351 10.00478,-1.32268l25.51272,0.01162l12.52153,0.00498l5.62929,0c1.75667,0 3.5681,-0.12364 5.32061,0.0473a9.49031,9.49031 0 0 1 7.44819,5.24344a10.44871,10.44871 0 0 1 0.93268,4.8327q0,3.61622 0,7.23245q-0.00581,14.87398 -0.00913,29.74879c0,3.7855 0.54849,7.78011 -1.76662,11.04201c-2.03381,2.8636 -5.18121,3.89005 -8.55264,3.88922c-17.40816,-0.00581 -34.83043,0.18753 -52.23693,-0.02323a9.38658,9.38658 0 0 1 -9.38575,-9.10528c-0.06638,-2.31594 0,-4.64267 0,-6.95862q0,-14.78437 0.00913,-29.5679q0,-3.50752 0,-7.01504c-0.00664,-2.5599 -3.98963,-2.56405 -3.99046,0.00249z" class="a"/>
   <path stroke="null" fill="#211715" d="m242.89363,67.06945a10.17073,10.17073 0 0 0 -20.34147,0c0,4.09252 1.65958,7.20341 4.52733,8.88622a1.46458,1.46458 0 0 1 0.70864,1.26792c0,1.91515 -0.00581,2.98724 -0.00664,8.42569a4.86506,4.86506 0 0 0 4.8468,4.86755l0.15185,0a4.86423,4.86423 0 0 0 4.87336,-4.86423c0,-5.39363 0,-6.51136 0.00498,-8.39747a1.46126,1.46126 0 0 1 0.71611,-1.26958c2.89846,-1.67452 4.51904,-4.79701 4.51904,-8.91609z" class="a"/>
   <path stroke="null" fill="#211715" d="m83.01969,27.20967a23.88301,23.88301 0 0 0 -7.50379,-17.44633a24.1668,24.1668 0 0 0 -18.94493,-6.02344a23.57931,23.57931 0 0 0 -16.74101,9.68531c-3.16482,4.42195 -4.31491,9.63137 -4.31491,14.986l0,12.07842c0,2.56322 3.98299,2.56737 3.98299,0l0,-10.0778c0,-4.03776 0.0697,-7.95685 1.84794,-11.70419a19.281,19.281 0 0 1 12.37134,-10.41303a20.83851,20.83851 0 0 1 17.22976,2.86692a19.67349,19.67349 0 0 1 8.09211,16.04814c0.01577,2.56156 3.99876,2.56737 3.98299,0l-0.00249,0z" class="a"/>
   <path stroke="null" fill="#ffda71" d="m21.30822,51.86853c0,13.738 -0.00913,29.43762 -0.01328,43.25113a11.37974,11.37974 0 0 0 11.3814,11.38638c15.48637,0.00581 37.12812,0.01826 53.16214,0.02406a11.37725,11.37725 0 0 0 11.38555,-11.38306c0,-13.80936 0.00581,-29.5065 0.01328,-43.24616a11.37559,11.37559 0 0 0 -11.37808,-11.38804c-14.401,-0.00664 -37.71146,-0.01743 -53.16297,-0.02323a11.37642,11.37642 0 0 0 -11.38804,11.37891z" class="b"/>
   <path stroke="null" fill="#211715" d="m19.31672,51.86853l-0.00996,31.25818q0,3.87927 0,7.75853a35.41543,35.41543 0 0 0 0.29292,7.025a13.37206,13.37206 0 0 0 6.95945,9.10528c3.83778,1.93175 8.14688,1.48283 12.31076,1.48449l13.77451,0.00664l28.451,0.01328c4.19459,0 8.36511,0.26968 12.03195,-2.15745a13.59362,13.59362 0 0 0 6.03091,-10.0695c0.23649,-2.38316 0.05726,-4.85759 0.05726,-7.2507q0,-3.90001 0,-7.80749q0,-7.92781 0.00498,-15.85479q0,-3.79463 0,-7.59092a63.13124,63.13124 0 0 0 -0.08298,-7.31875a13.54466,13.54466 0 0 0 -6.22342,-9.93673c-3.46769,-2.18235 -7.3063,-2.01473 -11.23535,-2.01639l-12.46593,-0.00498l-27.32996,-0.01162l-6.22342,0a27.06028,27.06028 0 0 0 -6.03091,0.351a13.36625,13.36625 0 0 0 -8.95343,7.14449a14.00685,14.00685 0 0 0 -1.36251,5.87325c-0.03236,2.56322 3.95063,2.56488 3.98299,0a9.47454,9.47454 0 0 1 4.57546,-8.06224c3.02209,-1.79981 6.63832,-1.32766 10.00561,-1.32268l25.51272,0.01079l12.5207,0.00498l5.62929,0c1.75749,0 3.5681,-0.12364 5.32061,0.0473a9.48865,9.48865 0 0 1 7.44819,5.24344a10.44042,10.44042 0 0 1 0.93351,4.8327q0,3.61705 0,7.23245q-0.00747,14.87398 -0.00913,29.74962c0,3.78467 0.54849,7.77928 -1.76745,11.04118c-2.03299,2.8636 -5.18038,3.89088 -8.55181,3.88922c-17.40816,-0.00581 -34.83043,0.18753 -52.23693,-0.02323a9.38824,9.38824 0 0 1 -9.38658,-9.10362c-0.06555,-2.31594 0,-4.64184 0,-6.95862q0.00498,-14.78437 0.00913,-29.5679l0,-7.01421c0.00166,-2.56322 -3.98133,-2.56737 -3.98216,0z" class="a"/>
   <path stroke="null" fill="#211715" d="m69.43686,66.8396a9.96412,9.96412 0 0 0 -10.16741,-10.10767a9.97324,9.97324 0 0 0 -10.17073,10.10767c0,4.09252 1.65958,7.20341 4.52733,8.88622a1.46458,1.46458 0 0 1 0.70781,1.26875c0,1.91433 -0.00498,2.98724 -0.00581,8.42569a4.86423,4.86423 0 0 0 4.8468,4.86672l0.15185,0a4.8634,4.8634 0 0 0 4.87253,-4.86423c0,-5.39363 0,-6.51053 0.00498,-8.39747a1.46292,1.46292 0 0 1 0.71694,-1.26875c2.89514,-1.67452 4.51572,-4.79784 4.51572,-8.91692z" class="a"/>
   <path stroke="null" fill="#ffda71" d="m170.07459,-115.6262l-4.00457,0c-12.2228,-0.01328 -28.60617,-0.02738 -41.38411,-0.02738l-4.90572,0a10.95986,10.95986 0 0 0 -10.96235,10.96318c-0.01328,13.22519 -0.01328,28.34728 -0.01328,41.65545a10.48937,10.48937 0 0 0 0.32694,2.63458q17.39322,-14.67566 34.8993,-29.21358q15.24988,-12.71653 30.52299,-25.40899a10.77067,10.77067 0 0 0 -3.57888,-0.60243l-0.90032,-0.00083z" class="b"/>
   <path stroke="null" fill="#ffda71" d="m120.24738,-52.07592l-0.49787,0a10.22218,10.22218 0 0 1 -3.51001,-0.60243c21.65751,-18.39063 43.49675,-36.56054 65.3418,-54.72464a10.76652,10.76652 0 0 1 0.35183,2.73831c-0.01328,13.2393 -0.01328,28.34811 -0.01328,41.65545a10.95986,10.95986 0 0 1 -10.96069,10.96318c-15.2756,-0.01411 -35.82949,-0.02987 -50.71177,-0.02987z" class="b"/>
   <path stroke="null" fill="#211715" d="m168.31876,-139.364a22.94867,22.94867 0 0 0 -10.60803,-19.40878a24.04316,24.04316 0 0 0 -23.50712,-0.67794a22.79765,22.79765 0 0 0 -11.74153,18.70014c-0.2423,3.8411 -0.04315,7.74526 -0.04315,11.58967l0,13.50732c0,2.56322 3.98299,2.56737 3.98299,0l0,-23.23411a19.32498,19.32498 0 0 1 6.49062,-14.87149c5.37206,-4.6684 13.39032,-5.63095 19.92574,-3.05363c7.10881,2.8022 11.47018,9.93175 11.51748,17.44799c0.01577,2.56156 3.99876,2.56737 3.98299,0l0,0.00083z" class="a"/>
   <path stroke="null" fill="#211715" d="m152.83073,-97.00738q-3.6992,3.04865 -7.37185,6.12468q-3.98299,3.31335 -7.96598,6.65325a10.40473,10.40473 0 0 1 -1.92428,-6.39602a9.86122,9.86122 0 0 1 17.26378,-6.38191l-0.00166,0z" class="a"/>
   <path stroke="null" fill="#211715" d="m175.02512,-116.96548a19.66602,19.66602 0 0 0 -6.245,-0.65387q-2.8578,0 -5.71559,0l-11.50753,-0.00996q-11.95644,-0.00996 -23.91371,-0.01245l-5.46749,0a23.29801,23.29801 0 0 0 -5.47661,0.37009a13.0833,13.0833 0 0 0 -7.91371,5.73385c-1.98237,3.14075 -1.95747,6.55534 -1.95996,10.13256q-0.00581,6.34125 -0.00747,12.68251q0,7.2366 0,14.47319l0,7.17436c0,2.40058 -0.16596,4.8468 0.39664,7.20092c0.5933,2.48937 4.4344,1.4372 3.84027,-1.05881a25.05965,25.05965 0 0 1 -0.25392,-5.77119l0,-6.0193q0,-6.16368 0,-12.32819q0,-6.128 0.00581,-12.256q0,-2.96484 0.00498,-5.92968a13.35962,13.35962 0 0 1 0.49787,-4.41282a8.96173,8.96173 0 0 1 5.25008,-5.41936a12.34561,12.34561 0 0 1 4.49995,-0.58915l5.42268,0q11.27767,0 22.55535,0.01079l12.56053,0.01079q2.92418,0 5.84753,0.00498c2.2006,0 4.40618,-0.18089 6.52547,0.51198c2.44207,0.79743 3.48512,-3.04699 1.05881,-3.8411l-0.00498,-0.00415z" class="a"/>
   <path stroke="null" fill="#211715" d="m179.66448,-106.87109a23.73199,23.73199 0 0 1 0.27798,5.67742q0,2.99637 0,5.99274q0,6.25081 0,12.49995q0,6.23338 0,12.46593l0,6.13381a11.52827,11.52827 0 0 1 -0.63562,4.44684a9.01982,9.01982 0 0 1 -5.63759,5.20444a14.5346,14.5346 0 0 1 -4.40701,0.41489l-5.35131,0q-11.42372,-0.00996 -22.84743,-0.01494q-6.23089,0 -12.46178,-0.00498l-5.95457,0c-1.99813,0 -3.94399,0.12447 -5.86412,-0.52526c-2.43294,-0.82315 -3.47765,3.02292 -1.05881,3.8411a17.85293,17.85293 0 0 0 5.84504,0.66383l5.38368,0l11.62867,0q11.99378,0.00581 23.98839,0.01494l5.58449,0.00498a28.9522,28.9522 0 0 0 5.34883,-0.24894a13.0277,13.0277 0 0 0 8.16264,-5.39363c2.18401,-3.10673 2.25952,-6.58438 2.25952,-10.2338q0,-6.44747 0,-12.89576q0,-7.42164 0,-14.84494l0.00498,-7.14449c0,-2.37652 0.15019,-4.77876 -0.41987,-7.10549c-0.6099,-2.48937 -4.45182,-1.43471 -3.8411,1.05881l-0.00498,-0.00747z" class="a"/>
   <path stroke="null" fill="#211715" d="m93.70572,-44.74389q17.74174,-15.06898 35.59052,-30.01184q17.81061,-14.89971 35.68096,-29.72639l20.18049,-16.78748a2.00643,2.00643 0 0 0 0,-2.81631a2.03547,2.03547 0 0 0 -2.81631,0q-17.95831,14.93622 -35.91081,29.88571q-17.80895,14.84411 -35.57143,29.74299q-10.00229,8.42735 -19.97055,16.89701a2.00809,2.00809 0 0 0 0,2.81631a2.03216,2.03216 0 0 0 2.81631,0l0.00083,0z" class="a"/>
   <path stroke="null" fill="#211715" d="m114.68861,-48.74929q16.6655,-14.17779 33.45796,-28.20539q16.7825,-14.04004 33.61727,-28.01536q9.47869,-7.883 18.95406,-15.76601a2.00726,2.00726 0 0 0 0,-2.81631a2.03547,2.03547 0 0 0 -2.81631,0q-16.81901,13.99938 -33.64217,27.98549q-16.81403,14.00187 -33.56583,28.0776q-9.42973,7.93694 -18.82129,15.92367a2.00892,2.00892 0 0 0 0,2.81631a2.03216,2.03216 0 0 0 2.81631,0z" class="a"/>
   <path stroke="null" fill="#211715" d="m140.79629,-73.18162l0,1.52266a4.86008,4.86008 0 0 0 4.8468,4.86174l0.14853,0a4.85925,4.85925 0 0 0 4.87584,-4.85842c0,-6.56945 0,-6.80428 0.00664,-9.79152l-9.87782,8.26554z" class="a"/>
  </g>
 </g>

</svg>