<svg id="b" xmlns="http://www.w3.org/2000/svg" width="219.726" height="327.961" viewBox="0 0 219.726 327.961" style="color: initial !important;"><defs><style>.d{fill:#ffffff;}.e{fill:#a98a75;}.f{fill:#211715;}.g{fill:#ffda71;}</style></defs><g id="c"><path class="g" d="M84.309,235.379c-.738,7.564-1.545,22.133-1.615,29.861-.096,10.589-.38,22.443-.854,33.021-.065,2.918-.248,6.808-.455,10.754-.266,5.086-.55,9.195-.922,13.195-.152,1.64-1.51,2.898-3.157,2.935-4.534.101-9.133.334-13.261.443-.56.015-1.956-.658-1.867-1.952,1.046-11.377,2.345-16.947,2.844-27.384.359-7.5-1.936-33.532-3.235-45.472-.64-5.883-6.507-24.62-8.973-31.534-3.426-9.602-8.525-30.394-10.175-39.491-1.194-6.589-2.096-13.276-2.39-19.966-.301-6.867.059-13.662.397-20.527.376-7.631.362-15.276.29-22.916-.163-17.423-.023-34.844-.776-52.251,0,0-.079-1.827-.188-4.415-5.931,1.295-18.032,1.983-21.975,2.113-2.931.085-6.064-.416-8.995-1.535-2.75-1.055-5.563-2.75-6.416-5.701-.789-2.771.565-5.414,2.387-7.609,1.822-2.174,4.082-3.485,6.586-5.041,1.705-1.066,3.805-1.321,5.467-2.451,3.176-2.163,4.934-5.979,7.449-8.963,2.824-3.336,6.693-5.286,10.828-6.298-.85-4.015.316-11.126.921-14.773-.202-.582-.31-1.225-.31-1.917,0-2.752,2.099-5.104,5.136-5.104s5.136,2.333,5.136,5.104c0,1.143-.283,2.158-.8,2.981-1.581,5.66-.886,13.06-.886,13.06,1.79.181,3.986.725,6.224,2.046,2.899-2.707,6.65-4.519,10.561-5.115.149-.021.33-.032.469.053.128.064.181.213.245.352.895,2.334.544,5.041-.575,7.279-.601,1.187-1.403,2.262-2.332,3.224,5.999,11.143,8.96,50.913,10.075,64.609,1.569,19.263,2.872,39.249,10.7,56.717,1.914,4.272,5.536,7.536,10.002,8.941,16.911,5.32,61.212,9.812,71.273,13.615,11.606,4.387,18.666,11.191,22.444,25.038,4.38,16.055-2.215,33.892-2.148,48.712.045,7.751.022,21.947.391,29.977.179,3.82,1.69,23.781,1.843,33.24.03,1.849.196,5.877.327,8.868.088,2.01-1.486,3.7-3.497,3.76l-11.417.339c-1.05.067-3.004-1.497-2.87-2.546,0,0,1.374-6.98,1.262-9.337-.536-10.758-1.885-20.455-3.31-31.124-.554-4.146-1.103-8.322-2.005-12.41-1.319-5.979-6.247-10.483-9.896-15.184-5.351-6.894-9.254-14.586-12.348-22.724-10.029,5.159-41.818,2.501-53.693.435,0,0-.65-.113-1.528-.266-.124.828-.255,1.966-.389,3.334Z"/><path class="e" d="M142.067,230.904c-.722.311-1.438.637-2.147.979,2.013,5.292,4.368,10.395,7.24,15.212,1.628-2.683,2.943-5.56,3.915-8.553.577-1.776,1.036-3.666.701-5.505-.335-1.839-1.657-3.606-3.47-3.893-1.048-.166-2.104.167-3.105.525-1.057.378-2.104.79-3.136,1.234Z"/><path class="e" d="M56.701,57.518c-.11-1.469-.315-2.93-.614-4.372-.162-.783-.391-1.622-1.023-2.112-.831-.644-2.056-.433-2.975.078-.489.272-.982.512-1.468.768-1.157.609-1.558,2.077-.841,3.171,1.367,2.088,2.902,4.129,5.108,5.246.501.254,1.166.434,1.579.052.31-.286.329-.762.318-1.184-.014-.55-.042-1.1-.083-1.648Z"/><path class="e" d="M184.109,202.094c2.206,7.492,1.748,15.016.639,22.422-1.79.533-3.986.181-5.755-.32-.618-.181-1.236-.405-1.748-.789-1.321-1.002-1.684-2.792-2.27-4.252-.639-1.577-1.258-3.176-1.652-4.828-.192-.767-.32-1.545-.266-2.334.075-1.066.607-2.078,1.3-2.877,1.034-1.204,1.876-2.558,2.781-3.858,1.769-2.536,3.538-5.083,5.307-7.62.671,1.417,1.226,2.899,1.662,4.455Z"/><path class="e" d="M75.877,144.228l-.234.075c-2.504,0-4.028-.853-5.222-1.577-2.675-1.62-4.583-3.986-5.52-6.789-.682-2.078-1.353-4.241-1.119-6.426s1.599-4.391,3.645-4.764c1.492-.277,2.877.661,4.497.948.917,6.309,2.163,12.522,3.954,18.533Z"/><path class="e" d="M40.161,68.285c.011.011,4.732,4.305,4.753,4.316,2.707,2.526,3.08,6.543.948,9.527-1.908,2.664-4.05,5.531-4.519,6.192l-.927.032c-.181-6.682-.405-13.364-.682-20.046l.426-.021Z"/><path class="d" d="M183.998,321.103c.087,2.01-1.486,3.703-3.496,3.758l-11.416.339c-1.049.066-3.004-1.497-2.873-2.545,0,0,.765-3.878,1.114-6.839l.273.033c2.097.087,12.377.044,16.179-.055.066,1.726.142,3.671.218,5.309Z"/><path class="d" d="M80.98,315.925c-.164,2.196-.328,4.25-.513,6.281-.153,1.65-1.518,2.906-3.157,2.939-4.534.098-9.133.339-13.262.448-.557.011-1.955-.666-1.868-1.955.273-2.982.568-5.56.852-7.931,4.686.142,14.671.284,17.948.218Z"/><path class="f" d="M183.628,208.257c6.691,12.728,11.615,26.232,14.829,40.245.69,3.01,5.319,1.736,4.629-1.276-3.304-14.405-8.436-28.308-15.313-41.391-1.438-2.735-5.582-.312-4.145,2.423h0Z"/><path class="f" d="M139.27,229.493c-.244.143-.491.278-.744.403-.106.053-.215.1-.321.153-.532.261.334-.127-.021.013-.625.248-1.26.464-1.906.652-1.434.416-2.902.707-4.376.938-1.414.222-3.237.406-4.972.531-1.924.138-3.852.216-5.781.254-8.091.159-16.206-.31-24.254-1.126-3.715-.377-6.484-.701-10.031-1.314-1.276-.22-2.585.341-2.952,1.676-.317,1.155.392,2.73,1.676,2.952,7.138,1.233,14.401,1.89,21.629,2.303,8.241.471,16.603.643,24.8-.479,3.3-.452,6.763-1.108,9.676-2.811,2.665-1.559.252-5.709-2.423-4.145h0Z"/><path class="f" d="M182.502,313.351c-2.048.138-4.118.096-6.169.108-2.102.012-4.215.06-6.316-.029-1.256-.053-2.456,1.142-2.4,2.4.06,1.346,1.054,2.343,2.4,2.4,2.101.089,4.214.042,6.316.029,2.051-.012,4.121.03,6.169-.108,1.25-.084,2.461-1.044,2.4-2.4-.055-1.228-1.059-2.49-2.4-2.4h0Z"/><path class="f" d="M77.583,313.452c-2.05.097-4.119.014-6.17-.015-2.102-.03-4.215-.024-6.314-.156-1.255-.079-2.456,1.16-2.4,2.4.061,1.367,1.055,2.316,2.4,2.4,2.099.131,4.212.126,6.314.156,2.051.029,4.12.112,6.17.015,1.252-.059,2.46-1.061,2.4-2.4-.056-1.249-1.057-2.464-2.4-2.4h0Z"/><path class="d" d="M3.341,56.215c-.32-.503-.576-1.054-.75-1.657-.794-2.767.56-5.417,2.381-7.611,1.821-2.171,4.086-3.479,6.584-5.043.476-.297.983-.531,1.503-.738,7.648,4.186,9.929,12.136,9.416,20.411-1.877.11-3.455.181-4.48.214-2.93.094-6.058-.412-8.996-1.535-2.187-.836-4.412-2.079-5.659-4.04Z"/><path class="e" d="M54.201,201.651c1.174-2.527,1.36-4.53.48-7.713-.446-1.613-1.102-3.028-2.413-3.787-1.6-.927-3.828-1.975-5.201-1.9-.168.009-.615-.052-1.239-.159-.432-.074-.953-.172-1.52-.282,1.293,5.767,3.004,12.711,4.723,18.991,2.211-1.677,4.432-3.563,5.169-5.15Z"/><path class="f" d="M13.416,44.198c.915.635,2.036,1.635,2.966,2.747.086.103.331.41.129.147.117.152.229.308.339.465.198.281.388.568.568.861.381.616.722,1.257,1.026,1.914.017.037.2.446.11.238-.106-.247.12.302.139.351.124.323.239.649.347.978.229.701.421,1.414.579,2.134.076.345.143.692.204,1.04.034.195.065.39.095.585.025.161.042.331.011.07.096.798.158,1.599.192,2.402.054,1.253,1.065,2.46,2.4,2.4,1.254-.056,2.458-1.057,2.4-2.4-.153-3.543-.843-6.993-2.333-10.221-1.48-3.207-3.861-5.853-6.749-7.856-1.066-.739-2.665-.196-3.284.861-.698,1.193-.207,2.543.861,3.284h0Z"/><path class="f" d="M35.267,40.904c.737,1.689.85,5.747-2.413,6.452-4.368.453-5.159-4.382-3.953-6.828.988-2.003,4.435-3.169,6.365.377Z"/><path class="f" d="M37.335,63.67c.189,3.803.699,7.561.793,11.374.103,4.145.169,8.292.215,12.438.092,8.294.103,16.589.162,24.883.058,8.137.166,16.275-.148,24.409s-.897,16.313-.432,24.485c.716,12.581,3.383,24.923,6.426,37.116,1.366,5.471,2.808,10.928,4.455,16.323,1.266,4.148,2.768,8.219,4.094,12.348,1.649,5.137,3.221,10.303,4.618,15.515.556,2.075,1.092,4.158,1.522,6.263.084.409.163.818.235,1.229.032.183.06.367.091.551.1.599-.059-.539.006.025.119,1.04.224,2.081.331,3.123,1.094,10.63,2.04,21.288,2.645,31.958.233,4.104.425,8.205.181,12.312-.369,6.202-1.258,12.341-1.994,18.505-.206,1.728-.398,3.457-.571,5.189-.191,1.916-.356,3.669,1.209,5.086,1.237,1.12,2.63,1.199,4.216,1.149,2.032-.064,4.064-.146,6.095-.222,3.535-.131,8.202.657,10.47-2.733.942-1.408.945-3.104,1.084-4.732s.26-3.249.371-4.875c1.029-15.189,1.43-30.45,1.637-45.67.148-10.911.557-21.815,1.513-32.689.084-.959.174-1.919.278-2.876.042-.391.089-.782.135-1.172.016-.137.101-.747.002-.031.02-.146.042-.292.065-.438.196-1.28-.324-2.581-1.676-2.952-1.136-.312-2.755.387-2.952,1.676-.647,4.219-.897,8.51-1.18,12.765-.36,5.407-.645,10.821-.821,16.237-.208,6.39-.194,12.788-.341,19.18-.166,7.21-.445,14.415-.71,21.622-.144,3.913-.345,7.825-.581,11.733-.095,1.565-.198,3.13-.315,4.693-.06.801-.123,1.603-.19,2.403-.057.684.062,1.757-.257,2.38-.473.925-2.293.535-3.139.561-1.926.059-3.852.135-5.778.207-.932.035-1.865.07-2.797.102-.454.015-.908.03-1.362.044l-.448.013c-.543-.007-.592.009-.145.048l.16.08c-.241-.139-.286-.164-.134-.076.314.262.141.851.254-.084s.181-1.87.279-2.803c1.109-10.521,2.886-20.894,2.404-31.507-.476-10.488-1.418-20.964-2.438-31.411-.394-4.038-.74-8.049-1.674-12.004-1.151-4.877-2.578-9.692-4.047-14.482-2.787-9.092-6.009-18.008-8.46-27.205-2.908-10.914-5.642-21.975-7.09-33.191-2.05-15.873-.197-31.787-.223-47.717-.026-16.088-.051-32.195-.461-48.279-.093-3.645-.6-7.24-.781-10.877-.153-3.074-4.954-3.093-4.8,0h0Z"/><path class="e" d="M74.532,174.679c-2.121.317-3.729,1.839-4.39,3.728-.524,1.497-.191,3.462.491,4.894.936,1.964,2.228,3.94,4.39,5.419,1.835,1.255,3.978,1.384,5.529-.208,1.698-1.744,3.143-2.92,4.286-4.725.938-1.48,1.453-3.147.277-4.446-3.242-3.582-7.529-5.119-10.583-4.662Z"/><path class="e" d="M72.536,206.649c.295-.242.673-.359,1.049-.426,1.851-.332,3.864.204,5.226,1.5,1.362,1.297,1.996,3.347,1.495,5.159-.747,2.697-6.318,6.951-9.153,4.923-.838-.6-.975-1.753-1.054-2.78-.142-1.846.589-6.857,2.438-8.376Z"/><path class="e" d="M160.783,204.189c-.858-.329-4.587-4.222-4.751-5.817-.097-.948,2.1-5.38,2.929-6.571.963-1.383,2.697-.987,3.834.256,1.199,1.312,3.656,4.816,3.45,6.826-.087.846-2.67,5.099-3.774,5.389-.5.131-1.223.096-1.688-.083Z"/><path class="e" d="M54.732,151.806c-.865.514-1.62,1.239-2.151,2.104-.827,1.345-1.177,2.957-1.106,4.535.054,1.19.35,2.391,1.016,3.378,1.78,2.64,6.106,3.747,9.037,2.754,1.255-.425,2.217-1.353,2.532-2.66.317-1.315-.028-2.883-.468-4.163-.652-1.898-1.223-3.919-2.673-5.396-1.759-1.792-4.249-1.704-6.187-.552Z"/><path class="e" d="M102.071,179.166c-1.2,1.301-1.779,3.218-1.645,4.983.14,1.848.912,3.681,2.295,4.915,2.754,2.46,11.443,1.908,11.287-3.058-.043-1.357-3.97-9.338-6.799-9.541-1.545-.111-3.955,1.42-5.137,2.701Z"/><path class="e" d="M97.509,205.653c-2.087,1.71-2.171,4.863-1.51,7.105.524,1.777,2.528,4.238,4.351,4.566,2.816.507,4.554.785,7.586,1.214,2.571.363,4.484-.704,4.87-3.271.422-2.811.444-5.018.656-7.388.182-2.038-.719-3.265-2.741-3.581-5.324-.833-10.641-.751-13.212,1.356Z"/><path class="e" d="M50.663,99.715c-1.201,1.997-.299,4.528,1.171,6.337.988,1.215,2.439,2.025,3.979,2.292.948.165,1.929-.143,2.608-.825,3.338-3.356,4.975-8.815,1.701-13.132-.558-.736-1.432-1.643-2.92-1.643-.912,0-2.12.172-2.615.937-.887,1.374-3.117,4.694-3.923,6.034Z"/><path class="e" d="M146.407,204.711c-.287-1.743-1.75-2.896-3.51-3.199-1.086-.187-7.048.64-10.191,1.417-.997.246-1.292.521-1.872,1.458-.355.574-.538,1.794-.504,2.353.176,2.841.214,5.591,1.217,8.267.164.438.629.865,1.081.986.479.128,1.362.055,1.67-.048,3.462-1.158,12.006-5.005,12.495-6.554.115-.365.117-.759.083-1.14-.113-1.244-.246-2.176-.47-3.539Z"/><path class="f" d="M38.628,70.131c1.127,1.013,2.245,2.037,3.367,3.056.999.908,2.087,1.824,2.5,2.894.368.954.437,1.8.298,2.54-.214,1.139-.711,1.897-1.426,2.89-1.351,1.875-2.748,3.717-4.092,5.597-.754,1.055-.185,2.672.861,3.284,1.206.706,2.528.196,3.284-.861,1.486-2.078,3.07-4.087,4.519-6.192,1.632-2.371,2.159-5.515,1.275-8.271-1.144-3.57-4.511-5.921-7.192-8.331-.964-.866-2.443-.951-3.394,0-.881.881-.968,2.524,0,3.394h0Z"/><path class="f" d="M73.894,172.365c-2.027.345-3.749,1.567-4.948,3.203-1.306,1.782-1.641,3.923-1.309,6.071.571,3.692,3.372,7.558,6.587,9.413,1.97,1.137,4.365,1.397,6.427.345.94-.48,1.653-1.256,2.393-1.987.665-.656,1.344-1.298,1.977-1.986,1.502-1.632,2.884-3.559,3.131-5.819.259-2.366-1.269-4.114-2.975-5.53-3.185-2.644-7.108-4.282-11.284-3.711-1.249.171-2.039,1.833-1.676,2.952.444,1.372,1.614,1.859,2.952,1.676-.732.1.144.013.296.01.269-.006.539.003.807.023.123.009.246.026.37.035-.533-.041-.199-.031-.073-.004.323.068.645.128.965.213.299.08.594.172.886.274.167.059.332.121.496.185-.092-.036-.402-.186.024.013.616.288,1.213.607,1.786.974.742.475.895.6,1.432,1.075.251.222.494.452.731.689.12.121.235.247.355.368.201.227.231.255.09.085l.113.197-.077-.168c.055.244.068.278.038.1-.037-.308-.022.144-.02.216.006.306.182-.417-.047.128-.059.141-.09.298-.147.441.045-.113.166-.32-.056.084-.08.145-.157.29-.241.431-.086.144-.177.286-.27.426-.009.013-.435.621-.208.318-.912,1.215-2.093,2.228-3.162,3.3-.163.164-.322.334-.49.493-.044.041-.428.328-.209.188.26-.166-.364.181-.329.164.094-.044.401-.147-.03-.014-.107.033-.453.071.013.029-.143.013-.282.01-.425.016-.428.02-.133.002-.006.023-.22-.036-.433-.099-.646-.162-.435-.128-.169-.062-.067-.015-.18-.084-.354-.182-.524-.284-.179-.108-.351-.226-.522-.347-.025-.017-.351-.282-.12-.092-.564-.464-1.071-.987-1.543-1.544-.307-.363-.12-.151-.057-.066-.115-.154-.225-.312-.332-.471-.191-.282-.371-.571-.543-.865-.15-.257-.292-.517-.428-.781-.067-.129-.127-.265-.197-.393-.239-.438.037.194-.122-.267-.134-.386-.233-.774-.33-1.17-.179-.732,0,.22-.037-.216-.017-.203-.028-.407-.026-.61.004-.563.128-.943.353-1.345.084-.149.191-.287.272-.437.098-.139.075-.115-.068.074.065-.08.132-.157.203-.232.093-.101.189-.199.289-.293.074-.072.151-.14.23-.206-.189.14-.214.16-.075.062.119-.069.231-.153.35-.223.067-.039.627-.3.372-.202-.276.106.15-.041.214-.06.245-.073.492-.124.744-.167,1.241-.211,2.048-1.805,1.676-2.952-.433-1.339-1.623-1.903-2.952-1.676Z"/><path class="f" d="M73.748,208.721l.154-.111c.238-.128.22-.124-.052.014.039-.062.472-.116.547-.115-.578-.009-.242.029-.112.03.176.001.352-.014.529-.01.124.003.42-.027.528.034-.027-.015-.578-.118-.114-.008.172.041.344.074.515.122.063.018.734.224.378.11-.361-.115.152.076.193.098.156.081.308.168.456.263.063.04.235.13.29.198-.353-.441-.059-.033.054.075.079.075.34.275.364.384-.051-.237-.195-.293-.052-.067.095.15.194.294.281.449.058.103.112.207.163.313-.11-.278-.132-.334-.068-.168.104.309.189.613.267.93.136.548,0-.38-.006-.029-.003.145.016.292.014.438l-.005.175c-.023.272-.012.233.032-.115.019.12-.059.311-.09.43-.023.089-.057.177-.078.265-.081.348.325-.607.044-.107-.091.162-.175.326-.275.484-.118.186-.555.672-.046.107-.36.4-.693.805-1.09,1.172-.173.16-.354.309-.532.463-.39.337.457-.324.035-.024-.078.055-.154.113-.233.168-.465.327-.953.623-1.465.871-.067.033-.492.197-.091.051.404-.147-.026.008-.092.032-.206.077-.416.144-.628.201-.123.033-.248.062-.373.087-.278.055-.451-.06.148-.013-.23-.018-.477.016-.71.008-.434-.015.521.133.242.03-.084-.031-.186-.047-.273-.068-.368-.091-.089-.208.156.079-.034-.04-.192-.119-.246-.137-.181-.058.384.446.101.074l.175.247c-.06-.085-.114-.174-.162-.266.063-.039.153.505.059.133-.054-.213-.107-.423-.154-.638-.123-.563.035.55,0-.024-.006-.109-.02-.219-.028-.328-.011-.164-.017-.327-.017-.491-.001-.44.028-.881.072-1.319.013-.131.029-.262.043-.393.055-.503-.096.605-.012.094.047-.283.091-.565.146-.847.122-.624.273-1.243.466-1.848.082-.259.244-.54.286-.804-.086.538-.139.314-.026.072.056-.119.114-.236.176-.352.114-.214.283-.412.387-.63-.252.526-.279.315-.091.131.102-.099.198-.201.306-.293.957-.819.904-2.564,0-3.394-1.019-.936-2.373-.874-3.394,0-1.079.923-1.701,2.343-2.158,3.652-.476,1.363-.712,2.79-.885,4.219-.157,1.295-.127,2.541.1,3.83.334,1.893,1.703,3.448,3.587,3.905,3,.727,6.024-.941,8.217-2.85.957-.833,1.891-1.867,2.446-3.015.806-1.668.958-3.619.372-5.39-.684-2.071-2.166-3.859-4.18-4.75-1.107-.49-2.218-.777-3.436-.822-1.18-.043-2.599.14-3.578.845-1.016.732-1.61,2.122-.861,3.284.649,1.007,2.194,1.646,3.284.861Z"/><path class="f" d="M161.994,202.116c-.111-.047-.202-.12-.306-.178-.317-.175.512.43.215.169-.076-.067-.155-.129-.231-.195-.417-.361-.809-.752-1.188-1.152-.372-.392-.73-.797-1.073-1.215-.088-.107-.174-.253-.277-.345.443.395.155.201.028.027-.183-.252-.359-.509-.52-.776-.103-.17-.191-.473-.327-.609.319.319.177.528.101.21-.062-.256-.015-.397.016.319-.023-.525-.179.679-.032.175.056-.192.105-.385.169-.575.079-.235.167-.467.259-.697.062-.156.287-.56-.03.061.066-.129.116-.269.175-.401.266-.597.549-1.187.845-1.77.226-.444.458-.886.705-1.319.106-.187.214-.373.329-.555.046-.073.097-.143.14-.217.091-.132.056-.084-.107.145.195-.181.159-.16-.106.062.408-.296-.491.107-.01.009l-.339.043c.102-.006.204-.005.306.003l-.328-.039c.105.023.209.053.31.088l-.266-.114c.103.05.203.105.301.165.475.227-.288-.34.084.056.108.116.226.222.332.34.164.182.317.373.472.562.321.39-.338-.462-.026-.034.091.124.183.247.273.372.191.266.375.537.553.812.403.623.745,1.268,1.082,1.927.259.508-.174-.5.015.025.053.146.11.291.158.439.075.231.127.465.183.701.116.491-.046-.598-.024-.116.022.468-.157.053.07-.231-.021.026-.035.134-.043.167-.055.229-.296.474.097-.2-.596,1.021-1.101,2.06-1.799,3.025-.081.112-.171.219-.248.334.412-.616.084-.116-.034.021-.17.198-.368.37-.54.565-.264.297.523-.338.207-.153-.424.249.568-.194.269-.091-.579.198.526-.138-.118-.007-.284-.019-.268-.012.049.022-.117-.023-.231-.056-.343-.098-1.193-.394-2.674.456-2.952,1.676-.301,1.322.399,2.53,1.676,2.952,1.153.381,2.598.367,3.683-.216.56-.301,1.05-.775,1.463-1.256.961-1.118,1.809-2.37,2.499-3.673.283-.534.579-1.103.737-1.686.234-.858.121-1.81-.099-2.657-.433-1.666-1.36-3.247-2.35-4.641-1.113-1.568-2.359-3.178-4.318-3.687-1.174-.305-2.527-.167-3.537.539-.746.522-1.277,1.218-1.731,1.995-.693,1.185-1.298,2.43-1.84,3.691-.581,1.352-1.294,2.826-.89,4.332.432,1.613,1.663,3.041,2.737,4.263.495.563,1.015,1.109,1.57,1.614.45.41.939.9,1.502,1.14,1.152.49,2.626.383,3.284-.861.544-1.029.372-2.759-.861-3.284Z"/><path class="f" d="M180.374,196.428c-2.142,3.071-4.286,6.141-6.405,9.228-.906,1.321-2.073,2.484-2.723,3.959-.831,1.887-.637,3.849-.124,5.8.439,1.671,1.126,3.242,1.721,4.859.528,1.436.986,2.891,1.976,4.089,2.23,2.697,6.781,3.113,10.002,2.606,1.281-.202,1.992-1.803,1.676-2.952-.375-1.366-1.667-1.879-2.952-1.676-1.779.28-4.698-.044-5.532-1.852-.513-1.111-.886-2.339-1.32-3.484-.49-1.293-1.04-2.69-1.22-4.069-.158-1.206.418-1.893,1.128-2.792.888-1.125,1.675-2.317,2.488-3.495,1.798-2.607,3.618-5.2,5.43-7.798.742-1.064.194-2.666-.861-3.284-1.196-.699-2.54-.205-3.284.861h0Z"/><path class="f" d="M59.101,57.518c-.107-1.387-.284-2.773-.532-4.143-.24-1.328-.561-2.567-1.425-3.64-1.061-1.318-2.785-1.654-4.379-1.389-1.171.195-2.248.871-3.283,1.423-1.152.615-2.067,1.758-2.338,3.046-.299,1.424.06,2.704.858,3.893,1.329,1.981,2.821,3.841,4.83,5.169,1.464.968,3.443,1.629,4.988.435s1.406-3.045,1.28-4.795c-.09-1.249-1.039-2.461-2.4-2.4-1.223.055-2.497,1.059-2.4,2.4.035.488.063.976.078,1.465.005.169-.001.338.003.506.008.303.115-.544.034-.257-.048.182-.005.087.131-.286l.222-.293c.292-.267.741-.47,1.133-.484-.305.011.077-.109.251.047-.02-.018-.261-.074-.259-.074-.002,0,.469.231.264.113-.368-.212-.738-.402-1.088-.646-.078-.054-.16-.131-.242-.175-.006-.003.387.316.191.146-.151-.131-.306-.255-.454-.389-.316-.286-.615-.589-.9-.905-.237-.263-.462-.536-.684-.812-.256-.318.069.081.095.124-.051-.084-.124-.165-.183-.245-.136-.185-.269-.372-.401-.56-.218-.313-.441-.627-.641-.952-.022-.036-.085-.181-.125-.216.28.244.159.489.106.236-.008-.04-.075-.209-.058-.231-.013.016.039.694.048.23.009-.516-.146.466-.025.119.192-.551-.245.349-.034.031.025-.038.089-.191.122-.2.035-.01-.456.467-.152.209.04-.034.157-.131.175-.165-.037.071-.468.303-.186.161.381-.191.759-.393,1.137-.592.188-.099.377-.198.563-.303.069-.039.302-.131-.033.004-.38.153.02,0,.108-.027.089-.027.182-.045.271-.072.26-.081.121.124-.227.02.052.016.232-.01.273-.012.22-.012.254.125-.237-.051.054.019.137.037.194.044.287.036-.449-.256-.203-.099.081.051.336.218.04-.003-.364-.272.022.088.057.097-.089-.023-.281-.486-.141-.144.037.09.266.434.058.095-.183-.298-.037-.068,0,.049.036.114.067.23.096.346.121.481.208.971.293,1.459.041.232.079.465.115.698.018.116.034.233.052.35.087.581-.041-.367-.004-.025.06.557.123,1.112.167,1.671.097,1.249,1.035,2.461,2.4,2.4,1.217-.055,2.504-1.06,2.4-2.4Z"/><path class="f" d="M141.757,233.658c1.728-.801,3.497-1.627,5.477-2.102.274-.066.183-.044.359-.05.139-.005.627.074.284-.007.148.035.592.269.207.038.149.089.301.168.446.265.203.136-.199-.228.08.092.035.04.457.558.177.166.105.147.2.301.289.458.055.094.106.19.153.289-.078-.208-.087-.232-.027-.072.064.17.12.343.166.518-.003-.011.122.593.086.338.064.456.04.932.011,1.39-.019.308-.09.676-.203,1.162-.118.504-.261,1.001-.416,1.495-.63,2.008-1.33,3.698-2.259,5.548-.563,1.121-.335,2.652.861,3.284,1.089.576,2.682.337,3.284-.861,1.203-2.396,2.271-4.916,2.984-7.505s.869-5.361-.393-7.816c-1.169-2.275-3.575-3.801-6.16-3.548-1.369.134-2.637.612-3.91,1.105-1.324.513-2.632,1.072-3.92,1.67-1.142.53-1.518,2.265-.861,3.284.759,1.177,2.062,1.428,3.284.861h0Z"/><path class="f" d="M46.432,190.565c1.612.405,3.543.794,4.852,1.795-.221-.169.144.157.199.217.273.3-.213-.381.175.241.231.37.352.65.449.925.286.815.593,2.025.669,2.673.053.45.066.908.049,1.36-.023.581.013.329-.116.902-.174.776-.398,1.454-.738,2.058-.258.457-.258.444-.55.776-.336.384-.697.745-1.069,1.094-.803.755-1.657,1.457-2.533,2.125-1.029.785-1.572,2.068-.861,3.284.593,1.013,2.247,1.652,3.284.861,2.117-1.614,4.54-3.345,5.873-5.717,1.185-2.11,1.711-4.63,1.427-7.029-.299-2.522-1.002-5.431-2.94-7.22-1.812-1.672-4.558-2.387-6.894-2.974-2.997-.752-4.275,3.876-1.276,4.629h0Z"/><path class="f" d="M53.521,149.734c-3.627,2.234-5.088,6.631-4.184,10.706.777,3.503,3.879,5.888,7.278,6.605,3.258.688,7.486.201,9.207-3.086.985-1.882.883-4.045.333-6.045-.461-1.677-1.068-3.417-1.875-4.956-1.005-1.916-2.658-3.569-4.791-4.142-2.027-.544-4.172-.115-5.967.918-1.089.626-1.56,2.2-.861,3.284.709,1.099,2.119,1.531,3.284.861.132-.076.264-.15.4-.218.432-.216.007-.074.007-.013,0-.062.729-.221.773-.231.4-.09.188.105-.025-.016.035.02.287-.023.353-.025.147-.005.294-.003.44.004.623.034-.309-.13.147.023.108.036.234.065.343.093.424.109-.005-.035-.07-.049.262.059.588.315.8.469-.432-.315.213.248.319.367.086.096.341.461.07.069.115.167.229.331.334.504.175.287.333.584.477.887.058.122.112.245.168.368-.196-.429-.044-.105-.01-.011.233.635.458,1.272.675,1.913.227.67.407,1.334.575,2.02.023.094.063.469.014.006.015.143.029.286.036.429.009.177.011.353.005.53-.002.105-.008.209-.019.313.044-.296.039-.307-.014-.031-.014.042-.089.351-.102.347-.066-.022.236-.416.033-.089-.076.121-.154.352-.272.439.036-.026.372-.39.045-.095-.018.016-.199.227-.25.234l.214-.164c-.094.067-.192.13-.291.188-.038.022-.309.169-.31.165.276-.109.329-.133.162-.071-.077.029-.154.055-.232.078-.254.079-.511.128-.769.188-.371.085.153-.009.155-.014-.011.019-.28.027-.329.031-.279.02-.559.027-.839.019-.114-.003-.227-.008-.34-.015-.075-.005-.761-.098-.365-.027.411.074-.154-.033-.194-.04-.114-.022-.227-.046-.34-.072-.282-.065-.562-.143-.837-.234-.11-.036-.218-.077-.327-.115-.415-.143.036.034.093.048-.302-.072-.645-.308-.911-.466-.096-.057-.192-.117-.286-.178-.034-.022-.501-.306-.164-.102.322.196-.097-.085-.141-.124-.081-.072-.161-.146-.239-.222-.096-.095-.184-.197-.278-.293-.203-.205-.306-.129.024.049-.216-.117-.393-.638-.501-.86.206.424.016.012-.023-.11-.065-.2-.119-.403-.165-.609-.028-.126-.103-.595-.038-.089-.027-.208-.042-.42-.052-.63-.018-.397.022-.789.027-1.185s-.128.538.015-.11c.047-.211.085-.422.141-.63.037-.138.078-.276.122-.413.043-.134.246-.608.07-.227.178-.385.389-.747.628-1.097-.055.08-.299.336.002.008.138-.15.274-.298.422-.438-.005.004.497-.426.22-.205-.219.175.358-.231.421-.27,1.069-.658,1.575-2.177.861-3.284-.691-1.072-2.14-1.565-3.284-.861Z"/><path class="f" d="M100.374,177.469c-3.533,3.984-3.024,10.804,1.455,13.921,1.32.918,2.964,1.263,4.533,1.432,1.557.168,3.219.026,4.719-.423,3.199-.956,6.088-3.851,5.166-7.448-.335-1.307-.991-2.578-1.617-3.767-.797-1.513-1.728-2.939-2.805-4.268-1.161-1.432-2.698-2.74-4.616-2.851-1.293-.075-2.622.463-3.738,1.059-1.131.603-2.214,1.414-3.096,2.345-.864.912-.973,2.501,0,3.394.936.86,2.472.974,3.394,0,.27-.285.564-.534.855-.796.197-.177-.074.055-.099.073.082-.058.162-.119.244-.177.194-.137.392-.268.595-.392s.408-.24.618-.349c.083-.043.601-.277.336-.17-.267.108.242-.078.326-.104s.173-.043.256-.071c.392-.133-.126.064-.147-.002-.018-.056.901.056.223-.043-.5-.073-.114-.024-.013.021.379.17-.353-.2-.216-.101.11.079.248.131.364.205.086.055.411.304.08.041-.339-.269.007.013.082.079.229.202.444.419.651.643.159.173.396.605.598.703.004.002-.299-.402-.149-.193.044.061.09.12.135.18.105.143.209.288.31.433.384.552.742,1.121,1.08,1.702.336.577.652,1.166.946,1.765.118.24.233.483.344.727.05.111.09.235.151.341-.365-.639-.105-.251-.024-.046.136.348.231.702.343,1.056.116.367-.087-.447-.053-.427.039.022-.001.339,0,.372,0,.013-.015.191-.014.191-.032-.007.116-.545.042-.331-.044.128-.067.276-.101.409-.015.056-.045.11-.058.167-.063.274.265-.48.103-.253-.065.091-.109.206-.169.302-.053.084-.296.438-.047.085.245-.347-.038.021-.122.104-.098.097-.21.179-.308.276-.091.09.477-.315.098-.089-.252.15-.499.293-.761.426-.408.207.24-.078.099-.041-.125.033-.248.091-.372.131-.299.097-.603.176-.91.241-.134.028-.269.051-.404.076-.477.088.247-.02.091-.01-.324.021-.644.057-.97.065-.299.007-.599.002-.898-.016-.136-.008-.272-.02-.408-.032-.067-.006-.135-.018-.202-.022-.301-.016.53.098.24.032-.565-.128-1.106-.252-1.659-.425-.352-.11.52.261.088.036-.116-.061-.235-.116-.348-.181-.124-.071-.239-.158-.362-.23-.256-.15.464.431.087.049-.174-.177-.343-.359-.516-.538.028.029.2.293.049.066-.099-.148-.202-.291-.294-.443-.129-.214-.231-.44-.352-.658-.131-.236.015.039.03.082-.048-.135-.1-.268-.144-.404-.089-.272-.162-.549-.221-.829-.022-.105-.036-.212-.059-.316-.077-.35.005.358.004,0-.001-.249-.032-.497-.027-.747.002-.108.008-.215.015-.323.014-.211.075-.457.004-.114.051-.249.102-.497.172-.741.039-.134.268-.733.093-.344.117-.262.253-.517.406-.76.057-.091.122-.177.178-.267.195-.313-.338.388.091-.095.833-.939.994-2.481,0-3.394-.911-.836-2.505-1.003-3.394,0Z"/><path class="f" d="M72.688,123.403c-1.68-.307-3.204-1.182-4.956-1.096-1.684.082-3.272.949-4.344,2.233-2.361,2.83-2.361,6.523-1.445,9.931.837,3.114,2.147,5.791,4.697,7.847,2.472,1.993,5.297,3.465,8.364,4.299,2.984.812,4.258-3.817,1.276-4.629-2.16-.588-4.059-1.524-5.91-2.828-1.686-1.187-2.766-2.628-3.379-4.558-.393-1.237-.797-2.515-.848-3.821-.042-1.074.069-1.834.558-2.668-.014.024.458-.62.252-.383-.005.005.519-.495.286-.317.012-.009.63-.344.33-.222.35-.142.037-.098.467-.096.95.005,2.299.738,3.378.935,1.274.233,2.588-.349,2.952-1.676.32-1.165-.395-2.718-1.676-2.952h0Z"/><path class="f" d="M42.369,121.97c.377.002.572.201.734.21.075.004.111.079-.047-.197-.36-.629.022.035-.037.007.073.034.066.89.001-.074.011.158.033.317.046.475.031.38.049.761.063,1.142.07,1.932.026,3.874-.094,5.803-.027.432-.058.864-.099,1.295-.018.192-.04.383-.059.574-.065.664.06-.36-.005.065-.104.675-.207,1.347-.393,2.006-.054.19-.112.379-.178.565-.025.07-.293.653-.068.193-.193.395-.401.776-.654,1.136.248-.352-.149.167-.212.233-.167.177-.344.35-.532.505.203-.167-.388.254-.478.307-.29.171-.59.316-.897.454-1.182.532-1.466,2.25-.861,3.284.711,1.216,2.097,1.395,3.284.861,4.823-2.17,5.724-7.213,5.979-11.944.119-2.201.194-4.449-.01-6.647-.089-.961-.175-1.866-.724-2.683-1.047-1.56-2.921-2.36-4.759-2.372-3.089-.02-3.093,4.78,0,4.8h0Z"/><path class="f" d="M95.812,203.956c-3.359,2.905-3.272,8.609-.833,12.05,1.424,2.009,3.186,3.36,5.635,3.793,2.112.373,4.229.706,6.352,1.006,2.28.322,4.599.22,6.368-1.45,1.827-1.725,1.96-4.28,2.173-6.626.095-1.052.156-2.107.226-3.161.082-1.226.262-2.436-.015-3.653-.483-2.123-2.269-3.557-4.36-3.931-4.995-.894-11.322-1.351-15.547,1.973-1.02.802-.84,2.554,0,3.394,1.007,1.007,2.372.804,3.394,0-.394.31.428-.233.554-.298.129-.066.261-.131.394-.187-.402.169.069-.012.17-.043.346-.108.691-.211,1.045-.292.164-.038.329-.072.495-.103.001,0,.768-.124.401-.074,1.895-.259,3.858-.173,5.756.004.802.075,1.627.142,2.414.322.181.041.36.089.534.154-.079-.029-.429-.171-.022.014.553.252-.272-.165.035.021.121.126.094.079-.081-.142.053.074.101.152.143.233-.006.327-.127-.534.003.038.025.11.07.441.021-.035.036.353.012.705-.016,1.057-.074.938-.135,1.876-.198,2.815s-.133,1.876-.236,2.811c-.036.328-.071.657-.124.982-.032.193-.085.382-.119.573-.027.108-.059.214-.096.319.1-.21.113-.239.039-.088-.076.15-.161.291-.251.433.249-.394.113-.106.011-.038-.509.337.302-.163-.019.047-.133.087-.269.162-.408.239.435-.24-.154.019-.357.074-.608.165.297,0-.093.008-.264.006-.524.01-.788-.008-1.377-.094-3.298-.469-4.878-.735-.845-.142-1.708-.256-2.544-.445-.135-.03-.261-.063-.393-.102.429.126.005.003-.116-.077-.162-.106-.332-.197-.486-.317.305.239-.238-.242-.259-.262-.12-.118-.237-.24-.35-.364.005.005-.452-.564-.261-.303-.263-.359-.486-.744-.69-1.139-.187-.362.124.487-.058-.132-.06-.203-.124-.404-.173-.61-.035-.144-.059-.29-.094-.434-.127-.535-.011.245-.04-.268-.024-.433-.046-.857-.019-1.29.007-.111.083-.61.008-.183.041-.232.091-.462.156-.688.043-.15.091-.299.145-.445-.149.402.107-.189.154-.27-.022.037.403-.561.214-.333-.08.097.389-.362.48-.441.981-.848.87-2.524,0-3.394-.973-.973-2.411-.85-3.394,0Z"/><path class="d" d="M211.348,263.934c-2.37.518-4.803.678-7.076-.084-4.814-1.614-7.665-6.876-6.405-11.587.575-2.15,1.828-3.76,4.103-3.959,3.21-.282,6.761,1.648,8.526,5.151.941,1.867,1.469,4.058,3.072,5.401,1.065.892,2.407,1.448,3.791,1.57-.185,1.538-1.89,2.341-3.37,2.799-.863.267-1.747.514-2.641.709Z"/><path class="f" d="M210.71,261.619c-1.61.339-3.319.538-4.94.158-1.287-.302-2.39-.877-3.258-1.674-.26-.239-.504-.494-.741-.756-.211-.235-.172-.174-.429-.556-.171-.254-.33-.516-.477-.785-.084-.153-.163-.309-.24-.465-.204-.417.17.494-.119-.267-.216-.568-.375-1.159-.481-1.757.057.325-.013-.092-.017-.136-.016-.173-.027-.346-.033-.52-.013-.391-.004-.784.037-1.173.085-.817.524-1.975,1.048-2.522.17-.177.518-.377.897-.446.27-.049.07-.025.013-.017.16-.022.334-.023.496-.026.166-.003.334,0,.5.008.059.003.656.074.434.037.914.152,2.128.675,2.906,1.294,1.16.923,1.831,1.979,2.438,3.328.763,1.697,1.385,3.426,2.696,4.802,1.568,1.645,3.71,2.43,5.918,2.679l-2.314-3.038c-.053.294.032.277-.141.397.132-.092-.341.22-.4.254.009-.005-.627.308-.402.212-1.07.453-2.262.714-3.391.969-1.265.286-2.008,1.744-1.676,2.952.357,1.3,1.684,1.963,2.952,1.676,2.912-.658,7.064-1.709,7.686-5.185.297-1.661-.671-2.853-2.314-3.038-1.563-.176-2.637-1.195-3.305-2.483-.885-1.706-1.426-3.498-2.607-5.045-2.162-2.833-5.703-4.865-9.353-4.603-4.199.302-6.474,3.732-6.87,7.663-.352,3.494,1.077,7.083,3.513,9.571,3.544,3.62,8.499,4.121,13.249,3.12,1.269-.267,2.005-1.757,1.676-2.952-.361-1.315-1.68-1.944-2.952-1.676Z"/><path class="f" d="M48.59,98.504c-2.11,3.764-.037,8.495,3.293,10.791,1.675,1.155,3.967,1.855,5.972,1.268,1.941-.568,3.324-2.354,4.361-3.995,1.913-3.026,2.732-6.989,1.516-10.432-.65-1.84-1.724-3.666-3.35-4.802-1.567-1.095-3.796-1.281-5.581-.618-1.875.696-2.711,2.404-3.75,3.98-.832,1.261-1.678,2.516-2.461,3.808-.672,1.109-.245,2.637.861,3.284,1.138.665,2.61.251,3.284-.861,1.086-1.793,2.278-3.524,3.428-5.276.116-.177.232-.355.348-.532.239-.364.066-.065-.139.114-.038.033-.365.099-.098.039.136-.03.282-.065.414-.108.338-.111-.35-.005,0,0,.169.002.342-.017.512-.02.507-.008.214-.004.094-.007.299.008.253.054.054-.029.129.054.243.131.365.199.382.214.065.055-.012-.018.18.172.346.345.512.531.063.071.21.314-.01-.011.12.176.241.35.353.532.173.281.329.571.47.87.173.365-.097-.283.036.091.053.149.105.297.151.448.08.261.14.525.202.791.107.458.04.159.024.045.031.226.045.457.055.685.013.304.009.609-.009.912-.009.152-.023.303-.038.454.01-.105.081-.434-.012.04-.119.606-.294,1.181-.481,1.768-.139.435-.059.173-.015.069-.059.142-.126.282-.193.42-.134.278-.279.551-.435.818s-.321.528-.495.783c-.087.127-.177.253-.269.377.196-.265-.04.046-.127.148-.197.234-.402.464-.618.681-.041.041-.404.345-.205.196.22-.166-.347.163-.087.032s-.381.077-.072.021c.243-.044-.123,0-.151-.001-.511-.015-.172-.024-.08-.004-.244-.053-.476-.125-.715-.193-.228-.064-1.092-.547-1.281-.723-.625-.584-.71-.686-1.132-1.431-.08-.142-.155-.286-.229-.431-.296-.581.046.303-.128-.319-.043-.153-.095-.301-.135-.456-.015-.059-.111-.654-.083-.37.025.26.002-.121.002-.141,0-.061.065-.754-.02-.27.026-.15.069-.296.108-.443.121-.456-.118.179.139-.28.634-1.13.271-2.621-.861-3.284-1.107-.647-2.648-.273-3.284.861Z"/><path class="f" d="M148.721,204.073c-.485-2.464-2.642-4.381-5.072-4.853-1.492-.29-3.044-.028-4.532.166-2.085.272-4.169.587-6.224,1.038-1.103.242-2.188.536-3.037,1.33-.822.768-1.433,1.865-1.687,2.955-.292,1.252-.217,2.429-.142,3.696.083,1.406.206,2.807.428,4.198.213,1.335.511,2.902,1.274,4.039.871,1.299,2.37,1.914,3.905,1.808,1.71-.119,3.329-.929,4.889-1.587,1.75-.739,3.483-1.52,5.172-2.39,1.508-.777,3.167-1.616,4.387-2.822,1.981-1.958,1.036-5.154.64-7.578-.209-1.28-1.798-1.993-2.952-1.676-1.36.374-1.886,1.668-1.676,2.952.092.561.186,1.122.259,1.685-.015-.112-.04-.367.013.135.028.267.061.533.085.799.02.221-.007.5.043.714.048.208-.107.148.181-.39-.178.332.52-.454.012-.035-.078.065-.173.142-.241.216-.256.279.205-.158.198-.147-.108.187-.521.37-.7.486-.531.346-1.082.662-1.637.967-1.317.722-2.672,1.376-4.041,1.996-.316.143-.633.284-.951.423-.136.059-1.05.447-.537.234-.642.268-1.287.529-1.938.776-.263.1-.528.197-.793.291-.172.061-.873.211-.21.133-.21.025-.419.016-.629.029-.238.015-.296-.137.06.018-.377-.164.627.276.491.403.04-.037-.234-.734-.27-.864-.566-2.03-.625-4.003-.739-6.173-.007-.131.04-1.14-.037-.615.033-.224.107-.441.141-.664.082-.545-.215.202.054-.168.089-.123.168-.262.251-.388-.288.438.012.028.092-.063-.412.471-.14.179-.081.108-.304.124-.318.139-.042.046.13-.036.261-.069.392-.1,1.543-.376,3.116-.641,4.685-.88.15-.023.301-.045.451-.067.094-.014,1.016-.139.462-.067.408-.053.817-.104,1.227-.148.637-.069,1.277-.138,1.918-.15.106-.002.219.008.324,0,.414-.036-.15.225-.327-.061.03.049.595.144.671.161.521.119-.191-.173.255.102.043.027.637.422.24.109.167.132.322.288.46.45-.324-.378.068.157.104.223-.22-.409.076.341.103.477.25,1.272,1.769,2.001,2.952,1.676,1.328-.365,1.927-1.676,1.676-2.952Z"/><path class="e" d="M150.652,177.825c.481-.619.908-1.174,1.247-1.621,0,0,.877-1.152,2.14-2.794-6.001-1.248-14.356-2.564-23.228-3.953-.064,1.531-.106,2.546-.106,2.546-.117,2.801-.083,8.427,1.424,10.17.478.553,1.06.88,1.64,1.158,1.095.525,2.22.905,3.343,1.284,1.585.536,3.171,1.072,4.756,1.607.374.126.76.254,1.139.164.403-.096.76-.427,1.1-.758,1.585-1.539,4.54-5.225,6.545-7.804Z"/><path class="f" d="M128.305,172.003c-.095,2.416-.032,4.833.316,7.228.388,2.672,1.387,4.932,3.936,6.172,1.575.766,3.251,1.302,4.907,1.861,1.641.554,3.599,1.579,5.352,1.535,2.541-.064,4.539-3.099,6.018-4.884,1.762-2.126,3.464-4.304,5.137-6.5.786-1.032.161-2.686-.861-3.284-1.234-.722-2.496-.173-3.284.861-.336.441-.563.736-.7.913-.387.5-.777.998-1.169,1.494-.858,1.088-1.726,2.169-2.611,3.234-.775.932-1.558,1.862-2.392,2.742-.17.179-.403.355-.545.555-.47.358-.312.389.473.095l-.377-.119c-.8-.508-2.071-.7-2.973-1.005-1.658-.56-3.447-1.015-4.986-1.867-.299-.166-.492-.306-.721-.56.407.453.02-.045-.06-.201-.072-.151-.058-.118.04.096-.052-.14-.099-.282-.142-.425-.083-.271-.149-.546-.21-.823-.445-2.039-.443-4.749-.35-7.12.121-3.089-4.679-3.084-4.8,0h0Z"/><path class="f" d="M57.36,33.266c.114.239.222.48.33.721.14.313-.157-.387-.026-.061.06.148.12.296.178.445.224.574.43,1.155.625,1.739.445,1.336.827,2.692,1.176,4.055.813,3.176,1.448,6.397,2.012,9.625,1.303,7.458,2.211,14.981,2.999,22.508,1.642,15.687,2.336,31.484,4.327,47.13,1.345,10.571,3.36,21.133,7.355,31.055.921,2.287,1.837,4.59,3.31,6.586,1.365,1.849,2.994,3.42,4.911,4.694,2.805,1.864,6.128,2.698,9.359,3.496,14.119,3.489,28.664,5.289,43.009,7.575,6.156.981,12.339,1.933,18.421,3.31,5.422,1.228,10.763,3.395,15.103,6.854,6.113,4.872,9.547,12.11,11.242,19.626,2.243,9.947.38,20.33-1.086,30.248-.714,4.833-1.427,9.696-1.549,14.588-.101,4.073.007,8.162.029,12.237.039,7.261.029,14.54.492,21.789.448,7.014.943,14.024,1.314,21.042.179,3.396.314,6.791.392,10.19.049,2.164.145,4.328.236,6.491.048,1.148.534,2.981-1.019,3.253-.611.107-1.304.039-1.922.057l-4.155.123-3.952.117c-.349.01-.708-.001-1.055.031-.09.008-.192.012-.283.008.085.003.16.134-.033-.027.059.05-.585-.527-.613-.531.301.037-.254,1.583.053,1.006.157-.296.153-.806.213-1.132.292-1.591.557-3.187.776-4.789.626-4.592.071-9.192-.362-13.788-.521-5.533-1.225-11.047-1.958-16.556-.76-5.717-1.389-11.481-2.578-17.129-1.019-4.842-3.823-8.726-6.94-12.457-3.186-3.813-6.184-7.645-8.709-11.941-2.564-4.361-4.709-8.95-6.54-13.663-.469-1.207-1.611-2.045-2.952-1.676-1.153.317-2.148,1.737-1.676,2.952,1.955,5.029,4.187,9.956,6.912,14.618,2.651,4.537,5.815,8.639,9.192,12.65,1.471,1.747,2.906,3.522,4.067,5.495,1.251,2.125,1.841,4.308,2.304,6.718,1.096,5.704,1.743,11.502,2.494,17.259.728,5.582,1.397,11.173,1.854,16.785.201,2.465.537,5.016.439,7.49-.066,1.655-.298,2.94-.567,4.568-.183,1.109-.412,2.21-.595,3.319-.351,2.118,1.002,3.948,2.807,4.951,1.971,1.096,4.567.612,6.724.548,2.315-.069,4.639-.082,6.951-.207,1.995-.108,3.746-.926,4.92-2.576,1.453-2.043,1.044-4.52.948-6.87-.307-7.558-.53-15.106-.996-22.658-.375-6.078-.908-12.157-1.117-18.243-.297-8.624-.262-17.259-.299-25.886-.042-9.853,2.009-19.413,3.077-29.169.575-5.254.831-10.578.178-15.837-.604-4.863-1.941-9.552-3.933-14.027-3.168-7.117-8.537-12.798-15.433-16.411-4.941-2.589-10.032-3.925-15.466-4.972-14.549-2.802-29.274-4.61-43.853-7.248-3.394-.614-6.782-1.266-10.149-2.015-2.825-.629-5.741-1.238-8.459-2.251-4.135-1.541-6.733-4.88-8.405-8.824-2.062-4.863-3.607-9.948-4.824-15.083-4.077-17.197-4.56-35.047-6.131-52.592-.684-7.642-1.466-15.278-2.477-22.885-.96-7.225-2.012-14.5-3.891-21.553-.667-2.503-1.463-4.979-2.578-7.321-.557-1.17-2.233-1.476-3.284-.861-1.197.7-1.42,2.109-.861,3.284h0Z"/><path class="f" d="M59.286,34.462c2.142-1.788,3.884-3.996,4.872-6.621.933-2.478,1.223-5.993-.184-8.374-1.517-2.568-5.549-.958-7.67-.118-2.706,1.072-5.127,2.582-7.276,4.547l2.908-.375c-2.33-1.328-4.78-2.075-7.435-2.374l2.4,2.4c-.222-2.412-.209-4.871-.038-7.284.124-1.739.28-3.595.939-5.216.791-1.947,1.08-4.043.351-6.071-1.366-3.796-5.585-5.846-9.44-4.62-4.088,1.3-6.032,5.71-4.802,9.707v-1.276c-.863,5.203-1.956,10.797-.921,16.049l1.676-2.952c-3.499.883-6.778,2.382-9.585,4.667-2.775,2.259-4.467,5.365-6.619,8.156-.919,1.192-1.989,2.376-3.332,3.089-1.535.815-3.269,1.152-4.781,2.042-3.196,1.881-6.229,3.997-8.35,7.094-2.148,3.136-2.86,7.295-.656,10.61,1.958,2.944,5.284,4.567,8.577,5.563,5.364,1.622,10.998,1.021,16.494.613,3.031-.225,6.061-.498,9.075-.892,2.405-.314,4.927-.579,7.221-1.413,1.218-.442,2.039-1.631,1.676-2.952-.323-1.175-1.728-2.121-2.952-1.676-3.896,1.416-8.096,1.549-12.185,1.905-4.278.372-8.73.906-13.03.686-4.427-.226-14.248-2.777-10.639-9.126,1.565-2.754,4.186-4.426,6.82-6.036,1.314-.803,2.738-1.213,4.147-1.813,1.61-.685,2.999-1.726,4.199-2.998,2.352-2.494,3.856-5.663,6.251-8.112,2.44-2.494,5.603-3.935,8.947-4.779,1.324-.334,1.923-1.701,1.676-2.952-.563-2.858-.12-6.298.271-9.277.174-1.326.401-2.644.608-3.966.225-1.432-.582-2.861.174-4.188,1.121-1.967,4.201-1.655,4.957.422.549,1.507-.466,2.817-.794,4.237-.414,1.793-.642,3.642-.772,5.476-.171,2.414-.184,4.872.038,7.284.129,1.407,1.004,2.243,2.4,2.4,1.778.2,3.467.838,5.012,1.718.962.548,2.111.354,2.908-.375,1.324-1.21,2.8-2.191,4.416-2.973.74-.358,1.506-.644,2.292-.885.392-.12.788-.229,1.187-.325.266-.064.533-.122.801-.175.537-.07.537-.099,0-.087l-1.059-.617c-.591-.596-.049.262.01.668s.051.836.029,1.246c-.049.894-.286,1.805-.655,2.62-.785,1.735-2.107,3.102-3.551,4.307-.996.831-.859,2.536,0,3.394.986.986,2.396.833,3.394,0h0Z"/><path class="f" d="M36.134,11.817c1.314,1.14,2.956,1.565,4.663,1.662,1.354.077,2.787-.15,4.042-.669.604-.249,1.091-.516,1.434-1.103.301-.514.429-1.273.242-1.849-.188-.581-.548-1.141-1.103-1.434-.53-.28-1.267-.482-1.849-.242-.626.259-1.275.433-1.946.527l.638-.086c-.672.085-1.344.086-2.017.003l.638.086c-.546-.076-1.084-.197-1.595-.404l.573.242c-.231-.101-.443-.219-.647-.366l.486.375c-.057-.043-.111-.088-.164-.136-.486-.422-1.036-.703-1.697-.703-.589,0-1.292.261-1.697.703-.42.457-.732,1.058-.703,1.697.027.61.225,1.282.703,1.697h0Z"/></g></svg>