<svg id="b" xmlns="http://www.w3.org/2000/svg" width="299.66" height="217.257" viewBox="0 0 299.66 217.257" style="color: initial !important;"><defs><style>.d{fill:#89705d;}.e{fill:#211715;}</style></defs><g id="c"><path class="d" d="M174.584,189.558c-.246-1.92.339-4.076,1.193-5.849,2.208-4.583,8.237-7.598,8.625-12.458.372-4.665-1.667-13.051-2.5-17.569,0,0-.036-.177-.1-.489,13.368.849,26.576.049,39.787-2.33.006,8.018.07,16.136-.837,24.121-1.749,15.406-5.822,20.325-19.855,21.341-7.621.552-19.912,2.177-25.162-4.032-.666-.787-1.023-1.729-1.152-2.735Z"/><path class="d" d="M235.562,158.521c.595.987,1.197,1.97,1.803,2.95,4.139,6.686,8.698,14.074,9.672,22.138.171,1.414-2.574,2.641-3.519,3.357-1.765,1.337-3.45,2.808-4.798,4.582-3.235,4.256-4.22,11.428,1.403,14.132,3.247,1.562,6.919,1.985,10.489,2.417,3.753.454,7.539.649,11.318.535,4.173-.127,8.34-.636,12.407-1.594,3.587-.845,7.624-1.8,10.525-4.144,4.049-3.272,6.04-8.12,6.88-13.174,1.879-11.306-.818-22.835-2.035-34.06-.137-1.264-.256-2.531-.323-3.802-.638-12.004,2.012-22.355,3.472-34.01,1.382-11.027,1.737-22.231.591-33.302-.263-2.544-.75-5.082-1.145-7.612-.11-.432-.223-.863-.333-1.289,4.576-3.867,6.412-10.069,4.783-15.819-1.052-3.714-3.388-7-6.343-9.483-3.31-2.781-7.378-4.68-11.585-5.529-1.556-2.284-3.255-4.472-5.117-6.539-14.854-16.492-36.08-25.49-57.701-28.842-17.812-2.762-36.376-2.384-53.992,1.394-13.161,2.823-27.433,8.625-40.94,5.66-.278-4-1.747-7.753-4.896-10.443-9.526-8.137-26.872-1.648-30.816,9.11-10.576-.812-20.456-.473-30.253,2.765-.821.325-1.717.696-2.634,1.089-7.763-9.678-17.695-10.599-22.963-5.702-5.14,4.778-5.333,12.571-.187,21.766-2.594,3.125-4.769,6.588-6.382,10.347-1.436,3.347-1.984,6.025-2.542,9.625-.057.368-.105.735-.148,1.103-.368,3.155-.324,6.289-1.769,9.231-2.598,5.289-7.642,7.76-12.028,11.306-.473.383-.921.799-1.33,1.249-4.755,5.232-2.545,12.807.655,18.224,3.672,6.215,8.954,11.492,15.828,14.02,7.377,2.713,15.145,1.751,22.804,2.553,6.012.63,12.016,2.589,16.705,6.388.653,10.964,1.451,21.869,1.183,32.862-.192,7.857-.436,15.962-2.413,23.593-1.294,4.993-5.933,6.858-9.732,9.624-4.068,2.962-6.264,8.973-2.948,13.378,1.347,1.789,3.414,2.929,5.564,3.555,4.956,1.443,10.345,1.096,15.446,1.328,5.681.258,11.617.185,17.041-1.721,5.894-2.07,10.111-6.774,12.864-12.239.179-.356.352-.715.519-1.077,2.67-5.791,4.058-12.275,5.381-18.475,1.662-7.789,2.909-15.66,4.665-23.422,2.797.864,5.645,1.602,8.548,2.196.472,3.988.884,7.985,1.2,11.986.505,6.407,1.087,12.896.558,19.32-.241,2.93-.798,5.873-2.741,8.168-1.881,2.223-4.379,3.804-6.54,5.726-2.29,2.037-4.271,4.558-5.055,7.521-1.386,5.236,1.711,9.389,6.41,11.353,5.23,2.185,11.031,1.9,16.638,1.99,5.432.087,11.009-.289,16.321-1.571.732-.177,1.459-.371,2.18-.583,5.721-1.685,10.236-5.127,13.211-10.352,1.915-3.363,3.147-7.065,4.286-10.763,3.943-12.802,6.927-25.921,9.027-39.148,19.413,2.305,38.419,1.139,57.504-3.284.125.244.256.496.388.747,1.554,2.95,3.217,5.839,4.938,8.693Z"/><path class="e" d="M87.688,15.75c2.27-5.95,9.358-10.125,15.648-10.843,3.409-.39,6.768.054,9.681,1.805,3.202,1.924,5.104,5.238,5.583,8.934.564,4.355-.526,8.947-2.449,12.846-.573,1.162-.313,2.597.861,3.284,1.059.619,2.708.306,3.284-.861,4.228-8.569,5.218-20.641-3.134-27.142-7.116-5.539-17.312-4.477-24.712-.062-4.207,2.51-7.634,6.158-9.39,10.763-.462,1.211.512,2.632,1.676,2.952,1.351.371,2.488-.461,2.952-1.676h0Z"/><path class="e" d="M31.401,33.865c-2.899-5.243-5.155-12.058-1.612-17.272.291-.427.667-.851,1.102-1.284.218-.217.443-.424.676-.625.04-.034.355-.278.075-.068.127-.095.258-.185.39-.273,1.09-.728,1.574-.94,2.827-1.257.28-.071.563-.131.848-.182,0,0,.405-.061.177-.031-.259.035.26-.023.31-.027.651-.042,1.299-.057,1.951-.014.69.045.823.07,1.524.223.657.143,1.305.33,1.939.553,3.396,1.196,6.263,3.689,8.603,6.406.846.983,2.526.868,3.394,0,.974-.974.848-2.409,0-3.394-4.728-5.491-11.711-9.658-19.175-8.345-6.794,1.194-11.182,7.605-11.268,14.258-.063,4.856,1.779,9.567,4.093,13.753,1.495,2.704,5.642.285,4.145-2.423h0Z"/><path class="e" d="M219.19,152.852c.007,5.91,0,11.828-.43,17.726-.307,4.211-.752,8.483-1.916,12.557-.741,2.594-1.777,4.889-3.473,6.6-.223.225-.458.434-.691.647-.103.094-.215.183-.323.27.336-.271.051-.039-.018.011-.558.402-1.143.762-1.754,1.079-1.02.529-2.135.918-3.588,1.281-3.367.842-6.776.967-10.296,1.229-3.883.289-7.922.57-11.784-.076-2.677-.448-7.328-1.568-7.934-4.732-.769-4.018,2.788-7.337,5.254-9.916,1.622-1.697,3.177-3.5,4.021-5.72.776-2.041.652-4.325.447-6.462-.463-4.828-1.599-9.545-2.486-14.303-.238-1.275-1.778-1.999-2.952-1.676-1.338.368-1.914,1.674-1.676,2.952.796,4.274,1.865,8.52,2.298,12.854.169,1.69.436,3.696-.197,5.205-.761,1.811-2.346,3.238-3.682,4.619-3.235,3.345-6.312,7.467-5.839,12.418.455,4.767,4.709,7.588,8.968,8.827,4.16,1.21,8.646,1.209,12.937.98,4.011-.213,8.104-.438,12.065-1.124,3.097-.537,6.243-1.528,8.794-3.417,2.595-1.922,4.354-4.494,5.57-7.461,1.711-4.171,2.295-8.762,2.758-13.215.729-7.026.74-14.099.731-21.155-.004-3.088-4.804-3.094-4.8,0h0Z"/><path class="e" d="M58.774,120.282c6.909,5.091,13.532,10.528,20.804,15.11,6.853,4.318,14.048,8.079,21.594,11.035,4.299,1.684,8.708,3.066,13.202,4.125,3.004.708,4.286-3.919,1.276-4.629-15.65-3.687-30.073-11.486-42.911-21.031-3.876-2.881-7.656-5.89-11.544-8.755-1.044-.769-2.678-.174-3.284.861-.713,1.219-.186,2.512.861,3.284h0Z"/><path class="e" d="M219.477,126.099c1.608,7.965,4.407,15.644,8.033,22.908,3.672,7.356,8.384,14.087,12.301,21.299,1.816,3.343,3.385,6.817,4.287,10.526.103.421.197.845.281,1.271.044.22.079,1.23.242,1.394.24.241-.084-.282.133-.273-.017,0-.388.332-.521.43-1.172.87-2.416,1.582-3.556,2.514-4.597,3.759-8.647,10.16-6.419,16.318,1.205,3.329,3.851,5.146,7.095,6.273,3.86,1.341,8.152,1.7,12.202,2.039,8.353.699,16.764-.045,24.842-2.303,3.589-1.004,6.995-2.522,9.62-5.238,2.497-2.585,4.184-5.838,5.207-9.263,2.343-7.844,1.701-16.414.708-24.42-1.046-8.436-2.576-16.762-2.146-25.3.406-8.045,2.047-15.945,3.138-23.909,1.181-8.622,1.793-17.32,1.557-26.024-.121-4.443-.426-8.896-1.093-13.292-.312-2.056-.597-4.131-1.134-6.141-.555-2.077-1.159-4.141-1.803-6.193-2.296-7.312-5.151-14.508-9.037-21.13-3.81-6.493-8.675-12.267-14.316-17.243-10.755-9.487-23.828-16.012-37.561-19.96-15.343-4.411-31.701-5.818-47.607-4.897-8.451.489-16.899,1.658-25.137,3.615-7.769,1.846-15.434,4.378-23.38,5.389-3.766.479-7.658.639-11.428.103-1.282-.182-2.578.314-2.952,1.676-.309,1.125.385,2.769,1.676,2.952,7.906,1.124,15.748-.094,23.452-1.944,7.753-1.861,15.374-4.122,23.257-5.411,15.842-2.592,32.308-2.496,48.125.239,13.551,2.343,26.796,6.896,38.422,14.324,5.753,3.676,11.026,8.056,15.637,13.094,4.912,5.367,8.687,11.652,11.671,18.266,1.498,3.321,2.77,6.743,3.907,10.203,1.263,3.843,2.493,7.725,3.156,11.718,1.379,8.309,1.624,16.779,1.239,25.185-.374,8.16-1.554,16.188-2.819,24.247-1.24,7.901-2.3,15.895-1.694,23.907.623,8.235,2.388,16.343,2.823,24.599.366,6.928.213,15.115-4.14,20.922-1.943,2.592-4.62,4.082-7.666,5.018-3.6,1.106-7.359,1.897-11.103,2.3-4.211.453-8.462.484-12.684.17-3.812-.283-7.808-.632-11.451-1.852-1.276-.427-2.625-.982-3.459-2.095-.478-.638-.812-1.721-.864-2.479-.16-2.339.653-4.694,2.1-6.635.966-1.296,2.207-2.413,3.453-3.432,1.011-.827,2.166-1.425,3.201-2.219,1.281-.982,2.267-2.261,2.137-3.95-.149-1.928-.638-3.878-1.202-5.721-2.25-7.355-6.59-13.76-10.525-20.282-4.108-6.809-7.873-13.823-10.502-21.347-1.281-3.666-2.307-7.413-3.076-11.22-.257-1.271-1.765-2.003-2.952-1.676-1.323.364-1.934,1.677-1.676,2.952h0Z"/><path class="e" d="M63.276,117.8c-5.144-4.307-11.426-6.565-18.033-7.377-6.896-.848-14.007-.007-20.769-1.854-5.675-1.55-10.454-5.166-14.036-9.778-3.103-3.995-6.21-9.402-5.602-14.664.317-2.74,1.909-4.691,4.044-6.317,2.364-1.801,4.877-3.412,7.099-5.395,2.35-2.096,4.278-4.663,5.344-7.644,1.14-3.186.994-6.669,1.533-9.973.976-5.972,3.184-11.296,6.743-16.2,3.38-4.658,7.798-8.6,12.631-11.698,5.841-3.743,12.48-6.745,19.257-8.244,7.718-1.707,15.677-1.703,23.526-1.131,1.294.094,2.4-1.171,2.4-2.4,0-1.377-1.102-2.305-2.4-2.4-7.394-.539-14.818-.503-22.139.776-6.734,1.177-13.037,3.737-19.066,6.921-10.933,5.775-20.663,15.51-24.352,27.539-1.008,3.286-1.487,6.744-1.796,10.158-.293,3.236-.841,6.207-2.986,8.773-3.859,4.617-10.577,6.734-13.293,12.29-2.786,5.699-.963,12.317,1.978,17.571,2.987,5.337,7.253,10.133,12.511,13.309,7.033,4.249,15.05,4.434,23.019,4.715,7.447.263,15.093,1.474,20.993,6.415.993.832,2.421.973,3.394,0,.855-.855.998-2.558,0-3.394h0Z"/><path class="e" d="M58.787,120.292c.84,13.818,1.642,27.628.734,41.467-.22,3.357-.572,6.704-1.226,10.006-.505,2.552-.973,4.9-2.898,6.764-1.656,1.603-3.714,2.708-5.606,3.999-2.168,1.48-4.062,3.281-5.227,5.672-2.615,5.368-1.211,11.644,4.083,14.761,5.496,3.236,12.545,2.651,18.669,2.86,6.451.22,13.183.376,19.298-2.039,5.157-2.036,9.231-5.843,12.146-10.514,3.694-5.92,5.44-12.896,6.922-19.639,1.666-7.581,2.962-15.234,4.535-22.834.624-3.015-4.002-4.304-4.629-1.276-1.362,6.582-2.482,13.212-3.878,19.788-1.225,5.766-2.433,11.651-4.775,17.089-1.9,4.415-4.73,8.662-8.841,11.292-4.909,3.14-11.039,3.552-16.714,3.469-3.032-.044-6.067-.164-9.098-.244-2.986-.08-5.989-.248-8.871-1.098-2.144-.632-4.248-1.898-5.066-4.084-.732-1.957-.253-4.115.775-5.87,1.124-1.918,2.858-3.051,4.682-4.232,2-1.295,4.095-2.617,5.678-4.425,1.859-2.124,2.675-4.53,3.257-7.251.662-3.094,1.081-6.243,1.368-9.393,1.341-14.73.378-29.543-.517-44.265-.187-3.069-4.988-3.09-4.8,0h0Z"/><path class="e" d="M113.968,141.836c1.023,7.715,1.83,15.443,2.407,23.204.287,3.861.508,7.734.401,11.607-.082,2.988-.111,6.367-1.667,9.022-1.616,2.758-4.757,4.469-7.094,6.553-2.479,2.211-4.591,4.985-5.563,8.196-1.774,5.866,1.379,11.594,6.759,14.159,6.483,3.091,14.274,2.716,21.286,2.608,6.944-.107,14.417-.87,20.735-3.956,5.878-2.871,9.784-7.986,12.267-13.914,2.824-6.743,4.628-14.013,6.404-21.089,4.211-16.782,6.889-33.96,8.175-51.211.097-1.294-1.172-2.4-2.4-2.4-1.379,0-2.303,1.102-2.4,2.4-1.088,14.589-3.217,29.096-6.439,43.367-1.59,7.041-3.441,14.026-5.582,20.92-1.773,5.708-3.89,11.573-8.692,15.445-4.676,3.771-11.1,4.892-16.924,5.387-3.532.3-7.063.251-10.603.223-3.18-.025-6.408-.03-9.531-.704-4.454-.961-9.799-3.806-8.625-9.211,1.359-6.26,8.177-8.62,11.699-13.355,2.245-3.018,2.705-6.861,2.913-10.509.23-4.029.061-8.067-.216-12.089-.567-8.247-1.425-16.46-2.511-24.653-.17-1.285-.981-2.4-2.4-2.4-1.164,0-2.572,1.106-2.4,2.4h0Z"/><path class="e" d="M54.723,69.116c-.795-2.889-.035-9.446,5.38-9.823,7.134.285,7.286,8.249,4.776,11.907-2.054,2.994-7.874,4.071-10.156-2.084Z"/><path class="e" d="M94.04,114.357c6.064-2.394,11.8-5.48,16.756-9.755s8.715-9.677,11.205-15.738c.493-1.199-.534-2.638-1.676-2.952-1.377-.378-2.458.472-2.952,1.676-4.437,10.801-14.011,17.957-24.608,22.141-1.205.476-2.046,1.606-1.676,2.952.315,1.147,1.74,2.155,2.952,1.676h0Z"/><path class="e" d="M23.118,84.939c.202-.468.337-.966.388-1.494.123-1.251-.297-2.558-1.24-3.495-.853-.848-2.069-1.35-3.309-1.637-3.137-.727-7.54-.481-10.269,1.205-2.065,1.276-3.713,2.665-3.904,5.068-.156,1.972.746,4.042,2.815,4.964,1.186.529,2.565.611,3.889.53,2.084-.126,4.274-.308,6.252-.926,2.317-.725,4.495-2.179,5.376-4.217Z"/><path class="e" d="M25.432,85.577c.873-2.194.549-4.744-.883-6.624-1.314-1.725-3.368-2.66-5.459-3.061-3.734-.716-8.028-.492-11.394,1.424-1.638.933-3.233,2.173-4.241,3.788-1.072,1.718-1.327,3.889-.849,5.84.469,1.915,1.784,3.635,3.529,4.558,2.072,1.096,4.408,1.069,6.68.889,4.603-.365,10.219-1.589,12.374-6.241.544-1.175.332-2.586-.861-3.284-1.037-.606-2.736-.321-3.284.861-1.082,2.335-3.705,3.256-6.364,3.665-1.513.232-3.161.413-4.692.295-.532-.041-1.124-.171-1.551-.396-.388-.204-.709-.523-.886-.823-.081-.138-.17-.29-.232-.439.057.136.064.261-.02-.121-.026-.12-.06-.241-.091-.36-.102-.391.01.307-.023-.096-.057-.688-.059-.867.177-1.508-.117.317.182-.328.237-.418.025-.041.316-.44.167-.251-.133.168.132-.136.128-.132.499-.532.825-.779,1.308-1.105,2.162-1.456,4.497-1.84,7.209-1.68.808.048,1.007.069,1.781.242s1.338.322,1.98.735c1.053.677,1.13,1.709.629,2.967-.479,1.205.524,2.636,1.676,2.952,1.366.375,2.471-.467,2.952-1.676Z"/><path class="e" d="M293.726,77.29c5.927-5.194,7.478-13.612,4.365-20.74-3.221-7.377-10.682-12.302-18.364-13.991-3.01-.662-4.296,3.964-1.276,4.629,6.315,1.389,12.292,5.098,15.166,11.061,2.606,5.408,1.184,11.732-3.285,15.648-2.328,2.04,1.079,5.423,3.394,3.394h0Z"/><path class="e" d="M175.01,155.02c18.129,1.875,36.408.675,54.197-3.246,3.015-.665,1.739-5.293-1.276-4.629-17.381,3.832-35.212,4.907-52.921,3.075-1.291-.134-2.4,1.199-2.4,2.4,0,1.409,1.105,2.266,2.4,2.4h0Z"/></g></svg>