<svg id="b" xmlns="http://www.w3.org/2000/svg" width="307.231" height="227.731" viewBox="0 0 307.231 227.731" style="color: initial !important;"><defs><style>.d{fill:#fdefe6;}.e{fill:#211715;}.f{fill:#645d5c;}</style></defs><g id="c"><path class="f" d="M56.002,6.182c-10.829-9.529-30.44.075-25.471,16.27.61,1.989,1.797,4.153,3.278,5.601,8.828-6.569,17.145-9.684,28.387-11.517-.881-2.417-1.791-4.278-2.228-5.141-1.085-2.142-2.438-3.868-3.966-5.213Z"/><path class="f" d="M13.685,67.078c2.359-1.556,4.639-3.273,5.193-4.64.606-1.494.096-4.693.235-6.505.829-10.848,6.212-21.141,14.696-27.88,8.828-6.569,17.145-9.684,28.387-11.517,9.637-1.452,19.367-.959,28.893.939.944-3.905,3.683-7.974,6.747-10.563,14.035-11.863,34.412,1.609,28.217,18.875-.015.038-.029.075-.044.113,4.224,1.767,9.382,1.533,13.949,1.077,10.793-1.076,22.074-4.258,32.879-6.027,29.269-4.79,59.027-3.402,85.119,11.798,35.761,20.833,50.83,63.714,46.013,103.71-1.946,16.155-7.632,31.034-8.842,47.525-.956,13.022,1.449,29.194-13.854,34.242-9.024,2.976-32.941,3.852-41.303-.534-5.543-2.907-6.874-9.793-3.043-14.71,2.344-3.009,9.025-6.645,10.117-9.184,1.339-3.115-.605-7.686-1.897-10.692-3.059-7.118-8.17-13.635-11.251-20.771-.834.209-1.667.408-2.502.599-.368,8.228-1.006,16.518-2.536,24.627-2.4,12.72-4.83,18.872-18.533,21.291-7.358,1.299-28.125,2.11-32.285-5.508-3.001-5.496-.185-9.54,4.071-12.902,6.972-5.509,8.964-5.352,6.928-15.559-.277-1.388-2.783-9.664-3.395-9.281-3.574-.281-7.153-.65-10.736-1.09-.028.177-.056.359-.085.541-2.306,12.573-4.595,25.59-8.968,37.622-3.997,10.996-8.987,18.137-20.891,21.078-8.584,2.121-23.861,2.196-32.345-.326-8.772-2.608-11.495-11.075-5.439-18.157,3.469-4.057,10.265-6.452,12.035-11.247,1.581-4.283,1.319-9.086,1.26-13.578-.083-6.203-.482-12.595-1.148-18.761-.124-1.048-.253-2.075-.385-3.087-2.008-.278-3.984-.691-5.927-1.221-2.211,12.159-4.313,24.505-8.736,36.11-5.561,14.591-14.734,19.818-30.183,20.67-8.898.49-31.039,1.134-29.525-12.678.944-8.612,12.628-9.993,15.521-17.562,3.5-9.159,3.203-29.738,2.516-39.753-.431-6.296-2.088-21.522-4.66-26.894-.543-1.135-.863-1.166-1.872-1.804-9.859-6.223-24.032-4.794-35.027-10.005-11.758-5.573-27.458-24.525-12.577-35.046,1.095-.774,3.184-1.994,5.214-3.334Z"/><path class="e" d="M54.273,66.192c-.794-2.885-.035-9.433,5.372-9.809,7.124.284,7.275,8.238,4.77,11.89-2.051,2.99-7.862,4.066-10.142-2.081Z"/><path class="e" d="M228.992,162.894c-.318,7.074-.804,14.161-1.945,21.156-.439,2.692-.946,5.383-1.593,8.033-.235.964-.493,1.924-.791,2.871-.133.422-.273.842-.423,1.259-.087.242-.177.483-.271.723-.061.157-.124.313-.189.468.063-.153.061-.154-.004-.003-1.493,3.333-3.305,5.322-6.501,6.907-1.772.88-4.045,1.514-6.176,1.957-.825.172-1.655.317-2.488.443-.089.013-.746.098-.161.023-.141.018-.282.037-.423.052-.53.06-1.059.12-1.59.17-4.116.389-8.28.462-12.405.17-2.156-.153-3.956-.37-6.048-.827-1.851-.404-3.642-.943-5.036-1.68-.336-.178-.667-.368-.986-.575-.184-.12-.367-.243-.542-.375.078.059.324.275-.017-.022-.312-.272-.602-.557-.877-.866-.069-.077-.265-.36.004.016-.153-.214-.291-.435-.42-.665-1.17-2.083-1.202-4.277.076-6.298,2.318-3.663,6.655-5.352,9.529-8.472,3.293-3.574,2.574-8.317,1.716-12.716-.364-1.863-.98-3.692-1.578-5.49-.322-.968-.66-1.931-1.048-2.874-.313-.76-.672-1.841-1.352-2.376-1.017-.802-2.402-.992-3.394,0-.833.833-1.024,2.587,0,3.394.21.165-.229-.595-.151-.22.023.109.152.27.203.37.083.161.155.328.227.493-.185-.421-.029-.061.004.023.385.989.731,1.993,1.059,3.002.528,1.626,1.074,3.274,1.402,4.955.221,1.135.428,2.268.526,3.416.044.52.073,1.043.066,1.566-.003.193-.018.385-.021.577-.01.617.057-.118-.024.309-.072.377-.17.74-.293,1.103.193-.568-.124.232-.222.395-.092.154-.194.301-.297.449.341-.488-.009.007-.088.09-.274.289-.547.575-.842.844-1.541,1.405-3.12,2.443-4.918,3.856-2.197,1.726-4.275,3.756-5.409,6.354-2.12,4.861-.095,10.479,4.259,13.307,3.578,2.324,8.092,3.076,12.251,3.535,4.362.482,8.788.479,13.162.157,8.11-.597,17.191-2.412,21.799-9.835,2.564-4.131,3.534-9.137,4.42-13.846,1.569-8.347,2.24-16.829,2.621-25.305.139-3.088-4.662-3.081-4.8,0h0Z"/><path class="e" d="M35.506,26.356c-1.741-1.776-2.688-4.094-3.152-6.508-.127-.66-.206-1.414-.214-2.304-.004-.425.015-.848.042-1.273.039-.62-.001-.289.124-.951.335-1.774.702-2.704,1.562-4.114.498-.817.633-.989,1.114-1.538.552-.63,1.158-1.208,1.801-1.743.361-.3.134-.112.052-.049.181-.139.368-.271.556-.401.314-.217.636-.422.964-.617s.665-.378,1.006-.551c.137-.069.275-.134.413-.201.139-.065.278-.129.419-.19-.185.077-.199.084-.042.02.679-.27,1.373-.498,2.08-.68.373-.096.749-.18,1.127-.251.227-.043.455-.082.684-.114-.427.059.171-.014.281-.023.771-.063,1.542-.087,2.315-.048.386.019.774.05,1.157.099-.418-.054-.021.001.053.014.307.054.612.112.916.182.727.167,1.44.388,2.135.658.417.162-.497-.237.194.082.181.084.361.17.54.26.396.2.784.418,1.161.653,1.371.855,2.818,2.226,3.773,3.602,1.437,2.07,2.443,4.453,3.315,6.804.45,1.215,1.625,2.041,2.952,1.676,1.169-.321,2.129-1.731,1.676-2.952-1.761-4.753-3.939-9.311-8.077-12.43C53.255,1.072,49.219-.128,45.247.011c-7.82.273-15.425,5.415-17.39,13.209-1.43,5.673.133,12.327,4.254,16.53,2.166,2.209,5.56-1.186,3.394-3.394h0Z"/><path class="e" d="M60.02,116.055c-1.366-2.686-5.036-4.052-7.674-5.107-3.137-1.254-6.449-2.014-9.76-2.646-6.655-1.27-13.749-1.883-19.971-4.751-4.706-2.169-8.797-5.605-12.121-9.549-3.13-3.713-5.845-8.488-5.688-13.232.066-1.994.805-4.103,2.226-5.828,1.589-1.928,3.69-3.149,5.774-4.455,2.316-1.452,4.795-2.937,6.716-4.905,2.208-2.261,2.09-4.927,1.987-7.903-.221-6.364,2.205-13.031,5.504-18.384,3.543-5.749,8.516-10.005,14.335-13.34,12.852-7.367,28.548-9.018,43.043-7.172,2.032.259,4.051.611,6.06,1.007,1.271.25,2.591-.361,2.952-1.676.324-1.179-.398-2.701-1.676-2.952-15.807-3.11-32.664-2.533-47.57,4.009-6.373,2.797-12.525,6.76-17.113,12.041-4.66,5.365-7.993,11.89-9.486,18.848-.387,1.804-.658,3.644-.814,5.482-.131,1.554.051,3.104.037,4.659-.002.266.004.613-.022.835-.007.058-.219.785-.025.353-.079.176-.193.342-.304.499.249-.349-.291.293-.389.392-.891.892-1.897,1.601-2.941,2.309-2.112,1.433-4.389,2.645-6.427,4.184-2.525,1.907-4.535,4.254-5.715,7.21-2.073,5.194-.512,11.016,2.109,15.703,2.892,5.17,7.198,9.568,11.995,12.997,5.323,3.805,11.555,5.581,17.917,6.769,6.709,1.254,13.944,1.868,20.091,5.059.711.369,1.393.783,2.076,1.201.15.092.666.451.578.36-.35-.363.088.284.15.408,1.401,2.754,5.543.328,4.145-2.423h0Z"/><path class="e" d="M110.405,158.363c-1.816,10.02-3.62,20.088-6.786,29.789-2.172,6.658-4.953,13.28-10.526,17.739-4.677,3.742-11.086,5.249-17.216,5.742-5.125.412-10.349.51-15.466-.038-1.176-.126-2.317-.294-3.724-.594-1.293-.276-2.574-.623-3.814-1.082-.144-.053-.843-.339-.522-.199-.282-.123-.561-.254-.835-.392-.531-.267-1.049-.563-1.544-.893-.083-.056-.747-.554-.383-.261-.219-.176-.432-.361-.636-.555-.176-.167-.347-.341-.51-.52-.093-.102-.182-.207-.271-.312-.178-.209.184.285-.063-.087-.738-1.113-.855-1.324-1.134-2.721-.093-.465-.027-.141-.015-.037-.019-.154-.033-.311-.041-.466-.017-.324-.026-.648-.018-.973.018-.74.06-1.096.246-1.79.317-1.181.922-2.178,1.714-3.051.965-1.063,1.975-1.873,3.032-2.636,2.534-1.829,5.291-3.453,7.47-5.723s3.313-5.032,4.042-8.063c1.708-7.106,1.963-14.619,2.028-21.896.056-6.286-.137-12.588-.727-18.848-.647-6.866-1.396-13.921-3.271-20.577-.373-1.324-.83-2.616-1.413-3.863-.549-1.174-2.238-1.473-3.284-.861-1.203.704-1.412,2.105-.861,3.284.264.564.025-.002.165.376.107.289.215.578.314.87.238.703.442,1.418.632,2.135.432,1.64.778,3.303,1.086,4.97.654,3.538,1.136,7.106,1.528,10.682.693,6.32,1.005,12.665,1.037,19.023.036,7.367-.079,14.941-1.582,22.18-.598,2.879-1.273,5.342-3.18,7.292-2.081,2.128-4.639,3.534-7.08,5.371-2.659,2.001-5.035,4.302-6.119,7.535-.97,2.894-.728,6.213.564,8.959,2.359,5.013,8.365,7.106,13.433,8.004,5.39.954,10.893.999,16.346.734,6.765-.329,13.691-1.312,19.671-4.7s10.162-8.993,12.855-15.223c4.062-9.4,6.223-19.57,8.119-29.59.47-2.483.919-4.97,1.37-7.456.231-1.274-.348-2.587-1.676-2.952-1.164-.32-2.72.394-2.952,1.676h0Z"/><path class="d" d="M69.83,115.792c-1.22-.449-2.3.911-1.568,1.985l2.192,3.219c4.979,6.554,16.01,19.283,24.508,20.216,10.549,1.158,23.244-15.055,27.745-23.348,3.789-6.981,9.015-22,9.412-29.814.237-4.669-3.971-6.209-6.52-1.911-1.744,2.939-2.985,6.493-4.841,9.557-10.507,17.344-31.645,27.188-50.927,20.096Z"/><path class="e" d="M56.126,118.136c4.092,2.253,7.52,5.369,10.788,8.671,3.451,3.487,6.801,7.071,10.321,10.49,6.994,6.793,14.592,13.172,23.289,17.68,4.777,2.476,9.85,4.403,15.126,5.487,1.268.261,2.593-.368,2.952-1.676.326-1.187-.401-2.69-1.676-2.952-19.164-3.938-32.875-18.392-46.006-31.802-3.722-3.801-7.682-7.461-12.37-10.043-2.708-1.491-5.132,2.653-2.423,4.145h0Z"/><path class="e" d="M224.29,138.63c1.851,9.19,4.27,18.268,8.365,26.741,3.802,7.867,9.815,14.919,12.062,23.487.367,1.401.616,3.212-.028,4.238-.038.06-.263.333-.033.05-.103.127-.22.254-.334.369-.226.227-.452.452-.688.668-.618.566-1.272,1.092-1.933,1.606-2.725,2.12-5.811,4.065-7.613,7.103s-2.3,6.958-1.045,10.304c1.297,3.456,3.921,5.895,7.299,7.282,5.563,2.283,12.09,2.552,18.025,2.632,6.609.09,13.345-.308,19.834-1.622,6.137-1.243,11.802-4.192,15.033-9.757,3.198-5.51,3.668-12.158,3.909-18.382.124-3.201.16-6.407.402-9.602.359-4.732,1.122-9.414,2.063-14.062,1.895-9.36,4.496-18.572,6.024-28.006,2.492-15.378,2.083-31.206-1.306-46.418-3.235-14.524-9.301-28.572-18.268-40.488-9.591-12.745-22.191-22.705-36.789-29.144-16.734-7.381-35.051-10.064-53.254-9.441-9.369.321-18.739,1.434-27.947,3.18-9.559,1.812-19.026,4.362-28.736,5.268-4.248.396-8.62.569-12.653-1.038-1.205-.48-2.636.525-2.952,1.676-.375,1.366.467,2.471,1.676,2.952,4.124,1.643,8.726,1.646,13.087,1.284,4.74-.393,9.445-1.169,14.111-2.077,9.218-1.795,18.339-3.988,27.669-5.162,17.504-2.203,35.492-2.032,52.603,2.611,15.549,4.219,30.081,12.076,41.448,23.568,10.006,10.116,17.391,22.646,21.996,36.077,4.707,13.728,6.648,28.3,6.003,42.786-.381,8.548-1.858,16.906-3.758,25.236-2.094,9.181-4.423,18.315-5.486,27.691-.746,6.577-.416,13.222-1.211,19.789-.64,5.283-2.41,10.806-7.045,13.863s-10.616,3.606-15.878,4.048c-6.559.55-13.286.638-19.82-.239-2.278-.306-5.012-.837-7.309-1.771-.349-.142.325.149-.006-.006-.092-.043-.186-.082-.276-.129-.321-.166-.641-.327-.951-.516-.667-.408-1.261-.912-1.771-1.507-.877-1.024-1.433-2.289-1.621-3.622-.931-6.612,6.974-9.281,10.697-13.428,2.693-2.999,2.208-7.086.999-10.654-1.373-4.053-3.36-7.888-5.514-11.573-2.271-3.886-4.723-7.679-6.668-11.746-1.872-3.915-3.373-8.017-4.605-12.175-1.289-4.349-2.286-8.778-3.181-13.222-.256-1.271-1.765-2.002-2.952-1.676-1.324.364-1.933,1.677-1.676,2.952h0Z"/><path class="e" d="M174.904,166.911c19.416,2.367,39.163,2.588,58.298-1.936,3.005-.71,1.733-5.34-1.276-4.629-18.709,4.423-38.044,4.078-57.022,1.764-1.289-.157-2.4,1.216-2.4,2.4,0,1.428,1.107,2.242,2.4,2.4h0Z"/><path class="e" d="M115.762,152.72c1.106,8.511,2.057,16.979,2.27,25.569.097,3.917.42,8.03-.281,11.906-.287,1.588-.647,3.201-1.626,4.499-.731.97-1.713,1.795-2.667,2.537-2.509,1.95-5.346,3.534-7.545,5.862-2.169,2.296-3.794,5.203-4.238,8.351-.909,6.441,3.291,11.656,9.1,13.888,2.797,1.075,5.866,1.498,8.824,1.856,3.352.406,6.736.561,10.112.543,6.276-.033,12.853-.484,18.832-2.524,5.597-1.91,10.282-5.259,13.763-10.046,3.808-5.236,5.969-11.661,7.837-17.791,2.432-7.984,4.109-16.173,5.644-24.368,1.579-8.426,2.647-16.818,3.287-25.367.159-2.126.312-4.253.477-6.379.1-1.294-1.175-2.4-2.4-2.4-1.382,0-2.299,1.102-2.4,2.4-.621,8.021-.96,16.142-2.412,24.07s-2.876,15.791-4.834,23.574c-1.666,6.623-3.553,13.432-6.708,19.525-2.335,4.511-5.49,8.256-10.009,10.645-4.924,2.604-10.653,3.372-16.142,3.703-6.159.371-12.529.279-18.593-.967-2.484-.51-5.086-1.189-7.028-2.914-1.704-1.514-2.674-3.428-2.701-5.524-.075-5.769,5.436-8.87,9.556-11.991,2.473-1.873,4.65-3.937,5.721-6.924,1.293-3.609,1.363-7.581,1.314-11.371-.105-8.129-.509-16.24-1.552-24.308-.261-2.018-.539-4.034-.802-6.053-.167-1.285-.984-2.4-2.4-2.4-1.167,0-2.568,1.106-2.4,2.4h0Z"/><path class="e" d="M93.404,18.113c1.245-4.861,4.734-9.165,9.15-11.518,3.283-1.75,7.075-2.195,10.475-1.398,7.058,1.655,12.166,7.937,11.737,15.273-.299,5.119-3.298,9.84-7.625,12.638-2.585,1.671-.182,5.828,2.423,4.145,5.016-3.243,8.74-8.344,9.713-14.306.785-4.812-.06-9.786-2.792-13.878-5.248-7.86-15.613-11.178-24.386-7.529-6.412,2.667-11.594,8.548-13.322,15.298-.767,2.994,3.862,4.271,4.629,1.276h0Z"/><path class="e" d="M21.964,80.479c.211-.548.35-1.133.404-1.751.128-1.467-.309-2.999-1.289-4.098-.888-.994-2.152-1.583-3.442-1.919-3.264-.852-7.843-.564-10.682,1.413-2.148,1.496-3.863,3.124-4.061,5.942-.162,2.312.776,4.738,2.928,5.82,1.234.62,2.668.716,4.046.622,2.168-.148,4.446-.361,6.504-1.086,2.411-.85,4.675-2.554,5.593-4.943Z"/><path class="e" d="M24.279,81.117c.81-2.26.66-4.918-.604-6.991-1.238-2.029-3.386-3.25-5.653-3.793-3.971-.951-8.824-.625-12.277,1.718-1.624,1.102-3.228,2.439-4.179,4.191-1.064,1.961-1.305,4.228-.86,6.398.453,2.206,1.892,4.271,3.906,5.317,2.182,1.134,4.611,1.043,6.985.811,5.312-.519,10.518-2.36,12.682-7.652.491-1.2-.533-2.638-1.676-2.952-1.375-.378-2.46.472-2.952,1.676-.385.94-1.416,1.927-2.417,2.533-1.326.802-2.751,1.179-4.364,1.439-1.53.246-3.376.541-4.92.271-.438-.076-1.077-.304-1.39-.533-.369-.27-.787-.832-.916-1.129-.515-1.178-.509-2.342-.064-3.5.153-.399-.12.23.071-.142.059-.114.12-.226.186-.336.249-.418.169-.302.378-.542.361-.415,1.026-1.021,1.278-1.217,2.301-1.792,4.929-2.222,7.854-1.961.458.041.366.027.877.127.361.071.72.154,1.072.258.683.202,1.358.493,1.875.998,1.028,1.003.961,2.391.48,3.736-.437,1.22.494,2.627,1.676,2.952,1.331.366,2.514-.452,2.952-1.676Z"/></g></svg>