<svg id="b" xmlns="http://www.w3.org/2000/svg" width="173.749" height="233.361" viewBox="0 0 173.749 233.361" style="color: initial !important;"><defs><style>.d{fill:#211715;}.e{fill:#645d5c;}</style></defs><g id="c"><path class="e" d="M3.116,180.377c.721.745,1.867,1.072,3.032.401,5.361-3.091,10.415-6.101,12.685-7.55,5.901-3.765,11.849-7.401,17.809-11.072,0,0,1.224-.681,2.851-1.586-.498-.335-.936-.731-1.212-1.09-.874-1.139-1.972-4.357-1.66-6.424.155-1.024.832-2.091,1.616-2.958-1.905,1.257-3.513,2.312-3.513,2.312-2.077,1.237-6.089,4.162-11.031,7.81-2.674,1.974-11.993,9.419-20.41,16.464-1.318,1.103-1.09,2.739-.168,3.691Z"/><path class="e" d="M39.328,149.071c1.148-.855,7.197-3.328,10.51-4.49-.287,1.461-.407,2.962-.489,4.457-.192,3.492-.304,6.988-.345,10.485-3.419.927-6.573,1.704-7.22,1.806-1.116.175-2.816-.951-3.504-1.848-.874-1.139-1.972-4.357-1.66-6.424.221-1.464,1.511-3.018,2.657-3.947.016-.013.033-.026.051-.04Z"/><path class="d" d="M33.513,150.339c-4.239,2.553-8.238,5.655-12.158,8.663-4.3,3.3-8.511,6.719-12.707,10.149-1.295,1.059-2.588,2.122-3.877,3.188-1.195.989-2.598,1.918-3.614,3.094-1.947,2.252-1.361,5.834,1.192,7.385,2.984,1.812,5.772-.4,8.332-1.895,2.54-1.483,5.074-2.977,7.582-4.513,6.556-4.016,13.043-8.149,19.59-12.181,2.626-1.617.217-5.771-2.423-4.145-5.536,3.41-11.083,6.803-16.573,10.286-1.952,1.239-3.917,2.452-5.902,3.637-2.565,1.532-5.123,3.267-7.807,4.577-.157.077-.403.3-.259.162.021-.02-.046-.12-.024-.015.03.148.216.161-.087-.114.248.225-.13-.263-.027-.062.172.334-.375.082.032-.057.039-.013-.021.086-.034.1.337-.349.741-.641,1.113-.952,2.337-1.949,4.686-3.884,7.045-5.807,2.115-1.725,4.238-3.44,6.37-5.143.835-.667,1.671-1.331,2.51-1.993.378-.298.757-.596,1.137-.893.171-.134.342-.267.513-.4.404-.315.064-.052.342-.265,3.92-3.008,7.92-6.11,12.158-8.663,2.643-1.592.233-5.744-2.423-4.145h0Z"/><path class="d" d="M50.548,141.821c-2.856.864-5.637,2.045-8.38,3.213-2.837,1.209-5.332,2.369-6.985,5.164-1.201,2.031-1.172,4.281-.634,6.514.426,1.769,1.152,3.719,2.517,4.983,1.521,1.408,3.457,2.305,5.543,1.912,1.005-.189,2-.461,2.991-.711,3.709-.937,7.42-1.92,11.055-3.117,1.231-.405,2.032-1.658,1.676-2.952-.331-1.205-1.716-2.083-2.952-1.676-2.889.951-5.828,1.752-8.768,2.526-1.263.333-2.527.658-3.797.964-.387.093-.774.187-1.162.27-.127.027-.266.042-.39.081-.116.036-.465.138.307-.047.215.05.233.053.053.009-.126-.028-.248-.065-.368-.112.108.044-.497-.299-.645-.411.108.081-.614-.636-.422-.389.187.24-.046-.081-.081-.144-.084-.152-.172-.301-.251-.457-.07-.138-.138-.28-.198-.423.152.358-.129-.382-.131-.387-.238-.695-.451-1.428-.539-2.159-.045-.369-.011-1.137.122-1.447.319-.743.877-1.281,1.432-1.844.501-.508-.273.086.182-.165.17-.093.333-.197.504-.289.987-.531,2.023-.974,3.051-1.417.052-.023.484-.207.239-.103-.186.079.388-.162.469-.195.368-.152.737-.303,1.107-.452.729-.294,1.459-.581,2.193-.861,1.167-.446,2.34-.889,3.537-1.251,2.949-.892,1.692-5.527-1.276-4.629h0Z"/><path class="e" d="M170.603,180.377c-.721.745-1.867,1.072-3.032.401-5.361-3.091-10.415-6.101-12.685-7.55-5.901-3.765-11.849-7.401-17.809-11.072,0,0-1.224-.681-2.851-1.586.498-.335.936-.731,1.212-1.09.874-1.139,1.972-4.357,1.66-6.424-.155-1.024-.832-2.091-1.616-2.958,1.905,1.257,3.513,2.312,3.513,2.312,2.077,1.237,6.089,4.162,11.031,7.81,2.674,1.974,11.993,9.419,20.41,16.464,1.318,1.103,1.09,2.739.168,3.691Z"/><path class="e" d="M134.39,149.071c-1.148-.855-7.197-3.328-10.51-4.49.287,1.461.407,2.962.489,4.457.192,3.492.304,6.988.345,10.485,3.419.927,6.573,1.704,7.22,1.806,1.116.175,2.816-.951,3.504-1.848.874-1.139,1.972-4.357,1.66-6.424-.221-1.464-1.511-3.018-2.657-3.947-.016-.013-.033-.026-.051-.04Z"/><path class="e" d="M41.527,105.549c.913-.319,1.921-.474,2.769-.497.758-.021,2.992.562,5.372,1.276-.17,1.172-.194,2.378-.213,3.564-.065,4.024-.122,8.102.254,12.105-4.667-1.828-10.037-4.827-10.966-5.499-.934-.676-1.69-2.518-1.69-3.67,0-1.464,1.107-4.751,2.643-6.23.475-.457,1.124-.802,1.831-1.049Z"/><path class="e" d="M7.015,78.677c-.395-.516-.784-1.027-1.167-1.532-1.497-1.972,1.145-4.406,2.991-2.757,6.034,5.388,12.651,11.533,15.177,14.045,5.062,5.035,10.199,9.951,15.341,14.906l2.411,2.135c-.799.247-1.543.617-2.071,1.125-1.535,1.479-2.643,4.766-2.643,6.23,0,.461.121,1.032.326,1.595-.745-.642-1.25-1.074-1.25-1.074-4.635-4.216-5.965-6.187-10.097-10.897-2.485-2.833-11.683-14.188-19.017-23.774Z"/><path class="d" d="M37.826,111.652c-3.969-3.627-7.422-7.727-10.892-11.823-3.163-3.734-6.217-7.564-9.264-11.392-2.015-2.531-4.017-5.072-6.003-7.627-.941-1.211-1.877-2.425-2.808-3.643-.13-.17-1.155-1.475-1.118-1.505.113-.092-.018.465-.05.578.17-.616.16.042-.06-.019.022.006-.738.058-.49-.137.023-.018.923.826.992.888.667.598,1.332,1.198,1.997,1.799,1.311,1.186,2.617,2.376,3.918,3.572,2.188,2.01,4.367,4.029,6.515,6.082,5.742,5.489,11.375,11.098,17.096,16.61,2.225,2.144,5.624-1.246,3.394-3.394-5.619-5.414-11.16-10.912-16.788-16.315-2.349-2.255-4.74-4.467-7.14-6.668-1.417-1.3-2.839-2.594-4.267-3.882-1.388-1.252-2.815-2.983-4.757-3.267-3.622-.529-6.37,3.581-4.416,6.712.959,1.536,2.237,2.948,3.344,4.38,1.08,1.397,2.165,2.791,3.255,4.181,3.828,4.881,7.695,9.734,11.647,14.516s7.926,9.569,12.499,13.748c2.277,2.08,5.68-1.305,3.394-3.394h0Z"/><path class="d" d="M56.61,106.105c-2.694-1.02-5.464-1.886-8.241-2.649-1.229-.338-2.534-.731-3.816-.793-1.794-.086-3.936.414-5.455,1.388-1.779,1.14-2.804,2.994-3.565,4.907-.655,1.647-1.067,3.406-.727,5.173.348,1.809,1.372,3.538,2.909,4.566.89.595,1.85,1.098,2.792,1.605,3.576,1.926,7.32,3.769,11.222,4.932,2.967.884,4.234-3.747,1.276-4.629-3.012-.898-5.541-2.108-8.391-3.564-1.117-.571-2.224-1.161-3.311-1.786-.338-.194-.67-.396-1.003-.598-.093-.056-.439-.351-.157-.088.318.296-.049-.056-.1-.136-.105-.117-.102-.115.01.004-.071-.108-.136-.219-.197-.332-.199-.36-.178-.304-.307-.764-.044-.158-.088-.323-.114-.484.024.146-.026.346.018-.026.075-.641-.092.193.009-.263.084-.375.162-.746.272-1.115.247-.83.388-1.178.748-1.85.163-.304.342-.596.533-.883.279-.42.134-.17.066-.091-.012.014.458-.48.22-.283.56-.464,1.117-.596,1.872-.76.074-.016,1.281-.36,1.482-.11.014.017-.692-.13-.282-.035.089.021.183.032.274.049.238.045.475.098.712.152.581.134,1.159.286,1.734.444,2.777.763,5.547,1.629,8.241,2.649,1.212.459,2.632-.509,2.952-1.676.371-1.349-.459-2.491-1.676-2.952h0Z"/><path class="e" d="M132.191,105.549c-.913-.319-1.921-.474-2.769-.497-.758-.021-2.992.562-5.372,1.276.17,1.172.194,2.378.213,3.564.065,4.024.122,8.102-.254,12.105,4.667-1.828,10.037-4.827,10.966-5.499.934-.676,1.69-2.518,1.69-3.67,0-1.464-1.107-4.751-2.643-6.23-.475-.457-1.124-.802-1.831-1.049Z"/><path class="e" d="M131.036,196.846c-.15-1.503-1.385-3.152-2.505-4.156-.629-.564-3.591-1.66-6.561-2.686-1.298,3.872-3.175,7.543-5.804,10.653-.188.222-.396.425-.591.641,3.127,1.235,6.492,2.564,8.384,3.251.685.249,1.176.413,1.393.459,1.128.236,2.918-.825,3.664-1.703.948-1.115,2.232-4.337,2.02-6.459Z"/><path class="e" d="M57.552,200.656c-2.629-3.11-4.506-6.781-5.804-10.653-2.97,1.026-5.932,2.122-6.561,2.686-1.12,1.005-2.354,2.653-2.505,4.156-.212,2.121,1.072,5.343,2.02,6.459.747.878,2.536,1.939,3.664,1.703.217-.045.708-.21,1.393-.459,1.892-.687,5.256-2.016,8.384-3.251-.195-.216-.403-.419-.591-.641Z"/><path class="e" d="M166.627,227.58c-.033-.038-.068-.076-.105-.113-8.726-8.797-20.353-19.812-23.342-22.426-4.717-4.125-6.295-5.903-11.445-9.472,0,0-.572-.396-1.482-1.029.481.737.839,1.54.915,2.306.212,2.121-1.072,5.343-2.02,6.459-.336.395-.884.828-1.487,1.162,1.301.86,2.193,1.451,2.193,1.451,5.749,4.234,11.49,8.43,17.171,12.754,2.834,2.157,10.203,7.377,16.895,11.923,2.004,1.362,4.248-1.255,2.707-3.015Z"/><path class="e" d="M122.499,140.11c-.66-1.399-1.465-2.633-2.701-3.801,4.716-8.1,4.612-17.395,4.466-26.417-.038-2.371-.093-4.821-1.295-6.918.537-7.494.539-15.027.007-22.522-.212-2.985-.722-6.351-3.174-8.067-1.509-1.056-3.457-1.24-5.298-1.189-3.692.102-19.418,1.998-27.644,1.998-8.298,0-23.954-1.896-27.646-1.998-1.841-.051-3.789.133-5.298,1.189-2.452,1.716-2.962,5.082-3.174,8.067-.532,7.495-.53,15.027.007,22.522-1.202,2.097-1.256,4.548-1.295,6.918-.146,9.022-.25,18.317,4.466,26.416-1.755,1.659-2.641,3.45-3.477,5.657-.862,2.277-1.094,4.731-1.228,7.169-.349,6.354-.439,12.719-.32,19.081.11,5.878.363,11.802,1.662,17.541,1.223,5.403,3.417,10.669,6.993,14.899,2.048,2.423,4.517,4.469,7.17,6.21,6.553,4.301,14.3,6.767,22.138,7.009,7.838-.242,15.585-2.708,22.138-7.009,2.653-1.741,5.121-3.787,7.17-6.21,3.576-4.23,5.771-9.496,6.993-14.899,1.299-5.739,1.551-11.663,1.662-17.541.119-6.362.029-12.728-.32-19.081-.134-2.438-.365-4.892-1.228-7.169-.247-.653-.499-1.269-.776-1.856Z"/><path class="e" d="M166.704,78.677c.395-.516.784-1.027,1.167-1.532,1.497-1.972-1.145-4.406-2.991-2.757-6.034,5.388-12.651,11.533-15.177,14.045-5.062,5.035-10.199,9.951-15.341,14.906l-2.411,2.135c.799.247,1.543.617,2.071,1.125,1.535,1.479,2.643,4.766,2.643,6.23,0,.461-.121,1.032-.326,1.595.745-.642,1.25-1.074,1.25-1.074,4.635-4.216,5.965-6.187,10.097-10.897,2.485-2.833,11.683-14.188,19.017-23.774Z"/><path class="d" d="M139.287,115.046c4.18-3.82,7.83-8.163,11.46-12.498,3.764-4.495,7.418-9.084,11.05-13.686,2.222-2.815,4.426-5.644,6.609-8.49,1.066-1.39,2.35-2.716,2.303-4.59-.041-1.63-1.078-3.15-2.524-3.865-1.737-.858-3.559-.428-5.001.773-1.484,1.236-2.886,2.59-4.315,3.889-2.639,2.399-5.263,4.815-7.856,7.264-6.193,5.848-12.212,11.887-18.347,17.797-2.229,2.147,1.168,5.539,3.394,3.394,9.783-9.426,19.41-18.989,29.526-28.062.068-.061.969-.906.992-.888.248.195-.512.143-.49.137-.117.032-.144-.172-.191-.206l.131.225c-.147-.139-.173-.324-.076-.554.014.009-2.308,3.068-2.54,3.369-1.942,2.52-3.907,5.024-5.883,7.519-3.281,4.143-6.581,8.274-9.968,12.332-3.691,4.422-7.409,8.855-11.667,12.745-2.285,2.088,1.117,5.475,3.394,3.394h0Z"/><path class="d" d="M118.385,110.733c2.38-.901,4.821-1.667,7.265-2.374,1.105-.319,2.218-.637,3.347-.857.115-.022.233-.038.347-.064.311-.071-.125-.061-.282.035.079-.048.268-.025.361-.021.769.031,1.367.104,2.225.446.139.055.52.231.769.444-.295-.253.432.536.143.172.377.475.879,1.443.997,1.719.29.676.51,1.402.659,2.122.028.136.054.273.075.41-.03-.198.06-.359-.028-.096-.028.083.001.272-.004.368.026-.475-.068.23-.088.301-.126.445-.097.372-.244.65.036-.068-.393.641-.216.401.144-.196-.179.175-.189.204-.11.302.344-.185.129-.088-.049.022-.101.069-.146.096-.167.099-.329.206-.496.306-.957.575-1.94,1.106-2.927,1.626-3.144,1.656-6.047,3.081-9.368,4.071-2.953.88-1.696,5.514,1.276,4.629,3.499-1.043,6.856-2.652,10.089-4.332,1.17-.608,2.338-1.232,3.466-1.917,1.437-.874,2.374-2.06,2.994-3.626.677-1.711.593-3.443.075-5.184-.544-1.83-1.405-3.717-2.736-5.114-1.521-1.596-3.809-2.2-5.936-2.379-1.172-.099-2.358.198-3.489.482-3.156.793-6.3,1.788-9.344,2.941-1.211.459-2.043,1.619-1.676,2.952.319,1.161,1.734,2.138,2.952,1.676h0Z"/><path class="d" d="M132.344,199.05c1.727,1.142,3.232,2.529,4.933,4.058,1.797,1.616,3.623,3.199,5.408,4.828,3.667,3.347,7.253,6.786,10.827,10.232,2.336,2.252,4.66,4.516,6.968,6.795,1.09,1.076,2.176,2.156,3.258,3.24.218.218.862.9.914.929v-.487c-.067.288-.086.336-.058.145-.002.002.325-.298.311-.218.058-.331-2.724-1.977-3.221-2.32-1.573-1.083-3.141-2.173-4.705-3.27-2.316-1.624-4.625-3.257-6.909-4.925-6.415-4.685-12.738-9.502-19.135-14.212-1.044-.769-2.678-.174-3.284.861-.713,1.219-.186,2.513.861,3.284,6.284,4.626,12.5,9.347,18.792,13.961,2.568,1.883,5.17,3.72,7.78,5.546,1.573,1.101,3.15,2.195,4.732,3.282,1.478,1.016,3.07,2.52,4.952,2.58,3.646.117,5.95-4.177,3.721-7.101-1.026-1.347-2.406-2.501-3.607-3.693-1.302-1.291-2.609-2.576-3.921-3.857-4.407-4.305-8.85-8.577-13.365-12.769-1.912-1.775-3.876-3.487-5.817-5.23-2.254-2.025-4.476-4.129-7.011-5.805-2.584-1.708-4.991,2.447-2.423,4.145h0Z"/><path class="d" d="M115.339,190.285c2.387.84,4.799,1.605,7.185,2.448.621.219,1.24.443,1.857.674.331.124.661.25.989.379.157.062,1.045.446.462.183.367.165.725.34,1.084.522.541.274.079-.094-.082-.104.276.018.872.873,1.047,1.106,1.012,1.351.889,2.186.479,3.639-.235.835-.408,1.293-.755,1.941-.136.255-.284.5-.446.739.32-.471.047-.063-.079.046-.201.174-.232.206-.347.283-.346.232-.564.316-.82.438-.051.024-.43.215-.111.058-.334.163-.162-.053.134.043-.306-.099-.614-.189-.918-.295-1.156-.406-2.299-.853-3.442-1.296-3.277-1.271-6.537-2.583-9.814-3.855-1.209-.469-2.634.517-2.952,1.676-.373,1.357.463,2.481,1.676,2.952,3.276,1.272,6.537,2.584,9.814,3.855,1.244.482,2.487.978,3.752,1.403,1.681.566,3.349.215,4.861-.685,1.848-1.1,2.851-2.737,3.618-4.69.754-1.919,1.273-4.223.67-6.252-.571-1.92-2.001-4.003-3.727-5.07-1.076-.665-2.335-1.085-3.512-1.533-3.084-1.171-6.237-2.143-9.348-3.237-1.223-.43-2.626.489-2.952,1.676-.364,1.325.449,2.52,1.676,2.952h0Z"/><path class="e" d="M7.223,227.58c.033-.038.068-.076.105-.113,8.726-8.797,20.353-19.812,23.342-22.426,4.717-4.125,6.295-5.903,11.445-9.472,0,0,.572-.396,1.482-1.029-.481.737-.839,1.54-.915,2.306-.212,2.121,1.072,5.343,2.02,6.459.336.395.884.828,1.487,1.162-1.301.86-2.193,1.451-2.193,1.451-5.749,4.234-11.49,8.43-17.171,12.754-2.834,2.157-10.203,7.377-16.895,11.923-2.004,1.362-4.248-1.255-2.707-3.015Z"/><path class="d" d="M137.783,154.484c3.973,2.393,7.699,5.301,11.4,8.085,1.177.885,2.446,1.891,3.887,3.035,2.026,1.608,4.041,3.23,6.05,4.859,2.332,1.892,4.655,3.796,6.967,5.712.859.712,1.965,1.927,2.868,2.404-.18-.095.147.289.026.11l-.022-.064c.038-.219.021-.183-.05.106-.071-.086.063-.108-.102.101.24-.304-.014-.01-.027-.057-.104-.404.6.7-.091-.038.328.35.054-.062.094-.03-.609-.482-1.419-.82-2.095-1.212-1.384-.804-2.766-1.614-4.144-2.428-2.033-1.203-4.066-2.409-6.066-3.667-6.044-3.804-12.11-7.569-18.19-11.314-2.638-1.624-5.051,2.526-2.423,4.145,6.081,3.745,12.147,7.509,18.19,11.314,2.246,1.414,4.532,2.764,6.818,4.111,1.405.828,2.812,1.65,4.223,2.467,1.519.88,2.944,1.693,4.757,1.308,2.63-.558,4.376-3.34,3.776-5.953-.35-1.521-1.416-2.421-2.554-3.37-1.414-1.178-2.832-2.351-4.253-3.52-4.311-3.543-8.643-7.065-13.046-10.492-4.368-3.4-8.824-6.897-13.571-9.755-2.653-1.598-5.069,2.551-2.423,4.145h0Z"/><path class="d" d="M121.894,146.45c2.363.715,4.669,1.664,6.947,2.61.145.06.289.12.434.181-.356-.15.002.001.062.028.303.13.605.261.907.394.552.244,1.103.494,1.645.76.347.171.686.352,1.022.544.166.095.408.364.05.022.368.351.754.687,1.07,1.089.955,1.218.842,2.048.478,3.495-.09.358-.195.712-.315,1.061-.057.166-.116.333-.181.497.119-.296-.03.069-.048.107-.134.283-.28.558-.45.821s.451-.366-.075.069c-.068.056-.404.366-.354.327-.02.016-.731.435-.62.39-.057.023-.49.146-.49.142.006-.081.513-.01.544.02-.14-.136-.742-.157-.935-.202-1.139-.264-2.273-.553-3.405-.846-3.3-.854-6.601-1.74-9.84-2.806-1.231-.405-2.621.47-2.952,1.676-.358,1.304.441,2.546,1.676,2.952,3.276,1.078,6.616,1.974,9.955,2.836,1.198.309,2.398.619,3.606.888,1.678.375,3.192.166,4.675-.771,1.802-1.14,2.781-2.726,3.478-4.698.674-1.905,1.098-4.19.505-6.169-.586-1.953-2.117-3.86-3.823-4.967-.895-.581-1.917-.996-2.89-1.425-3.06-1.348-6.194-2.684-9.399-3.654-2.963-.897-4.23,3.735-1.276,4.629h0Z"/><path class="d" d="M39.436,194.535c-4.277,3.167-8.263,6.764-12.182,10.36-4.266,3.916-8.444,7.933-12.599,11.966-2.521,2.447-5.028,4.908-7.513,7.392-1.225,1.225-2.594,2.358-2.783,4.187-.18,1.735.715,3.467,2.234,4.344,1.622.936,3.417.625,4.915-.367,1.615-1.069,3.199-2.188,4.79-3.292,2.854-1.98,5.697-3.977,8.514-6.009,6.862-4.951,13.581-10.11,20.396-15.127,1.042-.767,1.564-2.081.861-3.284-.601-1.028-2.234-1.634-3.284-.861-10.82,7.966-21.504,16.09-32.597,23.676-.341.233-1.411.837-1.373,1.051.005.031.273.033.269.132-.003.059-.01.544-.015-.06.009.931.128.346.638-.166.603-.606,1.208-1.21,1.814-1.813,2.306-2.294,4.629-4.569,6.964-6.833,3.823-3.706,7.667-7.391,11.578-11.004,3.795-3.506,7.65-7.079,11.796-10.15,1.04-.77,1.566-2.079.861-3.284-.6-1.026-2.236-1.637-3.284-.861h0Z"/><path class="d" d="M57.103,185.656c-2.722.958-5.476,1.822-8.189,2.808-1.397.507-2.818,1.019-4.151,1.681-1.504.747-2.708,2.196-3.512,3.639-1.173,2.106-1.163,4.349-.522,6.624.503,1.783,1.299,3.739,2.698,5.013,1.515,1.38,3.697,2.389,5.762,1.853,1.031-.268,2.037-.714,3.03-1.094,3.682-1.408,7.336-2.89,11.011-4.317,1.208-.469,2.045-1.612,1.676-2.952-.317-1.153-1.737-2.148-2.952-1.676-2.924,1.135-5.836,2.302-8.757,3.444-1.274.498-2.549.996-3.833,1.467-.377.139-.755.278-1.138.402-.097.031-.301.053-.384.118-.01.008-1.083.404.304-.028-.232.072-.089.063-.343-.057-.539-.255-.925-.457-1.406-.972.377.404-.077-.159-.174-.33-.078-.138-.152-.279-.224-.42.014.028-.312-.684-.187-.386-.326-.777-.573-1.617-.713-2.447-.067-.4-.099-.975.146-1.536.332-.76.88-1.303,1.426-1.906.531-.586-.525.246.037-.038.182-.092.357-.196.54-.285.21-.102.424-.194.637-.29-.569.256.123-.048.276-.11.671-.268,1.348-.52,2.028-.767,2.713-.985,5.467-1.85,8.189-2.808,1.222-.43,2.037-1.64,1.676-2.952-.326-1.185-1.724-2.108-2.952-1.676h0Z"/><path class="e" d="M96.028,64.834l7.428-1.277c9.609-2.32,15.167-6.292,17.227-9.765,1.673-2.822,2.975-6.288,2.804-9.982-.064-1.427-.631-3.228.048-4.526.497-.952,1.811-1.588,2.615-2.303,4.022-3.565,6.487-8.953,6.738-14.237.269-5.547-1.583-11.815-3.316-17.016-.773-2.316,2.236-4.324,4.115-2.792,9.196,7.505,10.957,23.14,9.804,33.309-1.276,11.238-6.137,22.126-15.061,29.124-.941.722-3,1.787-4.694,2.38l-6.262,4.43-20.669,1.014"/><path class="e" d="M77.691,64.834l-7.428-1.277c-9.609-2.32-15.167-6.292-17.227-9.765-1.673-2.822-2.975-6.288-2.804-9.982.064-1.427.631-3.228-.048-4.526-.497-.952-1.811-1.588-2.615-2.303-4.022-3.565-6.487-8.953-6.738-14.237-.269-5.547,1.583-11.815,3.316-17.016.773-2.316-2.236-4.324-4.115-2.792-9.196,7.505-10.957,23.14-9.804,33.309,1.276,11.238,6.137,22.126,15.061,29.124.941.722,3,1.787,4.694,2.38l6.262,4.43,20.669,1.014"/><path class="e" d="M78.887,63.957c-1.088.402-1.586,1.752-1.739,5.257-.057,1.318-.109,2.542-.147,3.451,0,0,0,.016-.003.047,3.625.278,7.139.482,9.862.482,2.84,0,6.575-.226,10.399-.528-.038-.909-.09-2.133-.147-3.451-.191-4.392-.926-5.4-2.682-5.4-2.442,0-3.878.73-7.3.73s-4.859-.73-7.3-.73c-.355,0-.668.041-.943.143Z"/><path class="e" d="M122.499,140.11c-.66-1.399-1.465-2.633-2.701-3.801,4.716-8.1,4.612-17.395,4.466-26.417-.038-2.371-.093-4.821-1.295-6.918.537-7.494.539-15.027.007-22.522-.212-2.985-.722-6.351-3.174-8.067-1.509-1.056-3.457-1.24-5.298-1.189-3.692.102-19.418,1.998-27.644,1.998-8.298,0-23.954-1.896-27.646-1.998-1.841-.051-3.789.133-5.298,1.189-2.452,1.716-2.962,5.082-3.174,8.067-.532,7.495-.53,15.027.007,22.522-1.202,2.097-1.256,4.548-1.295,6.918-.146,9.022-.25,18.317,4.466,26.416-1.755,1.659-2.641,3.45-3.477,5.657-.862,2.277-1.094,4.731-1.228,7.169-.349,6.354-.439,12.719-.32,19.081.11,5.878.363,11.802,1.662,17.541,1.223,5.403,3.417,10.669,6.993,14.899,2.048,2.423,4.517,4.469,7.17,6.21,6.553,4.301,14.3,6.767,22.138,7.009,7.838-.242,15.585-2.708,22.138-7.009,2.653-1.741,5.121-3.787,7.17-6.21,3.576-4.23,5.771-9.496,6.993-14.899,1.299-5.739,1.551-11.663,1.662-17.541.119-6.362.029-12.728-.32-19.081-.134-2.438-.365-4.892-1.228-7.169-.247-.653-.499-1.269-.776-1.856Z"/><path class="d" d="M124.571,138.899c-.777-1.601-1.803-3.041-3.077-4.286l.375,2.908c3.102-5.428,4.344-11.521,4.704-17.709.171-2.944.15-5.896.106-8.844-.047-3.182-.099-6.333-1.639-9.205l.328,1.211c.417-5.949.515-11.916.268-17.874-.192-4.63.079-10.908-3.853-14.198-2.976-2.49-6.885-2.193-10.497-1.883-3.77.323-7.535.703-11.305,1.026-3.917.335-7.846.653-11.778.735-3.718.077-7.441-.179-11.146-.462-4.084-.312-8.161-.707-12.24-1.083-3.068-.283-6.361-.822-9.4-.09-6.363,1.533-6.93,8.344-7.229,13.754-.371,6.689-.307,13.394.161,20.076l.328-1.211c-1.505,2.806-1.589,5.877-1.636,8.989-.046,3.02-.071,6.042.103,9.059.357,6.187,1.603,12.282,4.704,17.709l.375-2.908c-5.048,4.935-5.351,12.062-5.599,18.679-.27,7.186-.32,14.424.107,21.605.404,6.788,1.481,13.526,4.28,19.768,2.673,5.96,7.064,10.709,12.498,14.275,5.374,3.528,11.584,5.891,17.942,6.83,3.29.486,6.444.578,9.745.146,3.243-.423,6.422-1.155,9.5-2.267,6.106-2.207,12.038-5.662,16.452-10.484s7.063-10.924,8.428-17.235c1.668-7.712,1.711-15.73,1.694-23.586-.009-4.078-.11-8.157-.318-12.23-.201-3.96-.717-7.586-2.383-11.214-.541-1.178-2.244-1.469-3.284-.861-1.21.708-1.404,2.101-.861,3.284,1.291,2.813,1.572,5.738,1.727,8.792.165,3.259.263,6.521.301,9.783.076,6.57.083,13.219-.673,19.754-.676,5.839-2.247,11.716-5.426,16.712-3.128,4.916-7.931,8.473-13.102,11.023-5.025,2.478-10.971,4.17-16.611,4.082-5.685-.088-11.511-1.72-16.565-4.277-5.159-2.609-9.872-6.218-12.938-11.189-3.118-5.056-4.615-10.966-5.254-16.826-.801-7.347-.738-14.837-.57-22.216.082-3.585.052-7.276.557-10.832.423-2.981,1.568-5.992,3.747-8.122.765-.748.9-1.991.375-2.908-3.569-6.246-4.173-13.407-4.185-20.462-.003-1.72.019-3.442.054-5.162.032-1.57.037-3.248.666-4.72.431-1.007.627-1.646.554-2.757-.064-.978-.119-1.956-.165-2.935-.099-2.121-.156-4.244-.169-6.368-.026-4.082.092-8.17.394-12.241.166-2.234.408-5.457,2.8-6.46,1.824-.765,4.137-.371,6.063-.21,2.266.189,4.529.411,6.793.621,5.549.514,11.118,1.059,16.693,1.175,5.178.108,10.372-.373,15.525-.824,4.361-.382,8.732-.95,13.106-1.144,2.678-.119,4.983.327,5.845,3.142.972,3.173.83,6.782.93,10.061.14,4.571.082,9.149-.174,13.715-.068,1.217-.361,2.518.172,3.656.391.835.681,1.654.81,2.577.242,1.732.167,3.538.188,5.282.093,7.89-.154,16.026-4.17,23.053-.524.917-.39,2.161.375,2.908,1.006.983,1.712,2.051,2.326,3.315.566,1.166,2.226,1.479,3.284.861,1.19-.696,1.429-2.113.861-3.284Z"/><path class="d" d="M79.401,72.666c.063-1.493.095-2.99.206-4.48.05-.662.051-.761.15-1.261.041-.208.094-.413.147-.619.023-.09.063-.178.085-.268.079-.326-.178.379-.05.109.153-.321.286-.3-.026-.04.314-.262-.456.253-.11.062.356-.196-.506.225-.131.053.052-.024.128-.033.184-.042.198-.034-.439-.047-.241.039.327.142,1.034.023,1.406.053.125.01.25.025.374.04-.374-.046.036.008.094.017.287.045.573.095.859.142,2.913.484,5.731.577,8.657.145.508-.075,1.014-.166,1.521-.248.162-.026.324-.054.486-.076-.054.007-.313.037-.025.006.298-.033.596-.059.895-.072.227-.01.467.016.691-.01.404-.047-.476-.115-.108-.023.364.091.126.037-.114-.08.42.205-.082-.082-.049-.05.206.202-.36-.356-.128-.172.075.059.081.193.146.257.145.142-.061-.136-.079-.195.035.119.083.233.114.353.063.244.12.487.168.734.083.426.04.165.076.534.166,1.69.188,3.396.259,5.092.054,1.295,1.064,2.4,2.4,2.4,1.258,0,2.455-1.099,2.4-2.4-.071-1.695-.088-3.403-.259-5.092-.137-1.349-.309-2.786-1.006-3.982-1.445-2.481-4.181-2.293-6.657-1.927-2.717.401-5.566.604-8.237.158-2.338-.39-5.186-.995-7.023.941-1.005,1.06-1.323,2.539-1.51,3.936-.264,1.975-.283,3.977-.367,5.966-.054,1.296,1.142,2.4,2.4,2.4,1.345,0,2.346-1.1,2.4-2.4h0Z"/><path class="d" d="M60.596,108.036c3.001,1.034,6.202,1.465,9.34,1.846,3.724.452,7.474.696,11.221.831,7.043.254,14.129.08,21.14-.663,3.624-.384,7.362-.821,10.825-2.014,2.903-1,1.656-5.639-1.276-4.629-6.126,2.111-13.059,2.288-19.471,2.512-6.794.237-13.623.069-20.389-.611-3.398-.342-6.872-.784-10.114-1.901-2.927-1.008-4.184,3.627-1.276,4.629h0Z"/><path class="d" d="M59.588,140.268c8.986,1.516,18.15,2.473,27.271,2.473s18.285-.956,27.271-2.473c1.279-.216,1.995-1.794,1.676-2.952-.372-1.355-1.67-1.893-2.952-1.676-8.565,1.445-17.304,2.301-25.995,2.301s-17.431-.856-25.995-2.301c-1.277-.215-2.584.337-2.952,1.676-.316,1.151.391,2.735,1.676,2.952h0Z"/><path class="d" d="M84.459,147.626v65.283c0,3.089,4.8,3.094,4.8,0v-65.283c0-3.089-4.8-3.094-4.8,0h0Z"/><path class="d" d="M104.094,65.872c4.909-1.207,9.909-2.987,14.006-6.024,3.625-2.687,5.995-6.303,7.166-10.691.348-1.306.56-2.677.622-4.027.031-.69.01-1.374-.066-2.06s-.383-1.676-.215-2.352c.169-.681.939-1.027,1.5-1.451,1.2-.908,2.229-1.999,3.158-3.179,3.451-4.384,5.254-9.871,5.03-15.453-.121-3.003-.674-5.997-1.414-8.905-.362-1.422-.774-2.832-1.213-4.232-.19-.607-.386-1.212-.585-1.816-.034-.104-.294-.668-.229-.547-.242-.449.109-.303-.002-.132.026-.041.285-.193.31-.201-.035.011.159.103.08.042.849.662,1.61,1.484,2.31,2.298,1.377,1.602,2.458,3.468,3.354,5.376,3.627,7.715,4.279,17.265,2.924,25.603-.921,5.667-2.759,11.179-5.743,16.099-2.822,4.654-6.747,9.308-11.989,11.217-1.217.443-2.04,1.63-1.676,2.952.323,1.174,1.728,2.122,2.952,1.676,10.561-3.846,17.17-15.165,19.977-25.528,2.565-9.469,2.592-20.019-.34-29.413-1.474-4.724-3.812-9.332-7.408-12.8-2.005-1.933-4.4-3.121-7.061-1.581-1.089.63-1.936,1.716-2.302,2.915-.458,1.5.083,2.88.54,4.3,1.779,5.54,3.65,11.784,2.317,17.623-.6,2.626-1.718,5.14-3.362,7.283-.675.881-1.465,1.768-2.328,2.468-1.187.964-2.414,1.628-3.088,3.076-.772,1.659-.407,3.303-.256,5.039.142,1.645-.077,3.263-.539,4.842-.442,1.51-1.094,2.949-1.912,4.293-.094.155-.702,1.018-.442.688-.282.358-.591.697-.91,1.022-3.667,3.732-9.304,5.69-14.441,6.953-2.998.737-1.728,5.367,1.276,4.629h0Z"/><path class="d" d="M70.901,61.243c-4.732-1.163-9.952-2.971-13.533-6.099-1.566-1.368-2.084-2.094-3.03-3.966-1.267-2.507-1.946-5.298-1.641-8.109.164-1.506.387-2.915-.176-4.375-.625-1.622-1.93-2.325-3.209-3.362-1.982-1.607-3.503-3.908-4.538-6.216-2.382-5.311-1.624-11.086-.195-16.542.389-1.483.829-2.953,1.296-4.413.48-1.501,1.06-2.913.605-4.503-.738-2.577-3.727-4.251-6.304-3.46-2.311.709-4.198,3.2-5.602,5.054-1.417,1.871-2.536,3.926-3.455,6.082-3.845,9.014-4.434,19.447-2.693,29.024,1.117,6.141,3.357,12.186,6.778,17.423,1.721,2.634,3.735,5.106,6.03,7.261,2.416,2.269,4.991,3.887,8.112,5.023,1.218.444,2.629-.498,2.952-1.676.367-1.336-.454-2.507-1.676-2.952-4.657-1.696-8.235-5.568-10.954-9.599-2.888-4.283-4.862-9.069-6.054-14.085-2.034-8.562-1.816-17.979,1.043-26.333,1.332-3.892,3.492-8.015,6.821-10.575-.101.078.137-.024.08-.042.007.002.295.179.31.201-.112-.165-.04.064-.1.285-.205.744-.484,1.473-.715,2.21-.883,2.817-1.665,5.679-2.135,8.597-.921,5.72-.501,11.32,2.237,16.512,1.278,2.423,3.05,4.775,5.215,6.472.598.469,1.556.897,1.743,1.639.139.552-.097,1.413-.165,1.966-.092.743-.145,1.477-.122,2.227.157,5.134,2.469,10.554,6.449,13.883,4.372,3.658,9.874,5.731,15.351,7.078,2.999.737,4.279-3.89,1.276-4.629h0Z"/></g></svg>