<svg id="b" xmlns="http://www.w3.org/2000/svg" width="253.132" height="260.753" viewBox="0 0 253.132 260.753" style="color: initial !important;"><defs><style>.d{fill:#211715;}.d,.e,.f,.g,.h{stroke-width:0px;}.e{fill:#d9d9d9;}.f{fill:#ffffff;}.g{fill:#3d8dcc;}.h{fill:#c6c6c6;}</style></defs><g id="c"><rect class="g" x="2.415" y="6.83" width="190" height="251.442" rx="7.308" ry="7.308"/><path class="d" d="M185.106,4.43h-6.797c-6.051,0-12.101,0-18.152,0h-25.853c-10.037,0-20.074,0-30.111,0h-30.872c-9.413,0-18.827,0-28.24,0-7.291,0-14.583,0-21.874,0-4.044,0-8.088,0-12.132,0-1.455,0-2.888-.012-4.299.458C2.609,6.275.037,10.099.015,14.434.002,16.911.015,19.389.015,21.867c0,5.336,0,10.671,0,16.007,0,7.587,0,15.174,0,22.762,0,9.135,0,18.271,0,27.406v30.21c0,10.406,0,20.812,0,31.217,0,10.016,0,20.031,0,30.047,0,9.027,0,18.054,0,27.081v37.581c0,2.219-.033,4.44,0,6.658.08,5.403,4.272,9.732,9.71,9.836.637.012,1.276,0,1.913,0h13.093c7.513,0,15.025,0,22.538,0,9.496,0,18.991,0,28.487,0,10.355,0,20.71,0,31.065,0,9.962,0,19.924,0,29.886,0,8.444,0,16.888,0,25.332,0h17.283c2.947,0,6.561.43,9.342-.692,3.872-1.562,6.134-5.237,6.151-9.353.004-.869,0-1.737,0-2.606v-12.164c0-6.569,0-13.138,0-19.707,0-8.453,0-16.907,0-25.36,0-9.739,0-19.477,0-29.216,0-10.303,0-20.606,0-30.909s0-20.529,0-30.793v-28.756c0-8.266,0-16.532,0-24.798,0-6.307,0-12.614,0-18.92v-11.148c0-.661.009-1.323,0-1.984-.074-5.418-4.277-9.71-9.708-9.836-3.09-.071-3.089,4.729,0,4.8,2.978.069,4.898,2.422,4.908,5.279.003.878,0,1.756,0,2.635v31.532c0,8.361,0,16.721,0,25.082,0,9.598,0,19.195,0,28.793,0,10.21,0,20.42,0,30.629,0,10.156,0,20.313,0,30.469,0,9.563,0,19.127,0,28.69s0,16.607,0,24.911c0,6.419,0,12.838,0,19.256v11.728c0,.818.005,1.637,0,2.455-.016,2.83-2.002,5.124-4.918,5.184-2.366.048-4.739,0-7.106,0-6.036,0-12.072,0-18.108,0-8.565,0-17.13,0-25.695,0-9.957,0-19.913,0-29.87,0h-30.633c-9.328,0-18.656,0-27.984,0-7.307,0-14.615,0-21.922,0-4.149,0-8.299,0-12.448,0-.745,0-1.55.067-2.292-.032-2.715-.362-4.216-2.752-4.224-5.305-.008-2.581,0-5.162,0-7.743v-16.122c0-7.538,0-15.076,0-22.614v-27.232c0-9.992,0-19.983,0-29.975v-30.844c0-9.907,0-19.814,0-29.721s0-17.982,0-26.973,0-14.817,0-22.226c0-5.201,0-10.402,0-15.604s-.015-4.738,0-7.107c.018-2.823,2.036-5.094,4.929-5.146.7-.013,1.402,0,2.103,0h13.257c7.494,0,14.988,0,22.481,0,9.431,0,18.862,0,28.293,0,10.189,0,20.379,0,30.568,0,9.897,0,19.794,0,29.691,0,8.427,0,16.854,0,25.28,0,5.819,0,11.638,0,17.457,0h6.231c3.089,0,3.094-4.8,0-4.8Z"/><path class="f" d="M177.356,19.705H17.473v224.691h159.883V19.705Z"/><path class="d" d="M42.621,17.305h-25.148c-1.297,0-2.4,1.1-2.4,2.4v224.691c0,1.297,1.1,2.4,2.4,2.4h159.883c1.297,0,2.4-1.1,2.4-2.4V19.705c0-1.297-1.1-2.4-2.4-2.4h-24.254c-3.089,0-3.094,4.8,0,4.8h24.254l-2.4-2.4v137.67c0,16.809,0,33.618,0,50.426v36.595l2.4-2.4H17.473l2.4,2.4V19.705l-2.4,2.4h25.148c3.089,0,3.094-4.8,0-4.8h0Z"/><path class="e" d="M43.925,66.684c15.994.023,31.988.007,47.982.002,4.368-.001,8.735-.002,13.103-.002,3.089,0,3.094-4.8,0-4.8-16.611,0-33.223.013-49.834.008-3.75-.001-7.501-.003-11.251-.008-3.089-.004-3.093,4.796,0,4.8h0Z"/><path class="e" d="M43.925,84.241c15.331-.001,30.662-.106,45.993-.143,5.031-.012,10.062-.02,15.092-.021,3.089,0,3.094-4.8,0-4.8-17.23,0-34.46.087-51.69.143-3.132.01-6.264.02-9.396.021-3.089,0-3.094,4.8,0,4.8h0Z"/><path class="g" d="M128.348,74.819c1.555,1.557,3.079,3.146,4.634,4.704.922.924,2.468.909,3.394,0,3.206-3.146,6.389-6.318,9.528-9.531.878-.899.963-2.51,0-3.394-.949-.871-2.457-.959-3.394,0-3.139,3.213-6.322,6.385-9.528,9.531h3.394c-1.555-1.558-3.078-3.146-4.634-4.704-.888-.889-2.518-.955-3.394,0s-.948,2.445,0,3.394h0Z"/><path class="g" d="M129.665,131.753c1.556,1.557,3.084,3.141,4.639,4.699.923.925,2.466.908,3.394,0,2.765-2.705,5.507-5.437,8.205-8.209.877-.901.964-2.509,0-3.394-.947-.87-2.459-.961-3.394,0-2.698,2.772-5.44,5.503-8.205,8.209h3.394c-1.555-1.558-3.083-3.142-4.639-4.699-.889-.889-2.518-.955-3.394,0s-.948,2.445,0,3.394h0Z"/><path class="d" d="M126.332,90.174c5.923.014,11.846-.001,17.768-.013,2.866-.005,5.962.389,8.218-1.772,1.389-1.33,1.971-3.117,1.985-5.001.048-6.206,0-12.415,0-18.622,0-.785.026-1.576,0-2.361-.089-2.686-1.578-5.043-4.13-6.03-1.319-.51-2.714-.43-4.103-.427-1.487.003-2.974.006-4.461.008-3.112.006-6.224.011-9.335.012-1.332,0-2.663,0-3.995,0-1.417-.002-2.852-.095-4.2.426-2.547.985-4.045,3.344-4.134,6.031-.078,2.359,0,4.735,0,7.095v11.832c0,.804-.029,1.614,0,2.417.132,3.592,2.809,6.243,6.385,6.404,3.088.139,3.081-4.661,0-4.8-2.109-.095-1.585-2.925-1.585-4.359v-17.632c0-.559-.084-1.234.166-1.734.363-.727,1.006-.876,1.747-.883,1.125-.01,2.25.004,3.374.004,5.404.002,10.807-.011,16.211-.021,1.436-.003,3.109-.205,3.258,1.631.049.604,0,1.234,0,1.839v17.808c0,.64.124,1.436-.015,2.072-.127.582-.654,1.103-1.228,1.24-.606.144-1.376.017-2.004.018-.719.001-1.438.003-2.156.004-5.923.011-11.846.027-17.768.013-3.089-.007-3.093,4.793,0,4.8Z"/><path class="e" d="M43.925,124.936c15.994.023,31.988.007,47.982.002,4.368-.001,8.735-.002,13.103-.002,3.089,0,3.094-4.8,0-4.8-16.611,0-33.223.013-49.834.008-3.75-.001-7.501-.003-11.251-.008-3.089-.004-3.093,4.796,0,4.8h0Z"/><path class="e" d="M43.925,142.493c15.331-.001,30.662-.106,45.993-.143,5.031-.012,10.062-.02,15.092-.021,3.089,0,3.094-4.8,0-4.8-17.23,0-34.46.087-51.69.143-3.132.01-6.264.02-9.396.021-3.089,0-3.094,4.8,0,4.8h0Z"/><path class="d" d="M126.397,148.426c5.886.014,11.773-.001,17.659-.013,2.843-.005,5.853.371,8.132-1.691,1.457-1.317,2.099-3.152,2.116-5.081.054-6.233,0-12.47,0-18.703,0-.746.025-1.497,0-2.243-.092-2.74-1.65-5.118-4.243-6.095-1.258-.474-2.583-.402-3.902-.4-1.499.003-2.999.006-4.498.009-3.078.006-6.157.011-9.235.012-1.35,0-2.7,0-4.051,0-1.402-.001-2.842-.104-4.178.399-2.61.982-4.157,3.363-4.249,6.109-.08,2.38,0,4.776,0,7.157v11.799c0,.757-.027,1.52,0,2.278.131,3.622,2.842,6.309,6.45,6.464,3.089.132,3.082-4.668,0-4.8-2.135-.092-1.65-2.791-1.65-4.273v-17.646c0-.536-.084-1.195.127-1.686.284-.658.874-.949,1.545-1.004,1.226-.101,2.503.004,3.734.004,5.393.001,10.786-.011,16.179-.021,1.436-.003,3.033-.133,3.172,1.676.045.592,0,1.206,0,1.799v17.797c0,.627.107,1.393-.023,2.005-.135.64-.663,1.172-1.295,1.314-1.249.281-2.849.019-4.13.021-5.886.011-11.773.026-17.659.013-3.089-.007-3.093,4.793,0,4.8Z"/><path class="d" d="M126.365,209.157c5.904.014,11.809-.001,17.713-.013,2.873-.005,5.969.385,8.23-1.781,1.395-1.336,1.981-3.131,1.996-5.024.048-6.188,0-12.378,0-18.566,0-.783.026-1.571,0-2.353-.089-2.698-1.586-5.068-4.149-6.059-1.323-.512-2.72-.433-4.112-.43-1.482.003-2.965.006-4.447.008-3.101.006-6.202.011-9.302.012-1.328,0-2.656,0-3.983,0-1.421-.002-2.859-.093-4.21.429-2.559.99-4.064,3.361-4.154,6.06-.078,2.352,0,4.72,0,7.074v11.797c0,.802-.029,1.609,0,2.41.132,3.611,2.824,6.274,6.418,6.436,3.088.139,3.081-4.661,0-4.8-2.139-.096-1.618-2.928-1.618-4.383v-17.579c0-.564-.083-1.24.17-1.746.368-.736,1.022-.893,1.776-.9,1.122-.01,2.245.003,3.367.004,5.386.002,10.771-.011,16.157-.021,1.454-.003,3.138-.196,3.287,1.663.049.602,0,1.23,0,1.833v17.755c0,.64.122,1.434-.015,2.07-.129.599-.666,1.13-1.257,1.269-1.245.293-2.874.02-4.154.022-5.904.011-11.809.027-17.713.013-3.089-.007-3.093,4.793,0,4.8Z"/><path class="e" d="M43.925,185.666c16.322.023,32.645.007,48.967.002,4.447-.001,8.894-.002,13.341-.002,3.089,0,3.094-4.8,0-4.8-16.942,0-33.884.013-50.826.008-3.827-.001-7.654-.003-11.481-.008-3.089-.004-3.093,4.796,0,4.8h0Z"/><path class="e" d="M43.925,203.223c15.723-.001,31.446-.106,47.168-.143,5.046-.012,10.093-.02,15.139-.02,3.089,0,3.094-4.8,0-4.8-17.613,0-35.225.088-52.837.143-3.157.01-6.313.02-9.47.02-3.089,0-3.094,4.8,0,4.8h0Z"/><path class="d" d="M57.818,11.857h-6.418c-1.297,0-2.4,1.1-2.4,2.4v8.545c0,1.142-.038,2.292,0,3.434.097,2.905,1.877,5.465,4.745,6.245,1.498.407,3.229.214,4.771.214,1.609,0,3.219,0,4.828,0,4.009,0,8.018,0,12.027,0,18.555,0,37.11,0,55.664,0,1.783,0,3.566,0,5.349,0,1.988,0,4.086.214,5.926-.676,1.53-.74,2.721-2.151,3.24-3.766.501-1.56.305-3.319.301-4.935-.008-3.022-.012-6.044-.036-9.065-.01-1.297-1.091-2.4-2.4-2.4h-6.725c-3.089,0-3.094,4.8,0,4.8h6.725l-2.4-2.4c.019,2.497.025,4.994.032,7.491.004,1.279.007,2.558.01,3.838.002.866.004,1.744-.901,2.173-.968.458-2.703.14-3.772.14-1.483,0-2.966,0-4.449,0-8.226,0-16.453,0-24.679,0-16.545,0-33.089,0-49.634,0-1.277,0-3.386.416-3.78-1.228-.232-.969-.042-2.206-.042-3.204v-9.207l-2.4,2.4h6.418c3.089,0,3.094-4.8,0-4.8h0Z"/><path class="h" d="M55.436,19.705c-.034-4.275-.004-11.312.021-17.301,5.701,0,74.28-.005,83.904-.005.03,5.99.067,13.03.032,17.305,0,0-83.958,0-83.958,0Z"/><path class="d" d="M57.836,19.705c-.044-5.767-.003-11.534.021-17.301l-2.4,2.4c9.406,0,18.812-.001,28.219-.002,14.034,0,28.067-.002,42.101-.003,4.528,0,9.057,0,13.585,0l-2.4-2.4c.029,5.768.076,11.537.032,17.305l2.4-2.4c-9.485-.002-18.969,0-28.454,0-15.027,0-30.054,0-45.081,0-3.474,0-6.949,0-10.423,0-3.089,0-3.094,4.8,0,4.8,9.485,0,18.969,0,28.454,0,15.027,0,30.054,0,45.081,0,3.474,0,6.949,0,10.423,0,1.305,0,2.39-1.1,2.4-2.4.043-5.768-.003-11.537-.032-17.305-.007-1.297-1.094-2.4-2.4-2.4-10.34,0-20.681.001-31.021.002-13.772,0-27.544.002-41.316.003-3.856,0-7.711,0-11.567,0-1.301,0-2.394,1.1-2.4,2.4-.025,5.767-.065,11.534-.021,17.301.023,3.087,4.823,3.095,4.8,0Z"/><path class="f" d="M159.698,221.809c1.757-6.019,3.539-11.659,5.282-16.138.074.051.12.08.12.08,2.466,1.515,13.804,10.787,15.491,11.813-5.394,3.412-14.193,8.574-23.495,13.439.856-3.094,1.726-6.191,2.602-9.194Z"/><path class="g" d="M236.865,123.735c-.566.144-1.053.398-1.441.759-9.563,10.913-63.549,72.63-70.545,81.138,1.819.951,12.805,9.921,15.382,11.713l.225.157c16.268-18.434,52.695-60.669,69.164-79.393,2.678-3.408.112-7.594-3.542-10.77-3.471-3.017-6.985-4.18-9.243-3.604Z"/><path class="d" d="M157.716,230.678c-.206.109-.413.217-.62.325,1.259-4.553,2.549-9.112,3.845-13.367,2.441,1.595,7.001,5.031,8.727,6.471-3.688,2.115-7.762,4.369-11.952,6.571Z"/><path class="d" d="M166.797,207.061c6.879-8.307,14.057-16.376,21.132-24.515,10.57-12.159,21.163-24.297,31.763-36.429,4.146-4.745,8.293-9.489,12.443-14.231,1.341-1.533,2.683-3.066,4.025-4.598.238-.271.496-.535.718-.82.043-.054.398-.454.112-.184.033-.031.668-.336.271-.165.072-.031.722-.152.366-.108,2.317-.285,4.887,1.416,6.596,2.868,1.687,1.433,4.104,3.645,4.133,6.067.018,1.575-1.596,2.822-2.575,3.937-2.599,2.964-5.191,5.933-7.781,8.904-6.32,7.251-12.627,14.514-18.933,21.778-12.393,14.274-24.761,28.57-37.232,42.776-1.096,1.248-2.193,2.496-3.292,3.741-2.037,2.308,1.345,5.716,3.394,3.394,12.339-13.982,24.532-28.094,36.757-42.176,6.618-7.624,13.236-15.248,19.865-22.862,2.807-3.224,5.616-6.447,8.431-9.664,1.2-1.372,2.401-2.742,3.604-4.112,1.882-2.142,2.969-4.434,2.373-7.341s-2.694-5.453-4.844-7.396c-2.268-2.049-5.05-3.927-8.101-4.517-2.258-.437-4.735-.203-6.415,1.525-.558.574-1.063,1.213-1.59,1.815-3.594,4.105-7.186,8.212-10.778,12.32-10.679,12.215-21.349,24.437-32.001,36.676-8.214,9.437-16.474,18.841-24.553,28.393-.43.508-.859,1.017-1.283,1.53-.826.998-.977,2.417,0,3.394.851.851,2.563,1.003,3.394,0h0Z"/><path class="d" d="M163.889,207.823c.741.46,1.44.994,2.137,1.517.522.391,1.04.787,1.557,1.185.068.052.484.373.214.165s.157.122.226.175c.323.251.646.502.968.754,2.345,1.829,4.672,3.681,7.022,5.503,1.001.776,1.996,1.569,3.035,2.295,1.032.722,2.712.221,3.284-.861.649-1.228.24-2.514-.861-3.284-.321-.224-.635-.458-.948-.693-.189-.142-.378-.286-.566-.43-.103-.079-.207-.158-.31-.237-.079-.061-.504-.387-.196-.15s-.133-.103-.22-.171c-.121-.094-.242-.188-.363-.283-.276-.215-.552-.43-.827-.646-.593-.464-1.186-.93-1.778-1.396-2.444-1.921-4.882-3.853-7.361-5.729-.845-.64-1.689-1.299-2.59-1.859-1.068-.663-2.689-.264-3.284.861-.621,1.176-.279,2.576.861,3.284h0Z"/><path class="d" d="M162.786,204.726c-3.259,8.335-5.62,17.024-8.004,25.639-.578,2.089,1.707,3.663,3.526,2.71,7.868-4.123,15.626-8.493,23.146-13.224,2.608-1.641.202-5.796-2.423-4.145-7.52,4.731-15.277,9.102-23.146,13.224l3.526,2.71c2.384-8.616,4.745-17.304,8.004-25.639.472-1.208-.519-2.634-1.676-2.952-1.36-.374-2.478.464-2.952,1.676h0Z"/></g></svg>