<svg id="b" xmlns="http://www.w3.org/2000/svg" width="238.764" height="248.176" viewBox="0 0 238.764 248.176" style="color: initial !important;"><defs><style>.d{fill:#3d8dcc;}.e{fill:#ffffff;}.f{fill:#211715;}</style></defs><g id="c"><path class="f" d="M192.951,244.13c-17.29-15.822-29.504-36.375-38.792-57.702-2.6-5.971-4.953-12.048-7.14-18.182-.435-1.22-1.636-2.038-2.952-1.676-1.181.325-2.114,1.726-1.676,2.952,8.05,22.58,18.486,44.633,33.556,63.422,4.165,5.193,8.697,10.086,13.61,14.581,2.275,2.082,5.679-1.303,3.394-3.394h0Z"/><path class="e" d="M46.659,33.023c-.205-3.247-.29-5.705-.093-6.576.692-3.061,3.413-5.439,6.01-4.018,1.313.718,2.276,2.198,3.167,3.608,3.864,6.109,7.728,12.219,11.592,18.328,12.494-8.763,27.483-13.82,42.701-14.601,0,0,6.996-.359,13.993-.719.016-.165.033-.33.033-.33.672-6.798,1.345-13.597,2.017-20.395.159-1.605.35-3.301,1.232-4.52,1.745-2.411,5.42-1.679,7.528.575s11.616,25.035,17.062,31.935c29.602,4.751,57.663,18.499,79.64,38.874,3.258,3.02,6.564,7.939,3.845,11.452-1.066,1.378-2.789,2.034-4.383,2.736-9.278,4.085-16.679,11.654-22.202,20.156-6.927,10.663-14.591,21.421-22.48,31.497-10.173,12.994-21.298,21.236-37.066,27.186-24.129,9.105-51.203,9.357-75.431.569-10.922-3.962-20.896-9.61-31.343-14.584-9.117-4.34-21.103-6.408-31.186-6.027-1.741.066-3.513.713-5.165.16-4.212-1.412-4.195-7.338-3.164-11.659,6.992-29.297,22.812-56.44,44.954-76.877.528-5.483-.747-18.615-1.262-26.77Z"/><path class="d" d="M138.841,11.817c-1.853-3.814-3.317-6.71-4.002-7.442-2.108-2.255-5.782-2.986-7.528-.575-.883,1.219-1.074,2.915-1.232,4.52-.672,6.798-1.345,13.597-2.017,20.395,0,0-.016.165-.033.33-6.996.359-13.993.719-13.993.719-15.218.782-30.208,5.838-42.701,14.601-3.864-6.109-7.728-12.219-11.592-18.328-.892-1.41-1.854-2.89-3.167-3.608-2.597-1.42-5.318.957-6.01,4.018-.197.872-.112,3.329.093,6.576.516,8.155,1.79,21.287,1.262,26.77-5.572,5.143-10.744,10.71-15.475,16.63,9.963,4.813,21.486,1.532,30.939-3.674,8.694-4.788,16.499-11.192,25.605-15.138,10.255-4.444,21.678-5.542,32.849-5.183,8.726.281,17.456,1.414,26.162.762,9.661-.723,19.605-3.932,25.738-11.668-7.136-2.275-14.438-4.024-21.838-5.212-3.678-4.66-9.208-16.561-13.061-24.493Z"/><path class="f" d="M94.097,72.612c3.435-1.895,7.228-3.119,11.003-4.132,3.941-1.057,7.983-1.881,12.065-2.086,3.074-.155,3.093-4.956,0-4.8-4.502.226-8.994,1.092-13.341,2.257-4.166,1.117-8.362,2.525-12.15,4.616-2.705,1.493-.286,5.64,2.423,4.145h0Z"/><path class="f" d="M76.045,101.589c5.468.78,11.346.5,16.559-1.449,1.173-.438,2.1-1.643,1.676-2.952-.371-1.147-1.693-2.147-2.952-1.676-1.114.416-2.257.746-3.419,1.001-.577.127-1.159.236-1.742.33-.17.027-.34.053-.51.078.21-.026.165-.021-.135.017-.304.036-.607.069-.911.098-1.27.12-2.546.173-3.821.156-.609-.008-1.219-.032-1.827-.074-.342-.023-.684-.052-1.025-.087-.086-.009-1.002-.125-.616-.07-1.237-.176-2.639.303-2.952,1.676-.258,1.134.347,2.763,1.676,2.952h0Z"/><path class="f" d="M79.485,113.478c5.302,1.138,11.451.685,16.022-2.474,1.031-.712,1.6-2.137.861-3.284-.661-1.025-2.179-1.624-3.284-.861-.447.309-.91.593-1.392.845-.248.13-.501.248-.755.366-.254.112-.259.114-.016.007-.134.053-.268.105-.403.154-1.057.388-2.139.63-3.243.84-.287.043-.303.047-.047.014-.154.02-.308.037-.462.054-.311.032-.622.058-.934.076-.552.032-1.105.042-1.658.03-1.499-.032-2.097-.114-3.414-.397-1.224-.263-2.653.363-2.952,1.676-.275,1.208.364,2.671,1.676,2.952h0Z"/><path class="f" d="M147.559,77.071c-.419.391-.847.77-1.289,1.135-.132.109-.266.216-.399.324-.169.137-.185.146-.004.007-.221.169-.444.335-.669.498-.992.718-2.026,1.379-3.092,1.981-.512.289-1.031.565-1.558.825-.244.12-.49.238-.737.352-.122.056-.245.112-.368.167,0,0-.571.24-.264.116.273-.111-.123.047-.171.066-.121.048-.243.095-.365.142-.27.102-.541.2-.814.293-.524.177-1.054.333-1.59.47-1.217.311-2.07,1.735-1.676,2.952.407,1.256,1.649,2.009,2.952,1.676,4.98-1.273,9.7-4.12,13.439-7.61.92-.859.933-2.538,0-3.394-.985-.904-2.413-.916-3.394,0h0Z"/><path class="f" d="M151.241,87.927c-.402.431-.818.847-1.256,1.241-.194.174-.391.345-.592.512-.125.104-.253.204-.379.307-.273.221.311-.219.022-.021-.951.653-1.893,1.282-2.931,1.793-.223.11-.451.209-.676.315-.27.128.406-.156-.022.008-.114.044-.227.089-.341.131-.504.188-1.017.351-1.538.486-.254.065-.509.124-.766.176-.113.023-.226.044-.339.063-.075.013-.451.106-.102.022.374-.09-.093.009-.183.018-.111.011-.221.02-.332.028-.273.019-.547.026-.82.027-1.255.003-2.458,1.101-2.4,2.4s1.055,2.404,2.4,2.4c5.169-.014,10.188-2.797,13.649-6.512.856-.919.978-2.496,0-3.394-.93-.854-2.48-.981-3.394,0h0Z"/><path class="d" d="M34.236,79.745c9.24,3.123,19.174.629,27.663-3.522,8.647-4.228,16.148-10.422,24.698-14.827,8.657-4.46,18.305-6.266,27.976-6.578,10.503-.339,20.959,1.367,31.458.89,9.942-.452,20.215-3.155,27.48-10.323,2.202-2.173-1.192-5.567-3.394-3.394-5.899,5.82-14.271,8.241-22.36,8.816-10.31.733-20.599-.942-30.909-.837-9.548.097-19.224,1.441-28.077,5.148-8.785,3.678-16.305,9.557-24.471,14.349-8.549,5.017-18.912,8.986-28.785,5.649-2.933-.991-4.192,3.643-1.276,4.629h0Z"/><path class="f" d="M120.596,48.258c-.658-1.913-.029-6.254,4.453-6.504,5.905.189,6.031,5.462,3.954,7.883-1.701,1.983-6.518,2.696-8.407-1.38Z"/><path class="f" d="M71.058,60.606c-.658-1.913-.029-6.254,4.453-6.504,5.905.189,6.031,5.462,3.954,7.883-1.701,1.983-6.518,2.696-8.407-1.38Z"/><path class="f" d="M49.059,33.023c-.096-1.552-.196-3.108-.204-4.664-.002-.47-.009-.947.04-1.415-.073.69.047-.118.077-.222.094-.331.154-.487.307-.793.336-.67,1.074-1.574,1.74-1.521.967.076,1.81,1.537,2.312,2.31,4.049,6.238,7.955,12.573,11.931,18.858.651,1.03,2.188,1.625,3.284.861,12.611-8.794,27.329-13.546,42.642-14.333l12.841-.66c1.394-.072,2.266-1.048,2.4-2.4.552-5.582,1.104-11.164,1.656-16.746.138-1.394.27-2.788.414-4.181.093-.894.152-2.124.711-2.876.766-1.031,2.416-.449,3.389.309.168.131.41.517.586.569.077.023-.362-.568-.101-.124.182.31.388.607.568.92.526.913,1.005,1.853,1.48,2.793,1.391,2.756,2.713,5.548,4.055,8.329,2.891,5.985,5.696,12.156,9.374,17.711.318.48.645.952.99,1.412.277.37.532.749.896,1.034.645.505,1.473.535,2.254.668,2.394.408,4.777.876,7.148,1.4,4.741,1.05,9.43,2.33,14.048,3.829,18.323,5.95,35.562,15.454,50.329,27.835,1.807,1.515,3.582,3.07,5.313,4.672,1.579,1.461,3.126,3.104,3.994,5.106.653,1.507.694,3.051-.715,4.094-1.823,1.35-4.255,1.999-6.243,3.095-8.387,4.624-14.923,11.877-20.102,19.818-6.054,9.281-12.441,18.345-19.167,27.151-5.464,7.153-11.337,13.964-18.63,19.325-15.561,11.439-35.5,16.99-54.64,17.57-10.38.315-20.763-.853-30.798-3.535-10.347-2.766-19.943-7.343-29.48-12.127-4.712-2.364-9.395-4.901-14.324-6.789-4.598-1.762-9.419-2.943-14.285-3.67-4.777-.715-9.897-1.325-14.725-.794-1.098.121-2.349.506-3.447.229-.63-.159-1.072-.579-1.341-.993-.787-1.209-.882-2.801-.834-4.317.063-1.996.576-3.91,1.069-5.836.575-2.244,1.201-4.475,1.878-6.691,1.395-4.561,3.003-9.056,4.817-13.467,3.599-8.75,8.078-17.16,13.243-25.084s11.089-15.373,17.671-22.192c1.657-1.716,3.354-3.393,5.092-5.027,1.023-.962,1.667-1.641,1.786-3.099.061-.743.078-1.492.086-2.237.045-3.996-.238-7.998-.513-11.982-.279-4.043-.614-8.081-.872-12.125-.083-1.294-1.044-2.4-2.4-2.4-1.235,0-2.483,1.1-2.4,2.4.307,4.798.718,9.589,1.023,14.387.26,4.094.611,8.286.24,12.383l.703-1.697c-11.448,10.595-21.269,22.966-29.046,36.486-3.91,6.796-7.29,13.889-10.156,21.187-1.395,3.551-2.657,7.155-3.782,10.8-1.093,3.542-2.238,7.175-2.868,10.833-.55,3.193-.654,6.651.847,9.617.701,1.386,1.882,2.559,3.286,3.221,2.053.969,3.976.605,6.137.38,3.854-.401,7.927-.019,11.757.445,3.936.476,7.85,1.319,11.643,2.467,8.047,2.435,15.411,6.835,22.932,10.512,7.923,3.873,16.029,7.375,24.555,9.692,16.48,4.48,33.931,5.028,50.687,1.79,15.152-2.927,30.054-8.925,42.112-18.684,5.755-4.658,10.631-10.153,15.15-15.992,5.602-7.237,10.988-14.64,16.139-22.205,4.508-6.621,8.555-13.472,14.43-19.015,2.709-2.557,5.688-4.788,8.952-6.59,3.164-1.747,7.439-2.679,9.086-6.253,1.735-3.763-.123-7.722-2.487-10.729s-5.521-5.484-8.455-7.924c-6.13-5.098-12.638-9.745-19.47-13.856-13.535-8.146-28.35-14.271-43.708-17.985-3.777-.913-7.589-1.675-11.424-2.296l1.059.617c.377.483-.314-.44-.418-.588-.246-.352-.484-.71-.717-1.071-.529-.819-1.031-1.655-1.52-2.498-1.093-1.887-2.117-3.814-3.115-5.753-2.165-4.205-4.198-8.475-6.255-12.733-1.34-2.773-2.565-5.748-4.289-8.314-3.116-4.64-10.611-5.276-12.83.5-.684,1.78-.737,3.775-.923,5.655l-.64,6.467c-.421,4.255-.842,8.511-1.263,12.766l2.4-2.4c-6.938.356-13.966.445-20.86,1.363-8.496,1.131-16.735,3.525-24.523,7.105-4.381,2.014-8.567,4.422-12.522,7.18l3.284.861c-2.459-3.888-4.918-7.775-7.377-11.663l-3.688-5.832c-1.06-1.676-2.098-3.459-3.684-4.696-3.248-2.533-7.337-1.089-9.346,2.23-1.789,2.955-1.257,6.553-1.053,9.83.191,3.068,4.992,3.09,4.8,0Z"/></g></svg>