<svg viewBox="0 0 128 113" width="128" height="113" xmlns="http://www.w3.org/2000/svg">
 <g id="Layer_1">
  <title>Layer 1</title>
  <g stroke="null">

   <g stroke="null" id="svg_5">
    <path stroke="null" fill="#ffffff" d="m67.15318,177.98178l-45.62003,0c-0.95376,0 -1.72627,0.7725 -1.72627,1.72627c0,24.36107 0,40.0908 0,64.45187c0,0.95376 0.7725,1.72627 1.72627,1.72627l93.5127,0c0.95376,0 1.72627,-0.76905 1.72627,-1.72281c0,-22.2369 0,-55.18182 0.00345,-64.46137c0,-0.95376 -0.7725,-1.72022 -1.72627,-1.72022l-47.89612,0z" class="d"/>
    <path stroke="null" fill="#211715" d="m51.38288,177.98609l0,31.57686c0,0.95376 -0.7725,1.72627 -1.72627,1.72627l-11.22073,0c-0.95376,0 -1.72627,-0.7725 -1.72627,-1.72627l0,-31.57686" class="e"/>
    <path stroke="null" fill="#211715" d="m75.62311,177.98609l0,31.57686c0,0.95376 -0.7725,1.72627 -1.72627,1.72627l-11.22073,0c-0.95376,0 -1.72627,-0.7725 -1.72627,-1.72627l0,-31.57686" class="e"/>
    <path stroke="null" fill="#211715" d="m99.86333,177.98609l0,31.57686c0,0.95376 -0.7725,1.72627 -1.72627,1.72627l-11.22073,0c-0.95376,0 -1.72627,-0.7725 -1.72627,-1.72627l0,-31.57686" class="e"/>
    <path stroke="null" fill="#211715" d="m42.14822,213.8579c0,9.99249 0,19.98585 0,29.97834c0,2.44353 3.79779,2.44785 3.79779,0c0,-0.618 0,-1.23514 0,-1.85315c0,-2.44353 -3.79779,-2.44785 -3.79779,0c0,0.618 0,1.23514 0,1.85315l3.79779,0c0,-9.99249 0,-19.98585 0,-29.97834c0,-2.44353 -3.79779,-2.44785 -3.79779,0l0,0z" class="e"/>
    <path stroke="null" fill="#211715" d="m66.39017,213.8579c0,9.99249 0,19.98585 0,29.97834c0,2.44353 3.79779,2.44785 3.79779,0c0,-0.618 0,-1.23514 0,-1.85315c0,-2.44353 -3.79779,-2.44785 -3.79779,0c0,0.618 0,1.23514 0,1.85315l3.79779,0c0,-9.99249 0,-19.98585 0,-29.97834c0,-2.44353 -3.79779,-2.44785 -3.79779,0l0,0z" class="e"/>
    <path stroke="null" fill="#211715" d="m67.15318,176.08288c-8.60544,0 -17.21001,0 -25.81545,0c-5.22541,0 -10.45082,0 -15.67709,0c-1.26449,0 -2.52984,-0.01726 -3.79347,0c-0.76991,0.01036 -1.52084,0.10789 -2.19926,0.5222c-1.11948,0.68274 -1.68484,1.82466 -1.75993,3.10296c-0.09063,1.53033 0,3.09174 0,4.62553c0,10.6174 0,21.2348 0,31.85134c0,5.26339 0,10.52591 0,15.78929c0,2.93379 0,5.86758 0,8.80223c0,2.56523 -0.47386,6.03244 2.70765,6.88608c0.63699,0.1709 1.33009,0.12343 1.98348,0.12343l3.20309,0c3.84353,0 7.68706,0 11.53146,0c11.50297,0 23.00595,0 34.50806,0c10.88842,0 21.77685,0 32.66613,0l8.96795,0c0.51097,0 1.02713,0.02244 1.5381,0c1.79791,-0.07941 3.32824,-1.26017 3.60099,-3.08915c0.31418,-2.10604 0.0561,-4.42442 0.0561,-6.55377c0,-17.35243 0,-34.70485 0.00259,-52.05814c0,-1.37152 0,-2.74217 0,-4.11369c0,-1.35167 0.20974,-2.93465 -0.52133,-4.13182c-1.02454,-1.67879 -2.68607,-1.75561 -4.38299,-1.75561l-12.69841,0c-10.60791,0 -21.21667,0 -31.82458,0l-2.09396,0c-2.44353,0 -2.44785,3.79779 0,3.79779c8.09015,0 16.18116,0 24.2713,0l16.50138,0c1.76856,0 3.53712,0 5.30568,0c0.47041,0 0.94254,-0.01122 1.41209,0c0.09581,0.00259 0.23046,0.02503 0.32281,0c0.18298,-0.0492 0.00863,0.0561 -0.02417,-0.01295c-0.15882,-0.33576 -0.06732,0.16917 -0.06732,0.33921c0,0.23046 0,0.46005 0,0.69051c0,0.58003 0,1.15919 0,1.73921c0,1.36289 0,2.72577 0,4.08866c0,3.50346 -0.00086,7.00691 -0.00086,10.51037c0,8.87214 0,17.74515 -0.00086,26.6173c0,4.55475 0,9.10951 0,13.66512c0,1.02713 0,2.05426 0,3.08139c0,1.05389 -0.13896,2.22861 0,3.27214c0.07078,0.52824 0.02158,0.0397 0.15623,0.1148c-0.03021,-0.01726 -0.11652,0 -0.15019,0c-1.92306,-0.04143 -3.8513,0 -5.77522,0c-9.51777,0 -19.0364,0 -28.55417,0c-11.68682,0 -23.37278,0 -35.0596,0c-7.50235,0 -15.00471,0 -22.50706,0c-0.33317,0 -1.11862,-0.1545 -1.42676,0c-0.10617,0.05265 0.31936,0.01985 0.14932,0.17263c0.20197,-0.18126 0,-1.76252 0,-2.12762c0,-0.83292 0,-1.66498 0,-2.49791c0,-2.7767 0,-5.55253 0,-8.32923c0,-10.11419 0,-20.22839 0,-30.34172c0,-5.373 0,-10.74601 0,-16.11901c0,-1.3931 0,-2.78619 0,-4.17929c0,0.01381 0.04834,-0.81135 0,-0.85623c0.23305,0.21492 -0.23305,0.164 -0.00777,0.10617c-0.53514,0.13724 -0.16141,0.05351 -0.1312,0.06646c0.19162,0.08631 0.62663,0 0.8312,0l11.63762,0c10.34638,0 20.69189,0 31.03826,0l2.07929,0c2.44353,0 2.44785,-3.79779 0,-3.79779l0.00086,-0.00086z" class="e"/>
    <path stroke="null" fill="#211715" d="m90.63126,213.8579c0,9.99249 0,19.98585 0,29.97834c0,2.44353 3.79779,2.44785 3.79779,0c0,-0.618 0,-1.23514 0,-1.85315c0,-2.44353 -3.79779,-2.44785 -3.79779,0c0,0.618 0,1.23514 0,1.85315l3.79779,0c0,-9.99249 0,-19.98585 0,-29.97834c0,-2.44353 -3.79779,-2.44785 -3.79779,0l0,0z" class="e"/>
    <path stroke="null" fill="#211715" d="m49.48398,177.98609l0,14.28313c0,5.619 -0.21492,11.2846 0,16.90015c0.00345,0.08372 -0.04575,0.31245 0,0.38927c-0.12861,-0.21665 0.40999,-0.10703 -0.11307,-0.16745c-1.28003,-0.14846 -2.66449,0 -3.95315,0l-5.18916,0c-0.49112,0 -1.02022,-0.05697 -1.50789,0c-0.52824,0.06128 0.0164,-0.05092 -0.11307,0.16745c0.14587,-0.24599 0,-1.02972 0,-1.30506l0,-13.2957c0,-5.54649 0.12515,-11.10852 0,-16.65415c-0.00259,-0.10617 0,-0.21147 0,-0.31763c0,-2.44353 -3.79779,-2.44785 -3.79779,0l0,26.06576c0,1.81431 -0.08113,3.65019 0,5.46277c0.09667,2.16387 1.66844,3.62171 3.80987,3.67349c1.34908,0.0328 2.7042,0 4.05327,0l5.26856,0c1.47423,0 3.00457,0.13292 4.1767,-0.97534c1.58816,-1.50185 1.16264,-4.1534 1.16264,-6.14292l0,-9.93466c0,-5.93059 0.12602,-11.87671 0,-17.80643c-0.00259,-0.11393 0,-0.22873 0,-0.34266c0,-2.44353 -3.79779,-2.44785 -3.79779,0l0,0l0.00086,0z" class="e"/>
    <path stroke="null" fill="#211715" d="m73.72421,177.98609l0,14.28313c0,5.619 -0.21492,11.2846 0,16.90015c0.00345,0.08372 -0.04575,0.31245 0,0.38927c-0.12861,-0.21665 0.40999,-0.10703 -0.11307,-0.16745c-1.28003,-0.14846 -2.66449,0 -3.95315,0l-5.18916,0c-0.49112,0 -1.02022,-0.05697 -1.50789,0c-0.52824,0.06128 0.0164,-0.05092 -0.11307,0.16745c0.14587,-0.24599 0,-1.02972 0,-1.30506l0,-13.2957c0,-5.54649 0.12515,-11.10852 0,-16.65415c-0.00259,-0.10617 0,-0.21147 0,-0.31763c0,-2.44353 -3.79779,-2.44785 -3.79779,0l0,26.06576c0,1.81431 -0.08113,3.65019 0,5.46277c0.09667,2.16387 1.66844,3.62171 3.80987,3.67349c1.34908,0.0328 2.7042,0 4.05327,0l5.26856,0c1.47423,0 3.00457,0.13292 4.1767,-0.97534c1.58816,-1.50185 1.16264,-4.1534 1.16264,-6.14292l0,-9.93466c0,-5.93059 0.12602,-11.87671 0,-17.80643c-0.00259,-0.11393 0,-0.22873 0,-0.34266c0,-2.44353 -3.79779,-2.44785 -3.79779,0l0,0l0.00086,0z" class="e"/>
    <path stroke="null" fill="#211715" d="m97.96444,177.98609l0,14.28313c0,5.619 -0.21492,11.2846 0,16.90015c0.00345,0.08372 -0.04575,0.31245 0,0.38927c-0.12861,-0.21665 0.40999,-0.10703 -0.11307,-0.16745c-1.28003,-0.14846 -2.66449,0 -3.95315,0l-5.18916,0c-0.49112,0 -1.02022,-0.05697 -1.50789,0c-0.52824,0.06128 0.0164,-0.05092 -0.11307,0.16745c0.14587,-0.24599 0,-1.02972 0,-1.30506l0,-13.2957c0,-5.54649 0.12515,-11.10852 0,-16.65415c-0.00259,-0.10617 0,-0.21147 0,-0.31763c0,-2.44353 -3.79779,-2.44785 -3.79779,0l0,26.06576c0,1.81431 -0.08113,3.65019 0,5.46277c0.09667,2.16387 1.66844,3.62171 3.80987,3.67349c1.34908,0.0328 2.7042,0 4.05327,0l5.26856,0c1.47423,0 3.00457,0.13292 4.1767,-0.97534c1.58816,-1.50185 1.16264,-4.1534 1.16264,-6.14292l0,-9.93466c0,-5.93059 0.12602,-11.87671 0,-17.80643c-0.00259,-0.11393 0,-0.22873 0,-0.34266c0,-2.44353 -3.79779,-2.44785 -3.79779,0l0,0l0.00086,0z" class="e"/>
    <path stroke="null" fill="#211715" d="m-154.17485,211.79501c0.02848,-8.12899 2.20703,-15.9904 6.99138,-22.62099c4.61258,-6.39236 11.39249,-11.5608 18.83184,-14.16833c8.76771,-3.07275 18.72308,-3.33774 27.67205,-0.87004c7.91061,2.18114 14.88732,6.88435 20.16624,13.14206c5.81061,6.8878 8.41296,15.59422 8.44317,24.51729c0.00863,2.66535 4.15167,2.67053 4.14304,0c-0.03021,-8.80482 -2.33219,-17.54232 -7.53601,-24.73135c-5.18743,-7.16659 -12.52579,-12.85378 -20.84984,-15.88251c-9.44527,-3.43613 -20.33196,-3.71665 -30.0189,-1.13157c-8.67449,2.31406 -16.51691,7.41949 -22.29041,14.28658c-6.51752,7.7518 -9.66019,17.37918 -9.69557,27.45885c-0.00949,2.66622 4.13354,2.66967 4.14304,0l0,0z" class="e"/>
    <path stroke="null" fill="#645d5c" d="m-72.55699,213.29169c2.64723,0.00863 5.47917,0.88557 7.20285,1.96104c4.6661,2.91135 7.62664,8.16179 7.62751,14.01297c0,5.90642 -2.95882,11.10162 -7.62405,14.01124c-1.79791,1.12121 -4.80851,2.02923 -7.55155,1.95845" class="g"/>
    <path stroke="null" fill="#211715" d="m-72.55699,215.36321c5.68632,0.10271 10.37054,4.00839 12.05711,9.36586c1.64772,5.23663 0.32022,11.14218 -3.64328,14.99003c-2.37016,2.30198 -5.45586,3.47929 -8.75994,3.44476c-2.66708,-0.02762 -2.66881,4.11542 0,4.14304c7.51962,0.07855 13.83775,-4.94144 16.25021,-11.93023c2.31233,-6.69791 0.51615,-14.53689 -4.56338,-19.49041c-3.06499,-2.98903 -7.06388,-4.59014 -11.34157,-4.66696c-2.66708,-0.04834 -2.66708,4.0947 0,4.14304l0,0l0.00086,0.00086z" class="e"/>
    <path stroke="null" fill="#ffffff" d="m-79.94109,253.41529l0,0c-3.92208,0 -7.13121,-3.20913 -7.13121,-7.13121l0,-34.03852c0,-3.92208 3.20913,-7.13121 7.13121,-7.13121l0,0c3.93071,0 7.11653,3.18237 7.11653,7.11308c0,6.14464 0,27.91977 0,34.07822c0,3.93071 -3.18669,7.10963 -7.11653,7.10963z" class="d"/>
    <path stroke="null" fill="#211715" d="m-79.94109,251.34377c-3.14267,0 -5.05969,-2.63601 -5.05969,-5.55944l0,-6.29828c0,-6.87227 0,-13.74453 0,-20.6168l0,-6.17831c0,-3.0365 2.14661,-5.65438 5.36006,-5.49729c2.0111,0.09753 3.85993,1.50185 4.48052,3.41887c0.46264,1.42935 0.26326,3.1021 0.26326,4.59187c0,4.13527 0,8.27054 0,12.40667c0,4.41493 0,8.82985 0,13.24391c0,1.57435 0,3.14871 0,4.72306c0,1.88422 -0.43933,3.58891 -2.02491,4.77658c-0.8804,0.65943 -1.93255,0.96757 -3.0201,0.99001c-2.6619,0.05524 -2.6714,4.19828 0,4.14304c3.07793,-0.06387 5.88053,-1.52775 7.6301,-4.0714c1.39482,-2.02836 1.55796,-4.3079 1.55796,-6.67979c0,-4.28805 0,-8.57523 0,-12.86327c0,-4.80679 0,-9.61358 0,-14.4195c0,-1.65808 0.00863,-3.31616 0,-4.97424c-0.01467,-2.86474 -1.16178,-5.58533 -3.43009,-7.38928c-4.94489,-3.9333 -12.32727,-1.74698 -14.45316,4.1698c-0.71813,1.99815 -0.50666,4.30962 -0.50666,6.40445l0,21.70089c0,2.66104 0,5.32208 0,7.98312c0,0.80358 0.01036,1.57694 0.12947,2.37966c0.42725,2.86301 2.33132,5.48521 4.93453,6.76783c1.28607,0.63354 2.69988,0.9926 4.13786,0.9926c2.66622,0 2.67053,-4.14304 0,-4.14304l0.00086,-0.00173z" class="e"/>
    <path stroke="null" fill="#645d5c" d="m-153.6915,213.62917c-2.59113,0.00863 -5.36351,0.86659 -7.05007,1.91961c-4.5677,2.85007 -7.46524,7.98916 -7.4661,13.71691c0,5.78213 2.89581,10.86685 7.46265,13.71518c1.75993,1.09791 4.70666,1.98693 7.39187,1.91702" class="g"/>
    <path stroke="null" fill="#211715" d="m-153.6915,211.55765c-3.82195,0.07164 -7.37892,1.36634 -10.29804,3.82454c-2.56609,2.16129 -4.43823,5.13392 -5.44551,8.32147c-2.07238,6.55463 -0.24081,14.12949 4.78521,18.86118c3.06757,2.88804 7.07596,4.446 11.29755,4.40457c2.66449,-0.02589 2.6714,-4.16893 0,-4.14304c-5.49298,0.05351 -10.21,-3.56042 -11.97166,-8.71851c-1.74526,-5.11061 -0.6016,-10.96352 3.22725,-14.83639c2.26313,-2.28989 5.18139,-3.51036 8.40605,-3.57078c2.66277,-0.05006 2.6714,-4.1931 0,-4.14304l0,0l-0.00086,0z" class="e"/>
    <path stroke="null" fill="#ffffff" d="m-146.46362,252.90431l0,0c3.83922,0 6.98016,-3.14094 6.98016,-6.98016l0,-33.31866c0,-3.83922 -3.14094,-6.98016 -6.98016,-6.98016l0,0c-3.84698,0 -6.96635,3.11505 -6.96635,6.96289c0,6.01431 0,27.32938 0,33.3575c0,3.84698 3.1185,6.95858 6.96635,6.95858z" class="d"/>
    <path stroke="null" fill="#211715" d="m-146.46362,254.97583c5.064,0 9.01801,-4.24403 9.05168,-9.21481c0.01381,-2.01455 0,-4.02997 0,-6.04452c0,-7.24773 0,-14.49459 0,-21.74232c0,-1.77892 0.03194,-3.56042 0,-5.33934c-0.10185,-5.66733 -5.19865,-9.90445 -10.79003,-8.90581c-2.81468,0.50234 -5.30136,2.50999 -6.46746,5.10371c-0.89593,1.99384 -0.8312,4.05673 -0.8312,6.18521c0,4.38126 0,8.76339 0,13.14465c0,4.60309 0,9.20618 0,13.80927c0,1.60629 -0.12084,3.27386 0.05697,4.87152c0.32799,2.94587 2.04821,5.6751 4.70925,7.06129c1.33699,0.69655 2.76634,1.04094 4.27165,1.07287c2.66708,0.05697 2.66622,-4.08607 0,-4.14304c-2.00937,-0.04229 -3.84526,-1.2222 -4.57633,-3.12799c-0.53601,-1.39828 -0.3185,-3.0857 -0.3185,-4.55907c0,-4.03256 0,-8.06512 0,-12.09767c0,-4.3312 0,-8.66327 0,-12.99447c0,-1.55537 0,-3.11073 0,-4.6661c0,-1.81431 0.35647,-3.47929 1.87214,-4.66351c3.22725,-2.52035 7.85969,-0.06215 7.93133,3.91086c0.02676,1.46301 0,2.92947 0,4.39248c0,6.64612 0,13.29139 0,19.93751l0,8.04181c0,0.71467 0.03194,1.42503 -0.15105,2.12331c-0.56276,2.1492 -2.52553,3.70284 -4.75759,3.70284c-2.66622,0 -2.67053,4.14304 0,4.14304l-0.00086,-0.00173z" class="e"/>
    <path stroke="null" fill="#ffffff" d="m69.39905,31.86889c-7.21407,7.50581 -30.81212,32.31225 -41.27502,43.33101c-2.2148,2.33219 -2.16905,5.99964 0.10617,8.27313c2.50568,2.50395 5.31172,5.30913 7.81653,7.81394c2.27349,2.27349 5.94008,2.31751 8.2714,0.10358c11.0153,-10.46031 35.82261,-34.05923 43.32928,-41.27416" class="d"/>
    <path stroke="null" fill="#211715" d="m67.93345,30.40415c-6.05488,6.30087 -12.07437,12.63454 -18.10076,18.96303c-7.12257,7.47991 -14.2417,14.96414 -21.35564,22.45268c-1.8471,1.94378 -3.63465,3.7296 -3.98336,6.53046c-0.19766,1.58644 0.11134,3.14785 0.81135,4.57892c0.73453,1.50271 2.08188,2.63083 3.24538,3.79347c1.32146,1.32059 2.64291,2.64205 3.96437,3.96264c1.23169,1.23083 2.42109,2.68175 3.99458,3.48619c2.97608,1.52084 6.5063,1.06338 9.03441,-1.10222c3.38952,-2.90358 6.51924,-6.18176 9.7534,-9.2571c3.95315,-3.75894 7.90544,-7.51875 11.85686,-11.28029c6.82825,-6.50026 13.65908,-12.99792 20.46575,-19.51975c0.49716,-0.47645 0.99433,-0.9529 1.49063,-1.43021c1.92651,-1.85142 -1.00555,-4.7783 -2.92947,-2.92947c-5.9841,5.75106 -12.00014,11.46931 -18.011,17.19361c-7.28484,6.93786 -14.574,13.87141 -21.86661,20.80151c-0.7164,0.68101 -1.43366,1.36202 -2.15006,2.04304c-0.70777,0.67238 -1.38705,1.47855 -2.28299,1.90062c-2.8328,1.33268 -4.77399,-1.18163 -6.56672,-2.97436c-1.27485,-1.27398 -2.54883,-2.54797 -3.82368,-3.82195c-0.94168,-0.94168 -2.18804,-1.85574 -2.67053,-3.13663c-0.84501,-2.24674 0.5783,-3.78052 2.01455,-5.2936c6.69878,-7.05266 13.40273,-14.101 20.11014,-21.1459c6.17831,-6.4899 12.35489,-12.98152 18.55477,-19.45157c0.45746,-0.47731 0.91578,-0.95549 1.37411,-1.43194c1.84797,-1.92306 -1.07805,-4.85685 -2.92947,-2.92947l0,0l0,-0.00173z" class="e"/>
    <path stroke="null" fill="#211715" d="m26.9588,90.84418c-2.48237,2.50999 -4.62553,5.5206 -5.44551,9.00679c-0.6767,2.87682 -0.42984,5.83392 0.37805,8.65636c0.73194,2.55919 4.73083,1.47078 3.99544,-1.10136c-0.16313,-0.57139 -0.309,-1.1471 -0.42294,-1.73058c-0.03107,-0.16054 -0.05869,-0.32281 -0.08718,-0.48422c-0.00691,-0.03798 -0.06473,-0.43243 -0.03453,-0.2106c0.03453,0.25721 -0.02676,-0.26067 -0.03107,-0.309c-0.01208,-0.13033 -0.0233,-0.26067 -0.03194,-0.391c-0.04057,-0.59038 -0.04402,-1.18422 -0.00691,-1.7746c0.05092,-0.81048 0.0397,-0.71122 0.2365,-1.55278c0.32454,-1.38274 0.68705,-2.22343 1.39051,-3.41714c0.82257,-1.39655 1.85228,-2.61184 2.98989,-3.76153c1.87645,-1.89803 -1.0513,-4.82923 -2.92947,-2.92947l0,0l-0.00086,-0.00086z" class="e"/>
    <path stroke="null" fill="#645d5c" d="m94.95815,6.47033c-1.06683,-0.21233 -2.16129,-0.33576 -3.28077,-0.35993c-10.98337,-0.23391 -21.7967,9.28386 -22.86181,20.21803c-0.1709,1.75907 -0.09926,3.52072 0.18989,5.24871c0,0.00086 0,0.00173 0.00173,0.00259c3.68472,3.67608 14.84761,14.82345 18.95527,18.92764c1.72109,0.28656 3.47584,0.36079 5.22282,0.19075c10.93417,-1.06511 20.4528,-11.87844 20.21803,-22.86181c-0.12256,-5.77004 -2.86042,-10.85994 -6.86363,-14.86315c-3.2005,-3.2005 -7.14933,-5.62072 -11.58238,-6.50371l0.00086,0.00086z" class="g"/>
    <path stroke="null" fill="#211715" d="m95.50883,4.47304c-10.28682,-1.93514 -20.76957,3.77103 -25.85429,12.73725c-1.18681,2.0931 -2.10604,4.39594 -2.56955,6.76092c-0.25635,1.30851 -0.41171,2.64809 -0.42984,3.98163c-0.00949,0.67411 0.0164,1.34994 0.07509,2.02146c0.0725,0.82516 0.06042,1.92047 0.48853,2.65154c0.35216,0.6016 1.01504,1.10826 1.50358,1.59593c0.60419,0.60333 1.20839,1.2058 1.81258,1.80913c1.43021,1.42762 2.85956,2.85524 4.28977,4.28287c2.99593,2.99162 5.99273,5.9841 8.98867,8.97658c0.56104,0.56017 1.12207,1.12035 1.68225,1.68052c0.84242,0.84069 1.45179,1.47596 2.71369,1.65117c2.84661,0.39531 5.73638,0.26671 8.52171,-0.46523c9.37104,-2.46338 17.11593,-11.13787 18.49176,-20.73073c1.75389,-12.22628 -7.79495,-24.46723 -19.7131,-26.95392c-2.60148,-0.54291 -3.71406,3.44994 -1.10136,3.99544c8.18509,1.70728 15.63134,9.09052 16.78966,17.48967c1.04439,7.57399 -3.34464,15.28781 -9.54021,19.43258c-3.88928,2.60148 -8.47597,3.8513 -13.14379,3.11936l0.91406,0.53255c-5.42911,-5.42393 -10.85994,-10.84699 -16.29077,-16.26833c-0.53946,-0.5386 -1.07805,-1.07633 -1.61751,-1.61492c-0.20543,-0.20456 -0.41085,-0.40999 -0.61541,-0.61455c-0.07941,-0.07941 -0.22441,-0.28656 -0.32885,-0.32799c0.2926,0.48681 0.40999,0.58175 0.35216,0.28483c-0.02072,-0.17608 -0.03798,-0.3513 -0.05351,-0.52824c-0.227,-2.58077 0.07768,-5.10025 0.92269,-7.54637c1.39655,-4.04119 4.26992,-7.67325 7.7259,-10.16425c4.2915,-3.09433 9.60063,-4.78953 14.88559,-3.79606c1.09877,0.20629 2.23465,-0.30555 2.54797,-1.44661c0.27793,-1.00987 -0.3418,-2.33995 -1.44661,-2.54797l-0.00086,0.00173z" class="e"/>
    <rect stroke="null" fill="#211715" transform="matrix(0.610327 -0.610327 0.610327 0.610327 246.851 69.8778)" ry="2.102" rx="2.102" height="54.625" width="7.164" y="-166.6836" x="84.58699" class="e"/>
    <path stroke="null" fill="#211715" d="m72.44678,16.29451c4.44514,4.44514 8.89027,8.89027 13.33541,13.33541l16.74823,16.74823c0.89593,0.89593 1.78669,1.71418 3.15907,1.80654c1.66757,0.11221 2.76462,-0.85623 3.85389,-1.9455c1.02454,-1.02454 2.06375,-2.01887 2.10604,-3.58718c0.06646,-2.48237 -2.72146,-4.47966 -4.31825,-6.07732c-6.35266,-6.35266 -12.70532,-12.70532 -19.05711,-19.05711l-7.32541,-7.32541c-0.3979,-0.3979 -0.78372,-0.81566 -1.19717,-1.19717c-1.60802,-1.482 -3.88583,-1.4656 -5.49816,-0.00259c-0.618,0.56104 -1.22392,1.17645 -1.79014,1.79014c-1.52084,1.64858 -1.43712,3.84094 -0.0164,5.5111c0.72503,0.85278 2.18373,0.74661 2.92947,0c0.84501,-0.84501 0.72676,-2.07497 0,-2.92947c0.22269,0.26153 -0.17522,0.48163 0.22787,0.13551c0.39273,-0.33749 0.74402,-0.74402 1.10999,-1.10999c0.05697,-0.05697 0.40136,-0.3254 0.40654,-0.40654c0.00949,-0.15623 0.07855,0.0561 -0.11998,0.01381c-0.3746,-0.08027 -0.15191,-0.12343 -0.14587,-0.0397c0.02244,0.31332 1.11776,1.11776 1.32836,1.32836l6.81789,6.81789l18.20434,18.20434l2.91998,2.91998c0.2857,0.2857 0.99606,1.31024 1.40432,1.40432c0.01726,0.00432 0.04575,0.06473 0.06301,0.06301c-0.32195,0.03194 0.34353,-0.59815 -0.22787,-0.13551c-0.39877,0.32281 -0.74747,0.74747 -1.10999,1.10999c-0.08286,0.08286 -0.38582,0.28915 -0.40654,0.40654c-0.02158,0.1217 -0.24599,0.02417 0.11998,-0.01381c0.22355,-0.02244 0.18989,0.13379 -0.00949,-0.11566c-0.18816,-0.23564 -0.44106,-0.44106 -0.65425,-0.65425c-5.228,-5.228 -10.45513,-10.45513 -15.68313,-15.68313c-4.66178,-4.66178 -9.23811,-9.43318 -13.99657,-13.99657c-0.08459,-0.08113 -0.16572,-0.16572 -0.24858,-0.24858c-1.88767,-1.88767 -4.81801,1.04094 -2.92947,2.92947l0,0.00086z" class="e"/>
    <path stroke="null" fill="#ffda71" d="m-104.01474,39.77001c-5.9608,-5.9608 -14.49373,-7.55587 -22.14454,-3.973c-4.03428,1.8894 -7.48854,4.83872 -10.52418,8.05907c-2.77756,2.94674 -5.1132,6.67116 -8.99989,8.27486c-4.22763,1.74439 -8.86092,2.02232 -12.99015,4.08089c-4.28459,2.13539 -8.15488,5.26943 -10.87634,9.23121c-3.78225,5.50593 -4.50987,12.34539 -3.29976,18.89312c1.45438,7.87177 5.83478,13.89472 12.25994,20.3216c6.42775,6.42516 12.45069,10.80643 20.3216,12.26081c6.54686,1.20925 13.38719,0.48249 18.89312,-3.29976c3.96178,-2.72146 7.09495,-6.59175 9.23121,-10.87634c2.05857,-4.13009 2.3365,-8.76253 4.08089,-12.99015c1.6037,-3.88669 5.32812,-6.22233 8.27486,-8.99989c3.22121,-3.03564 6.17054,-6.4899 8.05907,-10.52418c3.58287,-7.65167 1.9878,-16.18461 -3.973,-22.14454" class="f"/>
    <path stroke="null" fill="#ffffff" d="m-145.9466,83.04404c-0.07337,-0.07337 -0.14673,-0.14673 -0.21924,-0.21924c8.09101,-8.09101 16.18202,-16.18202 24.27303,-24.27303c2.57386,-2.57386 5.14859,-5.14859 7.72245,-7.72245c11.44514,-11.44514 22.88943,-22.88943 34.33112,-34.33802c1.94982,1.94895 5.47658,5.47572 7.41518,7.41345c-11.44601,11.44342 -22.89115,22.88856 -34.3363,34.33371c-2.57386,2.57386 -5.14859,5.14859 -7.72245,7.72245c-8.09101,8.09101 -16.18202,16.18202 -24.26958,24.27562c-2.22084,-2.22084 -4.94403,-4.94403 -7.19335,-7.19335l-0.00086,0.00086z" class="d"/>
    <path stroke="null" fill="#211715" d="m-102.55,38.30527c-5.84945,-5.75623 -14.42382,-8.0375 -22.25761,-5.28496c-4.14304,1.45611 -7.79237,4.04205 -10.98251,7.019c-2.90444,2.71024 -5.14082,6.13947 -8.20063,8.66845c-3.21517,2.65672 -7.83466,2.95968 -11.69545,4.13441c-4.137,1.25931 -7.92442,3.53712 -11.14218,6.41222s-5.77609,6.47781 -7.2132,10.57511c-1.41899,4.04378 -1.69778,8.48287 -1.16091,12.71481c0.51011,4.01875 1.67707,7.84933 3.59581,11.42529c1.93946,3.61653 4.54698,6.86277 7.33404,9.85784c5.56635,5.98065 11.99669,11.68337 19.92025,14.20458c7.98484,2.54106 17.49743,2.07238 24.45429,-2.92947c3.48792,-2.5074 6.3751,-5.75623 8.54156,-9.46339c2.28989,-3.91776 3.07189,-8.17042 4.30962,-12.46882c0.5455,-1.89285 1.21011,-3.7201 2.51085,-5.23577c1.24032,-1.44488 2.70506,-2.66794 4.15081,-3.89877c3.273,-2.78706 6.29224,-5.91419 8.64255,-9.53158c4.53145,-6.97584 5.37128,-15.71334 1.19285,-23.07068c-0.99951,-1.75993 -2.26831,-3.37485 -3.68644,-4.81542c-1.873,-1.90321 -4.80247,1.02713 -2.92947,2.92947c5.0079,5.08817 6.69101,12.53873 3.85562,19.18227c-1.55019,3.63206 -4.10075,6.76869 -6.88003,9.52985c-2.6222,2.60494 -5.74933,4.70666 -8.00729,7.66376c-2.48841,3.26005 -3.12713,7.40741 -4.15858,11.27511c-1.00728,3.77793 -2.75512,7.24773 -5.29618,10.23762c-2.44094,2.87164 -5.46536,5.33071 -9.04218,6.62023c-3.65623,1.318 -7.58003,1.58126 -11.42184,1.11517c-7.38151,-0.89507 -13.52357,-4.90864 -18.84737,-9.88633c-5.3825,-5.03207 -10.72184,-10.80384 -13.00483,-17.96611s-1.8799,-15.53812 2.82331,-21.68622c2.28126,-2.98299 5.29446,-5.36696 8.58386,-7.14674c3.63983,-1.96967 7.75439,-2.44526 11.64712,-3.70629c1.82639,-0.59125 3.52935,-1.34649 5.05969,-2.51344s2.82503,-2.55574 4.07485,-4.01184c2.49877,-2.91307 5.0804,-5.77522 8.21357,-8.02973c2.99421,-2.15524 6.42257,-3.86166 10.14699,-4.18188c3.41283,-0.29347 6.82393,0.40308 9.82073,2.07238c1.52602,0.85019 2.87682,1.8963 4.11973,3.12023c1.90235,1.87214 4.83355,-1.05561 2.92947,-2.92947l0,0l-0.00086,-0.00086z" class="e"/>
    <path stroke="null" fill="#211715" d="m-131.92069,75.98621c-2.36412,-2.36498 -3.72356,-5.682 -3.40333,-8.97658c0.54118,-5.55512 6.03503,-10.39126 11.61518,-10.27215c2.9312,0.06215 5.53355,1.46992 7.55155,3.48706c2.03354,2.03354 3.42491,4.61949 3.48706,7.55155c0.11911,5.58016 -4.71702,11.074 -10.27215,11.61518c-3.29458,0.32109 -6.64181,-1.06856 -8.97831,-3.40506z" class="e"/>
    <path stroke="null" fill="#211715" d="m-130.45595,74.52147c-2.73354,-2.81295 -3.75722,-6.96548 -1.78323,-10.49829c1.74784,-3.12799 5.228,-5.42134 8.88078,-5.19951c3.84181,0.23305 7.44452,3.65192 8.38361,7.29088c0.90284,3.5 -0.92355,7.20975 -3.6873,9.35464c-3.68558,2.86042 -8.51912,2.23293 -11.79299,-0.94772c-1.91357,-1.85919 -4.84649,1.0677 -2.92947,2.92947c4.12232,4.00494 10.23331,5.29618 15.38621,2.50654c4.49606,-2.43404 7.83725,-7.67412 7.3608,-12.87795c-0.51097,-5.5767 -5.00445,-10.75464 -10.46894,-12.07178c-5.31604,-1.28089 -10.73133,1.34131 -13.87141,5.63194c-3.85216,5.26339 -2.84661,12.24182 1.59334,16.81124c1.86091,1.91529 4.78953,-1.01504 2.92947,-2.92947l-0.00086,0z" class="e"/>
    <path stroke="null" fill="#211715" d="m-72.09866,20.64643c-18.14651,18.14651 -36.29216,36.29216 -54.43867,54.43867c-5.14255,5.14255 -10.28596,10.28596 -15.4285,15.4285c-1.88767,1.88767 1.04094,4.81801 2.92947,2.92947c18.12838,-18.12838 36.2559,-36.2559 54.38429,-54.38429c5.16067,-5.16067 10.32221,-10.32221 15.48288,-15.48288c1.88767,-1.88767 -1.04094,-4.81801 -2.92947,-2.92947l0,0z" class="e"/>
    <path stroke="null" fill="#211715" d="m-75.80323,16.94186c-18.14651,18.14651 -36.29216,36.29216 -54.43867,54.43867c-5.14255,5.14255 -10.28596,10.28596 -15.4285,15.4285c-1.88767,1.88767 1.04094,4.81801 2.92947,2.92947c18.12838,-18.12838 36.2559,-36.2559 54.38429,-54.38429c5.16067,-5.16067 10.32221,-10.32221 15.48288,-15.48288c1.88767,-1.88767 -1.04094,-4.81801 -2.92947,-2.92947l0,0z" class="e"/>
    <path stroke="null" fill="#211715" d="m-79.5078,13.2373c-18.14651,18.14651 -36.29216,36.29216 -54.43867,54.43867l-15.4285,15.4285c-1.88767,1.88767 1.04094,4.81801 2.92947,2.92947c18.12838,-18.12838 36.2559,-36.2559 54.38429,-54.38429c5.16067,-5.16067 10.32221,-10.32221 15.48288,-15.48288c1.88767,-1.88767 -1.04094,-4.81801 -2.92947,-2.92947l0,0z" class="e"/>
    <path stroke="null" fill="#ffffff" d="m-64.27177,-3.39183s11.39595,11.39595 11.72394,11.72394c-4.08262,3.84957 -12.41617,11.35365 -18.52542,16.92345c-0.42984,-0.42984 -9.4539,-9.4539 -10.11678,-10.11419c0.75006,-0.82257 14.00002,-15.42419 16.91741,-18.53319l0.00086,0z" class="d"/>
    <path stroke="null" fill="#211715" d="m-64.45735,-0.64706c1.6037,1.6037 3.2074,3.2074 4.8111,4.8111c0.7984,0.7984 1.5968,1.5968 2.39433,2.39433c0.38323,0.38323 0.76646,0.76646 1.14969,1.14969c0.16917,0.16917 0.33749,0.33749 0.50666,0.50666c0.2434,0.2434 0.21665,0.43675 0.21233,0.10617c-0.00432,-0.35561 0.21924,-0.2693 -0.1476,-0.03625c-0.1381,0.08804 -0.29519,0.27361 -0.40826,0.37805c-0.43588,0.40308 -0.87263,0.80617 -1.30937,1.20839c-0.97534,0.8968 -1.95327,1.791 -2.93206,2.68434c-2.17596,1.98521 -4.35796,3.96523 -6.5391,5.9444c-1.00382,0.91061 -2.00765,1.82207 -3.01061,2.73354c-0.20629,0.1873 -1.41554,1.0418 -1.40259,1.29729c0.00173,0.0397 0.35388,-0.06905 0.34612,0.08372c0.00604,-0.11911 -0.58175,-0.58175 -0.67411,-0.67411c-1.66671,-1.66671 -3.33428,-3.33428 -5.00099,-5.00099c-0.4074,-0.4074 -0.81566,-0.81566 -1.22306,-1.22306c-0.17953,-0.17953 -0.35993,-0.35993 -0.53946,-0.53946l-0.16658,-0.16658c-0.18385,-0.21147 -0.20802,-0.21492 -0.07337,-0.00863c0.17349,0.04402 -0.28829,0.52133 0.19938,-0.00518c0.31591,-0.34007 0.62491,-0.68705 0.9365,-1.03058c1.41899,-1.56141 2.83798,-3.12282 4.25784,-4.68336c1.74008,-1.9127 3.48102,-3.82368 5.22454,-5.73293c0.77509,-0.84846 1.55019,-1.69606 2.32614,-2.54279c0.35561,-0.38755 0.71122,-0.77596 1.0677,-1.16264c0.04143,-0.04488 0.41776,-0.39186 0.40654,-0.44192c0.01554,0.06732 -0.30037,0.04661 -0.41517,-0.05092c0.85278,0.72244 2.09223,0.83724 2.92947,0c0.74143,-0.74143 0.85709,-2.20272 0,-2.92947c-1.38792,-1.17645 -3.22208,-1.51307 -4.81024,-0.47041c-0.97275,0.63872 -1.74612,1.72972 -2.52639,2.58163c-1.84279,2.01196 -3.68126,4.02824 -5.51887,6.04625c-1.75561,1.92738 -3.50864,3.85562 -5.26252,5.78472c-0.68792,0.75697 -1.41295,1.49322 -2.05253,2.29076c-1.20839,1.50444 -1.14797,3.55783 0.12084,5.01049c1.84969,2.11727 4.00839,4.02652 5.99705,6.01431c0.96153,0.96153 1.95586,2.27953 3.26955,2.74304c1.92479,0.67842 3.34378,-0.28742 4.71357,-1.53379c4.93626,-4.48916 9.90014,-8.94983 14.79324,-13.48645c1.45524,-1.34908 2.11554,-3.37744 0.95721,-5.16844c-0.78286,-1.21098 -2.08792,-2.21739 -3.10296,-3.23157c-2.19322,-2.19322 -4.38644,-4.38644 -6.5788,-6.5788c-1.88767,-1.88767 -4.81801,1.04094 -2.92947,2.92947l0.00432,0z" class="e"/>
    <path stroke="null" fill="#ffffff" d="m-136.18543,96.01521l-2.14057,2.14057c-0.88644,0.88644 -2.32442,0.88644 -3.21085,0l-12.55082,-12.55082c-0.88644,-0.88644 -0.88644,-2.32442 0,-3.21085l2.14057,-2.14057c0.88644,-0.88644 2.3201,-0.89075 3.20654,-0.00432c3.02442,3.02442 9.51432,9.51432 12.55772,12.55772c0.88644,0.88644 0.88385,2.32183 -0.00259,3.20827z" class="d"/>
    <path stroke="null" fill="#211715" d="m-137.65103,94.55047l-1.37497,1.37497c-0.227,0.227 -0.44365,0.47731 -0.68705,0.68705c-0.01381,0.01208 -0.09322,0.10185 -0.06042,0.07078c0.06128,-0.05869 -0.19679,0.11307 -0.18903,0.10962c0.25376,-0.10099 0.02589,0.04488 -0.08631,-0.04661c0.22614,0.18298 -0.082,-0.12084 -0.21924,-0.25031c-0.2926,-0.27707 -0.57053,-0.57053 -0.85536,-0.85536l-6.85155,-6.85155c-1.54932,-1.54932 -3.12972,-3.07189 -4.6497,-4.6497c0.06473,0.06732 -0.15105,-0.33403 -0.05697,-0.06991c0.00604,0.01813 0.05956,-0.30382 -0.04488,-0.04143c0.06991,-0.17522 0.20197,-0.27016 0.391,-0.45919c0.55931,-0.55931 1.10654,-1.13416 1.67966,-1.67966c0.164,-0.15623 0.21147,-0.22096 0.31332,-0.25203c-0.27189,0.08459 0.26584,0.082 -0.00691,-0.00259c0.10185,0.03194 0.1709,0.11566 0.32281,0.26067c0.76819,0.7328 1.50358,1.50358 2.2545,2.2545c2.04217,2.04217 4.08435,4.08435 6.12652,6.12652c0.95721,0.95721 1.91357,1.91357 2.87078,2.87078c0.3746,0.3746 0.75697,0.74316 1.12466,1.12466c-0.08459,-0.08804 0.21492,0.31418 0.05438,0.0233c0.14587,0.26498 -0.04402,0.29605 0.00259,0.14069c0.06215,-0.20629 -0.16486,0.23305 -0.05869,0.1148c-0.74747,0.83206 -0.82084,2.10863 0,2.92947c0.75956,0.75956 2.17941,0.83551 2.92947,0c1.33958,-1.49149 1.68829,-3.57078 0.63354,-5.33675c-0.63958,-1.07115 -1.79532,-1.96449 -2.6714,-2.84057c-2.11899,-2.11899 -4.23712,-4.23712 -6.35611,-6.35611c-0.96585,-0.96585 -1.93083,-1.93083 -2.89667,-2.89667c-1.01073,-1.01073 -1.96363,-2.13625 -3.43527,-2.4349c-2.6455,-0.53687 -4.33034,1.48373 -5.96943,3.17806c-1.83675,1.89717 -1.79359,4.58065 0.04229,6.45537c0.88126,0.89938 1.78151,1.78151 2.6714,2.6714l8.16955,8.16955c1.02195,1.02195 2.02232,2.26572 3.47497,2.655c2.81813,0.75524 4.58669,-1.51394 6.33712,-3.26437c1.88767,-1.88767 -1.04094,-4.81801 -2.92947,-2.92947l0.00086,0z" class="e"/>
   </g>
  </g>
 </g>

</svg>