<svg id="b" xmlns="http://www.w3.org/2000/svg" width="341.858" height="288.777" viewBox="0 0 341.858 288.777" style="color: initial !important;"><defs><style>.d{fill:#ffda71;}.d,.e,.f,.g{stroke-width:0px;}.e{fill:#ffffff;}.f{fill:#f8b8b4;}.g{fill:#211715;}</style></defs><g id="c"><path class="e" d="M269.942,266.196h57.071v-72.354c0-2.943-2.386-5.329-5.329-5.329h-103.484c-2.943,0-5.329,2.386-5.329,5.329v72.354h57.071Z"/><path class="g" d="M215.271,267.413v-19.893c0-12.034,0-24.069,0-36.103v-13.27c0-1.82-.569-5.143.975-6.491,1.29-1.125,3.66-.744,5.26-.744h10.452c11.122,0,22.243,0,33.365,0,11.909,0,23.819,0,35.728,0h20.041c1.038,0,2.037.123,2.776.975.746.859.744,1.816.744,2.862v72.663c0,3.089,4.8,3.094,4.8,0v-20.343c0-12.206,0-24.412,0-36.618v-13.027c0-3.4.271-6.867-2.627-9.379-2.398-2.079-5.145-1.933-8.037-1.933h-10.299c-11.297,0-22.593,0-33.89,0-12.045,0-24.09,0-36.136,0-6.603,0-13.207-.03-19.81,0-4.776.022-8.145,3.55-8.145,8.282v73.018c0,3.089,4.8,3.094,4.8,0h0Z"/><path class="e" d="M269.942,278.408h-57.574c-4.856,0-9.555-2.379-11.504-6.236-.581-1.149-.196-2.429-.401-3.817-.167-1.13.655-2.159,1.797-2.159h67.681s67.681,0,67.681,0c1.142,0,1.964,1.029,1.797,2.159-.205,1.388.18,2.668-.401,3.817-1.949,3.857-6.648,6.236-11.504,6.236h-57.574"/><path class="g" d="M269.942,276.008h-56.015c-1.057,0-2.152.05-3.199-.089-2.206-.291-4.468-1.187-6.104-2.723-.559-.525-1.32-1.268-1.592-2.011-.186-.508-.097-1.082-.101-1.611-.002-.27-.006-.536-.022-.806-.034-.248-.056-.498-.066-.748l-.075.298c-.7.308-.56.25-.121.278.393.025.797,0,1.191,0h4.622c11.568,0,23.136,0,34.705,0,8.783,0,17.566,0,26.349,0,6.091,0,12.181,0,18.272,0,12.294,0,24.588,0,36.883,0h11.46c.39,0,.801.037,1.189,0,.037-.004.222.027.246,0-.105.114-.599-.569-.522-.576-.121.012-.086,2.872-.221,3.204-.381.936-1.313,1.824-2.085,2.435-1.603,1.27-3.675,2.031-5.694,2.272-2.712.323-5.579.078-8.299.078h-50.8c-3.089,0-3.094,4.8,0,4.8h25.797c10.328,0,20.656,0,30.985,0,2.368,0,4.729-.263,6.948-1.142,2.371-.939,4.542-2.339,6.139-4.353.796-1.004,1.544-2.113,1.798-3.39.257-1.294.301-2.913.199-4.226-.367-4.694-5.678-3.901-8.946-3.901-11.638,0-23.276,0-34.914,0-9.192,0-18.384,0-27.576,0-6.39,0-12.78,0-19.17,0-12.584,0-25.167,0-37.751,0h-10.455c-.234,0-.47-.01-.704,0-2.376.097-4.311,1.95-4.238,4.391.038,1.265-.048,2.681.252,3.917.328,1.354,1.207,2.562,2.092,3.608,1.688,1.996,4.059,3.371,6.508,4.21,3.473,1.19,7.327.885,10.948.885h52.088c3.089,0,3.094-4.8,0-4.8h0Z"/><path class="g" d="M260.057,266.196c.099,2.679,2.022,4.574,4.699,4.644.911.024,1.826,0,2.738,0,2.492,0,4.985.016,7.477,0,2.735-.018,4.754-1.883,4.855-4.644.046-1.256-1.137-2.457-2.4-2.4-1.34.06-2.35,1.054-2.4,2.4-.018.501.045-.319-.032.141.004-.026.191-.38.056-.156-.138.229.1-.113.116-.126-.044.037-.265.232-.021.045.338-.259-.32.126.069-.041.283-.121-.002-.015-.06,0,.194-.051.351-.015.056-.019-.135-.002-.27,0-.406,0h-9.445c-.225,0-.451-.003-.676,0-.088.001-.359-.069-.083.006.295.08.007-.029-.051-.037.261.122.315.141.162.056-.112-.07-.104-.058.026.035.244.187.023-.008-.021-.045.114.095.256.291.071.049.02.026.141.404.075.142-.083-.33.017.591-.007-.05-.046-1.253-1.071-2.46-2.4-2.4-1.261.056-2.45,1.056-2.4,2.4h0Z"/><path class="f" d="M242.281,219.585v18.821c0,3.089,4.8,3.094,4.8,0v-18.821c0-3.089-4.8-3.094-4.8,0h0Z"/><path class="f" d="M255.306,226.601v11.804h4.8c0-.119,0-.239,0-.358,0-1.255-1.104-2.458-2.4-2.4s-2.4,1.055-2.4,2.4c0,.119,0,.239,0,.358,0,1.255,1.104,2.458,2.4,2.4s2.4-1.055,2.4-2.4v-11.804c0-1.255-1.104-2.458-2.4-2.4s-2.4,1.055-2.4,2.4h0Z"/><path class="f" d="M267.805,205.357v33.049c0,3.089,4.8,3.094,4.8,0v-.42c0-3.089-4.8-3.094-4.8,0v.42c0,3.089,4.8,3.094,4.8,0v-33.049c0-3.089-4.8-3.094-4.8,0h0Z"/><path class="f" d="M280.567,219.585v18.821c0,3.089,4.8,3.094,4.8,0v-18.821c0-3.089-4.8-3.094-4.8,0h0Z"/><path class="f" d="M292.934,210.773v27.633c0,3.089,4.8,3.094,4.8,0v-27.633c0-3.089-4.8-3.094-4.8,0h0Z"/><path class="g" d="M241.918,250.015c18.682,0,37.365,0,56.047,0,3.089,0,3.094-4.8,0-4.8-18.682,0-37.365,0-56.047,0-3.089,0-3.094,4.8,0,4.8h0Z"/><path class="d" d="M79.671,268.997c1.456-1.359,3.2-2.461,5.083-3.247,2.149-.898,3.585-2.952,3.585-5.282v-18.151c0-4.813,3.431-8.948,8.158-9.83,6.301-1.173,15.228-2.62,20.944-3.527v-27.193c0-1.055-.855-1.911-1.911-1.911h-59.478c-.623,0-1.208-.304-1.565-.815l-6.211-8.871c-.358-.511-.942-.815-1.565-.815H4.352c-1.055,0-1.911.855-1.911,1.911v84.385c0,1.055.855,1.911,1.911,1.911h70.369c.679-3.177,2.397-6.187,4.95-8.566Z"/><path class="g" d="M119.842,228.961v-24.796c0-.735.021-1.474,0-2.209-.073-2.492-1.768-4.385-4.311-4.498-3.069-.137-6.175,0-9.247,0-6.789,0-13.578,0-20.368,0h-27.212c-.258,0-2.502-.225-2.651,0,.12-.182.818.819.182-.089l-1.078-1.54-3.156-4.508c-.55-.786-1.085-1.587-1.653-2.361-.989-1.347-2.303-1.967-3.956-2.003-4.859-.108-9.732,0-14.591,0H11.018c-1.998,0-3.997,0-5.995,0-2.683,0-4.885,1.545-4.981,4.428-.094,2.805,0,5.63,0,8.436,0,5.961,0,11.922,0,17.883,0,14.066,0,28.132,0,42.199v13.36c0,.783-.031,1.572,0,2.355.112,2.799,2.306,4.346,4.912,4.346h32.089c11.881,0,23.763,0,35.644,0h2.034c3.089,0,3.094-4.8,0-4.8h-26.167c-12.879,0-25.759,0-38.638,0h-4.585c-.153,0-.777-.099-.905,0-.115.089.657.409.415.489.01-.003-.006-.107,0-.117.101-.18,0-.705,0-.909v-80.197c0-.865.231-2.104,0-2.945-.168-.613-.206.72-.465.272.048.084,1.027,0,1.117,0h16.44c6.572,0,13.143,0,19.715,0h3.117c.522,0,1.204.119,1.715,0,.039-.009.206.028.228,0-.312.407-.491-.617-.452-.298.017.137.265.379.343.489l2.495,3.563c1.712,2.444,3.614,6.574,6.96,6.746.86.044,1.734,0,2.595,0,5.261,0,10.523,0,15.784,0h40.057c.137,0,.875.102.981,0-.27.26-.378-.996-.431-.074-.049.863,0,1.743,0,2.606v24.171c0,3.089,4.8,3.094,4.8,0h0Z"/><path class="d" d="M102.439,239.549c-1.589.277-3.101.548-4.473.804-.947.176-1.626,1.002-1.626,1.965,0,0,0,4.601,0,9.797,9.669-1.89,19.37-3.544,29.12-4.927,0-3.549,0-6.907,0-9.052,0-1.227-1.09-2.162-2.302-1.973-4.199.652-13.292,2.09-20.719,3.387Z"/><path class="d" d="M84.439,285.016c-3.352-2.964-2.197-7.478.687-10.167,2.686-2.505,7.704-3.519,10.225-1.065,3.005,2.925,2.113,7.011-1.101,9.988-2.765,2.56-7.019,3.698-9.811,1.245Z"/><path class="d" d="M116.642,281.441c-3.352-2.964-2.197-7.478.687-10.167,2.686-2.505,7.704-3.519,10.225-1.065,3.005,2.925,2.113,7.011-1.101,9.988-2.765,2.56-7.019,3.698-9.811,1.245Z"/><path class="g" d="M98.739,266.593c0-7.313,0-14.626,0-21.939,0-.633-.175-1.779.01-2.314-.176.509-.292.203.168.269.313.045.833-.153,1.134-.208.862-.156,1.725-.31,2.588-.461,1.796-.315,3.594-.622,5.393-.923,3.561-.597,7.125-1.175,10.691-1.743,1.398-.222,2.797-.443,4.196-.661.172-.027.617-.103.616-.089-.003.059-.379-.102-.372-.098-.172-.087.037-.402-.104-.182-.058.09,0,.331,0,.444,0,.325,0,.649,0,.974,0,6.895,0,13.791,0,20.686,0,3.089,4.8,3.094,4.8,0,0-6.675,0-13.35,0-20.025,0-1.674.165-3.407-.901-4.822-1.387-1.842-3.366-1.819-5.433-1.496-3.346.523-6.691,1.057-10.033,1.602-3.963.647-7.924,1.308-11.876,2.016-2.001.359-4.057.608-5.138,2.587-.426.78-.53,1.634-.539,2.502-.042,4.039,0,8.08,0,12.119,0,3.921,0,7.842,0,11.763,0,3.089,4.8,3.094,4.8,0h0Z"/><path class="g" d="M124.824,244.872c-9.728,1.384-19.415,3.035-29.06,4.91-1.273.247-2.001,1.771-1.676,2.952.366,1.33,1.676,1.924,2.952,1.676,9.645-1.875,19.332-3.526,29.06-4.91,1.284-.183,1.988-1.817,1.676-2.952-.379-1.381-1.664-1.86-2.952-1.676h0Z"/><path class="g" d="M86.137,283.319c-.128-.116-.255-.234-.376-.358-.071-.073-.244-.348-.335-.371.01.002.27.381.127.167-.058-.088-.122-.172-.179-.26-.098-.151-.19-.306-.273-.466-.035-.067-.064-.138-.101-.204-.122-.219.099.216.093.23.025-.057-.124-.349-.145-.419-.042-.14-.079-.282-.11-.425-.015-.07-.021-.146-.042-.214-.079-.265.039.62.019.135-.012-.291-.029-.577-.012-.869.004-.071.018-.147.017-.218-.007-.249-.04.27-.043.276.061-.144.06-.35.095-.505.071-.314.162-.623.273-.925.026-.07.055-.14.081-.21.089-.245-.099.232-.094.227.1-.13.157-.329.235-.476.144-.27.302-.533.474-.786.051-.075.358-.479.128-.195-.232.287.183-.214.256-.295.206-.231.423-.452.652-.661.109-.1.229-.19.337-.291.185-.174-.19.144-.19.144.086-.044.166-.121.246-.177.274-.19.559-.364.851-.523.137-.074.275-.146.415-.213.07-.034.141-.066.212-.1.291-.139-.026.035-.141.057.295-.056.597-.223.888-.31.349-.104.703-.189,1.061-.253.076-.014.153-.024.229-.038.267-.049-.267.034-.257.035.145.011.309-.03.456-.038.348-.02.698-.018,1.046.009.073.006.146.018.219.021.256.011-.278-.037-.277-.037.089.061.315.059.423.085.138.033.275.07.411.113.099.031.615.225.238.077-.384-.151.131.082.21.128.076.044.269.223.35.224-.012,0-.377-.332-.21-.164.048.049.107.091.158.137.143.131.278.271.409.414.059.065.42.47.191.216-.221-.246.087.147.138.23.098.158.179.324.27.486.194.348-.15-.441.024.068.099.288.158.58.221.877.054.252-.04-.264-.037-.267-.02.027.015.187.016.224.003.201.011.399,0,.6-.005.095-.057.609-.01.208.047-.398-.031.112-.054.209-.067.293-.296.685-.301.975,0-.006.203-.439.085-.202-.036.073-.068.148-.104.222-.085.174-.176.344-.273.512-.047.082-.6.939-.613.928-.011-.009.29-.347.103-.139-.059.066-.114.138-.172.205-.118.137-.24.272-.365.403-.287.301-.59.588-.908.856-.065.054-.132.106-.197.161-.249.209.354-.245.082-.068-.165.107-.323.227-.489.333-.354.227-.721.432-1.1.613-.055.027-.186.061-.227.105.076-.083.429-.166.114-.051-.18.066-.36.132-.543.19-.362.114-.729.182-1.098.266-.259.059.236-.042.245-.029-.019-.028-.355.032-.393.034-.182.011-.364.015-.547.011-.112-.002-.685-.067-.298-.003.394.066-.184-.037-.287-.061-.175-.04-.348-.089-.518-.147-.065-.022-.15-.07-.218-.078.425.048.309.139.077.021-.164-.083-.324-.174-.479-.274-.067-.043-.131-.093-.199-.135-.261-.163.45.373.036.02-.954-.814-2.47-1.007-3.394,0-.822.896-1.02,2.524,0,3.394,1.597,1.363,3.549,2.137,5.67,2.058,1.97-.073,3.925-.73,5.58-1.792,3.469-2.223,6.096-6.117,5.474-10.36-.267-1.822-1.308-3.64-2.732-4.812-1.525-1.255-3.4-1.851-5.373-1.831-3.826.039-7.4,2.011-9.578,5.12-1.135,1.62-1.837,3.686-1.787,5.674.057,2.279,1.059,4.412,2.746,5.941.93.843,2.488.987,3.394,0,.844-.919.994-2.494,0-3.394Z"/><path class="g" d="M118.339,279.744c-.128-.116-.255-.234-.376-.358-.071-.073-.244-.348-.335-.371.01.002.27.381.127.167-.058-.088-.122-.172-.179-.26-.098-.151-.19-.306-.273-.466-.035-.067-.064-.138-.101-.204-.122-.219.099.216.093.23.025-.057-.124-.349-.145-.419-.042-.14-.079-.282-.11-.425-.015-.07-.021-.146-.042-.214-.079-.265.039.62.019.135-.012-.291-.029-.577-.012-.869.004-.071.018-.147.017-.218-.007-.249-.04.27-.043.276.061-.144.06-.35.095-.505.071-.314.162-.623.273-.925.026-.07.055-.14.081-.21.089-.245-.099.232-.094.227.1-.13.157-.329.235-.476.144-.27.302-.533.474-.786.051-.075.358-.479.128-.195-.232.287.183-.214.256-.295.206-.231.423-.452.652-.661.109-.1.229-.19.337-.291.185-.174-.19.144-.19.144.086-.044.166-.121.246-.177.274-.19.559-.364.851-.523.137-.074.275-.146.415-.213.07-.034.141-.066.212-.1.291-.139-.026.035-.141.057.295-.056.597-.223.888-.31.349-.104.703-.189,1.061-.253.076-.014.153-.024.229-.038.267-.049-.267.034-.257.035.145.011.309-.03.456-.038.348-.02.698-.018,1.046.009.073.006.146.018.219.021.256.011-.278-.037-.277-.037.089.061.315.059.423.085.138.033.275.07.411.113.099.031.615.225.238.077-.384-.151.131.082.21.128.076.044.269.223.35.224-.012,0-.377-.332-.21-.164.048.049.107.091.158.137.143.131.278.271.409.414.059.065.42.47.191.216-.221-.246.087.147.138.23.098.158.179.324.27.486.194.348-.15-.441.024.068.099.288.158.58.221.877.054.252-.04-.264-.037-.267-.02.027.015.187.016.224.003.201.011.399,0,.6-.005.095-.057.609-.01.208.047-.398-.031.112-.054.209-.067.293-.296.685-.301.975,0-.006.203-.439.085-.202-.036.073-.068.148-.104.222-.085.174-.176.344-.273.512-.047.082-.6.939-.613.928-.011-.009.29-.347.103-.139-.059.066-.114.138-.172.205-.118.137-.24.272-.365.403-.287.301-.59.588-.908.856-.065.054-.132.106-.197.161-.249.209.354-.245.082-.068-.165.107-.323.227-.489.333-.354.227-.721.432-1.1.613-.055.027-.186.061-.227.105.076-.083.429-.166.114-.051-.18.066-.36.132-.543.19-.362.114-.729.182-1.098.266-.259.059.236-.042.245-.029-.019-.028-.355.032-.393.034-.182.011-.364.015-.547.011-.112-.002-.685-.067-.298-.003.394.066-.184-.037-.287-.061-.175-.04-.348-.089-.518-.147-.065-.022-.15-.07-.218-.078.425.048.309.139.077.021-.164-.083-.324-.174-.479-.274-.067-.043-.131-.093-.199-.135-.261-.163.45.373.036.02-.954-.814-2.47-1.007-3.394,0-.822.896-1.02,2.524,0,3.394,1.597,1.363,3.549,2.137,5.67,2.058,1.97-.073,3.925-.73,5.58-1.792,3.469-2.223,6.096-6.117,5.474-10.36-.267-1.822-1.308-3.64-2.732-4.812-1.525-1.255-3.4-1.851-5.373-1.831-3.826.039-7.4,2.011-9.578,5.12-1.135,1.62-1.837,3.686-1.787,5.674.057,2.279,1.059,4.412,2.746,5.941.93.843,2.488.987,3.394,0,.844-.919.994-2.494,0-3.394Z"/><path class="e" d="M229.37,33.609c-3.125,3.998-4.9,9.046-4.9,14.433,0,1.139.088,2.238.214,3.316-13.497.515-22.742,11.171-22.742,23.594,0,14.249,9.922,24.062,23.766,24.062h81.79c18.418,0,30.444-12.688,30.444-30.824,0-13.912-8.974-25.959-22.618-29.322-.343-17.618-13.88-32.326-33.2-32.326-14.058,0-25.005,7.795-30.094,18.753-1.379-.237-2.803-.383-4.286-.383-7.817,0-14.263,3.439-18.373,8.696Z"/><path class="d" d="M270.471,35.582c-1.774.31-3.463.612-4.995.898-1.058.197-1.816,1.119-1.816,2.195,0,0,0,5.138,0,10.939,10.797-2.111,21.629-3.958,32.517-5.502,0-3.963,0-7.712,0-10.108,0-1.37-1.217-2.414-2.571-2.204-4.689.728-14.842,2.334-23.136,3.782Z"/><path class="d" d="M250.372,86.354c-3.744-3.31-2.453-8.351.767-11.353,2.999-2.797,8.603-3.93,11.418-1.189,3.355,3.266,2.36,7.829-1.23,11.153-3.088,2.859-7.838,4.13-10.956,1.39Z"/><path class="d" d="M286.331,82.362c-3.744-3.31-2.453-8.351.767-11.353,2.999-2.797,8.603-3.93,11.418-1.189,3.355,3.266,2.36,7.829-1.23,11.153-3.088,2.859-7.838,4.13-10.956,1.39Z"/><path class="g" d="M266.06,65.782c0-8.18,0-16.359,0-24.539,0-.791-.046-1.856.007-2.538-.011.136,1.014-.414-.261.169.176-.081.44-.102.62-.138.428-.087.861-.158,1.291-.237.975-.177,1.95-.35,2.926-.521,2.039-.358,4.08-.705,6.122-1.048,3.966-.665,7.935-1.308,11.906-1.94,1.491-.237,2.983-.472,4.475-.705.297-.046.595-.095.893-.139-.065.01-.388-.008-.299-.158-.13.218.038,1.328.038,1.663,0,7.718,0,15.437,0,23.155,0,3.089,4.8,3.094,4.8,0,0-7.453,0-14.905,0-22.358,0-1.879.21-3.824-1.071-5.374-1.577-1.909-3.673-1.724-5.876-1.38-3.745.586-7.488,1.183-11.228,1.795-4.379.716-8.756,1.447-13.124,2.231-2.165.389-4.371.653-5.498,2.832-.428.827-.514,1.706-.52,2.612-.03,4.52,0,9.042,0,13.563,0,4.352,0,8.703,0,13.055,0,3.089,4.8,3.094,4.8,0h0Z"/><path class="g" d="M295.542,41.797c-10.863,1.545-21.68,3.389-32.45,5.483-1.273.248-2.001,1.771-1.676,2.952.366,1.33,1.676,1.925,2.952,1.676,10.77-2.094,21.588-3.938,32.45-5.483,1.284-.183,1.988-1.817,1.676-2.952-.379-1.381-1.664-1.86-2.952-1.676h0Z"/><path class="g" d="M252.069,84.657c-.11-.1-.828-.671-.794-.814.001-.005.255.362.098.13-.066-.098-.136-.192-.2-.291-.109-.169-.212-.342-.305-.521-.039-.075-.072-.154-.112-.227-.136-.247.087.198.076.19-.081-.058-.133-.371-.162-.468-.047-.156-.088-.315-.123-.474-.017-.078-.024-.163-.047-.239-.083-.285.036.599.012.076-.015-.325-.032-.645-.013-.97.005-.08.02-.164.019-.243-.006-.286-.014.257-.038.233-.047-.045.09-.493.106-.564.079-.35.181-.696.305-1.033.029-.079.061-.156.09-.234.092-.251-.07.182-.077.186.098-.059.205-.423.263-.531.161-.302.338-.595.529-.878.048-.071.355-.514.165-.246-.193.272.027-.031.081-.095.074-.089.149-.176.226-.262.23-.258.473-.505.728-.738.122-.111.256-.211.376-.325.186-.177-.134.115-.155.117.072-.008.213-.154.275-.197.306-.212.624-.406.951-.584.153-.083.307-.162.464-.238.079-.038.158-.074.237-.112.348-.165-.046.067-.091.035.075.052.866-.308.992-.346.389-.116.785-.211,1.185-.282.085-.015.171-.027.255-.042.272-.049-.205.031-.213.029.124.04.375-.035.509-.043.389-.022.779-.02,1.168.01.081.006.163.02.245.023.275.013-.239-.015-.235-.031.003-.011.433.085.472.095.154.037.308.079.459.126.075.024.149.051.223.076.049.017.098.035.147.055.121.048.097.037-.071-.03-.009.029-.253-.136-.004.009.089.052.183.096.273.147.034.02.398.237.391.25-.011.02-.365-.325-.178-.139.054.054.12.101.177.153.16.146.311.302.456.462.065.071.396.506.236.27-.165-.243.132.212.176.285.109.177.201.361.301.542.028.051.153.327.021.03-.136-.307.012.049.034.113.11.322.178.647.247.979.057.276-.043-.229-.032-.224.016.007.017.227.018.25.004.224.012.445,0,.67-.006.113-.105.605-.016.27.094-.353-.044.178-.065.27-.022.097-.281,1.101-.336,1.089-.009-.002.194-.415.067-.158-.04.082-.076.166-.116.247-.095.194-.197.385-.305.572-.208.36-.442.7-.685,1.037.244-.339-.004-.005-.121.131-.132.153-.268.304-.408.45-.32.337-.658.657-1.014.956-.072.061-.147.119-.219.179-.262.219.322-.216.035-.032-.185.118-.36.254-.546.372-.395.253-.805.482-1.228.685-.046.022-.204.126-.253.118.105.018.382-.147.061-.028-.201.074-.401.148-.606.212-.405.127-.814.205-1.226.297-.279.063.199-.023.199-.023-.119.051-.312.03-.438.038-.203.012-.407.017-.61.012-.115-.003-.714.011-.37-.008.293-.016.081.015-.022-.005-.112-.022-.225-.042-.336-.068-.195-.045-.388-.1-.578-.164-.029-.01-.222-.099-.243-.087.279.123.338.147.175.072-.053-.024-.105-.049-.157-.076-.183-.093-.362-.195-.535-.306-.075-.048-.146-.104-.222-.151-.281-.174.431.36-.016-.021-.954-.814-2.47-1.007-3.394,0-.822.896-1.02,2.524,0,3.394,1.727,1.474,3.842,2.301,6.133,2.217,2.151-.079,4.283-.804,6.09-1.962,3.757-2.408,6.656-6.647,5.983-11.252-.291-1.993-1.42-3.97-2.978-5.25-1.645-1.352-3.677-1.984-5.802-1.962-4.168.042-8.08,2.189-10.453,5.578-1.241,1.772-2.012,4.02-1.957,6.195.062,2.473,1.154,4.778,2.984,6.436.93.843,2.488.987,3.394,0,.844-.919.994-2.494,0-3.394Z"/><path class="g" d="M288.028,80.665c-.11-.1-.828-.671-.794-.814.001-.005.255.362.098.13-.066-.098-.136-.192-.2-.291-.109-.169-.212-.342-.305-.521-.039-.075-.072-.154-.112-.227-.136-.247.087.198.076.19-.081-.058-.133-.371-.162-.468-.047-.156-.088-.315-.123-.474-.017-.078-.024-.163-.047-.239-.083-.285.036.599.012.076-.015-.325-.032-.645-.013-.97.005-.08.02-.164.019-.243-.006-.286-.014.257-.038.233-.047-.045.09-.493.106-.564.079-.35.181-.696.305-1.033.029-.079.061-.156.09-.234.092-.251-.07.182-.077.186.098-.059.205-.423.263-.531.161-.302.338-.595.529-.878.048-.071.355-.514.165-.246-.193.272.027-.031.081-.095.074-.089.149-.176.226-.262.23-.258.473-.505.728-.738.122-.111.256-.211.376-.325.186-.177-.134.115-.155.117.072-.008.213-.154.275-.197.306-.212.624-.406.951-.584.153-.083.307-.162.464-.238.079-.038.158-.074.237-.112.348-.165-.046.067-.091.035.075.052.866-.308.992-.346.389-.116.785-.211,1.185-.282.085-.015.171-.027.255-.042.272-.049-.205.031-.213.029.124.04.375-.035.509-.043.389-.022.779-.02,1.168.01.081.006.163.02.245.023.275.013-.239-.015-.235-.031.003-.011.433.085.472.095.154.037.308.079.459.126.075.024.149.051.223.076.049.017.098.035.147.055.121.048.097.037-.071-.03-.009.029-.253-.136-.004.009.089.052.183.096.273.147.034.02.398.237.391.25-.011.02-.365-.325-.178-.139.054.054.12.101.177.153.16.146.311.302.456.462.065.071.396.506.236.27-.165-.243.132.212.176.285.109.177.201.361.301.542.028.051.153.327.021.03-.136-.307.012.049.034.113.11.322.178.647.247.979.057.276-.043-.229-.032-.224.016.007.017.227.018.25.004.224.012.445,0,.67-.006.113-.105.605-.016.27.094-.353-.044.178-.065.27-.022.097-.281,1.101-.336,1.089-.009-.002.194-.415.067-.158-.04.082-.076.166-.116.247-.095.194-.197.385-.305.572-.208.36-.442.7-.685,1.037.244-.339-.004-.005-.121.131-.132.153-.268.304-.408.45-.32.337-.658.657-1.014.956-.072.061-.147.119-.219.179-.262.219.322-.216.035-.032-.185.118-.36.254-.546.372-.395.253-.805.482-1.228.685-.046.022-.204.126-.253.118.105.018.382-.147.061-.028-.201.074-.401.148-.606.212-.405.127-.814.205-1.226.297-.279.063.199-.023.199-.023-.119.051-.312.03-.438.038-.203.012-.407.017-.61.012-.115-.003-.714.011-.37-.008.293-.016.081.015-.022-.005-.112-.022-.225-.042-.336-.068-.195-.045-.388-.1-.578-.164-.029-.01-.222-.099-.243-.087.279.123.338.147.175.072-.053-.024-.105-.049-.157-.076-.183-.093-.362-.195-.535-.306-.075-.048-.146-.104-.222-.151-.281-.174.431.36-.016-.021-.954-.814-2.47-1.007-3.394,0-.822.896-1.02,2.524,0,3.394,1.727,1.474,3.842,2.301,6.133,2.217,2.151-.079,4.283-.804,6.09-1.962,3.757-2.408,6.656-6.647,5.983-11.252-.291-1.993-1.42-3.97-2.978-5.25-1.645-1.352-3.677-1.984-5.802-1.962-4.168.042-8.08,2.189-10.453,5.578-1.241,1.772-2.012,4.02-1.957,6.195.062,2.473,1.154,4.778,2.984,6.436.93.843,2.488.987,3.394,0,.844-.919.994-2.494,0-3.394Z"/><path class="g" d="M227.298,32.398c-4.149,5.405-5.761,12.24-5.014,18.961l2.4-2.4c-9.348.421-18.04,5.484-22.285,13.963-4.081,8.151-3.803,18.473.859,26.344,4.559,7.697,12.946,11.927,21.76,12.142,3.278.08,6.565.008,9.844.008,17.478,0,34.955,0,52.433,0,4.812,0,9.624,0,14.436,0,4.629,0,9.239.127,13.799-.822,8.33-1.734,15.727-6.759,20.095-14.1,4.578-7.694,5.846-17.538,3.788-26.211-2.147-9.047-8.277-17.02-16.62-21.189-2.179-1.089-4.472-1.942-6.833-2.538l1.762,2.314c-.292-12.02-6.431-23.402-16.807-29.659-11.038-6.655-25.775-6.767-36.947-.366-6.095,3.492-11.024,8.891-14.012,15.24l2.71-1.103c-9.325-1.532-19.001,1.387-24.994,8.931-.806,1.014-.99,2.404,0,3.394.836.836,2.584,1.02,3.394,0,4.883-6.146,12.584-8.968,20.324-7.696.981.161,2.232-.087,2.71-1.103,4.887-10.384,14.984-17.053,26.458-17.532,10.75-.449,21.306,4.244,27.283,13.366,3.229,4.928,4.938,10.647,5.081,16.528.025,1.038.726,2.052,1.762,2.314,8.247,2.084,15.022,7.7,18.492,15.487,3.301,7.41,3.11,16.459.061,23.921-2.719,6.655-8.197,11.896-15.01,14.274-3.874,1.352-7.813,1.749-11.893,1.749h-79.449c-5.316,0-10.556-1.059-14.781-4.387-6.032-4.752-8.648-12.911-7.556-20.432,1.12-7.718,6.465-14.444,13.921-16.906,2.022-.668,4.09-1.036,6.214-1.131,1.186-.053,2.549-1.061,2.4-2.4-.669-6.02.643-11.698,4.358-16.538.79-1.029.159-2.687-.861-3.284-1.237-.724-2.492-.171-3.284.861Z"/><path class="e" d="M95.918,87.806v8.534c0,3.743-3.04,6.783-6.783,6.783h-46.442c-3.743,0-6.772-3.04-6.772-6.783v-8.534h59.997Z"/><path class="e" d="M95.918,17.756v70.05h-59.997V17.756h59.997Z"/><path class="e" d="M95.918,9.212v8.544h-59.997v-8.544c0-3.743,3.03-6.772,6.772-6.772h46.442c3.743,0,6.783,3.03,6.783,6.772Z"/><path class="g" d="M95.918,15.351c-15.432,0-30.863,0-46.295,0-4.568,0-9.137,0-13.705,0-3.089,0-3.094,4.8,0,4.8,17.996,0,35.992,0,53.988,0,2.004,0,4.008,0,6.012,0,3.089,0,3.094-4.8,0-4.8h0Z"/><path class="g" d="M35.918,90.209c15.779,0,31.558,0,47.338,0,4.221,0,8.441,0,12.662,0,3.089,0,3.094-4.8,0-4.8-15.967,0-31.935,0-47.902,0-4.032,0-8.065,0-12.097,0-3.089,0-3.094,4.8,0,4.8h0Z"/><path class="g" d="M89.138,100.722h-45.039c-1.654,0-3.215,0-4.498-1.283-1.087-1.087-1.283-2.432-1.283-3.871,0-8.882,0-17.765,0-26.647,0-13.34,0-26.68,0-40.019V10.397c0-.976-.061-1.948.326-2.875.87-2.085,2.83-2.687,4.875-2.687h24.27c5.852,0,11.703,0,17.555,0,1.235,0,2.473-.022,3.708,0,2.509.045,4.418,1.923,4.466,4.44.144,7.553,0,15.122,0,22.676,0,13.436,0,26.872,0,40.307,0,7.961.063,15.925,0,23.886-.02,2.515-1.814,4.512-4.38,4.577-3.083.078-3.095,4.878,0,4.8,5.088-.129,9.074-4.108,9.18-9.203.014-.68,0-1.363,0-2.043V11.159c0-.642.013-1.286,0-1.929-.102-5.083-4.101-9.082-9.182-9.195-3.573-.079-7.156,0-10.729,0-11.653,0-23.306,0-34.96,0-3.049,0-5.918.966-7.88,3.426-1.495,1.875-2.05,4.076-2.05,6.426v82.475c0,3.685-.262,7.235,2.464,10.235,3.371,3.709,8.772,2.924,13.282,2.924,12.344,0,24.689,0,37.033,0h2.84c3.089,0,3.094-4.8,0-4.8Z"/><path class="f" d="M56.521,75.696c-3.368-2.977-2.207-7.512.69-10.213,2.698-2.516,7.739-3.535,10.271-1.07,3.018,2.938,2.123,7.043-1.106,10.033-2.778,2.572-7.051,3.715-9.855,1.25Z"/><path class="g" d="M64.703,30.191c1.415,1.324,2.916,2.558,4.5,3.675,1.41.993,3.069,1.749,4.288,2.979.124.125.244.253.357.387.268.32-.134-.209.098.134.216.319.414.655.575,1.006-.124-.27.063.178.092.265.055.164.104.33.148.497.044.168.083.338.117.508.019.098.075.582.047.275.161,1.75.015,3.482-.459,5.158-.842,2.977,3.788,4.248,4.629,1.276,1.1-3.89,1.147-8.633-1.418-11.966-1.298-1.687-3.111-2.742-4.877-3.874-1.692-1.085-3.236-2.341-4.703-3.713-.946-.885-2.456-.938-3.394,0-.895.895-.95,2.505,0,3.394h0Z"/><path class="g" d="M58.218,73.999c-.129-.117-.256-.235-.378-.36-.068-.07-.249-.354-.336-.373.01.002.27.38.126.166-.059-.088-.122-.173-.18-.262-.098-.152-.19-.308-.274-.468-.035-.067-.064-.139-.101-.205-.123-.219.1.214.093.228.025-.05-.126-.356-.145-.421-.042-.141-.079-.283-.11-.427-.015-.07-.021-.147-.042-.215-.079-.266.039.62.019.133-.012-.292-.029-.58-.012-.873.004-.071.019-.147.017-.219-.007-.249-.04.268-.043.274.062-.143.06-.353.095-.507.071-.315.163-.626.274-.929.026-.071.055-.14.081-.211.089-.245-.098.23-.094.225.101-.13.158-.331.236-.478.145-.272.304-.535.476-.79.051-.075.359-.48.13-.197-.231.285.185-.216.258-.297.207-.232.425-.454.655-.664.11-.1.23-.191.338-.292.185-.174-.188.143-.189.143.086-.044.167-.122.247-.178.275-.191.561-.365.855-.525.137-.075.276-.146.417-.214.071-.034.142-.067.213-.1.291-.139-.023.035-.139.056.296-.055.601-.224.892-.311.35-.104.706-.189,1.066-.254.076-.014.153-.024.23-.038.267-.049-.264.034-.255.035.145.011.311-.03.458-.038.35-.02.701-.018,1.05.009.073.006.147.018.22.021.256.011-.275-.036-.276-.037.086.061.318.06.425.085.139.033.277.071.413.114.099.031.616.226.24.078-.383-.15.133.083.213.129.074.043.273.226.352.225-.012,0-.376-.331-.209-.163.049.049.108.091.159.138.144.131.28.272.411.416.072.08.355.494.193.218-.17-.29.094.157.14.232.098.159.18.325.271.488.194.348-.149-.438.025.07.099.29.158.582.222.881.054.252-.04-.262-.037-.265-.019.025.016.19.016.225.003.202.011.401,0,.603-.005.095-.057.61-.01.211.046-.397-.032.115-.054.211-.067.291-.302.693-.302.98,0-.007.202-.437.085-.2-.036.073-.068.149-.104.223-.085.175-.177.346-.274.514-.05.086-.566.957-.616.933-.012-.006.29-.348.102-.137-.06.067-.114.139-.173.206-.119.138-.241.273-.367.405-.288.303-.592.591-.912.86-.065.055-.132.107-.197.161-.25.209.353-.244.08-.067-.166.108-.324.228-.491.335-.355.228-.724.434-1.105.616-.054.026-.189.062-.228.106.072-.083.429-.166.112-.05-.181.066-.361.133-.545.191-.364.115-.732.182-1.103.267-.26.06.235-.043.243-.029-.011-.021-.363.032-.394.034-.183.011-.366.015-.549.011-.112-.002-.687-.068-.301-.003.392.066-.187-.038-.29-.062-.176-.041-.349-.09-.52-.147-.065-.022-.151-.071-.219-.078.418.043.31.139.075.02-.165-.084-.326-.175-.481-.275-.068-.044-.132-.093-.2-.136-.262-.164.449.372.034.019-.954-.814-2.47-1.007-3.394,0-.822.896-1.02,2.524,0,3.394,1.602,1.367,3.56,2.143,5.687,2.065,1.977-.073,3.938-.733,5.6-1.798,3.48-2.231,6.117-6.137,5.493-10.394-.268-1.829-1.312-3.653-2.741-4.829-1.53-1.259-3.411-1.856-5.389-1.836-3.839.039-7.426,2.017-9.611,5.137-1.139,1.626-1.844,3.699-1.794,5.694.057,2.286,1.062,4.427,2.755,5.96.93.843,2.488.987,3.394,0,.844-.919.994-2.494,0-3.394Z"/><path class="g" d="M64,28.494v28.84c0,3.089,4.8,3.094,4.8,0v-28.84c0-3.089-4.8-3.094-4.8,0h0Z"/></g></svg>