<svg id="b" xmlns="http://www.w3.org/2000/svg" width="245.388" height="197.891" viewBox="0 0 245.388 197.891" style="color: initial !important;"><defs><style>.d{fill:#a98a75;}.e{fill:#211715;}.f{fill:#e5dcd5;}.g{fill:#876e5e;}.h{fill:#4d4544;}</style></defs><g id="c"><path class="d" d="M91.181,11.282l.14,2.13c-2.68.08-5.34.17-7.97.25.19-1.52.11-3.11-.57-4.48-.73-1.46-1.89-2.59-3.28-3.38,2.02-1.8,4.16-1.86,5.89-1.69,2.44.24,4.65,2.06,5.35,4.41l.44,2.76Z"/><path class="d" d="M152.661,10.442l.14,1.12c-3.19.09-6.46.19-9.77.28.07-1,.14-2.01.21-3.04.12-1.67-.49-3.23-1.57-4.37.97-.59,2-.87,2.46-.95,1.62-.25,3.14-.13,4.53.46,1.78.76,2.87,2.45,3.53,4.14l.47,2.36Z"/><path class="d" d="M80.375,40.692c-.003.819-.018,1.638-.013,2.459.07,13.26,1.89,26.49,5.07,39.35l1.53-.37c2.76.41,6.92.66,11.09.76-3.099-14.341-5.103-28.919-6.047-43.56-3.905.456-7.789.91-11.63,1.361Z"/><path class="d" d="M142.461,37.424c-.052-1.313-.088-2.635-.108-3.97,3.757-.444,7.428-.88,10.982-1.305,1.211,13.974,4.148,27.792,8.795,41.03-.845,1.028-2.292,2.965-2.292,2.965,0,0-9.321.239-9.518.245l-1.849-4.408c-3.836-12.401-5.555-23.155-6.01-34.557Z"/><path class="e" d="M150.791,30.642c.715,7.149,1.548,14.24,2.986,21.288,1.472,7.217,3.427,14.328,5.83,21.29,1.002,2.903,5.64,1.655,4.629-1.276-2.351-6.813-4.274-13.767-5.734-20.825-1.404-6.784-2.221-13.592-2.91-20.477-.129-1.29-1.011-2.4-2.4-2.4-1.198,0-2.53,1.102-2.4,2.4h0Z"/><path class="e" d="M89.401,36.532c.695,7.649,1.159,15.285,2.169,22.908,1.072,8.083,2.451,16.119,4.166,24.091.65,3.018,5.278,1.741,4.629-1.276-1.659-7.707-3.033-15.479-4.058-23.296-.979-7.462-1.425-14.939-2.106-22.426-.117-1.291-1.019-2.4-2.4-2.4-1.207,0-2.518,1.102-2.4,2.4h0Z"/><path class="e" d="M81.198,7.499c.218-.181.226-.194.021-.039.111-.083.224-.162.34-.239.166-.109.337-.211.511-.305.214-.115.459-.287.108-.075.189-.115.465-.168.678-.226.166-.045.336-.074.503-.117.49-.124-.527.039.103-.017.343-.03.687-.038,1.032-.029.177.005.354.015.53.027.074.005.148.011.221.018.248.025.194.016-.162-.03.323.13.713.149,1.048.267.584.206-.309-.18.117.049.148.079.295.153.44.239.168.1.325.214.488.321.143.104.091.064-.155-.121.086.071.17.144.252.219.123.113.242.23.357.351.076.081.15.164.222.249.165.202.142.171-.067-.092.217.09.401.655.516.854.111.238.098.199-.038-.117.041.103.079.208.114.314.018.061.04.122.054.184.03.133.043.272.065.407l.371,2.329c.198,1.244,1.814,2.045,2.952,1.676,1.35-.437,1.889-1.62,1.676-2.952-.139-.87-.247-1.751-.417-2.615-.373-1.894-1.779-3.553-3.279-4.68-1.623-1.22-3.608-1.708-5.617-1.7-2.416.01-4.562.882-6.379,2.456-.952.825-.908,2.56,0,3.394,1.015.931,2.378.88,3.394,0h0Z"/><path class="e" d="M142.883,6.504c.197-.116.395-.226.601-.325.084-.041.169-.081.254-.118-.272.113-.326.139-.165.076.302-.093.594-.207.902-.28.039-.009.286-.077.293-.062-.269.033-.314.04-.135.02.099-.011.199-.021.299-.028.389-.031.78-.038,1.169-.019.078.004.79.105.437.032-.359-.074.257.061.327.077.213.05.423.109.63.178l.177.062c.257.099.235.088-.068-.035,0,.019.781.491.859.51-.267-.21-.3-.232-.102-.067l.122.11c.14.13.273.267.401.41.064.072.35.514.176.201-.186-.335.149.236.187.296.176.277.335.565.48.859.068.138.124.313.206.443-.253-.4-.09-.327-.056-.12.017.102.041.203.061.305l.408,2.049c.246,1.234,1.781,2.055,2.952,1.676,1.311-.424,1.939-1.631,1.676-2.952-.15-.751-.259-1.523-.451-2.264-.395-1.528-1.457-3.161-2.587-4.24-3.025-2.887-7.976-2.999-11.477-.94-1.082.636-1.565,2.192-.861,3.284s2.125,1.542,3.284.861h0Z"/><path class="g" d="M199.811,25.977c8.023-1.493,15.914-3.048,23.453-4.623-7.881-5.636-16.939-9.409-26.381-10.951-43.982,1.042-168.578,4.692-184.952,6.126l-1.801.158c-2.598,5.461-4.863,11.099-6.776,16.862-.747,2.252-1.442,4.734-.694,6.94,0,0,1.779,5.246,3.33,9.819,28.9-5.254,169.753-19.852,193.822-24.33Z"/><path class="e" d="M200.449,28.292c7.834-1.459,15.653-2.995,23.453-4.623,2.198-.459,2.119-3.289.573-4.387-5.404-3.837-11.372-6.852-17.669-8.921-1.515-.498-3.05-.938-4.599-1.317-1.712-.419-3.56-.954-5.324-1.041-1.348-.067-2.736.065-4.085.099-6.777.166-13.555.343-20.332.525-17.467.469-34.933.969-52.399,1.492-18.244.547-36.486,1.118-54.728,1.74-13.887.474-27.776.951-41.657,1.595-3.68.171-7.364.33-11.037.616-.252.02-.503.041-.754.062-.587.05-1.176.088-1.761.154-1.348.152-1.932.881-2.48,2.052-1.506,3.219-2.9,6.494-4.182,9.809-1.271,3.287-2.793,6.751-3.336,10.251-.361,2.323.06,4.275.79,6.429.918,2.706,1.836,5.412,2.753,8.119.445,1.312,1.609,1.92,2.952,1.676,3.803-.69,7.63-1.246,11.455-1.788,1.253-.178,2.507-.352,3.761-.524.633-.087,1.267-.173,1.901-.259.125-.017,1.146-.154.535-.072.399-.053.798-.107,1.197-.16,2.924-.389,5.85-.769,8.777-1.142,14.488-1.849,28.991-3.57,43.496-5.276,16.201-1.906,32.406-3.777,48.609-5.669,14.504-1.693,29.008-3.392,43.499-5.193,9.576-1.19,19.183-2.315,28.702-3.915.631-.106,1.261-.216,1.89-.333,1.275-.237,1.999-1.779,1.676-2.952-.368-1.339-1.673-1.913-2.952-1.676-3.376.626-6.779,1.106-10.178,1.583-1.16.163-2.321.322-3.482.479-.135.018-1.115.15-.418.057-.3.04-.6.08-.9.12-.68.091-1.361.181-2.041.27-2.772.364-5.545.719-8.319,1.069-14.1,1.777-28.215,3.436-42.331,5.089-16.182,1.894-32.367,3.763-48.549,5.659-14.854,1.741-29.706,3.495-44.545,5.361-10.29,1.294-20.605,2.549-30.836,4.257-.742.124-1.483.252-2.223.386l2.952,1.676c-.887-2.616-1.775-5.233-2.662-7.849-.617-1.819-1.124-3.279-.668-5.25.737-3.192,2.025-6.323,3.209-9.37,1.225-3.15,2.572-6.248,4.019-9.302l-2.072,1.189c7.919-.694,15.876-.953,23.816-1.275,13.848-.562,27.7-1.036,41.553-1.494,16.522-.547,33.046-1.058,49.57-1.548,15.456-.459,30.912-.9,46.369-1.316,6.219-.167,12.439-.331,18.658-.486,2.761-.069,5.669-.387,8.288.138,5.641,1.13,11.108,3.046,16.202,5.72,2.592,1.361,5.08,2.906,7.466,4.6l.573-4.387c-7.8,1.628-15.619,3.164-23.453,4.623-1.275.238-1.999,1.778-1.676,2.952.368,1.338,1.674,1.914,2.952,1.676Z"/><path class="d" d="M35.427,107.566c.828-13.738,3.376-27.34,7.086-40.582,3.146-11.231,7.131-22.219,11.715-32.94,2.273-5.317,4.695-10.569,7.245-15.759,2.057-4.185,3.919-9.81,8.03-12.426,4.308-2.741,11.154-1.289,13.377,3.541.578,1.255.711,2.677.508,4.044-.754,5.067-2.096,9.909-2.549,15.034-.432,4.877-.5,9.777-.476,14.67.047,9.367.971,18.721,2.627,27.943.66,3.674,1.437,7.328,2.32,10.952l1.654.089c6.056.892,18.854,1.034,23.672.58l1.248.036c3.899-33.243,5.157-45.356,9.713-68.824,1.424-7.347,8.326-12.394,15.751-11.396.395.048.79.116,1.176.185,2.892.555,4.93,3.154,4.719,6.086-1.708,24.381-1.575,41.201,5.226,63.178l1.849,4.413,9.521-.244s1.879-2.517,2.618-3.34c13.701-15.271,39.094-13.366,55.121-3.712,18.773,11.309,28.109,32.461,24.735,54.167-3.314,21.316-18.764,37.56-39.563,42.868-.259.066-.657.172-1.125.298-2.902.781-5.626,2.144-8.025,3.99-6.23,4.794-12.875,9.128-19.815,12.718-36.096,18.675-83.762,17.078-114.824-10.611-17.473-15.575-25.166-41.916-23.505-65.116"/><path class="f" d="M220.225,100.004c-2.744-2.898-5.113-6.124-7.057-9.609-2.735-4.903-5.835-9.835-10.242-13.027-4.918-3.562-11.077-5.224-17.119-4.93-10.177.495-19.953,6.801-24.425,15.984-4.412,9.058-2.9,18.491,1.221,27.304,2.194,4.688,4.841,9.195,7.869,13.422,3.127,4.154,6.635,8.029,10.451,11.525,7.176,6.569,15.723,10.835,25.687,9.336,10.1-1.52,19.043-8.96,22.561-18.522,2.089-5.677,2.346-12.052.419-17.81-1.727-5.16-5.505-9.594-9.365-13.671Z"/><path class="h" d="M214.925,128.562c-.283-.819-.605-1.622-.973-2.41-1.833-3.924-5.391-8.019-10.297-7.122-6.772,1.23-6.568,9.621-7.223,14.831-.083.693-.182,1.378-.3,2.065-.565,3.218-2.436,7.592-4.213,10.325l-.064.149-.579,1.345c4.677,2.143,9.786,3.095,15.333,2.261,3.58-.539,7.015-1.821,10.114-3.679.164-7.02-.057-12.718-1.799-17.766Z"/><path class="h" d="M184.38,85.098c-3.81-2.873-8.541-4.884-14.338-6.947-3.646,2.686-6.675,6.194-8.66,10.27-2.064,4.237-2.831,8.557-2.642,12.856.986-.057,1.57-.09,1.57-.09l.361-.021c3.183-.704,7.935-.921,11.147-.32.685.13,1.36.277,2.039.444,5.113,1.223,12.894,4.352,16.423-1.557,2.562-4.279-.023-9.048-3.054-12.142-.885-.903-1.833-1.729-2.846-2.493Z"/><path class="e" d="M196.974,113.226c-.182-1.044-.625-2.133-1.217-3.01-.092-.136-.191-.265-.297-.384-1.32-1.686-3.273-3.148-5.498-3.037-1.624.081-3.026.861-3.917,2.224-.776,1.185-.922,2.616-.667,3.981.183.98.705,1.879,1.241,2.706.545.839,1.162,1.728,1.936,2.377,1.054.885,2.369,1.505,3.777,1.438,1.6-.076,2.97-.794,3.898-2.102.864-1.217.994-2.764.745-4.193Z"/><path class="e" d="M192.297,124.659c-.371-.224-.739-.453-1.098-.695-.146-.098-.289-.2-.432-.302-.156-.11-.364-.277-.097-.065-.604-.481-1.168-1.009-1.679-1.588-.145-.165-.288-.333-.423-.506.281.359-.16-.235-.17-.25-.232-.335-.45-.68-.655-1.031-.501-.857-.932-1.763-1.302-2.67-.54-1.324-1.722-2.226-2.633-3.308-.583-.693-1.104-1.423-1.596-2.25-.226-.379-.437-.766-.629-1.164-.045-.092-.303-.693-.118-.236-.066-.162-.127-.325-.185-.49-.12-.34-.226-.685-.312-1.036-.044-.179-.08-.359-.117-.54-.031-.153-.096-.713-.017-.053-.153-1.287-.993-2.4-2.4-2.4-1.178,0-2.555,1.104-2.4,2.4.535,4.483,3.193,8.152,6.336,11.26l-.617-1.059c.927,2.342,2.006,4.537,3.632,6.477,1.245,1.485,2.84,2.653,4.49,3.649,2.651,1.6,5.067-2.549,2.423-4.145h0Z"/><path class="e" d="M186.08,96.679c-.984,1.35-4.128,3.257-6.218.939-2.412-3.321,1.026-6.122,3.521-6.243,2.043-.099,4.584,2.161,2.698,5.304Z"/><path class="e" d="M205.038,124.036c-1.607.446-4.492,2.718-3.058,5.485,2.26,3.419,6.084,1.187,7.072-1.104.809-1.875-.414-5.044-4.014-4.382Z"/><path class="e" d="M221.922,98.307c-2.862-3.051-5.137-6.415-7.199-10.043-1.997-3.513-4.208-6.98-7.025-9.901-5.688-5.899-14.139-8.807-22.259-8.305-15.528.959-28.985,13.874-29.126,29.699-.078,8.769,3.678,17.061,8.072,24.457s10.042,14.241,16.664,19.746c5.895,4.901,12.912,8.469,20.697,8.732,7.431.251,14.619-2.539,20.31-7.233,5.723-4.721,9.742-11.552,10.853-18.905.649-4.296.469-8.71-.803-12.883-1.231-4.039-3.514-7.562-6.15-10.819-1.275-1.576-2.643-3.072-4.034-4.546-2.125-2.251-5.515,1.148-3.394,3.394,2.526,2.676,4.993,5.435,6.87,8.617,1.894,3.21,2.939,6.796,3.079,10.522.253,6.749-2.219,13.369-6.777,18.342-4.143,4.519-9.793,7.743-15.917,8.537-6.731.872-13.16-1.327-18.661-5.12-3.03-2.089-5.72-4.653-8.266-7.299-2.717-2.823-5.288-5.817-7.494-9.059-4.391-6.451-8.434-13.683-9.836-21.442-1.266-7.007.409-14.377,4.926-19.937,3.986-4.906,9.611-8.307,15.799-9.578,6.71-1.379,14.14.124,19.628,4.276,5.954,4.505,8.471,11.811,12.842,17.602,1.192,1.579,2.454,3.095,3.807,4.538,2.118,2.258,5.507-1.142,3.394-3.394Z"/><path class="e" d="M113.556,88.949c2.498-21.176,4.588-42.099,8.242-62.975.41-2.343.836-4.683,1.275-7.021.461-2.458.695-5.171,1.817-7.435,2.266-4.573,7.126-7.269,12.215-6.621,1.221.156,2.385.495,3.142,1.536.731,1.005.61,2.152.53,3.324-.25,3.648-.47,7.299-.624,10.953-.278,6.592-.342,13.2.062,19.789.446,7.278,1.471,14.526,3.104,21.633.808,3.517,1.621,7.15,2.861,10.542.538,1.473,1.218,2.906,1.823,4.353.5,1.195,1.588,2.051,2.952,1.676,1.127-.31,2.18-1.749,1.676-2.952-.584-1.393-1.206-2.776-1.753-4.184-1.124-2.897-1.813-6.059-2.545-9.076-1.582-6.516-2.653-13.136-3.169-19.822-.524-6.799-.525-13.625-.273-20.436.139-3.766.354-7.528.604-11.288.115-1.727.325-3.458-.26-5.13-.542-1.549-1.49-2.881-2.79-3.881-2.545-1.958-6.152-2.176-9.232-1.752-3.047.42-5.831,1.698-8.218,3.623s-4.144,4.562-5.161,7.448c-.888,2.519-1.187,5.313-1.672,7.933-1.723,9.302-3.173,18.645-4.408,28.024-1.569,11.911-2.899,23.854-4.299,35.786-.233,1.984-.466,3.968-.7,5.953-.152,1.289,1.212,2.4,2.4,2.4,1.424,0,2.247-1.107,2.4-2.4h0Z"/><path class="e" d="M88.471,84.753c-3.644-13.923-5.682-28.18-5.712-42.582-.015-7.224.312-14.306,1.716-21.403.651-3.289,1.738-6.856,1.207-10.223-.438-2.776-2.263-5.112-4.599-6.599-4.557-2.9-10.683-2.317-14.653,1.272-2.066,1.867-3.507,4.379-4.708,6.859-1.29,2.664-2.514,5.362-3.794,8.032-6.175,12.88-11.588,26.157-15.828,39.803-4.808,15.475-8.073,31.464-9.073,47.654-.19,3.085,4.61,3.074,4.8,0,1.681-27.216,9.99-53.761,21.191-78.485,1.392-3.072,2.834-6.121,4.315-9.152,1.119-2.291,2.08-4.661,3.282-6.91,1.118-2.094,2.478-4.246,4.631-5.397,1.645-.88,3.652-.931,5.432-.425,1.746.496,3.44,1.65,4.102,3.402.485,1.285.221,2.751-.007,4.057-.295,1.694-.639,3.379-.972,5.066-1.342,6.794-1.806,13.574-1.84,20.492-.076,15.483,1.962,30.84,5.882,45.816.781,2.986,5.413,1.72,4.629-1.276h0Z"/><path class="e" d="M111.884,80.349c-1.915-.056-3.829.141-5.747.183-2.587.056-5.176.04-7.762-.023-2.615-.064-5.231-.174-7.838-.387-2.049-.167-3.223-.37-5.227-.477-3.087-.166-3.078,4.635,0,4.8l1.072.057c.179.01.357.023.536.029-.597-.019-.132-.019.213.028,1.132.152,2.268.271,3.407.363,2.607.212,5.223.322,7.838.387,2.586.064,5.175.079,7.762.023,1.917-.042,3.832-.238,5.747-.183,3.09.09,3.087-4.71,0-4.8h0Z"/><path class="e" d="M33.053,107.408c-1.007,14.515,1.466,29.304,7.229,42.665,2.856,6.621,6.625,12.832,11.302,18.327,4.626,5.434,10.273,10.009,16.23,13.91,11.763,7.704,25.349,12.536,39.248,14.491,14.078,1.98,28.443,1.246,42.271-2.059,15.034-3.593,29.041-10.352,41.576-19.353,3.378-2.425,6.486-5.15,10.527-6.409,3.315-1.033,6.631-1.838,9.849-3.18,6.209-2.59,11.932-6.184,16.864-10.773,10.005-9.309,15.879-22.156,17.035-35.71,1.205-14.117-2.981-28.317-11.742-39.449-8.315-10.565-20.598-17.622-33.822-19.848-12.906-2.173-27.086-.081-36.947,9.134-1.862,1.74-3.388,3.746-4.909,5.781-.777,1.039-.169,2.681.861,3.284,1.226.717,2.505.18,3.284-.861,3.19-4.267,7.031-7.693,11.925-10.002,5.324-2.512,11.328-3.447,17.177-3.358,12.368.189,24.567,4.952,33.631,13.392,9.531,8.875,15.221,21.315,15.876,34.311.639,12.657-3.154,25.493-11.34,35.273-3.962,4.733-8.742,8.685-14.124,11.703-2.666,1.494-5.447,2.753-8.334,3.755-3.437,1.193-7.027,1.828-10.319,3.426-3.692,1.792-6.822,4.669-10.19,6.988-3.491,2.404-7.091,4.65-10.801,6.7-6.05,3.343-12.388,6.098-18.967,8.22-12.806,4.13-26.311,5.927-39.75,5.196-13.203-.718-26.361-3.974-38.164-9.987-11.989-6.108-22.602-14.793-29.561-26.42-7.029-11.745-10.681-25.471-11.257-39.103-.141-3.347-.092-6.699.14-10.041.09-1.295-1.167-2.4-2.4-2.4-1.374,0-2.31,1.102-2.4,2.4h0Z"/></g></svg>