<svg id="b" xmlns="http://www.w3.org/2000/svg" width="270.891" height="152.983" viewBox="0 0 270.891 152.983" style="color: initial !important;"><defs><style>.d{fill:#f3736f;}.e{fill:#ffffff;}.f{fill:#211715;}.g{fill:#febe69;}</style></defs><g id="c"><path class="g" d="M5.026,71.226h0c-1.619.142-2.816,1.569-2.674,3.187l7.184,73.492c.142,1.619,1.569,2.816,3.187,2.674l253.149-22.148c1.619-.142,2.816-1.569,2.674-3.187l-7.184-73.492c-.142-1.619-1.569-2.816-3.187-2.674L5.026,71.226Z"/><path class="f" d="M5.026,68.826c-3.473.304-5.307,3.206-4.991,6.44l.5,5.115c.634,6.482,1.267,12.963,1.901,19.445,1.396,14.284,2.793,28.569,4.189,42.853l.453,4.633c.04.411.074.823.144,1.23.451,2.656,2.826,4.527,5.511,4.436,1.104-.038,2.218-.194,3.318-.29,7.419-.649,14.839-1.298,22.258-1.947,12.464-1.09,24.927-2.181,37.391-3.271,15.382-1.346,30.765-2.692,46.147-4.037l48.458-4.24c14.848-1.299,29.696-2.598,44.543-3.897,11.224-.982,22.449-1.964,33.673-2.946l16.617-1.454c.459-.04.917-.073,1.372-.15,3.242-.551,4.634-3.482,4.344-6.451l-1.36-13.914c-1.485-15.19-2.97-30.381-4.455-45.571-.409-4.188-.799-8.379-1.228-12.566-.317-3.089-2.25-5.685-5.653-5.564-.332.012-.666.058-.997.087-5.831.51-11.662,1.02-17.492,1.53-11.496,1.006-22.993,2.012-34.489,3.017l-44.639,3.906c-16.164,1.414-32.328,2.828-48.492,4.243-15.338,1.342-30.677,2.684-46.015,4.026l-36.913,3.23c-7.094.621-14.188,1.241-21.282,1.862-.937.082-1.875.164-2.812.246-1.291.113-2.4,1.022-2.4,2.4,0,1.211,1.101,2.514,2.4,2.4,3.743-.327,7.485-.655,11.228-.982,9.842-.861,19.684-1.722,29.526-2.583l41.588-3.639c15.805-1.383,31.609-2.765,47.414-4.148,15.667-1.371,31.335-2.742,47.002-4.112,13.452-1.177,26.903-2.354,40.355-3.531l27.47-2.403,6.955-.608c.477-.042.955-.094,1.433-.125.155-.01.435-.064.547-.025.35.121.279.227.448.556.017.032-.051-.384-.028-.241.017.106.022.218.032.325,1.044,11.298,2.208,22.587,3.312,33.88,1.229,12.569,2.457,25.138,3.686,37.707.043.44.095.881.129,1.322.005.071.021.144.021.215,0,.225.048.344-.05.52-.144.26-.762.367-.225.278-.272.045-.558.049-.833.073l-5.858.513-25.766,2.254c-13.1,1.146-26.201,2.292-39.301,3.438-15.489,1.355-30.978,2.71-46.468,4.065-15.889,1.39-31.778,2.78-47.668,4.17-14.136,1.237-28.271,2.473-42.407,3.71l-31.157,2.726c-4.496.393-9.032,1.003-13.544,1.185-.222.009-.448.077-.656-.038-.246-.136-.381-.822-.279-.227-.003-.019-.003-.039-.006-.058-.02-.126-.025-.256-.037-.382-.133-1.406-.275-2.812-.412-4.218l-1.784-18.251c-1.417-14.501-2.835-29.001-4.252-43.502l-.54-5.528c-.043-.435-.094-.87-.128-1.306-.006-.077-.023-.155-.023-.232,0-.165-.045-.304.018-.45.137-.32.798-.396.256-.349,1.291-.113,2.4-1.022,2.4-2.4,0-1.211-1.101-2.514-2.4-2.4Z"/><path class="e" d="M156.317,10.762c4.301,4.329,8.142,9.845,10.114,15.426-14.591-9.768-36.697-6.31-50.407-1.95-10.52,3.34-21.303,7.834-26.232,11.132-7.758,5.181-13.861,9.588-14.422,21.083-.38,7.695,1.45,12.574,2.052,20.379.7,9.195-11.184,22.492-25.546,22.468l-.376.357c-9.767-10.025-16.384-27.021-18.747-39.93-.79-9.365,2.429-17.897,8.563-24.969,5.904-6.815,14.188-11.083,22.598-14.287s27.793-8.46,43.145-13.197c6.143-1.898,13.658-3.798,19.048-4.342,6.697-.671,11.406-.888,17.954.67,5.406,1.281,9.305,4.19,12.254,7.16Z"/><path class="d" d="M51.878,99.299c14.362.024,26.246-13.272,25.546-22.468-.602-7.805-2.433-12.684-2.052-20.379.561-11.495,6.663-15.902,14.422-21.083,4.929-3.298,15.712-7.792,26.232-11.132,13.709-4.359,35.816-7.818,50.407,1.95,1.477,4.142,1.933,8.327.809,12.108-1.594,5.434-6.783,8.641-12.801,12.881-4.841,3.409-13.316,7.803-18.258,11.067-17.737,11.679-20.365,28.249-37.378,37.808-13.23,7.45-29.818,12.568-42.305,3.885-1.739-1.21-3.409-2.655-4.996-4.28l.376-.357Z"/><path class="f" d="M153.226,49.105c-4.82,3.37-10.077,6.079-15.115,9.1-5.145,3.085-9.858,6.73-13.935,11.144-7.4,8.009-12.543,17.997-21.092,24.946-4.566,3.711-10.165,6.446-15.641,8.526-5.613,2.132-11.584,3.577-17.623,3.208-5.563-.34-10.64-2.578-14.772-6.288-4-3.592-7.155-8-9.817-12.645-2.798-4.883-5.051-10.058-6.849-15.387-1.679-4.977-3.473-10.358-3.331-15.658.34-12.758,9.068-22.956,19.825-28.858,9.635-5.286,20.517-8.049,30.996-11.128,6.247-1.835,12.501-3.646,18.732-5.534s12.426-3.763,18.837-4.831c6.083-1.013,12.541-1.358,18.606-.097,3.194.664,6.087,1.777,8.785,3.628,2.242,1.539,4.179,3.516,5.96,5.558,3.835,4.396,7.088,9.689,8.3,15.453.513,2.44.556,5.011-.16,7.415-.721,2.42-2.412,4.311-4.269,5.952-2.31,2.041-4.92,3.725-7.436,5.495-1.059.745-1.554,2.098-.861,3.284.613,1.048,2.218,1.61,3.284.861,5.144-3.617,11.212-7.181,13.577-13.341,2.255-5.874.599-12.523-1.985-17.987-2.654-5.612-6.711-10.962-11.491-14.935-5.441-4.521-11.993-6.481-18.989-6.894-13.708-.809-26.9,3.9-39.833,7.725-6.464,1.912-12.941,3.777-19.397,5.714-4.91,1.474-9.852,2.927-14.638,4.773-6.351,2.449-12.497,5.424-17.868,9.65-5.33,4.194-9.59,9.695-12.193,15.964-2.432,5.855-3.271,12.433-1.951,18.651,1.209,5.693,2.984,11.275,5.214,16.649,2.345,5.653,5.136,11.145,8.725,16.117,3.296,4.568,7.232,8.883,12.144,11.745,11.89,6.927,26.374,3.262,37.997-2.314,5.616-2.694,10.812-5.996,15.214-10.437,4.047-4.084,7.358-8.814,10.771-13.42,3.545-4.785,7.337-9.385,11.911-13.231,4.68-3.934,10.168-6.774,15.425-9.841,2.499-1.457,4.996-2.93,7.368-4.589,1.061-.742,1.553-2.1.861-3.284-.614-1.05-2.216-1.607-3.284-.861Z"/><path class="f" d="M167.645,24.116c-9.622-6.356-21.841-7.364-33.038-6.198-11.868,1.235-23.272,4.905-34.236,9.509-4.948,2.078-9.674,4.372-14.092,7.429-3.911,2.706-7.711,5.731-10.142,9.902-2.958,5.075-3.527,11.171-3.098,16.928.232,3.115.787,6.193,1.27,9.275.408,2.601,1.003,5.4.655,8.037.061-.463-.072.36-.072.36-.05.254-.107.507-.171.758-.153.608-.345,1.206-.566,1.793-.338.898-.888,1.946-1.471,2.907-1.356,2.233-3.097,4.188-5.061,5.905-4.346,3.796-9.951,6.145-15.745,6.18-3.088.019-3.094,4.819,0,4.8,10.48-.063,20.948-6.532,25.744-15.876,1.065-2.076,1.825-4.26,2.11-6.578.339-2.759-.205-5.618-.609-8.343-.861-5.816-2.094-11.745-1.009-17.628.855-4.634,3.145-8.253,6.646-11.286s7.523-5.537,11.666-7.562c5.802-2.836,11.886-5.116,18.01-7.15,5.04-1.674,10.167-3.029,15.407-3.908,11.745-1.97,25.104-1.894,35.377,4.892,2.585,1.708,4.992-2.448,2.423-4.145h0Z"/><path class="d" d="M45.047,56.477c-.642-3.49.782-8.048,3.368-10.602,3.269-3.227,6.273-3.873,10.352-3.493,3.013.28,5.094,2.308,4.484,5.288-1.358,6.626-1.776,14.667-1.311,21.66.1,1.505-.754,3.751-2.519,4.648-1.338.68-3.626.588-5.033.06-1.263-.474-3.241-3.021-3.972-4.182-2.802-4.455-4.371-7.958-5.368-13.379Z"/><path class="f" d="M47.361,55.839c-.691-4.215,2.044-8.902,5.942-10.533,1.768-.739,4.311-.964,6.143-.359.707.233,1.238.57,1.471,1.215.184.51-.157,1.736-.295,2.519-1.048,5.937-1.423,12.014-1.214,18.037.056,1.627.748,4.328-1.2,5.187-.693.305-1.692.161-2.413.043-.441-.073-.454-.046-.807-.324-.237-.186-.782-.768-1.09-1.117-3.557-4.021-5.557-9.473-6.537-14.669-.24-1.274-1.776-1.999-2.952-1.676-1.336.367-1.917,1.674-1.676,2.952,1.151,6.101,3.732,12.422,7.996,17.036,2.136,2.311,4.99,3.125,8.09,2.526,3.201-.618,5.363-3.652,5.518-6.822.08-1.622-.149-3.291-.172-4.918-.027-1.965.009-3.931.109-5.894.176-3.472.563-6.913,1.209-10.329.6-3.176-.245-6.257-3.308-7.814-2.599-1.321-6.105-1.284-8.894-.612-7.306,1.759-11.724,9.652-10.547,16.826.21,1.28,1.798,1.994,2.952,1.676,1.36-.374,1.887-1.668,1.676-2.952Z"/><path class="e" d="M224.719,53.398c3.038,5.302,5.308,11.618,5.761,17.524-11.551-13.224-33.8-15.635-48.164-14.996-11.029.5-22.606,2.034-28.225,3.936-8.841,2.984-15.87,5.656-19.41,16.608-2.37,7.328-1.863,12.516-3.321,20.207-1.712,9.067-16.638,18.819-30.497,15.062l-.455.262h-.012c-6.817-12.211-8.802-30.359-7.714-43.459,1.669-9.234,6.995-16.642,14.759-21.87,7.468-5.056,16.589-7.013,25.533-7.924,8.956-.91,29.037-.947,45.098-1.525,6.422-.231,14.166-.121,19.518.763,6.641,1.083,11.247,2.097,17.158,5.305,4.889,2.649,7.899,6.467,9.97,10.107Z"/><path class="d" d="M230.48,70.922c.347,4.381-.3,8.542-2.366,11.899-2.959,4.837-8.796,6.58-15.707,9.11-5.56,2.035-14.887,4.078-20.513,5.932-20.161,6.676-27.012,21.99-45.918,26.798-14.718,3.755-32.054,4.38-41.873-7.252-1.368-1.617-2.591-3.431-3.693-5.408l.455-.262c13.859,3.757,28.785-5.995,30.497-15.062,1.458-7.691.951-12.879,3.321-20.207,3.539-10.952,10.568-13.624,19.41-16.608,5.618-1.902,17.196-3.436,28.225-3.936,14.364-.639,36.613,1.771,48.164,14.996Z"/><path class="f" d="M211.764,89.617c-5.644,2.042-11.547,3.302-17.308,4.957-5.836,1.676-11.379,4.068-16.495,7.351-8.994,5.771-16.444,13.85-26.299,18.266-5.071,2.272-10.824,3.44-16.323,4.078-5.53.642-11.242.683-16.664-.711-5.23-1.345-9.877-4.088-13.271-8.331-3.226-4.033-5.343-8.943-6.878-13.835-1.755-5.591-2.816-11.398-3.333-17.231-.254-2.869-.385-5.75-.384-8.631,0-2.587-.079-5.318.498-7.849,2.769-12.136,12.763-20.572,24.369-24.032,11.028-3.287,22.8-3.149,34.199-3.416,6.713-.157,13.427-.28,20.139-.481,6.628-.199,13.258-.442,19.873.17,6.009.556,12.27,1.804,17.727,4.449,2.93,1.42,5.539,3.147,7.734,5.574,1.818,2.009,3.211,4.351,4.437,6.757,2.759,5.417,4.69,11.637,4.348,17.77-.146,2.608-.826,5.217-2.264,7.419-1.374,2.103-3.603,3.444-5.818,4.512-2.668,1.286-5.509,2.199-8.287,3.213-1.217.444-2.04,1.63-1.676,2.952.322,1.173,1.729,2.123,2.952,1.676,5.817-2.122,12.5-3.956,16.402-9.129,3.858-5.115,4.021-12.06,2.928-18.113-1.142-6.316-3.803-12.82-7.635-17.99-4.175-5.633-10.125-9.125-16.75-11.211-13.288-4.186-27.401-2.986-41.098-2.66-6.818.162-13.638.279-20.455.489-5.344.164-10.704.337-16.013,1.006-7.228.912-14.416,2.53-20.893,5.978-5.738,3.054-10.797,7.569-14.326,13.039-1.704,2.641-3.03,5.555-3.941,8.561-.889,2.935-1.138,5.862-1.219,8.912-.162,6.132.293,12.276,1.262,18.331,1.83,11.44,5.8,24.359,15.402,31.675,9.838,7.496,23.358,7.213,34.924,4.97,5.998-1.163,11.727-3.021,17.015-6.127,4.863-2.857,9.206-6.489,13.613-9.984,4.554-3.612,9.289-7.003,14.551-9.517,5.679-2.715,11.883-4.072,17.927-5.713,2.792-.758,5.586-1.531,8.308-2.515,1.218-.441,2.039-1.632,1.676-2.952-.323-1.176-1.727-2.119-2.952-1.676Z"/><path class="f" d="M232.181,69.223c-7.148-8.09-17.778-12.242-28.167-14.195-11.018-2.071-22.165-1.815-33.268-.616-5.649.61-11.493,1.275-16.928,3.014-4.397,1.407-9.001,3.002-12.75,5.765-4.437,3.271-7.216,7.864-8.84,13.085-1.908,6.135-1.917,12.55-3.009,18.833-.894,5.141-4.715,8.96-9.289,11.569-5.553,3.167-12.202,4.374-18.432,2.742-2.991-.783-4.267,3.845-1.276,4.629,11.051,2.894,24.054-1.529,30.787-10.851,3.372-4.669,3.416-10.654,4.009-16.173.598-5.566,1.706-11.4,4.972-16.074,2.45-3.506,6.208-5.61,10.092-7.121,4.71-1.832,9.478-3.042,14.471-3.816,11.085-1.718,22.568-2.452,33.732-1.063,11.087,1.38,22.89,5.05,30.502,13.666,2.049,2.32,5.434-1.086,3.394-3.394h0Z"/><path class="d" d="M105.396,68.608c.287-3.536,2.847-7.568,6.008-9.361,3.995-2.266,7.064-2.109,10.904-.682,2.836,1.054,4.319,3.554,2.955,6.271-3.034,6.045-5.528,13.701-6.897,20.574-.295,1.48-1.703,3.426-3.641,3.833-1.469.309-3.655-.375-4.876-1.25-1.097-.786-2.344-3.76-2.748-5.071-1.548-5.03-2.151-8.82-1.705-14.314Z"/><path class="f" d="M107.796,68.608c.441-4.347,4.55-8.429,8.931-8.677,1.88-.106,4.723.303,6.098,1.706,1.326,1.354-.304,3.321-.961,4.809-2.307,5.224-4.106,10.673-5.369,16.243-.34,1.498-.501,3.949-2.393,4.227-.818.12-1.809-.268-2.507-.657-.292-.163-.308-.146-.53-.434-.254-.328-.558-.94-.778-1.382-2.388-4.792-2.893-10.58-2.491-15.836.099-1.294-1.174-2.4-2.4-2.4-1.381,0-2.301,1.102-2.4,2.4-.474,6.203.375,12.981,3.299,18.557,1.452,2.77,3.999,4.298,7.133,4.529,3.167.233,5.891-1.962,6.995-4.83.557-1.447.729-3.084,1.102-4.59.427-1.721.905-3.43,1.432-5.123,1.019-3.277,2.204-6.513,3.661-9.623.669-1.429,1.423-2.747,1.541-4.351.124-1.689-.531-3.307-1.612-4.578-1.985-2.334-5.567-3.249-8.509-3.458-7.682-.545-14.294,6.107-15.041,13.467-.131,1.291,1.197,2.4,2.4,2.4,1.407,0,2.269-1.105,2.4-2.4Z"/></g></svg>