<svg id="b" xmlns="http://www.w3.org/2000/svg" width="334.03" height="320.594" viewBox="0 0 334.03 320.594" style="color: initial !important;"><defs><style>.d{fill:#cfcfcf;}.d,.e,.f,.g,.h{stroke-width:0px;}.e{fill:#211715;}.f{fill:#645d5c;}.g{fill:#ffffff;}.h{fill:#3d8dcc;}</style></defs><g id="c"><path class="g" d="M279.015,214.951c0-1.396,0-2.196,0-2.196,0-1.413-1.146-2.559-2.559-2.559h-8.892c-1.413,0-2.559,1.145-2.559,2.559,0,7.089,0,12.165,0,12.165v.402c4.59,0,10.416,0,14.01,0,0-4.419,0-8.149,0-10.37Z"/><path class="g" d="M310.423,239.775c-.381-1.749-.761-3.462-1.133-5.104-1.239-5.471-6.095-9.35-11.705-9.35h-51.151c-5.609,0-10.466,3.879-11.705,9.35-2.031,8.968-4.302,20.08-5.754,27.326,12.502-3.428,37.638-10.317,37.638-10.317,3.532-.968,7.258-.968,10.79,0,0,0,25.136,6.889,37.638,10.317-1.186-5.919-2.919-14.419-4.621-22.222Z"/><path class="h" d="M266.615,251.679c3.531-.968,7.259-.968,10.79,0l24.008,6.58c-.996-4.886-2.436-11.638-3.608-16.535-.779-3.256-3.686-5.548-7.033-5.548h-37.525c-3.347,0-6.254,2.292-7.033,5.548-.352,1.472-.729,3.112-1.11,4.819-.888,3.973-1.801,8.298-2.498,11.716l24.008-6.579Z"/><path class="e" d="M273.152,210.195h-5.588c-1.413,0-2.559,1.145-2.559,2.559,0,1.709,0,2.474,0,4.171,4.67,0,9.34,0,14.01,0,0-2.842,0-4.17,0-4.17,0-1.413-1.146-2.559-2.559-2.559h-3.304Z"/><path class="e" d="M230.482,264.641c1.322-6.635,2.674-13.264,4.083-19.881.744-3.492,1.28-7.162,2.367-10.565.862-2.7,2.957-4.967,5.561-6.081,2.05-.877,4.159-.794,6.32-.794h8.965c8.499,0,16.998,0,25.497,0,4.769,0,9.541-.056,14.309,0,2.839.034,5.479,1.191,7.409,3.279,2.23,2.413,2.62,5.69,3.296,8.775,1.54,7.019,2.992,14.058,4.412,21.102.28,1.388.558,2.776.835,4.164.503,2.522,4.359,1.455,3.857-1.063-1.378-6.914-2.787-13.822-4.262-20.717-.397-1.856-.799-3.71-1.208-5.563-.38-1.72-.671-3.493-1.335-5.132-1.221-3.012-3.424-5.585-6.3-7.136-2.744-1.48-5.63-1.71-8.65-1.71h-8.978c-8.79,0-17.58,0-26.37,0h-10.229c-1.864,0-3.769-.1-5.619.159-3.178.445-6.209,2.017-8.359,4.414-2.445,2.725-3.221,5.926-3.989,9.404-1.612,7.298-3.123,14.619-4.601,21.946-.291,1.444-.581,2.889-.869,4.334-.501,2.514,3.354,3.59,3.857,1.063h0Z"/><path class="e" d="M303.769,259.844c-.975-4.886-2.006-9.762-3.102-14.623-.502-2.228-.809-4.711-2.047-6.678-1.213-1.927-3.116-3.386-5.31-4.014-1.48-.423-3.004-.354-4.522-.354h-6.586c-9.64,0-19.302-.194-28.941,0-2.345.047-4.539.877-6.283,2.456-2.037,1.844-2.644,4.31-3.236,6.878-1.249,5.425-2.402,10.875-3.492,16.334-.502,2.514,3.353,3.59,3.857,1.063.923-4.625,1.897-9.24,2.926-13.842.796-3.562,1.219-8.584,5.868-8.882,3.09-.198,6.25-.008,9.344-.008,9.459,0,18.929-.134,28.388,0,1.203.017,2.362.323,3.331,1.07,1.938,1.494,2.165,4.046,2.67,6.269,1.163,5.115,2.249,10.248,3.276,15.392.503,2.522,4.36,1.455,3.857-1.063h0Z"/><path class="e" d="M267.005,224.919c0-3.112,0-6.224,0-9.336,0-.699,0-1.399,0-2.098,0-.305-.037-.63.008-.931-.032.219-.066.091.039-.041-.171.214.004-.016.08-.121.134-.186-.013-.002-.028.034.069-.164.184-.177.02-.054.095-.071.219-.143.325-.19-.195.086-.112-.015.061.009-.283-.039.044.005.168.004,1.053-.013,2.107,0,3.159,0h4.229c.412,0,.825-.004,1.237,0,.085,0,.168,0,.253.004.318.016-.243-.088.048.018.218.08.004-.019-.032-.035.106.047.23.119.325.19-.265-.198.094.172-.02-.003-.13-.199.346.464.091.144.11.138.066.258.039.041.003.023.008.18.008.202,0,.06,0,.12,0,.18.003.351,0,.703,0,1.054v3.83c0,2.426,0,4.852,0,7.278,0,2.574,4,2.578,4,0,0-2.255,0-4.51,0-6.764v-4.297c0-1.184.041-2.321-.533-3.419-.939-1.794-2.745-2.424-4.644-2.424h-4.197c-1.276,0-2.551-.008-3.827,0-2.207.013-4.269,1.366-4.706,3.631-.176.913-.102,1.871-.102,2.796,0,.8,0,1.6,0,2.399,0,1.369,0,2.737,0,4.106,0,1.264,0,2.527,0,3.791,0,2.574,4,2.578,4,0h0Z"/><path class="e" d="M270.01,242.445v7.444c0,1.046.92,2.048,2,2s2-.879,2-2v-7.444c0-1.046-.92-2.048-2-2s-2,.879-2,2h0Z"/><path class="e" d="M266.736,218.924c3.457,0,6.914,0,10.372,0,1.046,0,2.048-.92,2-2s-.879-2-2-2c-3.457,0-6.914,0-10.372,0-1.046,0-2.048.92-2,2s.879,2,2,2h0Z"/><path class="g" d="M221.008,264.261c-3.802,1.646-5.78,6.009-4.336,10.028,3.507,9.766,6.794,19.612,9.858,29.526,8.036-2.113,17.238-1.715,25.432.253,13.973,3.356,26.756,10.295,40.818,13.31,6.398,1.372,13.404,1.683,19.91.571,1.789-5.225,2.957-8.634,2.957-8.634l1.473-4.299c3.169-10.323,6.58-20.572,10.23-30.734,1.573-4.38-.926-9.169-5.415-10.4l-44.531-12.204c-3.532-.968-7.258-.968-10.79,0l-44.531,12.204c-.373.102-.732.229-1.076.378Z"/><path class="e" d="M226.195,296.099c-1.956-6.085-3.991-12.144-6.113-18.173-.769-2.184-2.15-4.665-1.856-7.054.229-1.865,1.367-3.55,2.988-4.482.962-.553,2.122-.777,3.186-1.068l5.629-1.543,33.026-9.051c1.255-.344,2.508-.691,3.764-1.031,3.339-.907,6.716-.975,10.07-.085,2.949.782,5.885,1.613,8.827,2.419l32.566,8.925c1.02.28,2.046.544,3.061.839,3.124.907,5.139,4.077,4.285,7.297-.786,2.963-2.058,5.862-3.059,8.762-1.014,2.939-2.009,5.884-2.983,8.836-1.628,4.932-3.07,9.931-4.753,14.843l-1.114,3.252c-.836,2.44,3.026,3.488,3.857,1.063,3.249-9.481,6.118-19.086,9.413-28.554.973-2.796,2.424-5.707,2.765-8.664.261-2.269-.32-4.67-1.606-6.563-1.526-2.246-3.734-3.578-6.307-4.283l-30.984-8.491-12.261-3.36c-3.231-.885-6.502-1.198-9.832-.725-1.542.219-3.019.637-4.515,1.047-10.917,2.992-21.835,5.984-32.752,8.976-3.299.904-6.617,1.755-9.901,2.713-4.072,1.189-6.978,4.643-7.358,8.882-.249,2.784,1.004,5.372,1.906,7.933,1.062,3.014,2.103,6.036,3.123,9.064,1.046,3.106,2.069,6.22,3.072,9.341.784,2.441,4.648,1.397,3.857-1.063h0Z"/><path class="e" d="M213.424,313.784c5.055-5.736,12.487-8.461,19.96-9.163,8.549-.803,16.892.751,25.016,3.34,9.479,3.02,18.57,7.159,28.14,9.906,8.172,2.346,16.621,3.418,25.085,2.254,8.589-1.182,16.816-4.836,22.111-11.905.648-.865.14-2.235-.718-2.736-1.022-.598-2.087-.15-2.736.718-4.445,5.935-11.712,8.84-18.834,9.939-8.166,1.26-16.415.044-24.279-2.251-17.553-5.124-34.192-14.824-53.058-13.326-8.736.693-17.581,3.663-23.516,10.398-1.696,1.925,1.122,4.764,2.828,2.828h0Z"/><path class="e" d="M81.863,316.254c-.74-.813-1.191-1.894-1.191-3.081,0,0,0-3.963,0-4.825,7.718,0,14.604,0,19.57,0-.009,1.292-.009,4.825-.009,4.825,0,2.529-2.05,4.58-4.58,4.58-2.98,0-7.422,0-10.402,0-1.343,0-2.551-.578-3.388-1.499Z"/><path class="e" d="M24.241,315.167c-.292-.603-.455-1.279-.455-1.993,0,0,0-4.237,0-4.898.35.048.707.073,1.071.073,4.863,0,11.318,0,18.492,0,0,1.292,0,4.825,0,4.825,0,2.529-2.05,4.58-4.58,4.58-2.98,0-7.422,0-10.402,0-1.815,0-3.383-1.056-4.124-2.586Z"/><path class="g" d="M120.909,254.503v-10.247c0-2.512-2.037-4.549-4.549-4.549h-3.072c-1.119,0-2.026.907-2.026,2.026,0,5.764,0,9.528-.003,15.291,0,1.119.907,2.027,2.026,2.027h3.075c2.512,0,4.549-2.037,4.549-4.549Z"/><path class="g" d="M3.11,254.503v-10.247c0-2.512,2.037-4.549,4.549-4.549h3.072c1.119,0,2.026.907,2.026,2.026,0,5.764,0,9.528.003,15.291,0,1.119-.907,2.027-2.026,2.027h-3.075c-2.512,0-4.549-2.037-4.549-4.549Z"/><path class="e" d="M21.786,308.183c0,1.635-.031,3.272,0,4.906.066,3.502,2.65,6.376,6.178,6.644,1.691.129,3.43.019,5.126.019,1.806,0,3.613.009,5.419,0,3.742-.019,6.749-2.793,6.839-6.584.042-1.761,0-3.527,0-5.288,0-2.574-4-2.578-4,0v4.502c0,1.616-.49,3.151-2.311,3.363-1.464.171-3.044.008-4.518.008-1.598,0-3.197,0-4.795,0-1.148,0-2.218.116-3.091-.669-.605-.544-.84-1.261-.847-2.057-.015-1.614,0-3.229,0-4.844,0-2.574-4-2.578-4,0h0Z"/><path class="e" d="M78.672,308.183c0,1.635-.031,3.272,0,4.906.066,3.502,2.65,6.376,6.178,6.644,1.691.129,3.43.019,5.126.019,1.806,0,3.613.009,5.419,0,3.742-.019,6.749-2.793,6.839-6.584.042-1.761,0-3.527,0-5.288,0-2.574-4-2.578-4,0v4.502c0,1.616-.49,3.151-2.311,3.363-1.464.171-3.044.008-4.518.008-1.598,0-3.197,0-4.795,0-1.148,0-2.218.116-3.091-.669-.605-.544-.84-1.261-.847-2.057-.015-1.614,0-3.229,0-4.844,0-2.574-4-2.578-4,0h0Z"/><path class="g" d="M17.015,226.614c0,24.989,0,48.351,0,73.874,0,4.337,3.51,7.86,7.847,7.86,17.725,0,56.585,0,74.303,0,4.333,0,7.84-3.513,7.84-7.846v-73.898c0-10.238-8.295-18.538-18.533-18.538-16.502,0-36.416,0-52.919,0-10.241,0-18.537,8.307-18.537,18.548Z"/><path class="h" d="M26.662,239.692c0,11.747,0,21.979,0,33.745,0,2.029,1.516,3.737,3.531,3.978,8.824,1.055,23.938,1.799,31.817,1.799s23.331-.449,31.939-1.762c1.96-.299,3.409-1.979,3.408-3.962,0-11.788,0-22.033,0-33.798,0-2.209-1.784-4.006-3.993-4.006-12.421,0-50.287,0-62.708,0-2.209,0-3.993,1.797-3.993,4.006Z"/><path class="e" d="M24.662,239.692c0,10.021,0,20.043,0,30.064,0,2.216-.347,4.708.821,6.707,1.056,1.807,2.838,2.72,4.856,2.969,3.621.447,7.268.715,10.907.961,14.844,1.003,29.72,1.099,44.56-.062,1.824-.143,3.647-.309,5.464-.522,1.763-.207,3.714-.261,5.26-1.225,1.785-1.113,2.74-3.03,2.826-5.094.108-2.58,0-5.187,0-7.77,0-4.912,0-9.823,0-14.735,0-2.538,0-5.075,0-7.613,0-2.174.346-4.64-.764-6.616-1-1.782-2.859-2.911-4.884-3.056-1.029-.074-2.081-.015-3.113-.015-2.571,0-5.141,0-7.712,0-6.517,0-13.034,0-19.552,0-6.749,0-13.497,0-20.246,0-2.686,0-5.373,0-8.059,0-2.437,0-5.45-.449-7.582.936-1.758,1.142-2.696,3.006-2.783,5.071-.109,2.574,3.891,2.569,4,0,.11-2.586,3.291-2.006,5.071-2.006,2.377,0,4.753,0,7.13,0,6.057,0,12.115,0,18.172,0,11.129,0,22.257,0,33.386,0,1.075,0,2.153-.01,2.718,1.09.372.722.218,1.615.218,2.4,0,1.296,0,2.591,0,3.887,0,4.538,0,9.076,0,13.615,0,4.689,0,9.379,0,14.068,0,1.763-.589,2.572-2.363,2.841-1.447.219-2.907.363-4.363.502-13.549,1.291-27.241,1.385-40.825.693-3.679-.187-7.356-.419-11.028-.72-1.694-.139-3.387-.293-5.077-.475-1.191-.128-2.52-.196-2.944-1.543-.27-.857-.096-1.937-.096-2.825,0-1.21,0-2.42,0-3.63,0-2.359,0-4.717,0-7.076,0-4.595,0-9.191,0-13.786,0-2.345,0-4.689,0-7.034,0-2.574-4-2.578-4,0Z"/><path class="e" d="M15.015,226.072c0,19.099,0,38.198,0,57.296,0,4.881,0,9.763,0,14.644,0,2.03-.104,4.068.655,5.992.654,1.656,1.687,3.097,3.087,4.202,2.656,2.097,5.643,2.141,8.861,2.141,2.809,0,5.619,0,8.428,0,13.941,0,27.882,0,41.822,0,6.054,0,12.107,0,18.161,0,3.111,0,6.185.114,8.831-1.824,2.599-1.904,4.086-4.813,4.144-8.033.084-4.66,0-9.329,0-13.99v-28.196c0-8.472,0-16.944,0-25.416v-6.227c0-4.372-1.135-8.674-3.745-12.236-2.002-2.732-4.621-5.014-7.71-6.439-3.429-1.583-6.875-1.921-10.608-1.921-8.84,0-17.68,0-26.52,0-4.489,0-8.977,0-13.466,0-4.205,0-8.44-.147-12.642.013-6.934.265-13.418,4.189-16.786,10.276-1.648,2.978-2.482,6.319-2.514,9.716-.025,2.575,3.975,2.577,4,0,.06-6.253,3.662-11.891,9.325-14.56,3.136-1.478,6.396-1.446,9.783-1.446,4.127,0,8.254,0,12.381,0,8.633,0,17.265,0,25.898,0,4.133,0,8.266-.013,12.399,0,3.116.01,6.098.806,8.746,2.467,4.67,2.929,7.417,8.111,7.457,13.587.01,1.383,0,2.766,0,4.149v22.169c0,9.33,0,18.659,0,27.989v18.598c0,2.507-.342,4.911-2.701,6.414-2.169,1.381-5.119.91-7.577.91-2.764,0-5.528,0-8.292,0-13.481,0-26.962,0-40.443,0-5.826,0-11.652,0-17.477,0-2.548,0-5.347.399-7.434-1.381-1.1-.938-1.832-2.27-2.026-3.705-.293-2.165-.039-4.518-.039-6.702,0-18.325,0-36.65,0-54.976,0-4.504,0-9.008,0-13.513,0-2.574-4-2.578-4,0Z"/><path class="e" d="M28.315,297.399h11.654c1.046,0,2.048-.92,2-2s-.879-2-2-2h-11.654c-1.046,0-2.048.92-2,2s.879,2,2,2h0Z"/><path class="e" d="M84.05,297.399h11.654c1.046,0,2.048-.92,2-2s-.879-2-2-2h-11.654c-1.046,0-2.048.92-2,2s.879,2,2,2h0Z"/><path class="e" d="M122.909,254.503v-7.787c0-.946.059-1.915-.019-2.859-.232-2.79-2.163-5.31-4.955-5.958-1.444-.335-3.112-.246-4.586-.192-1.321.049-2.501.578-3.294,1.657-.991,1.347-.792,2.995-.792,4.578,0,2.997,0,5.993-.001,8.99,0,2.871-.647,6.882,2.877,7.95.848.257,1.809.171,2.685.171.872,0,1.735.03,2.599-.102,3.186-.485,5.396-3.297,5.487-6.447.074-2.575-3.926-2.573-4,0-.042,1.458-1.128,2.491-2.564,2.549-.936.037-2.126.18-3.043,0,.131.026-.065.057-.078-.084,0-.007.033.049.036.057-.093-.294,0-.817,0-1.127,0-1.373.001-2.745.001-4.118,0-2.38,0-4.76,0-7.139,0-.717,0-1.433,0-2.15,0,.027-.005-.961-.074-.689.093-.366.172-.102.139-.095.232-.047.523,0,.758,0,1.027,0,2.359-.189,3.266.189,2.056.857,1.558,3.542,1.558,5.423v7.184c0,2.574,4,2.578,4,0Z"/><path class="e" d="M122.909,243.158c0-1.05.012-2.101,0-3.152-.028-2.387-.929-4.673-2.578-6.406-1.674-1.758-4.042-2.762-6.459-2.829-1.043-.029-2.09-.003-3.133-.003h-3.623c-1.081,0-2,.919-2,2s.915,2,2,2c2.103,0,4.206-.003,6.309,0,.083,0,.167,0,.25,0,.193.002.385.016.578.022.072.002.393.051.03-.005.153.024.306.054.457.088.21.047.418.103.622.169.116.037.23.08.345.121-.326-.117-.043-.023.024.011.432.214.85.448,1.236.737-.288-.216.191.178.281.264.174.166.329.345.494.519.047.049.234.296.023.015.072.096.14.194.207.294.133.2.257.406.369.618.044.083.3.704.172.348.083.23.161.461.224.698.056.21.099.421.138.635.058.318-.022-.298.002.028.011.159.024.317.029.476.031,1.116.003,2.236.003,3.352,0,1.081.919,2,2,2s2-.915,2-2h0Z"/><path class="e" d="M5.11,254.503v-9.625c0-.845.038-1.592.575-2.244.859-1.042,2.054-.928,3.318-.928.52,0,1.121-.089,1.631,0,.111.019.099-.045.028-.074.581.241.115.197.104.133-.045-.276-.01.87-.01.724,0,2.561,0,5.122,0,7.683,0,1.144,0,2.287,0,3.431,0,1.034.11,2.558.037,3.364-.017.186-.154.095-.1.084-.232.047-.524,0-.759,0-.683,0-1.367.005-2.05,0-1.525-.01-2.731-.969-2.776-2.549-.074-2.568-4.075-2.579-4,0,.082,2.828,1.794,5.272,4.483,6.212,1.518.531,3.372.366,4.96.337,1.174-.022,2.287-.391,3.109-1.267,1.181-1.256,1.097-2.828,1.096-4.433-.001-3.009-.002-6.019-.002-9.028,0-2.774.771-6.746-2.285-8.208-1.378-.659-3.26-.439-4.753-.409-2.648.053-5.037,1.541-6.079,4.008-.541,1.281-.53,2.58-.53,3.932v8.856c0,2.574,4,2.578,4,0Z"/><path class="e" d="M5.11,243.158c0-1.031-.009-2.063,0-3.094,0-.054,0-.108.001-.162.002-.128.007-.255.015-.383.004-.055.043-.449.012-.204-.021.167.073-.366.097-.468.071-.299.166-.589.27-.877-.119.329.078-.166.131-.268.096-.187.2-.37.313-.548.047-.075.46-.62.212-.323.172-.207.352-.405.545-.593.086-.083.174-.163.262-.244.039-.035.327-.274.143-.128-.168.133.066-.047.085-.059.1-.066.198-.135.299-.199.203-.128.413-.247.628-.354.108-.054.217-.107.328-.154-.267.112-.02.015.118-.028.205-.064.409-.128.619-.178.091-.022.791-.126.389-.086.273-.027.547-.038.821-.04,1.074-.009,2.149,0,3.223,0h3.281c1.081,0,2-.919,2-2s-.915-2-2-2c-2.168,0-4.337-.019-6.504,0-4.868.042-8.814,3.735-9.257,8.561-.116,1.263-.031,2.561-.031,3.828,0,1.081.919,2,2,2s2-.915,2-2h0Z"/><path class="g" d="M72.378,294.671h-20.737c0,5.442,0,11.252,0,11.691,7.208,0,20.737,0,20.737,0,0-2.988,0-10.783,0-11.692Z"/><path class="e" d="M72.378,292.671h-20.737c-1.081,0-2,.916-2,2,0,3.897,0,7.794,0,11.691,0,1.081.916,2,2,2,6.912,0,13.825,0,20.737,0,1.081,0,2-.916,2-2,0-3.897,0-7.795,0-11.692,0-2.574-4-2.578-4,0,0,3.897,0,7.795,0,11.692l2-2c-6.912,0-13.825,0-20.737,0l2,2c0-3.897,0-7.794,0-11.691l-2,2h20.737c2.574,0,2.578-4,0-4Z"/><rect class="d" x="39.569" y="217.089" width="44.881" height="9.508" rx="3" ry="3"/><path class="e" d="M42.569,228.596c6.439,0,12.877,0,19.316,0h13.302c2.079,0,4.18.087,6.258,0,1.677-.07,3.194-.815,4.153-2.219.75-1.097.852-2.34.852-3.621,0-2.637.165-5.44-2.476-6.986-1.969-1.152-5.079-.683-7.259-.683h-26.408c-2.525,0-5.062-.069-7.587,0-2.769.075-4.974,2.016-5.142,4.837-.112,1.876-.308,4.365.603,6.057.889,1.651,2.563,2.516,4.389,2.614,2.572.139,2.565-3.862,0-4-1.579-.085-1.033-3.183-1-4.202.03-.95.502-1.285,1.374-1.306,2.451-.059,4.912,0,7.363,0h24.786c2.065,0,4.209-.167,6.269,0,1.429.116,1.089,1.707,1.089,2.754,0,1.057.343,2.643-1.102,2.754-2.09.16-4.256,0-6.351,0h-12.239c-6.599,0-13.216-.142-19.814,0-.124.003-.249,0-.374,0-2.574,0-2.578,4,0,4Z"/><path class="g" d="M301.19,8.228v2.4h-58.36v-2.4c0-3.44,2.79-6.23,6.24-6.23h45.88c3.45,0,6.24,2.79,6.24,6.23Z"/><path class="e" d="M308.998,109.516h-73.976c-2.574,0-2.578,4,0,4h73.976c2.574,0,2.578-4,0-4h0Z"/><path class="e" d="M238.85,101.662c-4.951,7.077-9.897,14.156-14.859,21.225-.621.885-.16,2.223.718,2.736.999.584,2.114.169,2.736-.718,4.962-7.069,9.908-14.149,14.859-21.225.619-.886.161-2.223-.718-2.736-.998-.583-2.115-.17-2.736.718h0Z"/><path class="e" d="M301.716,103.681c4.951,7.077,9.897,14.156,14.859,21.225.62.883,1.749,1.295,2.736.718.874-.511,1.341-1.848.718-2.736-4.962-7.069-9.908-14.149-14.859-21.225-.618-.884-1.75-1.294-2.736-.718-.875.512-1.34,1.847-.718,2.736h0Z"/><path class="g" d="M318.51,23.631c0-7.18-5.82-13-13-13h-67c-7.18,0-13,5.82-13,13v55.328h93V23.631Z"/><path class="f" d="M225.51,78.958v5.697c0,9.391,7.617,17.004,17.008,17.004,23.024,0,44.654,0,59.001,0,9.386,0,16.99-7.609,16.99-16.995v-5.706h-93Z"/><path class="e" d="M238.51,12.631h66.07c1.401,0,2.76.063,4.123.47,3.729,1.113,6.599,4.221,7.512,7.987.603,2.485.294,5.37.294,7.903v14.981c0,11.336,0,22.671,0,34.007,0,2.228.019,4.457,0,6.685-.069,8.235-6.758,14.922-14.99,14.997-9.552.086-19.108,0-28.66,0-5.709,0-11.417,0-17.126,0-3.085,0-6.17,0-9.255,0-2.506,0-5.061.183-7.515-.423-6.787-1.674-11.431-7.821-11.454-14.758-.009-2.769,0-5.537,0-8.306,0-11.589,0-23.178,0-34.767v-13.946c0-3.272-.22-6.468,1.531-9.428,1.987-3.36,5.591-5.35,9.469-5.401,2.572-.034,2.579-4.034,0-4-8.331.111-14.932,6.846-15,15.147-.024,2.868,0,5.737,0,8.605v35.857c0,4.519,0,9.038,0,13.557,0,4.402.317,8.62,2.651,12.545,2.293,3.856,5.916,6.774,10.135,8.271,2.159.766,4.438,1.043,6.719,1.047,3.193.005,6.387,0,9.58,0,11.428,0,22.855,0,34.283,0,4.568,0,9.135,0,13.703,0,4.637,0,8.957-1.175,12.65-4.061,4.97-3.883,7.279-9.687,7.279-15.877,0-9.65,0-19.301,0-28.951,0-9.956,0-19.912,0-29.869,0-1.305-.024-2.579-.236-3.879-.722-4.423-3.643-8.433-7.576-10.561-3.437-1.86-6.991-1.832-10.726-1.832h-63.462c-2.574,0-2.578,4,0,4Z"/><path class="h" d="M299.712,35.853h-55.404c-3.278,0-5.936,2.658-5.936,5.936,0,6.189,0,11.379,0,17.568,0,3.278,2.662,5.936,5.941,5.936,18.49,0,36.902,0,55.392.009,3.279.001,5.943-2.656,5.943-5.936v-17.577c0-3.278-2.658-5.936-5.936-5.936Z"/><path class="e" d="M299.712,33.853c-7.17,0-14.34,0-21.51,0h-30.522c-1.015,0-2.03-.006-3.045,0-2.707.015-5.179,1.115-6.785,3.344-1.428,1.982-1.479,4.167-1.479,6.516,0,2.736,0,5.473,0,8.209,0,2.58-.151,5.21.01,7.784.137,2.183,1.098,4.293,2.802,5.697,1.98,1.632,4.144,1.89,6.628,1.89,2.83,0,5.659,0,8.489,0,5.903,0,11.805,0,17.708.001s11.805.002,17.708.004c2.913,0,5.826.002,8.739.003,2.392.001,4.481-.322,6.379-1.888,2.227-1.837,2.813-4.46,2.813-7.193v-7.394c0-2.515,0-5.03,0-7.546,0-2.586-.329-4.998-2.213-6.985-1.498-1.58-3.571-2.38-5.724-2.443-2.575-.074-2.573,3.926,0,4,2.557.074,3.936,2.087,3.936,4.465v6.043c0,2.593,0,5.186,0,7.779,0,1.357.247,3.062-.172,4.381-.475,1.497-1.781,2.587-3.348,2.768-1.193.138-2.47.013-3.671.012-1.415,0-2.83-.001-4.245-.002-5.488-.002-10.976-.003-16.464-.004s-10.972-.001-16.458-.002c-2.745,0-5.49,0-8.235,0-1.332,0-2.664,0-3.995,0-1.159,0-2.437.153-3.578-.085-1.561-.326-2.788-1.62-3.059-3.187-.183-1.057-.052-2.223-.052-3.294,0-1.301,0-2.602,0-3.903,0-2.49,0-4.981,0-7.471,0-1.927-.46-4.371.834-6.006,1.579-1.995,4.612-1.493,6.866-1.493,9.512,0,19.024,0,28.536,0,7.571,0,15.163.169,22.733,0,.124-.003.248,0,.371,0,2.574,0,2.578-4,0-4Z"/><rect class="d" x="255.336" y="18.789" width="33.347" height="8.904" rx="2.968" ry="2.968"/><path class="e" d="M258.304,29.694c4.942,0,9.884,0,14.826,0h9.573c2.168,0,4.509.294,6.283-1.238,1.749-1.511,1.697-3.604,1.697-5.701,0-2.333-.647-4.484-2.958-5.519-1.67-.749-3.918-.446-5.702-.446h-19.668c-2.399,0-5.372-.448-7.322,1.238-1.874,1.619-1.697,3.911-1.697,6.139,0,3.024,1.845,5.348,4.968,5.528,2.572.148,2.563-3.852,0-4-1.407-.081-.968-2.24-.968-3.167,0-.873-.015-1.607,1.042-1.738,1.527-.189,3.198,0,4.734,0h17.892c1.504,0,3.141-.184,4.637,0,1.148.141,1.042,1.042,1.042,1.966,0,1.012.392,2.737-.968,2.939-1.231.183-2.63,0-3.87,0h-8.591c-4.983,0-9.967,0-14.95,0-2.574,0-2.578,4,0,4Z"/><path class="e" d="M225.51,80.958h93c2.574,0,2.578-4,0-4h-93c-2.574,0-2.578,4,0,4h0Z"/><path class="e" d="M244.833,10.627c0-.99-.109-2.056.041-3.037.252-1.645,1.476-2.991,3.066-3.439.831-.234,1.775-.151,2.634-.151h41.888c.829,0,1.661-.024,2.49,0,1.784.051,3.364,1.091,3.987,2.794.431,1.179.246,2.599.246,3.833,0,2.574,4,2.578,4,0,0-1.308.081-2.644-.153-3.937-.385-2.124-1.652-3.964-3.389-5.215C297.98.278,296.033,0,294.05,0h-43.276c-1.723,0-3.358-.01-4.993.702-2.253.981-3.999,2.963-4.653,5.343-.407,1.481-.294,3.063-.294,4.583,0,2.574,4,2.578,4,0h0Z"/><path class="e" d="M292.159,91.441h11.654c1.046,0,2.048-.92,2-2s-.879-2-2-2h-11.654c-1.046,0-2.048.92-2,2s.879,2,2,2h0Z"/><path class="e" d="M240.207,91.441h11.654c1.046,0,2.048-.92,2-2s-.879-2-2-2h-11.654c-1.046,0-2.048.92-2,2s.879,2,2,2h0Z"/><path class="e" d="M13.326,107.058c-.052-.263-.079-.536-.079-.814v-7.01s0-.549-.001-1.339c1.381.625,2.914.973,4.528.973,3.849,0,8.476,0,13.602,0,0,.232,0,.367,0,.367v7.009c0,2.323-1.883,4.206-4.206,4.206h-9.716c-2.045,0-3.748-1.459-4.128-3.392Z"/><path class="e" d="M92.82,107.444c-.113-.38-.174-.783-.174-1.2v-7.01s0-.132,0-.367c5.131,0,9.762,0,13.61,0,1.612,0,3.143-.347,4.521-.971-.003.814-.003,1.338-.003,1.338v7.009c0,2.323-1.883,4.206-4.206,4.206h-9.716c-1.906,0-3.516-1.268-4.033-3.006Z"/><path class="g" d="M13.614,49.313h-3.596c-4.733,0-8.008,3.668-8.008,7.967v.072c.042,4.654,3.21,7.872,7.68,8.016,1.677-2.374,3.993-4.262,6.697-5.419.476-3.575,1.004-7.125,1.616-10.637h-4.389Z"/><path class="g" d="M118.025,64.415c2.427-1.302,3.963-3.842,3.985-7.063v-.072c0-4.299-3.276-7.967-7.998-7.967h-7.419c.624,3.603,1.164,7.247,1.652,10.915,2.444,1.169,4.54,2.948,6.093,5.139,1.367-.043,2.614-.376,3.687-.952Z"/><path class="g" d="M87.926,21.563c-.018-.074-.034-.142-.049-.204-1.11-4.68-5.017-6.913-9.837-6.913h-31.489c-4.82,0-8.727,2.233-9.837,6.913-.295,1.259-1.324,5.094-.731,3.535.424-.038.851-.053,1.282-.053h50.061c.43,0,.858.016,1.282.053.563,1.482-.339-1.911-.683-3.331Z"/><path class="g" d="M20.107,38.84c-1.6,6.867-2.763,13.942-3.722,21.114,1.909-.821,4.013-1.274,6.222-1.274h78.809c2.447,0,4.765.555,6.833,1.547-.998-7.478-2.213-14.859-3.91-22.01-1.865-7.859-8.935-13.376-17.013-13.376h-50.061c-8.077,0-15.148,5.517-17.013,13.376-.049.207-.098.415-.146.623Z"/><path class="h" d="M117.242,87.875c0-4.456,0-8.912,0-13.369,0-8.74-7.085-15.826-15.826-15.826H22.607c-8.74,0-15.826,7.085-15.826,15.826v13.361c0,6.075,4.918,11,10.993,11,21.454,0,67.067,0,88.483,0,6.071,0,10.984-4.921,10.984-10.992Z"/><path class="g" d="M25.558,71.476c-4.433,0-7.499,3.436-7.499,7.454v.074c.033,4.457,3.155,7.521,7.501,7.521,2.758,0,4.935-1.155,6.212-3.066.832-1.231,1.287-2.776,1.287-4.529,0-1.605-.486-3.111-1.347-4.341-1.309-1.873-3.487-3.113-6.154-3.113Z"/><path class="g" d="M98.76,72.249c-4.433,0-7.499,3.436-7.499,7.454v.074c.033,4.457,3.155,7.521,7.501,7.521,2.758,0,4.935-1.155,6.212-3.066.832-1.231,1.287-2.776,1.287-4.529,0-1.605-.486-3.111-1.347-4.341-1.309-1.873-3.487-3.113-6.154-3.113Z"/><path class="e" d="M119.242,87.875c0-4.513.068-9.031-.002-13.543-.05-3.248-.955-6.483-2.686-9.24-3.272-5.21-9.008-8.354-15.145-8.411-3.779-.035-7.559,0-11.338,0-8.313,0-16.626,0-24.939,0-8.737,0-17.474,0-26.212,0h-15.518c-3.5,0-6.897.697-9.933,2.518-5.373,3.222-8.634,9.082-8.689,15.323-.031,3.507,0,7.015,0,10.522,0,1.335-.073,2.703.067,4.033.337,3.21,1.779,6.267,4.209,8.429,2.495,2.22,5.625,3.346,8.953,3.362,2.396.011,4.793,0,7.189,0,5.908,0,11.817,0,17.725,0,13.254,0,26.508,0,39.762,0,5.76,0,11.52,0,17.281,0,2.473,0,5.039.192,7.499-.067,3.208-.337,6.261-1.78,8.419-4.211s3.306-5.478,3.356-8.715c.04-2.575-3.96-2.576-4,0-.043,2.744-1.237,5.337-3.4,7.061s-4.616,1.931-7.273,1.931c-5.118,0-10.236,0-15.354,0-12.591,0-25.182,0-37.773,0-11.065,0-22.13.022-33.194,0-5.221-.01-9.415-3.786-9.467-9.121-.034-3.505,0-7.013,0-10.519,0-1.25-.047-2.514.034-3.762.176-2.713,1.24-5.406,2.931-7.533,2.695-3.388,6.751-5.237,11.051-5.252,4.12-.014,8.24,0,12.36,0,8.036,0,16.072,0,24.108,0h25.213c5.213,0,10.426,0,15.639,0,2.3,0,4.536.161,6.7,1.078,5.364,2.272,8.417,7.542,8.425,13.243.006,4.291,0,8.582,0,12.874,0,2.574,4,2.578,4,0Z"/><path class="e" d="M18.346,60.243c.544-4.033,1.152-8.057,1.877-12.062.677-3.734,1.225-7.709,2.512-11.291,1.888-5.256,6.782-9.063,12.26-9.896,1.664-.253,3.424-.152,5.105-.152h32.86c4.772,0,9.545-.035,14.317,0,4.927.036,9.775,2.343,12.645,6.415,1.88,2.667,2.552,5.624,3.23,8.767.869,4.028,1.592,8.086,2.222,12.157.312,2.018.6,4.039.873,6.062.145,1.072,1.519,1.655,2.46,1.397,1.156-.318,1.542-1.385,1.397-2.46-.566-4.193-1.2-8.377-1.964-12.539-.696-3.792-1.23-7.872-2.674-11.466-2.331-5.799-7.341-10.282-13.448-11.765-2.32-.563-4.636-.569-6.994-.569h-33.846c-4.637,0-9.276-.038-13.912,0-6.347.052-12.243,3.113-15.949,8.259-1.983,2.754-2.86,5.888-3.579,9.156-.92,4.179-1.68,8.392-2.338,12.62-.327,2.098-.626,4.2-.91,6.303-.144,1.069.257,2.147,1.397,2.46.932.256,2.315-.319,2.46-1.397h0Z"/><path class="e" d="M37.79,25.398c.562-2.597.976-5.694,3.259-7.391,1.68-1.249,3.783-1.555,5.819-1.56,3.794-.01,7.589,0,11.383,0h18.736c2.017,0,4.034.083,5.837,1.112,2.85,1.627,3.339,4.887,3.978,7.84.544,2.515,4.401,1.451,3.857-1.063-.682-3.152-1.376-6.471-3.833-8.763-2.387-2.227-5.604-3.095-8.806-3.125-3.743-.035-7.488,0-11.231,0-6.599,0-13.197-.011-19.796,0-2.847.005-5.786.513-8.13,2.235-3.222,2.366-4.125,5.934-4.93,9.653-.543,2.51,3.312,3.582,3.857,1.063h0Z"/><path class="e" d="M90.647,99.234c0,2.246-.009,4.492,0,6.738.016,3.823,2.896,6.479,6.655,6.479h7.978c1.129,0,2.271.044,3.349-.359,2.436-.912,4.043-3.119,4.143-5.723.091-2.371.004-4.76.004-7.133,0-2.574-4-2.578-4,0,0,2.134,0,4.268,0,6.402,0,1.001-.121,1.783-.769,2.302-.728.583-1.352.511-2.314.511h-7.487c-.699,0-1.473.068-2.016-.1-1.027-.319-1.536-1.216-1.544-2.309-.016-2.269,0-4.539,0-6.808,0-2.574-4-2.578-4,0h0Z"/><path class="e" d="M11.247,99.234c0,2.246-.009,4.492,0,6.738.016,3.823,2.896,6.479,6.655,6.479h7.978c1.129,0,2.271.044,3.349-.359,2.436-.912,4.043-3.119,4.143-5.723.091-2.371.004-4.76.004-7.133,0-2.574-4-2.578-4,0v6.402c0,1.001-.121,1.783-.769,2.302-.728.583-1.352.511-2.314.511h-7.487c-.699,0-1.473.068-2.016-.1-1.027-.319-1.536-1.216-1.544-2.309-.016-2.269,0-4.539,0-6.808,0-2.574-4-2.578-4,0h0Z"/><path class="e" d="M9.501,63.36c-.791-.05-1.894-.335-2.614-.738-.226-.127-.444-.265-.657-.414-.267-.186.195.168-.054-.039-.099-.082-.195-.167-.289-.254-.165-.153-.323-.313-.472-.48-.085-.095-.171-.193-.25-.294.218.28-.135-.217-.141-.226-.142-.221-.272-.449-.391-.684-.06-.118-.12-.239-.171-.361.037.087.107.287-.022-.087-.182-.528-.331-1.076-.401-1.631.034.271,0-.096-.002-.124-.01-.15-.02-.299-.024-.449-.007-.243-.006-.486.006-.728.007-.141.017-.282.032-.423-.01.092-.065.316.016-.092.061-.306.128-.608.218-.907.52-1.724,1.905-3.212,3.612-3.774.905-.298,1.369-.341,2.274-.344.607-.002,1.214,0,1.82,0h4.328c2.574,0,2.578-4,0-4h-4.402c-1.934,0-3.849-.029-5.681.712-2.777,1.123-4.876,3.38-5.779,6.244-.869,2.755-.492,6.028,1.008,8.499,1.735,2.859,4.756,4.384,8.034,4.592,1.079.069,2-.968,2-2,0-1.14-.918-1.931-2-2h0Z"/><path class="e" d="M107.698,51.313h5.8c.561,0,1.257.015,1.572.074.286.053.57.123.849.206.137.041.272.087.407.135.029.01.352.144.11.038.461.202,1.121.603,1.378.811.731.592,1.249,1.243,1.72,2.28-.124-.274.148.415.167.476.083.263.152.531.208.801.021.102.04.205.057.308.056.343-.017-.256.008.094.02.273.035.544.034.817-.002.3-.019.599-.046.897-.04.436-.03.205-.015.115-.024.14-.051.28-.081.418-.06.271-.132.54-.218.804-.042.129-.087.258-.136.385.12-.309-.118.248-.122.256-.296.587-.522.915-.781,1.204-.435.487-.733.729-1.055.938-.971.631-2.024.927-3.026.991-1.078.069-2,.87-2,2,0,1.029.916,2.069,2,2,3.037-.194,5.76-1.484,7.59-3.952,1.708-2.303,2.189-5.353,1.689-8.134-.51-2.832-2.425-5.447-4.976-6.78-1.942-1.014-3.98-1.181-6.118-1.181h-5.015c-2.574,0-2.578,4,0,4h0Z"/><path class="e" d="M25.558,69.476c-3.973.051-7.428,2.349-8.879,6.063-1.296,3.317-.546,7.327,1.794,9.986,2.475,2.813,6.818,3.674,10.309,2.515,4.084-1.356,6.535-5.349,6.262-9.613-.327-5.099-4.408-8.879-9.485-8.951-2.575-.036-2.576,3.964,0,4,.814.011,1.173.059,1.958.319.507.168,1.036.424,1.602.881-.261-.211.248.24.233.226.1.095.198.194.293.295-.046-.049.398.46.247.272-.156-.195.281.41.226.326.432.665.648,1.188.82,1.942.289,1.271.079,2.943-.492,4.037-.152.292-.323.575-.516.842.208-.288-.191.219-.193.221-.09.099-.184.195-.28.288-.429.417-.84.689-1.386.929.225-.099-.418.149-.354.128-.137.045-.275.087-.414.124-.214.058-.43.104-.648.146-.013.003-.378.052-.146.025-.381.045-.772.054-1.155.045-.135-.003-.271-.009-.406-.018-.133-.009-.266-.021-.398-.036.173.024.189.024.046,0-.283-.052-.564-.114-.841-.194-.18-.052-.356-.116-.534-.177-.067-.023-.344-.159-.033-.011-.274-.13-.541-.271-.798-.432-.102-.064-.199-.133-.299-.199-.186-.136-.194-.14-.022-.013-.069-.057-.137-.115-.202-.175-.192-.188-.377-.38-.566-.57-.388-.392.177.301-.133-.158-.068-.1-.137-.198-.202-.3-.164-.259-.306-.528-.439-.803.147.303.007.027-.016-.038-.075-.21-.147-.419-.208-.633-.08-.283-.142-.57-.193-.859.071.403-.024-.251-.026-.273-.01-.138-.018-.277-.022-.416-.009-.296.01-.587.019-.883.018-.614-.046.203.012-.152.037-.224.084-.446.141-.666.08-.309.176-.618.301-.913-.158.374.106-.19.118-.214.088-.168.183-.332.284-.493.068-.107.14-.21.21-.315.137-.189.148-.204.032-.046.06-.073.122-.145.186-.215.243-.252.483-.499.751-.725-.255.216.058-.044.129-.091.189-.124.377-.247.574-.357.114-.063.231-.119.346-.18.376-.2-.127.015.251-.106.392-.126.776-.233,1.179-.319.176-.038.507-.058.961-.064,2.572-.033,2.579-4.033,0-4Z"/><path class="e" d="M98.76,70.249c-3.973.051-7.428,2.349-8.879,6.063-1.296,3.317-.546,7.327,1.794,9.986,2.475,2.813,6.818,3.674,10.309,2.515,4.084-1.356,6.535-5.349,6.262-9.613-.327-5.099-4.408-8.879-9.485-8.951-2.575-.036-2.576,3.964,0,4,.814.011,1.173.059,1.958.319.507.168,1.036.424,1.602.881-.261-.211.248.24.233.226.1.095.198.194.293.295-.046-.049.398.46.247.272-.156-.195.281.41.226.326.432.665.648,1.188.82,1.942.289,1.271.079,2.943-.492,4.037-.152.292-.323.575-.516.842.208-.288-.191.219-.193.221-.09.099-.184.195-.28.288-.429.417-.84.689-1.386.929.225-.099-.418.149-.354.128-.137.045-.275.087-.414.124-.214.058-.43.104-.648.146-.013.003-.378.052-.146.025-.381.045-.772.054-1.155.045-.135-.003-.271-.009-.406-.018-.133-.009-.266-.021-.398-.036.173.024.189.024.046,0-.283-.052-.564-.114-.841-.194-.18-.052-.356-.116-.534-.177-.067-.023-.344-.159-.033-.011-.274-.13-.541-.271-.798-.432-.102-.064-.199-.133-.299-.199-.186-.136-.194-.14-.022-.013-.069-.057-.137-.115-.202-.175-.192-.188-.377-.38-.566-.57-.388-.392.177.301-.133-.158-.068-.1-.137-.198-.202-.3-.164-.259-.306-.528-.439-.803.147.303.007.027-.016-.038-.075-.21-.147-.419-.208-.633-.08-.283-.142-.57-.193-.859.071.403-.024-.251-.026-.273-.01-.138-.018-.277-.022-.416-.009-.296.01-.587.019-.883.018-.614-.046.203.012-.152.037-.224.084-.446.141-.666.08-.309.176-.618.301-.913-.158.374.106-.19.118-.214.088-.168.183-.332.284-.493.068-.107.14-.21.21-.315.137-.189.148-.204.032-.046.06-.073.122-.145.186-.215.243-.252.483-.499.751-.725-.255.216.058-.044.129-.091.189-.124.377-.247.574-.357.114-.063.231-.119.346-.18.376-.2-.127.015.251-.106.392-.126.776-.233,1.179-.319.176-.038.507-.058.961-.064,2.572-.033,2.579-4.033,0-4Z"/><path class="g" d="M74.872,93.185c0-1.027,0-2.054,0-3.082h-25.722c0,6.148,0,12.432,0,12.432v.776c8.143,0,25.722,0,25.722,0,0-3.376,0-6.751,0-10.127Z"/><path class="e" d="M76.872,93.185c0-1.027,0-2.054,0-3.082,0-1.081-.916-2-2-2h-25.722c-1.081,0-2,.916-2,2,0,4.403,0,8.805,0,13.208,0,1.081.916,2,2,2,8.574,0,17.148,0,25.722,0,1.081,0,2-.916,2-2,0-3.376,0-6.751,0-10.127,0-2.574-4-2.578-4,0,0,3.376,0,6.751,0,10.127l2-2c-8.574,0-17.148,0-25.722,0l2,2c0-4.403,0-8.805,0-13.208l-2,2h25.722l-2-2c0,1.027,0,2.054,0,3.082,0,2.574,4,2.578,4,0Z"/></g></svg>