<svg xmlns="http://www.w3.org/2000/svg" width="214.752" height="161.906" viewBox="0 0 214.752 161.906" style="color: initial !important;"><defs><style>.a{fill:#febe69;}.b{fill:#ffffff;}.c{fill:#211715;}</style></defs><path class="a" d="M133.721,30.818q-.978.284-1.937.667a85.821,85.821,0,0,1,26.913,22.8,19.968,19.968,0,0,0,.37-8.1,18.419,18.419,0,0,0-9.45-13.7A20.949,20.949,0,0,0,133.721,30.818Z"/><path class="a" d="M69.368,13.623a21.488,21.488,0,0,0-3.362,8.507q.763-.15,1.532-.285a100.46,100.46,0,0,1,53.491,4.694c.819-4.8.933-9.569-2.171-13.711-3.768-5-11.315-8.037-17.282-9.293C94.225,1.974,86.364,1.66,79.563,4.85A25.1,25.1,0,0,0,69.368,13.623Z"/><path class="a" d="M116.438,147.3c-1.964,3.218-4.981,5.835-9.581,7.955-6.66,3.08-15.45,5.03-23.04,3.83-10.042-1.62-14.392-10.752-14.691-20.293a113.368,113.368,0,0,0,20.908,3.178,106.766,106.766,0,0,0,29.081-1.912A21.733,21.733,0,0,1,116.438,147.3Z"/><path class="a" d="M130.238,139.678a5.65,5.65,0,0,1-2.758-1.821,74.08,74.08,0,0,0,25.535-13.847l1.379,1.949L141.61,135.73a22.129,22.129,0,0,1-6.342,3.806A8.48,8.48,0,0,1,130.238,139.678Z"/><path class="a" d="M211.023,85.047c-1.882-8.031-5.447-14.4-10.825-18.024-4.825-3.251-8.746-3.113-14.873-3.449-.922-.05-2.2-.116-3.66-.192l-.393.77c-6.5,13.4-12.989,50.21-12.989,65.137v.57a23.242,23.242,0,0,0,9.92,2.569c11.884.888,22.087-5.132,29.267-16.882,2.54-4.158,3.77-9.19,4.461-14.163A42.345,42.345,0,0,0,211.023,85.047Z"/><path class="a" d="M55.429,99.851c7.9-24.2,6.965-48.931-.812-73.044l-.325-1.138-.145-.488A96.2,96.2,0,0,0,24.328,40.662C7.078,54.339-3.752,75.55,6.069,97.851c6.417,14.57,22.416,24.673,34.341,30.5l.737-.854C47.887,119.533,52.22,109.682,55.429,99.851Z"/><path class="a" d="M107.847,120.257a219.934,219.934,0,0,1,15.14-92.93v0A99.552,99.552,0,0,0,70.97,21.3l.653,2.174,1.11,3.52c7.042,22.418,8.761,45.874,2.785,68.744a115.658,115.658,0,0,1-6.637,18.687q-2.094,4.6-4.595,9c-1.372,2.414-4.085,7.021-6.023,10.309l-.988,1.512a116.961,116.961,0,0,0,32.759,6.732,111.629,111.629,0,0,0,19.73-.409l-.1-.546C108.946,134.117,108.227,127.207,107.847,120.257Z"/><path class="b" d="M64.286,123.419q2.5-4.392,4.595-9a115.658,115.658,0,0,0,6.637-18.687c5.976-22.87,4.257-46.326-2.785-68.744l-1.11-3.52L70.97,21.3q-1.716.247-3.432.549a101.436,101.436,0,0,0-10.473,2.44c-.982.284-1.953.586-2.918.9l.145.488.325,1.138c7.777,24.113,8.716,48.843.812,73.044-3.209,9.831-7.542,19.682-14.282,27.645l-.737.854c4.673,2.282,8.72,3.909,11.32,4.89,1.926.726,3.767,1.389,5.545,2l.988-1.512C60.2,130.44,62.914,125.833,64.286,123.419Z"/><path class="b" d="M181.272,64.152l.393-.77c-3.761-.2-8.706-.462-11.8-.715l-5.687-.465-.529-.844a182.792,182.792,0,0,0-5.4,28.774,209.948,209.948,0,0,0-1.254,31.76l.032.024s4.817,3.639,7.559,5.605a32.81,32.81,0,0,0,3.7,2.338v-.57C168.283,114.362,174.777,77.554,181.272,64.152Z"/><path class="b" d="M140.426,36.858a88.606,88.606,0,0,0-17.438-9.533v0a219.934,219.934,0,0,0-15.14,92.93c.38,6.95,1.1,13.86,1.82,20.76l.1.546a91.31,91.31,0,0,0,20.588-4.682l.1-.694Q135.871,86.569,140.426,36.858Z"/><path class="a" d="M158.248,90.132a182.792,182.792,0,0,1,5.4-28.774,85.319,85.319,0,0,0-23.219-24.5q-4.56,49.7-9.969,99.329l-.1.694a72.387,72.387,0,0,0,25.766-15.651l.876.662A209.948,209.948,0,0,1,158.248,90.132Z"/><path class="c" d="M161.011,54.915c1.964-7.69-.278-16.454-6.313-21.763a23.253,23.253,0,0,0-22.929-4.219,2.46,2.46,0,0,0-1.677,2.952,2.423,2.423,0,0,0,2.953,1.677c6.1-2.145,13.286-1.4,18.259,2.984a17.235,17.235,0,0,1,5.078,17.093c-.765,2.995,3.863,4.272,4.629,1.276Z"/><path class="c" d="M157.934,51.866c2.2-3.433,2.154-8.275.709-11.989a19.69,19.69,0,0,0-8.028-9.6c-2.655-1.593-5.072,2.555-2.423,4.145a14.759,14.759,0,0,1,5.822,6.729,10.7,10.7,0,0,1,.82,4.341,7.007,7.007,0,0,1-1.045,3.949,2.4,2.4,0,1,0,4.145,2.423Z"/><path class="c" d="M7.91,104.34a17.658,17.658,0,0,0,12.452-2.2,2.4,2.4,0,1,0-2.423-4.145c-.405.248-.818.48-1.244.689-.16.079-.322.152-.484.227-.244.106-.217.095.083-.033-.11.044-.221.087-.332.129a15.135,15.135,0,0,1-2.481.7,2.879,2.879,0,0,1-.614.1q.517-.066.109-.016-.177.02-.354.036-.621.054-1.244.059t-1.244-.045a6.22,6.22,0,0,1-.708-.072c.69.136-.106-.03-.24-.055A2.4,2.4,0,0,0,7.91,104.34Z"/><path class="c" d="M42.555,78.932c.653,2.685-.228,8.711-5.231,8.909-6.57-.459-6.49-7.807-4.076-11.11C35.225,74.027,40.62,73.194,42.555,78.932Z"/><path class="c" d="M60.336,134.939c3.607-6.121,7.326-12.195,10.316-18.651A117.7,117.7,0,0,0,78.74,92.633a123.029,123.029,0,0,0,.488-49.648,174.572,174.572,0,0,0-5.29-20.154c-.925-2.936-5.561-1.682-4.629,1.277,4.15,13.173,7.113,26.515,7.414,40.379a111.764,111.764,0,0,1-9.144,47c-3.2,7.334-7.335,14.157-11.388,21.035-1.572,2.667,2.575,5.085,4.145,2.422Z"/><path class="c" d="M51.977,26.307A188.873,188.873,0,0,1,56.74,45.159a115.388,115.388,0,0,1,1.779,20.957,111.827,111.827,0,0,1-8.366,41.254,74.775,74.775,0,0,1-10.7,18.43,2.478,2.478,0,0,0,0,3.395,2.419,2.419,0,0,0,3.4,0A78.617,78.617,0,0,0,53.349,112.03a118.236,118.236,0,0,0,6.892-20.4,116.939,116.939,0,0,0,1.665-44.463,175.053,175.053,0,0,0-5.3-22.131c-.848-2.965-5.481-1.7-4.629,1.276Z"/><path class="c" d="M66.727,138.8c.345,9.446,4.606,19.319,14.387,22.145,5.668,1.638,12.1.972,17.747-.386a38.5,38.5,0,0,0,15.054-6.826,21.867,21.867,0,0,0,7.516-13.035,2.46,2.46,0,0,0-1.676-2.952,2.424,2.424,0,0,0-2.953,1.676,17.839,17.839,0,0,1-4.921,9.73c-3.269,3.132-7.74,4.914-12.019,6.17-7.911,2.322-19.2,3.671-24.622-4.1A23,23,0,0,1,71.527,138.8c-.113-3.079-4.914-3.094-4.8,0Z"/><path class="c" d="M68.374,22.446c1.692-9.233,9.6-15.96,18.708-17.353a39.506,39.506,0,0,1,15.181,1.058,31.559,31.559,0,0,1,11.9,5.343,12.321,12.321,0,0,1,4.324,5.71,17.5,17.5,0,0,1,.33,8.049,2.477,2.477,0,0,0,1.676,2.952,2.418,2.418,0,0,0,2.952-1.676c.911-6.02.436-11.924-3.892-16.586-3.574-3.849-8.671-6.227-13.616-7.754C94.931-1.211,82.177-1.22,72.85,6.28a25.319,25.319,0,0,0-9.1,14.89,2.466,2.466,0,0,0,1.676,2.952,2.421,2.421,0,0,0,2.953-1.676Z"/><path class="c" d="M76.455,9.342c8.868-2.549,18.265-1.143,27.03,1.216,3.761,1.012,7.909,2.577,10.854,5.211a8.724,8.724,0,0,1,2.748,3.588,10.286,10.286,0,0,1,.345,6.072c-.7,3.005,3.924,4.288,4.629,1.276,4.178-17.849-20-22.5-32.714-23.45A40.524,40.524,0,0,0,75.179,4.713c-2.964.852-1.7,5.485,1.276,4.629Z"/><path class="c" d="M67.549,142.736c.49,3.782,1.441,7.151,3.965,10.092a16.132,16.132,0,0,0,10.452,5.641,50.336,50.336,0,0,0,27.4-4.306,15.812,15.812,0,0,0,8.829-10.425c.69-3.006-3.937-4.29-4.628-1.276-1.667,7.269-10.375,9.418-16.683,10.673a47.981,47.981,0,0,1-12.127.81c-3.391-.2-6.381-.941-8.832-3.414a12.5,12.5,0,0,1-3.579-7.8,2.478,2.478,0,0,0-2.4-2.4,2.414,2.414,0,0,0-2.4,2.4Z"/><path class="c" d="M126.514,140.293c4.683,3.64,10.33,1.884,14.728-1.305,4.871-3.532,9.584-7.3,14.364-10.957a2.48,2.48,0,0,0,.861-3.284,2.416,2.416,0,0,0-3.284-.861q-6.3,4.812-12.59,9.624a22.332,22.332,0,0,1-5.757,3.64c-1.487.529-3.577.8-4.928-.251a2.481,2.481,0,0,0-3.394,0,2.416,2.416,0,0,0,0,3.394Z"/><path class="c" d="M179.2,62.941c-3.666,7.623-5.651,16.115-7.474,24.33a285.158,285.158,0,0,0-4.952,29.322,113.759,113.759,0,0,0-.891,12.7c-.006,3.089,4.794,3.093,4.8,0,.015-8.1,1.209-16.235,2.506-24.208a247.643,247.643,0,0,1,6.139-28.386,75.665,75.665,0,0,1,4.016-11.332,2.463,2.463,0,0,0-.861-3.283,2.419,2.419,0,0,0-3.283.861Z"/><path class="c" d="M169.861,65.067c4.235.341,8.482.542,12.725.763,4.072.212,8.407.02,12.335,1.243C204,69.9,207.8,80.182,209.325,88.645a42.054,42.054,0,0,1-.478,16.48,32.284,32.284,0,0,1-6.469,13.576c-5.313,6.625-12.724,11.26-21.384,11.408a23.53,23.53,0,0,1-13.587-3.557c-3.169-2.057-6.155-4.432-9.169-6.708a2.415,2.415,0,0,0-3.284.861,2.458,2.458,0,0,0,.861,3.283c2.816,2.128,5.615,4.307,8.537,6.289a27.471,27.471,0,0,0,14.027,4.563,31.879,31.879,0,0,0,25.3-10.341,38.212,38.212,0,0,0,8.7-14.04,46.722,46.722,0,0,0,2.227-18.233c-.868-10.3-4.622-21.994-13.879-27.717-4.905-3.032-10.5-3.074-16.072-3.371-4.932-.263-9.87-.474-14.793-.871a2.42,2.42,0,0,0-2.4,2.4,2.449,2.449,0,0,0,2.4,2.4Z"/><path class="c" d="M120.672,26.689a221.916,221.916,0,0,0-15.475,87.6c.249,8.94,1.142,17.836,2.07,26.726a2.468,2.468,0,0,0,2.4,2.4,2.416,2.416,0,0,0,2.4-2.4c-1.6-15.345-2.692-30.618-1.744-46.047a218.307,218.307,0,0,1,14.978-67,2.417,2.417,0,0,0-1.676-2.952,2.458,2.458,0,0,0-2.953,1.676Z"/><path class="c" d="M138.027,36.857q-3.559,38.771-7.63,77.492-1.149,10.921-2.34,21.838a2.414,2.414,0,0,0,2.4,2.4,2.456,2.456,0,0,0,2.4-2.4q4.221-38.706,7.922-77.466,1.044-10.929,2.048-21.864a2.419,2.419,0,0,0-2.4-2.4,2.451,2.451,0,0,0-2.4,2.4Z"/><path class="a" d="M74.179,96.687C68.9,78.906,86.988,71.15,102.031,70.467c5.811-.142,11.035.835,15.2,5.291,6.462,6.906,5.095,17.252,2.242,25.477-1.46,4.211-3.7,8.423-7.139,11.353-3.632,3.1-7.709,3.579-12.315,2.824C89.141,113.629,77.619,107.974,74.179,96.687Z"/><path class="c" d="M112.209,72.127a19.782,19.782,0,0,0-6.881-1.6,11.158,11.158,0,0,1,7.326,5.593c2.371,4.065,2.441,7.565,2.412,12.636a47.177,47.177,0,0,1-4.525,18.81c-1.369,2.9-3.735,7.606-9.689,7.606H98.683q.67.131,1.341.24c4.606.755,8.683.274,12.315-2.824,3.435-2.93,5.679-7.142,7.139-11.353,2.853-8.225,4.22-18.571-2.242-25.477A15.631,15.631,0,0,0,112.209,72.127Z"/><path class="c" d="M76.493,96.049a18.943,18.943,0,0,1-.835-6.124,13.813,13.813,0,0,1,1.093-4.708,17.011,17.011,0,0,1,7.072-7.39,35.191,35.191,0,0,1,10.893-4.039,33.745,33.745,0,0,1,12.579-.636,14.143,14.143,0,0,1,10.812,8.232c1.854,4.248,1.589,9.2.635,13.637-1.047,4.861-2.772,10.025-6.071,13.845a12.146,12.146,0,0,1-6.044,4.1,16.024,16.024,0,0,1-6.977-.043c-9.682-1.8-20-6.819-23.157-16.872-.921-2.937-5.556-1.683-4.628,1.276,3.365,10.729,13.34,17.069,23.806,19.643,5.665,1.393,11.877,2.012,16.908-1.548,5.086-3.6,7.975-9.432,9.77-15.241,1.66-5.373,2.514-11.179,1.388-16.747A18.864,18.864,0,0,0,113.5,70.092c-4.985-2.308-10.61-2.324-15.958-1.617a45.785,45.785,0,0,0-13.439,3.781A24.051,24.051,0,0,0,73.223,81.61c-2.776,4.821-2.877,10.467-1.358,15.715C72.722,100.287,77.355,99.027,76.493,96.049Z"/><path class="c" d="M105.831,73.19c6.523,2.415,6.977,10.281,6.826,16.168a41.292,41.292,0,0,1-5.377,19.3c-1.4,2.374-3.383,4.064-6.428,4.117-3.086.053-3.095,4.853,0,4.8a11.857,11.857,0,0,0,9.541-4.952,34.124,34.124,0,0,0,4.616-9.827,48.588,48.588,0,0,0,2.409-12.485c.216-3.938.221-8.27-1.13-12.023a15.329,15.329,0,0,0-9.181-9.723,2.42,2.42,0,0,0-2.952,1.676,2.451,2.451,0,0,0,1.676,2.952Z"/><path class="c" d="M161.331,60.72a156.017,156.017,0,0,0-4.6,22.545,232.861,232.861,0,0,0-2.255,27.345c-.092,3.918-.1,7.847.15,11.758a2.456,2.456,0,0,0,2.4,2.4,2.421,2.421,0,0,0,2.4-2.4,170.087,170.087,0,0,1,.36-22.608,211.874,211.874,0,0,1,3.507-26.6c.745-3.751,1.579-7.5,2.672-11.162.884-2.966-3.747-4.234-4.629-1.276Z"/><path class="c" d="M154.342,119.608c-9.927,9.366-22.453,15.269-35.732,18.11a108.415,108.415,0,0,1-38.369.855A119.18,119.18,0,0,1,61.9,134.245c-3.4-1.073-6.763-2.259-10.091-3.533q-1.05-.4-2.092-.822-.547-.22-1.093-.446l-.574-.238-.107-.045c.242.1-.173-.074-.213-.091-9.094-3.913-18.014-8.7-25.659-15.044A53.319,53.319,0,0,1,10.9,101.782a39.6,39.6,0,0,1-6.01-17.7c-1.08-12.82,4.534-24.935,13.069-34.239,9.023-9.837,20.994-16.736,33.478-21.215a102.723,102.723,0,0,1,40.8-5.844,92.405,92.405,0,0,1,35.63,9.366A84.859,84.859,0,0,1,156.37,55.177a82.088,82.088,0,0,1,5.2,7.393c1.643,2.607,5.8.2,4.145-2.423A89.021,89.021,0,0,0,138.25,32.512,94.28,94.28,0,0,0,102.1,19.053a106.767,106.767,0,0,0-41.807,1.881c-14.077,3.485-27.833,9.82-39.017,19.133C11,48.621,2.559,60.484.5,73.926A45.177,45.177,0,0,0,11.773,110.8c7.48,8.411,17.314,14.67,27.356,19.584A147.394,147.394,0,0,0,70.45,141.582a117.661,117.661,0,0,0,39.121,2.406c14.168-1.562,28.156-5.974,39.887-14.231A74.8,74.8,0,0,0,157.737,123c2.251-2.124-1.148-5.514-3.395-3.394Z"/></svg>