<svg width="128" height="113" xmlns="http://www.w3.org/2000/svg">
 <g id="Layer_1">
  <title>Layer 1</title>
  <g>

   <g id="svg_2">
    <path fill="#ffffff" stroke-width="0px" d="m314.76252,186.54485c-10.257,-9.828 -23.882,-13.923 -37.816,-13.923c-13.823,0 -27.56,4.095 -37.816,13.923c-19.524,18.71 -21.779,54.099 -4.601,74.984c10.185,12.383 26.208,19.091 42.41,19.093c16.006,0 32.237,-6.709 42.424,-19.093c17.178,-20.885 14.924,-56.274 -4.601,-74.984zm-26.92,49.043c-2.617,3.181 -6.786,4.905 -10.898,4.905c-4.162,0 -8.278,-1.724 -10.894,-4.905c-4.413,-5.365 -3.834,-14.456 1.182,-19.262c2.635,-2.525 6.164,-3.577 9.714,-3.577c3.58,0 7.08,1.052 9.714,3.577c5.015,4.806 5.595,13.897 1.182,19.262z" class="f"/>
    <path fill="#211715" stroke-width="0px" d="m276.93852,278.22085c-11.545,-0.04 -22.985,-3.527 -32.319,-10.386c-8.308,-6.105 -14.151,-14.907 -17.026,-24.761c-5.454,-18.696 -1.087,-41.121 13.234,-54.833c8.609,-8.244 20.287,-12.404 32.059,-13.101c11.691,-0.692 23.72,1.534 33.662,7.947c17.145,11.059 24.453,33.289 21.336,52.903c-1.56,9.817 -5.634,19.233 -12.549,26.467c-7.947,8.315 -18.777,13.392 -30.073,15.152c-2.751,0.429 -5.541,0.602 -8.324,0.611c-3.088,0.011 -3.094,4.811 0,4.8c12.363,-0.042 24.887,-3.79 34.882,-11.155c9.252,-6.817 15.811,-16.343 19.06,-27.354c5.996,-20.324 1.132,-44.76 -14.421,-59.665c-9.365,-8.975 -21.855,-13.552 -34.661,-14.457c-12.681,-0.896 -25.989,1.584 -36.792,8.506c-19.126,12.253 -27.054,36.393 -23.653,58.203c1.665,10.678 6.318,20.899 13.806,28.753c8.536,8.953 20.314,14.637 32.498,16.445c3.078,0.457 6.17,0.714 9.282,0.725c3.089,0.011 3.093,-4.789 0,-4.8l-0.001,0z" class="g"/>
    <path fill="#211715" stroke-width="0px" d="m276.94452,235.49285c-0.39,-0.005 -0.779,-0.037 -1.168,-0.045c-1.244,-0.027 0.732,0.177 -0.021,0.011c-0.696,-0.154 -1.386,-0.283 -2.068,-0.501c-0.119,-0.038 -0.7,-0.19 -0.728,-0.254l0.482,0.212c-0.234,-0.103 -0.466,-0.213 -0.694,-0.329c-0.66,-0.337 -1.403,-0.709 -1.953,-1.208c0.819,0.743 0.268,0.207 0.122,0.057c-0.268,-0.275 -0.56,-0.523 -0.823,-0.804c-0.051,-0.055 -0.887,-1.014 -0.319,-0.334c0.531,0.636 -0.127,-0.206 -0.187,-0.298c-0.303,-0.465 -0.545,-0.952 -0.807,-1.439c-0.539,-1.002 0.325,1.062 -0.008,-0.028c-0.097,-0.319 -0.215,-0.629 -0.306,-0.951c-0.035,-0.123 -0.404,-1.625 -0.364,-1.633l0.084,0.664c-0.027,-0.223 -0.049,-0.447 -0.066,-0.671c-0.021,-0.281 -0.034,-0.561 -0.041,-0.843c-0.013,-0.564 0.004,-1.127 0.051,-1.689c0.088,-1.061 -0.076,0.139 -0.038,0.155c-0.054,-0.022 0.204,-1.05 0.229,-1.158c0.143,-0.603 0.343,-1.18 0.531,-1.769c0.229,-0.714 -0.159,0.18 -0.125,0.266c-0.048,-0.12 0.378,-0.778 0.441,-0.896c0.263,-0.489 0.569,-0.944 0.873,-1.408c0.58,-0.885 -0.591,0.493 -0.069,0.102c0.29,-0.217 0.529,-0.586 0.794,-0.84c0.01,-0.01 1.004,-0.877 0.407,-0.391c-0.585,0.476 0.434,-0.281 0.46,-0.297c0.258,-0.163 2.009,-1.15 0.892,-0.557c0.556,-0.295 1.247,-0.442 1.856,-0.592c0.316,-0.078 0.824,-0.27 1.15,-0.235c-1.178,-0.127 -0.131,0.023 0.231,-0.001c0.723,-0.049 1.449,-0.052 2.173,-0.011c0.315,0.018 0.679,0.003 0.984,0.082c-1.273,-0.333 -0.021,0.024 0.219,0.077c0.637,0.139 1.253,0.334 1.871,0.541c0.932,0.312 -0.011,-0.045 -0.118,-0.055c0.407,0.037 1.027,0.534 1.368,0.751c0.222,0.141 0.437,0.29 0.651,0.443c-0.973,-0.695 0.061,0.099 0.213,0.245c0.199,0.191 0.378,0.402 0.575,0.593l0.111,0.122c0.344,0.411 0.292,0.33 -0.156,-0.244c0.342,0.168 0.709,1.036 0.907,1.384c0.165,0.29 0.307,0.59 0.462,0.884c0.526,0.997 -0.335,-1.038 0.015,0.037c0.174,0.534 0.357,1.06 0.493,1.605c0.081,0.328 0.137,0.66 0.212,0.989c0.25,1.107 -0.061,-0.894 -0.013,-0.158c0.037,0.564 0.088,1.121 0.087,1.687c0,0.282 -0.007,0.563 -0.023,0.844c-0.012,0.224 -0.029,0.449 -0.051,0.672c-0.05,0.445 -0.049,0.446 0.005,0.003l0.042,-0.332c-0.036,0.221 -0.078,0.44 -0.124,0.659c-0.081,0.382 -0.177,0.76 -0.288,1.133c-0.079,0.266 -0.178,0.526 -0.259,0.791c-0.287,0.937 0.53,-0.922 -0.081,0.176c-0.315,0.567 -0.729,1.124 -1.013,1.699c-0.289,0.586 0.877,-0.912 0.031,-0.062c-0.317,0.319 -0.61,0.655 -0.943,0.96c-0.209,0.192 -0.829,0.835 -0.024,0.073c-0.313,0.297 -0.751,0.523 -1.12,0.743c-0.276,0.164 -0.556,0.32 -0.842,0.465c-0.229,0.116 -0.462,0.226 -0.697,0.329c0.543,-0.227 0.642,-0.276 0.298,-0.146c-0.75,0.2 -1.467,0.469 -2.234,0.62c-0.411,0.081 -0.985,0.426 -0.009,0.023c-0.404,0.167 -1.108,0.075 -1.541,0.08c-2.614,0.034 -5.122,2.275 -5,5c0.12,2.68 2.198,5.037 5,5c8.225,-0.108 15.694,-5.081 18.077,-13.093c1.997,-6.713 0.244,-14.914 -4.974,-19.746c-6.11,-5.659 -16.395,-6.586 -23.46,-2.114c-6.681,4.228 -9.313,12.162 -8.179,19.736c1.36,9.087 9.624,15.102 18.536,15.218c2.616,0.034 5.12,-2.324 5,-5c-0.123,-2.738 -2.196,-4.963 -5,-5l0.001,0.001z" class="g"/>
    <path fill="#211715" stroke-width="0px" d="m32.01352,182.62285c0,23.214 0,46.429 0,69.643c0,6.633 0,13.265 0,19.898c0,3.089 4.8,3.094 4.8,0c0,-23.214 0,-46.429 0,-69.643c0,-6.633 0,-13.265 0,-19.898c0,-3.089 -4.8,-3.094 -4.8,0l0,0z" class="g"/>
    <path fill="#211715" stroke-width="0px" d="m64.50352,181.46485c0,23.879 0,47.759 0,71.638l0,20.219c0,3.089 4.8,3.094 4.8,0c0,-23.879 0,-47.759 0,-71.638l0,-20.219c0,-3.089 -4.8,-3.094 -4.8,0l0,0z" class="g"/>
    <path fill="#211715" stroke-width="0px" d="m96.99452,179.92085c0,23.879 0,47.759 0,71.638c0,6.74 0,13.479 0,20.219c0,3.089 4.8,3.094 4.8,0c0,-23.879 0,-47.759 0,-71.638l0,-20.219c0,-3.089 -4.8,-3.094 -4.8,0l0,0z" class="g"/>
    <path fill="#6e6867" stroke-width="0px" d="m113.12452,230.47485l0,0c0,3.028 -2.477,5.505 -5.505,5.505l-16.28,0c-3.028,0 -5.505,-2.477 -5.505,-5.505l0,0c0,-3.035 2.457,-5.495 5.492,-5.495c4.744,0 11.555,0 16.31,0c3.035,0 5.489,2.46 5.489,5.495l-0.001,0z" class="e"/>
    <path fill="#211715" stroke-width="0px" d="m110.72452,230.47485c0,1.761 -1.419,3.02 -3.11,3.105c-0.692,0.035 -1.395,0 -2.088,0l-9.892,0c-1.893,0 -5.005,0.566 -6.486,-0.914c-1.283,-1.283 -1.201,-3.451 0.227,-4.602c0.691,-0.557 1.444,-0.678 2.302,-0.684c1.414,-0.009 2.828,0 4.243,0c3.298,0 6.595,0 9.893,0c1.233,0 2.558,-0.203 3.614,0.568c0.836,0.611 1.267,1.504 1.299,2.527c0.096,3.081 4.896,3.095 4.8,0c-0.107,-3.457 -2.24,-6.491 -5.578,-7.549c-1.622,-0.514 -3.426,-0.345 -5.102,-0.345c-1.789,0 -3.579,0 -5.368,0s-3.576,0 -5.365,0c-1.629,0 -3.352,-0.151 -4.937,0.299c-3.345,0.951 -5.742,4.114 -5.741,7.595c0,3.349 2.181,6.293 5.283,7.448c1.389,0.517 2.849,0.458 4.301,0.458l11.772,0c1.377,0 2.791,0.089 4.156,-0.129c3.735,-0.595 6.579,-4.006 6.579,-7.777c0,-3.089 -4.8,-3.094 -4.8,0l-0.002,0z" class="g"/>
    <path fill="#6e6867" stroke-width="0px" d="m80.54952,209.13685l0,0c0,3.028 -2.477,5.505 -5.505,5.505l-16.28,0c-3.028,0 -5.505,-2.477 -5.505,-5.505l0,0c0,-3.035 2.457,-5.495 5.492,-5.495c4.744,0 11.555,0 16.31,0c3.035,0 5.489,2.46 5.489,5.495l-0.001,0z" class="e"/>
    <path fill="#211715" stroke-width="0px" d="m78.14952,209.13685c0,1.761 -1.419,3.02 -3.11,3.105c-0.692,0.035 -1.395,0 -2.088,0l-9.892,0c-1.893,0 -5.005,0.566 -6.486,-0.914c-1.283,-1.283 -1.201,-3.451 0.227,-4.602c0.691,-0.557 1.444,-0.678 2.302,-0.684c1.414,-0.009 2.828,0 4.243,0c3.298,0 6.595,0 9.893,0c1.233,0 2.558,-0.203 3.614,0.568c0.836,0.611 1.267,1.504 1.299,2.527c0.096,3.081 4.896,3.095 4.8,0c-0.107,-3.457 -2.24,-6.491 -5.578,-7.549c-1.622,-0.514 -3.426,-0.345 -5.102,-0.345c-1.789,0 -3.579,0 -5.368,0s-3.576,0 -5.365,0c-1.629,0 -3.352,-0.151 -4.937,0.299c-3.345,0.951 -5.742,4.114 -5.741,7.595c0,3.349 2.181,6.293 5.283,7.448c1.389,0.517 2.849,0.458 4.301,0.458l11.772,0c1.377,0 2.791,0.089 4.156,-0.129c3.735,-0.595 6.579,-4.006 6.579,-7.777c0,-3.089 -4.8,-3.094 -4.8,0l-0.002,0z" class="g"/>
    <path fill="#6e6867" stroke-width="0px" d="m48.05852,257.76685l0,0c0,3.028 -2.477,5.505 -5.505,5.505l-16.28,0c-3.028,0 -5.505,-2.477 -5.505,-5.505l0,0c0,-3.035 2.457,-5.495 5.492,-5.495c4.744,0 11.555,0 16.31,0c3.035,0 5.489,2.46 5.489,5.495l-0.001,0z" class="e"/>
    <path fill="#211715" stroke-width="0px" d="m45.65852,257.76685c0,1.761 -1.419,3.02 -3.11,3.105c-0.692,0.035 -1.395,0 -2.088,0l-9.892,0c-1.893,0 -5.005,0.566 -6.486,-0.914c-1.283,-1.283 -1.201,-3.451 0.227,-4.602c0.691,-0.557 1.444,-0.678 2.302,-0.684c1.414,-0.009 2.828,0 4.243,0c3.298,0 6.595,0 9.893,0c1.233,0 2.558,-0.203 3.614,0.568c0.836,0.611 1.267,1.504 1.299,2.527c0.096,3.081 4.896,3.095 4.8,0c-0.107,-3.457 -2.24,-6.491 -5.578,-7.549c-1.622,-0.514 -3.426,-0.345 -5.102,-0.345c-1.789,0 -3.579,0 -5.368,0s-3.576,0 -5.365,0c-1.629,0 -3.352,-0.151 -4.937,0.299c-3.345,0.951 -5.742,4.114 -5.741,7.595c0,3.349 2.181,6.293 5.283,7.448c1.389,0.517 2.849,0.458 4.301,0.458l11.772,0c1.377,0 2.791,0.089 4.156,-0.129c3.735,-0.595 6.579,-4.006 6.579,-7.777c0,-3.089 -4.8,-3.094 -4.8,0l-0.002,0z" class="g"/>
    <path fill="#211715" stroke-width="0px" d="m218.54652,47.35385c0,6.178 0,12.357 0,18.535c0,3.089 4.8,3.094 4.8,0c0,-6.178 0,-12.357 0,-18.535c0,-3.089 -4.8,-3.094 -4.8,0l0,0z" class="g"/>
    <path fill="#211715" stroke-width="0px" d="m232.54652,31.46685c0,15.887 0,31.775 0,47.662c0,3.089 4.8,3.094 4.8,0c0,-15.887 0,-31.775 0,-47.662c0,-3.089 -4.8,-3.094 -4.8,0l0,0z" class="g"/>
    <path fill="#211715" stroke-width="0px" d="m330.54652,47.35385c0,6.178 0,12.357 0,18.535c0,3.089 4.8,3.094 4.8,0c0,-6.178 0,-12.357 0,-18.535c0,-3.089 -4.8,-3.094 -4.8,0l0,0z" class="g"/>
    <path fill="#211715" stroke-width="0px" d="m316.54652,31.46685c0,15.887 0,31.775 0,47.662c0,3.089 4.8,3.094 4.8,0c0,-15.887 0,-31.775 0,-47.662c0,-3.089 -4.8,-3.094 -4.8,0l0,0z" class="g"/>
    <path fill="#211715" stroke-width="0px" d="m274.54652,47.35385c0,6.178 0,12.357 0,18.535c0,3.089 4.8,3.094 4.8,0c0,-6.178 0,-12.357 0,-18.535c0,-3.089 -4.8,-3.094 -4.8,0l0,0z" class="g"/>
    <path fill="#211715" stroke-width="0px" d="m260.54652,31.46685c0,15.887 0,31.775 0,47.662c0,3.089 4.8,3.094 4.8,0c0,-15.887 0,-31.775 0,-47.662c0,-3.089 -4.8,-3.094 -4.8,0l0,0z" class="g"/>
    <path fill="#211715" stroke-width="0px" d="m246.54652,17.43285l0,78.113c0,3.089 4.8,3.094 4.8,0l0,-78.113c0,-3.089 -4.8,-3.094 -4.8,0l0,0z" class="g"/>
    <path fill="#211715" stroke-width="0px" d="m288.54652,31.46685c0,15.887 0,31.775 0,47.662c0,3.089 4.8,3.094 4.8,0c0,-15.887 0,-31.775 0,-47.662c0,-3.089 -4.8,-3.094 -4.8,0l0,0z" class="g"/>
    <path fill="#211715" stroke-width="0px" d="m302.54652,17.43285l0,78.113c0,3.089 4.8,3.094 4.8,0l0,-78.113c0,-3.089 -4.8,-3.094 -4.8,0l0,0z" class="g"/>
    <path stroke-width="0px" fill="#ffda71" d="m79.42652,12.21985c-0.156,0.04 -0.311,0.1 -0.462,0.182l-28.361,15.319s-7.291,3.938 -14.583,7.877l-1.585,0s-17.023,0 -17.023,0c-1.411,0 -2.555,1.144 -2.555,2.555l0,36.674c0,1.411 1.144,2.554 2.555,2.554c6.2,-0.003 12.4,-0.002 18.6,-0.002c6.531,3.527 13.061,7.055 13.061,7.055l29.89,16.145c1.333,0.72 2.95,-0.245 2.95,-1.76l0,-0.93s0,-83.726 0,-83.726c0,-1.343 -1.272,-2.253 -2.489,-1.941l0.002,-0.002z" class="d"/>
    <path fill="#211715" stroke-width="0px" d="m78.84152,10.09885c-1.724,0.557 -3.355,1.682 -4.936,2.536l-9.574,5.171c-4.934,2.665 -9.868,5.33 -14.803,7.996c-4.873,2.632 -9.746,5.264 -14.619,7.896l1.11,-0.3c-5.107,0 -10.213,0 -15.32,0c-2.391,0 -5.112,-0.381 -6.867,1.638c-1.311,1.51 -1.175,3.309 -1.175,5.14l0,32.504c0,2.336 -0.077,4.703 2.219,6.16c1.438,0.912 3.112,0.74 4.739,0.739c1.795,0 3.59,0 5.384,-0.001c3.671,0 7.342,0 11.013,0l-1.11,-0.3c9.993,5.398 19.986,10.795 29.979,16.193l12.511,6.758c0.767,0.414 1.547,0.78 2.449,0.791c2.529,0.03 4.223,-2.046 4.273,-4.443c0.013,-0.615 0,-1.233 0,-1.849l0,-77.151c0,-1.799 0.078,-3.618 0,-5.416c-0.124,-2.865 -2.551,-4.537 -5.274,-4.063c-1.171,0.204 -1.83,1.64 -1.537,2.706c0.34,1.237 1.532,1.741 2.706,1.537c-0.435,0.076 -0.209,-0.373 -0.296,-0.039c-0.05,0.191 0,0.465 0,0.662l0,82.037c0,0.482 -0.03,0.983 0,1.463c0.053,0.855 0.261,-0.225 0.36,0.213c-0.007,-0.03 -0.132,-0.06 -0.152,-0.082c-0.237,-0.263 -0.825,-0.445 -1.133,-0.612c-8.442,-4.56 -16.884,-9.12 -25.326,-13.68c-2.853,-1.541 -5.707,-3.082 -8.56,-4.624c-2.303,-1.244 -4.607,-2.488 -6.911,-3.733c-0.641,-0.346 -1.236,-0.717 -1.981,-0.77c-0.725,-0.052 -1.477,0 -2.203,0c-1.387,0 -2.774,0 -4.161,0c-2.774,0 -5.547,0 -8.321,0c-0.734,0 -1.468,0 -2.203,0c-0.396,0 -1.394,0.16 -1.76,-0.005c-0.224,-0.101 -0.232,-0.145 -0.308,-0.368c-0.254,-0.738 0,-2.023 0,-2.79l0,-6.223c0,-5.491 0,-10.982 0,-16.473c0,-3.59 -0.15,-7.215 0,-10.802c0.036,-0.864 0.565,-0.72 1.333,-0.72l6.914,0c2.485,0 4.97,0 7.455,0l1.634,0c0.632,0 1.298,0.068 1.92,-0.039c1.32,-0.227 2.685,-1.27 3.86,-1.904c4.294,-2.319 8.588,-4.639 12.882,-6.958c8.32,-4.494 16.639,-8.988 24.959,-13.482l1.513,-0.817c0.099,-0.053 0.618,-0.299 0.483,-0.255c2.683,-0.867 1.536,-5.117 -1.17,-4.243l0.004,0.002z" class="g"/>
    <path fill="#211715" stroke-width="0px" d="m35.14752,45.43885c0,7.367 0,14.734 0,22.101c0,2.831 4.4,2.836 4.4,0c0,-7.367 0,-14.734 0,-22.101c0,-2.831 -4.4,-2.836 -4.4,0l0,0z" class="g"/>
    <path fill="#211715" stroke-width="0px" d="m95.03452,34.68985c9.036,0.065 17.454,5.764 20.503,14.358c3.082,8.686 0.4,18.378 -6.652,24.289c-3.863,3.238 -8.841,4.918 -13.852,4.953c-2.83,0.02 -2.837,4.42 0,4.4c10.979,-0.079 20.819,-6.983 24.633,-17.275c3.775,-10.187 0.496,-22.227 -7.921,-29.09c-4.746,-3.87 -10.581,-5.99 -16.711,-6.034c-2.832,-0.02 -2.835,4.38 0,4.4l0,0l0,-0.001z" class="g"/>
    <path fill="#211715" stroke-width="0px" d="m95.03452,46.68985c5.344,0.073 9.807,4.393 9.8,9.8s-4.446,9.727 -9.8,9.8c-2.829,0.039 -2.837,4.439 0,4.4c5.955,-0.082 11.212,-3.744 13.326,-9.313c2.057,-5.417 0.362,-11.951 -4.092,-15.665c-2.625,-2.189 -5.814,-3.375 -9.234,-3.422c-2.832,-0.039 -2.834,4.361 0,4.4l0,0z" class="g"/>
   </g>
  </g>
 </g>

</svg>