<svg id="b" xmlns="http://www.w3.org/2000/svg" width="231.637" height="304.549" viewBox="0 0 231.637 304.549" style="color: initial !important;"><defs><style>.d{fill:#74c66d;}.e{fill:#211715;}.f{fill:#febe69;}</style></defs><g id="c"><path class="d" d="M30.267,231.768c-7.795-7.94-16.661-14.968-26.404-20.792-1.018-.608-2.046.76-1.195,1.586,24.619,23.868,34.83,57.137,40.732,89.554,6.973,0,14.466,0,22.015,0-3.435-26.077-16.093-50.939-35.148-70.347Z"/><path class="d" d="M115.64,219.59c-22.534,20.506-37.769,50.605-41.323,82.526h18.608c4.968-32.285,13.549-65.416,34.176-89.262.776-.897-.382-2.15-1.346-1.459-3.513,2.52-6.889,5.259-10.115,8.195Z"/><path class="f" d="M163.222,111.295c6.834-3.69,14.503-6.405,22.173-7.714.237-.04.475-.077.712-.113-.703.108-.103.013.073-.002,1.454-.131,2.907-.273,4.363-.387,2.668-.21,5.342-.361,8.018-.401,5.045-.076,10.105.237,15.033,1.372,5.209,1.201,10.114,3.257,14.432,6.435,1.045.769,2.678.174,3.284-.861.713-1.219.186-2.513-.861-3.284-8.456-6.223-19.142-8.343-29.458-8.467-8.481-.102-16.898.626-25.03,3.077-5.228,1.576-10.354,3.605-15.161,6.201-2.719,1.468-.298,5.614,2.423,4.145h0Z"/><path class="f" d="M161.138,120.004c6.504-3.712,13.107-6.663,20.53-8.033,5.163-.953,10.581-1.276,15.798-.582,4.876.649,9.487,2.354,13.73,4.814,4.652,2.697,8.72,6.214,12.238,10.27,2.028,2.338,5.41-1.07,3.394-3.394-6.811-7.852-16.125-14.166-26.471-16.058-10.365-1.896-21.579-.332-31.295,3.638-3.595,1.468-6.98,3.28-10.347,5.201-2.683,1.531-.267,5.68,2.423,4.145h0Z"/><path class="f" d="M152.232,123.564c9.96-3.706,20.739-4.703,31.267-3.469,7.944.931,15.695,3.368,21.945,8.527,3.971,3.278,7.188,7.292,10.032,11.559,1.705,2.558,5.864.158,4.145-2.423-2.761-4.143-5.833-8.141-9.554-11.473s-7.986-5.949-12.633-7.805c-3.562-1.423-7.372-2.254-11.157-2.816-5.196-.772-10.449-1.05-15.695-.739-6.692.397-13.337,1.67-19.626,4.01-1.214.452-2.041,1.624-1.676,2.952.321,1.167,1.731,2.131,2.952,1.676h0Z"/><path class="f" d="M158.994,126.259c14.023-2.5,28.579,3.154,37.335,14.349,2.28,2.916,4.168,6.215,5.512,9.663.47,1.207,1.611,2.045,2.952,1.676,1.152-.317,2.149-1.738,1.676-2.952-5.718-14.679-18.904-25.477-34.59-27.655-4.736-.658-9.454-.549-14.161.291-1.277.228-1.997,1.785-1.676,2.952.37,1.346,1.672,1.905,2.952,1.676h0Z"/><path class="e" d="M76.175,302.113c2.451-24.937,7.352-49.812,14.914-73.712,7.048-22.279,16.09-44.092,27.762-64.359,6.742-11.707,14.389-22.886,22.921-33.362.818-1.004.982-2.412,0-3.394-.845-.845-2.571-1.01-3.394,0-15.392,18.898-27.886,39.871-37.697,62.165-9.596,21.804-17.082,44.485-22.182,67.755-3.246,14.811-5.641,29.817-7.124,44.907-.127,1.292,1.194,2.4,2.4,2.4,1.403,0,2.273-1.104,2.4-2.4h0Z"/><path class="e" d="M141.776,130.685c7.236-8.883,15.219-17.225,24.721-23.709,4.905-3.347,10.127-6.37,15.704-8.446,5.647-2.102,11.588-3.436,17.591-3.956,7.029-.609,14.123-.223,21.046,1.129,1.271.248,2.591-.36,2.952-1.676.324-1.178-.398-2.703-1.676-2.952-12.823-2.504-26.312-2.111-38.776,1.981-11.716,3.847-22.291,11.041-31.275,19.385-4.939,4.587-9.428,9.628-13.682,14.85-.818,1.004-.982,2.412,0,3.394.845.845,2.571,1.01,3.394,0h0Z"/><path class="e" d="M152.161,119.628c6.65-5.796,14.784-9.672,23.175-12.229,8.223-2.505,16.896-4.156,25.502-3.057,4.759.608,9.405,2.104,13.469,4.673,2.619,1.656,5.03-2.496,2.423-4.145-8.037-5.082-18.107-6.396-27.423-5.351s-18.581,3.757-26.99,7.82c-4.888,2.362-9.455,5.325-13.55,8.893-2.333,2.033,1.074,5.416,3.394,3.394h0Z"/><path class="e" d="M150.928,120.751c8.183-4.665,17.776-6.55,27.088-7.157,9.137-.595,18.589-.282,27.231,3.027,4.499,1.722,8.575,4.4,11.803,7.983,2.072,2.3,5.458-1.103,3.394-3.394-6.579-7.303-16.105-10.79-25.646-12.044-10.018-1.317-20.636-.665-30.483,1.532-5.501,1.227-10.904,3.111-15.811,5.909-2.683,1.53-.268,5.678,2.423,4.145h0Z"/><path class="e" d="M148.787,126.423c13.867-5.566,29.8-5.942,43.932-1.107,3.742,1.28,7.313,2.972,10.661,5.079,2.622,1.65,5.034-2.502,2.423-4.145-13.352-8.402-30.144-10.648-45.525-8.034-4.369.743-8.653,1.927-12.766,3.578-1.202.483-2.047,1.601-1.676,2.952.314,1.142,1.742,2.162,2.952,1.676h0Z"/><path class="e" d="M141.488,130.818c6.828-4.951,16.147-5.362,24.118-3.477,6.886,1.628,13.284,5.338,17.975,10.626,3.337,3.761,6.515,8.158,7.655,13.119.692,3.009,5.321,1.736,4.629-1.276-1.193-5.191-4.294-9.639-7.602-13.719-2.537-3.128-5.508-5.885-8.911-8.051-7.441-4.737-16.733-7.126-25.537-6.423-5.137.41-10.544,2.007-14.748,5.056-1.048.76-1.561,2.087-.861,3.284.605,1.035,2.229,1.626,3.284.861h0Z"/><path class="f" d="M129.142,50.957c16.626-7.046,36.125-2.63,48.887,9.853,2.21,2.162,5.607-1.229,3.394-3.394-10.907-10.67-26.321-16.211-41.524-14.229-4.578.597-8.932,1.825-13.179,3.625-1.194.506-1.456,2.267-.861,3.284.723,1.236,2.085,1.369,3.284.861h0Z"/><path class="f" d="M120.124,52.781c2.817-2.801,6.068-5.134,9.423-7.244,3.734-2.348,7.675-4.479,11.821-6.006,4.333-1.595,8.152-1.982,12.774-1.987,5.552-.005,11.149.672,16.432,2.432,5.432,1.809,10.299,4.971,14.576,8.736,2.31,2.034,5.718-1.348,3.394-3.394-4.189-3.688-8.785-6.794-13.95-8.94-5.562-2.31-11.646-3.32-17.64-3.575-5.058-.216-10.266-.047-15.122,1.502-4.595,1.465-8.99,3.651-13.124,6.118-4.262,2.543-8.449,5.455-11.978,8.965-2.193,2.181,1.2,5.576,3.394,3.394h0Z"/><path class="f" d="M140.941,34.217c2.705-2.705,6.523-3.78,10.087-4.851,4.378-1.315,8.852-2.243,13.425-2.469,8.416-.415,16.914,1.401,23.987,6.099,2.58,1.714,4.987-2.442,2.423-4.145-6.16-4.091-13.416-6.195-20.756-6.701-7.6-.524-15.109.907-22.328,3.191-3.719,1.177-7.428,2.677-10.232,5.481-2.187,2.187,1.206,5.582,3.394,3.394h0Z"/><path class="f" d="M142.461,29.549c5.83-6.074,13.731-9.794,21.701-12.187,9.229-2.77,19.042-3.506,28.547-1.804,1.275.228,2.587-.346,2.952-1.676.319-1.162-.394-2.723-1.676-2.952-15.309-2.741-31.741-.013-45.252,7.78-3.527,2.034-6.842,4.504-9.666,7.445-2.14,2.229,1.25,5.628,3.394,3.394h0Z"/><path class="e" d="M179.777.006c-10.467.85-20.468,4.497-29.36,10.028-8.842,5.5-16.308,12.661-22.928,20.647-13.644,16.462-24.234,35.094-32.381,54.823-8.08,19.566-13.72,40.05-18.232,60.704-5.075,23.235-8.66,46.683-10.436,70.406-1.84,24.577-2.037,49.25-1.443,73.879.073,3.043.16,6.085.256,9.128.097,3.081,4.897,3.095,4.8,0-.765-24.285-.864-48.61.52-72.876,1.352-23.707,4.335-47.181,9.074-70.449,4.16-20.431,9.234-40.739,16.487-60.311,7.207-19.446,16.713-38.088,29.117-54.751,6.086-8.176,12.776-16.019,20.821-22.337,7.812-6.135,16.89-10.852,26.616-13.017,2.34-.521,4.699-.881,7.088-1.075,1.292-.105,2.4-1.028,2.4-2.4,0-1.217-1.101-2.506-2.4-2.4h0Z"/><path class="e" d="M127.507,41.42c11.156-10.214,24.026-19.059,38.936-22.587,4.187-.991,8.743-1.804,13.054-1.376,1.292.128,2.4-1.195,2.4-2.4,0-1.405-1.105-2.271-2.4-2.4-4.06-.403-8.374.307-12.348,1.112s-7.885,2.008-11.656,3.521c-7.475,2.998-14.412,7.097-20.837,11.938-3.659,2.758-7.164,5.704-10.543,8.798-2.283,2.09,1.118,5.478,3.394,3.394h0Z"/><path class="e" d="M119.041,52.364c5.687-5.772,12.032-10.885,19.312-14.508,7.664-3.814,16.267-6.467,24.762-7.53,5.489-.687,11.045-.654,16.54-.051,1.29.142,2.4-1.204,2.4-2.4,0-1.415-1.106-2.258-2.4-2.4-9.944-1.092-19.94-.089-29.526,2.745-7.903,2.336-15.578,5.613-22.34,10.362-4.369,3.069-8.398,6.587-12.142,10.387-2.17,2.202,1.222,5.599,3.394,3.394h0Z"/><path class="e" d="M119.518,56.347c5.712-4.522,12.49-7.675,19.41-9.85,7.348-2.31,15-3.675,22.71-2.825,4.163.459,8.285,1.665,12.005,3.587,2.74,1.416,5.171-2.725,2.423-4.145-15.147-7.824-33.42-4.376-48.223,2.579-4.186,1.966-8.094,4.39-11.719,7.26-1.017.805-.842,2.552,0,3.394,1.005,1.005,2.374.807,3.394,0h0Z"/><path class="e" d="M111.458,63.419c5.987-5.141,13.807-7.809,21.509-8.999,8.244-1.274,16.925-.653,24.489,3.073,4.287,2.112,8.001,5.035,11.085,8.682.837.99,2.531.863,3.394,0,.981-.981.84-2.401,0-3.394-6.26-7.403-15.249-12.012-24.809-13.327-8.592-1.182-17.801.022-25.921,3.019-4.797,1.771-9.253,4.214-13.141,7.553-.984.845-.868,2.527,0,3.394.975.975,2.408.847,3.394,0h0Z"/><path class="e" d="M67.148,297.588c-2.297-13.573-7.035-26.698-13.687-38.741-6.742-12.209-15.492-23.355-25.691-32.863-5.216-4.863-10.829-9.317-16.743-13.3-1.516-1.021-3.054-2.011-4.612-2.968-1.692-1.039-3.666-2.01-5.371-.36-1.598,1.547-1.232,3.712.222,5.188,1.345,1.366,2.703,2.714,4.001,4.127,9.78,10.656,17.232,23.325,22.71,36.673,5.565,13.56,9.291,27.81,12.118,42.17.346,1.758.678,3.518.999,5.281.233,1.276,1.782,1.998,2.952,1.676,1.342-.369,1.91-1.673,1.676-2.952-4.707-25.799-12.042-51.931-27.118-73.744-2.103-3.043-4.348-5.992-6.724-8.827-1.221-1.456-2.479-2.881-3.775-4.271-1.266-1.358-2.781-2.6-3.928-4.052l.617,1.059c-.015.79-.419,1.314-1.21,1.571l-1.211-.328c1.61.692,3.134,1.864,4.6,2.82,1.528.996,3.035,2.024,4.52,3.084,2.895,2.065,5.696,4.253,8.404,6.558,5.43,4.62,10.485,9.68,15.1,15.114,8.993,10.59,16.321,22.731,21.309,35.707,2.815,7.325,4.903,14.917,6.213,22.654.216,1.279,1.793,1.995,2.952,1.676,1.355-.372,1.893-1.67,1.676-2.952h0Z"/><path class="e" d="M76.717,302.116c2.874-25.461,13.378-50.303,30.004-69.838,4.093-4.81,8.555-9.308,13.36-13.409,1.143-.975,2.305-1.928,3.486-2.857.526-.414,1.059-.82,1.595-1.222.3-.224.6-.447.902-.668.201-.147.403-.294.605-.44,1.02-.582.513-1.325-1.521-2.228-.576.345-1.123,1.329-1.55,1.851-.509.623-1.009,1.252-1.504,1.886-1.114,1.43-2.201,2.88-3.247,4.36-7.807,11.05-13.474,23.508-17.764,36.302-4.974,14.834-8.098,30.226-10.479,45.667-.197,1.279.325,2.581,1.676,2.952,1.137.312,2.754-.388,2.952-1.676,2.224-14.419,5.097-28.784,9.513-42.705,4.274-13.473,10.068-26.537,18.246-38.117,1.003-1.42,2.037-2.818,3.118-4.179,1.059-1.334,2.668-2.726,3.357-4.277.807-1.818-.243-4.028-2.159-4.579-1.899-.546-3.309.76-4.718,1.819-5.342,4.014-10.344,8.455-14.939,13.308-9.28,9.803-16.978,21.119-22.835,33.273-5.994,12.438-10.175,25.748-12.2,39.411-.264,1.784-.497,3.574-.699,5.366-.146,1.29,1.207,2.4,2.4,2.4,1.418,0,2.254-1.106,2.4-2.4h0Z"/><path class="d" d="M6.722,161.1c-.941-1.318-1.892-2.624-2.852-3.918-.641-.864.348-1.992,1.289-1.472,15.677,8.657,28.538,25.516,37.952,41.448,15.892,26.891,26.636,59.72,30.198,91.696.491,4.404.824,8.83,1.008,13.263-3.412,0-9.959,0-16.943,0-3.048-51.301-22.335-101.356-50.653-141.016Z"/><path class="e" d="M76.717,302.116c-.978-22.933-5.825-45.786-13.531-67.383-7.294-20.439-17.226-40.242-30.613-57.393-6.317-8.093-13.592-15.608-22.2-21.28-1.938-1.277-4.819-3.766-7.235-2.494-1.123.592-1.896,1.802-1.862,3.091.039,1.481,1.17,2.607,1.993,3.737,3.09,4.247,6.053,8.585,8.889,13.005,11.485,17.899,20.916,37.124,28.021,57.169,7.263,20.488,12.186,41.863,14.186,63.519.247,2.672.448,5.347.609,8.025.185,3.069,4.986,3.09,4.8,0-1.281-21.23-5.239-42.279-11.56-62.582-6.202-19.924-14.632-39.189-25.049-57.27-5.059-8.782-10.596-17.289-16.603-25.452-.119-.161-.439-.779-.611-.826l-.83.995c-1.012.55-1.176.945-.493,1.186.433.351,1.03.599,1.505.889,1.06.647,2.099,1.326,3.119,2.034,1.913,1.327,3.743,2.76,5.509,4.277,3.856,3.312,7.404,6.972,10.708,10.831,6.53,7.627,12.105,16.06,17.076,24.77,5.266,9.226,9.818,18.862,13.668,28.761,7.895,20.299,13.231,41.821,15.133,63.538.258,2.946.443,5.898.569,8.852.131,3.077,4.932,3.094,4.8,0h0Z"/><path class="e" d="M7.034,304.516h124.56c3.089,0,3.094-4.8,0-4.8H7.034c-3.089,0-3.094,4.8,0,4.8h0Z"/></g></svg>