<svg xmlns="http://www.w3.org/2000/svg" width="384.77" height="202.026" viewBox="0 0 384.77 202.026" style="color: initial !important;"><defs><style>.a{fill:#f2635f;}.b{fill:#ffffff;}.c{fill:#c6c6c6;}.d{fill:#211715;}.e{fill:#88c5e9;}</style></defs><path class="a" d="M382.34,65.448c0-12.819,0-22.063-.007-23.392,0,0,0-3.948-.01-9.268-29.985,0-149.315-.1-205.366-.127A13.027,13.027,0,0,0,164.489,23.4c-26.946.066-73.92.1-100.349.112A24.012,24.012,0,0,0,44.453,33.79C33.064,50.122,26.1,60.19,13.53,80.024c-9.372,14.785-8.114,19.033-8.117,31.3,0,14.213.02,25.74-.144,39.712a2.279,2.279,0,0,0-2.819,2.211c0,1.476-.08,6.968-.08,8.286a9.125,9.125,0,0,0,9.069,9.158c9.4.044,34.524.117,35.985.117l57.248.2c11.419,0,145.945-.1,159.225-.094l55.956.034c9.307,0,33.923-.029,53.4,0a9.1,9.1,0,0,0,9.114-9.122C382.361,157.255,382.349,99.061,382.34,65.448Z"/><path class="b" d="M5.405,131.032c0,7.668-.01,15.322-.011,19.992a2.68,2.68,0,0,1,.517-.046H19.4V126.087a4.089,4.089,0,0,0-4.03-4.117c-3.274-.037-7.114-.095-9.3-.095H5.41C5.408,124.8,5.406,127.915,5.405,131.032Z"/><path class="c" d="M235.347,75.138h-36.72c0,12.5,0,8.113,0,20.8h36.712S235.35,86.311,235.347,75.138Z"/><path class="d" d="M235.347,72.738h-36.72a2.434,2.434,0,0,0-2.4,2.4q0,10.4,0,20.8a2.435,2.435,0,0,0,2.4,2.4h36.712a2.438,2.438,0,0,0,2.4-2.4c.085-6.932.01-13.869.008-20.8,0-3.089-4.8-3.094-4.8,0,0,6.932.077,13.869-.008,20.8l2.4-2.4H198.627l2.4,2.4q0-10.4,0-20.8l-2.4,2.4h36.72C238.436,77.538,238.441,72.738,235.347,72.738Z"/><path class="d" d="M184.762,8.022q10.264,0,20.527-.012l41.7-.03,50.271-.036q23.3-.015,46.592-.03,15.285-.01,30.57-.015h2.05c3.088,0,3.094-4.8,0-4.8q-13.875,0-27.748.013L303.3,3.14l-50.482.036-43.3.031q-11.889.008-23.779.015h-.973c-3.088,0-3.093,4.8,0,4.8Z"/><path class="d" d="M201.341,23.658c0-5.8-.023-11.6-.023-17.4a2.4,2.4,0,0,0-4.8,0c0,5.8.023,11.6.023,17.4a2.4,2.4,0,0,0,4.8,0Z"/><path class="d" d="M221.911,23.658c0-5.8-.023-11.6-.024-17.4a2.4,2.4,0,0,0-4.8,0c0,5.8.024,11.6.024,17.4a2.4,2.4,0,0,0,4.8,0Z"/><path class="d" d="M242.481,23.658c0-5.8-.023-11.6-.024-17.4a2.4,2.4,0,0,0-4.8,0c0,5.8.023,11.6.024,17.4a2.4,2.4,0,0,0,4.8,0Z"/><path class="d" d="M263.051,23.658c0-5.8-.024-11.6-.024-17.4a2.4,2.4,0,1,0-4.8,0c0,5.8.023,11.6.024,17.4a2.4,2.4,0,1,0,4.8,0Z"/><path class="d" d="M283.62,23.658c0-5.8-.023-11.6-.023-17.4a2.4,2.4,0,0,0-4.8,0c0,5.8.023,11.6.023,17.4a2.4,2.4,0,1,0,4.8,0Z"/><path class="d" d="M304.19,23.658c0-5.8-.023-11.6-.024-17.4a2.4,2.4,0,1,0-4.8,0c0,5.8.024,11.6.024,17.4a2.4,2.4,0,1,0,4.8,0Z"/><path class="d" d="M365.9,23.658c0-5.8-.023-11.6-.023-17.4a2.4,2.4,0,0,0-4.8,0c0,5.8.023,11.6.023,17.4a2.4,2.4,0,1,0,4.8,0Z"/><path class="d" d="M324.76,23.658c0-5.8-.023-11.6-.024-17.4a2.4,2.4,0,1,0-4.8,0c0,5.8.023,11.6.024,17.4a2.4,2.4,0,1,0,4.8,0Z"/><path class="d" d="M345.33,23.658c0-5.8-.024-11.6-.024-17.4a2.4,2.4,0,1,0-4.8,0c0,5.8.023,11.6.024,17.4a2.4,2.4,0,1,0,4.8,0Z"/><path class="d" d="M202.352,104.005c-1.243,0-2.485.024-3.727.024a2.479,2.479,0,0,0-1.7.7,2.4,2.4,0,0,0,0,3.394,2.5,2.5,0,0,0,1.7.7c1.242,0,2.484-.024,3.727-.024a2.484,2.484,0,0,0,1.7-.7,2.4,2.4,0,0,0,0-3.394,2.491,2.491,0,0,0-1.7-.7Z"/><path class="d" d="M218.019,104.005c-1.242,0-2.484.024-3.726.024a2.475,2.475,0,0,0-1.7.7,2.4,2.4,0,0,0,0,3.394,2.492,2.492,0,0,0,1.7.7c1.242,0,2.484-.024,3.726-.024a2.48,2.48,0,0,0,1.7-.7,2.4,2.4,0,0,0,0-3.394,2.489,2.489,0,0,0-1.7-.7Z"/><path class="d" d="M293,137.6c-18.987,0-32.111,14.705-32.111,31.913,0,19.92,12.421,32.512,32.112,32.512,20.15,0,32.112-12.592,32.112-32.512C325.114,152.189,311.921,137.6,293,137.6Z"/><path class="b" d="M293,159.125a10.448,10.448,0,0,0-10.655,10.589c0,6.61,4.122,10.788,10.655,10.788,6.686,0,10.655-4.178,10.655-10.788A10.438,10.438,0,0,0,293,159.125Z"/><path class="d" d="M379.933,42.115q.01,10.03.006,20.06.006,19.763.01,39.526,0,19.845.011,39.69,0,6.966,0,13.932c0,2.353.119,4.741-.01,7.092a6.719,6.719,0,0,1-2.574,4.809c-1.886,1.476-4.047,1.39-6.317,1.387q-8.424-.01-16.846-.01-14.9,0-29.8.011l-4.561,0c-3.089,0-3.094,4.8,0,4.8q13.248,0,26.5-.013,8.659,0,17.32,0,4.2,0,8.395.008a12.891,12.891,0,0,0,7.471-1.857,11.83,11.83,0,0,0,5.234-10.026c0-1,0-2,0-3q0-5.948,0-11.9-.007-19.186-.011-38.374-.006-20.73-.01-41.461,0-11.978-.007-23.954c0-.243,0-.487,0-.73,0-3.089-4.8-3.094-4.8,0Z"/><path class="d" d="M179.277,35.063q19.6.007,39.194.021l46.118.031,46.644.034,40.653.026q14.07.009,28.142.013h2.305c3.089,0,3.094-4.8,0-4.8q-13.125,0-26.251-.01L316.6,30.352l-46.266-.033L223.8,30.288q-20.135-.014-40.27-.023l-4.254,0c-3.088,0-3.093,4.8,0,4.8Z"/><path class="d" d="M332.059,155.438c11.471,0,22.943.04,34.415.041,3.088,0,3.093-4.8,0-4.8-11.472,0-22.944-.041-34.415-.041-3.089,0-3.094,4.8,0,4.8Z"/><path class="d" d="M104.672,173.414q9.5,0,18.993-.011,18.073-.011,36.145-.024l42.458-.028q19.008-.012,38.015-.023,11.222-.006,22.444-.009h1.17c3.089,0,3.093-4.8,0-4.8q-9.936-.008-19.872.006-18.3.009-36.595.021l-42.485.029-37.615.025q-10.81.007-21.62.013h-1.038c-3.089,0-3.094,4.8,0,4.8Z"/><path class="d" d="M113.2,155.438q8.162,0,16.321.006l30.846.016,36.517.02,33.339.016q10.653,0,21.307.008h1.339c3.089,0,3.094-4.8,0-4.8q-9.623,0-19.247-.006l-32.351-.016-36.6-.02-32-.016q-9.278,0-18.553-.008h-.91c-3.088,0-3.094,4.8,0,4.8Z"/><path class="d" d="M221.963,49.617h33.864c3.088,0,3.094-4.8,0-4.8H221.963c-3.088,0-3.093,4.8,0,4.8Z"/><path class="e" d="M149.537,43.99h-33.4a4.033,4.033,0,0,0-4.027,4.035c0,14.305,0,6.613,0,21.194a4.033,4.033,0,0,0,4.027,4.037h33.385a4.023,4.023,0,0,0,4.028-4.02c0-5.2.007-10.163.006-21.215A4.023,4.023,0,0,0,149.537,43.99Z"/><path class="e" d="M99.686,49.977a5.95,5.95,0,0,0-5.949-5.915c-11.395-.017-19.19-.072-29.56-.072a10.987,10.987,0,0,0-4.462.739,11.059,11.059,0,0,0-3.89,3.757c-5.9,7.951-15.271,21.936-23.411,34.649-4.022,6.281,2.009,14.991,8.974,12.324,16.187-6.2,38.576-14.963,54.1-21.651,2.438-1.051,4.336-3.015,4.323-5.67C99.768,60.233,99.717,56.556,99.686,49.977Z"/><path class="d" d="M149.537,41.59H119.9c-2.345,0-4.954-.338-7.054.91a6.46,6.46,0,0,0-2.7,3.242,13.521,13.521,0,0,0-.436,4.917q0,4.344,0,8.69,0,2.069,0,4.136v3.88c0,1.733-.063,3.442.823,5.006,1.473,2.6,4.032,3.285,6.817,3.285h30.507c2.814,0,5.462-.4,7.1-2.993,1.342-2.123.994-4.8,1-7.2l0-6.959c0-3.332.032-6.665,0-10-.036-3.792-2.521-6.756-6.42-6.922-3.089-.132-3.083,4.668,0,4.8,2.328.1,1.62,3.384,1.62,4.9q0,3.849,0,7.7,0,2.8,0,5.611,0,1.152,0,2.3a13.325,13.325,0,0,1-.017,2.68c-.379,1.706-2.588,1.272-3.866,1.272H119.538c-1.281,0-3.757.515-4.664-.6-.617-.759-.363-1.99-.363-2.893V63.773q0-2.016,0-4.033,0-3.191,0-6.379V49.844c0-.971-.27-2.217.48-2.971a2.33,2.33,0,0,1,1.882-.483h32.667C152.625,46.39,152.63,41.59,149.537,41.59Z"/><path class="d" d="M69.412,23.646c.895-2.842,1.77-5.69,2.664-8.532A2.422,2.422,0,0,0,70.4,12.161a2.453,2.453,0,0,0-2.952,1.677c-.895,2.842-1.77,5.69-2.665,8.532a2.422,2.422,0,0,0,1.677,2.952,2.452,2.452,0,0,0,2.952-1.676Z"/><path class="d" d="M92.8,22.327c-.968-2.818-1.956-5.629-2.924-8.447a2.4,2.4,0,1,0-4.628,1.276c.968,2.818,1.955,5.629,2.923,8.447A2.4,2.4,0,0,0,92.8,22.327Z"/><path class="d" d="M74.027,137.6c-18.987,0-32.111,14.705-32.111,31.913,0,19.92,12.421,32.512,32.112,32.512,20.149,0,32.112-12.592,32.112-32.512C106.14,152.189,92.947,137.6,74.027,137.6Z"/><path class="b" d="M74.027,159.125a10.447,10.447,0,0,0-10.654,10.589c0,6.61,4.121,10.788,10.655,10.788,6.685,0,10.655-4.178,10.655-10.788A10.439,10.439,0,0,0,74.027,159.125Z"/><path class="d" d="M102.086,49.977a8.489,8.489,0,0,0-5.4-7.763,14.578,14.578,0,0,0-5.369-.557q-2.826,0-5.653-.014c-7.225-.022-14.457-.138-21.682-.052a12.7,12.7,0,0,0-5.646,1.153A12.27,12.27,0,0,0,54.36,46.47c-1.754,2.292-3.416,4.658-5.074,7.02C45.079,59.487,41,65.575,36.977,71.7q-3.165,4.815-6.276,9.665a11.162,11.162,0,0,0-1.668,8.752c1.349,5.808,7.4,9.757,13.161,7.595,13.152-4.933,26.215-10.138,39.221-15.442q4.764-1.944,9.51-3.934c2.923-1.229,6.418-2.217,8.759-4.443,2.826-2.686,2.523-6.216,2.5-9.8q-.03-4.632-.069-9.265-.016-2.424-.029-4.848c-.015-3.087-4.815-3.094-4.8,0,.029,5.891.132,11.782.118,17.672-.006,2.913-2.413,3.783-4.761,4.786q-3.9,1.668-7.829,3.284C72.775,80.695,60.651,85.465,48.5,90.163c-2.755,1.065-5.534,2.371-8.372,3.191a4.657,4.657,0,0,1-4.824-1.4A6.45,6.45,0,0,1,33.569,86.7a7.856,7.856,0,0,1,1.4-3.105q1.459-2.272,2.93-4.538,5.661-8.722,11.51-17.323,2.605-3.819,5.274-7.594a51.454,51.454,0,0,1,4.6-6.121A5.508,5.508,0,0,1,63.372,46.4c2-.079,4.013-.013,6.014-.01q5.307.009,10.613.03,5.658.02,11.315.033c1.459,0,3.113-.267,4.391.6a3.588,3.588,0,0,1,1.581,2.921C97.39,53.058,102.19,53.072,102.086,49.977Z"/><path class="d" d="M100.958,107.556a6.191,6.191,0,0,0-3.33-5.44c-1.911-.967-4.218-.669-6.294-.669H84.519c-1.943,0-4.266-.323-6.118.36a6.214,6.214,0,0,0-1.313,10.907c1.826,1.248,4.061,1.014,6.158,1.014h9.9a11.718,11.718,0,0,0,3.5-.261,6.2,6.2,0,0,0,4.315-5.911c.054-3.09-4.746-3.091-4.8,0a1.32,1.32,0,0,1-1.138,1.367,40.743,40.743,0,0,1-4.462,0H80.989a8.035,8.035,0,0,1-.811-.014,1.094,1.094,0,0,1-.435-.191,1.2,1.2,0,0,1-.576-.893,1.355,1.355,0,0,1,.774-1.491c.9-.365,2.885-.092,4.069-.092h10.3c1.092,0,1.824.255,1.846,1.309C96.223,110.64,101.023,110.651,100.958,107.556Z"/><path class="d" d="M163.77,107.556a6.192,6.192,0,0,0-3.33-5.44c-1.912-.967-4.218-.669-6.295-.669h-6.814c-1.944,0-4.266-.323-6.118.36a6.213,6.213,0,0,0-1.314,10.907c1.826,1.248,4.061,1.014,6.159,1.014h9.894a11.716,11.716,0,0,0,3.5-.261,6.205,6.205,0,0,0,4.316-5.911c.054-3.09-4.746-3.091-4.8,0a1.32,1.32,0,0,1-1.138,1.367,40.761,40.761,0,0,1-4.463,0H143.8a8.015,8.015,0,0,1-.81-.014,1.089,1.089,0,0,1-.435-.191,1.2,1.2,0,0,1-.577-.893,1.358,1.358,0,0,1,.774-1.491c.9-.365,2.885-.092,4.069-.092h10.3c1.091,0,1.823.255,1.846,1.309C159.035,110.64,163.835,110.651,163.77,107.556Z"/><path class="d" d="M6.074,124.275c1.831,0,3.663.026,5.494.048,1.131.014,2.262.018,3.393.042a2.148,2.148,0,0,1,1.348.311c.931.654.694,1.927.694,2.925v23.377c0,3.089,4.8,3.094,4.8,0V127.25a8.829,8.829,0,0,0-.707-4.107,6.49,6.49,0,0,0-3.654-3.207c-1.821-.64-3.97-.389-5.874-.413-1.831-.022-3.663-.046-5.494-.048-3.089,0-3.094,4.8,0,4.8Z"/><path class="a" d="M89.1,2.413H69.02c-4.941,0-7.91,4-7.909,8.945v.075A5.762,5.762,0,0,0,66.87,17.2H90.713a5.757,5.757,0,0,0,5.759-5.756v-.076C96.474,6.422,94.036,2.413,89.1,2.413Z"/><path class="d" d="M89.1.013H71.766a22.2,22.2,0,0,0-5.378.322c-6.879,1.711-10.722,12.21-4.925,17.2,2.447,2.107,5.283,2.058,8.305,2.058h17.7c3,0,5.905.157,8.4-1.852C99.2,15.057,99.494,10.3,98.085,6.5A9.483,9.483,0,0,0,89.1.013c-3.09-.06-3.09,4.74,0,4.8a4.532,4.532,0,0,1,4.512,3.4c.648,2.012.94,4.7-1.06,6.034-1.462.973-3.909.545-5.592.545H71.7a27.474,27.474,0,0,1-5.555-.078c-2.477-.539-2.935-3.129-2.436-5.26a5.541,5.541,0,0,1,4.117-4.529,22.383,22.383,0,0,1,4.683-.115H89.1C92.184,4.813,92.189.013,89.1.013Z"/><path class="c" d="M332.257,56.836q-1.111,0-2.2.057l.143-.057H276.1V64.37H308.79a38.376,38.376,0,0,0-15.278,30.973,44.757,44.757,0,0,0,4.1,19.52c-10.671,0-34.659.009-46.463,0V122.4c11.749.009,39.79,0,51.384,0,6.737,7.786,16.965,12.177,29.73,12.177,24.312,0,38.746-15.194,38.746-39.23C371.005,74.438,355.086,56.836,332.257,56.836Zm0,68.739c-18.259,0-29.776-11.677-29.776-30.148a29.2,29.2,0,0,1,29.775-29.593c17.545,0,29.778,13.527,29.778,29.593C362.035,113.9,350.943,125.575,332.258,125.575Z"/><path class="d" d="M332.257,54.436a41.84,41.84,0,0,0-25.639,8.586,40.383,40.383,0,0,0-13.887,20.689A47.326,47.326,0,0,0,293.156,110a37.255,37.255,0,0,0,13.229,19.2c6.643,4.969,14.9,7.274,23.106,7.7,8.478.437,17.277-.967,24.788-5.064,14.679-8.007,20.809-25.637,18.8-41.644a41.207,41.207,0,0,0-10.752-23.185,40.148,40.148,0,0,0-23-12.006,48.026,48.026,0,0,0-7.064-.567c-3.089-.013-3.093,4.787,0,4.8a37,37,0,0,1,22.7,7.513,35.654,35.654,0,0,1,12.284,18.5,43.248,43.248,0,0,1-.392,23.3A32,32,0,0,1,356,125.018c-5.763,4.433-12.873,6.561-20.1,7.037-7.615.5-15.584-.511-22.349-4.019A31.175,31.175,0,0,1,299.6,113.5a42.755,42.755,0,0,1-3.424-22.787A35.4,35.4,0,0,1,326.105,59.69a39.344,39.344,0,0,1,6.152-.454C335.345,59.223,335.351,54.423,332.257,54.436Z"/><path class="d" d="M332.257,63.434a32.622,32.622,0,0,0-19.754,6.5,31.725,31.725,0,0,0-11.169,16.452c-3.551,12.454.08,27.484,10.633,35.45,5.18,3.91,11.627,5.731,18.045,6.081a36.643,36.643,0,0,0,19.44-3.956c11.457-6.238,16.306-20.019,14.729-32.516A31.693,31.693,0,0,0,337.889,63.9a37.943,37.943,0,0,0-5.632-.464c-3.089-.017-3.092,4.783,0,4.8a27.941,27.941,0,0,1,17.054,5.615,26.8,26.8,0,0,1,9.282,13.926,32.66,32.66,0,0,1-.25,17.507,24.141,24.141,0,0,1-8.111,12.464,27.5,27.5,0,0,1-15.194,5.339c-5.753.378-11.8-.379-16.89-3.021a23.43,23.43,0,0,1-10.525-11,32.388,32.388,0,0,1-2.547-17.106,26.66,26.66,0,0,1,22.466-23.369,29.533,29.533,0,0,1,4.715-.351C335.345,68.217,335.352,63.417,332.257,63.434Z"/><path class="d" d="M330.2,54.436H276.1a2.435,2.435,0,0,0-2.4,2.4v7.909a2.435,2.435,0,0,0,2.4,2.4h30.726c3.089,0,3.094-4.8,0-4.8H276.1l2.4,2.4V56.836l-2.4,2.4h54.1c3.089,0,3.094-4.8,0-4.8Z"/><path class="d" d="M295.681,112.463q-17.284,0-34.571,0-4.983,0-9.965,0a2.435,2.435,0,0,0-2.4,2.4v8.147a2.435,2.435,0,0,0,2.4,2.4q20.811.018,41.621,0h8.142c3.089,0,3.094-4.8,0-4.8q-19.589,0-39.177,0-5.293,0-10.586,0l2.4,2.4v-8.147l-2.4,2.4q18.51.015,37.021,0h7.515c3.089,0,3.094-4.8,0-4.8Z"/><path class="d" d="M283.826,53.466V67.74a2.4,2.4,0,1,0,4.8,0V53.466a2.4,2.4,0,0,0-4.8,0Z"/><path class="d" d="M329.859,53.466V67.74a2.4,2.4,0,1,0,4.8,0V53.466a2.4,2.4,0,1,0-4.8,0Z"/><path class="d" d="M364.843,124.073,354.75,113.981a2.4,2.4,0,0,0-3.394,3.394l10.093,10.093a2.4,2.4,0,1,0,3.394-3.4Z"/><path class="d" d="M303.483,127.468l10.093-10.093a2.4,2.4,0,1,0-3.4-3.394l-10.092,10.092a2.4,2.4,0,0,0,3.394,3.4Z"/><path class="d" d="M259.481,111.207v14.274a2.4,2.4,0,0,0,4.8,0V111.207a2.4,2.4,0,0,0-4.8,0Z"/><path class="d" d="M7.794,150.985c0-13.219.029-26.438.019-39.657,0-2.882-.1-5.767-.039-8.65A28.153,28.153,0,0,1,8.643,95.6c1.822-7.113,6.279-13.327,10.178-19.424,8-12.5,16.295-24.791,24.773-36.971,2.14-3.074,4.123-6.21,7.071-8.591A21.788,21.788,0,0,1,60.036,26.3c3.022-.61,6.184-.39,9.252-.392l9.42,0q22.01-.014,44.018-.038,20.448-.023,40.9-.065a11.209,11.209,0,0,1,8,2.748,10.731,10.731,0,0,1,3.482,7.81c.069,5.139.018,10.282.028,15.422q.036,18.794.073,37.587.037,18.3.072,36.6.022,12.148.04,24.3,0,1.386,0,2.773c0,3.088,4.8,3.093,4.8,0q0-10.074-.029-20.147-.033-17.835-.069-35.671-.039-19.485-.077-38.97-.017-8.483-.031-16.966c0-2.8.209-5.714-.429-8.464a15.339,15.339,0,0,0-5.473-8.507A15.94,15.94,0,0,0,163.913,21l-9.147.019q-10.533.021-21.067.034-22.8.03-45.608.045l-20.018.011a42.785,42.785,0,0,0-10.236.767,26.7,26.7,0,0,0-10.273,5.113c-3.125,2.485-5.285,5.736-7.543,8.978q-3.257,4.676-6.493,9.367-6.127,8.9-12.063,17.932-3.426,5.226-6.788,10.493c-2.436,3.809-4.945,7.59-7.045,11.6a38.071,38.071,0,0,0-4.64,16.671c-.212,6.355.021,12.751.018,19.111Q3,132.1,3,143.052q0,3.966,0,7.933c0,3.088,4.8,3.093,4.8,0Z"/><path class="d" d="M35.8,148.578H8.41c-.788,0-1.579-.022-2.367,0A5.981,5.981,0,0,0,.6,151.965c-.785,1.695-.571,3.664-.571,5.484,0,1.553-.089,3.136.026,4.687a11.935,11.935,0,0,0,11.752,11.076c5.327.084,10.662,0,15.989,0H46.787c3.089,0,3.094-4.8,0-4.8H12.88c-2.832,0-5.477-.764-7.039-3.361a8.489,8.489,0,0,1-1.008-4.614V155.12c0-.883.074-1.624,1.122-1.742a17.471,17.471,0,0,1,1.9,0H35.8c3.089,0,3.094-4.8,0-4.8Z"/></svg>