<svg id="b" xmlns="http://www.w3.org/2000/svg" width="174.808" height="234.266" viewBox="0 0 174.808 234.266" style="color: initial !important;"><defs><style>.d{fill:#ffffff;}.e{fill:#74c66d;}.f{fill:none;}.g{fill:#a98a75;}.h{fill:#211715;}</style></defs><g id="c"><path class="g" d="M109.299,171.97c.392-2.898,2.103-6.003,3.114-8.218,4.261-9.393,10.38-18.329,18.151-25.351,6.972-6.316,18.855-14.529,28.643-11.984,6.109,1.597,10.374,7.756,12.128,13.669,3.376,11.4-1.617,23.722-9.62,31.946-7.917,8.122-18.994,13.623-29.842,16.63"/><path class="h" d="M111.614,172.608c.39-2.512,1.508-4.746,2.581-7.02,1.147-2.433,2.302-4.848,3.624-7.193,2.651-4.702,5.75-9.148,9.351-13.173,3.214-3.593,6.804-6.889,10.724-9.701,3.89-2.791,8.142-5.294,12.802-6.529,4.054-1.074,8.372-.934,11.825,1.681,3.588,2.717,5.837,7.095,6.86,11.398,2.267,9.533-1.743,19.698-8.042,26.838-7.78,8.818-18.929,14.309-30.103,17.437-2.97.832-1.708,5.464,1.276,4.629,11.138-3.118,22.042-8.455,30.324-16.665,7.755-7.687,13.077-18.871,11.779-29.966-1.196-10.217-8.237-20.998-19.558-20.801-5.456.095-10.73,2.324-15.36,5.064-4.478,2.65-8.639,5.935-12.381,9.545-4.735,4.567-8.828,9.828-12.248,15.443-1.683,2.764-3.194,5.628-4.551,8.565-1.367,2.959-3.024,5.913-3.53,9.172-.198,1.279.325,2.581,1.676,2.952,1.138.313,2.752-.388,2.952-1.676h0Z"/><path class="g" d="M114.523,210.187c2.612,2.837,4.672,6.023,5.217,9.922.312,2.23.007,4.598-1.169,6.517-1.448,2.363-4.062,3.814-6.75,4.487-4.082,1.021-8.657.989-12.721-.056-4.316-1.11-8.604-4.254-12.479-8.966"/><path class="h" d="M112.826,211.884c2.586,2.841,4.792,6.351,4.619,10.338-.18,4.13-3.678,6.079-7.328,6.817-3.974.803-8.589.635-12.368-.951s-6.847-4.586-9.431-7.694c-.829-.997-2.537-.857-3.394,0-.987.987-.831,2.394,0,3.394,2.567,3.087,5.595,5.942,9.164,7.84,3.55,1.887,7.59,2.645,11.59,2.632s8.499-.694,11.818-3.11c3.469-2.526,5.163-6.566,4.671-10.831-.531-4.6-2.878-8.457-5.946-11.829-2.084-2.29-5.47,1.113-3.394,3.394h0Z"/><path class="g" d="M119.768,107.981c9.727,16.52,13.989,36.139,13.645,55.218-.279,15.477-4,31.876-15.184,43.483-6.008,6.236-12.978,10.663-21.63,13.149-9.174,2.636-19.176,3.811-28.681,3.811-9.504,0-19.507-1.175-28.681-3.811-8.652-2.486-15.621-6.914-21.63-13.149-11.184-11.607-14.905-28.006-15.184-43.483-.343-19.079,3.919-38.698,13.645-55.218"/><path class="g" d="M21.315,210.187c-2.612,2.837-4.672,6.023-5.217,9.922-.312,2.23-.007,4.598,1.169,6.517,1.448,2.363,4.062,3.814,6.75,4.487,4.082,1.021,8.657.989,12.721-.056,4.316-1.11,8.604-4.254,12.479-8.966"/><path class="h" d="M117.696,109.192c5.065,8.658,8.244,18.304,10.357,28.074s3.144,19.89,2.961,29.929c-.168,9.203-1.707,18.427-6.157,26.588-4.628,8.487-11.823,15.872-20.406,20.367-4.751,2.488-9.931,3.927-15.164,5.006-5.686,1.172-11.467,1.808-17.267,2.014-11.349.403-23.106-.655-33.943-4.206-9.412-3.084-17.479-9.391-23.346-17.321-5.522-7.465-8.587-16.187-9.507-25.396-.982-9.831-.351-19.945,1.197-29.684,1.574-9.907,4.138-19.83,8.37-28.953,1.016-2.191,2.133-4.332,3.352-6.417,1.563-2.672-2.584-5.09-4.145-2.423-5.333,9.117-8.734,19.328-10.927,29.624S-.235,157.42.042,168c.262,9.975,2.143,19.909,7.061,28.689,5.041,9,12.855,16.938,22.038,21.697,5.075,2.63,10.554,4.248,16.135,5.398,6.023,1.241,12.17,1.947,18.314,2.177,11.87.445,24.325-.672,35.645-4.434,10.362-3.443,18.977-10.203,25.55-18.841,6.077-7.985,9.362-17.397,10.507-27.306,1.197-10.36.451-21.004-1.119-31.283-1.614-10.566-4.417-21.011-8.899-30.735-1.038-2.252-2.181-4.453-3.434-6.593-1.559-2.665-5.709-.252-4.145,2.423h0Z"/><path class="h" d="M19.618,208.49c-2.597,2.854-4.849,6.155-5.659,9.989-.87,4.114-.141,8.6,3.034,11.577,3.064,2.873,7.306,3.858,11.382,4.139s8.312-.275,12.06-1.93c4.144-1.83,7.613-5.03,10.48-8.478.828-.996.976-2.418,0-3.394-.852-.852-2.561-1.001-3.394,0-2.584,3.108-5.644,6.105-9.431,7.694s-8.392,1.754-12.368.951c-3.652-.738-7.148-2.683-7.328-6.817-.174-3.987,2.033-7.497,4.619-10.338,2.075-2.28-1.31-5.685-3.394-3.394h0Z"/><path class="f" d="M23.637,113.53c4.982,2.89,11.069,5.313,18.111,7.205,6.705,1.801,19.198,2.231,26.172,2.637,6.974-.406,19.466-.836,26.172-2.637,7.363-1.978,13.682-4.537,18.785-7.603"/><path class="g" d="M18.452,43.076c-1.718-3.748-2.473-7.926-2.525-12.039-.039-4.204.338-9.54,2.876-13.028,1.978-2.733,5.18-4.425,8.512-5.05,9.227-1.744,19.093,3.032,24.129,10.802"/><path class="g" d="M117.416,43.076v-.013c1.705-3.748,2.473-7.913,2.512-12.026.039-4.204-.338-9.54-2.876-13.028-1.978-2.733-5.18-4.425-8.512-5.05-9.201-1.744-19.041,3.006-24.09,10.737"/><path class="g" d="M67.927,22.022c-16.306-.126-33.574,4.653-44.443,16.961-8.895,10.072-14.45,23.199-16.134,36.298-1.208,9.398-.942,18.816,4.86,26.731,1.008,1.828,6.329,7.179,10.124,9.064,3.122,1.551,6.172,3.088,9.461,4.303,3.34,1.234,6.577,2.181,10.104,2.895,7.351,1.487,14.844,2.315,22.352,2.484,1.215.027,2.439.041,3.671.041,1.235,0,2.461-.013,3.679-.041,7.508-.169,15.001-.996,22.352-2.484,3.527-.714,6.764-1.661,10.104-2.895,3.289-1.215,6.339-2.753,9.461-4.303,3.795-1.885,9.031-7.525,10.039-9.353,5.802-7.915,6.152-17.044,4.945-26.442-1.684-13.099-7.239-26.225-16.134-36.298-10.869-12.308-28.136-17.086-44.443-16.961Z"/><path class="h" d="M89.269,148.749c-3.24.508-6.685.672-9.948.26-.433-.055-.864-.129-1.29-.223-.27-.06-.535-.132-.801-.205-.041-.011-.781-.302-.296-.081-1.169-.533-2.15-1.469-3.031-2.381-2.958-3.06-3.577-8.636-.273-12.088,1.562-1.632,3.14-2.124,5.618-2.005,1.241.06,2.362.583,3.494,1.075,1.492.649,2.958,1.199,4.56,1.506,6.811,1.308,13.325-.79,18.718-4.998,5.534-4.317,9.825-10.92,9.205-18.188l-1.189,2.072c6.812-3.386,12.415-10.192,15.19-17.188,3.476-8.764,2.492-19.004.476-27.997-2.108-9.406-6.113-18.512-11.831-26.285-5.384-7.319-12.208-13.058-20.559-16.716-8.176-3.581-17.03-5.327-25.933-5.639s-17.859.529-26.346,3.19c-8.366,2.623-16.289,7.014-22.339,13.434-6.645,7.051-11.495,15.805-14.57,24.956-3.005,8.943-4.632,18.985-3.314,28.388,1.172,8.361,5.569,15.426,12.104,20.648,1.544,1.234,3.122,2.322,4.893,3.202l-1.189-2.072c-.557,6.446,2.829,12.62,7.534,16.82,4.866,4.344,11.148,7.32,17.794,6.732,1.529-.135,3.082-.383,4.553-.834,1.453-.446,2.787-1.194,4.215-1.704,2.073-.741,4.725-.572,6.337.555,3.799,2.657,4.46,8.43,1.662,12.278-.463.636-1.799,1.937-2.731,2.597-.178.126-.364.248-.552.358-.171.103-.346.197-.526.282.243-.101.224-.1-.056.005-.635.208-1.294.351-1.954.452-3.36.513-6.982.316-10.324-.209-1.279-.201-2.582.327-2.952,1.676-.313,1.14.388,2.75,1.676,2.952,3.584.562,7.246.832,10.866.47,3.008-.301,5.372-1.015,7.718-2.98,4.429-3.711,6.718-9.905,4.65-15.512-1.015-2.753-2.935-5.3-5.496-6.797-2.502-1.462-6.114-1.77-8.876-.992-1.372.386-2.642,1.065-3.959,1.595-1.463.589-3.069.931-4.64,1.037-3.181.215-6.298-.476-9.118-1.959-6.163-3.244-11.656-9.471-11.02-16.823.067-.78-.494-1.727-1.189-2.072-3.127-1.554-5.771-3.83-8.161-6.358-.492-.52-.979-1.051-1.42-1.615.273.349-.147-.22-.209-.311-.259-.384-.522-.765-.781-1.15-1.21-1.8-2.197-3.734-2.891-5.79-2.782-8.241-1.69-17.666.349-25.956,2.133-8.67,5.924-16.888,11.263-24.053,4.912-6.592,11.369-11.603,18.937-14.807,7.475-3.165,15.65-4.624,23.737-4.85,8.222-.23,16.429.538,24.31,2.979,7.604,2.356,14.758,6.315,20.272,12.117,6.086,6.403,10.573,14.442,13.399,22.779,2.755,8.125,4.475,17.309,3.34,25.894-.575,4.346-2.16,8.33-4.632,11.935-.17.248-.33.501-.499.75-.074.109-.378.532-.287.412-.224.298-.937,1.125-1.371,1.602-1.21,1.329-2.502,2.591-3.874,3.753-1.266,1.073-2.615,1.939-4.1,2.677-.695.346-1.255,1.292-1.189,2.072.558,6.535-3.741,12.16-8.974,15.602-2.645,1.74-5.65,2.999-8.84,3.186-3.309.193-6.108-.718-9.112-1.971-2.76-1.151-6.038-1.447-8.919-.469-2.76.937-5.099,3.192-6.456,5.74-2.768,5.198-1.673,11.808,2.385,16.005,2.231,2.307,4.643,3.726,7.826,4.168,4.061.564,8.171.33,12.211-.304,1.282-.201,1.992-1.804,1.676-2.952-.376-1.366-1.667-1.878-2.952-1.676h0Z"/><path class="h" d="M20.524,41.865c-1.721-3.848-2.265-8.085-2.192-12.266.06-3.46.349-7.525,2.544-10.377,4.43-5.758,13.735-4.901,19.531-2.038,3.607,1.782,6.745,4.424,8.966,7.79,1.694,2.567,5.852.166,4.145-2.423-4.886-7.406-13.403-12.359-22.355-12.349-4.624.005-9.406,1.365-12.786,4.65-3.455,3.356-4.489,8.231-4.772,12.867-.347,5.692.44,11.346,2.776,16.569.529,1.183,2.251,1.465,3.284.861,1.218-.713,1.392-2.096.861-3.284h0Z"/><path class="h" d="M119.816,43.076v-.013l-.328,1.211c2.12-4.771,2.955-9.839,2.827-15.046-.111-4.492-.779-9.336-3.613-12.984-5.913-7.611-17.384-7.144-25.31-3.386-4.475,2.122-8.281,5.513-11.016,9.627-1.715,2.58,2.441,4.986,4.145,2.423,3.925-5.905,10.872-9.861,17.999-9.908,3.697-.025,7.552.97,10.102,3.802,2.371,2.633,2.77,6.669,2.882,10.053.078,2.35.019,4.723-.398,7.042-.222,1.233-.518,2.453-.898,3.646-.341,1.073-1.192,2.412-1.192,3.533,0,3.089,4.8,3.094,4.8,0h0Z"/><path class="d" d="M42.852,69.956c-.857,2.775-.319,9.15,4.916,9.679,6.92-.06,7.307-7.771,4.987-11.39-1.9-2.963-7.505-4.182-9.902,1.711Z"/><path class="d" d="M95.045,69.956c.857,2.775.319,9.151-4.915,9.679-6.92-.06-7.308-7.772-4.987-11.391,1.9-2.963,7.505-4.182,9.903,1.712Z"/><path class="e" d="M85.456,17.142c.004-.306.005-.612.003-.916-.005-.623-.458-1.155-1.076-1.23-7.445-.9-17.172-.518-23.405,3.694-7.782,5.258-13.575,14.812-17.267,23.207-.316.718.119,1.556.889,1.706,6.111,1.188,12.718,1.267,18.267.177,4.205-.826,8.505-1.734,12.131-4.017,7.337-4.618,10.333-13.898,10.457-22.621Z"/><path class="h" d="M87.856,17.142c.01-1.156-.055-2.255-.821-3.191-.849-1.038-1.907-1.275-3.18-1.416-1.919-.213-3.849-.328-5.78-.337-4.065-.019-8.239.388-12.137,1.584-8.07,2.478-13.977,9.097-18.451,15.974-2.22,3.412-4.14,7.032-5.773,10.759-1.079,2.462-.013,4.919,2.696,5.487,2.369.496,4.835.737,7.249.869,4.714.257,9.342-.228,13.953-1.202,4.274-.903,8.565-2.194,12.084-4.876,7.234-5.514,9.994-14.883,10.16-23.65.058-3.09-4.742-3.09-4.8,0-.115,6.084-1.557,12.726-5.672,17.422-2.23,2.545-5.05,4.219-8.259,5.249-3.434,1.102-7.108,1.878-10.704,2.175-3.931.325-7.942.19-11.835-.457-.226-.037-.451-.077-.676-.117-.743-.134-.82-.438-.325.614.518,1.1.415.58.735-.118.374-.816.76-1.626,1.16-2.43.767-1.542,1.582-3.059,2.451-4.546,3.339-5.713,7.701-11.744,13.621-15.004,3.101-1.708,6.729-2.468,10.23-2.766,1.874-.16,3.757-.199,5.636-.142.939.028,1.877.081,2.813.157.433.035,1.029.218,1.445.137.422-.083.749.497-.133-.525-.763-.885-.483-.372-.489.352-.026,3.089,4.774,3.092,4.8,0Z"/><path class="h" d="M95.638.696c-7.573,9.164-16.025,17.583-25.433,24.864-1.026.794-.835,2.559,0,3.394,1.013,1.013,2.365.796,3.394,0,9.408-7.281,17.86-15.7,25.433-24.864.825-.998.978-2.416,0-3.394-.85-.85-2.564-1.004-3.394,0h0Z"/><path class="h" d="M110.975,78.517c-.091-.612-.417-2.134-.586-2.889-2.395-10.789-12.143-21.565-23.999-19.392-3.371.612-6.351,2.239-8.447,4.985-1.796,2.356-2.837,5.219-3.358,8.121-.497,2.792-.482,5.723.101,8.503.345.107.682.225,1.013.351,11.865,4.504,15.095,21.914,3.111,28.896-3.311,1.929-7.224,2.686-11.105,2.695-4.854.011-9.657-1.285-13.171-4.496-5.224-4.773-6.373-12.704-3.484-19.396,1.96-4.542,5.805-7.217,10.187-8.421.509-2.668.505-5.463.036-8.131-.521-2.902-1.562-5.766-3.358-8.121-2.108-2.746-5.076-4.373-8.447-4.985-11.856-2.173-21.604,8.603-23.999,19.392-.169.755-.495,2.278-.586,2.889-.174,1.203-.29,2.421-.348,3.648-.307,6.477,1.314,12.638,4.37,17.931,4.896,8.479,13.476,14.731,23.713,16.489,5.109.877,10.621,1.517,15.638,1.517,4.861,0,10.149-.606,15.063-1.448,16.06-2.75,28.18-16.636,28.048-32.929-.014-1.755-.143-3.497-.391-5.209ZM42.852,69.956c2.397-5.894,8.003-4.674,9.902-1.711,2.321,3.619,1.933,11.33-4.987,11.39-5.234-.529-5.773-6.904-4.916-9.679ZM90.13,79.635c-6.92-.06-7.308-7.772-4.987-11.391,1.9-2.963,7.505-4.182,9.903,1.712.857,2.775.319,9.151-4.915,9.679Z"/><path class="h" d="M58.401,88.231c3.746-3.946,5.558-9.257,5.619-14.653.062-5.482-1.63-11.569-5.665-15.466-3.67-3.544-9.031-5.029-14.045-4.425-4.856.584-9.221,2.913-12.73,6.283-7.06,6.781-10.235,17.094-9.346,26.731.844,9.152,5.213,17.783,12.188,23.798,3.582,3.09,7.683,5.459,12.153,7.011,5.286,1.835,11.137,2.414,16.687,2.805,6.181.436,12.323-.051,18.439-.981,4.773-.726,9.315-2.022,13.561-4.371,8.123-4.492,14.385-12.152,17.056-21.052,2.766-9.217,1.662-20.001-3.451-28.222-5.188-8.342-14.934-14.43-24.943-11.322-10.934,3.395-14.483,17.32-10.637,27.204.969,2.49,2.324,4.721,4.171,6.66,2.134,2.242,5.525-1.156,3.394-3.394-3.068-3.222-4.319-7.655-4.214-12.035.104-4.352,1.545-9.315,5.136-12.07,3.14-2.409,7.581-2.899,11.33-1.905,3.895,1.032,7.149,3.547,9.705,6.6,5.219,6.236,7.132,15.284,5.809,23.216-1.29,7.736-5.525,14.821-11.775,19.58-7.335,5.585-16.452,6.966-25.443,7.399-5.382.259-10.778-.193-16.095-1.019-4.161-.646-8.157-1.671-11.883-3.682-6.782-3.66-12.218-9.769-14.776-17.072-2.642-7.542-2.383-16.388,1.27-23.571,3.466-6.817,10.378-13.014,18.55-11.793,4.519.675,7.96,3.517,9.52,7.82,1.541,4.253,1.684,8.977.214,13.27-.673,1.964-1.762,3.757-3.19,5.261-2.126,2.24,1.262,5.64,3.394,3.394h0Z"/><path class="d" d="M67.066,76.683c-6.563.04-13.215,2.718-16.017,9.21-2.888,6.693-1.74,14.623,3.484,19.396,6.324,5.778,16.825,6.143,24.277,1.801,11.984-6.982,8.754-24.392-3.111-28.896-2.602-.988-5.608-1.53-8.634-1.512Z"/><path class="h" d="M70.015,90.874c-2.106.651-6.945.242-7.346-3.731.046-5.252,5.899-5.546,8.645-3.785,2.249,1.442,3.174,5.696-1.299,7.516Z"/><path class="h" d="M67.066,74.283c-4.105.054-8.319.968-11.814,3.2-3.68,2.349-6.158,5.926-7.346,10.104-2.46,8.652,1.013,18.529,9.436,22.427,8.186,3.788,19.628,2.894,26.268-3.569,4.934-4.802,6.333-12.304,4.095-18.729-1.296-3.72-3.59-6.944-6.733-9.323-3.931-2.975-9.052-4.094-13.905-4.11-3.089-.01-3.093,4.79,0,4.8,6.461.021,12.294,2.455,15.262,8.182,2.264,4.37,2.258,9.758-.536,13.933-3.866,5.776-12.493,7.189-18.971,5.666-3.482-.819-6.716-2.659-8.686-5.719-1.836-2.853-2.496-6.251-2.144-9.607.375-3.571,1.963-7.099,4.839-9.331,2.892-2.244,6.645-3.078,10.237-3.126,3.086-.041,3.095-4.841,0-4.8Z"/></g></svg>