<svg id="b" xmlns="http://www.w3.org/2000/svg" width="264.717" height="242.618" viewBox="0 0 264.717 242.618" style="color: initial !important;"><defs><style>.d{fill:#74c66d;}.e{fill:#211715;}</style></defs><g id="c"><path class="d" d="M157.554,218.266c.239,4.879.478,8.614-1.414,12.826-.219.498-.936,1.374-1.534,1.952-.607.578-1.026,1.314-1.255,2.091l-2.29-.309c-2.211-.548-5.268-2.131-5.168-4.76,0-1.275.916-3.714,3.366-4.302.03-2.39.01-8.972.04-11.103l-.159-1.056c2.689-.398,5.377-.936,8.076-1.653.149,2.579.259,4.86.339,6.313Z"/><path class="d" d="M103.572,214.591c.239,4.869.478,8.604-1.404,12.816-.229.508-.946,1.384-1.543,1.952-.607.588-1.026,1.324-1.255,2.101l-1.832-.179c-2.977,1.225-6.572,1.245-9.659.458-.856-.219-1.733-.528-2.4-1.115-1.075-.936-1.305-2.709-.528-3.914.588-.886,2.081-1.603,3.894-1.773.1-2.221-.01-2.987-.01-2.987.229-5.367.239-15.684,0-21.051l.408-.538c4.093,3.545,8.763,6.582,14.051,8.962.119,2.131.209,4.003.279,5.268Z"/><path class="d" d="M157.746,211.811c-10.685,2.898-21.208,3.194-32.202,2.169-7.012-.647-14.326-1.305-20.833-4.037-25.969-10.9-37.446-37.246-39.278-62.629-1.219-16.887,1.91-33.7.882-50.584-.486-7.985-1.35-15.944-2.698-23.83-1.247-7.296-2.244-15.317-5.717-21.944-2.747-5.241-7.238-8.942-12.903-10.593-4.428-1.534-10.22.506-16.489,1.73-5.809,1.134-11.479,2.15-15.214,1.66-2.183-.287-4.011-2.019-3.817-3.939l-.005-2.159c-2.54.537-4.785.546-5.859-.745-1.842-2.211-1.553-4.959.199-7.21,1.613-2.081,8.195-7.329,9.908-9.052,3.007-4.959,2.967-15.704,9.39-17.676,6.303-1.932,10.436,1.245,15.684,5.646,7.847.368,22.356,6.313,27.404,16.271,4.451,7.06,7,15.236,9.161,23.252,3.844,17.835,6.015,30.92,8.803,43.636,1.265,5.756,2.848,12.557,4.581,18.422.906,3.037,2.748,5.716,4.601,8.295,4.969,6.931,21.878,11.402,29.944,13.085,13.971,2.918,26.289,5.079,36.894,11.651,7.05,4.382,13.822,9.639,19.856,15.345,7.349,6.951,11.362,12.438,19,20.075,4.352,4.362,9.998,8.126,15.793,10.207,4.561,1.643,10.018,2.529,14.837,2.529,15.186.01,22.784-6.074,28.151-11.92,1.852-2.002,5.138-.159,4.441,2.47-.817,3.017-2.231,5.915-3.943,8.524-5.676,8.634-14.648,14.698-24.596,17.656-22.854,5.786-40.36-1.314-52.638-2.529l-23.34,6.222Z"/><path class="e" d="M86.436,200.902c.344,7.978.329,16.062.008,24.038l2.4-2.4c-2.244.268-4.667.935-5.962,2.962-1.304,2.042-.948,5.017.779,6.705,1.786,1.746,4.55,2.179,6.935,2.397,2.542.233,5.201-.076,7.581-1.01,1.206-.473,2.046-1.609,1.676-2.952-.316-1.15-1.739-2.152-2.952-1.676-2.739,1.074-5.73,1.188-8.566.408-.72-.198-1.375-.354-1.449-1.117-.03-.312.123-.319.321-.399.541-.216,1.039-.447,1.636-.518,1.331-.159,2.343-.972,2.4-2.4.321-7.976.336-16.059-.008-24.038-.133-3.077-4.933-3.094-4.8,0h0Z"/><path class="e" d="M151.702,232.51c-1.04-.271-1.476-.456-2.341-.984-.112-.069-.221-.142-.327-.219.107.086.1.077-.022-.026-.159-.137-.316-.283-.453-.443.209.244-.18-.285-.196-.315.159.307-.08-.266-.092-.339.057.348.034-.159.029-.271-.019-.427-.098.325-.003.038.051-.152.082-.317.125-.472.131-.48-.162.199.085-.218.41-.691.582-.961,1.393-1.184,1.027-.282,1.75-1.259,1.762-2.314.043-3.701-.008-7.403.04-11.104.04-3.09-4.76-3.091-4.8,0-.048,3.701.003,7.403-.04,11.104l1.762-2.314c-3.066.843-5.374,3.903-5.107,7.128.297,3.594,3.717,5.732,6.909,6.562,2.992.778,4.268-3.85,1.276-4.629h0Z"/><path class="e" d="M7.077,39.814c-.1,2.294,1.317,4.393,3.305,5.464,1.95,1.051,4.273,1.073,6.434.964,5.223-.262,10.483-1.38,15.572-2.529,2.279-.515,4.571-1.119,6.897-1.378,2.113-.236,3.961-.053,5.967.624,3.583,1.208,6.838,3.572,9.024,6.668,2.693,3.814,4.051,8.39,5.05,12.9,1.087,4.905,1.849,9.912,2.598,14.879,1.619,10.733,2.458,21.608,2.099,32.462-.365,11.022-1.561,22.024-1.215,33.063.259,8.259,1.432,16.536,3.711,24.486,4.404,15.362,13.077,29.552,26.344,38.768,3.504,2.434,7.271,4.439,11.209,6.073,4.827,2.002,9.991,2.876,15.154,3.487,10.412,1.231,20.885,1.725,31.279.069,2.655-.423,5.281-.992,7.878-1.687,2.981-.798,1.716-5.43-1.276-4.629-10.005,2.679-20.326,3.059-30.609,2.169-5.001-.433-10.036-.871-14.929-2.041-4.305-1.029-8.328-2.771-12.158-4.973-13.361-7.681-22.452-20.727-27.237-35.182-2.372-7.165-3.798-14.632-4.342-22.156-.773-10.701.205-21.412.759-32.098.558-10.775.186-21.426-1.1-32.14-.62-5.168-1.466-10.299-2.328-15.431-.799-4.751-1.694-9.536-3.458-14.039-1.597-4.078-3.82-7.889-7.19-10.758-3.184-2.711-7.231-4.82-11.421-5.324-4.698-.565-9.509,1.06-14.055,2.017-4.629.975-9.497,2.084-14.256,1.927-1.136-.037-2.967-.251-2.906-1.654.134-3.089-4.666-3.082-4.8,0h0Z"/><path class="e" d="M26.753,24.45c-.669-1.636-.685-5.532,2.461-6.133,4.199-.335,4.848,4.32,3.635,6.64-.993,1.899-4.326,2.939-6.096-.506Z"/><path class="d" d="M155.731,196.175c.944,4.519,1.589,17.482,1.82,22.095.243,4.876.481,8.608-1.407,12.82-.225.503-.938,1.38-1.535,1.95-2.178,2.079-1.896,6.162.705,6.576,6.716,1.071,17.085.805,19.958-1.826,1.336-1.224,2.019-3.956,2.544-6.219,2.311-9.962,3.482-26.328,3.713-35.428"/><path class="e" d="M153.416,196.813c.301,1.484.358,2.128.519,3.633.185,1.74.331,3.484.463,5.228.263,3.479.464,6.962.644,10.445.191,3.695.698,7.6-.162,11.238-.217.918-.461,1.933-.933,2.757-.515.899-1.406,1.532-1.99,2.392-1.065,1.567-1.439,3.629-1.045,5.475.949,4.445,5.854,4.362,9.498,4.55,3.854.198,7.848.096,11.625-.763,1.438-.327,2.949-.808,4.162-1.669,1.724-1.224,2.59-3.146,3.206-5.112,1.175-3.748,1.758-7.727,2.301-11.606,1.264-9.017,1.986-18.135,2.224-27.237.081-3.09-4.719-3.088-4.8,0-.194,7.427-.731,14.86-1.583,22.239-.426,3.689-.949,7.373-1.706,11.01-.363,1.743-.71,3.557-1.37,5.216-.245.616-.538,1.176-1.032,1.605.355-.308-.093.029-.261.122-.129.072-.26.137-.393.2-.37.176.525-.18-.197.078-3.051,1.089-6.421,1.211-9.628,1.191-1.846-.012-3.693-.11-5.529-.308-.335-.036-.671-.073-1.004-.122-.156-.023-.317-.04-.471-.072-.822-.171-.085-.002-.137.013-.503.146-.116-.279-.085-.04.019.142-.028.256-.055-.081.037.463-.166-.634-.106-.242-.226-1.483.789-2.143,1.761-3.366,1.326-1.669,2.005-3.826,2.374-5.907.657-3.706.348-7.461.157-11.194-.185-3.606-.391-7.211-.663-10.811-.255-3.376-.478-6.814-1.153-10.137-.258-1.271-1.764-2.003-2.952-1.676-1.322.363-1.935,1.678-1.676,2.952h0Z"/><path class="e" d="M19.386,31.977c-2.751.694-5.363,1.911-8.082,2.724-.756.226-1.518.433-2.289.602-.845.185-1.22.248-1.886.281-.319.016-.632.009-.95-.002-.391-.014.35.077-.016.01-.136-.025-.269-.065-.404-.089-.502-.09.053.115-.233-.082-.368-.254-.011.004.039.056-.155-.159-.245-.268-.368-.455-1.815-2.766,2.128-5.552,3.91-7.129,1.251-1.107,2.523-2.19,3.787-3.281.996-.861,2.246-1.723,2.959-2.85,1.655-2.616,2.247-5.943,3.114-8.871.431-1.456.902-2.953,1.515-4.184.316-.635.668-1.273,1.101-1.837-.151.197.394-.431.451-.489.241-.243.555-.497.569-.507,1.168-.799,2.934-1.14,4.621-1.066,1.664.073,3.224.746,4.638,1.585,1.892,1.123,3.529,2.553,5.238,3.925.839.674,1.716.679,2.732.78.381.038.578.068.586.07.388.06.776.127,1.162.202,6.625,1.288,13.311,4.431,18.228,9.091,2.838,2.69,4.754,6.074,6.533,9.525,2.203,4.274,3.805,8.822,5.186,13.419,2.795,9.306,4.362,19.002,6.207,28.533,1.566,8.089,3.122,16.179,4.953,24.214,1.09,4.786,2.235,9.569,3.626,14.278.695,2.354,1.776,4.54,3.11,6.596,1.044,1.61,2.13,3.281,3.495,4.642,2.365,2.359,5.375,4.067,8.378,5.472,3.402,1.591,6.943,2.879,10.531,3.98,15.833,4.859,33.18,5.439,47.534,14.427,8.421,5.273,16.147,11.614,23.051,18.754,6.38,6.597,11.998,14.203,19.274,19.866,7.733,6.019,16.933,9.31,26.737,9.606,8.022.242,16.335-1.339,23.146-5.749,2.536-1.642,4.855-3.62,6.954-5.79.371-.384.957-.946,1.206-1.233-.052.06-.145.008-.199.031.1-.044.417.077.125-.023.153.053.376.163.262.12-.042-.016.027.219.043-.061-.02.346-.123.672-.254,1.095-.384,1.237-.863,2.431-1.438,3.592-3.777,7.627-10.431,13.502-17.985,17.247-8.228,4.079-17.73,5.182-26.821,4.932-7.815-.215-15.431-1.726-23.074-3.24-3.08-.61-6.17-1.183-9.296-1.501-1.291-.132-2.4,1.197-2.4,2.4,0,1.407,1.105,2.268,2.4,2.4,2.287.233,4.752.69,7.268,1.182,2.932.574,5.857,1.185,8.798,1.716,6.949,1.254,13.995,2.069,21.066,1.829,7.986-.271,15.97-1.63,23.258-4.987,6.464-2.977,12.35-7.439,16.742-13.056,2.467-3.155,4.509-6.59,5.83-10.386.631-1.811,1.08-3.669.09-5.452-.776-1.397-2.214-2.336-3.783-2.546-3.125-.418-4.833,2.255-6.842,4.135-1.827,1.71-3.516,3.003-5.724,4.28-5.608,3.241-12.118,4.352-18.533,4.284-7.788-.083-15.323-2.282-21.832-6.568-6.546-4.31-11.619-10.578-16.826-16.348-5.313-5.886-10.928-11.432-17.143-16.369-6.314-5.015-12.976-9.661-20.446-12.777-6.99-2.915-14.413-4.596-21.802-6.148-6.026-1.266-12.052-2.438-17.948-4.239-5.319-1.624-11.3-3.691-15.57-7.042-2.424-1.902-3.932-4.271-5.454-7.132-1.802-3.387-2.508-7.474-3.424-11.173-1.737-7.012-3.23-14.082-4.629-21.168-1.413-7.157-2.762-14.326-4.205-21.477-1.665-8.25-3.424-16.421-6.503-24.284-2.54-6.486-5.807-13.314-11.135-17.981-4.626-4.053-10.283-6.976-16.166-8.722-2.395-.71-4.878-1.207-7.377-1.34l1.697.703c-2.773-2.322-5.583-4.675-8.981-6.017-3.174-1.253-6.919-1.209-10.055.148-5.221,2.258-6.557,8.637-7.973,13.549-.344,1.193-.691,2.399-1.169,3.547-.045.109-.013.046-.162.349-.12.245-.233.513-.387.741.208-.308.079-.094-.093.052-.207.176-.402.37-.604.552-1.99,1.786-4.06,3.482-6.048,5.272-2.138,1.924-4.401,4.027-4.909,7.008-.554,3.248.967,7.082,4.371,8.008,2.811.765,5.986-.135,8.677-.978,2.513-.788,4.948-1.902,7.503-2.547,2.993-.755,1.725-5.386-1.276-4.629h0Z"/><path class="d" d="M101.751,192.824c.944,4.519,1.589,17.151,1.82,21.764.243,4.876.481,8.608-1.407,12.82-.225.503-.938,1.38-1.535,1.95-2.178,2.079-1.896,6.162.705,6.576,6.716,1.071,17.085.805,19.958-1.826,1.336-1.224,2.019-3.956,2.544-6.219,2.311-9.962,3.482-25.997,3.713-35.096"/><path class="e" d="M99.436,193.462c.543,2.669.744,5.638.98,8.705.263,3.414.464,6.833.643,10.253.194,3.7.701,7.612-.16,11.255-.217.918-.461,1.933-.933,2.757-.515.899-1.406,1.532-1.99,2.392-1.05,1.544-1.402,3.525-1.069,5.347.822,4.497,5.709,4.471,9.343,4.668,3.869.21,7.864.114,11.661-.722,1.424-.314,2.923-.773,4.147-1.588,1.715-1.142,2.608-2.958,3.247-4.861,1.243-3.7,1.813-7.698,2.367-11.549,1.302-9.043,2.037-18.195,2.276-27.327.081-3.09-4.719-3.088-4.8,0-.195,7.449-.742,14.904-1.618,22.304-.433,3.654-.966,7.304-1.732,10.905-.355,1.67-.675,3.449-1.343,5.028-.171.403-.384.834-.649,1.183.03-.039-.535.452-.259.246.196-.147-.438.241-.543.297-.099.053-.201.101-.304.147.391-.175-.327.112-.333.114-3.037,1.039-6.395,1.134-9.572,1.105-1.842-.017-3.685-.12-5.515-.325-.332-.037-.664-.075-.994-.127-.146-.023-.293-.055-.439-.075-.386-.053.234-.008-.114-.02-.199-.007-.046-.07.054.081.125.188-.09-.134-.091-.142.02.243-.125-.486-.114-.377-.053-.561.037-.974.236-1.386.335-.694,1.027-1.208,1.534-1.845,1.326-1.667,2.005-3.827,2.374-5.907.651-3.672.353-7.39.162-11.089-.185-3.583-.393-7.165-.669-10.741-.256-3.324-.486-6.708-1.151-9.981-.258-1.271-1.764-2.003-2.952-1.676-1.322.363-1.935,1.678-1.676,2.952h0Z"/></g></svg>