<svg id="b" xmlns="http://www.w3.org/2000/svg" width="254.766" height="196.424" viewBox="0 0 254.766 196.424" style="color: initial !important;"><defs><style>.d{fill:#ffffff;}.e{fill:#211715;}.f{fill:#febe69;}</style></defs><g id="c"><path class="f" d="M124.596,154.092c-10.764-.641-26.099-3.629-33.782-9.825-7.89-6.362-12.215-15.638-15.954-24.653s-6.023-17.999-8.213-27.501c-1.192-5.258-2.032-8.39-4.45-13.027-1.333-2.556-4.412-5.565-8.386-6.465-.34.037-.675.071-1.003.1-3.819.347-10.591.173-13.947-.116-5.164-.444-10.605-1.305-14.902-4.774-1.451-1.172-2.433-2.899-3.133-4.628-.239-.591-.42-1.258-.202-1.857.371-1.019,1.645-1.322,2.725-1.422,4.133-.383,8.333-.008,12.421-.726,3.613-.635,7.297-2.358,9.271-5.373.856-1.307.102-3.116-1.427-3.439-6.162-1.302-12.65-.423-18.986-.695-5.62-.241-9.898-.785-15.525-1.767-1.781-.311-4.138-1.754-5.176-3.233-1.831-2.608-1.806-5.178-1.125-7.891.783-3.118,3.112-5.491,5.642-7.475,4.352-3.415,10.105-4.942,15.255-6.071,3.147-.69,7.896-1.718,12.217-3.298,5.26-1.924,7.557-5.905,11.581-9.371,4.413-3.802,9.823-6.456,15.548-7.554,19.209-3.684,33.297,8.739,39.955,25.453,4.092,10.273,3.739,20.189,10.474,27.505,0,0,1.963,2.285,4.461,4.203,1.963,1.338,4.572,2.578,4.572,2.578,28.306,12.866,50.309,38.527,57.062,45.718,3.84,4.089,7.265,8.756,12.118,11.568,5.64,3.268,12.525,3.604,19.004,2.888,9.857-1.089,25.847-11.039,34.24-16.321,2.051-1.291,4.922-2.64,6.63-.919,1.461,1.472.696,3.952-.263,5.791-7.554,14.493-27.746,29.821-43.193,35.159-15.447,5.338-32.01,6.484-48.796,6.442l-34.711,1Z"/><path class="d" d="M64.037,83.046c1.128,2.807,1.784,5.427,2.609,9.067,2.19,9.503,4.457,18.448,8.213,27.501s8.064,18.29,15.954,24.653c7.777,6.271,23.395,9.256,34.175,9.847-1.042-3.791-1.854-7.645-2.433-11.533-1.088-.045-1.827-.075-1.827-.075-2.817-.253-7.202-1.628-8.894-2.25-6.453-2.373-10.317-5.906-14.048-10.801-.577-.757-1.625-2.107-1.953-3.001l-11.4-18.49c-2.178-13.64-9.471-28.904-18.998-38.757-3.172,2.01-7.51,2.938-11.288,3.376.928.383,1.524.63,1.524.63,3.067,1.273,5.409,3.732,6.525,5.873.744,1.427,1.339,2.712,1.84,3.96Z"/><path class="f" d="M92.632,147.776c.234.903.485,1.806.752,2.709.552,1.89,1.17,3.762,1.789,5.635.351,1.087.719,2.174,1.07,3.261,1.354,4.08,2.709,8.177,4.047,12.257-3.913.067-8.076.184-11.337,2.341-3.277,2.157-4.983,7.14-2.391,10.083,1.722,1.956,4.565,2.324,7.157,2.425,5.501.201,11.019-.251,16.42-1.371,1.388-.284,3.545-1.321,4.598-2.257,1.737-1.545,1.881-5.514,2.837-9.391.793-3.215,4.319-13.718,4.929-16.466"/><path class="f" d="M70.61,109.267c-3.093,0-6.187-.184-9.297-.217-.736-.017-1.505,0-2.124.385-.803.502-1.137,1.455-1.639,2.257-1.756,2.726-6.02,3.177-8.595,1.187s-3.311-5.836-2.09-8.846c1.204-3.027,4.097-5.184,7.24-6.02,3.093-.819,6.404-.502,9.498-1.354,1.304-.351,2.525-.92,3.695-1.605"/><path class="f" d="M121.563,124.399c-.413,10.607.917,21.279,3.919,31.461.59,2,1.243,3.98,1.896,5.96.377,1.144.755,2.288,1.132,3.432,1.425,4.32,2.851,8.64,4.276,12.96-4.136.057-8.528.189-11.98,2.468-3.452,2.279-5.256,7.546-2.521,10.65,1.81,2.055,4.825,2.449,7.562,2.552,5.807.218,11.64-.266,17.331-1.439,2.465-.508,4.459-1.901,5.717-3.557,1.447-2.389,2.541-5.005,2.913-8.015.331-2.678.417-6.112.28-8.508-.354-6.199,5.589-24.065,8.017-33.141"/><path class="e" d="M90.318,148.414c2.116,8.065,5.061,15.942,7.658,23.861l2.314-3.038c-6.218.11-13.653.855-16.49,7.346-1.181,2.701-1.309,5.96.484,8.44,2.032,2.811,5.403,3.617,8.689,3.826,3.791.241,7.642.051,11.41-.397,3.374-.401,6.859-.769,9.892-2.405,1.287-.694,2.476-1.579,3.232-2.854.772-1.3,1.127-2.843,1.422-4.309.501-2.483.962-4.936,1.689-7.364,1.382-4.614,3.128-9.183,4.2-13.882.686-3.007-3.941-4.291-4.629-1.276-.796,3.488-2.036,6.899-3.101,10.31-.552,1.768-1.114,3.535-1.607,5.321-.667,2.414-.914,4.92-1.576,7.332-.19.694-.44,1.465-.855,1.837-.855.767-2.163,1.284-3.262,1.571-3.071.801-6.358,1.097-9.517,1.281-2.897.169-6.04.389-8.91-.148-1.922-.359-3.709-1.313-3.657-3.406.152-6.118,8.188-6.346,12.586-6.424,1.492-.026,2.812-1.522,2.314-3.038-2.597-7.919-5.543-15.796-7.658-23.861-.783-2.985-5.414-1.719-4.629,1.276h0Z"/><path class="e" d="M70.61,106.867c-2.168-.006-4.335-.091-6.502-.156-2.025-.061-4.491-.442-6.27.755-.842.566-1.427,1.362-1.918,2.237-.309.55-.559,1.036-1.052,1.39-.849.609-2.114.75-3.091.509-2.407-.592-3.463-3.375-2.981-5.688.62-2.971,3.352-4.938,6.16-5.638,2.228-.556,4.562-.523,6.829-.832,2.41-.329,4.614-1.108,6.725-2.317,2.68-1.535.265-5.684-2.423-4.145-1.864,1.068-3.783,1.646-5.924,1.855-2.4.234-4.879.283-7.198,1.01-3.932,1.233-7.391,4.147-8.632,8.161-1.13,3.654-.092,8.112,2.925,10.568,3.088,2.514,7.798,2.588,10.881.014.822-.687,1.403-1.537,1.924-2.465.118-.21.219-.537.425-.651.308-.17,1.2-.02,1.523-.014,2.867.049,5.73.199,8.598.207,3.089.009,3.093-4.791,0-4.8h0Z"/><path class="e" d="M58.472,30.901c-.72-2.617-.031-8.557,4.874-8.898,6.463.258,6.6,7.473,4.327,10.786-1.861,2.713-7.132,3.688-9.2-1.888Z"/><path class="e" d="M128.101,66.768c-.313,1.422-.454,2.875-.627,4.319-.007.057-.068.469-.012.1-.025.163-.048.327-.075.49-.046.277-.098.554-.156.829-.137.644-.313,1.28-.524,1.904-.087.257-.191.508-.281.764-.13.369.139-.283-.028.07-.066.14-.128.283-.195.423-.286.599-.636,1.154-.956,1.734-.766,1.389-.716,3.04.263,4.309.972,1.258,2.432,1.489,3.928,1.585,1.119.072,2.253-.048,3.351-.26,2.249-.434,4.317-1.526,6.082-2.961,1.988-1.616,3.416-3.818,4.226-6.237.399-1.191-.46-2.675-1.676-2.952-1.326-.302-2.525.401-2.952,1.676-.071.212-.152.419-.227.63-.093.257.046-.113.057-.135-.043.084-.079.172-.12.258-.191.397-.406.781-.644,1.152-.119.185-.244.364-.371.542-.265.373.214-.239-.086.105-.288.329-.579.652-.896.953-.158.15-.321.295-.487.436-.071.06-.146.117-.216.179.017-.015.337-.244.116-.09-.358.25-.712.498-1.09.718-.351.204-.717.37-1.078.553.418-.212,0-.001-.204.073s-.411.143-.62.206c-.388.116-.782.211-1.18.284-.092.017-.185.029-.276.048.522-.108.214-.024.081-.013-.218.019-.436.039-.655.048-.409.018-.819.012-1.227-.018-.126-.009-.253-.028-.379-.035.021.001.441.075.164.022-.093-.018-.19-.036-.284-.048-.302-.039-.036-.016.111.066.169.094.332.258.423.424,0,0,.151.474.088.22-.066-.262.028.261.028.253,0-.004-.097.511-.03.242.072-.285-.266.37-.012.091.073-.08.127-.206.182-.299.139-.234.271-.471.398-.712.549-1.037,1.013-2.134,1.376-3.249.425-1.307.641-2.648.819-4.008.08-.616.148-1.233.224-1.85,0-.004.056-.407.022-.173-.029.203.041-.253.047-.295.059-.367.13-.731.21-1.095.269-1.223-.367-2.654-1.676-2.952-1.213-.276-2.664.365-2.952,1.676h0Z"/><path class="e" d="M170.88,99.998c-.86,1.77-1.859,3.467-2.998,5.071-.129.181-.259.361-.391.539-.075.102-.153.202-.228.305-.16.219.072-.089.086-.108-.287.397-.618.762-.924,1.145-.883,1.105-1.22,2.353-.963,3.75.207,1.123.965,2.15,1.928,2.748.938.582,2.073.787,3.149.915,1.891.225,3.772-.24,5.49-1.005,1.957-.871,3.54-2.298,4.824-3.988.351-.461.388-1.32.242-1.849-.153-.557-.584-1.16-1.103-1.434-1.266-.669-2.469-.21-3.284.861-.005.007.317-.384.143-.188-.05.057-.096.118-.146.175-.116.136-.236.268-.359.396-.231.242-.474.471-.728.689-.059.05-.121.097-.179.149-.199.178.18-.151.18-.135,0,.073-.367.265-.444.316-.28.189-.57.364-.868.524-.137.074-.277.144-.417.211.023-.011-.282.132-.283.129-.006-.013.463-.177.214-.094-.319.106-.63.226-.956.313-.149.04-.299.075-.45.107-.081.017-.702.118-.287.058.396-.057-.118.004-.214.01-.178.011-.356.016-.535.014s-.357-.011-.534-.026c-.074-.006-.154-.024-.229-.023-.004,0,.516.093.258.03-.327-.081-.651-.153-.976-.247-.318-.092.068-.087.15.08-.02-.041-.143-.062-.178-.098-.183-.19.23.229.22.18-.007-.036-.113-.105-.137-.137-.149-.194.178.257.18.234.003-.03-.079-.135-.094-.165-.106-.211.118.292.121.282.009-.028-.045-.216-.061-.245.151.279.056.54.055.26,0-.086.027-.33-.018.065-.064.568.171-.389-.019.11-.127.334-.051.127,0,.05,0,.001-.354.427-.152.19.165-.193.324-.391.482-.589.603-.754,1.19-1.522,1.743-2.313,1.073-1.535,2.016-3.154,2.834-4.838.548-1.127.345-2.647-.861-3.284-1.077-.569-2.698-.345-3.284.861h0Z"/><path class="e" d="M149.957,83.088c-.275,1.219-.62,2.42-1.046,3.595-.1.276-.205.551-.313.824-.054.136-.109.273-.166.408.163-.389.014-.037-.019.034-.274.602-.555,1.2-.864,1.785-.579,1.098-1.512,2.203-1.547,3.498-.032,1.188.555,2.253,1.575,2.871,1.28.775,2.957.797,4.409.714,1.753-.101,3.517-.386,5.146-1.058,2.481-1.024,4.65-2.713,5.811-5.193.531-1.135.356-2.641-.861-3.284-1.063-.562-2.716-.353-3.284.861-.178.381-.377.749-.612,1.098-.048.071-.13.224-.202.286.043-.037.345-.404.051-.08-.154.17-.304.34-.469.5-.142.139-.298.262-.442.399-.187.178.133-.105.154-.111-.071.021-.204.15-.275.199-.35.243-.718.459-1.099.65-.102.051-.208.096-.308.149-.233.123.163-.067.18-.07-.204.032-.449.176-.646.243-.411.14-.83.257-1.254.353-.199.045-.398.086-.599.122-.12.022-.715.09-.372.063.384-.031-.164.013-.252.021-.085.008-.17.015-.255.022-.48.038-.963.061-1.445.054-.26-.003-.518-.033-.777-.039-.371-.01.63.123.16.022-.146-.032-.29-.068-.436-.102-.437-.101.265.129.203.095-.358-.201.424.417.201.177-.073-.079-.136-.188.098.135.08.11.347.703.323.601.059.255.068.592.019.81.055-.246-.317.479-.125.291.036-.035.06-.111.087-.154.138-.216.268-.44.397-.661.296-.508.576-1.025.84-1.55,1.166-2.318,2.069-4.772,2.64-7.303.276-1.222-.372-2.655-1.676-2.952-1.219-.278-2.657.366-2.952,1.676h0Z"/><path class="e" d="M151.856,85.373c.306-1.073.549-2.163.728-3.264,2.948,2.434,5.719,4.876,8.289,7.25-1.477,3.245-4.814,4.687-8.168,5.004-.982.093-5.401.46-4.068-1.694,1.403-2.267,2.489-4.731,3.219-7.295Z"/><path class="e" d="M129.663,72.529c.333-1.885.378-3.833.894-5.684,3.538,1.973,6.954,4.114,10.226,6.352-1.681,5.174-7.217,8.54-12.578,7.543-.972-.181-1.415-1.294-.888-2.13,1.12-1.775,1.904-3.755,2.296-5.809.017-.091.034-.181.05-.272Z"/><path class="e" d="M171.696,103.576c.431-.742.836-1.501,1.211-2.273,2.556,2.705,4.605,4.971,6.083,6.565-2.098,3.057-6.377,5.115-10.026,3.695-1.22-.475-1.6-2.023-.757-3.025,1.303-1.549,2.472-3.211,3.489-4.961Z"/><path class="e" d="M64.372,71.569c9.33,10.061,15.548,23.531,17.748,37.034.209,1.28,1.799,1.993,2.952,1.676,1.361-.374,1.885-1.668,1.676-2.952-2.33-14.302-9.118-28.515-18.982-39.152-2.105-2.27-5.493,1.13-3.394,3.394h0Z"/><path class="e" d="M93.52,127.092c1.074,2.567,3.05,4.83,4.892,6.889,1.901,2.124,4.075,4.015,6.481,5.548,4.607,2.935,10.408,4.824,15.836,5.377,1.291.132,2.4-1.197,2.4-2.4,0-1.407-1.105-2.268-2.4-2.4-2.315-.236-4.633-.964-6.839-1.679s-4.298-1.633-6.267-2.85c-1.992-1.231-3.744-2.753-5.338-4.465-.823-.883-1.602-1.809-2.344-2.762-.587-.754-1.477-1.779-1.793-2.535-.5-1.195-1.588-2.051-2.952-1.676-1.127.31-2.18,1.749-1.676,2.952h0Z"/><path class="e" d="M54.461,75.286c7.048,3.067,8.525,11.664,10.084,18.383,2.022,8.716,4.278,17.399,7.642,25.708,2.973,7.344,6.266,14.634,11.255,20.853,2.313,2.883,5.03,5.527,8.145,7.536,2.817,1.816,5.961,3.142,9.118,4.24,7.644,2.66,15.829,3.991,23.891,4.487,3.085.19,3.074-4.611,0-4.8-6.865-.422-13.736-1.554-20.319-3.566-3.178-.971-6.298-2.161-9.176-3.837-2.952-1.719-5.416-4.053-7.628-6.679-4.828-5.731-7.972-12.831-10.745-19.727-3.285-8.17-5.51-16.697-7.5-25.26-1.86-8.002-3.989-17.845-12.343-21.481-1.188-.517-2.575-.35-3.284.861-.594,1.016-.334,2.764.861,3.284h0Z"/><path class="f" d="M93.414,99.758c-3.66,3.463-7.32,6.926-10.98,10.389-3.033,2.87-6.237,5.838-10.261,6.949-3.091.853-6.411.527-9.509,1.354-3.143.839-6.024,2.999-7.239,6.016-1.215,3.018-.475,6.853,2.095,8.848,2.57,1.995,6.836,1.546,8.594-1.191.508-.79.844-1.758,1.643-2.252.618-.383,1.388-.396,2.115-.39,5.717.048,11.48.608,17.124-.307s11.336-3.584,14.284-8.483"/><path class="e" d="M91.717,98.061l-9.563,9.049c-2.659,2.516-5.272,5.241-8.584,6.9-3.642,1.825-7.88,1.086-11.718,2.176-3.33.946-6.478,3.155-8.118,6.255-1.661,3.138-1.719,7.021.047,10.136,1.679,2.96,4.955,4.663,8.34,4.315,1.731-.178,3.325-.8,4.661-1.926.593-.5,1.087-1.125,1.496-1.783.22-.354.436-1.097.819-1.279.618-.294,2.003-.007,2.682.009,1.114.026,2.228.065,3.342.098,2.223.067,4.449.123,6.673.045,8.2-.288,16.986-2.779,21.559-10.154,1.632-2.633-2.518-5.046-4.145-2.423-3.294,5.312-9.846,7.289-15.754,7.692-3.888.265-7.785.034-11.675-.058-1.734-.041-3.675-.245-5.234.686-.756.451-1.326,1.143-1.792,1.876-.371.585-.596,1.243-1.134,1.696-1.454,1.224-3.888,1.007-5.166-.455-1.667-1.907-1.497-4.82-.119-6.823,1.6-2.326,4.322-3.385,7.028-3.723,3.846-.481,7.473-.533,10.984-2.399,3.357-1.783,6.111-4.544,8.846-7.132,3.306-3.128,6.611-6.256,9.917-9.384,2.248-2.128-1.15-5.518-3.394-3.394h0Z"/><path class="e" d="M159.307,155.493c21.724.041,44.399-1.818,63.442-13.2,8.347-4.989,16.189-11.187,22.668-18.456,2.957-3.317,5.718-6.912,7.802-10.849,1.113-2.102,2.031-4.586,1.265-6.962-.872-2.703-3.594-3.852-6.243-3.406-2.182.368-4.07,1.647-5.909,2.799-1.64,1.028-3.285,2.046-4.941,3.047-3.891,2.352-7.839,4.617-11.899,6.666-3.713,1.874-7.536,3.616-11.557,4.718-4.183,1.147-8.947,1.385-13.475.677-5.241-.819-9.41-3.28-13.088-7.033-2.633-2.687-5.074-5.57-7.621-8.339-4.199-4.566-8.437-9.09-12.883-13.419-6.459-6.288-13.291-12.197-20.552-17.543-3.932-2.895-7.999-5.612-12.211-8.084-3.837-2.252-7.867-4.055-11.794-6.125-3.541-1.867-6.722-4.617-8.931-7.99-2.596-3.963-3.688-8.615-4.804-13.158-1.234-5.021-2.629-9.932-4.832-14.627-1.857-3.956-4.204-7.661-7.007-11.015-5.311-6.356-12.64-11.189-20.87-12.65-9.738-1.729-20.06.697-27.966,6.657-2.049,1.545-3.862,3.293-5.64,5.138-1.548,1.606-3.105,3.218-5.044,4.356-2.143,1.258-4.652,1.894-7.034,2.543-2.356.643-4.74,1.173-7.124,1.699C13.701,23.001,1.423,27.355.08,38.412c-.651,5.36,2.748,10.474,8.064,11.76,2.76.668,5.695.954,8.511,1.288,2.726.324,5.467.536,8.21.64,5.915.223,11.763-.32,17.648.506.164.023.544-.036.438-.036.378-.001-.136.286.018.043-.537.851-1.351,1.576-2.184,2.128-1.925,1.278-4.154,1.963-6.434,2.264-3.008.397-6.066.247-9.09.389-2.509.118-5.763.269-6.83,3.027-.997,2.577.876,5.69,2.448,7.664,1.702,2.137,4.203,3.554,6.693,4.585,4.376,1.812,9.233,2.278,13.926,2.504,4.484.216,9.02.286,13.48-.295,4.779-.622,9.524-1.804,13.367-4.845,1.017-.805.842-2.552,0-3.394-1.005-1.005-2.374-.807-3.394,0-3.278,2.594-8.103,3.323-12.142,3.681-4.162.369-8.413.244-12.578-.016-4.423-.276-9.114-.833-13-3.122-.998-.588-1.982-1.256-2.707-2.176-.289-.367-.53-.781-.758-1.188-.266-.474-.479-1.4-.81-1.803-.263-.32-.252.269-.216.374.068.205-.563.077.254.007.436-.037.87-.119,1.312-.149,1.515-.102,3.035-.12,4.553-.148,5.173-.096,10.654-.455,14.967-3.651,1.846-1.368,4.023-3.392,3.971-5.884-.057-2.779-2.182-4.289-4.702-4.713-5.732-.965-11.502-.394-17.275-.524-5.306-.119-10.619-.719-15.838-1.678-2.009-.369-3.885-1.534-4.734-3.447-.838-1.887-.518-4.324.356-6.147,1.945-4.054,6.562-6.75,10.616-8.242,8.961-3.299,19.758-3.024,27.123-9.777,1.634-1.498,3.086-3.18,4.692-4.706,1.746-1.658,3.672-3.083,5.753-4.293,4.061-2.361,8.635-3.795,13.32-4.16,7.771-.604,15.387,1.778,21.368,6.803,6.276,5.273,10.712,12.602,13.262,20.341,2.928,8.886,3.614,18.555,10.156,25.792,2.69,2.976,5.76,5.282,9.38,7.013,4.267,2.04,8.441,4.191,12.477,6.664,7.765,4.758,15.012,10.307,21.84,16.323,5.519,4.863,10.763,10.029,15.809,15.38,4.295,4.554,8.331,9.388,12.726,13.838,3.643,3.689,7.901,6.492,12.988,7.71,4.902,1.174,10.179,1.182,15.143.386,3.893-.624,7.622-2.137,11.204-3.731,4.045-1.799,7.956-3.895,11.794-6.098,3.412-1.958,6.764-4.018,10.095-6.11.774-.486,1.542-1.003,2.372-1.389.439-.205,1.693-.829,2.113-.449.85.769-.829,3.363-1.226,4.065-4.339,7.686-10.939,14.07-17.799,19.512-6.812,5.404-14.52,10.239-22.734,13.191-10.337,3.716-21.318,5.408-32.244,6.116-5.5.356-11.012.465-16.523.455-3.089-.006-3.093,4.794,0,4.8h0Z"/><path class="e" d="M119.163,124.399c-.339,9.314.61,18.685,2.829,27.74s5.563,17.87,8.48,26.711l2.314-3.038c-4.357.063-9.012.242-12.843,2.575-3.197,1.947-5.537,5.703-5.382,9.517.174,4.261,3.399,7.17,7.437,7.962,4.601.902,9.616.551,14.245.058,4.547-.485,9.573-.859,13.136-4.035,3.183-2.836,4.499-7.717,4.916-11.802.343-3.358-.061-6.73.281-10.069.073-.711.051-.524.175-1.291.117-.726.253-1.45.398-2.171.32-1.587.691-3.163,1.084-4.733,1.846-7.381,4.212-14.616,6.186-21.962.802-2.987-3.827-4.261-4.629-1.276-1.542,5.74-3.333,11.411-4.912,17.141-1.407,5.105-3.156,10.593-3.205,15.937-.031,3.347.265,6.734-.425,10.044-.654,3.135-1.995,6.622-5.137,7.961-1.834.781-4.065.965-6.024,1.236-2.211.306-4.443.486-6.673.574-2.102.083-4.219.098-6.319-.03-1.514-.093-3.248-.286-4.5-1.224-2.342-1.752-1.004-5.205.758-6.916,2.858-2.775,7.748-2.64,11.434-2.694,1.491-.022,2.813-1.526,2.314-3.038-2.868-8.693-6.143-17.364-8.366-26.25-2.203-8.804-3.102-17.859-2.772-26.925.113-3.089-4.688-3.085-4.8,0h0Z"/></g></svg>