<svg id="b" xmlns="http://www.w3.org/2000/svg" width="265.791" height="246.244" viewBox="0 0 265.791 246.244" style="color: initial !important;"><defs><style>.d{fill:#ffffff;}.e{fill:#a98a75;}.f{fill:#211715;}</style></defs><g id="c"><path class="d" d="M130.971,52.215c1.59.16,3.81.65,3.55,3.34-.17,1.66-2.01,3.9-5.36,5.46-1.46.67-6.23,1.56-6.23,1.56l-6.59,1.02c-2.52-1.13-5.04-2.4-7.59-3.81-6.84-3.77-48.54-41.74-65.73-41.74-.45-1.48-1.04-2.92-1.78-4.32l.98-.27c13.56-1.56,29.31-1.18,40.73,7.34.96.72.97,2.64.11,3.5-1.01,1.01-1.51,2.91-.24,3.38,7.5,2.76,14.3,5.97,21.27,10.15,1.06.64,1.26,2.4.35,3.3l-1.14,1.36c-.85.84-.92,2.08.12,2.62,4.66,2.41,16.23,5.97,27.55,7.11Z"/><path class="d" d="M263.371,163.205c-4.5-1.73-7-2.69-9.72-5.22-2.78-2.59-5.19-5.6-7.11-8.88-2.32-3.92-4.79-9.37-5.3-14.5,1.92-10.78,3.7-21.85.45-32.85-2.25-8.05-5.73-15.1-10.93-20.93l1.89-1.29c6.61-5.22,16.55,1.66,20.18,7.43,4.53,7.18,4.11,16.28,3.9,24.78-.41,17.75.92,35.11,6.64,51.46Z"/><path class="e" d="M240.659,239.026c.608-.756.954-1.729.908-2.776-.151-3.441-.342-8.078-.377-10.205-.176-10.885-1.915-31.403-2.121-35.799-.424-9.241-.398-25.576-.45-34.496-.077-17.055,8.496-35.627,3.072-53.993-3.329-11.927-9.374-21.658-19.705-28.504-11.31-7.494-26.98-8.642-39.067-5.913-29.813,6.731-51.002,5.232-74.167-7.553-6.838-3.774-48.545-41.741-65.731-41.741-1.713-5.603-5.519-10.667-10.76-15.143-1.463-1.25-3.737-.104-3.625,1.817.337,5.769,1.509,12.603,2.432,15.392-.489.349-.847.632-.847.632-8.808,6.98-11.237,18.24-17.729,27.414-2.739,3.87-6.136,7.406-8.292,11.629-2.156,4.223-2.819,10.584.301,14.154,1.195,1.368,2.816,2.311,4.516,2.95,4.728,1.777,10.053.319,13.97-1.964,2.894-1.686,17.157-11.788,23.939-17.589.791.66,1.324,1.096,1.324,1.096l2.998,2.453c12.672,13.388,25.263,50.814,27.253,59.557,3.338,14.672,8.312,20.123,10.68,37.329,1.188,8.629,4.133,43.708,3.716,52.329-.576,12.018-2.073,18.42-3.274,31.518-.098,1.484,1.508,2.269,2.158,2.244,4.746-.123,10.032-.392,15.256-.503,1.889-.049,3.458-1.496,3.63-3.385.429-4.599.76-9.333,1.067-15.182.233-4.538.441-9.014.515-12.374.552-12.178.871-25.815.981-38.005.073-7.449,1.109-23.941,1.827-33.082,17.086,1.285,60.736-1.565,75.447-6.17.35.922.574,1.501.574,1.501,3.528,9.126,7.954,17.756,13.972,25.509,4.199,5.41,9.87,10.593,11.388,17.473,1.038,4.704,1.669,9.51,2.307,14.281,1.641,12.278,3.193,20.984,3.809,33.364.129,2.712-1.452,10.745-1.452,10.745-.154,1.208,2.095,3.007,3.303,2.93l13.138-.39c1.266-.038,2.381-.637,3.115-1.55Z"/><path class="f" d="M233.866,81.602c4.069-3.086,9.234-.78,12.797,2.12,4.458,3.629,6.675,8.666,7.404,14.323.855,6.638.176,13.433.196,20.101.021,7.248.387,14.503,1.315,21.694,1.054,8.167,2.775,16.217,5.48,24.004l2.952-2.952c-2.35-.901-4.744-1.764-6.855-3.163-2.343-1.552-4.348-3.851-6.038-6.072-3.665-4.819-6.804-10.97-7.478-17.05-.143-1.288-1.001-2.4-2.4-2.4-1.187,0-2.544,1.103-2.4,2.4.798,7.209,4.113,14.239,8.506,19.96,2.044,2.661,4.351,5.217,7.127,7.132,2.5,1.724,5.445,2.742,8.26,3.822,1.679.644,3.522-1.312,2.952-2.952-5.041-14.511-6.627-29.839-6.624-45.13.001-7.211.673-14.495-.512-21.651-1.019-6.156-3.857-11.736-8.76-15.675-5.022-4.034-12.57-7.034-18.346-2.653-1.031.782-1.571,2.07-.861,3.284.594,1.016,2.245,1.649,3.284.861h0Z"/><path class="d" d="M241.565,236.25c.101,2.313-1.71,4.262-4.023,4.324l-13.137.39c-1.207.075-3.457-1.722-3.306-2.929,0,0,.88-4.463,1.282-7.87l.314.038c2.414.101,14.243.05,18.618-.063.075,1.986.163,4.224.251,6.11Z"/><path class="d" d="M111.264,232.744c-.189,2.527-.377,4.89-.591,7.228-.176,1.898-1.747,3.344-3.633,3.382-5.217.113-10.509.39-15.261.515-.641.013-2.25-.767-2.15-2.25.314-3.432.654-6.399.981-9.127,5.393.163,16.883.327,20.654.251Z"/><path class="f" d="M115.059,143.732c10.488.775,21.133.228,31.613-.401,11.782-.707,23.624-1.72,35.258-3.761,4.217-.74,8.589-1.534,12.496-3.358,1.175-.548,1.472-2.239.861-3.284-.704-1.204-2.105-1.411-3.284-.861-.135.063-.271.124-.407.184-.024.01.472-.178.004-.008-.353.129-.703.264-1.06.385-.767.26-1.546.487-2.328.698-1.975.531-3.979.952-5.988,1.33-5.284.993-10.236,1.628-15.53,2.206-11.936,1.303-23.951,2.086-35.956,2.323-5.222.103-10.467.133-15.679-.253-1.294-.096-2.4,1.172-2.4,2.4,0,1.378,1.102,2.304,2.4,2.4h0Z"/><path class="f" d="M239.844,227.691c-2.356.159-4.739.111-7.099.125-2.419.014-4.851.069-7.268-.034-1.256-.053-2.456,1.142-2.4,2.4.06,1.346,1.054,2.343,2.4,2.4,2.418.103,4.849.048,7.268.034,2.36-.014,4.743.034,7.099-.125,1.25-.084,2.461-1.044,2.4-2.4-.055-1.228-1.059-2.49-2.4-2.4h0Z"/><path class="f" d="M107.355,230.259c-2.359.112-4.74.016-7.1-.017-2.419-.034-4.851-.028-7.266-.179-1.255-.079-2.456,1.16-2.4,2.4.061,1.367,1.055,2.316,2.4,2.4,2.415.151,4.847.145,7.266.179,2.36.033,4.741.129,7.1.017,1.252-.059,2.46-1.061,2.4-2.4-.056-1.249-1.057-2.464-2.4-2.4h0Z"/><path class="f" d="M112.659,141.332c-.824,10.524-1.576,21.091-1.804,31.647-.301,13.92-.607,27.827-1.069,41.744-.233,6.995-.599,13.994-1.149,20.972-.103,1.305-.106,2.683-.327,3.972-.219,1.277-1.127,1.289-2.251,1.317-3.698.091-7.393.254-11.09.382-.911.032-1.83.024-2.739.086-.855.059-.372-.006-.138.059l-.194-.056c.228.096.21.073-.057-.069.222.676.26-.587.274-.736.088-.924.18-1.848.277-2.771.335-3.189.731-6.37,1.138-9.55.756-5.912,1.447-11.823,1.747-17.778.377-7.498-.404-15.13-.938-22.602-.623-8.711-1.33-17.423-2.271-26.106-.487-4.496-1.127-8.973-2.172-13.377-1.202-5.062-2.995-9.918-4.802-14.788-1.779-4.796-3.22-9.622-4.448-14.586-.735-2.973-1.667-5.901-2.619-8.811-3.043-9.295-6.579-18.456-10.653-27.348-2.1-4.584-4.362-9.106-6.943-13.44-1.149-1.929-2.363-3.821-3.684-5.638-1.155-1.588-2.366-3.332-3.815-4.676-.936-.868-1.994-1.632-2.983-2.44-1.002-.82-2.413-.981-3.394,0-.846.846-1.008,2.569,0,3.394.993.812,2.06,1.577,2.998,2.453,1.515,1.415,2.482,2.871,3.603,4.468,2.802,3.989,5.171,8.277,7.356,12.629,4.55,9.064,8.313,18.53,11.62,28.113,1.189,3.446,2.326,6.914,3.313,10.424,1.17,4.162,2.085,8.367,3.488,12.467,1.676,4.899,3.679,9.681,5.156,14.648.881,2.961,1.588,5.97,2.136,9.009.159.885.306,1.772.441,2.662.071.466.111.945.203,1.407.075.376-.032-.238-.034-.256.082.667.168,1.333.245,2.001.98,8.47,1.659,16.982,2.291,25.484.586,7.885,1.369,15.893,1.152,23.808-.156,5.712-.841,11.414-1.562,17.077-.39,3.061-.787,6.12-1.132,9.187-.185,1.644-.356,3.29-.513,4.938-.184,1.934.248,3.56,1.897,4.73,1.08.767,2.173.897,3.467.859,2.024-.059,4.048-.137,6.072-.213,1.782-.067,3.564-.134,5.347-.188,1.913-.058,3.959.133,5.709-.786,3.068-1.611,3.244-4.714,3.502-7.781.283-3.364.507-6.732.698-10.102.831-14.675,1.274-29.388,1.515-44.084.189-11.52.622-22.981,1.407-34.478.166-2.426.341-4.85.53-7.274.101-1.294-1.176-2.4-2.4-2.4-1.383,0-2.298,1.102-2.4,2.4h0Z"/><path class="f" d="M188.765,137.302c3.96,10.196,9.04,19.909,16.035,28.366,3.007,3.636,6.404,7.156,8.331,11.53,1.079,2.449,1.462,5.201,1.91,7.82.479,2.801.863,5.617,1.24,8.433,1.463,10.936,3.219,21.829,3.822,32.858.181,3.305-.423,6.23-1.016,9.493-.21,1.158-.576,2.356-.192,3.514.668,2.019,2.885,3.76,4.981,4.003,1.984.23,4.114-.06,6.104-.119,2.436-.072,4.875-.117,7.31-.217,1.742-.071,3.345-.596,4.641-1.806,1.946-1.817,2.067-4.181,1.962-6.665-.175-4.11-.255-8.222-.411-12.333-.309-8.182-.922-16.352-1.51-24.518-.485-6.728-.733-13.436-.818-20.182-.059-4.655-.083-9.31-.101-13.965-.017-4.332-.171-8.688.189-13.01.907-10.881,4.044-21.457,4.573-32.389.948-19.577-8.859-40.615-27.002-49.432-8.805-4.279-18.942-5.722-28.651-4.865-5.101.451-10.031,1.75-15.05,2.695s-10.096,1.676-15.201,2.059c-9.135.685-18.338.25-27.267-1.879-4.442-1.059-8.803-2.489-13.014-4.256-3.483-1.462-7.09-3.063-10.283-5.095-1.371-.873-2.658-1.883-3.944-2.873.423.325-.031-.025-.204-.159-.242-.188-.483-.376-.724-.565-.463-.362-.924-.725-1.385-1.089-1.083-.855-2.162-1.714-3.242-2.572-5.272-4.194-10.548-8.383-15.921-12.447-5.755-4.353-11.613-8.59-17.721-12.436-5.19-3.268-10.646-6.42-16.503-8.334-2.146-.701-4.413-1.206-6.68-1.22-3.089-.02-3.093,4.78,0,4.8.476.003.946.041,1.419.079.62.049-.185-.041.193.025.287.05.574.098.86.156,1.158.236,2.296.568,3.413.951.564.194,1.124.402,1.679.621.823.324.71.278,1.586.671,1.318.592,2.613,1.233,3.891,1.905,5.966,3.138,11.601,6.901,17.094,10.798,10.235,7.261,19.724,15.174,29.688,22.858,1.282.989,2.566,1.992,3.923,2.876,2.975,1.939,6.36,3.427,9.608,4.84,8.38,3.647,17.138,6.04,26.235,6.983,9.542.989,19.152.302,28.607-1.173,5.094-.795,10.085-2.08,15.162-2.937,4.42-.746,8.965-.879,13.43-.537,9.226.706,18.157,3.869,25.202,9.967,6.727,5.824,11.205,13.556,13.819,22.001,1.58,5.106,2.349,10.224,2.253,15.573-.097,5.395-.902,10.731-1.831,16.035-.922,5.262-1.944,10.509-2.555,15.819-.51,4.434-.468,8.853-.452,13.306.032,8.765.029,17.536.321,26.297.208,6.23.788,12.446,1.212,18.664.537,7.882.839,15.754,1.129,23.647.042,1.143.088,2.285.135,3.427.043,1.037.288,2.3.133,3.324-.151,1-.904,1.486-1.847,1.56-2.31.18-4.66.138-6.976.207-1.979.059-3.966.072-5.943.177.263-.014.012.009-.219-.129-.262-.156-.426-.406-.682-.566.165.103-.19-.172-.117-.181.26-.033-.512,1.991.031.96.049-.093.044-.255.069-.356.305-1.254.471-2.563.678-3.836.297-1.827.581-3.666.73-5.512.172-2.134-.082-4.3-.238-6.429-.388-5.269-1.019-10.512-1.729-15.746-.739-5.451-1.513-10.898-2.257-16.348-.738-5.407-1.235-11.204-3.645-16.172-2.09-4.308-5.419-7.887-8.462-11.53-3.325-3.981-6.208-8.31-8.729-12.841-2.481-4.458-4.599-9.103-6.445-13.856-.469-1.208-1.611-2.045-2.952-1.676-1.153.317-2.148,1.737-1.676,2.952h0Z"/><path class="f" d="M33.465,19.708c-.633-1.814-.982-3.739-1.315-5.626-.468-2.653-.779-5.046-.999-7.76-.049-.604-.117-1.215-.115-1.821,0,.192-.116.199-.004.127.164-.105-.015.085-.057.116.383-.28-.006.008-.031.023.265-.158.082-.013-.039.019.291-.078.094.018-.054.007.05.003.368-.107.054-.03-.338.082.046.026.062.019-.127.057-.459-.175-.064.022-.267-.133-.445-.295-.101,0,.315.269.623.545.929.823,1.919,1.747,3.806,3.738,5.243,5.75.832,1.165,1.589,2.385,2.246,3.658.68,1.317,1.038,2.209,1.487,3.648.386,1.237,1.673,2.028,2.952,1.676,1.221-.336,2.064-1.71,1.676-2.952-1.913-6.135-5.905-11.362-10.671-15.588-1.389-1.231-2.798-2.099-4.719-1.735-1.594.302-2.892,1.479-3.445,2.987-.521,1.419-.174,3.12-.031,4.587.17,1.742.393,3.48.649,5.212.4,2.71.812,5.518,1.718,8.115.427,1.223,1.643,2.036,2.952,1.676,1.188-.326,2.105-1.723,1.676-2.952h0Z"/><path class="f" d="M36.203,37.115c1.09,1.605,1.993,5.785-1.248,7.146-4.433,1.314-6.189-3.537-5.414-6.303.635-2.265,3.978-4.14,6.662-.842Z"/><path class="d" d="M2.416,66.202c.173-2.273.834-4.553,1.785-6.416,1.59-3.114,3.855-5.854,6.031-8.631,9.858.843,18.77,8.474,21.048,18.118-3.842,2.743-7.074,4.944-8.292,5.653-3.918,2.282-9.243,3.741-13.97,1.964-1.7-.639-3.32-1.582-4.516-2.95-1.743-1.994-2.306-4.86-2.086-7.738Z"/><path class="f" d="M10.564,53.586c8.286.895,15.836,7.359,18.174,15.438.857,2.962,5.49,1.702,4.629-1.276-2.97-10.267-12.236-17.821-22.802-18.962-1.291-.139-2.4,1.203-2.4,2.4,0,1.413,1.106,2.26,2.4,2.4h0Z"/><path class="f" d="M28.526,19.046c-6.941,5.587-10.215,13.939-14.284,21.582-2.177,4.089-4.846,7.691-7.676,11.342s-5.518,7.509-6.292,12.169c-.703,4.23-.176,8.948,3.07,12.059,3.655,3.504,8.975,4.424,13.809,3.509,5.948-1.126,10.913-5.192,15.712-8.628,5.973-4.277,12.133-8.573,17.508-13.6,2.261-2.115-1.139-5.504-3.394-3.394-4.234,3.96-8.994,7.366-13.668,10.777-2.453,1.79-4.924,3.556-7.423,5.28-1.615,1.114-3.228,2.276-4.97,3.188-3.556,1.863-7.981,2.753-11.765,1.035-1.628-.739-3.131-1.871-3.809-3.579-.596-1.499-.648-3.167-.511-4.754.346-3.986,2.62-7.364,4.974-10.462,2.69-3.541,5.465-6.929,7.653-10.819,4.354-7.74,7.327-16.567,14.461-22.309,1.011-.813.847-2.547,0-3.394-.999-.999-2.381-.815-3.394,0h0Z"/><path class="f" d="M42.226,15.85c8.979-1.019,18.294-1.256,27.089,1.12,2.183.59,4.337,1.323,6.384,2.289.94.444,1.863.926,2.761,1.449.941.547,2.211,1.131,2.958,1.928-.436-.465.092-.204-.129.004.239-.224-.344.458-.322.431-.763.952-1.301,2.154-1.302,3.396-.003,2.996,2.814,3.61,5.09,4.499,4.846,1.894,9.561,4.113,14.116,6.627,1.146.632,2.282,1.283,3.408,1.95l.201.119c.433.303.522.338.269.107-.012.017-.197-.16-.13-.246.086-.11.189-.074.068-.024-.355.147-.799.949-1.055,1.256-.763.918-1.408,1.894-1.38,3.153.052,2.374,1.961,3.337,3.854,4.152,1.835.789,3.708,1.48,5.608,2.097,4.761,1.546,9.654,2.719,14.589,3.551,1.596.269,3.199.498,4.805.696,1.323.163,1.908.086,2.91.464-.142-.054.147.102.157.129-.136-.328-.022.236-.021.231-.071.522-.084.427-.306.736-.213.297-.342.492-.62.779-.832.861-1.827,1.46-2.884,2.008-.774.401-.343.156-.155.086-.209.078-.421.147-.634.213-.427.132-.861.246-1.295.355-1.311.329-2.637.608-3.966.856-1.275.238-1.999,1.778-1.676,2.952.368,1.338,1.674,1.915,2.952,1.676,3.18-.593,6.422-1.214,9.106-3.133,1.712-1.224,3.427-2.843,4.025-4.937.635-2.221-.047-4.686-2.051-5.951-1.844-1.164-4.213-1.077-6.299-1.36-2.891-.391-5.764-.938-8.608-1.584-4.534-1.031-9.108-2.274-13.4-4.086-.042-.018-1.508-.882-1.713-.806-.047.017.745,1.144.331,1.211.03-.005.034-.083.066-.091.174-.043.509-.606.623-.743,1.45-1.727,2.404-3.723,1.243-5.941-.616-1.178-1.689-1.776-2.794-2.423-1.256-.735-2.525-1.449-3.806-2.141-2.443-1.318-4.931-2.553-7.459-3.699-2.587-1.173-5.212-2.264-7.866-3.276-.111-.042-1.077-.375-1.072-.404.018-.11.712,1.058.57.944-.014-.011.168-.31.281-.476.733-1.072,1.338-1.948,1.342-3.34.007-2.921-2.296-4.318-4.533-5.687-2.063-1.262-4.258-2.29-6.51-3.167-10.343-4.026-21.945-3.981-32.818-2.747-1.288.146-2.4.998-2.4,2.4,0,1.184,1.104,2.547,2.4,2.4h0Z"/></g></svg>