<svg id="b" xmlns="http://www.w3.org/2000/svg" width="306.826" height="161.521" viewBox="0 0 306.826 161.521" style="color: initial !important;"><defs><style>.d{fill:#211715;}.e{fill:#f2635f;}</style></defs><g id="c"><path class="e" d="M67.435,101.284c.103-.192.32-.319.518-.425,1.001-.538,1.926-1.188,2.895-1.787,3.239-2.003,6.361-4.243,9.137-6.882.638.514,1.281,1.028,1.945,1.512,2.49,1.818,5.052,2.803,8.055,3.086.239,2.034-.989,3.869-2.321,5.355-2.426,2.706-5.394,3.72-8.895,3.763-3.969.049-8.071-1.286-10.954-3.701-.247-.207-.515-.492-.421-.819.01-.036.024-.069.041-.101Z"/><path class="e" d="M83.958,116.578c-4.094,2.146-6.285,5.073-7.593,9.718-.396,1.406-.551,3.771-.517,5.232.019.811.11,1.63.256,2.44.287,1.583,1.996,2.453,3.443,1.749,6.224-3.027,12.54-5.865,18.936-8.51,1.072-2.083,2.044-4.277,3.201-6.5.929-1.784,2.151-3.522,3.623-5.076-6.028-2.939-12.425-2.359-17.165-.785-1.581.525-2.967,1.094-4.185,1.732Z"/><path class="e" d="M158.016,118.686c1.615-.847,1.884-3.033,1.736-4.851-.391-4.806-2.408-9.602-6.107-12.694-3.7-3.092-9.18-4.187-13.526-2.099l-5.967,4.272c-2.432,2.854-4.864,5.708-7.296,8.562,1.376,1.06,2.808,2.453,3.92,3.742,3.127,3.621,4.163,7.82,3.859,12.111,8.627-.991,16.962-4.289,23.936-9.443"/><path class="e" d="M221.318,143.6c.181-2.383.222-4.776.121-7.166-.076-1.791-.238-3.61-.961-5.289-1.08-2.508-3.326-4.513-5.081-6.616-.096.341-.316.653-.542.934-1.06,1.315-2.404,2.4-3.914,3.158-.536.269-1.123.503-1.72.439-.762-.082-1.403-.632-2.007-1.046,2.679,3.235,4.787,5.911,5.057,6.249.485.607.753,1.478.928,2.204.669,2.777,2.868,12.283,2.868,12.283.781,2.191,4.334,1.932,4.69-.333.251-1.599.438-3.206.561-4.817Z"/><path class="e" d="M201.815,152.847c.782-1.981,1.459-4.002,2.029-6.055.479-1.727.884-3.508.713-5.328-.234-2.482-1.521-4.864-2.525-7.196-.05.552.18,1.298-.111,1.877-.22.437-.689.685-1.14.877-1.555.66-3.252.983-4.941.939-.594-.015-1.216-.085-1.709-.415.917,2.367,1.549,4.072,1.658,4.36.275.727.262,1.638.205,2.382-.218,2.848-1.051,12.57-1.051,12.57.069,2.325,3.529,3.172,4.565,1.126.849-1.677,1.619-3.391,2.308-5.136Z"/><path class="e" d="M179.217,156.212c.018-.091.032-.185.039-.282,0,0-.385-9.75-.471-12.605-.023-.746.007-1.657.315-2.37.122-.283.831-1.957,1.856-4.28-.508.307-1.132.348-1.727.336-1.689-.034-3.37-.434-4.893-1.165-.442-.212-.898-.481-1.098-.928-.265-.592,0-1.326-.025-1.879-1.11,2.282-2.505,4.603-2.853,7.072-.255,1.81.068,3.608.467,5.355.893,3.908,2.172,7.721,3.817,11.379.901,2.004,4.149,1.457,4.573-.633Z"/><path class="e" d="M153.011,153.199c.711-2.343,2.734-9.007,3.433-11.239.223-.713.549-1.563,1.074-2.137.242-.265,1.849-2.045,4.036-4.381-.288.165-.593.291-.921.331-.596.072-1.186-.154-1.726-.416-1.519-.738-2.878-1.806-3.955-3.107-.312-.377-.614-.813-.609-1.303.002-.137.027-.27.069-.399-1.762,1.747-3.766,3.451-4.875,5.615-.834,1.627-1.117,3.431-1.313,5.213-.437,3.985-.477,8.006-.121,12.002.204,2.284,3.732,2.78,4.657.646,0,0,.093-.307.25-.825Z"/><path class="e" d="M215.001,123.041c-2.695-4.258-5.937-8.17-9.62-11.61l.509-2.016-3.57-1.298c-13.364,4.99-29.669,6.008-43.079,2.555.246,1.043.425,2.102.512,3.164.111,1.361-.013,2.927-.759,3.985h5.552c-3.768,3.549-7.06,7.6-9.771,12.009-.212.344-.427.713-.431,1.117-.006.49.296.925.609,1.303,1.077,1.302,2.435,2.369,3.955,3.107.54.262,1.13.488,1.726.416.592-.071,1.108-.426,1.589-.778,3.488-2.553,6.628-5.582,9.304-8.977h3.085c-.655,2.532-1.139,5.108-1.449,7.705-.048.402-.089.826.076,1.195.2.447.657.716,1.098.928,1.523.731,3.204,1.131,4.893,1.165.6.012,1.23-.03,1.741-.345.508-.313.827-.85,1.117-1.372,1.995-3.594,3.524-7.448,4.536-11.432,1.205-.002,2.311-.002,2.311-.002.814,4.246,2.207,8.38,4.129,12.252.265.534.56,1.086,1.053,1.422.19.13.4.22.62.283.354.101.734.132,1.104.142,1.689.044,3.386-.279,4.941-.939.451-.191.92-.439,1.14-.877.182-.361.161-.787.131-1.19-.356-4.87-1.318-9.695-2.863-14.327,2.492,2.882,5.329,5.466,8.433,7.676.486.346,1.006.694,1.599.757.597.064,1.184-.169,1.72-.439,1.51-.758,2.854-1.843,3.914-3.158.307-.381.604-.821.592-1.311-.01-.404-.23-.77-.446-1.112Z"/><path class="e" d="M130.52,103.644c-5.084-.902-9.871-3.408-13.509-7.072-1.743-1.756-3.399-3.665-4.8-5.704-2.862-4.164-5.063-7.875-6.466-17.404-4.909-3.624-7.299-5.371-11.335-9.947-.108-.122-.221-.258-.229-.421-.015-.28.273-.469.524-.593,2.034-1.001,4.553-2.516,6.016-3.485.534-.354,1.027-.876.602-1.355-.902-1.017-2.363-2.405-4.028-3.922-.516-.47.037-1.377.714-1.547,2.789-.701,6.442-.97,9.041-1.011,7.662-.003,12.42-.249,19.17,1.521,3.599.944,7.297,2.299,9.716,5.127,0,0,.111.13.224.26,2.354-.638,4.741-1.152,7.147-1.535,10.186-1.619,20.697-.877,30.325,2.818,4.17,1.601,8.241,3.56,11.868,6.151,3.903,2.789,8.604,4.281,13.385,3.889,24.886-2.039,50.382,6.027,69.699,21.806.498.407.936.857,1.324,1.338l.107-.134,9.883,8.418c7.76,1.134,15.599,6.517,20.822,12.367,2.051,2.298,3.865,5.153,3.616,8.223-.249,3.07-4.255,4.445-7.378,3.731,2.915,3.108,3.215,8.14.639,11.094-2.575,2.954-7.148,3.041-10.573,1.137.892,2.566-.216,5.034-2.042,6.403s-4.376,1.137-6.64.842c-5.248-.683-8.621-4.459-12.053-8.488-3.432-4.029-5.768-8.862-7.896-13.707l-7.054-6.565c-7.159,2.492-15.629.722-21.19-4.429-.549-.508-1.124-1.073-1.864-1.182-.475-.07-.954.061-1.419.181-6.882,1.781-14.305,1.411-20.975-1.046,0,0-1.767-.651-3.534-1.301-.018.007-.036.013-.036.013-13.443,5.02-29.87,6.032-43.324,2.505l-28.476-6.988"/><path class="d" d="M215.193,127.917c1.243,1.371,2.635,2.806,3.248,4.594.662,1.93.638,4.054.651,6.069.015,2.289-.099,4.579-.342,6.856-.053.498-.111.996-.18,1.493-.039.282-.074.571-.127.85-.017.09.017.325-.006.146-.031-.243-.138.266-.011.021.039-.075.252-.363.132-.139-.134.25.251-.133.001.015-.068.04-.613.169-.094.039-.205.051-.312-.13,0,.035-.125-.066-.289-.026-.41-.115.122.09.243.006.33.189-.045-.093-.268-.151-.1-.081.151.064.12.346.025-.087-.186-.849-.393-1.694-.589-2.541-.598-2.578-1.197-5.156-1.804-7.731-.348-1.478-.621-3.056-1.477-4.34-.984-1.476-2.229-2.83-3.344-4.205-.817-1.008-2.545-.849-3.394,0-.996.996-.819,2.384,0,3.394.683.843,1.364,1.688,2.04,2.537.2.25.403.499.598.752.052.067.111.13.159.2-.099-.145-.046-.202.082.22.38,1.257.665,2.537.965,3.816.656,2.799,1.306,5.599,1.955,8.399.236,1.019.463,1.923,1.193,2.747,1.236,1.394,3.252,1.919,5.039,1.432,2.09-.569,3.171-2.234,3.465-4.276.387-2.693.635-5.401.684-8.122.05-2.784.091-5.783-.699-8.478-.816-2.787-2.685-4.972-4.598-7.081-2.079-2.293-5.466,1.109-3.394,3.394h0Z"/><path class="d" d="M200.585,136.884c.836,1.853,1.678,3.76,1.604,5.833-.075,2.101-.85,4.233-1.502,6.213-.67,2.034-1.445,4.032-2.347,5.976-.204.439-.413.875-.627,1.309-.093.188-.335.467-.336.658-.001.379-.019-.15.04-.043.027.049.258-.251-.024-.008.473-.407-.057.02-.015-.042.165-.243.308.073.01-.043.351.136.048.043-.093-.053-.025-.017-.018-.009-.021-.043-.008-.111-.036-.078.049.068.246.424-.072.037-.006-.031-.023.024.029.278.03.12,0-.096.012-.201.025-.295.114-.82.142-1.662.212-2.486.221-2.603.442-5.206.655-7.81.125-1.527.357-3.111-.037-4.618-.409-1.568-1.148-3.105-1.73-4.613-.466-1.209-1.613-2.044-2.952-1.676-1.155.317-2.146,1.736-1.676,2.952.573,1.485,1.408,3.073,1.744,4.638.256,1.195-.102,2.762-.203,3.98-.238,2.893-.484,5.785-.731,8.676-.07.826-.187,1.585.034,2.409.519,1.932,2.224,3.264,4.169,3.521,2.125.281,3.952-.759,4.908-2.652,1.151-2.278,2.145-4.65,3.009-7.05.998-2.771,1.971-5.687,2.19-8.641.229-3.094-.994-5.916-2.236-8.67-.533-1.182-2.249-1.466-3.284-.861-1.216.711-1.396,2.098-.861,3.284h0Z"/><path class="d" d="M199.405,71.51c19.281-.525,39.164,4.356,56.001,13.772,4.56,2.55,8.92,5.465,12.911,8.841.989.837,2.424.97,3.394,0,.859-.859.994-2.553,0-3.394-15.507-13.119-35.611-20.487-55.585-23.112-5.543-.728-11.131-1.059-16.721-.907-3.083.084-3.095,4.884,0,4.8h0Z"/><path class="d" d="M205.252,111.729c4.318,1.557,8.949,2.33,13.541,2.235,2.178-.045,4.357-.289,6.497-.694.595-.112,1.185-.243,1.773-.385.303-.077.606-.152.909-.227-.25-.087-.278-.09-.084-.008.721.403,1.355,1.213,2.011,1.725,6.158,4.807,14.654,6.332,22.077,3.83,2.912-.982,1.663-5.619-1.276-4.629-6.761,2.279-13.827.562-19.132-4.069-.791-.69-1.595-1.315-2.645-1.543-1.222-.266-2.398.125-3.577.397-2.008.463-4.04.721-6.099.79-4.357.146-8.622-.573-12.719-2.051-1.219-.44-2.628.495-2.952,1.676-.366,1.333.452,2.511,1.676,2.952h0Z"/><path class="d" d="M269.347,100.462c-.755,1.19-1.567,2.335-2.407,3.467-.238.32.341-.428-.088.114-.09.113-.179.227-.269.339-.226.282-.454.561-.686.837-.464.553-.94,1.096-1.427,1.628-.927,1.01-1.897,1.982-2.906,2.91-.531.489-1.073.965-1.626,1.43-.249.209-.499.415-.752.619-.14.113-.282.225-.423.337-.398.318.245-.184-.199.155-.995.759-1.623,2.102-.861,3.284.634.983,2.216,1.675,3.284.861,4.943-3.769,9.173-8.301,12.507-13.557.674-1.062.256-2.693-.861-3.284-1.185-.626-2.565-.272-3.284.861h0Z"/><path class="d" d="M279.259,103.158c6.879,1.069,13.059,5.008,17.945,9.839,2.071,2.048,4.74,4.709,4.752,7.84.001.304-.03.521-.068.668-.009.033-.183.356-.113.264-.296.389-.641.607-1.125.815-.902.387-2.088.466-3.054.268-2.363-.485-3.974,2.187-2.335,4.011,1.802,2.007,2.428,5.441.658,7.679-1.835,2.321-5.331,2.036-7.684.782-1.774-.946-4.166.629-3.526,2.71.41,1.332.19,2.629-.874,3.6-1.024.934-2.456.882-3.758.791-3.064-.214-5.615-1.372-7.878-3.438-5.388-4.92-8.827-11.152-11.735-17.753-.523-1.186-2.256-1.462-3.284-.861-1.223.716-1.386,2.093-.861,3.284,1.834,4.164,3.803,8.316,6.527,11.984,2.455,3.306,5.306,6.651,8.761,8.949,3.336,2.219,8.03,3.303,11.98,2.414,4.517-1.016,7.084-5.911,5.749-10.247l-3.526,2.71c4.494,2.396,10.546,2.268,13.883-2.013,3.268-4.192,2.371-10.188-1.041-13.987l-2.335,4.011c3.474.713,7.831-.134,9.694-3.483,2.242-4.031-.595-8.957-3.2-12.026-5.539-6.526-13.706-12.11-22.279-13.442-1.279-.199-2.581.326-2.952,1.676-.313,1.138.388,2.752,1.676,2.952h0Z"/><path class="d" d="M191.291,75.537c1.424,4.327,2.472,8.748,2.77,13.305s-.353,9.102-1.193,13.558c-.24,1.272.354,2.589,1.676,2.952,1.171.322,2.711-.396,2.952-1.676.916-4.859,1.688-9.877,1.365-14.834-.325-4.984-1.382-9.845-2.941-14.581-.961-2.921-5.598-1.67-4.629,1.276h0Z"/><path class="d" d="M144.417,58.807c7.363-1.09,14.98-.874,22.217.904,6.82,1.676,13.755,4.634,19.226,9.105,1.003.82,2.413.981,3.394,0,.846-.846,1.009-2.57,0-3.394-12.765-10.432-30.1-13.613-46.113-11.243-1.283.19-1.99,1.812-1.676,2.952.378,1.375,1.665,1.867,2.952,1.676h0Z"/><path class="d" d="M136.786,63.734c1.37,7.819.112,16.044-3.471,23.119-1.392,2.75,2.747,5.182,4.145,2.423,4.207-8.308,5.561-17.653,3.955-26.818-.224-1.278-1.788-1.996-2.952-1.676-1.349.371-1.901,1.671-1.676,2.952h0Z"/><path class="d" d="M131.158,101.33c-3.868-.719-7.592-2.291-10.644-4.808-2.932-2.418-5.362-5.439-7.407-8.626-1.489-2.32-2.547-4.526-3.336-7.091-.554-1.803-.969-3.646-1.306-5.501-.207-1.139-.157-2.67-1.023-3.537-.8-.8-1.893-1.411-2.801-2.091-3.129-2.342-6.274-4.952-8.686-8.052l.617,1.059-.077-.225v1.276l.073-.25-.617,1.059c.255-.25,1.26-.633,1.739-.897.606-.334,1.206-.679,1.801-1.032,1.227-.728,2.801-1.483,3.68-2.632,1.245-1.627.585-3.258-.687-4.595-.483-.508-.985-.997-1.491-1.482-.318-.304-.639-.605-.962-.905-.195-.182-.731-1.003-.624-.378v1.276c-.921.564-1.052.738-.391.523l.377-.084c.39-.084.783-.158,1.176-.225.743-.127,1.489-.217,2.239-.29,1.568-.152,3.143-.232,4.718-.238,3.273-.014,6.556-.078,9.825.117,3.057.183,6.055.701,9.004,1.528s5.807,1.96,7.884,4.301c2.055,2.315,5.439-1.09,3.394-3.394-4.608-5.192-12.757-6.659-19.353-7.17-3.421-.265-6.859-.191-10.287-.182s-7.135.105-10.438,1.054c-2.162.621-3.689,3.032-2.332,5.117.621.954,1.71,1.705,2.526,2.49.52.5,1.338,1.116,1.654,1.723l-.328-1.211-.026.291.328-1.211c.163-.281-.083.055-.256.166-.191.123-.382.245-.575.366-.489.307-.981.608-1.478.902-1.06.629-2.138,1.223-3.232,1.791-1.289.67-2.386,1.901-1.97,3.474.33,1.249,1.532,2.265,2.391,3.179,3.088,3.283,6.661,5.955,10.276,8.623l-1.103-1.434c.965,6.424,2.817,12.283,6.495,17.666,4.797,7.02,11.42,12.603,19.956,14.191,1.273.237,2.588-.352,2.952-1.676.321-1.168-.395-2.714-1.676-2.952h0Z"/><path class="d" d="M141.331,101.115c4.24-1.964,9.419-.031,12.459,3.559,1.588,1.875,2.577,4.224,3.141,6.6.283,1.191.467,2.263.455,3.494-.006.625.025.683-.193,1.344-.115.349-.074.317-.389.502-2.664,1.561-.251,5.711,2.423,4.145,2.423-1.419,3.126-4.285,2.925-6.923-.214-2.808-.912-5.5-2.076-8.061-2.229-4.902-6.658-8.863-12.023-9.886-3.151-.601-6.232-.267-9.145,1.082-1.176.545-1.471,2.241-.861,3.284.706,1.207,2.103,1.408,3.284.861h0Z"/><path class="d" d="M135.125,108.756c2.985.858,5.457,2.953,6.798,5.856s1.074,6.677-.631,9.6c-1.559,2.674,2.587,5.093,4.145,2.423,2.524-4.327,2.791-9.627.747-14.19-1.812-4.046-5.552-7.102-9.783-8.318-2.974-.855-4.244,3.776-1.276,4.629h0Z"/><path class="d" d="M1.72,4.697c24.653,5.588,49.711,12.81,70.646,27.492,5.655,3.966,10.892,8.493,15.642,13.508,2.129,2.247,5.519-1.151,3.394-3.394C73.486,23.389,49.222,12.649,24.565,5.541,17.436,3.486,10.231,1.708,2.996.068-.012-.613-1.296,4.013,1.72,4.697h0Z"/><path class="d" d="M4.922,37.651c10.753-.907,21.544-.579,32.193,1.203,5.254.879,10.457,2.044,15.622,3.343,5.445,1.369,10.893,2.78,16.163,4.735,5.604,2.078,10.96,4.736,16.156,7.678,2.692,1.524,5.114-2.621,2.423-4.145-4.802-2.718-9.742-5.164-14.865-7.22-5.359-2.151-10.896-3.691-16.479-5.135-10.418-2.693-20.992-4.848-31.751-5.528-6.486-.41-12.988-.276-19.462.27-1.292.109-2.4,1.025-2.4,2.4,0,1.214,1.101,2.51,2.4,2.4h0Z"/><path class="e" d="M54.505,81.342c-.498.711-.961,1.454-1.385,2.227-2.715,4.953-3.981,10.156-3.51,15.741.159,1.89,2.077,3.096,3.86,2.45,4.537-1.644,8.753-4.172,12.905-6.674,3.269-1.969,6.538-3.939,9.807-5.908.195-.118,2.545,1.998,2.792,2.196.979.781,1.944,1.589,2.956,2.328,2.757,2.013,5.602,3.004,9.035,3.153,3,.13,6.408-.278,8.724-2.376,2.526-2.289,3.033-5.919,2.78-9.151-.541-6.902-4.679-12.196-11.132-14.499-12.541-4.475-28.941-.747-36.832,10.512Z"/><path class="d" d="M52.433,80.131c-2.631,3.828-4.386,8.34-5.022,12.938-.54,3.905-1.1,9.934,3.861,11.124,2.323.557,4.714-.803,6.756-1.746,2.067-.954,4.066-2.05,6.034-3.192,4.482-2.602,8.893-5.331,13.331-8.005l-1.211.328-.487-.116c-.516-.183-.634-.192-.354-.027.021-.04.252.254.089.062-.064-.075.388.322.533.444.409.344.805.703,1.215,1.047,1.564,1.312,3.174,2.66,4.929,3.709,3.416,2.04,7.49,2.851,11.441,2.516,3.894-.33,7.673-1.854,9.703-5.384,1.908-3.318,1.958-7.42,1.276-11.089-2.791-15.005-20.745-18.143-33.32-15.039-7.508,1.853-14.272,6.1-18.774,12.43-.752,1.057-.187,2.671.861,3.284,1.204.704,2.53.198,3.284-.861,4.624-6.502,12.541-10.254,20.361-11.005,7.254-.697,16.718.507,20.957,7.232,2.073,3.288,2.95,7.796,1.704,11.541-1.402,4.215-6.732,4.62-10.469,3.947-4.241-.764-7.138-3.63-10.372-6.215-.749-.598-1.511-1.266-2.529-1.275-1.334-.012-2.721,1.209-3.818,1.87-2.546,1.534-5.091,3.069-7.638,4.602-2.667,1.605-5.345,3.201-8.144,4.567-.696.34-1.398.672-2.111.974-.532.226-1.422.754-2.002.751-.376-.002-.439-.2-.54-.671-.285-1.33-.072-2.971.054-4.317.125-1.334.407-2.657.766-3.946.801-2.878,2.089-5.592,3.781-8.053,1.754-2.552-2.404-4.955-4.145-2.423Z"/><path class="e" d="M127.312,145.271c6.316-8.647,11.063-20.856,3.465-29.653-1.192-1.38-2.75-2.88-4.216-3.965-1.559-1.154-3.681-2.042-5.941-2.25-8.63-.795-15.633,4.959-18.936,11.305-3.008,5.779-4.766,11.368-10.249,15.343-4.613,3.344-10.188,5.212-15.719,6.362-.953.198-3.216.143-3.969.692-2.246,1.635,4.392,6.972,5.638,7.806,14.772,9.887,37.94,10.773,49.927-5.638Z"/><path class="d" d="M77.565,91.164c-2.455,2.207-5.136,4.083-7.928,5.835-.72.452-1.427.929-2.157,1.365-.792.474-1.613.869-2.096,1.699-1.208,2.074.485,3.739,2.061,4.863,5.007,3.572,12.528,4.601,18.115,1.84,3.068-1.517,6.112-4.756,6.725-8.2.227-1.275-.345-2.587-1.676-2.952-1.161-.319-2.724.393-2.952,1.676-.612,3.437-4.241,5.799-7.516,6.144-1.923.203-3.867.017-5.726-.499-.934-.259-1.835-.586-2.696-1.029-.621-.32-1.864-.809-2.239-1.421l.328,1.211-.013-.312-.328,1.211c-.213.374-.426.366.07.128.313-.15.614-.366.908-.551.541-.34,1.074-.69,1.615-1.03,1.022-.642,2.038-1.291,3.032-1.977,2.047-1.413,4.018-2.945,5.868-4.608,2.302-2.07-1.102-5.456-3.394-3.394h0Z"/><path class="d" d="M129.384,146.482c3.87-5.339,6.938-11.513,7.599-18.145.721-7.23-2.627-13.546-8.214-17.988-5.727-4.553-13.575-4.228-19.755-.7-2.827,1.614-5.239,3.854-7.207,6.431-1.957,2.563-3.226,5.507-4.631,8.389-1.382,2.834-2.873,5.658-5.122,7.908-2.47,2.471-5.73,4.205-8.972,5.439-1.734.66-3.51,1.204-5.308,1.661-.825.21-1.654.408-2.488.577-.428.087-.147.045-.05.03-.194.03-.395.038-.591.056-.385.034-.77.062-1.153.105-1.531.171-3.212.465-4.078,1.909-.609,1.014-.645,2.196-.257,3.295.755,2.139,2.602,3.883,4.266,5.348,1.598,1.407,3.302,2.613,5.151,3.67,4.861,2.778,10.279,4.652,15.819,5.458,11.519,1.676,23.689-1.162,31.935-9.755,1.108-1.154,2.107-2.402,3.057-3.688.771-1.043.173-2.679-.861-3.284-1.22-.714-2.511-.185-3.284.861-6.043,8.177-15.915,11.919-25.869,11.545-4.828-.181-9.659-1.285-14.113-3.16-2.314-.975-4.593-2.181-6.662-3.608-.19-.131-.375-.269-.56-.407-.284-.212.474.388-.011-.013-.163-.135-.329-.266-.491-.401-.771-.641-1.517-1.314-2.219-2.03-.358-.365-.709-.741-1.032-1.138-.486-.597.205.341-.195-.268-.118-.18-.227-.362-.338-.546-.277-.463-.011.046,0,.054-.234-.19.086-.647-.061.003.111-.488-.166.531-.173.542-.302.529-1.163.636-.182.442,1.13-.223,2.298-.201,3.434-.437,1.671-.348,3.328-.78,4.957-1.287,6.42-1.998,12.491-5.258,16.426-10.858,3.289-4.68,4.67-10.564,8.543-14.84,3.579-3.953,9.08-6.82,14.541-5.751,3.461.678,6.421,3.378,8.439,6.16,1.767,2.435,2.618,5.305,2.611,8.299-.014,6.459-3.353,12.6-7.047,17.697-.761,1.05-.18,2.675.861,3.284,1.212.709,2.521.192,3.284-.861Z"/><path class="d" d="M105.142,112.946c-4.72-1.986-9.965-2.223-14.941-1.15-3.955.853-7.999,2.505-11.068,5.19-2.705,2.366-4.579,5.935-5.259,9.448-.767,3.962-1.341,11.676,4.409,11.921,1.473.063,2.713-.684,3.995-1.299,1.376-.661,2.755-1.312,4.14-1.954,2.914-1.352,5.848-2.661,8.798-3.932,1.191-.513,1.458-2.262.861-3.284-.72-1.23-2.088-1.376-3.284-.861-4.204,1.812-8.374,3.702-12.503,5.678-.275.132-1.486.908-1.682.908-.315,0-.319-1.241-.339-1.596-.089-1.574-.034-3.249.335-4.788.645-2.688,1.896-5.073,3.924-6.847,2.188-1.914,5.347-3.078,8.204-3.784,4.415-1.09,8.938-.788,13.135.978,1.195.503,2.64-.541,2.952-1.676.381-1.386-.476-2.447-1.676-2.952h0Z"/><path class="d" d="M158.62,113.006c14.438,3.662,30.394,2.575,44.339-2.57,1.215-.448,2.041-1.627,1.676-2.952-.321-1.17-1.73-2.127-2.952-1.676-13.169,4.859-28.134,6.032-41.787,2.57-2.995-.76-4.273,3.868-1.276,4.629h0Z"/><path class="d" d="M196.505,121.144c1.789,2.196,3.757,4.239,5.9,6.091,1.128.975,2.302,1.898,3.505,2.779,1.437,1.052,3.013,1.802,4.832,1.266,1.449-.427,2.744-1.315,3.912-2.245,1.127-.897,2.312-2.052,2.872-3.395.765-1.837-.139-3.363-1.137-4.868-.813-1.225-1.674-2.416-2.572-3.581-2.051-2.662-4.288-5.157-6.738-7.458-.945-.887-2.457-.937-3.394,0-.896.896-.948,2.504,0,3.394,2.219,2.083,4.299,4.321,6.169,6.724.906,1.163,1.756,2.373,2.564,3.606.077.117.571,1.055.671,1.055v-.019c.165-.787.123-.947-.125-.478-.353.233-.854.906-1.27,1.267-.406.352-.895.681-1.466,1.002-.131.074-.907.414-.634.431-.487-.029-1.359-.913-1.756-1.214-.534-.405-1.055-.828-1.567-1.259-2.325-1.958-4.451-4.136-6.37-6.492-.819-1.006-2.543-.851-3.394,0-.994.994-.821,2.386,0,3.394h0Z"/><path class="d" d="M186.62,124.499c.549,2.813,1.332,5.574,2.366,8.248.562,1.452,1.178,2.888,1.862,4.287.699,1.43,1.628,2.596,3.206,3.082,1.419.438,3.037.251,4.476.031,1.377-.211,2.946-.627,4.119-1.4,1.669-1.1,1.897-2.787,1.736-4.631-.136-1.552-.333-3.1-.574-4.639-.529-3.377-1.358-6.698-2.451-9.936-.414-1.228-1.652-2.034-2.952-1.676-1.198.329-2.093,1.719-1.676,2.952,1.004,2.973,1.786,6.015,2.315,9.107.248,1.446.429,2.898.553,4.359.015.181.027.926.109.941-.51-.093.845-.602.087-.377-.417.124-1.296.434-1.918.561-.611.124-1.233.162-1.879.153-.139,0-.278-.004-.417-.013.206.048.163.04-.13-.024.071.035.125.087.162.157-.188-.194-.236-.24-.143-.14-.592-.832-1.174-2.364-1.618-3.467-1.151-2.86-2.013-5.825-2.604-8.851-.248-1.273-1.771-2.001-2.952-1.676-1.33.365-1.925,1.676-1.676,2.952h0Z"/><path class="d" d="M170.451,133.203c-1.217,2.399-2.359,4.814-2.554,7.534-.187,2.602.542,5.29,1.22,7.78.653,2.4,1.453,4.759,2.395,7.061.857,2.093,1.601,4.193,4.035,4.781,3.266.789,6.213-1.782,6.085-5.042-.106-2.695-.21-5.389-.31-8.084-.052-1.409-.145-2.825-.143-4.236,0-.23.004-.463.023-.693.019-.236.119-.588-.003-.201.076-.243.204-.478.304-.711.492-1.148.991-2.294,1.493-3.437.521-1.186.347-2.577-.861-3.284-1.019-.596-2.759-.332-3.284.861-.607,1.38-1.208,2.762-1.798,4.149-.637,1.497-.693,2.984-.639,4.582.087,2.558.187,5.116.285,7.674.04,1.042.081,2.084.122,3.127.008.208-.042.536.029.735.014.039-.003.088.005.129.003.016,0-.182.004-.179.098-.196.105-.22.022-.074-.089.145-.072.124.052-.064l-.078.072c-.124.115-.103.097.063-.056l-.094.051c-.152.08-.124.07.084-.031.056.066-.442-.019-.098.048.299.058-.146.015-.209-.003-.296-.086.233.202.018-.011-.189-.187.118.05.168.111.185.229-.059-.105-.079-.082.128.168.148.177.061.028-.083-.156-.157-.317-.222-.482-.876-1.95-1.594-3.983-2.225-6.024-.679-2.196-1.417-4.533-1.612-6.832-.213-2.502.78-4.596,1.885-6.774.586-1.155.304-2.602-.861-3.284-1.069-.625-2.695-.299-3.284.861h0Z"/><path class="d" d="M184.461,122.608c-.692,2.842-1.608,5.638-2.833,8.296-.317.687-.65,1.367-.999,2.038-.287.551-.573,1.346-1.015,1.803.077-.079.088-.128.197-.153-.19.044-.63.022-.898.01-.636-.029-1.225-.133-1.861-.302-.605-.161-1.158-.377-1.724-.636-.246-.153-.285-.17-.116-.049l.309.719c-.084-.03.111-1.171.125-1.276.202-1.45.468-2.894.782-4.325.672-3.065,1.592-6.068,2.732-8.991.471-1.208-.518-2.634-1.676-2.952-1.359-.373-2.48.464-2.952,1.676-1.078,2.767-1.961,5.604-2.621,8.5-.324,1.419-.595,2.851-.813,4.29-.251,1.655-.749,3.555.19,5.085.814,1.326,2.474,1.951,3.882,2.409s3.029.739,4.514.657c1.787-.099,3.153-.86,4.147-2.346.771-1.152,1.364-2.477,1.943-3.733,1.401-3.039,2.526-6.19,3.317-9.443.306-1.259-.4-2.602-1.676-2.952-1.224-.336-2.645.412-2.952,1.676h0Z"/><path class="d" d="M151.749,129.792c-1.695,1.635-3.435,3.355-4.456,5.511-1.13,2.387-1.402,5.023-1.619,7.624-.223,2.662-.269,5.338-.139,8.006.111,2.292.117,4.729,2.297,6.077,1.629,1.008,3.814,1.035,5.429-.018,1.074-.7,1.638-1.751,1.997-2.936.786-2.591,1.573-5.182,2.365-7.772.406-1.328.754-2.697,1.237-3.999.233-.627.557-.989,1-1.475.815-.895,1.635-1.785,2.458-2.672,2.099-2.262-1.287-5.664-3.394-3.394-1.023,1.103-2.075,2.19-3.057,3.331-1.029,1.196-1.535,2.588-1.994,4.072-.753,2.436-1.494,4.876-2.235,7.315-.311,1.023-.622,2.046-.932,3.069-.072.238-.17.481-.22.724,0,.004-.043.12-.038.124-.182-.116.169-.362.235-.456-.222.314-.125.095.058.019.259-.107-.158.059-.229.062-.375.016.357.025-.02-.022-.384-.048.359.084-.017-.006-.275-.066.036.012.06.054-.34-.597-.028.117-.051.015-.152-.667-.152.134-.035-.012.091-.114-.058.727.003-.056.018-.228-.02-.476-.037-.71-.162-2.294-.195-4.598-.096-6.896.103-2.371.205-4.861.941-7.136.669-2.067,2.366-3.585,3.883-5.049,2.228-2.149-1.169-5.54-3.394-3.394h0Z"/><path class="d" d="M169.828,124.321c-1.857,2.34-3.915,4.512-6.169,6.473-.543.473-1.097.935-1.662,1.381-.244.192-.49.38-.739.565-.237.175-.702.646-1.002.677.041-.004.082-.041.129-.041-.247.002-.578-.244-.798-.366-.525-.289-1.049-.624-1.475-.976-.117-.096-1.544-1.382-1.465-1.482.144.022.175.154.094.394-.111.442-.077.474.104.094.187-.235.34-.547.501-.801.846-1.328,1.743-2.625,2.695-3.879,1.781-2.344,3.778-4.527,5.897-6.568,2.229-2.147-1.168-5.539-3.394-3.394-2.081,2.005-4.019,4.148-5.793,6.429-.932,1.198-1.836,2.415-2.686,3.673-.862,1.277-2.024,2.705-2.104,4.298-.087,1.717,1.133,3.125,2.312,4.234,1.083,1.017,2.338,1.911,3.694,2.524,1.719.777,3.472.836,5.094-.23,1.235-.811,2.396-1.782,3.522-2.736,2.437-2.065,4.652-4.374,6.637-6.875.805-1.014.99-2.404,0-3.394-.835-.835-2.584-1.021-3.394,0h0Z"/><path class="d" d="M129.732,112.19c2.039-2.393,4.078-4.786,6.117-7.179.42-.493.703-1.03.703-1.697,0-.589-.261-1.292-.703-1.697-.895-.822-2.525-1.02-3.394,0-2.039,2.393-4.078,4.786-6.117,7.179-.42.493-.703,1.03-.703,1.697,0,.589.261,1.292.703,1.697.895.822,2.525,1.02,3.394,0h0Z"/><path class="d" d="M137.465,129.74c8.036-1.325,15.75-4.566,22.318-9.382,1.044-.765,1.564-2.083.861-3.284-.602-1.03-2.233-1.632-3.284-.861-6.287,4.61-13.479,7.63-21.171,8.898-1.28.211-1.994,1.797-1.676,2.952.373,1.359,1.669,1.888,2.952,1.676h0Z"/><path class="d" d="M117.327,65.943c-.503-1.702-.022-5.564,3.401-5.786,4.51.168,4.606,4.859,3.019,7.013-1.299,1.764-4.977,2.398-6.42-1.227Z"/></g></svg>