<svg xmlns="http://www.w3.org/2000/svg" viewBox="0 0 512 512">
  <path d="M 168 168 C 150 108, 178 78, 208 96 C 224 132, 218 168, 196 194 Z" fill="#000000"/>
  <path d="M 344 168 C 362 108, 334 78, 304 96 C 288 132, 294 168, 316 194 Z" fill="#000000"/>
  <path d="M256 128
           C 356 128, 402 206, 400 288
           C 398 372, 340 412, 256 412
           C 172 412, 114 372, 112 288
           C 110 206, 156 128, 256 128 Z"
        fill="#000000"/>
  <circle cx="214" cy="255" r="14" fill="#FFFFFF"/>
  <circle cx="298" cy="255" r="14" fill="#FFFFFF"/>
</svg>
